<?xml version="1.0" encoding="UTF-8" standalone="no"?>
<!DOCTYPE svg PUBLIC "-//W3C//DTD SVG 1.1//EN"
 "http://www.w3.org/Graphics/SVG/1.1/DTD/svg11.dtd">
<!-- Generated by graphviz version 12.1.2 (20240928.0832)
 -->
<!-- Title: public.query_views Pages: 1 -->
<svg width="380pt" height="198pt"
 viewBox="0.00 0.00 380.36 197.60" xmlns="http://www.w3.org/2000/svg" xmlns:xlink="http://www.w3.org/1999/xlink">
<g id="graph0" class="graph" transform="scale(1 1) rotate(0) translate(4 193.6)">
<title>public.query_views</title>
<polygon fill="white" stroke="none" points="-4,4 -4,-193.6 376.36,-193.6 376.36,4 -4,4"/>
<!-- public.query_views -->
<g id="node1" class="node">
<title>public.query_views</title>
<polygon fill="#efefef" stroke="none" points="46.2,-107.8 46.2,-143.4 326.16,-143.4 326.16,-107.8 46.2,-107.8"/>
<polygon fill="none" stroke="black" points="46.2,-107.8 46.2,-143.4 326.16,-143.4 326.16,-107.8 46.2,-107.8"/>
<text text-anchor="start" x="53.2" y="-121.2" font-family="Arial Bold" font-size="18.00">public.query_views</text>
<text text-anchor="start" x="194.67" y="-121.2" font-family="Arial" font-size="14.00">    </text>
<text text-anchor="start" x="225.79" y="-121.2" font-family="Arial" font-size="14.00" fill="#666666">[BASE TABLE]</text>
<polygon fill="none" stroke="black" points="46.2,-77 46.2,-107.8 326.16,-107.8 326.16,-77 46.2,-77"/>
<text text-anchor="start" x="53.2" y="-89.2" font-family="Arial" font-size="14.00">id </text>
<text text-anchor="start" x="67.99" y="-89.2" font-family="Arial" font-size="14.00" fill="#666666">[text]</text>
<polygon fill="none" stroke="black" points="46.2,-46.2 46.2,-77 326.16,-77 326.16,-46.2 46.2,-46.2"/>
<text text-anchor="start" x="53.2" y="-58.4" font-family="Arial" font-size="14.00">query </text>
<text text-anchor="start" x="92.11" y="-58.4" font-family="Arial" font-size="14.00" fill="#666666">[text]</text>
<polygon fill="none" stroke="black" stroke-width="3" points="44.7,-44.7 44.7,-144.9 327.66,-144.9 327.66,-44.7 44.7,-44.7"/>
</g>
</g>
</svg>
