<?xml version="1.0" encoding="UTF-8" standalone="no"?>
<!DOCTYPE svg PUBLIC "-//W3C//DTD SVG 1.1//EN"
 "http://www.w3.org/Graphics/SVG/1.1/DTD/svg11.dtd">
<!-- Generated by graphviz version 12.1.2 (20240928.0832)
 -->
<!-- Title: public.config_metadata Pages: 1 -->
<svg width="408pt" height="228pt"
 viewBox="0.00 0.00 408.32 228.40" xmlns="http://www.w3.org/2000/svg" xmlns:xlink="http://www.w3.org/1999/xlink">
<g id="graph0" class="graph" transform="scale(1 1) rotate(0) translate(4 224.4)">
<title>public.config_metadata</title>
<polygon fill="white" stroke="none" points="-4,4 -4,-224.4 404.32,-224.4 404.32,4 -4,4"/>
<!-- public.config_metadata -->
<g id="node1" class="node">
<title>public.config_metadata</title>
<polygon fill="#efefef" stroke="none" points="46.2,-138.6 46.2,-174.2 354.12,-174.2 354.12,-138.6 46.2,-138.6"/>
<polygon fill="none" stroke="black" points="46.2,-138.6 46.2,-174.2 354.12,-174.2 354.12,-138.6 46.2,-138.6"/>
<text text-anchor="start" x="53.2" y="-152" font-family="Arial Bold" font-size="18.00">public.config_metadata</text>
<text text-anchor="start" x="222.64" y="-152" font-family="Arial" font-size="14.00">    </text>
<text text-anchor="start" x="253.75" y="-152" font-family="Arial" font-size="14.00" fill="#666666">[BASE TABLE]</text>
<polygon fill="none" stroke="black" points="46.2,-107.8 46.2,-138.6 354.12,-138.6 354.12,-107.8 46.2,-107.8"/>
<text text-anchor="start" x="53.2" y="-120" font-family="Arial" font-size="14.00">key </text>
<text text-anchor="start" x="78.88" y="-120" font-family="Arial" font-size="14.00" fill="#666666">[text]</text>
<polygon fill="none" stroke="black" points="46.2,-77 46.2,-107.8 354.12,-107.8 354.12,-77 46.2,-77"/>
<text text-anchor="start" x="53.2" y="-89.2" font-family="Arial" font-size="14.00">type </text>
<text text-anchor="start" x="83.55" y="-89.2" font-family="Arial" font-size="14.00" fill="#666666">[text]</text>
<polygon fill="none" stroke="black" points="46.2,-46.2 46.2,-77 354.12,-77 354.12,-46.2 46.2,-46.2"/>
<text text-anchor="start" x="53.2" y="-58.4" font-family="Arial" font-size="14.00">value </text>
<text text-anchor="start" x="90.56" y="-58.4" font-family="Arial" font-size="14.00" fill="#666666">[text]</text>
<polygon fill="none" stroke="black" stroke-width="3" points="44.7,-44.7 44.7,-175.7 355.62,-175.7 355.62,-44.7 44.7,-44.7"/>
</g>
</g>
</svg>
