<?xml version="1.0" encoding="UTF-8" standalone="no"?>
<!DOCTYPE svg PUBLIC "-//W3C//DTD SVG 1.1//EN"
 "http://www.w3.org/Graphics/SVG/1.1/DTD/svg11.dtd">
<!-- Generated by graphviz version 12.1.2 (20240928.0832)
 -->
<!-- Title: metadata Pages: 1 -->
<svg width="1676pt" height="222pt"
 viewBox="0.00 0.00 1675.83 222.40" xmlns="http://www.w3.org/2000/svg" xmlns:xlink="http://www.w3.org/1999/xlink">
<g id="graph0" class="graph" transform="scale(1 1) rotate(0) translate(4 218.4)">
<title>metadata</title>
<polygon fill="white" stroke="none" points="-4,4 -4,-218.4 1671.83,-218.4 1671.83,4 -4,4"/>
<!-- public.config_metadata -->
<g id="node1" class="node">
<title>public.config_metadata</title>
<polygon fill="#efefef" stroke="none" points="43.2,-135.6 43.2,-171.2 351.12,-171.2 351.12,-135.6 43.2,-135.6"/>
<polygon fill="none" stroke="black" points="43.2,-135.6 43.2,-171.2 351.12,-171.2 351.12,-135.6 43.2,-135.6"/>
<text text-anchor="start" x="50.2" y="-149" font-family="Arial Bold" font-size="18.00">public.config_metadata</text>
<text text-anchor="start" x="219.64" y="-149" font-family="Arial" font-size="14.00">    </text>
<text text-anchor="start" x="250.75" y="-149" font-family="Arial" font-size="14.00" fill="#666666">[BASE TABLE]</text>
<polygon fill="none" stroke="black" points="43.2,-104.8 43.2,-135.6 351.12,-135.6 351.12,-104.8 43.2,-104.8"/>
<text text-anchor="start" x="50.2" y="-117" font-family="Arial" font-size="14.00">key </text>
<text text-anchor="start" x="75.88" y="-117" font-family="Arial" font-size="14.00" fill="#666666">[text]</text>
<polygon fill="none" stroke="black" points="43.2,-74 43.2,-104.8 351.12,-104.8 351.12,-74 43.2,-74"/>
<text text-anchor="start" x="50.2" y="-86.2" font-family="Arial" font-size="14.00">type </text>
<text text-anchor="start" x="80.55" y="-86.2" font-family="Arial" font-size="14.00" fill="#666666">[text]</text>
<polygon fill="none" stroke="black" points="43.2,-43.2 43.2,-74 351.12,-74 351.12,-43.2 43.2,-43.2"/>
<text text-anchor="start" x="50.2" y="-55.4" font-family="Arial" font-size="14.00">value </text>
<text text-anchor="start" x="87.56" y="-55.4" font-family="Arial" font-size="14.00" fill="#666666">[text]</text>
</g>
<!-- public.query_parameters -->
<g id="node2" class="node">
<title>public.query_parameters</title>
<polygon fill="#efefef" stroke="none" points="455.7,-120.2 455.7,-155.8 772.62,-155.8 772.62,-120.2 455.7,-120.2"/>
<polygon fill="none" stroke="black" points="455.7,-120.2 455.7,-155.8 772.62,-155.8 772.62,-120.2 455.7,-120.2"/>
<text text-anchor="start" x="462.7" y="-133.6" font-family="Arial Bold" font-size="18.00">public.query_parameters</text>
<text text-anchor="start" x="641.13" y="-133.6" font-family="Arial" font-size="14.00">    </text>
<text text-anchor="start" x="672.25" y="-133.6" font-family="Arial" font-size="14.00" fill="#666666">[BASE TABLE]</text>
<polygon fill="none" stroke="black" points="455.7,-89.4 455.7,-120.2 772.62,-120.2 772.62,-89.4 455.7,-89.4"/>
<text text-anchor="start" x="462.7" y="-101.6" font-family="Arial" font-size="14.00">key </text>
<text text-anchor="start" x="488.38" y="-101.6" font-family="Arial" font-size="14.00" fill="#666666">[text]</text>
<polygon fill="none" stroke="black" points="455.7,-58.6 455.7,-89.4 772.62,-89.4 772.62,-58.6 455.7,-58.6"/>
<text text-anchor="start" x="462.7" y="-70.8" font-family="Arial" font-size="14.00">value </text>
<text text-anchor="start" x="500.06" y="-70.8" font-family="Arial" font-size="14.00" fill="#666666">[text]</text>
</g>
<!-- public.query_views -->
<g id="node3" class="node">
<title>public.query_views</title>
<polygon fill="#efefef" stroke="none" points="877.18,-120.2 877.18,-155.8 1157.14,-155.8 1157.14,-120.2 877.18,-120.2"/>
<polygon fill="none" stroke="black" points="877.18,-120.2 877.18,-155.8 1157.14,-155.8 1157.14,-120.2 877.18,-120.2"/>
<text text-anchor="start" x="884.18" y="-133.6" font-family="Arial Bold" font-size="18.00">public.query_views</text>
<text text-anchor="start" x="1025.65" y="-133.6" font-family="Arial" font-size="14.00">    </text>
<text text-anchor="start" x="1056.77" y="-133.6" font-family="Arial" font-size="14.00" fill="#666666">[BASE TABLE]</text>
<polygon fill="none" stroke="black" points="877.18,-89.4 877.18,-120.2 1157.14,-120.2 1157.14,-89.4 877.18,-89.4"/>
<text text-anchor="start" x="884.18" y="-101.6" font-family="Arial" font-size="14.00">id </text>
<text text-anchor="start" x="898.97" y="-101.6" font-family="Arial" font-size="14.00" fill="#666666">[text]</text>
<polygon fill="none" stroke="black" points="877.18,-58.6 877.18,-89.4 1157.14,-89.4 1157.14,-58.6 877.18,-58.6"/>
<text text-anchor="start" x="884.18" y="-70.8" font-family="Arial" font-size="14.00">query </text>
<text text-anchor="start" x="923.09" y="-70.8" font-family="Arial" font-size="14.00" fill="#666666">[text]</text>
</g>
<!-- public.platform_configurations -->
<g id="node4" class="node">
<title>public.platform_configurations</title>
<polygon fill="#efefef" stroke="none" points="1261.69,-135.6 1261.69,-171.2 1624.63,-171.2 1624.63,-135.6 1261.69,-135.6"/>
<polygon fill="none" stroke="black" points="1261.69,-135.6 1261.69,-171.2 1624.63,-171.2 1624.63,-135.6 1261.69,-135.6"/>
<text text-anchor="start" x="1268.69" y="-149" font-family="Arial Bold" font-size="18.00">public.platform_configurations</text>
<text text-anchor="start" x="1493.14" y="-149" font-family="Arial" font-size="14.00">    </text>
<text text-anchor="start" x="1524.26" y="-149" font-family="Arial" font-size="14.00" fill="#666666">[BASE TABLE]</text>
<polygon fill="none" stroke="black" points="1261.69,-104.8 1261.69,-135.6 1624.63,-135.6 1624.63,-104.8 1261.69,-104.8"/>
<text text-anchor="start" x="1268.69" y="-117" font-family="Arial" font-size="14.00">created_at </text>
<text text-anchor="start" x="1338.74" y="-117" font-family="Arial" font-size="14.00" fill="#666666">[timestamp with time zone]</text>
<polygon fill="none" stroke="black" points="1261.69,-74 1261.69,-104.8 1624.63,-104.8 1624.63,-74 1261.69,-74"/>
<text text-anchor="start" x="1268.69" y="-86.2" font-family="Arial" font-size="14.00">updated_at </text>
<text text-anchor="start" x="1342.65" y="-86.2" font-family="Arial" font-size="14.00" fill="#666666">[timestamp with time zone]</text>
<polygon fill="none" stroke="black" points="1261.69,-43.2 1261.69,-74 1624.63,-74 1624.63,-43.2 1261.69,-43.2"/>
<text text-anchor="start" x="1268.69" y="-55.4" font-family="Arial" font-size="14.00">configured </text>
<text text-anchor="start" x="1337.96" y="-55.4" font-family="Arial" font-size="14.00" fill="#666666">[boolean]</text>
</g>
</g>
</svg>
