<?xml version="1.0" encoding="UTF-8" standalone="no"?>
<!DOCTYPE svg PUBLIC "-//W3C//DTD SVG 1.1//EN"
 "http://www.w3.org/Graphics/SVG/1.1/DTD/svg11.dtd">
<!-- Generated by graphviz version 12.1.2 (20240928.0832)
 -->
<!-- Title: public.benchmarks Pages: 1 -->
<svg width="1280pt" height="910pt"
 viewBox="0.00 0.00 1279.84 910.00" xmlns="http://www.w3.org/2000/svg" xmlns:xlink="http://www.w3.org/1999/xlink">
<g id="graph0" class="graph" transform="scale(1 1) rotate(0) translate(4 906)">
<title>public.benchmarks</title>
<polygon fill="white" stroke="none" points="-4,4 -4,-906 1275.84,-906 1275.84,4 -4,4"/>
<!-- public.benchmarks -->
<g id="node1" class="node">
<title>public.benchmarks</title>
<polygon fill="#efefef" stroke="none" points="513.19,-477.4 513.19,-513 788.14,-513 788.14,-477.4 513.19,-477.4"/>
<polygon fill="none" stroke="black" points="513.19,-477.4 513.19,-513 788.14,-513 788.14,-477.4 513.19,-477.4"/>
<text text-anchor="start" x="520.19" y="-490.8" font-family="Arial Bold" font-size="18.00">public.benchmarks</text>
<text text-anchor="start" x="656.65" y="-490.8" font-family="Arial" font-size="14.00">    </text>
<text text-anchor="start" x="687.77" y="-490.8" font-family="Arial" font-size="14.00" fill="#666666">[BASE TABLE]</text>
<polygon fill="none" stroke="black" points="513.19,-446.6 513.19,-477.4 788.14,-477.4 788.14,-446.6 513.19,-446.6"/>
<text text-anchor="start" x="520.19" y="-458.8" font-family="Arial" font-size="14.00">id </text>
<text text-anchor="start" x="534.98" y="-458.8" font-family="Arial" font-size="14.00" fill="#666666">[text]</text>
<polygon fill="none" stroke="black" points="513.19,-415.8 513.19,-446.6 788.14,-446.6 788.14,-415.8 513.19,-415.8"/>
<text text-anchor="start" x="520.19" y="-428" font-family="Arial" font-size="14.00">title </text>
<text text-anchor="start" x="545.87" y="-428" font-family="Arial" font-size="14.00" fill="#666666">[text]</text>
<polygon fill="none" stroke="black" points="513.19,-385 513.19,-415.8 788.14,-415.8 788.14,-385 513.19,-385"/>
<text text-anchor="start" x="520.19" y="-397.2" font-family="Arial" font-size="14.00">display_code </text>
<text text-anchor="start" x="605.81" y="-397.2" font-family="Arial" font-size="14.00" fill="#666666">[text]</text>
<polygon fill="none" stroke="black" points="513.19,-354.2 513.19,-385 788.14,-385 788.14,-354.2 513.19,-354.2"/>
<text text-anchor="start" x="520.19" y="-366.4" font-family="Arial" font-size="14.00">connector </text>
<text text-anchor="start" x="585.56" y="-366.4" font-family="Arial" font-size="14.00" fill="#666666">[text[]]</text>
<polygon fill="none" stroke="black" points="513.19,-323.4 513.19,-354.2 788.14,-354.2 788.14,-323.4 513.19,-323.4"/>
<text text-anchor="start" x="520.19" y="-335.6" font-family="Arial" font-size="14.00">description </text>
<text text-anchor="start" x="591.79" y="-335.6" font-family="Arial" font-size="14.00" fill="#666666">[text]</text>
<polygon fill="none" stroke="black" points="513.19,-292.6 513.19,-323.4 788.14,-323.4 788.14,-292.6 513.19,-292.6"/>
<text text-anchor="start" x="520.19" y="-304.8" font-family="Arial" font-size="14.00">logo_uri </text>
<text text-anchor="start" x="573.9" y="-304.8" font-family="Arial" font-size="14.00" fill="#666666">[text]</text>
<polygon fill="none" stroke="black" points="513.19,-261.8 513.19,-292.6 788.14,-292.6 788.14,-261.8 513.19,-261.8"/>
<text text-anchor="start" x="520.19" y="-274" font-family="Arial" font-size="14.00">category </text>
<text text-anchor="start" x="577.78" y="-274" font-family="Arial" font-size="14.00" fill="#666666">[text]</text>
<polygon fill="none" stroke="black" points="513.19,-231 513.19,-261.8 788.14,-261.8 788.14,-231 513.19,-231"/>
<text text-anchor="start" x="520.19" y="-243.2" font-family="Arial" font-size="14.00">document_uri </text>
<text text-anchor="start" x="608.91" y="-243.2" font-family="Arial" font-size="14.00" fill="#666666">[text]</text>
<polygon fill="none" stroke="black" points="513.19,-200.2 513.19,-231 788.14,-231 788.14,-200.2 513.19,-200.2"/>
<text text-anchor="start" x="520.19" y="-212.4" font-family="Arial" font-size="14.00">enabled </text>
<text text-anchor="start" x="573.91" y="-212.4" font-family="Arial" font-size="14.00" fill="#666666">[boolean]</text>
<polygon fill="none" stroke="black" points="513.19,-169.4 513.19,-200.2 788.14,-200.2 788.14,-169.4 513.19,-169.4"/>
<text text-anchor="start" x="520.19" y="-181.6" font-family="Arial" font-size="14.00">auto_assign </text>
<text text-anchor="start" x="599.59" y="-181.6" font-family="Arial" font-size="14.00" fill="#666666">[boolean]</text>
<polygon fill="none" stroke="black" points="513.19,-138.6 513.19,-169.4 788.14,-169.4 788.14,-138.6 513.19,-138.6"/>
<text text-anchor="start" x="520.19" y="-150.8" font-family="Arial" font-size="14.00">tracks_drift_events </text>
<text text-anchor="start" x="641.58" y="-150.8" font-family="Arial" font-size="14.00" fill="#666666">[boolean]</text>
<polygon fill="none" stroke="black" points="513.19,-107.8 513.19,-138.6 788.14,-138.6 788.14,-107.8 513.19,-107.8"/>
<text text-anchor="start" x="520.19" y="-120" font-family="Arial" font-size="14.00">metadata </text>
<text text-anchor="start" x="582.45" y="-120" font-family="Arial" font-size="14.00" fill="#666666">[bytea]</text>
<polygon fill="none" stroke="black" points="513.19,-77 513.19,-107.8 788.14,-107.8 788.14,-77 513.19,-77"/>
<text text-anchor="start" x="520.19" y="-89.2" font-family="Arial" font-size="14.00">created_at </text>
<text text-anchor="start" x="590.24" y="-89.2" font-family="Arial" font-size="14.00" fill="#666666">[timestamp with time zone]</text>
<polygon fill="none" stroke="black" points="513.19,-46.2 513.19,-77 788.14,-77 788.14,-46.2 513.19,-46.2"/>
<text text-anchor="start" x="520.19" y="-58.4" font-family="Arial" font-size="14.00">updated_at </text>
<text text-anchor="start" x="594.15" y="-58.4" font-family="Arial" font-size="14.00" fill="#666666">[timestamp with time zone]</text>
<polygon fill="none" stroke="black" stroke-width="3" points="511.69,-44.7 511.69,-514.5 789.64,-514.5 789.64,-44.7 511.69,-44.7"/>
</g>
<!-- public.benchmark_controls -->
<g id="node2" class="node">
<title>public.benchmark_controls</title>
<polygon fill="#efefef" stroke="none" points="43.2,-761.6 43.2,-797.2 378.13,-797.2 378.13,-761.6 43.2,-761.6"/>
<polygon fill="none" stroke="black" points="43.2,-761.6 43.2,-797.2 378.13,-797.2 378.13,-761.6 43.2,-761.6"/>
<text text-anchor="start" x="50.2" y="-775" font-family="Arial Bold" font-size="18.00">public.benchmark_controls</text>
<text text-anchor="start" x="246.64" y="-775" font-family="Arial" font-size="14.00">    </text>
<text text-anchor="start" x="277.76" y="-775" font-family="Arial" font-size="14.00" fill="#666666">[BASE TABLE]</text>
<polygon fill="none" stroke="black" points="43.2,-730.8 43.2,-761.6 378.13,-761.6 378.13,-730.8 43.2,-730.8"/>
<text text-anchor="start" x="50.2" y="-743" font-family="Arial" font-size="14.00">benchmark_id </text>
<text text-anchor="start" x="142.03" y="-743" font-family="Arial" font-size="14.00" fill="#666666">[text]</text>
<polygon fill="none" stroke="black" points="43.2,-700 43.2,-730.8 378.13,-730.8 378.13,-700 43.2,-700"/>
<text text-anchor="start" x="50.2" y="-712.2" font-family="Arial" font-size="14.00">control_id </text>
<text text-anchor="start" x="114.79" y="-712.2" font-family="Arial" font-size="14.00" fill="#666666">[text]</text>
</g>
<!-- public.benchmark_controls&#45;&gt;public.benchmarks -->
<g id="edge1" class="edge">
<title>public.benchmark_controls:benchmark_id&#45;&gt;public.benchmarks:id</title>
<path fill="none" stroke="black" d="M389.38,-745.49C445.04,-737.11 402.11,-656 430.67,-595.2 460.17,-532.37 442.78,-462 512.19,-462"/>
<polygon fill="black" stroke="black" points="389.44,-745.49 379.16,-741.69 384.12,-745.86 379.8,-746.15 379.8,-746.15 379.8,-746.15 384.12,-745.86 379.78,-750.67 389.44,-745.49"/>
<text text-anchor="start" x="386.13" y="-756.2" font-family="Arial" font-size="10.00">FOREIGN KEY (benchmark_id) REFERENCES benchmarks(id)</text>
</g>
<!-- public.benchmark_children -->
<g id="node3" class="node">
<title>public.benchmark_children</title>
<polygon fill="#efefef" stroke="none" points="482.71,-761.6 482.71,-797.2 818.63,-797.2 818.63,-761.6 482.71,-761.6"/>
<polygon fill="none" stroke="black" points="482.71,-761.6 482.71,-797.2 818.63,-797.2 818.63,-761.6 482.71,-761.6"/>
<text text-anchor="start" x="489.71" y="-775" font-family="Arial Bold" font-size="18.00">public.benchmark_children</text>
<text text-anchor="start" x="687.14" y="-775" font-family="Arial" font-size="14.00">    </text>
<text text-anchor="start" x="718.25" y="-775" font-family="Arial" font-size="14.00" fill="#666666">[BASE TABLE]</text>
<polygon fill="none" stroke="black" points="482.71,-730.8 482.71,-761.6 818.63,-761.6 818.63,-730.8 482.71,-730.8"/>
<text text-anchor="start" x="489.71" y="-743" font-family="Arial" font-size="14.00">benchmark_id </text>
<text text-anchor="start" x="581.53" y="-743" font-family="Arial" font-size="14.00" fill="#666666">[text]</text>
<polygon fill="none" stroke="black" points="482.71,-700 482.71,-730.8 818.63,-730.8 818.63,-700 482.71,-700"/>
<text text-anchor="start" x="489.71" y="-712.2" font-family="Arial" font-size="14.00">child_id </text>
<text text-anchor="start" x="541.07" y="-712.2" font-family="Arial" font-size="14.00" fill="#666666">[text]</text>
</g>
<!-- public.benchmark_children&#45;&gt;public.benchmarks -->
<g id="edge2" class="edge">
<title>public.benchmark_children:benchmark_id&#45;&gt;public.benchmarks:id</title>
<path fill="none" stroke="black" d="M829.53,-743.57C879.58,-714.92 849.06,-462 789.14,-462"/>
<polygon fill="black" stroke="black" points="829.61,-743.54 818.79,-741.77 824.46,-744.92 820.27,-746.03 820.27,-746.03 820.27,-746.03 824.46,-744.92 821.11,-750.46 829.61,-743.54"/>
<text text-anchor="start" x="677.92" y="-730.2" font-family="Arial" font-size="10.00">FOREIGN KEY (benchmark_id) REFERENCES benchmarks(id)</text>
</g>
<!-- public.benchmark_children&#45;&gt;public.benchmarks -->
<g id="edge3" class="edge">
<title>public.benchmark_children:child_id&#45;&gt;public.benchmarks:id</title>
<path fill="none" stroke="black" d="M651.18,-688.84C659.08,-613.96 756.09,-636.38 788.14,-559.2 804.71,-519.3 832.34,-462 789.14,-462"/>
<polygon fill="black" stroke="black" points="651.19,-688.68 646.19,-698.44 650.92,-694.01 650.7,-698.33 650.7,-698.33 650.7,-698.33 650.92,-694.01 655.18,-698.89 651.19,-688.68"/>
<text text-anchor="start" x="389.16" y="-709" font-family="Arial" font-size="10.00">FOREIGN KEY (child_id) REFERENCES benchmarks(id)</text>
</g>
<!-- public.benchmark_tags -->
<g id="node4" class="node">
<title>public.benchmark_tags</title>
<polygon fill="#efefef" stroke="none" points="922.7,-823.2 922.7,-858.8 1228.64,-858.8 1228.64,-823.2 922.7,-823.2"/>
<polygon fill="none" stroke="black" points="922.7,-823.2 922.7,-858.8 1228.64,-858.8 1228.64,-823.2 922.7,-823.2"/>
<text text-anchor="start" x="929.7" y="-836.6" font-family="Arial Bold" font-size="18.00">public.benchmark_tags</text>
<text text-anchor="start" x="1097.15" y="-836.6" font-family="Arial" font-size="14.00">    </text>
<text text-anchor="start" x="1128.26" y="-836.6" font-family="Arial" font-size="14.00" fill="#666666">[BASE TABLE]</text>
<polygon fill="none" stroke="black" points="922.7,-792.4 922.7,-823.2 1228.64,-823.2 1228.64,-792.4 922.7,-792.4"/>
<text text-anchor="start" x="929.7" y="-804.6" font-family="Arial" font-size="14.00">key </text>
<text text-anchor="start" x="955.37" y="-804.6" font-family="Arial" font-size="14.00" fill="#666666">[text]</text>
<polygon fill="none" stroke="black" points="922.7,-761.6 922.7,-792.4 1228.64,-792.4 1228.64,-761.6 922.7,-761.6"/>
<text text-anchor="start" x="929.7" y="-773.8" font-family="Arial" font-size="14.00">value </text>
<text text-anchor="start" x="967.06" y="-773.8" font-family="Arial" font-size="14.00" fill="#666666">[text[]]</text>
<polygon fill="none" stroke="black" points="922.7,-730.8 922.7,-761.6 1228.64,-761.6 1228.64,-730.8 922.7,-730.8"/>
<text text-anchor="start" x="929.7" y="-743" font-family="Arial" font-size="14.00">created_at </text>
<text text-anchor="start" x="999.75" y="-743" font-family="Arial" font-size="14.00" fill="#666666">[timestamp with time zone]</text>
<polygon fill="none" stroke="black" points="922.7,-700 922.7,-730.8 1228.64,-730.8 1228.64,-700 922.7,-700"/>
<text text-anchor="start" x="929.7" y="-712.2" font-family="Arial" font-size="14.00">updated_at </text>
<text text-anchor="start" x="1003.66" y="-712.2" font-family="Arial" font-size="14.00" fill="#666666">[timestamp with time zone]</text>
<polygon fill="none" stroke="black" points="922.7,-669.2 922.7,-700 1228.64,-700 1228.64,-669.2 922.7,-669.2"/>
<text text-anchor="start" x="929.7" y="-681.4" font-family="Arial" font-size="14.00">deleted_at </text>
<text text-anchor="start" x="998.98" y="-681.4" font-family="Arial" font-size="14.00" fill="#666666">[timestamp with time zone]</text>
<polygon fill="none" stroke="black" points="922.7,-638.4 922.7,-669.2 1228.64,-669.2 1228.64,-638.4 922.7,-638.4"/>
<text text-anchor="start" x="929.7" y="-650.6" font-family="Arial" font-size="14.00">benchmark_id </text>
<text text-anchor="start" x="1021.52" y="-650.6" font-family="Arial" font-size="14.00" fill="#666666">[text]</text>
</g>
<!-- public.benchmark_tags&#45;&gt;public.benchmarks -->
<g id="edge4" class="edge">
<title>public.benchmark_tags:benchmark_id&#45;&gt;public.benchmarks:id</title>
<path fill="none" stroke="black" d="M911.67,-651.37C865.94,-629.17 837.51,-462 789.14,-462"/>
<polygon fill="black" stroke="black" points="911.65,-651.37 920.32,-658.1 916.84,-652.63 921.05,-653.64 921.05,-653.64 921.05,-653.64 916.84,-652.63 922.43,-649.35 911.65,-651.37"/>
<text text-anchor="start" x="408.47" y="-637.8" font-family="Arial" font-size="10.00">FOREIGN KEY (benchmark_id) REFERENCES benchmarks(id) ON UPDATE CASCADE ON DELETE CASCADE</text>
</g>
</g>
</svg>
