<?xml version="1.0" encoding="UTF-8" standalone="no"?>
<!DOCTYPE svg PUBLIC "-//W3C//DTD SVG 1.1//EN"
 "http://www.w3.org/Graphics/SVG/1.1/DTD/svg11.dtd">
<!-- Generated by graphviz version 12.1.2 (20240928.0832)
 -->
<!-- Title: public.controls Pages: 1 -->
<svg width="810pt" height="1284pt"
 viewBox="0.00 0.00 810.49 1283.60" xmlns="http://www.w3.org/2000/svg" xmlns:xlink="http://www.w3.org/1999/xlink">
<g id="graph0" class="graph" transform="scale(1 1) rotate(0) translate(4 1279.6)">
<title>public.controls</title>
<polygon fill="white" stroke="none" points="-4,4 -4,-1279.6 806.49,-1279.6 806.49,4 -4,4"/>
<!-- public.controls -->
<g id="node1" class="node">
<title>public.controls</title>
<polygon fill="#efefef" stroke="none" points="288.96,-851 288.96,-886.6 542.65,-886.6 542.65,-851 288.96,-851"/>
<polygon fill="none" stroke="black" points="288.96,-851 288.96,-886.6 542.65,-886.6 542.65,-851 288.96,-851"/>
<text text-anchor="start" x="299.82" y="-864.4" font-family="Arial Bold" font-size="18.00">public.controls</text>
<text text-anchor="start" x="407.3" y="-864.4" font-family="Arial" font-size="14.00">    </text>
<text text-anchor="start" x="438.42" y="-864.4" font-family="Arial" font-size="14.00" fill="#666666">[BASE TABLE]</text>
<polygon fill="none" stroke="black" points="288.96,-820.2 288.96,-851 542.65,-851 542.65,-820.2 288.96,-820.2"/>
<text text-anchor="start" x="295.96" y="-832.4" font-family="Arial" font-size="14.00">id </text>
<text text-anchor="start" x="310.75" y="-832.4" font-family="Arial" font-size="14.00" fill="#666666">[text]</text>
<polygon fill="none" stroke="black" points="288.96,-789.4 288.96,-820.2 542.65,-820.2 542.65,-789.4 288.96,-789.4"/>
<text text-anchor="start" x="295.96" y="-801.6" font-family="Arial" font-size="14.00">title </text>
<text text-anchor="start" x="321.64" y="-801.6" font-family="Arial" font-size="14.00" fill="#666666">[text]</text>
<polygon fill="none" stroke="black" points="288.96,-758.6 288.96,-789.4 542.65,-789.4 542.65,-758.6 288.96,-758.6"/>
<text text-anchor="start" x="295.96" y="-770.8" font-family="Arial" font-size="14.00">description </text>
<text text-anchor="start" x="367.56" y="-770.8" font-family="Arial" font-size="14.00" fill="#666666">[text]</text>
<polygon fill="none" stroke="black" points="288.96,-727.8 288.96,-758.6 542.65,-758.6 542.65,-727.8 288.96,-727.8"/>
<text text-anchor="start" x="295.96" y="-740" font-family="Arial" font-size="14.00">connector </text>
<text text-anchor="start" x="361.34" y="-740" font-family="Arial" font-size="14.00" fill="#666666">[text[]]</text>
<polygon fill="none" stroke="black" points="288.96,-697 288.96,-727.8 542.65,-727.8 542.65,-697 288.96,-697"/>
<text text-anchor="start" x="295.96" y="-709.2" font-family="Arial" font-size="14.00">document_uri </text>
<text text-anchor="start" x="384.68" y="-709.2" font-family="Arial" font-size="14.00" fill="#666666">[text]</text>
<polygon fill="none" stroke="black" points="288.96,-666.2 288.96,-697 542.65,-697 542.65,-666.2 288.96,-666.2"/>
<text text-anchor="start" x="295.96" y="-678.4" font-family="Arial" font-size="14.00">enabled </text>
<text text-anchor="start" x="349.68" y="-678.4" font-family="Arial" font-size="14.00" fill="#666666">[boolean]</text>
<polygon fill="none" stroke="black" points="288.96,-635.4 288.96,-666.2 542.65,-666.2 542.65,-635.4 288.96,-635.4"/>
<text text-anchor="start" x="295.96" y="-647.6" font-family="Arial" font-size="14.00">query_id </text>
<text text-anchor="start" x="353.56" y="-647.6" font-family="Arial" font-size="14.00" fill="#666666">[text]</text>
<polygon fill="none" stroke="black" points="288.96,-604.6 288.96,-635.4 542.65,-635.4 542.65,-604.6 288.96,-604.6"/>
<text text-anchor="start" x="295.96" y="-616.8" font-family="Arial" font-size="14.00">severity </text>
<text text-anchor="start" x="348.09" y="-616.8" font-family="Arial" font-size="14.00" fill="#666666">[text]</text>
<polygon fill="none" stroke="black" points="288.96,-573.8 288.96,-604.6 542.65,-604.6 542.65,-573.8 288.96,-573.8"/>
<text text-anchor="start" x="295.96" y="-586" font-family="Arial" font-size="14.00">manual_verification </text>
<text text-anchor="start" x="420.47" y="-586" font-family="Arial" font-size="14.00" fill="#666666">[boolean]</text>
<polygon fill="none" stroke="black" points="288.96,-543 288.96,-573.8 542.65,-573.8 542.65,-543 288.96,-543"/>
<text text-anchor="start" x="295.96" y="-555.2" font-family="Arial" font-size="14.00">managed </text>
<text text-anchor="start" x="358.23" y="-555.2" font-family="Arial" font-size="14.00" fill="#666666">[boolean]</text>
<polygon fill="none" stroke="black" points="288.96,-512.2 288.96,-543 542.65,-543 542.65,-512.2 288.96,-512.2"/>
<text text-anchor="start" x="295.96" y="-524.4" font-family="Arial" font-size="14.00">created_at </text>
<text text-anchor="start" x="366.01" y="-524.4" font-family="Arial" font-size="14.00" fill="#666666">[timestamp with time zone]</text>
<polygon fill="none" stroke="black" points="288.96,-481.4 288.96,-512.2 542.65,-512.2 542.65,-481.4 288.96,-481.4"/>
<text text-anchor="start" x="295.96" y="-493.6" font-family="Arial" font-size="14.00">updated_at </text>
<text text-anchor="start" x="369.92" y="-493.6" font-family="Arial" font-size="14.00" fill="#666666">[timestamp with time zone]</text>
<polygon fill="none" stroke="black" stroke-width="3" points="287.46,-479.9 287.46,-888.1 544.15,-888.1 544.15,-479.9 287.46,-479.9"/>
</g>
<!-- public.queries -->
<g id="node4" class="node">
<title>public.queries</title>
<polygon fill="#efefef" stroke="none" points="288.96,-320.4 288.96,-356 542.65,-356 542.65,-320.4 288.96,-320.4"/>
<polygon fill="none" stroke="black" points="288.96,-320.4 288.96,-356 542.65,-356 542.65,-320.4 288.96,-320.4"/>
<text text-anchor="start" x="302.83" y="-333.8" font-family="Arial Bold" font-size="18.00">public.queries</text>
<text text-anchor="start" x="404.29" y="-333.8" font-family="Arial" font-size="14.00">    </text>
<text text-anchor="start" x="435.41" y="-333.8" font-family="Arial" font-size="14.00" fill="#666666">[BASE TABLE]</text>
<polygon fill="none" stroke="black" points="288.96,-289.6 288.96,-320.4 542.65,-320.4 542.65,-289.6 288.96,-289.6"/>
<text text-anchor="start" x="295.96" y="-301.8" font-family="Arial" font-size="14.00">id </text>
<text text-anchor="start" x="310.75" y="-301.8" font-family="Arial" font-size="14.00" fill="#666666">[text]</text>
<polygon fill="none" stroke="black" points="288.96,-258.8 288.96,-289.6 542.65,-289.6 542.65,-258.8 288.96,-258.8"/>
<text text-anchor="start" x="295.96" y="-271" font-family="Arial" font-size="14.00">query_to_execute </text>
<text text-anchor="start" x="411.16" y="-271" font-family="Arial" font-size="14.00" fill="#666666">[text]</text>
<polygon fill="none" stroke="black" points="288.96,-228 288.96,-258.8 542.65,-258.8 542.65,-228 288.96,-228"/>
<text text-anchor="start" x="295.96" y="-240.2" font-family="Arial" font-size="14.00">connector </text>
<text text-anchor="start" x="361.34" y="-240.2" font-family="Arial" font-size="14.00" fill="#666666">[text[]]</text>
<polygon fill="none" stroke="black" points="288.96,-197.2 288.96,-228 542.65,-228 542.65,-197.2 288.96,-197.2"/>
<text text-anchor="start" x="295.96" y="-209.4" font-family="Arial" font-size="14.00">primary_table </text>
<text text-anchor="start" x="384.67" y="-209.4" font-family="Arial" font-size="14.00" fill="#666666">[text]</text>
<polygon fill="none" stroke="black" points="288.96,-166.4 288.96,-197.2 542.65,-197.2 542.65,-166.4 288.96,-166.4"/>
<text text-anchor="start" x="295.96" y="-178.6" font-family="Arial" font-size="14.00">list_of_tables </text>
<text text-anchor="start" x="381.57" y="-178.6" font-family="Arial" font-size="14.00" fill="#666666">[text[]]</text>
<polygon fill="none" stroke="black" points="288.96,-135.6 288.96,-166.4 542.65,-166.4 542.65,-135.6 288.96,-135.6"/>
<text text-anchor="start" x="295.96" y="-147.8" font-family="Arial" font-size="14.00">engine </text>
<text text-anchor="start" x="341.89" y="-147.8" font-family="Arial" font-size="14.00" fill="#666666">[text]</text>
<polygon fill="none" stroke="black" points="288.96,-104.8 288.96,-135.6 542.65,-135.6 542.65,-104.8 288.96,-104.8"/>
<text text-anchor="start" x="295.96" y="-117" font-family="Arial" font-size="14.00">global </text>
<text text-anchor="start" x="337.22" y="-117" font-family="Arial" font-size="14.00" fill="#666666">[boolean]</text>
<polygon fill="none" stroke="black" points="288.96,-74 288.96,-104.8 542.65,-104.8 542.65,-74 288.96,-74"/>
<text text-anchor="start" x="295.96" y="-86.2" font-family="Arial" font-size="14.00">created_at </text>
<text text-anchor="start" x="366.01" y="-86.2" font-family="Arial" font-size="14.00" fill="#666666">[timestamp with time zone]</text>
<polygon fill="none" stroke="black" points="288.96,-43.2 288.96,-74 542.65,-74 542.65,-43.2 288.96,-43.2"/>
<text text-anchor="start" x="295.96" y="-55.4" font-family="Arial" font-size="14.00">updated_at </text>
<text text-anchor="start" x="369.92" y="-55.4" font-family="Arial" font-size="14.00" fill="#666666">[timestamp with time zone]</text>
</g>
<!-- public.controls&#45;&gt;public.queries -->
<g id="edge3" class="edge">
<title>public.controls:query_id&#45;&gt;public.queries:id</title>
<path fill="none" stroke="black" d="M553.77,-650.28C697.26,-635.44 693.88,-305 543.65,-305"/>
<polygon fill="black" stroke="black" points="553.97,-650.27 543.75,-646.29 548.64,-650.55 544.31,-650.77 544.31,-650.77 544.31,-650.77 548.64,-650.55 544.21,-655.28 553.97,-650.27"/>
<text text-anchor="start" x="550.65" y="-660.8" font-family="Arial" font-size="10.00">FOREIGN KEY (query_id) REFERENCES queries(id)</text>
</g>
<!-- public.benchmark_controls -->
<g id="node2" class="node">
<title>public.benchmark_controls</title>
<polygon fill="#efefef" stroke="none" points="43.34,-1135.2 43.34,-1170.8 378.27,-1170.8 378.27,-1135.2 43.34,-1135.2"/>
<polygon fill="none" stroke="black" points="43.34,-1135.2 43.34,-1170.8 378.27,-1170.8 378.27,-1135.2 43.34,-1135.2"/>
<text text-anchor="start" x="50.34" y="-1148.6" font-family="Arial Bold" font-size="18.00">public.benchmark_controls</text>
<text text-anchor="start" x="246.78" y="-1148.6" font-family="Arial" font-size="14.00">    </text>
<text text-anchor="start" x="277.9" y="-1148.6" font-family="Arial" font-size="14.00" fill="#666666">[BASE TABLE]</text>
<polygon fill="none" stroke="black" points="43.34,-1104.4 43.34,-1135.2 378.27,-1135.2 378.27,-1104.4 43.34,-1104.4"/>
<text text-anchor="start" x="50.34" y="-1116.6" font-family="Arial" font-size="14.00">benchmark_id </text>
<text text-anchor="start" x="142.17" y="-1116.6" font-family="Arial" font-size="14.00" fill="#666666">[text]</text>
<polygon fill="none" stroke="black" points="43.34,-1073.6 43.34,-1104.4 378.27,-1104.4 378.27,-1073.6 43.34,-1073.6"/>
<text text-anchor="start" x="50.34" y="-1085.8" font-family="Arial" font-size="14.00">control_id </text>
<text text-anchor="start" x="114.93" y="-1085.8" font-family="Arial" font-size="14.00" fill="#666666">[text]</text>
</g>
<!-- public.benchmark_controls&#45;&gt;public.controls -->
<g id="edge1" class="edge">
<title>public.benchmark_controls:control_id&#45;&gt;public.controls:id</title>
<path fill="none" stroke="black" d="M389.11,-1086.18C399.56,-1077.48 386.25,-1050.44 378.27,-1030.4 356.51,-975.78 310.54,-987.5 288.96,-932.8 273.11,-892.61 244.76,-835.6 287.96,-835.6"/>
<polygon fill="black" stroke="black" points="389.21,-1086.15 378.35,-1084.58 384.08,-1087.62 379.91,-1088.82 379.91,-1088.82 379.91,-1088.82 384.08,-1087.62 380.83,-1093.23 389.21,-1086.15"/>
<text text-anchor="start" x="386.27" y="-1099" font-family="Arial" font-size="10.00">FOREIGN KEY (control_id) REFERENCES controls(id)</text>
</g>
<!-- public.control_tags -->
<g id="node3" class="node">
<title>public.control_tags</title>
<polygon fill="#efefef" stroke="none" points="482.32,-1196.8 482.32,-1232.4 759.29,-1232.4 759.29,-1196.8 482.32,-1196.8"/>
<polygon fill="none" stroke="black" points="482.32,-1196.8 482.32,-1232.4 759.29,-1232.4 759.29,-1196.8 482.32,-1196.8"/>
<text text-anchor="start" x="489.32" y="-1210.2" font-family="Arial Bold" font-size="18.00">public.control_tags</text>
<text text-anchor="start" x="627.8" y="-1210.2" font-family="Arial" font-size="14.00">    </text>
<text text-anchor="start" x="658.91" y="-1210.2" font-family="Arial" font-size="14.00" fill="#666666">[BASE TABLE]</text>
<polygon fill="none" stroke="black" points="482.32,-1166 482.32,-1196.8 759.29,-1196.8 759.29,-1166 482.32,-1166"/>
<text text-anchor="start" x="489.32" y="-1178.2" font-family="Arial" font-size="14.00">key </text>
<text text-anchor="start" x="515" y="-1178.2" font-family="Arial" font-size="14.00" fill="#666666">[text]</text>
<polygon fill="none" stroke="black" points="482.32,-1135.2 482.32,-1166 759.29,-1166 759.29,-1135.2 482.32,-1135.2"/>
<text text-anchor="start" x="489.32" y="-1147.4" font-family="Arial" font-size="14.00">value </text>
<text text-anchor="start" x="526.68" y="-1147.4" font-family="Arial" font-size="14.00" fill="#666666">[text[]]</text>
<polygon fill="none" stroke="black" points="482.32,-1104.4 482.32,-1135.2 759.29,-1135.2 759.29,-1104.4 482.32,-1104.4"/>
<text text-anchor="start" x="489.32" y="-1116.6" font-family="Arial" font-size="14.00">created_at </text>
<text text-anchor="start" x="559.37" y="-1116.6" font-family="Arial" font-size="14.00" fill="#666666">[timestamp with time zone]</text>
<polygon fill="none" stroke="black" points="482.32,-1073.6 482.32,-1104.4 759.29,-1104.4 759.29,-1073.6 482.32,-1073.6"/>
<text text-anchor="start" x="489.32" y="-1085.8" font-family="Arial" font-size="14.00">updated_at </text>
<text text-anchor="start" x="563.28" y="-1085.8" font-family="Arial" font-size="14.00" fill="#666666">[timestamp with time zone]</text>
<polygon fill="none" stroke="black" points="482.32,-1042.8 482.32,-1073.6 759.29,-1073.6 759.29,-1042.8 482.32,-1042.8"/>
<text text-anchor="start" x="489.32" y="-1055" font-family="Arial" font-size="14.00">deleted_at </text>
<text text-anchor="start" x="558.61" y="-1055" font-family="Arial" font-size="14.00" fill="#666666">[timestamp with time zone]</text>
<polygon fill="none" stroke="black" points="482.32,-1012 482.32,-1042.8 759.29,-1042.8 759.29,-1012 482.32,-1012"/>
<text text-anchor="start" x="489.32" y="-1024.2" font-family="Arial" font-size="14.00">control_id </text>
<text text-anchor="start" x="553.92" y="-1024.2" font-family="Arial" font-size="14.00" fill="#666666">[text]</text>
</g>
<!-- public.control_tags&#45;&gt;public.controls -->
<g id="edge2" class="edge">
<title>public.control_tags:control_id&#45;&gt;public.controls:id</title>
<path fill="none" stroke="black" d="M471.56,-1024.71C459.84,-1015.93 471.41,-987.64 482.32,-968.8 497.97,-941.78 527.09,-959.87 542.65,-932.8 564.17,-895.34 586.85,-835.6 543.65,-835.6"/>
<polygon fill="black" stroke="black" points="471.36,-1024.65 479.81,-1031.65 476.5,-1026.07 480.68,-1027.22 480.68,-1027.22 480.68,-1027.22 476.5,-1026.07 482.2,-1022.97 471.36,-1024.65"/>
<text text-anchor="start" x="7" y="-1011.4" font-family="Arial" font-size="10.00">FOREIGN KEY (control_id) REFERENCES controls(id) ON UPDATE CASCADE ON DELETE CASCADE</text>
</g>
</g>
</svg>
