<?xml version="1.0" encoding="UTF-8" standalone="no"?>
<!DOCTYPE svg PUBLIC "-//W3C//DTD SVG 1.1//EN"
 "http://www.w3.org/Graphics/SVG/1.1/DTD/svg11.dtd">
<!-- Generated by graphviz version 12.1.2 (20240928.0832)
 -->
<!-- Title: public.control_tags Pages: 1 -->
<svg width="674pt" height="848pt"
 viewBox="0.00 0.00 674.00 848.40" xmlns="http://www.w3.org/2000/svg" xmlns:xlink="http://www.w3.org/1999/xlink">
<g id="graph0" class="graph" transform="scale(1 1) rotate(0) translate(4 844.4)">
<title>public.control_tags</title>
<polygon fill="white" stroke="none" points="-4,4 -4,-844.4 670,-844.4 670,4 -4,4"/>
<!-- public.control_tags -->
<g id="node1" class="node">
<title>public.control_tags</title>
<polygon fill="#efefef" stroke="none" points="342.84,-758.6 342.84,-794.2 619.8,-794.2 619.8,-758.6 342.84,-758.6"/>
<polygon fill="none" stroke="black" points="342.84,-758.6 342.84,-794.2 619.8,-794.2 619.8,-758.6 342.84,-758.6"/>
<text text-anchor="start" x="349.84" y="-772" font-family="Arial Bold" font-size="18.00">public.control_tags</text>
<text text-anchor="start" x="488.32" y="-772" font-family="Arial" font-size="14.00">    </text>
<text text-anchor="start" x="519.43" y="-772" font-family="Arial" font-size="14.00" fill="#666666">[BASE TABLE]</text>
<polygon fill="none" stroke="black" points="342.84,-727.8 342.84,-758.6 619.8,-758.6 619.8,-727.8 342.84,-727.8"/>
<text text-anchor="start" x="349.84" y="-740" font-family="Arial" font-size="14.00">key </text>
<text text-anchor="start" x="375.52" y="-740" font-family="Arial" font-size="14.00" fill="#666666">[text]</text>
<polygon fill="none" stroke="black" points="342.84,-697 342.84,-727.8 619.8,-727.8 619.8,-697 342.84,-697"/>
<text text-anchor="start" x="349.84" y="-709.2" font-family="Arial" font-size="14.00">value </text>
<text text-anchor="start" x="387.2" y="-709.2" font-family="Arial" font-size="14.00" fill="#666666">[text[]]</text>
<polygon fill="none" stroke="black" points="342.84,-666.2 342.84,-697 619.8,-697 619.8,-666.2 342.84,-666.2"/>
<text text-anchor="start" x="349.84" y="-678.4" font-family="Arial" font-size="14.00">created_at </text>
<text text-anchor="start" x="419.89" y="-678.4" font-family="Arial" font-size="14.00" fill="#666666">[timestamp with time zone]</text>
<polygon fill="none" stroke="black" points="342.84,-635.4 342.84,-666.2 619.8,-666.2 619.8,-635.4 342.84,-635.4"/>
<text text-anchor="start" x="349.84" y="-647.6" font-family="Arial" font-size="14.00">updated_at </text>
<text text-anchor="start" x="423.8" y="-647.6" font-family="Arial" font-size="14.00" fill="#666666">[timestamp with time zone]</text>
<polygon fill="none" stroke="black" points="342.84,-604.6 342.84,-635.4 619.8,-635.4 619.8,-604.6 342.84,-604.6"/>
<text text-anchor="start" x="349.84" y="-616.8" font-family="Arial" font-size="14.00">deleted_at </text>
<text text-anchor="start" x="419.13" y="-616.8" font-family="Arial" font-size="14.00" fill="#666666">[timestamp with time zone]</text>
<polygon fill="none" stroke="black" points="342.84,-573.8 342.84,-604.6 619.8,-604.6 619.8,-573.8 342.84,-573.8"/>
<text text-anchor="start" x="349.84" y="-586" font-family="Arial" font-size="14.00">control_id </text>
<text text-anchor="start" x="414.44" y="-586" font-family="Arial" font-size="14.00" fill="#666666">[text]</text>
<polygon fill="none" stroke="black" stroke-width="3" points="341.34,-572.3 341.34,-795.7 621.3,-795.7 621.3,-572.3 341.34,-572.3"/>
</g>
<!-- public.controls -->
<g id="node2" class="node">
<title>public.controls</title>
<polygon fill="#efefef" stroke="none" points="354.48,-412.8 354.48,-448.4 608.17,-448.4 608.17,-412.8 354.48,-412.8"/>
<polygon fill="none" stroke="black" points="354.48,-412.8 354.48,-448.4 608.17,-448.4 608.17,-412.8 354.48,-412.8"/>
<text text-anchor="start" x="365.34" y="-426.2" font-family="Arial Bold" font-size="18.00">public.controls</text>
<text text-anchor="start" x="472.82" y="-426.2" font-family="Arial" font-size="14.00">    </text>
<text text-anchor="start" x="503.94" y="-426.2" font-family="Arial" font-size="14.00" fill="#666666">[BASE TABLE]</text>
<polygon fill="none" stroke="black" points="354.48,-382 354.48,-412.8 608.17,-412.8 608.17,-382 354.48,-382"/>
<text text-anchor="start" x="361.48" y="-394.2" font-family="Arial" font-size="14.00">id </text>
<text text-anchor="start" x="376.27" y="-394.2" font-family="Arial" font-size="14.00" fill="#666666">[text]</text>
<polygon fill="none" stroke="black" points="354.48,-351.2 354.48,-382 608.17,-382 608.17,-351.2 354.48,-351.2"/>
<text text-anchor="start" x="361.48" y="-363.4" font-family="Arial" font-size="14.00">title </text>
<text text-anchor="start" x="387.16" y="-363.4" font-family="Arial" font-size="14.00" fill="#666666">[text]</text>
<polygon fill="none" stroke="black" points="354.48,-320.4 354.48,-351.2 608.17,-351.2 608.17,-320.4 354.48,-320.4"/>
<text text-anchor="start" x="361.48" y="-332.6" font-family="Arial" font-size="14.00">description </text>
<text text-anchor="start" x="433.08" y="-332.6" font-family="Arial" font-size="14.00" fill="#666666">[text]</text>
<polygon fill="none" stroke="black" points="354.48,-289.6 354.48,-320.4 608.17,-320.4 608.17,-289.6 354.48,-289.6"/>
<text text-anchor="start" x="361.48" y="-301.8" font-family="Arial" font-size="14.00">connector </text>
<text text-anchor="start" x="426.86" y="-301.8" font-family="Arial" font-size="14.00" fill="#666666">[text[]]</text>
<polygon fill="none" stroke="black" points="354.48,-258.8 354.48,-289.6 608.17,-289.6 608.17,-258.8 354.48,-258.8"/>
<text text-anchor="start" x="361.48" y="-271" font-family="Arial" font-size="14.00">document_uri </text>
<text text-anchor="start" x="450.2" y="-271" font-family="Arial" font-size="14.00" fill="#666666">[text]</text>
<polygon fill="none" stroke="black" points="354.48,-228 354.48,-258.8 608.17,-258.8 608.17,-228 354.48,-228"/>
<text text-anchor="start" x="361.48" y="-240.2" font-family="Arial" font-size="14.00">enabled </text>
<text text-anchor="start" x="415.2" y="-240.2" font-family="Arial" font-size="14.00" fill="#666666">[boolean]</text>
<polygon fill="none" stroke="black" points="354.48,-197.2 354.48,-228 608.17,-228 608.17,-197.2 354.48,-197.2"/>
<text text-anchor="start" x="361.48" y="-209.4" font-family="Arial" font-size="14.00">query_id </text>
<text text-anchor="start" x="419.08" y="-209.4" font-family="Arial" font-size="14.00" fill="#666666">[text]</text>
<polygon fill="none" stroke="black" points="354.48,-166.4 354.48,-197.2 608.17,-197.2 608.17,-166.4 354.48,-166.4"/>
<text text-anchor="start" x="361.48" y="-178.6" font-family="Arial" font-size="14.00">severity </text>
<text text-anchor="start" x="413.61" y="-178.6" font-family="Arial" font-size="14.00" fill="#666666">[text]</text>
<polygon fill="none" stroke="black" points="354.48,-135.6 354.48,-166.4 608.17,-166.4 608.17,-135.6 354.48,-135.6"/>
<text text-anchor="start" x="361.48" y="-147.8" font-family="Arial" font-size="14.00">manual_verification </text>
<text text-anchor="start" x="485.99" y="-147.8" font-family="Arial" font-size="14.00" fill="#666666">[boolean]</text>
<polygon fill="none" stroke="black" points="354.48,-104.8 354.48,-135.6 608.17,-135.6 608.17,-104.8 354.48,-104.8"/>
<text text-anchor="start" x="361.48" y="-117" font-family="Arial" font-size="14.00">managed </text>
<text text-anchor="start" x="423.75" y="-117" font-family="Arial" font-size="14.00" fill="#666666">[boolean]</text>
<polygon fill="none" stroke="black" points="354.48,-74 354.48,-104.8 608.17,-104.8 608.17,-74 354.48,-74"/>
<text text-anchor="start" x="361.48" y="-86.2" font-family="Arial" font-size="14.00">created_at </text>
<text text-anchor="start" x="431.53" y="-86.2" font-family="Arial" font-size="14.00" fill="#666666">[timestamp with time zone]</text>
<polygon fill="none" stroke="black" points="354.48,-43.2 354.48,-74 608.17,-74 608.17,-43.2 354.48,-43.2"/>
<text text-anchor="start" x="361.48" y="-55.4" font-family="Arial" font-size="14.00">updated_at </text>
<text text-anchor="start" x="435.44" y="-55.4" font-family="Arial" font-size="14.00" fill="#666666">[timestamp with time zone]</text>
</g>
<!-- public.control_tags&#45;&gt;public.controls -->
<g id="edge1" class="edge">
<title>public.control_tags:control_id&#45;&gt;public.controls:id</title>
<path fill="none" stroke="black" d="M482.2,-562.46C491.82,-510.55 577.56,-546.83 608.17,-491.6 628.46,-454.98 651.03,-397.4 609.17,-397.4"/>
<polygon fill="black" stroke="black" points="482.2,-562.5 476.87,-572.09 481.75,-567.82 481.38,-572.13 481.38,-572.13 481.38,-572.13 481.75,-567.82 485.84,-572.85 482.2,-562.5"/>
<text text-anchor="start" x="7" y="-582.8" font-family="Arial" font-size="10.00">FOREIGN KEY (control_id) REFERENCES controls(id) ON UPDATE CASCADE ON DELETE CASCADE</text>
</g>
</g>
</svg>
