<?xml version="1.0" encoding="UTF-8" standalone="no"?>
<!DOCTYPE svg PUBLIC "-//W3C//DTD SVG 1.1//EN"
 "http://www.w3.org/Graphics/SVG/1.1/DTD/svg11.dtd">
<!-- Generated by graphviz version 12.1.2 (20240928.0832)
 -->
<!-- Title: public.queries Pages: 1 -->
<svg width="770pt" height="941pt"
 viewBox="0.00 0.00 769.70 940.80" xmlns="http://www.w3.org/2000/svg" xmlns:xlink="http://www.w3.org/1999/xlink">
<g id="graph0" class="graph" transform="scale(1 1) rotate(0) translate(4 936.8)">
<title>public.queries</title>
<polygon fill="white" stroke="none" points="-4,4 -4,-936.8 765.7,-936.8 765.7,4 -4,4"/>
<!-- public.queries -->
<g id="node1" class="node">
<title>public.queries</title>
<polygon fill="#efefef" stroke="none" points="269.82,-323.4 269.82,-359 523.5,-359 523.5,-323.4 269.82,-323.4"/>
<polygon fill="none" stroke="black" points="269.82,-323.4 269.82,-359 523.5,-359 523.5,-323.4 269.82,-323.4"/>
<text text-anchor="start" x="283.68" y="-336.8" font-family="Arial Bold" font-size="18.00">public.queries</text>
<text text-anchor="start" x="385.15" y="-336.8" font-family="Arial" font-size="14.00">    </text>
<text text-anchor="start" x="416.27" y="-336.8" font-family="Arial" font-size="14.00" fill="#666666">[BASE TABLE]</text>
<polygon fill="none" stroke="black" points="269.82,-292.6 269.82,-323.4 523.5,-323.4 523.5,-292.6 269.82,-292.6"/>
<text text-anchor="start" x="276.82" y="-304.8" font-family="Arial" font-size="14.00">id </text>
<text text-anchor="start" x="291.6" y="-304.8" font-family="Arial" font-size="14.00" fill="#666666">[text]</text>
<polygon fill="none" stroke="black" points="269.82,-261.8 269.82,-292.6 523.5,-292.6 523.5,-261.8 269.82,-261.8"/>
<text text-anchor="start" x="276.82" y="-274" font-family="Arial" font-size="14.00">query_to_execute </text>
<text text-anchor="start" x="392.01" y="-274" font-family="Arial" font-size="14.00" fill="#666666">[text]</text>
<polygon fill="none" stroke="black" points="269.82,-231 269.82,-261.8 523.5,-261.8 523.5,-231 269.82,-231"/>
<text text-anchor="start" x="276.82" y="-243.2" font-family="Arial" font-size="14.00">connector </text>
<text text-anchor="start" x="342.19" y="-243.2" font-family="Arial" font-size="14.00" fill="#666666">[text[]]</text>
<polygon fill="none" stroke="black" points="269.82,-200.2 269.82,-231 523.5,-231 523.5,-200.2 269.82,-200.2"/>
<text text-anchor="start" x="276.82" y="-212.4" font-family="Arial" font-size="14.00">primary_table </text>
<text text-anchor="start" x="365.52" y="-212.4" font-family="Arial" font-size="14.00" fill="#666666">[text]</text>
<polygon fill="none" stroke="black" points="269.82,-169.4 269.82,-200.2 523.5,-200.2 523.5,-169.4 269.82,-169.4"/>
<text text-anchor="start" x="276.82" y="-181.6" font-family="Arial" font-size="14.00">list_of_tables </text>
<text text-anchor="start" x="362.42" y="-181.6" font-family="Arial" font-size="14.00" fill="#666666">[text[]]</text>
<polygon fill="none" stroke="black" points="269.82,-138.6 269.82,-169.4 523.5,-169.4 523.5,-138.6 269.82,-138.6"/>
<text text-anchor="start" x="276.82" y="-150.8" font-family="Arial" font-size="14.00">engine </text>
<text text-anchor="start" x="322.75" y="-150.8" font-family="Arial" font-size="14.00" fill="#666666">[text]</text>
<polygon fill="none" stroke="black" points="269.82,-107.8 269.82,-138.6 523.5,-138.6 523.5,-107.8 269.82,-107.8"/>
<text text-anchor="start" x="276.82" y="-120" font-family="Arial" font-size="14.00">global </text>
<text text-anchor="start" x="318.07" y="-120" font-family="Arial" font-size="14.00" fill="#666666">[boolean]</text>
<polygon fill="none" stroke="black" points="269.82,-77 269.82,-107.8 523.5,-107.8 523.5,-77 269.82,-77"/>
<text text-anchor="start" x="276.82" y="-89.2" font-family="Arial" font-size="14.00">created_at </text>
<text text-anchor="start" x="346.87" y="-89.2" font-family="Arial" font-size="14.00" fill="#666666">[timestamp with time zone]</text>
<polygon fill="none" stroke="black" points="269.82,-46.2 269.82,-77 523.5,-77 523.5,-46.2 269.82,-46.2"/>
<text text-anchor="start" x="276.82" y="-58.4" font-family="Arial" font-size="14.00">updated_at </text>
<text text-anchor="start" x="350.78" y="-58.4" font-family="Arial" font-size="14.00" fill="#666666">[timestamp with time zone]</text>
<polygon fill="none" stroke="black" stroke-width="3" points="268.32,-44.7 268.32,-360.5 525,-360.5 525,-44.7 268.32,-44.7"/>
</g>
<!-- public.query_parameters -->
<g id="node2" class="node">
<title>public.query_parameters</title>
<polygon fill="#efefef" stroke="none" points="43.2,-715.4 43.2,-751 360.12,-751 360.12,-715.4 43.2,-715.4"/>
<polygon fill="none" stroke="black" points="43.2,-715.4 43.2,-751 360.12,-751 360.12,-715.4 43.2,-715.4"/>
<text text-anchor="start" x="50.2" y="-728.8" font-family="Arial Bold" font-size="18.00">public.query_parameters</text>
<text text-anchor="start" x="228.63" y="-728.8" font-family="Arial" font-size="14.00">    </text>
<text text-anchor="start" x="259.74" y="-728.8" font-family="Arial" font-size="14.00" fill="#666666">[BASE TABLE]</text>
<polygon fill="none" stroke="black" points="43.2,-684.6 43.2,-715.4 360.12,-715.4 360.12,-684.6 43.2,-684.6"/>
<text text-anchor="start" x="50.2" y="-696.8" font-family="Arial" font-size="14.00">query_id </text>
<text text-anchor="start" x="107.79" y="-696.8" font-family="Arial" font-size="14.00" fill="#666666">[text]</text>
<polygon fill="none" stroke="black" points="43.2,-653.8 43.2,-684.6 360.12,-684.6 360.12,-653.8 43.2,-653.8"/>
<text text-anchor="start" x="50.2" y="-666" font-family="Arial" font-size="14.00">key </text>
<text text-anchor="start" x="75.88" y="-666" font-family="Arial" font-size="14.00" fill="#666666">[text]</text>
<polygon fill="none" stroke="black" points="43.2,-623 43.2,-653.8 360.12,-653.8 360.12,-623 43.2,-623"/>
<text text-anchor="start" x="50.2" y="-635.2" font-family="Arial" font-size="14.00">required </text>
<text text-anchor="start" x="105.45" y="-635.2" font-family="Arial" font-size="14.00" fill="#666666">[boolean]</text>
</g>
<!-- public.query_parameters&#45;&gt;public.queries -->
<g id="edge1" class="edge">
<title>public.query_parameters:query_id&#45;&gt;public.queries:id</title>
<path fill="none" stroke="black" d="M371.34,-699.51C521.9,-684.09 93.5,-308 268.82,-308"/>
<polygon fill="black" stroke="black" points="371.44,-699.51 361.24,-695.49 366.11,-699.76 361.78,-699.97 361.78,-699.97 361.78,-699.97 366.11,-699.76 361.66,-704.48 371.44,-699.51"/>
<text text-anchor="start" x="368.12" y="-710" font-family="Arial" font-size="10.00">FOREIGN KEY (query_id) REFERENCES queries(id)</text>
</g>
<!-- public.controls -->
<g id="node3" class="node">
<title>public.controls</title>
<polygon fill="#efefef" stroke="none" points="464.82,-854 464.82,-889.6 718.5,-889.6 718.5,-854 464.82,-854"/>
<polygon fill="none" stroke="black" points="464.82,-854 464.82,-889.6 718.5,-889.6 718.5,-854 464.82,-854"/>
<text text-anchor="start" x="475.67" y="-867.4" font-family="Arial Bold" font-size="18.00">public.controls</text>
<text text-anchor="start" x="583.15" y="-867.4" font-family="Arial" font-size="14.00">    </text>
<text text-anchor="start" x="614.27" y="-867.4" font-family="Arial" font-size="14.00" fill="#666666">[BASE TABLE]</text>
<polygon fill="none" stroke="black" points="464.82,-823.2 464.82,-854 718.5,-854 718.5,-823.2 464.82,-823.2"/>
<text text-anchor="start" x="471.82" y="-835.4" font-family="Arial" font-size="14.00">id </text>
<text text-anchor="start" x="486.6" y="-835.4" font-family="Arial" font-size="14.00" fill="#666666">[text]</text>
<polygon fill="none" stroke="black" points="464.82,-792.4 464.82,-823.2 718.5,-823.2 718.5,-792.4 464.82,-792.4"/>
<text text-anchor="start" x="471.82" y="-804.6" font-family="Arial" font-size="14.00">title </text>
<text text-anchor="start" x="497.49" y="-804.6" font-family="Arial" font-size="14.00" fill="#666666">[text]</text>
<polygon fill="none" stroke="black" points="464.82,-761.6 464.82,-792.4 718.5,-792.4 718.5,-761.6 464.82,-761.6"/>
<text text-anchor="start" x="471.82" y="-773.8" font-family="Arial" font-size="14.00">description </text>
<text text-anchor="start" x="543.41" y="-773.8" font-family="Arial" font-size="14.00" fill="#666666">[text]</text>
<polygon fill="none" stroke="black" points="464.82,-730.8 464.82,-761.6 718.5,-761.6 718.5,-730.8 464.82,-730.8"/>
<text text-anchor="start" x="471.82" y="-743" font-family="Arial" font-size="14.00">connector </text>
<text text-anchor="start" x="537.19" y="-743" font-family="Arial" font-size="14.00" fill="#666666">[text[]]</text>
<polygon fill="none" stroke="black" points="464.82,-700 464.82,-730.8 718.5,-730.8 718.5,-700 464.82,-700"/>
<text text-anchor="start" x="471.82" y="-712.2" font-family="Arial" font-size="14.00">document_uri </text>
<text text-anchor="start" x="560.53" y="-712.2" font-family="Arial" font-size="14.00" fill="#666666">[text]</text>
<polygon fill="none" stroke="black" points="464.82,-669.2 464.82,-700 718.5,-700 718.5,-669.2 464.82,-669.2"/>
<text text-anchor="start" x="471.82" y="-681.4" font-family="Arial" font-size="14.00">enabled </text>
<text text-anchor="start" x="525.53" y="-681.4" font-family="Arial" font-size="14.00" fill="#666666">[boolean]</text>
<polygon fill="none" stroke="black" points="464.82,-638.4 464.82,-669.2 718.5,-669.2 718.5,-638.4 464.82,-638.4"/>
<text text-anchor="start" x="471.82" y="-650.6" font-family="Arial" font-size="14.00">query_id </text>
<text text-anchor="start" x="529.41" y="-650.6" font-family="Arial" font-size="14.00" fill="#666666">[text]</text>
<polygon fill="none" stroke="black" points="464.82,-607.6 464.82,-638.4 718.5,-638.4 718.5,-607.6 464.82,-607.6"/>
<text text-anchor="start" x="471.82" y="-619.8" font-family="Arial" font-size="14.00">severity </text>
<text text-anchor="start" x="523.94" y="-619.8" font-family="Arial" font-size="14.00" fill="#666666">[text]</text>
<polygon fill="none" stroke="black" points="464.82,-576.8 464.82,-607.6 718.5,-607.6 718.5,-576.8 464.82,-576.8"/>
<text text-anchor="start" x="471.82" y="-589" font-family="Arial" font-size="14.00">manual_verification </text>
<text text-anchor="start" x="596.33" y="-589" font-family="Arial" font-size="14.00" fill="#666666">[boolean]</text>
<polygon fill="none" stroke="black" points="464.82,-546 464.82,-576.8 718.5,-576.8 718.5,-546 464.82,-546"/>
<text text-anchor="start" x="471.82" y="-558.2" font-family="Arial" font-size="14.00">managed </text>
<text text-anchor="start" x="534.09" y="-558.2" font-family="Arial" font-size="14.00" fill="#666666">[boolean]</text>
<polygon fill="none" stroke="black" points="464.82,-515.2 464.82,-546 718.5,-546 718.5,-515.2 464.82,-515.2"/>
<text text-anchor="start" x="471.82" y="-527.4" font-family="Arial" font-size="14.00">created_at </text>
<text text-anchor="start" x="541.87" y="-527.4" font-family="Arial" font-size="14.00" fill="#666666">[timestamp with time zone]</text>
<polygon fill="none" stroke="black" points="464.82,-484.4 464.82,-515.2 718.5,-515.2 718.5,-484.4 464.82,-484.4"/>
<text text-anchor="start" x="471.82" y="-496.6" font-family="Arial" font-size="14.00">updated_at </text>
<text text-anchor="start" x="545.78" y="-496.6" font-family="Arial" font-size="14.00" fill="#666666">[timestamp with time zone]</text>
</g>
<!-- public.controls&#45;&gt;public.queries -->
<g id="edge2" class="edge">
<title>public.controls:query_id&#45;&gt;public.queries:id</title>
<path fill="none" stroke="black" d="M454.03,-650.8C420.48,-627.81 443.46,-479.16 464.82,-441.2 479.82,-414.54 508.42,-431.82 523.5,-405.2 544.79,-367.61 567.7,-308 524.5,-308"/>
<polygon fill="black" stroke="black" points="453.94,-650.77 462.18,-658.01 459.04,-652.34 463.18,-653.6 463.18,-653.6 463.18,-653.6 459.04,-652.34 464.81,-649.4 453.94,-650.77"/>
<text text-anchor="start" x="470.82" y="-663.8" font-family="Arial" font-size="10.00">FOREIGN KEY (query_id) REFERENCES queries(id)</text>
</g>
</g>
</svg>
