<?xml version="1.0" encoding="UTF-8" standalone="no"?>
<!DOCTYPE svg PUBLIC "-//W3C//DTD SVG 1.1//EN"
 "http://www.w3.org/Graphics/SVG/1.1/DTD/svg11.dtd">
<!-- Generated by graphviz version 12.1.2 (20240928.0832)
 -->
<!-- Title: public.benchmark_controls Pages: 1 -->
<svg width="901pt" height="787pt"
 viewBox="0.00 0.00 900.84 786.80" xmlns="http://www.w3.org/2000/svg" xmlns:xlink="http://www.w3.org/1999/xlink">
<g id="graph0" class="graph" transform="scale(1 1) rotate(0) translate(4 782.8)">
<title>public.benchmark_controls</title>
<polygon fill="white" stroke="none" points="-4,4 -4,-782.8 896.84,-782.8 896.84,4 -4,4"/>
<!-- public.benchmark_controls -->
<g id="node1" class="node">
<title>public.benchmark_controls</title>
<polygon fill="#efefef" stroke="none" points="298.41,-697 298.41,-732.6 633.34,-732.6 633.34,-697 298.41,-697"/>
<polygon fill="none" stroke="black" points="298.41,-697 298.41,-732.6 633.34,-732.6 633.34,-697 298.41,-697"/>
<text text-anchor="start" x="305.41" y="-710.4" font-family="Arial Bold" font-size="18.00">public.benchmark_controls</text>
<text text-anchor="start" x="501.85" y="-710.4" font-family="Arial" font-size="14.00">    </text>
<text text-anchor="start" x="532.97" y="-710.4" font-family="Arial" font-size="14.00" fill="#666666">[BASE TABLE]</text>
<polygon fill="none" stroke="black" points="298.41,-666.2 298.41,-697 633.34,-697 633.34,-666.2 298.41,-666.2"/>
<text text-anchor="start" x="305.41" y="-678.4" font-family="Arial" font-size="14.00">benchmark_id </text>
<text text-anchor="start" x="397.24" y="-678.4" font-family="Arial" font-size="14.00" fill="#666666">[text]</text>
<polygon fill="none" stroke="black" points="298.41,-635.4 298.41,-666.2 633.34,-666.2 633.34,-635.4 298.41,-635.4"/>
<text text-anchor="start" x="305.41" y="-647.6" font-family="Arial" font-size="14.00">control_id </text>
<text text-anchor="start" x="370" y="-647.6" font-family="Arial" font-size="14.00" fill="#666666">[text]</text>
<polygon fill="none" stroke="black" stroke-width="3" points="296.91,-633.9 296.91,-734.1 634.84,-734.1 634.84,-633.9 296.91,-633.9"/>
</g>
<!-- public.benchmarks -->
<g id="node2" class="node">
<title>public.benchmarks</title>
<polygon fill="#efefef" stroke="none" points="144.4,-474.4 144.4,-510 419.35,-510 419.35,-474.4 144.4,-474.4"/>
<polygon fill="none" stroke="black" points="144.4,-474.4 144.4,-510 419.35,-510 419.35,-474.4 144.4,-474.4"/>
<text text-anchor="start" x="151.4" y="-487.8" font-family="Arial Bold" font-size="18.00">public.benchmarks</text>
<text text-anchor="start" x="287.86" y="-487.8" font-family="Arial" font-size="14.00">    </text>
<text text-anchor="start" x="318.98" y="-487.8" font-family="Arial" font-size="14.00" fill="#666666">[BASE TABLE]</text>
<polygon fill="none" stroke="black" points="144.4,-443.6 144.4,-474.4 419.35,-474.4 419.35,-443.6 144.4,-443.6"/>
<text text-anchor="start" x="151.4" y="-455.8" font-family="Arial" font-size="14.00">id </text>
<text text-anchor="start" x="166.19" y="-455.8" font-family="Arial" font-size="14.00" fill="#666666">[text]</text>
<polygon fill="none" stroke="black" points="144.4,-412.8 144.4,-443.6 419.35,-443.6 419.35,-412.8 144.4,-412.8"/>
<text text-anchor="start" x="151.4" y="-425" font-family="Arial" font-size="14.00">title </text>
<text text-anchor="start" x="177.08" y="-425" font-family="Arial" font-size="14.00" fill="#666666">[text]</text>
<polygon fill="none" stroke="black" points="144.4,-382 144.4,-412.8 419.35,-412.8 419.35,-382 144.4,-382"/>
<text text-anchor="start" x="151.4" y="-394.2" font-family="Arial" font-size="14.00">display_code </text>
<text text-anchor="start" x="237.01" y="-394.2" font-family="Arial" font-size="14.00" fill="#666666">[text]</text>
<polygon fill="none" stroke="black" points="144.4,-351.2 144.4,-382 419.35,-382 419.35,-351.2 144.4,-351.2"/>
<text text-anchor="start" x="151.4" y="-363.4" font-family="Arial" font-size="14.00">connector </text>
<text text-anchor="start" x="216.77" y="-363.4" font-family="Arial" font-size="14.00" fill="#666666">[text[]]</text>
<polygon fill="none" stroke="black" points="144.4,-320.4 144.4,-351.2 419.35,-351.2 419.35,-320.4 144.4,-320.4"/>
<text text-anchor="start" x="151.4" y="-332.6" font-family="Arial" font-size="14.00">description </text>
<text text-anchor="start" x="222.99" y="-332.6" font-family="Arial" font-size="14.00" fill="#666666">[text]</text>
<polygon fill="none" stroke="black" points="144.4,-289.6 144.4,-320.4 419.35,-320.4 419.35,-289.6 144.4,-289.6"/>
<text text-anchor="start" x="151.4" y="-301.8" font-family="Arial" font-size="14.00">logo_uri </text>
<text text-anchor="start" x="205.1" y="-301.8" font-family="Arial" font-size="14.00" fill="#666666">[text]</text>
<polygon fill="none" stroke="black" points="144.4,-258.8 144.4,-289.6 419.35,-289.6 419.35,-258.8 144.4,-258.8"/>
<text text-anchor="start" x="151.4" y="-271" font-family="Arial" font-size="14.00">category </text>
<text text-anchor="start" x="208.99" y="-271" font-family="Arial" font-size="14.00" fill="#666666">[text]</text>
<polygon fill="none" stroke="black" points="144.4,-228 144.4,-258.8 419.35,-258.8 419.35,-228 144.4,-228"/>
<text text-anchor="start" x="151.4" y="-240.2" font-family="Arial" font-size="14.00">document_uri </text>
<text text-anchor="start" x="240.12" y="-240.2" font-family="Arial" font-size="14.00" fill="#666666">[text]</text>
<polygon fill="none" stroke="black" points="144.4,-197.2 144.4,-228 419.35,-228 419.35,-197.2 144.4,-197.2"/>
<text text-anchor="start" x="151.4" y="-209.4" font-family="Arial" font-size="14.00">enabled </text>
<text text-anchor="start" x="205.12" y="-209.4" font-family="Arial" font-size="14.00" fill="#666666">[boolean]</text>
<polygon fill="none" stroke="black" points="144.4,-166.4 144.4,-197.2 419.35,-197.2 419.35,-166.4 144.4,-166.4"/>
<text text-anchor="start" x="151.4" y="-178.6" font-family="Arial" font-size="14.00">auto_assign </text>
<text text-anchor="start" x="230.79" y="-178.6" font-family="Arial" font-size="14.00" fill="#666666">[boolean]</text>
<polygon fill="none" stroke="black" points="144.4,-135.6 144.4,-166.4 419.35,-166.4 419.35,-135.6 144.4,-135.6"/>
<text text-anchor="start" x="151.4" y="-147.8" font-family="Arial" font-size="14.00">tracks_drift_events </text>
<text text-anchor="start" x="272.79" y="-147.8" font-family="Arial" font-size="14.00" fill="#666666">[boolean]</text>
<polygon fill="none" stroke="black" points="144.4,-104.8 144.4,-135.6 419.35,-135.6 419.35,-104.8 144.4,-104.8"/>
<text text-anchor="start" x="151.4" y="-117" font-family="Arial" font-size="14.00">metadata </text>
<text text-anchor="start" x="213.66" y="-117" font-family="Arial" font-size="14.00" fill="#666666">[bytea]</text>
<polygon fill="none" stroke="black" points="144.4,-74 144.4,-104.8 419.35,-104.8 419.35,-74 144.4,-74"/>
<text text-anchor="start" x="151.4" y="-86.2" font-family="Arial" font-size="14.00">created_at </text>
<text text-anchor="start" x="221.45" y="-86.2" font-family="Arial" font-size="14.00" fill="#666666">[timestamp with time zone]</text>
<polygon fill="none" stroke="black" points="144.4,-43.2 144.4,-74 419.35,-74 419.35,-43.2 144.4,-43.2"/>
<text text-anchor="start" x="151.4" y="-55.4" font-family="Arial" font-size="14.00">updated_at </text>
<text text-anchor="start" x="225.36" y="-55.4" font-family="Arial" font-size="14.00" fill="#666666">[timestamp with time zone]</text>
</g>
<!-- public.benchmark_controls&#45;&gt;public.benchmarks -->
<g id="edge1" class="edge">
<title>public.benchmark_controls:benchmark_id&#45;&gt;public.benchmarks:id</title>
<path fill="none" stroke="black" d="M287.36,-680.1C259.66,-670.66 276,-618.92 298.41,-589.2 332.18,-544.42 385.59,-597.98 419.35,-553.2 444.56,-519.77 462.22,-459 420.35,-459"/>
<polygon fill="black" stroke="black" points="287.19,-680.07 296.41,-686 292.46,-680.86 296.75,-681.5 296.75,-681.5 296.75,-681.5 292.46,-680.86 297.74,-677.1 287.19,-680.07"/>
<text text-anchor="start" x="7" y="-691.6" font-family="Arial" font-size="10.00">FOREIGN KEY (benchmark_id) REFERENCES benchmarks(id)</text>
</g>
<!-- public.controls -->
<g id="node3" class="node">
<title>public.controls</title>
<polygon fill="#efefef" stroke="none" points="524.03,-443.6 524.03,-479.2 777.72,-479.2 777.72,-443.6 524.03,-443.6"/>
<polygon fill="none" stroke="black" points="524.03,-443.6 524.03,-479.2 777.72,-479.2 777.72,-443.6 524.03,-443.6"/>
<text text-anchor="start" x="534.89" y="-457" font-family="Arial Bold" font-size="18.00">public.controls</text>
<text text-anchor="start" x="642.37" y="-457" font-family="Arial" font-size="14.00">    </text>
<text text-anchor="start" x="673.49" y="-457" font-family="Arial" font-size="14.00" fill="#666666">[BASE TABLE]</text>
<polygon fill="none" stroke="black" points="524.03,-412.8 524.03,-443.6 777.72,-443.6 777.72,-412.8 524.03,-412.8"/>
<text text-anchor="start" x="531.03" y="-425" font-family="Arial" font-size="14.00">id </text>
<text text-anchor="start" x="545.82" y="-425" font-family="Arial" font-size="14.00" fill="#666666">[text]</text>
<polygon fill="none" stroke="black" points="524.03,-382 524.03,-412.8 777.72,-412.8 777.72,-382 524.03,-382"/>
<text text-anchor="start" x="531.03" y="-394.2" font-family="Arial" font-size="14.00">title </text>
<text text-anchor="start" x="556.71" y="-394.2" font-family="Arial" font-size="14.00" fill="#666666">[text]</text>
<polygon fill="none" stroke="black" points="524.03,-351.2 524.03,-382 777.72,-382 777.72,-351.2 524.03,-351.2"/>
<text text-anchor="start" x="531.03" y="-363.4" font-family="Arial" font-size="14.00">description </text>
<text text-anchor="start" x="602.63" y="-363.4" font-family="Arial" font-size="14.00" fill="#666666">[text]</text>
<polygon fill="none" stroke="black" points="524.03,-320.4 524.03,-351.2 777.72,-351.2 777.72,-320.4 524.03,-320.4"/>
<text text-anchor="start" x="531.03" y="-332.6" font-family="Arial" font-size="14.00">connector </text>
<text text-anchor="start" x="596.41" y="-332.6" font-family="Arial" font-size="14.00" fill="#666666">[text[]]</text>
<polygon fill="none" stroke="black" points="524.03,-289.6 524.03,-320.4 777.72,-320.4 777.72,-289.6 524.03,-289.6"/>
<text text-anchor="start" x="531.03" y="-301.8" font-family="Arial" font-size="14.00">document_uri </text>
<text text-anchor="start" x="619.75" y="-301.8" font-family="Arial" font-size="14.00" fill="#666666">[text]</text>
<polygon fill="none" stroke="black" points="524.03,-258.8 524.03,-289.6 777.72,-289.6 777.72,-258.8 524.03,-258.8"/>
<text text-anchor="start" x="531.03" y="-271" font-family="Arial" font-size="14.00">enabled </text>
<text text-anchor="start" x="584.75" y="-271" font-family="Arial" font-size="14.00" fill="#666666">[boolean]</text>
<polygon fill="none" stroke="black" points="524.03,-228 524.03,-258.8 777.72,-258.8 777.72,-228 524.03,-228"/>
<text text-anchor="start" x="531.03" y="-240.2" font-family="Arial" font-size="14.00">query_id </text>
<text text-anchor="start" x="588.63" y="-240.2" font-family="Arial" font-size="14.00" fill="#666666">[text]</text>
<polygon fill="none" stroke="black" points="524.03,-197.2 524.03,-228 777.72,-228 777.72,-197.2 524.03,-197.2"/>
<text text-anchor="start" x="531.03" y="-209.4" font-family="Arial" font-size="14.00">severity </text>
<text text-anchor="start" x="583.16" y="-209.4" font-family="Arial" font-size="14.00" fill="#666666">[text]</text>
<polygon fill="none" stroke="black" points="524.03,-166.4 524.03,-197.2 777.72,-197.2 777.72,-166.4 524.03,-166.4"/>
<text text-anchor="start" x="531.03" y="-178.6" font-family="Arial" font-size="14.00">manual_verification </text>
<text text-anchor="start" x="655.54" y="-178.6" font-family="Arial" font-size="14.00" fill="#666666">[boolean]</text>
<polygon fill="none" stroke="black" points="524.03,-135.6 524.03,-166.4 777.72,-166.4 777.72,-135.6 524.03,-135.6"/>
<text text-anchor="start" x="531.03" y="-147.8" font-family="Arial" font-size="14.00">managed </text>
<text text-anchor="start" x="593.3" y="-147.8" font-family="Arial" font-size="14.00" fill="#666666">[boolean]</text>
<polygon fill="none" stroke="black" points="524.03,-104.8 524.03,-135.6 777.72,-135.6 777.72,-104.8 524.03,-104.8"/>
<text text-anchor="start" x="531.03" y="-117" font-family="Arial" font-size="14.00">created_at </text>
<text text-anchor="start" x="601.08" y="-117" font-family="Arial" font-size="14.00" fill="#666666">[timestamp with time zone]</text>
<polygon fill="none" stroke="black" points="524.03,-74 524.03,-104.8 777.72,-104.8 777.72,-74 524.03,-74"/>
<text text-anchor="start" x="531.03" y="-86.2" font-family="Arial" font-size="14.00">updated_at </text>
<text text-anchor="start" x="604.99" y="-86.2" font-family="Arial" font-size="14.00" fill="#666666">[timestamp with time zone]</text>
</g>
<!-- public.benchmark_controls&#45;&gt;public.controls -->
<g id="edge2" class="edge">
<title>public.benchmark_controls:control_id&#45;&gt;public.controls:id</title>
<path fill="none" stroke="black" d="M644.25,-648.23C657.13,-639.32 644.81,-609.26 633.34,-589.2 605.09,-539.77 552.15,-571.91 524.03,-522.4 503.36,-485.99 481.17,-428.2 523.03,-428.2"/>
<polygon fill="black" stroke="black" points="644.34,-648.2 633.53,-646.36 639.18,-649.54 634.99,-650.63 634.99,-650.63 634.99,-650.63 639.18,-649.54 635.8,-655.07 644.34,-648.2"/>
<text text-anchor="start" x="641.34" y="-660.8" font-family="Arial" font-size="10.00">FOREIGN KEY (control_id) REFERENCES controls(id)</text>
</g>
</g>
</svg>
