<?xml version="1.0" encoding="UTF-8" standalone="no"?>
<!DOCTYPE svg PUBLIC "-//W3C//DTD SVG 1.1//EN"
 "http://www.w3.org/Graphics/SVG/1.1/DTD/svg11.dtd">
<!-- Generated by graphviz version 12.1.2 (20240928.0832)
 -->
<!-- Title: public.benchmark_children Pages: 1 -->
<svg width="743pt" height="787pt"
 viewBox="0.00 0.00 742.87 786.80" xmlns="http://www.w3.org/2000/svg" xmlns:xlink="http://www.w3.org/1999/xlink">
<g id="graph0" class="graph" transform="scale(1 1) rotate(0) translate(4 782.8)">
<title>public.benchmark_children</title>
<polygon fill="white" stroke="none" points="-4,4 -4,-782.8 738.87,-782.8 738.87,4 -4,4"/>
<!-- public.benchmark_children -->
<g id="node1" class="node">
<title>public.benchmark_children</title>
<polygon fill="#efefef" stroke="none" points="100.55,-697 100.55,-732.6 436.47,-732.6 436.47,-697 100.55,-697"/>
<polygon fill="none" stroke="black" points="100.55,-697 100.55,-732.6 436.47,-732.6 436.47,-697 100.55,-697"/>
<text text-anchor="start" x="107.55" y="-710.4" font-family="Arial Bold" font-size="18.00">public.benchmark_children</text>
<text text-anchor="start" x="304.98" y="-710.4" font-family="Arial" font-size="14.00">    </text>
<text text-anchor="start" x="336.09" y="-710.4" font-family="Arial" font-size="14.00" fill="#666666">[BASE TABLE]</text>
<polygon fill="none" stroke="black" points="100.55,-666.2 100.55,-697 436.47,-697 436.47,-666.2 100.55,-666.2"/>
<text text-anchor="start" x="107.55" y="-678.4" font-family="Arial" font-size="14.00">benchmark_id </text>
<text text-anchor="start" x="199.38" y="-678.4" font-family="Arial" font-size="14.00" fill="#666666">[text]</text>
<polygon fill="none" stroke="black" points="100.55,-635.4 100.55,-666.2 436.47,-666.2 436.47,-635.4 100.55,-635.4"/>
<text text-anchor="start" x="107.55" y="-647.6" font-family="Arial" font-size="14.00">child_id </text>
<text text-anchor="start" x="158.91" y="-647.6" font-family="Arial" font-size="14.00" fill="#666666">[text]</text>
<polygon fill="none" stroke="black" stroke-width="3" points="99.05,-633.9 99.05,-734.1 437.97,-734.1 437.97,-633.9 99.05,-633.9"/>
</g>
<!-- public.benchmarks -->
<g id="node2" class="node">
<title>public.benchmarks</title>
<polygon fill="#efefef" stroke="none" points="131.03,-474.4 131.03,-510 405.98,-510 405.98,-474.4 131.03,-474.4"/>
<polygon fill="none" stroke="black" points="131.03,-474.4 131.03,-510 405.98,-510 405.98,-474.4 131.03,-474.4"/>
<text text-anchor="start" x="138.03" y="-487.8" font-family="Arial Bold" font-size="18.00">public.benchmarks</text>
<text text-anchor="start" x="274.49" y="-487.8" font-family="Arial" font-size="14.00">    </text>
<text text-anchor="start" x="305.61" y="-487.8" font-family="Arial" font-size="14.00" fill="#666666">[BASE TABLE]</text>
<polygon fill="none" stroke="black" points="131.03,-443.6 131.03,-474.4 405.98,-474.4 405.98,-443.6 131.03,-443.6"/>
<text text-anchor="start" x="138.03" y="-455.8" font-family="Arial" font-size="14.00">id </text>
<text text-anchor="start" x="152.82" y="-455.8" font-family="Arial" font-size="14.00" fill="#666666">[text]</text>
<polygon fill="none" stroke="black" points="131.03,-412.8 131.03,-443.6 405.98,-443.6 405.98,-412.8 131.03,-412.8"/>
<text text-anchor="start" x="138.03" y="-425" font-family="Arial" font-size="14.00">title </text>
<text text-anchor="start" x="163.71" y="-425" font-family="Arial" font-size="14.00" fill="#666666">[text]</text>
<polygon fill="none" stroke="black" points="131.03,-382 131.03,-412.8 405.98,-412.8 405.98,-382 131.03,-382"/>
<text text-anchor="start" x="138.03" y="-394.2" font-family="Arial" font-size="14.00">display_code </text>
<text text-anchor="start" x="223.65" y="-394.2" font-family="Arial" font-size="14.00" fill="#666666">[text]</text>
<polygon fill="none" stroke="black" points="131.03,-351.2 131.03,-382 405.98,-382 405.98,-351.2 131.03,-351.2"/>
<text text-anchor="start" x="138.03" y="-363.4" font-family="Arial" font-size="14.00">connector </text>
<text text-anchor="start" x="203.4" y="-363.4" font-family="Arial" font-size="14.00" fill="#666666">[text[]]</text>
<polygon fill="none" stroke="black" points="131.03,-320.4 131.03,-351.2 405.98,-351.2 405.98,-320.4 131.03,-320.4"/>
<text text-anchor="start" x="138.03" y="-332.6" font-family="Arial" font-size="14.00">description </text>
<text text-anchor="start" x="209.63" y="-332.6" font-family="Arial" font-size="14.00" fill="#666666">[text]</text>
<polygon fill="none" stroke="black" points="131.03,-289.6 131.03,-320.4 405.98,-320.4 405.98,-289.6 131.03,-289.6"/>
<text text-anchor="start" x="138.03" y="-301.8" font-family="Arial" font-size="14.00">logo_uri </text>
<text text-anchor="start" x="191.74" y="-301.8" font-family="Arial" font-size="14.00" fill="#666666">[text]</text>
<polygon fill="none" stroke="black" points="131.03,-258.8 131.03,-289.6 405.98,-289.6 405.98,-258.8 131.03,-258.8"/>
<text text-anchor="start" x="138.03" y="-271" font-family="Arial" font-size="14.00">category </text>
<text text-anchor="start" x="195.62" y="-271" font-family="Arial" font-size="14.00" fill="#666666">[text]</text>
<polygon fill="none" stroke="black" points="131.03,-228 131.03,-258.8 405.98,-258.8 405.98,-228 131.03,-228"/>
<text text-anchor="start" x="138.03" y="-240.2" font-family="Arial" font-size="14.00">document_uri </text>
<text text-anchor="start" x="226.75" y="-240.2" font-family="Arial" font-size="14.00" fill="#666666">[text]</text>
<polygon fill="none" stroke="black" points="131.03,-197.2 131.03,-228 405.98,-228 405.98,-197.2 131.03,-197.2"/>
<text text-anchor="start" x="138.03" y="-209.4" font-family="Arial" font-size="14.00">enabled </text>
<text text-anchor="start" x="191.75" y="-209.4" font-family="Arial" font-size="14.00" fill="#666666">[boolean]</text>
<polygon fill="none" stroke="black" points="131.03,-166.4 131.03,-197.2 405.98,-197.2 405.98,-166.4 131.03,-166.4"/>
<text text-anchor="start" x="138.03" y="-178.6" font-family="Arial" font-size="14.00">auto_assign </text>
<text text-anchor="start" x="217.43" y="-178.6" font-family="Arial" font-size="14.00" fill="#666666">[boolean]</text>
<polygon fill="none" stroke="black" points="131.03,-135.6 131.03,-166.4 405.98,-166.4 405.98,-135.6 131.03,-135.6"/>
<text text-anchor="start" x="138.03" y="-147.8" font-family="Arial" font-size="14.00">tracks_drift_events </text>
<text text-anchor="start" x="259.42" y="-147.8" font-family="Arial" font-size="14.00" fill="#666666">[boolean]</text>
<polygon fill="none" stroke="black" points="131.03,-104.8 131.03,-135.6 405.98,-135.6 405.98,-104.8 131.03,-104.8"/>
<text text-anchor="start" x="138.03" y="-117" font-family="Arial" font-size="14.00">metadata </text>
<text text-anchor="start" x="200.29" y="-117" font-family="Arial" font-size="14.00" fill="#666666">[bytea]</text>
<polygon fill="none" stroke="black" points="131.03,-74 131.03,-104.8 405.98,-104.8 405.98,-74 131.03,-74"/>
<text text-anchor="start" x="138.03" y="-86.2" font-family="Arial" font-size="14.00">created_at </text>
<text text-anchor="start" x="208.08" y="-86.2" font-family="Arial" font-size="14.00" fill="#666666">[timestamp with time zone]</text>
<polygon fill="none" stroke="black" points="131.03,-43.2 131.03,-74 405.98,-74 405.98,-43.2 131.03,-43.2"/>
<text text-anchor="start" x="138.03" y="-55.4" font-family="Arial" font-size="14.00">updated_at </text>
<text text-anchor="start" x="211.99" y="-55.4" font-family="Arial" font-size="14.00" fill="#666666">[timestamp with time zone]</text>
</g>
<!-- public.benchmark_children&#45;&gt;public.benchmarks -->
<g id="edge1" class="edge">
<title>public.benchmark_children:benchmark_id&#45;&gt;public.benchmarks:id</title>
<path fill="none" stroke="black" d="M447.78,-680.75C535.03,-665.8 503.23,-459 406.98,-459"/>
<polygon fill="black" stroke="black" points="447.77,-680.75 437.43,-677.09 442.45,-681.19 438.13,-681.55 438.13,-681.55 438.13,-681.55 442.45,-681.19 438.17,-686.06 447.77,-680.75"/>
<text text-anchor="start" x="444.47" y="-691.6" font-family="Arial" font-size="10.00">FOREIGN KEY (benchmark_id) REFERENCES benchmarks(id)</text>
</g>
<!-- public.benchmark_children&#45;&gt;public.benchmarks -->
<g id="edge2" class="edge">
<title>public.benchmark_children:child_id&#45;&gt;public.benchmarks:id</title>
<path fill="none" stroke="black" d="M269.33,-624.16C279.08,-568.53 372.35,-611.4 405.98,-553.2 426.93,-516.95 448.85,-459 406.98,-459"/>
<polygon fill="black" stroke="black" points="269.34,-624.1 264.05,-633.7 268.91,-629.42 268.56,-633.73 268.56,-633.73 268.56,-633.73 268.91,-629.42 273.02,-634.43 269.34,-624.1"/>
<text text-anchor="start" x="7" y="-644.4" font-family="Arial" font-size="10.00">FOREIGN KEY (child_id) REFERENCES benchmarks(id)</text>
</g>
</g>
</svg>
