<?xml version="1.0" encoding="UTF-8" standalone="no"?>
<!DOCTYPE svg PUBLIC "-//W3C//DTD SVG 1.1//EN"
 "http://www.w3.org/Graphics/SVG/1.1/DTD/svg11.dtd">
<!-- Generated by graphviz version 12.1.2 (20240928.0832)
 -->
<!-- Title: public.query_parameters Pages: 1 -->
<svg width="623pt" height="664pt"
 viewBox="0.00 0.00 623.40 663.60" xmlns="http://www.w3.org/2000/svg" xmlns:xlink="http://www.w3.org/1999/xlink">
<g id="graph0" class="graph" transform="scale(1 1) rotate(0) translate(4 659.6)">
<title>public.query_parameters</title>
<polygon fill="white" stroke="none" points="-4,4 -4,-659.6 619.4,-659.6 619.4,4 -4,4"/>
<!-- public.query_parameters -->
<g id="node1" class="node">
<title>public.query_parameters</title>
<polygon fill="#efefef" stroke="none" points="46.2,-573.8 46.2,-609.4 363.12,-609.4 363.12,-573.8 46.2,-573.8"/>
<polygon fill="none" stroke="black" points="46.2,-573.8 46.2,-609.4 363.12,-609.4 363.12,-573.8 46.2,-573.8"/>
<text text-anchor="start" x="53.2" y="-587.2" font-family="Arial Bold" font-size="18.00">public.query_parameters</text>
<text text-anchor="start" x="231.63" y="-587.2" font-family="Arial" font-size="14.00">    </text>
<text text-anchor="start" x="262.74" y="-587.2" font-family="Arial" font-size="14.00" fill="#666666">[BASE TABLE]</text>
<polygon fill="none" stroke="black" points="46.2,-543 46.2,-573.8 363.12,-573.8 363.12,-543 46.2,-543"/>
<text text-anchor="start" x="53.2" y="-555.2" font-family="Arial" font-size="14.00">query_id </text>
<text text-anchor="start" x="110.79" y="-555.2" font-family="Arial" font-size="14.00" fill="#666666">[text]</text>
<polygon fill="none" stroke="black" points="46.2,-512.2 46.2,-543 363.12,-543 363.12,-512.2 46.2,-512.2"/>
<text text-anchor="start" x="53.2" y="-524.4" font-family="Arial" font-size="14.00">key </text>
<text text-anchor="start" x="78.88" y="-524.4" font-family="Arial" font-size="14.00" fill="#666666">[text]</text>
<polygon fill="none" stroke="black" points="46.2,-481.4 46.2,-512.2 363.12,-512.2 363.12,-481.4 46.2,-481.4"/>
<text text-anchor="start" x="53.2" y="-493.6" font-family="Arial" font-size="14.00">required </text>
<text text-anchor="start" x="108.45" y="-493.6" font-family="Arial" font-size="14.00" fill="#666666">[boolean]</text>
<polygon fill="none" stroke="black" stroke-width="3" points="44.7,-479.9 44.7,-610.9 364.62,-610.9 364.62,-479.9 44.7,-479.9"/>
</g>
<!-- public.queries -->
<g id="node2" class="node">
<title>public.queries</title>
<polygon fill="#efefef" stroke="none" points="77.82,-320.4 77.82,-356 331.5,-356 331.5,-320.4 77.82,-320.4"/>
<polygon fill="none" stroke="black" points="77.82,-320.4 77.82,-356 331.5,-356 331.5,-320.4 77.82,-320.4"/>
<text text-anchor="start" x="91.68" y="-333.8" font-family="Arial Bold" font-size="18.00">public.queries</text>
<text text-anchor="start" x="193.15" y="-333.8" font-family="Arial" font-size="14.00">    </text>
<text text-anchor="start" x="224.27" y="-333.8" font-family="Arial" font-size="14.00" fill="#666666">[BASE TABLE]</text>
<polygon fill="none" stroke="black" points="77.82,-289.6 77.82,-320.4 331.5,-320.4 331.5,-289.6 77.82,-289.6"/>
<text text-anchor="start" x="84.82" y="-301.8" font-family="Arial" font-size="14.00">id </text>
<text text-anchor="start" x="99.6" y="-301.8" font-family="Arial" font-size="14.00" fill="#666666">[text]</text>
<polygon fill="none" stroke="black" points="77.82,-258.8 77.82,-289.6 331.5,-289.6 331.5,-258.8 77.82,-258.8"/>
<text text-anchor="start" x="84.82" y="-271" font-family="Arial" font-size="14.00">query_to_execute </text>
<text text-anchor="start" x="200.01" y="-271" font-family="Arial" font-size="14.00" fill="#666666">[text]</text>
<polygon fill="none" stroke="black" points="77.82,-228 77.82,-258.8 331.5,-258.8 331.5,-228 77.82,-228"/>
<text text-anchor="start" x="84.82" y="-240.2" font-family="Arial" font-size="14.00">connector </text>
<text text-anchor="start" x="150.19" y="-240.2" font-family="Arial" font-size="14.00" fill="#666666">[text[]]</text>
<polygon fill="none" stroke="black" points="77.82,-197.2 77.82,-228 331.5,-228 331.5,-197.2 77.82,-197.2"/>
<text text-anchor="start" x="84.82" y="-209.4" font-family="Arial" font-size="14.00">primary_table </text>
<text text-anchor="start" x="173.52" y="-209.4" font-family="Arial" font-size="14.00" fill="#666666">[text]</text>
<polygon fill="none" stroke="black" points="77.82,-166.4 77.82,-197.2 331.5,-197.2 331.5,-166.4 77.82,-166.4"/>
<text text-anchor="start" x="84.82" y="-178.6" font-family="Arial" font-size="14.00">list_of_tables </text>
<text text-anchor="start" x="170.42" y="-178.6" font-family="Arial" font-size="14.00" fill="#666666">[text[]]</text>
<polygon fill="none" stroke="black" points="77.82,-135.6 77.82,-166.4 331.5,-166.4 331.5,-135.6 77.82,-135.6"/>
<text text-anchor="start" x="84.82" y="-147.8" font-family="Arial" font-size="14.00">engine </text>
<text text-anchor="start" x="130.75" y="-147.8" font-family="Arial" font-size="14.00" fill="#666666">[text]</text>
<polygon fill="none" stroke="black" points="77.82,-104.8 77.82,-135.6 331.5,-135.6 331.5,-104.8 77.82,-104.8"/>
<text text-anchor="start" x="84.82" y="-117" font-family="Arial" font-size="14.00">global </text>
<text text-anchor="start" x="126.07" y="-117" font-family="Arial" font-size="14.00" fill="#666666">[boolean]</text>
<polygon fill="none" stroke="black" points="77.82,-74 77.82,-104.8 331.5,-104.8 331.5,-74 77.82,-74"/>
<text text-anchor="start" x="84.82" y="-86.2" font-family="Arial" font-size="14.00">created_at </text>
<text text-anchor="start" x="154.87" y="-86.2" font-family="Arial" font-size="14.00" fill="#666666">[timestamp with time zone]</text>
<polygon fill="none" stroke="black" points="77.82,-43.2 77.82,-74 331.5,-74 331.5,-43.2 77.82,-43.2"/>
<text text-anchor="start" x="84.82" y="-55.4" font-family="Arial" font-size="14.00">updated_at </text>
<text text-anchor="start" x="158.78" y="-55.4" font-family="Arial" font-size="14.00" fill="#666666">[timestamp with time zone]</text>
</g>
<!-- public.query_parameters&#45;&gt;public.queries -->
<g id="edge1" class="edge">
<title>public.query_parameters:query_id&#45;&gt;public.queries:id</title>
<path fill="none" stroke="black" d="M374.33,-557.67C475.56,-542.81 442.45,-305 332.5,-305"/>
<polygon fill="black" stroke="black" points="374.42,-557.67 364.13,-553.89 369.1,-558.05 364.78,-558.35 364.78,-558.35 364.78,-558.35 369.1,-558.05 364.77,-562.86 374.42,-557.67"/>
<text text-anchor="start" x="371.12" y="-568.4" font-family="Arial" font-size="10.00">FOREIGN KEY (query_id) REFERENCES queries(id)</text>
</g>
</g>
</svg>
