<?xml version="1.0" encoding="UTF-8" standalone="no"?>
<!DOCTYPE svg PUBLIC "-//W3C//DTD SVG 1.1//EN"
 "http://www.w3.org/Graphics/SVG/1.1/DTD/svg11.dtd">
<!-- Generated by graphviz version 12.1.2 (20240928.0832)
 -->
<!-- Title: public.benchmark_tags Pages: 1 -->
<svg width="727pt" height="910pt"
 viewBox="0.00 0.00 727.40 910.00" xmlns="http://www.w3.org/2000/svg" xmlns:xlink="http://www.w3.org/1999/xlink">
<g id="graph0" class="graph" transform="scale(1 1) rotate(0) translate(4 906)">
<title>public.benchmark_tags</title>
<polygon fill="white" stroke="none" points="-4,4 -4,-906 723.4,-906 723.4,4 -4,4"/>
<!-- public.benchmark_tags -->
<g id="node1" class="node">
<title>public.benchmark_tags</title>
<polygon fill="#efefef" stroke="none" points="367.26,-820.2 367.26,-855.8 673.2,-855.8 673.2,-820.2 367.26,-820.2"/>
<polygon fill="none" stroke="black" points="367.26,-820.2 367.26,-855.8 673.2,-855.8 673.2,-820.2 367.26,-820.2"/>
<text text-anchor="start" x="374.26" y="-833.6" font-family="Arial Bold" font-size="18.00">public.benchmark_tags</text>
<text text-anchor="start" x="541.71" y="-833.6" font-family="Arial" font-size="14.00">    </text>
<text text-anchor="start" x="572.83" y="-833.6" font-family="Arial" font-size="14.00" fill="#666666">[BASE TABLE]</text>
<polygon fill="none" stroke="black" points="367.26,-789.4 367.26,-820.2 673.2,-820.2 673.2,-789.4 367.26,-789.4"/>
<text text-anchor="start" x="374.26" y="-801.6" font-family="Arial" font-size="14.00">key </text>
<text text-anchor="start" x="399.94" y="-801.6" font-family="Arial" font-size="14.00" fill="#666666">[text]</text>
<polygon fill="none" stroke="black" points="367.26,-758.6 367.26,-789.4 673.2,-789.4 673.2,-758.6 367.26,-758.6"/>
<text text-anchor="start" x="374.26" y="-770.8" font-family="Arial" font-size="14.00">value </text>
<text text-anchor="start" x="411.62" y="-770.8" font-family="Arial" font-size="14.00" fill="#666666">[text[]]</text>
<polygon fill="none" stroke="black" points="367.26,-727.8 367.26,-758.6 673.2,-758.6 673.2,-727.8 367.26,-727.8"/>
<text text-anchor="start" x="374.26" y="-740" font-family="Arial" font-size="14.00">created_at </text>
<text text-anchor="start" x="444.31" y="-740" font-family="Arial" font-size="14.00" fill="#666666">[timestamp with time zone]</text>
<polygon fill="none" stroke="black" points="367.26,-697 367.26,-727.8 673.2,-727.8 673.2,-697 367.26,-697"/>
<text text-anchor="start" x="374.26" y="-709.2" font-family="Arial" font-size="14.00">updated_at </text>
<text text-anchor="start" x="448.22" y="-709.2" font-family="Arial" font-size="14.00" fill="#666666">[timestamp with time zone]</text>
<polygon fill="none" stroke="black" points="367.26,-666.2 367.26,-697 673.2,-697 673.2,-666.2 367.26,-666.2"/>
<text text-anchor="start" x="374.26" y="-678.4" font-family="Arial" font-size="14.00">deleted_at </text>
<text text-anchor="start" x="443.54" y="-678.4" font-family="Arial" font-size="14.00" fill="#666666">[timestamp with time zone]</text>
<polygon fill="none" stroke="black" points="367.26,-635.4 367.26,-666.2 673.2,-666.2 673.2,-635.4 367.26,-635.4"/>
<text text-anchor="start" x="374.26" y="-647.6" font-family="Arial" font-size="14.00">benchmark_id </text>
<text text-anchor="start" x="466.09" y="-647.6" font-family="Arial" font-size="14.00" fill="#666666">[text]</text>
<polygon fill="none" stroke="black" stroke-width="3" points="365.76,-633.9 365.76,-857.3 674.7,-857.3 674.7,-633.9 365.76,-633.9"/>
</g>
<!-- public.benchmarks -->
<g id="node2" class="node">
<title>public.benchmarks</title>
<polygon fill="#efefef" stroke="none" points="382.76,-474.4 382.76,-510 657.7,-510 657.7,-474.4 382.76,-474.4"/>
<polygon fill="none" stroke="black" points="382.76,-474.4 382.76,-510 657.7,-510 657.7,-474.4 382.76,-474.4"/>
<text text-anchor="start" x="389.76" y="-487.8" font-family="Arial Bold" font-size="18.00">public.benchmarks</text>
<text text-anchor="start" x="526.22" y="-487.8" font-family="Arial" font-size="14.00">    </text>
<text text-anchor="start" x="557.33" y="-487.8" font-family="Arial" font-size="14.00" fill="#666666">[BASE TABLE]</text>
<polygon fill="none" stroke="black" points="382.76,-443.6 382.76,-474.4 657.7,-474.4 657.7,-443.6 382.76,-443.6"/>
<text text-anchor="start" x="389.76" y="-455.8" font-family="Arial" font-size="14.00">id </text>
<text text-anchor="start" x="404.54" y="-455.8" font-family="Arial" font-size="14.00" fill="#666666">[text]</text>
<polygon fill="none" stroke="black" points="382.76,-412.8 382.76,-443.6 657.7,-443.6 657.7,-412.8 382.76,-412.8"/>
<text text-anchor="start" x="389.76" y="-425" font-family="Arial" font-size="14.00">title </text>
<text text-anchor="start" x="415.43" y="-425" font-family="Arial" font-size="14.00" fill="#666666">[text]</text>
<polygon fill="none" stroke="black" points="382.76,-382 382.76,-412.8 657.7,-412.8 657.7,-382 382.76,-382"/>
<text text-anchor="start" x="389.76" y="-394.2" font-family="Arial" font-size="14.00">display_code </text>
<text text-anchor="start" x="475.37" y="-394.2" font-family="Arial" font-size="14.00" fill="#666666">[text]</text>
<polygon fill="none" stroke="black" points="382.76,-351.2 382.76,-382 657.7,-382 657.7,-351.2 382.76,-351.2"/>
<text text-anchor="start" x="389.76" y="-363.4" font-family="Arial" font-size="14.00">connector </text>
<text text-anchor="start" x="455.13" y="-363.4" font-family="Arial" font-size="14.00" fill="#666666">[text[]]</text>
<polygon fill="none" stroke="black" points="382.76,-320.4 382.76,-351.2 657.7,-351.2 657.7,-320.4 382.76,-320.4"/>
<text text-anchor="start" x="389.76" y="-332.6" font-family="Arial" font-size="14.00">description </text>
<text text-anchor="start" x="461.35" y="-332.6" font-family="Arial" font-size="14.00" fill="#666666">[text]</text>
<polygon fill="none" stroke="black" points="382.76,-289.6 382.76,-320.4 657.7,-320.4 657.7,-289.6 382.76,-289.6"/>
<text text-anchor="start" x="389.76" y="-301.8" font-family="Arial" font-size="14.00">logo_uri </text>
<text text-anchor="start" x="443.46" y="-301.8" font-family="Arial" font-size="14.00" fill="#666666">[text]</text>
<polygon fill="none" stroke="black" points="382.76,-258.8 382.76,-289.6 657.7,-289.6 657.7,-258.8 382.76,-258.8"/>
<text text-anchor="start" x="389.76" y="-271" font-family="Arial" font-size="14.00">category </text>
<text text-anchor="start" x="447.34" y="-271" font-family="Arial" font-size="14.00" fill="#666666">[text]</text>
<polygon fill="none" stroke="black" points="382.76,-228 382.76,-258.8 657.7,-258.8 657.7,-228 382.76,-228"/>
<text text-anchor="start" x="389.76" y="-240.2" font-family="Arial" font-size="14.00">document_uri </text>
<text text-anchor="start" x="478.47" y="-240.2" font-family="Arial" font-size="14.00" fill="#666666">[text]</text>
<polygon fill="none" stroke="black" points="382.76,-197.2 382.76,-228 657.7,-228 657.7,-197.2 382.76,-197.2"/>
<text text-anchor="start" x="389.76" y="-209.4" font-family="Arial" font-size="14.00">enabled </text>
<text text-anchor="start" x="443.47" y="-209.4" font-family="Arial" font-size="14.00" fill="#666666">[boolean]</text>
<polygon fill="none" stroke="black" points="382.76,-166.4 382.76,-197.2 657.7,-197.2 657.7,-166.4 382.76,-166.4"/>
<text text-anchor="start" x="389.76" y="-178.6" font-family="Arial" font-size="14.00">auto_assign </text>
<text text-anchor="start" x="469.15" y="-178.6" font-family="Arial" font-size="14.00" fill="#666666">[boolean]</text>
<polygon fill="none" stroke="black" points="382.76,-135.6 382.76,-166.4 657.7,-166.4 657.7,-135.6 382.76,-135.6"/>
<text text-anchor="start" x="389.76" y="-147.8" font-family="Arial" font-size="14.00">tracks_drift_events </text>
<text text-anchor="start" x="511.14" y="-147.8" font-family="Arial" font-size="14.00" fill="#666666">[boolean]</text>
<polygon fill="none" stroke="black" points="382.76,-104.8 382.76,-135.6 657.7,-135.6 657.7,-104.8 382.76,-104.8"/>
<text text-anchor="start" x="389.76" y="-117" font-family="Arial" font-size="14.00">metadata </text>
<text text-anchor="start" x="452.02" y="-117" font-family="Arial" font-size="14.00" fill="#666666">[bytea]</text>
<polygon fill="none" stroke="black" points="382.76,-74 382.76,-104.8 657.7,-104.8 657.7,-74 382.76,-74"/>
<text text-anchor="start" x="389.76" y="-86.2" font-family="Arial" font-size="14.00">created_at </text>
<text text-anchor="start" x="459.8" y="-86.2" font-family="Arial" font-size="14.00" fill="#666666">[timestamp with time zone]</text>
<polygon fill="none" stroke="black" points="382.76,-43.2 382.76,-74 657.7,-74 657.7,-43.2 382.76,-43.2"/>
<text text-anchor="start" x="389.76" y="-55.4" font-family="Arial" font-size="14.00">updated_at </text>
<text text-anchor="start" x="463.71" y="-55.4" font-family="Arial" font-size="14.00" fill="#666666">[timestamp with time zone]</text>
</g>
<!-- public.benchmark_tags&#45;&gt;public.benchmarks -->
<g id="edge1" class="edge">
<title>public.benchmark_tags:benchmark_id&#45;&gt;public.benchmarks:id</title>
<path fill="none" stroke="black" d="M521.06,-624.16C530.8,-568.53 624.07,-611.4 657.7,-553.2 678.65,-516.95 700.57,-459 658.7,-459"/>
<polygon fill="black" stroke="black" points="521.06,-624.1 515.77,-633.7 520.63,-629.42 520.28,-633.73 520.28,-633.73 520.28,-633.73 520.63,-629.42 524.74,-634.43 521.06,-624.1"/>
<text text-anchor="start" x="7" y="-644.4" font-family="Arial" font-size="10.00">FOREIGN KEY (benchmark_id) REFERENCES benchmarks(id) ON UPDATE CASCADE ON DELETE CASCADE</text>
</g>
</g>
</svg>
