<?xml version="1.0" encoding="UTF-8" standalone="no"?>
<!DOCTYPE svg PUBLIC "-//W3C//DTD SVG 1.1//EN"
 "http://www.w3.org/Graphics/SVG/1.1/DTD/svg11.dtd">
<!-- Generated by graphviz version 12.1.2 (20240928.0832)
 -->
<!-- Title: compliance Pages: 1 -->
<svg width="2335pt" height="1401pt"
 viewBox="0.00 0.00 2335.33 1400.80" xmlns="http://www.w3.org/2000/svg" xmlns:xlink="http://www.w3.org/1999/xlink">
<g id="graph0" class="graph" transform="scale(1 1) rotate(0) translate(4 1396.8)">
<title>compliance</title>
<polygon fill="white" stroke="none" points="-4,4 -4,-1396.8 2331.33,-1396.8 2331.33,4 -4,4"/>
<!-- public.queries -->
<g id="node1" class="node">
<title>public.queries</title>
<polygon fill="#efefef" stroke="none" points="269.82,-320.4 269.82,-356 523.5,-356 523.5,-320.4 269.82,-320.4"/>
<polygon fill="none" stroke="black" points="269.82,-320.4 269.82,-356 523.5,-356 523.5,-320.4 269.82,-320.4"/>
<text text-anchor="start" x="283.68" y="-333.8" font-family="Arial Bold" font-size="18.00">public.queries</text>
<text text-anchor="start" x="385.15" y="-333.8" font-family="Arial" font-size="14.00">    </text>
<text text-anchor="start" x="416.27" y="-333.8" font-family="Arial" font-size="14.00" fill="#666666">[BASE TABLE]</text>
<polygon fill="none" stroke="black" points="269.82,-289.6 269.82,-320.4 523.5,-320.4 523.5,-289.6 269.82,-289.6"/>
<text text-anchor="start" x="276.82" y="-301.8" font-family="Arial" font-size="14.00">id </text>
<text text-anchor="start" x="291.6" y="-301.8" font-family="Arial" font-size="14.00" fill="#666666">[text]</text>
<polygon fill="none" stroke="black" points="269.82,-258.8 269.82,-289.6 523.5,-289.6 523.5,-258.8 269.82,-258.8"/>
<text text-anchor="start" x="276.82" y="-271" font-family="Arial" font-size="14.00">query_to_execute </text>
<text text-anchor="start" x="392.01" y="-271" font-family="Arial" font-size="14.00" fill="#666666">[text]</text>
<polygon fill="none" stroke="black" points="269.82,-228 269.82,-258.8 523.5,-258.8 523.5,-228 269.82,-228"/>
<text text-anchor="start" x="276.82" y="-240.2" font-family="Arial" font-size="14.00">connector </text>
<text text-anchor="start" x="342.19" y="-240.2" font-family="Arial" font-size="14.00" fill="#666666">[text[]]</text>
<polygon fill="none" stroke="black" points="269.82,-197.2 269.82,-228 523.5,-228 523.5,-197.2 269.82,-197.2"/>
<text text-anchor="start" x="276.82" y="-209.4" font-family="Arial" font-size="14.00">primary_table </text>
<text text-anchor="start" x="365.52" y="-209.4" font-family="Arial" font-size="14.00" fill="#666666">[text]</text>
<polygon fill="none" stroke="black" points="269.82,-166.4 269.82,-197.2 523.5,-197.2 523.5,-166.4 269.82,-166.4"/>
<text text-anchor="start" x="276.82" y="-178.6" font-family="Arial" font-size="14.00">list_of_tables </text>
<text text-anchor="start" x="362.42" y="-178.6" font-family="Arial" font-size="14.00" fill="#666666">[text[]]</text>
<polygon fill="none" stroke="black" points="269.82,-135.6 269.82,-166.4 523.5,-166.4 523.5,-135.6 269.82,-135.6"/>
<text text-anchor="start" x="276.82" y="-147.8" font-family="Arial" font-size="14.00">engine </text>
<text text-anchor="start" x="322.75" y="-147.8" font-family="Arial" font-size="14.00" fill="#666666">[text]</text>
<polygon fill="none" stroke="black" points="269.82,-104.8 269.82,-135.6 523.5,-135.6 523.5,-104.8 269.82,-104.8"/>
<text text-anchor="start" x="276.82" y="-117" font-family="Arial" font-size="14.00">global </text>
<text text-anchor="start" x="318.07" y="-117" font-family="Arial" font-size="14.00" fill="#666666">[boolean]</text>
<polygon fill="none" stroke="black" points="269.82,-74 269.82,-104.8 523.5,-104.8 523.5,-74 269.82,-74"/>
<text text-anchor="start" x="276.82" y="-86.2" font-family="Arial" font-size="14.00">created_at </text>
<text text-anchor="start" x="346.87" y="-86.2" font-family="Arial" font-size="14.00" fill="#666666">[timestamp with time zone]</text>
<polygon fill="none" stroke="black" points="269.82,-43.2 269.82,-74 523.5,-74 523.5,-43.2 269.82,-43.2"/>
<text text-anchor="start" x="276.82" y="-55.4" font-family="Arial" font-size="14.00">updated_at </text>
<text text-anchor="start" x="350.78" y="-55.4" font-family="Arial" font-size="14.00" fill="#666666">[timestamp with time zone]</text>
</g>
<!-- public.query_parameters -->
<g id="node2" class="node">
<title>public.query_parameters</title>
<polygon fill="#efefef" stroke="none" points="43.2,-740.2 43.2,-775.8 360.12,-775.8 360.12,-740.2 43.2,-740.2"/>
<polygon fill="none" stroke="black" points="43.2,-740.2 43.2,-775.8 360.12,-775.8 360.12,-740.2 43.2,-740.2"/>
<text text-anchor="start" x="50.2" y="-753.6" font-family="Arial Bold" font-size="18.00">public.query_parameters</text>
<text text-anchor="start" x="228.63" y="-753.6" font-family="Arial" font-size="14.00">    </text>
<text text-anchor="start" x="259.74" y="-753.6" font-family="Arial" font-size="14.00" fill="#666666">[BASE TABLE]</text>
<polygon fill="none" stroke="black" points="43.2,-709.4 43.2,-740.2 360.12,-740.2 360.12,-709.4 43.2,-709.4"/>
<text text-anchor="start" x="50.2" y="-721.6" font-family="Arial" font-size="14.00">query_id </text>
<text text-anchor="start" x="107.79" y="-721.6" font-family="Arial" font-size="14.00" fill="#666666">[text]</text>
<polygon fill="none" stroke="black" points="43.2,-678.6 43.2,-709.4 360.12,-709.4 360.12,-678.6 43.2,-678.6"/>
<text text-anchor="start" x="50.2" y="-690.8" font-family="Arial" font-size="14.00">key </text>
<text text-anchor="start" x="75.88" y="-690.8" font-family="Arial" font-size="14.00" fill="#666666">[text]</text>
<polygon fill="none" stroke="black" points="43.2,-647.8 43.2,-678.6 360.12,-678.6 360.12,-647.8 43.2,-647.8"/>
<text text-anchor="start" x="50.2" y="-660" font-family="Arial" font-size="14.00">required </text>
<text text-anchor="start" x="105.45" y="-660" font-family="Arial" font-size="14.00" fill="#666666">[boolean]</text>
</g>
<!-- public.query_parameters&#45;&gt;public.queries -->
<g id="edge1" class="edge">
<title>public.query_parameters:query_id&#45;&gt;public.queries:id</title>
<path fill="none" stroke="black" d="M371.07,-724.37C534.78,-709.37 81.33,-305 268.82,-305"/>
<polygon fill="black" stroke="black" points="371.44,-724.36 361.26,-720.29 366.11,-724.59 361.78,-724.77 361.78,-724.77 361.78,-724.77 366.11,-724.59 361.64,-729.28 371.44,-724.36"/>
<text text-anchor="start" x="368.12" y="-734.8" font-family="Arial" font-size="10.00">FOREIGN KEY (query_id) REFERENCES queries(id)</text>
</g>
<!-- public.controls -->
<g id="node3" class="node">
<title>public.controls</title>
<polygon fill="#efefef" stroke="none" points="464.82,-878.8 464.82,-914.4 718.5,-914.4 718.5,-878.8 464.82,-878.8"/>
<polygon fill="none" stroke="black" points="464.82,-878.8 464.82,-914.4 718.5,-914.4 718.5,-878.8 464.82,-878.8"/>
<text text-anchor="start" x="475.67" y="-892.2" font-family="Arial Bold" font-size="18.00">public.controls</text>
<text text-anchor="start" x="583.15" y="-892.2" font-family="Arial" font-size="14.00">    </text>
<text text-anchor="start" x="614.27" y="-892.2" font-family="Arial" font-size="14.00" fill="#666666">[BASE TABLE]</text>
<polygon fill="none" stroke="black" points="464.82,-848 464.82,-878.8 718.5,-878.8 718.5,-848 464.82,-848"/>
<text text-anchor="start" x="471.82" y="-860.2" font-family="Arial" font-size="14.00">id </text>
<text text-anchor="start" x="486.6" y="-860.2" font-family="Arial" font-size="14.00" fill="#666666">[text]</text>
<polygon fill="none" stroke="black" points="464.82,-817.2 464.82,-848 718.5,-848 718.5,-817.2 464.82,-817.2"/>
<text text-anchor="start" x="471.82" y="-829.4" font-family="Arial" font-size="14.00">title </text>
<text text-anchor="start" x="497.49" y="-829.4" font-family="Arial" font-size="14.00" fill="#666666">[text]</text>
<polygon fill="none" stroke="black" points="464.82,-786.4 464.82,-817.2 718.5,-817.2 718.5,-786.4 464.82,-786.4"/>
<text text-anchor="start" x="471.82" y="-798.6" font-family="Arial" font-size="14.00">description </text>
<text text-anchor="start" x="543.41" y="-798.6" font-family="Arial" font-size="14.00" fill="#666666">[text]</text>
<polygon fill="none" stroke="black" points="464.82,-755.6 464.82,-786.4 718.5,-786.4 718.5,-755.6 464.82,-755.6"/>
<text text-anchor="start" x="471.82" y="-767.8" font-family="Arial" font-size="14.00">connector </text>
<text text-anchor="start" x="537.19" y="-767.8" font-family="Arial" font-size="14.00" fill="#666666">[text[]]</text>
<polygon fill="none" stroke="black" points="464.82,-724.8 464.82,-755.6 718.5,-755.6 718.5,-724.8 464.82,-724.8"/>
<text text-anchor="start" x="471.82" y="-737" font-family="Arial" font-size="14.00">document_uri </text>
<text text-anchor="start" x="560.53" y="-737" font-family="Arial" font-size="14.00" fill="#666666">[text]</text>
<polygon fill="none" stroke="black" points="464.82,-694 464.82,-724.8 718.5,-724.8 718.5,-694 464.82,-694"/>
<text text-anchor="start" x="471.82" y="-706.2" font-family="Arial" font-size="14.00">enabled </text>
<text text-anchor="start" x="525.53" y="-706.2" font-family="Arial" font-size="14.00" fill="#666666">[boolean]</text>
<polygon fill="none" stroke="black" points="464.82,-663.2 464.82,-694 718.5,-694 718.5,-663.2 464.82,-663.2"/>
<text text-anchor="start" x="471.82" y="-675.4" font-family="Arial" font-size="14.00">query_id </text>
<text text-anchor="start" x="529.41" y="-675.4" font-family="Arial" font-size="14.00" fill="#666666">[text]</text>
<polygon fill="none" stroke="black" points="464.82,-632.4 464.82,-663.2 718.5,-663.2 718.5,-632.4 464.82,-632.4"/>
<text text-anchor="start" x="471.82" y="-644.6" font-family="Arial" font-size="14.00">severity </text>
<text text-anchor="start" x="523.94" y="-644.6" font-family="Arial" font-size="14.00" fill="#666666">[text]</text>
<polygon fill="none" stroke="black" points="464.82,-601.6 464.82,-632.4 718.5,-632.4 718.5,-601.6 464.82,-601.6"/>
<text text-anchor="start" x="471.82" y="-613.8" font-family="Arial" font-size="14.00">manual_verification </text>
<text text-anchor="start" x="596.33" y="-613.8" font-family="Arial" font-size="14.00" fill="#666666">[boolean]</text>
<polygon fill="none" stroke="black" points="464.82,-570.8 464.82,-601.6 718.5,-601.6 718.5,-570.8 464.82,-570.8"/>
<text text-anchor="start" x="471.82" y="-583" font-family="Arial" font-size="14.00">managed </text>
<text text-anchor="start" x="534.09" y="-583" font-family="Arial" font-size="14.00" fill="#666666">[boolean]</text>
<polygon fill="none" stroke="black" points="464.82,-540 464.82,-570.8 718.5,-570.8 718.5,-540 464.82,-540"/>
<text text-anchor="start" x="471.82" y="-552.2" font-family="Arial" font-size="14.00">created_at </text>
<text text-anchor="start" x="541.87" y="-552.2" font-family="Arial" font-size="14.00" fill="#666666">[timestamp with time zone]</text>
<polygon fill="none" stroke="black" points="464.82,-509.2 464.82,-540 718.5,-540 718.5,-509.2 464.82,-509.2"/>
<text text-anchor="start" x="471.82" y="-521.4" font-family="Arial" font-size="14.00">updated_at </text>
<text text-anchor="start" x="545.78" y="-521.4" font-family="Arial" font-size="14.00" fill="#666666">[timestamp with time zone]</text>
</g>
<!-- public.controls&#45;&gt;public.queries -->
<g id="edge2" class="edge">
<title>public.controls:query_id&#45;&gt;public.queries:id</title>
<path fill="none" stroke="black" d="M453.45,-678.04C374.12,-668.95 432.6,-550.89 464.82,-466 478.84,-429.05 509.37,-436.1 523.5,-399.2 538.47,-360.1 566.37,-305 524.5,-305"/>
<polygon fill="black" stroke="black" points="453.5,-678.04 463.24,-683.08 458.82,-678.33 463.15,-678.56 463.15,-678.56 463.15,-678.56 458.82,-678.33 463.73,-674.09 453.5,-678.04"/>
<text text-anchor="start" x="470.82" y="-688.6" font-family="Arial" font-size="10.00">FOREIGN KEY (query_id) REFERENCES queries(id)</text>
</g>
<!-- public.benchmarks -->
<g id="node4" class="node">
<title>public.benchmarks</title>
<polygon fill="#efefef" stroke="none" points="1099.18,-909.6 1099.18,-945.2 1374.13,-945.2 1374.13,-909.6 1099.18,-909.6"/>
<polygon fill="none" stroke="black" points="1099.18,-909.6 1099.18,-945.2 1374.13,-945.2 1374.13,-909.6 1099.18,-909.6"/>
<text text-anchor="start" x="1106.18" y="-923" font-family="Arial Bold" font-size="18.00">public.benchmarks</text>
<text text-anchor="start" x="1242.64" y="-923" font-family="Arial" font-size="14.00">    </text>
<text text-anchor="start" x="1273.76" y="-923" font-family="Arial" font-size="14.00" fill="#666666">[BASE TABLE]</text>
<polygon fill="none" stroke="black" points="1099.18,-878.8 1099.18,-909.6 1374.13,-909.6 1374.13,-878.8 1099.18,-878.8"/>
<text text-anchor="start" x="1106.18" y="-891" font-family="Arial" font-size="14.00">id </text>
<text text-anchor="start" x="1120.97" y="-891" font-family="Arial" font-size="14.00" fill="#666666">[text]</text>
<polygon fill="none" stroke="black" points="1099.18,-848 1099.18,-878.8 1374.13,-878.8 1374.13,-848 1099.18,-848"/>
<text text-anchor="start" x="1106.18" y="-860.2" font-family="Arial" font-size="14.00">title </text>
<text text-anchor="start" x="1131.86" y="-860.2" font-family="Arial" font-size="14.00" fill="#666666">[text]</text>
<polygon fill="none" stroke="black" points="1099.18,-817.2 1099.18,-848 1374.13,-848 1374.13,-817.2 1099.18,-817.2"/>
<text text-anchor="start" x="1106.18" y="-829.4" font-family="Arial" font-size="14.00">display_code </text>
<text text-anchor="start" x="1191.8" y="-829.4" font-family="Arial" font-size="14.00" fill="#666666">[text]</text>
<polygon fill="none" stroke="black" points="1099.18,-786.4 1099.18,-817.2 1374.13,-817.2 1374.13,-786.4 1099.18,-786.4"/>
<text text-anchor="start" x="1106.18" y="-798.6" font-family="Arial" font-size="14.00">connector </text>
<text text-anchor="start" x="1171.56" y="-798.6" font-family="Arial" font-size="14.00" fill="#666666">[text[]]</text>
<polygon fill="none" stroke="black" points="1099.18,-755.6 1099.18,-786.4 1374.13,-786.4 1374.13,-755.6 1099.18,-755.6"/>
<text text-anchor="start" x="1106.18" y="-767.8" font-family="Arial" font-size="14.00">description </text>
<text text-anchor="start" x="1177.78" y="-767.8" font-family="Arial" font-size="14.00" fill="#666666">[text]</text>
<polygon fill="none" stroke="black" points="1099.18,-724.8 1099.18,-755.6 1374.13,-755.6 1374.13,-724.8 1099.18,-724.8"/>
<text text-anchor="start" x="1106.18" y="-737" font-family="Arial" font-size="14.00">logo_uri </text>
<text text-anchor="start" x="1159.89" y="-737" font-family="Arial" font-size="14.00" fill="#666666">[text]</text>
<polygon fill="none" stroke="black" points="1099.18,-694 1099.18,-724.8 1374.13,-724.8 1374.13,-694 1099.18,-694"/>
<text text-anchor="start" x="1106.18" y="-706.2" font-family="Arial" font-size="14.00">category </text>
<text text-anchor="start" x="1163.77" y="-706.2" font-family="Arial" font-size="14.00" fill="#666666">[text]</text>
<polygon fill="none" stroke="black" points="1099.18,-663.2 1099.18,-694 1374.13,-694 1374.13,-663.2 1099.18,-663.2"/>
<text text-anchor="start" x="1106.18" y="-675.4" font-family="Arial" font-size="14.00">document_uri </text>
<text text-anchor="start" x="1194.9" y="-675.4" font-family="Arial" font-size="14.00" fill="#666666">[text]</text>
<polygon fill="none" stroke="black" points="1099.18,-632.4 1099.18,-663.2 1374.13,-663.2 1374.13,-632.4 1099.18,-632.4"/>
<text text-anchor="start" x="1106.18" y="-644.6" font-family="Arial" font-size="14.00">enabled </text>
<text text-anchor="start" x="1159.9" y="-644.6" font-family="Arial" font-size="14.00" fill="#666666">[boolean]</text>
<polygon fill="none" stroke="black" points="1099.18,-601.6 1099.18,-632.4 1374.13,-632.4 1374.13,-601.6 1099.18,-601.6"/>
<text text-anchor="start" x="1106.18" y="-613.8" font-family="Arial" font-size="14.00">auto_assign </text>
<text text-anchor="start" x="1185.58" y="-613.8" font-family="Arial" font-size="14.00" fill="#666666">[boolean]</text>
<polygon fill="none" stroke="black" points="1099.18,-570.8 1099.18,-601.6 1374.13,-601.6 1374.13,-570.8 1099.18,-570.8"/>
<text text-anchor="start" x="1106.18" y="-583" font-family="Arial" font-size="14.00">tracks_drift_events </text>
<text text-anchor="start" x="1227.57" y="-583" font-family="Arial" font-size="14.00" fill="#666666">[boolean]</text>
<polygon fill="none" stroke="black" points="1099.18,-540 1099.18,-570.8 1374.13,-570.8 1374.13,-540 1099.18,-540"/>
<text text-anchor="start" x="1106.18" y="-552.2" font-family="Arial" font-size="14.00">metadata </text>
<text text-anchor="start" x="1168.45" y="-552.2" font-family="Arial" font-size="14.00" fill="#666666">[bytea]</text>
<polygon fill="none" stroke="black" points="1099.18,-509.2 1099.18,-540 1374.13,-540 1374.13,-509.2 1099.18,-509.2"/>
<text text-anchor="start" x="1106.18" y="-521.4" font-family="Arial" font-size="14.00">created_at </text>
<text text-anchor="start" x="1176.23" y="-521.4" font-family="Arial" font-size="14.00" fill="#666666">[timestamp with time zone]</text>
<polygon fill="none" stroke="black" points="1099.18,-478.4 1099.18,-509.2 1374.13,-509.2 1374.13,-478.4 1099.18,-478.4"/>
<text text-anchor="start" x="1106.18" y="-490.6" font-family="Arial" font-size="14.00">updated_at </text>
<text text-anchor="start" x="1180.14" y="-490.6" font-family="Arial" font-size="14.00" fill="#666666">[timestamp with time zone]</text>
</g>
<!-- public.benchmark_controls -->
<g id="node5" class="node">
<title>public.benchmark_controls</title>
<polygon fill="#efefef" stroke="none" points="629.19,-1221.6 629.19,-1257.2 964.12,-1257.2 964.12,-1221.6 629.19,-1221.6"/>
<polygon fill="none" stroke="black" points="629.19,-1221.6 629.19,-1257.2 964.12,-1257.2 964.12,-1221.6 629.19,-1221.6"/>
<text text-anchor="start" x="636.19" y="-1235" font-family="Arial Bold" font-size="18.00">public.benchmark_controls</text>
<text text-anchor="start" x="832.64" y="-1235" font-family="Arial" font-size="14.00">    </text>
<text text-anchor="start" x="863.75" y="-1235" font-family="Arial" font-size="14.00" fill="#666666">[BASE TABLE]</text>
<polygon fill="none" stroke="black" points="629.19,-1190.8 629.19,-1221.6 964.12,-1221.6 964.12,-1190.8 629.19,-1190.8"/>
<text text-anchor="start" x="636.19" y="-1203" font-family="Arial" font-size="14.00">benchmark_id </text>
<text text-anchor="start" x="728.02" y="-1203" font-family="Arial" font-size="14.00" fill="#666666">[text]</text>
<polygon fill="none" stroke="black" points="629.19,-1160 629.19,-1190.8 964.12,-1190.8 964.12,-1160 629.19,-1160"/>
<text text-anchor="start" x="636.19" y="-1172.2" font-family="Arial" font-size="14.00">control_id </text>
<text text-anchor="start" x="700.78" y="-1172.2" font-family="Arial" font-size="14.00" fill="#666666">[text]</text>
</g>
<!-- public.benchmark_controls&#45;&gt;public.controls -->
<g id="edge3" class="edge">
<title>public.benchmark_controls:control_id&#45;&gt;public.controls:id</title>
<path fill="none" stroke="black" d="M617.84,-1174.76C503.4,-1159.16 860.17,-863.4 719.5,-863.4"/>
<polygon fill="black" stroke="black" points="617.88,-1174.76 627.58,-1179.87 623.2,-1175.09 627.52,-1175.36 627.52,-1175.36 627.52,-1175.36 623.2,-1175.09 628.13,-1170.89 617.88,-1174.76"/>
<text text-anchor="start" x="635.19" y="-1185.4" font-family="Arial" font-size="10.00">FOREIGN KEY (control_id) REFERENCES controls(id)</text>
</g>
<!-- public.benchmark_controls&#45;&gt;public.benchmarks -->
<g id="edge4" class="edge">
<title>public.benchmark_controls:benchmark_id&#45;&gt;public.benchmarks:id</title>
<path fill="none" stroke="black" d="M975.14,-1205.63C1043.58,-1197.23 984.04,-1097.86 1016.66,-1024.4 1044.36,-962 1029.91,-894.2 1098.18,-894.2"/>
<polygon fill="black" stroke="black" points="975.44,-1205.61 965.2,-1201.69 970.12,-1205.92 965.79,-1206.16 965.79,-1206.16 965.79,-1206.16 970.12,-1205.92 965.72,-1210.67 975.44,-1205.61"/>
<text text-anchor="start" x="674.72" y="-1216.2" font-family="Arial" font-size="10.00">FOREIGN KEY (benchmark_id) REFERENCES benchmarks(id)</text>
</g>
<!-- public.control_tags -->
<g id="node6" class="node">
<title>public.control_tags</title>
<polygon fill="#efefef" stroke="none" points="248.18,-1283.2 248.18,-1318.8 525.14,-1318.8 525.14,-1283.2 248.18,-1283.2"/>
<polygon fill="none" stroke="black" points="248.18,-1283.2 248.18,-1318.8 525.14,-1318.8 525.14,-1283.2 248.18,-1283.2"/>
<text text-anchor="start" x="255.18" y="-1296.6" font-family="Arial Bold" font-size="18.00">public.control_tags</text>
<text text-anchor="start" x="393.65" y="-1296.6" font-family="Arial" font-size="14.00">    </text>
<text text-anchor="start" x="424.77" y="-1296.6" font-family="Arial" font-size="14.00" fill="#666666">[BASE TABLE]</text>
<polygon fill="none" stroke="black" points="248.18,-1252.4 248.18,-1283.2 525.14,-1283.2 525.14,-1252.4 248.18,-1252.4"/>
<text text-anchor="start" x="255.18" y="-1264.6" font-family="Arial" font-size="14.00">key </text>
<text text-anchor="start" x="280.85" y="-1264.6" font-family="Arial" font-size="14.00" fill="#666666">[text]</text>
<polygon fill="none" stroke="black" points="248.18,-1221.6 248.18,-1252.4 525.14,-1252.4 525.14,-1221.6 248.18,-1221.6"/>
<text text-anchor="start" x="255.18" y="-1233.8" font-family="Arial" font-size="14.00">value </text>
<text text-anchor="start" x="292.54" y="-1233.8" font-family="Arial" font-size="14.00" fill="#666666">[text[]]</text>
<polygon fill="none" stroke="black" points="248.18,-1190.8 248.18,-1221.6 525.14,-1221.6 525.14,-1190.8 248.18,-1190.8"/>
<text text-anchor="start" x="255.18" y="-1203" font-family="Arial" font-size="14.00">created_at </text>
<text text-anchor="start" x="325.23" y="-1203" font-family="Arial" font-size="14.00" fill="#666666">[timestamp with time zone]</text>
<polygon fill="none" stroke="black" points="248.18,-1160 248.18,-1190.8 525.14,-1190.8 525.14,-1160 248.18,-1160"/>
<text text-anchor="start" x="255.18" y="-1172.2" font-family="Arial" font-size="14.00">updated_at </text>
<text text-anchor="start" x="329.14" y="-1172.2" font-family="Arial" font-size="14.00" fill="#666666">[timestamp with time zone]</text>
<polygon fill="none" stroke="black" points="248.18,-1129.2 248.18,-1160 525.14,-1160 525.14,-1129.2 248.18,-1129.2"/>
<text text-anchor="start" x="255.18" y="-1141.4" font-family="Arial" font-size="14.00">deleted_at </text>
<text text-anchor="start" x="324.46" y="-1141.4" font-family="Arial" font-size="14.00" fill="#666666">[timestamp with time zone]</text>
<polygon fill="none" stroke="black" points="248.18,-1098.4 248.18,-1129.2 525.14,-1129.2 525.14,-1098.4 248.18,-1098.4"/>
<text text-anchor="start" x="255.18" y="-1110.6" font-family="Arial" font-size="14.00">control_id </text>
<text text-anchor="start" x="319.77" y="-1110.6" font-family="Arial" font-size="14.00" fill="#666666">[text]</text>
</g>
<!-- public.control_tags&#45;&gt;public.controls -->
<g id="edge5" class="edge">
<title>public.control_tags:control_id&#45;&gt;public.controls:id</title>
<path fill="none" stroke="black" d="M536.08,-1110.79C545.5,-1102 531.15,-1075.7 525.14,-1055.2 510.79,-1006.27 479.01,-1006.58 464.82,-957.6 453.16,-917.39 421.95,-863.4 463.82,-863.4"/>
<polygon fill="black" stroke="black" points="536.03,-1110.81 525.16,-1109.4 530.92,-1112.35 526.78,-1113.61 526.78,-1113.61 526.78,-1113.61 530.92,-1112.35 527.76,-1118.01 536.03,-1110.81"/>
<text text-anchor="start" x="533.14" y="-1097.8" font-family="Arial" font-size="10.00">FOREIGN KEY (control_id) REFERENCES controls(id) ON UPDATE CASCADE ON DELETE CASCADE</text>
</g>
<!-- public.benchmark_children -->
<g id="node7" class="node">
<title>public.benchmark_children</title>
<polygon fill="#efefef" stroke="none" points="1068.7,-1221.6 1068.7,-1257.2 1404.62,-1257.2 1404.62,-1221.6 1068.7,-1221.6"/>
<polygon fill="none" stroke="black" points="1068.7,-1221.6 1068.7,-1257.2 1404.62,-1257.2 1404.62,-1221.6 1068.7,-1221.6"/>
<text text-anchor="start" x="1075.7" y="-1235" font-family="Arial Bold" font-size="18.00">public.benchmark_children</text>
<text text-anchor="start" x="1273.13" y="-1235" font-family="Arial" font-size="14.00">    </text>
<text text-anchor="start" x="1304.24" y="-1235" font-family="Arial" font-size="14.00" fill="#666666">[BASE TABLE]</text>
<polygon fill="none" stroke="black" points="1068.7,-1190.8 1068.7,-1221.6 1404.62,-1221.6 1404.62,-1190.8 1068.7,-1190.8"/>
<text text-anchor="start" x="1075.7" y="-1203" font-family="Arial" font-size="14.00">benchmark_id </text>
<text text-anchor="start" x="1167.53" y="-1203" font-family="Arial" font-size="14.00" fill="#666666">[text]</text>
<polygon fill="none" stroke="black" points="1068.7,-1160 1068.7,-1190.8 1404.62,-1190.8 1404.62,-1160 1068.7,-1160"/>
<text text-anchor="start" x="1075.7" y="-1172.2" font-family="Arial" font-size="14.00">child_id </text>
<text text-anchor="start" x="1127.06" y="-1172.2" font-family="Arial" font-size="14.00" fill="#666666">[text]</text>
</g>
<!-- public.benchmark_children&#45;&gt;public.benchmarks -->
<g id="edge6" class="edge">
<title>public.benchmark_children:benchmark_id&#45;&gt;public.benchmarks:id</title>
<path fill="none" stroke="black" d="M1415.46,-1203.87C1472.08,-1175.32 1441.26,-894.2 1375.13,-894.2"/>
<polygon fill="black" stroke="black" points="1415.67,-1203.82 1404.91,-1201.74 1410.48,-1205.05 1406.27,-1206.05 1406.27,-1206.05 1406.27,-1206.05 1410.48,-1205.05 1406.98,-1210.5 1415.67,-1203.82"/>
<text text-anchor="start" x="1263.91" y="-1190.2" font-family="Arial" font-size="10.00">FOREIGN KEY (benchmark_id) REFERENCES benchmarks(id)</text>
</g>
<!-- public.benchmark_children&#45;&gt;public.benchmarks -->
<g id="edge7" class="edge">
<title>public.benchmark_children:child_id&#45;&gt;public.benchmarks:id</title>
<path fill="none" stroke="black" d="M1237.08,-1148.63C1244.32,-1062.84 1342.47,-1076.66 1374.13,-988.4 1388.27,-948.99 1417,-894.2 1375.13,-894.2"/>
<polygon fill="black" stroke="black" points="1237.08,-1148.67 1232.18,-1158.48 1236.86,-1154 1236.69,-1158.33 1236.69,-1158.33 1236.69,-1158.33 1236.86,-1154 1241.17,-1158.85 1237.08,-1148.67"/>
<text text-anchor="start" x="1176.53" y="-1143" font-family="Arial" font-size="10.00">FOREIGN KEY (child_id) REFERENCES benchmarks(id)</text>
</g>
<!-- public.benchmark_tags -->
<g id="node8" class="node">
<title>public.benchmark_tags</title>
<polygon fill="#efefef" stroke="none" points="1508.69,-1283.2 1508.69,-1318.8 1814.63,-1318.8 1814.63,-1283.2 1508.69,-1283.2"/>
<polygon fill="none" stroke="black" points="1508.69,-1283.2 1508.69,-1318.8 1814.63,-1318.8 1814.63,-1283.2 1508.69,-1283.2"/>
<text text-anchor="start" x="1515.69" y="-1296.6" font-family="Arial Bold" font-size="18.00">public.benchmark_tags</text>
<text text-anchor="start" x="1683.14" y="-1296.6" font-family="Arial" font-size="14.00">    </text>
<text text-anchor="start" x="1714.26" y="-1296.6" font-family="Arial" font-size="14.00" fill="#666666">[BASE TABLE]</text>
<polygon fill="none" stroke="black" points="1508.69,-1252.4 1508.69,-1283.2 1814.63,-1283.2 1814.63,-1252.4 1508.69,-1252.4"/>
<text text-anchor="start" x="1515.69" y="-1264.6" font-family="Arial" font-size="14.00">key </text>
<text text-anchor="start" x="1541.36" y="-1264.6" font-family="Arial" font-size="14.00" fill="#666666">[text]</text>
<polygon fill="none" stroke="black" points="1508.69,-1221.6 1508.69,-1252.4 1814.63,-1252.4 1814.63,-1221.6 1508.69,-1221.6"/>
<text text-anchor="start" x="1515.69" y="-1233.8" font-family="Arial" font-size="14.00">value </text>
<text text-anchor="start" x="1553.05" y="-1233.8" font-family="Arial" font-size="14.00" fill="#666666">[text[]]</text>
<polygon fill="none" stroke="black" points="1508.69,-1190.8 1508.69,-1221.6 1814.63,-1221.6 1814.63,-1190.8 1508.69,-1190.8"/>
<text text-anchor="start" x="1515.69" y="-1203" font-family="Arial" font-size="14.00">created_at </text>
<text text-anchor="start" x="1585.74" y="-1203" font-family="Arial" font-size="14.00" fill="#666666">[timestamp with time zone]</text>
<polygon fill="none" stroke="black" points="1508.69,-1160 1508.69,-1190.8 1814.63,-1190.8 1814.63,-1160 1508.69,-1160"/>
<text text-anchor="start" x="1515.69" y="-1172.2" font-family="Arial" font-size="14.00">updated_at </text>
<text text-anchor="start" x="1589.65" y="-1172.2" font-family="Arial" font-size="14.00" fill="#666666">[timestamp with time zone]</text>
<polygon fill="none" stroke="black" points="1508.69,-1129.2 1508.69,-1160 1814.63,-1160 1814.63,-1129.2 1508.69,-1129.2"/>
<text text-anchor="start" x="1515.69" y="-1141.4" font-family="Arial" font-size="14.00">deleted_at </text>
<text text-anchor="start" x="1584.97" y="-1141.4" font-family="Arial" font-size="14.00" fill="#666666">[timestamp with time zone]</text>
<polygon fill="none" stroke="black" points="1508.69,-1098.4 1508.69,-1129.2 1814.63,-1129.2 1814.63,-1098.4 1508.69,-1098.4"/>
<text text-anchor="start" x="1515.69" y="-1110.6" font-family="Arial" font-size="14.00">benchmark_id </text>
<text text-anchor="start" x="1607.52" y="-1110.6" font-family="Arial" font-size="14.00" fill="#666666">[text]</text>
</g>
<!-- public.benchmark_tags&#45;&gt;public.benchmarks -->
<g id="edge8" class="edge">
<title>public.benchmark_tags:benchmark_id&#45;&gt;public.benchmarks:id</title>
<path fill="none" stroke="black" d="M1497.66,-1112.82C1464.64,-1105.65 1478.22,-1060.44 1456.66,-1024.4 1421.61,-965.81 1443.41,-894.2 1375.13,-894.2"/>
<polygon fill="black" stroke="black" points="1497.4,-1112.8 1506.92,-1118.25 1502.71,-1113.31 1507.02,-1113.74 1507.02,-1113.74 1507.02,-1113.74 1502.71,-1113.31 1507.79,-1109.29 1497.4,-1112.8"/>
<text text-anchor="start" x="994.46" y="-1097.8" font-family="Arial" font-size="10.00">FOREIGN KEY (benchmark_id) REFERENCES benchmarks(id) ON UPDATE CASCADE ON DELETE CASCADE</text>
</g>
<!-- public.benchmark_assignments -->
<g id="node9" class="node">
<title>public.benchmark_assignments</title>
<polygon fill="#efefef" stroke="none" points="1919.19,-1314 1919.19,-1349.6 2284.13,-1349.6 2284.13,-1314 1919.19,-1314"/>
<polygon fill="none" stroke="black" points="1919.19,-1314 1919.19,-1349.6 2284.13,-1349.6 2284.13,-1314 1919.19,-1314"/>
<text text-anchor="start" x="1926.19" y="-1327.4" font-family="Arial Bold" font-size="18.00">public.benchmark_assignments</text>
<text text-anchor="start" x="2152.64" y="-1327.4" font-family="Arial" font-size="14.00">    </text>
<text text-anchor="start" x="2183.76" y="-1327.4" font-family="Arial" font-size="14.00" fill="#666666">[BASE TABLE]</text>
<polygon fill="none" stroke="black" points="1919.19,-1283.2 1919.19,-1314 2284.13,-1314 2284.13,-1283.2 1919.19,-1283.2"/>
<text text-anchor="start" x="1926.19" y="-1295.4" font-family="Arial" font-size="14.00">id </text>
<text text-anchor="start" x="1940.97" y="-1295.4" font-family="Arial" font-size="14.00" fill="#666666">[bigint]</text>
<polygon fill="none" stroke="black" points="1919.19,-1252.4 1919.19,-1283.2 2284.13,-1283.2 2284.13,-1252.4 1919.19,-1252.4"/>
<text text-anchor="start" x="1926.19" y="-1264.6" font-family="Arial" font-size="14.00">created_at </text>
<text text-anchor="start" x="1996.24" y="-1264.6" font-family="Arial" font-size="14.00" fill="#666666">[timestamp with time zone]</text>
<polygon fill="none" stroke="black" points="1919.19,-1221.6 1919.19,-1252.4 2284.13,-1252.4 2284.13,-1221.6 1919.19,-1221.6"/>
<text text-anchor="start" x="1926.19" y="-1233.8" font-family="Arial" font-size="14.00">updated_at </text>
<text text-anchor="start" x="2000.15" y="-1233.8" font-family="Arial" font-size="14.00" fill="#666666">[timestamp with time zone]</text>
<polygon fill="none" stroke="black" points="1919.19,-1190.8 1919.19,-1221.6 2284.13,-1221.6 2284.13,-1190.8 1919.19,-1190.8"/>
<text text-anchor="start" x="1926.19" y="-1203" font-family="Arial" font-size="14.00">deleted_at </text>
<text text-anchor="start" x="1995.47" y="-1203" font-family="Arial" font-size="14.00" fill="#666666">[timestamp with time zone]</text>
<polygon fill="none" stroke="black" points="1919.19,-1160 1919.19,-1190.8 2284.13,-1190.8 2284.13,-1160 1919.19,-1160"/>
<text text-anchor="start" x="1926.19" y="-1172.2" font-family="Arial" font-size="14.00">benchmark_id </text>
<text text-anchor="start" x="2018.02" y="-1172.2" font-family="Arial" font-size="14.00" fill="#666666">[text]</text>
<polygon fill="none" stroke="black" points="1919.19,-1129.2 1919.19,-1160 2284.13,-1160 2284.13,-1129.2 1919.19,-1129.2"/>
<text text-anchor="start" x="1926.19" y="-1141.4" font-family="Arial" font-size="14.00">connection_id </text>
<text text-anchor="start" x="2016.48" y="-1141.4" font-family="Arial" font-size="14.00" fill="#666666">[text]</text>
<polygon fill="none" stroke="black" points="1919.19,-1098.4 1919.19,-1129.2 2284.13,-1129.2 2284.13,-1098.4 1919.19,-1098.4"/>
<text text-anchor="start" x="1926.19" y="-1110.6" font-family="Arial" font-size="14.00">resource_collection </text>
<text text-anchor="start" x="2050.7" y="-1110.6" font-family="Arial" font-size="14.00" fill="#666666">[text]</text>
<polygon fill="none" stroke="black" points="1919.19,-1067.6 1919.19,-1098.4 2284.13,-1098.4 2284.13,-1067.6 1919.19,-1067.6"/>
<text text-anchor="start" x="1926.19" y="-1079.8" font-family="Arial" font-size="14.00">assigned_at </text>
<text text-anchor="start" x="2005.58" y="-1079.8" font-family="Arial" font-size="14.00" fill="#666666">[timestamp with time zone]</text>
</g>
</g>
</svg>
