<?xml version="1.0" encoding="UTF-8" standalone="no"?>
<!DOCTYPE svg PUBLIC "-//W3C//DTD SVG 1.1//EN"
 "http://www.w3.org/Graphics/SVG/1.1/DTD/svg11.dtd">
<!-- Generated by graphviz version 12.1.2 (20240928.0832)
 -->
<!-- Title: public.job_sequencers Pages: 1 -->
<svg width="399pt" height="444pt"
 viewBox="0.00 0.00 399.34 444.00" xmlns="http://www.w3.org/2000/svg" xmlns:xlink="http://www.w3.org/1999/xlink">
<g id="graph0" class="graph" transform="scale(1 1) rotate(0) translate(4 440)">
<title>public.job_sequencers</title>
<polygon fill="white" stroke="none" points="-4,4 -4,-440 395.34,-440 395.34,4 -4,4"/>
<!-- public.job_sequencers -->
<g id="node1" class="node">
<title>public.job_sequencers</title>
<polygon fill="#efefef" stroke="none" points="46.2,-354.2 46.2,-389.8 345.14,-389.8 345.14,-354.2 46.2,-354.2"/>
<polygon fill="none" stroke="black" points="46.2,-354.2 46.2,-389.8 345.14,-389.8 345.14,-354.2 46.2,-354.2"/>
<text text-anchor="start" x="53.2" y="-367.6" font-family="Arial Bold" font-size="18.00">public.job_sequencers</text>
<text text-anchor="start" x="213.65" y="-367.6" font-family="Arial" font-size="14.00">    </text>
<text text-anchor="start" x="244.77" y="-367.6" font-family="Arial" font-size="14.00" fill="#666666">[BASE TABLE]</text>
<polygon fill="none" stroke="black" points="46.2,-323.4 46.2,-354.2 345.14,-354.2 345.14,-323.4 46.2,-323.4"/>
<text text-anchor="start" x="53.2" y="-335.6" font-family="Arial" font-size="14.00">id </text>
<text text-anchor="start" x="67.99" y="-335.6" font-family="Arial" font-size="14.00" fill="#666666">[bigint]</text>
<polygon fill="none" stroke="black" points="46.2,-292.6 46.2,-323.4 345.14,-323.4 345.14,-292.6 46.2,-292.6"/>
<text text-anchor="start" x="53.2" y="-304.8" font-family="Arial" font-size="14.00">created_at </text>
<text text-anchor="start" x="123.25" y="-304.8" font-family="Arial" font-size="14.00" fill="#666666">[timestamp with time zone]</text>
<polygon fill="none" stroke="black" points="46.2,-261.8 46.2,-292.6 345.14,-292.6 345.14,-261.8 46.2,-261.8"/>
<text text-anchor="start" x="53.2" y="-274" font-family="Arial" font-size="14.00">updated_at </text>
<text text-anchor="start" x="127.16" y="-274" font-family="Arial" font-size="14.00" fill="#666666">[timestamp with time zone]</text>
<polygon fill="none" stroke="black" points="46.2,-231 46.2,-261.8 345.14,-261.8 345.14,-231 46.2,-231"/>
<text text-anchor="start" x="53.2" y="-243.2" font-family="Arial" font-size="14.00">deleted_at </text>
<text text-anchor="start" x="122.48" y="-243.2" font-family="Arial" font-size="14.00" fill="#666666">[timestamp with time zone]</text>
<polygon fill="none" stroke="black" points="46.2,-200.2 46.2,-231 345.14,-231 345.14,-200.2 46.2,-200.2"/>
<text text-anchor="start" x="53.2" y="-212.4" font-family="Arial" font-size="14.00">dependency_list </text>
<text text-anchor="start" x="158.28" y="-212.4" font-family="Arial" font-size="14.00" fill="#666666">[bigint[]]</text>
<polygon fill="none" stroke="black" points="46.2,-169.4 46.2,-200.2 345.14,-200.2 345.14,-169.4 46.2,-169.4"/>
<text text-anchor="start" x="53.2" y="-181.6" font-family="Arial" font-size="14.00">dependency_source </text>
<text text-anchor="start" x="183.19" y="-181.6" font-family="Arial" font-size="14.00" fill="#666666">[text]</text>
<polygon fill="none" stroke="black" points="46.2,-138.6 46.2,-169.4 345.14,-169.4 345.14,-138.6 46.2,-138.6"/>
<text text-anchor="start" x="53.2" y="-150.8" font-family="Arial" font-size="14.00">next_job </text>
<text text-anchor="start" x="110.02" y="-150.8" font-family="Arial" font-size="14.00" fill="#666666">[text]</text>
<polygon fill="none" stroke="black" points="46.2,-107.8 46.2,-138.6 345.14,-138.6 345.14,-107.8 46.2,-107.8"/>
<text text-anchor="start" x="53.2" y="-120" font-family="Arial" font-size="14.00">next_job_parameters </text>
<text text-anchor="start" x="188.61" y="-120" font-family="Arial" font-size="14.00" fill="#666666">[bytea]</text>
<polygon fill="none" stroke="black" points="46.2,-77 46.2,-107.8 345.14,-107.8 345.14,-77 46.2,-77"/>
<text text-anchor="start" x="53.2" y="-89.2" font-family="Arial" font-size="14.00">next_job_ids </text>
<text text-anchor="start" x="135.7" y="-89.2" font-family="Arial" font-size="14.00" fill="#666666">[text]</text>
<polygon fill="none" stroke="black" points="46.2,-46.2 46.2,-77 345.14,-77 345.14,-46.2 46.2,-46.2"/>
<text text-anchor="start" x="53.2" y="-58.4" font-family="Arial" font-size="14.00">status </text>
<text text-anchor="start" x="94.44" y="-58.4" font-family="Arial" font-size="14.00" fill="#666666">[text]</text>
<polygon fill="none" stroke="black" stroke-width="3" points="44.7,-44.7 44.7,-391.3 346.64,-391.3 346.64,-44.7 44.7,-44.7"/>
</g>
</g>
</svg>
