<?xml version="1.0" encoding="UTF-8" standalone="no"?>
<!DOCTYPE svg PUBLIC "-//W3C//DTD SVG 1.1//EN"
 "http://www.w3.org/Graphics/SVG/1.1/DTD/svg11.dtd">
<!-- Generated by graphviz version 12.1.2 (20240928.0832)
 -->
<!-- Title: public.analytics_jobs Pages: 1 -->
<svg width="391pt" height="352pt"
 viewBox="0.00 0.00 391.36 351.60" xmlns="http://www.w3.org/2000/svg" xmlns:xlink="http://www.w3.org/1999/xlink">
<g id="graph0" class="graph" transform="scale(1 1) rotate(0) translate(4 347.6)">
<title>public.analytics_jobs</title>
<polygon fill="white" stroke="none" points="-4,4 -4,-347.6 387.36,-347.6 387.36,4 -4,4"/>
<!-- public.analytics_jobs -->
<g id="node1" class="node">
<title>public.analytics_jobs</title>
<polygon fill="#efefef" stroke="none" points="46.2,-261.8 46.2,-297.4 337.16,-297.4 337.16,-261.8 46.2,-261.8"/>
<polygon fill="none" stroke="black" points="46.2,-261.8 46.2,-297.4 337.16,-297.4 337.16,-261.8 46.2,-261.8"/>
<text text-anchor="start" x="53.2" y="-275.2" font-family="Arial Bold" font-size="18.00">public.analytics_jobs</text>
<text text-anchor="start" x="205.67" y="-275.2" font-family="Arial" font-size="14.00">    </text>
<text text-anchor="start" x="236.79" y="-275.2" font-family="Arial" font-size="14.00" fill="#666666">[BASE TABLE]</text>
<polygon fill="none" stroke="black" points="46.2,-231 46.2,-261.8 337.16,-261.8 337.16,-231 46.2,-231"/>
<text text-anchor="start" x="53.2" y="-243.2" font-family="Arial" font-size="14.00">id </text>
<text text-anchor="start" x="67.99" y="-243.2" font-family="Arial" font-size="14.00" fill="#666666">[bigint]</text>
<polygon fill="none" stroke="black" points="46.2,-200.2 46.2,-231 337.16,-231 337.16,-200.2 46.2,-200.2"/>
<text text-anchor="start" x="53.2" y="-212.4" font-family="Arial" font-size="14.00">created_at </text>
<text text-anchor="start" x="123.25" y="-212.4" font-family="Arial" font-size="14.00" fill="#666666">[timestamp with time zone]</text>
<polygon fill="none" stroke="black" points="46.2,-169.4 46.2,-200.2 337.16,-200.2 337.16,-169.4 46.2,-169.4"/>
<text text-anchor="start" x="53.2" y="-181.6" font-family="Arial" font-size="14.00">updated_at </text>
<text text-anchor="start" x="127.16" y="-181.6" font-family="Arial" font-size="14.00" fill="#666666">[timestamp with time zone]</text>
<polygon fill="none" stroke="black" points="46.2,-138.6 46.2,-169.4 337.16,-169.4 337.16,-138.6 46.2,-138.6"/>
<text text-anchor="start" x="53.2" y="-150.8" font-family="Arial" font-size="14.00">deleted_at </text>
<text text-anchor="start" x="122.48" y="-150.8" font-family="Arial" font-size="14.00" fill="#666666">[timestamp with time zone]</text>
<polygon fill="none" stroke="black" points="46.2,-107.8 46.2,-138.6 337.16,-138.6 337.16,-107.8 46.2,-107.8"/>
<text text-anchor="start" x="53.2" y="-120" font-family="Arial" font-size="14.00">type </text>
<text text-anchor="start" x="83.55" y="-120" font-family="Arial" font-size="14.00" fill="#666666">[text]</text>
<polygon fill="none" stroke="black" points="46.2,-77 46.2,-107.8 337.16,-107.8 337.16,-77 46.2,-77"/>
<text text-anchor="start" x="53.2" y="-89.2" font-family="Arial" font-size="14.00">status </text>
<text text-anchor="start" x="94.44" y="-89.2" font-family="Arial" font-size="14.00" fill="#666666">[text]</text>
<polygon fill="none" stroke="black" points="46.2,-46.2 46.2,-77 337.16,-77 337.16,-46.2 46.2,-46.2"/>
<text text-anchor="start" x="53.2" y="-58.4" font-family="Arial" font-size="14.00">failure_message </text>
<text text-anchor="start" x="159.81" y="-58.4" font-family="Arial" font-size="14.00" fill="#666666">[text]</text>
<polygon fill="none" stroke="black" stroke-width="3" points="44.7,-44.7 44.7,-298.9 338.66,-298.9 338.66,-44.7 44.7,-44.7"/>
</g>
</g>
</svg>
