<?xml version="1.0" encoding="UTF-8" standalone="no"?>
<!DOCTYPE svg PUBLIC "-//W3C//DTD SVG 1.1//EN"
 "http://www.w3.org/Graphics/SVG/1.1/DTD/svg11.dtd">
<!-- Generated by graphviz version 12.1.2 (20240928.0832)
 -->
<!-- Title: describe Pages: 1 -->
<svg width="3876pt" height="777pt"
 viewBox="0.00 0.00 3876.35 776.80" xmlns="http://www.w3.org/2000/svg" xmlns:xlink="http://www.w3.org/1999/xlink">
<g id="graph0" class="graph" transform="scale(1 1) rotate(0) translate(4 772.8)">
<title>describe</title>
<polygon fill="white" stroke="none" points="-4,4 -4,-772.8 3872.35,-772.8 3872.35,4 -4,4"/>
<!-- public.compliance_jobs -->
<g id="node1" class="node">
<title>public.compliance_jobs</title>
<polygon fill="#efefef" stroke="none" points="43.2,-536 43.2,-571.6 353.15,-571.6 353.15,-536 43.2,-536"/>
<polygon fill="none" stroke="black" points="43.2,-536 43.2,-571.6 353.15,-571.6 353.15,-536 43.2,-536"/>
<text text-anchor="start" x="50.2" y="-549.4" font-family="Arial Bold" font-size="18.00">public.compliance_jobs</text>
<text text-anchor="start" x="221.66" y="-549.4" font-family="Arial" font-size="14.00">    </text>
<text text-anchor="start" x="252.77" y="-549.4" font-family="Arial" font-size="14.00" fill="#666666">[BASE TABLE]</text>
<polygon fill="none" stroke="black" points="43.2,-505.2 43.2,-536 353.15,-536 353.15,-505.2 43.2,-505.2"/>
<text text-anchor="start" x="50.2" y="-517.4" font-family="Arial" font-size="14.00">id </text>
<text text-anchor="start" x="64.99" y="-517.4" font-family="Arial" font-size="14.00" fill="#666666">[bigint]</text>
<polygon fill="none" stroke="black" points="43.2,-474.4 43.2,-505.2 353.15,-505.2 353.15,-474.4 43.2,-474.4"/>
<text text-anchor="start" x="50.2" y="-486.6" font-family="Arial" font-size="14.00">created_at </text>
<text text-anchor="start" x="120.25" y="-486.6" font-family="Arial" font-size="14.00" fill="#666666">[timestamp with time zone]</text>
<polygon fill="none" stroke="black" points="43.2,-443.6 43.2,-474.4 353.15,-474.4 353.15,-443.6 43.2,-443.6"/>
<text text-anchor="start" x="50.2" y="-455.8" font-family="Arial" font-size="14.00">updated_at </text>
<text text-anchor="start" x="124.16" y="-455.8" font-family="Arial" font-size="14.00" fill="#666666">[timestamp with time zone]</text>
<polygon fill="none" stroke="black" points="43.2,-412.8 43.2,-443.6 353.15,-443.6 353.15,-412.8 43.2,-412.8"/>
<text text-anchor="start" x="50.2" y="-425" font-family="Arial" font-size="14.00">deleted_at </text>
<text text-anchor="start" x="119.48" y="-425" font-family="Arial" font-size="14.00" fill="#666666">[timestamp with time zone]</text>
<polygon fill="none" stroke="black" points="43.2,-382 43.2,-412.8 353.15,-412.8 353.15,-382 43.2,-382"/>
<text text-anchor="start" x="50.2" y="-394.2" font-family="Arial" font-size="14.00">benchmark_id </text>
<text text-anchor="start" x="142.03" y="-394.2" font-family="Arial" font-size="14.00" fill="#666666">[text]</text>
<polygon fill="none" stroke="black" points="43.2,-351.2 43.2,-382 353.15,-382 353.15,-351.2 43.2,-351.2"/>
<text text-anchor="start" x="50.2" y="-363.4" font-family="Arial" font-size="14.00">status </text>
<text text-anchor="start" x="91.44" y="-363.4" font-family="Arial" font-size="14.00" fill="#666666">[text]</text>
<polygon fill="none" stroke="black" points="43.2,-320.4 43.2,-351.2 353.15,-351.2 353.15,-320.4 43.2,-320.4"/>
<text text-anchor="start" x="50.2" y="-332.6" font-family="Arial" font-size="14.00">are_all_runners_queued </text>
<text text-anchor="start" x="205.87" y="-332.6" font-family="Arial" font-size="14.00" fill="#666666">[boolean]</text>
<polygon fill="none" stroke="black" points="43.2,-289.6 43.2,-320.4 353.15,-320.4 353.15,-289.6 43.2,-289.6"/>
<text text-anchor="start" x="50.2" y="-301.8" font-family="Arial" font-size="14.00">connection_id </text>
<text text-anchor="start" x="140.49" y="-301.8" font-family="Arial" font-size="14.00" fill="#666666">[text]</text>
<polygon fill="none" stroke="black" points="43.2,-258.8 43.2,-289.6 353.15,-289.6 353.15,-258.8 43.2,-258.8"/>
<text text-anchor="start" x="50.2" y="-271" font-family="Arial" font-size="14.00">failure_message </text>
<text text-anchor="start" x="156.81" y="-271" font-family="Arial" font-size="14.00" fill="#666666">[text]</text>
<polygon fill="none" stroke="black" points="43.2,-228 43.2,-258.8 353.15,-258.8 353.15,-228 43.2,-228"/>
<text text-anchor="start" x="50.2" y="-240.2" font-family="Arial" font-size="14.00">trigger_type </text>
<text text-anchor="start" x="128.02" y="-240.2" font-family="Arial" font-size="14.00" fill="#666666">[text]</text>
<polygon fill="none" stroke="black" points="43.2,-197.2 43.2,-228 353.15,-228 353.15,-197.2 43.2,-197.2"/>
<text text-anchor="start" x="50.2" y="-209.4" font-family="Arial" font-size="14.00">created_by </text>
<text text-anchor="start" x="123.36" y="-209.4" font-family="Arial" font-size="14.00" fill="#666666">[text]</text>
</g>
<!-- public.compliance_summarizers -->
<g id="node2" class="node">
<title>public.compliance_summarizers</title>
<polygon fill="#efefef" stroke="none" points="457.22,-536 457.22,-571.6 829.13,-571.6 829.13,-536 457.22,-536"/>
<polygon fill="none" stroke="black" points="457.22,-536 457.22,-571.6 829.13,-571.6 829.13,-536 457.22,-536"/>
<text text-anchor="start" x="464.22" y="-549.4" font-family="Arial Bold" font-size="18.00">public.compliance_summarizers</text>
<text text-anchor="start" x="697.64" y="-549.4" font-family="Arial" font-size="14.00">    </text>
<text text-anchor="start" x="728.76" y="-549.4" font-family="Arial" font-size="14.00" fill="#666666">[BASE TABLE]</text>
<polygon fill="none" stroke="black" points="457.22,-505.2 457.22,-536 829.13,-536 829.13,-505.2 457.22,-505.2"/>
<text text-anchor="start" x="464.22" y="-517.4" font-family="Arial" font-size="14.00">id </text>
<text text-anchor="start" x="479" y="-517.4" font-family="Arial" font-size="14.00" fill="#666666">[bigint]</text>
<polygon fill="none" stroke="black" points="457.22,-474.4 457.22,-505.2 829.13,-505.2 829.13,-474.4 457.22,-474.4"/>
<text text-anchor="start" x="464.22" y="-486.6" font-family="Arial" font-size="14.00">created_at </text>
<text text-anchor="start" x="534.27" y="-486.6" font-family="Arial" font-size="14.00" fill="#666666">[timestamp with time zone]</text>
<polygon fill="none" stroke="black" points="457.22,-443.6 457.22,-474.4 829.13,-474.4 829.13,-443.6 457.22,-443.6"/>
<text text-anchor="start" x="464.22" y="-455.8" font-family="Arial" font-size="14.00">updated_at </text>
<text text-anchor="start" x="538.18" y="-455.8" font-family="Arial" font-size="14.00" fill="#666666">[timestamp with time zone]</text>
<polygon fill="none" stroke="black" points="457.22,-412.8 457.22,-443.6 829.13,-443.6 829.13,-412.8 457.22,-412.8"/>
<text text-anchor="start" x="464.22" y="-425" font-family="Arial" font-size="14.00">deleted_at </text>
<text text-anchor="start" x="533.5" y="-425" font-family="Arial" font-size="14.00" fill="#666666">[timestamp with time zone]</text>
<polygon fill="none" stroke="black" points="457.22,-382 457.22,-412.8 829.13,-412.8 829.13,-382 457.22,-382"/>
<text text-anchor="start" x="464.22" y="-394.2" font-family="Arial" font-size="14.00">benchmark_id </text>
<text text-anchor="start" x="556.05" y="-394.2" font-family="Arial" font-size="14.00" fill="#666666">[text]</text>
<polygon fill="none" stroke="black" points="457.22,-351.2 457.22,-382 829.13,-382 829.13,-351.2 457.22,-351.2"/>
<text text-anchor="start" x="464.22" y="-363.4" font-family="Arial" font-size="14.00">parent_job_id </text>
<text text-anchor="start" x="552.96" y="-363.4" font-family="Arial" font-size="14.00" fill="#666666">[bigint]</text>
<polygon fill="none" stroke="black" points="457.22,-320.4 457.22,-351.2 829.13,-351.2 829.13,-320.4 457.22,-320.4"/>
<text text-anchor="start" x="464.22" y="-332.6" font-family="Arial" font-size="14.00">started_at </text>
<text text-anchor="start" x="530.37" y="-332.6" font-family="Arial" font-size="14.00" fill="#666666">[timestamp with time zone]</text>
<polygon fill="none" stroke="black" points="457.22,-289.6 457.22,-320.4 829.13,-320.4 829.13,-289.6 457.22,-289.6"/>
<text text-anchor="start" x="464.22" y="-301.8" font-family="Arial" font-size="14.00">retry_count </text>
<text text-anchor="start" x="538.14" y="-301.8" font-family="Arial" font-size="14.00" fill="#666666">[bigint]</text>
<polygon fill="none" stroke="black" points="457.22,-258.8 457.22,-289.6 829.13,-289.6 829.13,-258.8 457.22,-258.8"/>
<text text-anchor="start" x="464.22" y="-271" font-family="Arial" font-size="14.00">status </text>
<text text-anchor="start" x="505.46" y="-271" font-family="Arial" font-size="14.00" fill="#666666">[text]</text>
<polygon fill="none" stroke="black" points="457.22,-228 457.22,-258.8 829.13,-258.8 829.13,-228 457.22,-228"/>
<text text-anchor="start" x="464.22" y="-240.2" font-family="Arial" font-size="14.00">failure_message </text>
<text text-anchor="start" x="570.83" y="-240.2" font-family="Arial" font-size="14.00" fill="#666666">[text]</text>
<polygon fill="none" stroke="black" points="457.22,-197.2 457.22,-228 829.13,-228 829.13,-197.2 457.22,-197.2"/>
<text text-anchor="start" x="464.22" y="-209.4" font-family="Arial" font-size="14.00">trigger_type </text>
<text text-anchor="start" x="542.04" y="-209.4" font-family="Arial" font-size="14.00" fill="#666666">[text]</text>
</g>
<!-- public.compliance_runners -->
<g id="node3" class="node">
<title>public.compliance_runners</title>
<polygon fill="#efefef" stroke="none" points="933.21,-628.4 933.21,-664 1267.13,-664 1267.13,-628.4 933.21,-628.4"/>
<polygon fill="none" stroke="black" points="933.21,-628.4 933.21,-664 1267.13,-664 1267.13,-628.4 933.21,-628.4"/>
<text text-anchor="start" x="940.21" y="-641.8" font-family="Arial Bold" font-size="18.00">public.compliance_runners</text>
<text text-anchor="start" x="1135.65" y="-641.8" font-family="Arial" font-size="14.00">    </text>
<text text-anchor="start" x="1166.76" y="-641.8" font-family="Arial" font-size="14.00" fill="#666666">[BASE TABLE]</text>
<polygon fill="none" stroke="black" points="933.21,-597.6 933.21,-628.4 1267.13,-628.4 1267.13,-597.6 933.21,-597.6"/>
<text text-anchor="start" x="940.21" y="-609.8" font-family="Arial" font-size="14.00">id </text>
<text text-anchor="start" x="955" y="-609.8" font-family="Arial" font-size="14.00" fill="#666666">[bigint]</text>
<polygon fill="none" stroke="black" points="933.21,-566.8 933.21,-597.6 1267.13,-597.6 1267.13,-566.8 933.21,-566.8"/>
<text text-anchor="start" x="940.21" y="-579" font-family="Arial" font-size="14.00">created_at </text>
<text text-anchor="start" x="1010.26" y="-579" font-family="Arial" font-size="14.00" fill="#666666">[timestamp with time zone]</text>
<polygon fill="none" stroke="black" points="933.21,-536 933.21,-566.8 1267.13,-566.8 1267.13,-536 933.21,-536"/>
<text text-anchor="start" x="940.21" y="-548.2" font-family="Arial" font-size="14.00">updated_at </text>
<text text-anchor="start" x="1014.17" y="-548.2" font-family="Arial" font-size="14.00" fill="#666666">[timestamp with time zone]</text>
<polygon fill="none" stroke="black" points="933.21,-505.2 933.21,-536 1267.13,-536 1267.13,-505.2 933.21,-505.2"/>
<text text-anchor="start" x="940.21" y="-517.4" font-family="Arial" font-size="14.00">deleted_at </text>
<text text-anchor="start" x="1009.49" y="-517.4" font-family="Arial" font-size="14.00" fill="#666666">[timestamp with time zone]</text>
<polygon fill="none" stroke="black" points="933.21,-474.4 933.21,-505.2 1267.13,-505.2 1267.13,-474.4 933.21,-474.4"/>
<text text-anchor="start" x="940.21" y="-486.6" font-family="Arial" font-size="14.00">callers </text>
<text text-anchor="start" x="984.56" y="-486.6" font-family="Arial" font-size="14.00" fill="#666666">[text]</text>
<polygon fill="none" stroke="black" points="933.21,-443.6 933.21,-474.4 1267.13,-474.4 1267.13,-443.6 933.21,-443.6"/>
<text text-anchor="start" x="940.21" y="-455.8" font-family="Arial" font-size="14.00">benchmark_id </text>
<text text-anchor="start" x="1032.04" y="-455.8" font-family="Arial" font-size="14.00" fill="#666666">[text]</text>
<polygon fill="none" stroke="black" points="933.21,-412.8 933.21,-443.6 1267.13,-443.6 1267.13,-412.8 933.21,-412.8"/>
<text text-anchor="start" x="940.21" y="-425" font-family="Arial" font-size="14.00">query_id </text>
<text text-anchor="start" x="997.8" y="-425" font-family="Arial" font-size="14.00" fill="#666666">[text]</text>
<polygon fill="none" stroke="black" points="933.21,-382 933.21,-412.8 1267.13,-412.8 1267.13,-382 933.21,-382"/>
<text text-anchor="start" x="940.21" y="-394.2" font-family="Arial" font-size="14.00">connection_id </text>
<text text-anchor="start" x="1030.5" y="-394.2" font-family="Arial" font-size="14.00" fill="#666666">[text]</text>
<polygon fill="none" stroke="black" points="933.21,-351.2 933.21,-382 1267.13,-382 1267.13,-351.2 933.21,-351.2"/>
<text text-anchor="start" x="940.21" y="-363.4" font-family="Arial" font-size="14.00">resource_collection_id </text>
<text text-anchor="start" x="1083.4" y="-363.4" font-family="Arial" font-size="14.00" fill="#666666">[text]</text>
<polygon fill="none" stroke="black" points="933.21,-320.4 933.21,-351.2 1267.13,-351.2 1267.13,-320.4 933.21,-320.4"/>
<text text-anchor="start" x="940.21" y="-332.6" font-family="Arial" font-size="14.00">parent_job_id </text>
<text text-anchor="start" x="1028.95" y="-332.6" font-family="Arial" font-size="14.00" fill="#666666">[bigint]</text>
<polygon fill="none" stroke="black" points="933.21,-289.6 933.21,-320.4 1267.13,-320.4 1267.13,-289.6 933.21,-289.6"/>
<text text-anchor="start" x="940.21" y="-301.8" font-family="Arial" font-size="14.00">started_at </text>
<text text-anchor="start" x="1006.36" y="-301.8" font-family="Arial" font-size="14.00" fill="#666666">[timestamp with time zone]</text>
<polygon fill="none" stroke="black" points="933.21,-258.8 933.21,-289.6 1267.13,-289.6 1267.13,-258.8 933.21,-258.8"/>
<text text-anchor="start" x="940.21" y="-271" font-family="Arial" font-size="14.00">total_finding_count </text>
<text text-anchor="start" x="1061.64" y="-271" font-family="Arial" font-size="14.00" fill="#666666">[bigint]</text>
<polygon fill="none" stroke="black" points="933.21,-228 933.21,-258.8 1267.13,-258.8 1267.13,-228 933.21,-228"/>
<text text-anchor="start" x="940.21" y="-240.2" font-family="Arial" font-size="14.00">status </text>
<text text-anchor="start" x="981.45" y="-240.2" font-family="Arial" font-size="14.00" fill="#666666">[text]</text>
<polygon fill="none" stroke="black" points="933.21,-197.2 933.21,-228 1267.13,-228 1267.13,-197.2 933.21,-197.2"/>
<text text-anchor="start" x="940.21" y="-209.4" font-family="Arial" font-size="14.00">failure_message </text>
<text text-anchor="start" x="1046.83" y="-209.4" font-family="Arial" font-size="14.00" fill="#666666">[text]</text>
<polygon fill="none" stroke="black" points="933.21,-166.4 933.21,-197.2 1267.13,-197.2 1267.13,-166.4 933.21,-166.4"/>
<text text-anchor="start" x="940.21" y="-178.6" font-family="Arial" font-size="14.00">retry_count </text>
<text text-anchor="start" x="1014.14" y="-178.6" font-family="Arial" font-size="14.00" fill="#666666">[bigint]</text>
<polygon fill="none" stroke="black" points="933.21,-135.6 933.21,-166.4 1267.13,-166.4 1267.13,-135.6 933.21,-135.6"/>
<text text-anchor="start" x="940.21" y="-147.8" font-family="Arial" font-size="14.00">trigger_type </text>
<text text-anchor="start" x="1018.03" y="-147.8" font-family="Arial" font-size="14.00" fill="#666666">[text]</text>
<polygon fill="none" stroke="black" points="933.21,-104.8 933.21,-135.6 1267.13,-135.6 1267.13,-104.8 933.21,-104.8"/>
<text text-anchor="start" x="940.21" y="-117" font-family="Arial" font-size="14.00">nats_sequence_number </text>
<text text-anchor="start" x="1094.32" y="-117" font-family="Arial" font-size="14.00" fill="#666666">[bigint]</text>
</g>
<!-- public.checkup_jobs -->
<g id="node4" class="node">
<title>public.checkup_jobs</title>
<polygon fill="#efefef" stroke="none" points="1371.7,-459 1371.7,-494.6 1658.65,-494.6 1658.65,-459 1371.7,-459"/>
<polygon fill="none" stroke="black" points="1371.7,-459 1371.7,-494.6 1658.65,-494.6 1658.65,-459 1371.7,-459"/>
<text text-anchor="start" x="1378.7" y="-472.4" font-family="Arial Bold" font-size="18.00">public.checkup_jobs</text>
<text text-anchor="start" x="1527.16" y="-472.4" font-family="Arial" font-size="14.00">    </text>
<text text-anchor="start" x="1558.28" y="-472.4" font-family="Arial" font-size="14.00" fill="#666666">[BASE TABLE]</text>
<polygon fill="none" stroke="black" points="1371.7,-428.2 1371.7,-459 1658.65,-459 1658.65,-428.2 1371.7,-428.2"/>
<text text-anchor="start" x="1378.7" y="-440.4" font-family="Arial" font-size="14.00">id </text>
<text text-anchor="start" x="1393.48" y="-440.4" font-family="Arial" font-size="14.00" fill="#666666">[bigint]</text>
<polygon fill="none" stroke="black" points="1371.7,-397.4 1371.7,-428.2 1658.65,-428.2 1658.65,-397.4 1371.7,-397.4"/>
<text text-anchor="start" x="1378.7" y="-409.6" font-family="Arial" font-size="14.00">created_at </text>
<text text-anchor="start" x="1448.74" y="-409.6" font-family="Arial" font-size="14.00" fill="#666666">[timestamp with time zone]</text>
<polygon fill="none" stroke="black" points="1371.7,-366.6 1371.7,-397.4 1658.65,-397.4 1658.65,-366.6 1371.7,-366.6"/>
<text text-anchor="start" x="1378.7" y="-378.8" font-family="Arial" font-size="14.00">updated_at </text>
<text text-anchor="start" x="1452.65" y="-378.8" font-family="Arial" font-size="14.00" fill="#666666">[timestamp with time zone]</text>
<polygon fill="none" stroke="black" points="1371.7,-335.8 1371.7,-366.6 1658.65,-366.6 1658.65,-335.8 1371.7,-335.8"/>
<text text-anchor="start" x="1378.7" y="-348" font-family="Arial" font-size="14.00">deleted_at </text>
<text text-anchor="start" x="1447.98" y="-348" font-family="Arial" font-size="14.00" fill="#666666">[timestamp with time zone]</text>
<polygon fill="none" stroke="black" points="1371.7,-305 1371.7,-335.8 1658.65,-335.8 1658.65,-305 1371.7,-305"/>
<text text-anchor="start" x="1378.7" y="-317.2" font-family="Arial" font-size="14.00">status </text>
<text text-anchor="start" x="1419.94" y="-317.2" font-family="Arial" font-size="14.00" fill="#666666">[text]</text>
<polygon fill="none" stroke="black" points="1371.7,-274.2 1371.7,-305 1658.65,-305 1658.65,-274.2 1371.7,-274.2"/>
<text text-anchor="start" x="1378.7" y="-286.4" font-family="Arial" font-size="14.00">failure_message </text>
<text text-anchor="start" x="1485.31" y="-286.4" font-family="Arial" font-size="14.00" fill="#666666">[text]</text>
</g>
<!-- public.analytics_jobs -->
<g id="node5" class="node">
<title>public.analytics_jobs</title>
<polygon fill="#efefef" stroke="none" points="1762.69,-474.4 1762.69,-510 2053.65,-510 2053.65,-474.4 1762.69,-474.4"/>
<polygon fill="none" stroke="black" points="1762.69,-474.4 1762.69,-510 2053.65,-510 2053.65,-474.4 1762.69,-474.4"/>
<text text-anchor="start" x="1769.69" y="-487.8" font-family="Arial Bold" font-size="18.00">public.analytics_jobs</text>
<text text-anchor="start" x="1922.16" y="-487.8" font-family="Arial" font-size="14.00">    </text>
<text text-anchor="start" x="1953.28" y="-487.8" font-family="Arial" font-size="14.00" fill="#666666">[BASE TABLE]</text>
<polygon fill="none" stroke="black" points="1762.69,-443.6 1762.69,-474.4 2053.65,-474.4 2053.65,-443.6 1762.69,-443.6"/>
<text text-anchor="start" x="1769.69" y="-455.8" font-family="Arial" font-size="14.00">id </text>
<text text-anchor="start" x="1784.48" y="-455.8" font-family="Arial" font-size="14.00" fill="#666666">[bigint]</text>
<polygon fill="none" stroke="black" points="1762.69,-412.8 1762.69,-443.6 2053.65,-443.6 2053.65,-412.8 1762.69,-412.8"/>
<text text-anchor="start" x="1769.69" y="-425" font-family="Arial" font-size="14.00">created_at </text>
<text text-anchor="start" x="1839.74" y="-425" font-family="Arial" font-size="14.00" fill="#666666">[timestamp with time zone]</text>
<polygon fill="none" stroke="black" points="1762.69,-382 1762.69,-412.8 2053.65,-412.8 2053.65,-382 1762.69,-382"/>
<text text-anchor="start" x="1769.69" y="-394.2" font-family="Arial" font-size="14.00">updated_at </text>
<text text-anchor="start" x="1843.65" y="-394.2" font-family="Arial" font-size="14.00" fill="#666666">[timestamp with time zone]</text>
<polygon fill="none" stroke="black" points="1762.69,-351.2 1762.69,-382 2053.65,-382 2053.65,-351.2 1762.69,-351.2"/>
<text text-anchor="start" x="1769.69" y="-363.4" font-family="Arial" font-size="14.00">deleted_at </text>
<text text-anchor="start" x="1838.97" y="-363.4" font-family="Arial" font-size="14.00" fill="#666666">[timestamp with time zone]</text>
<polygon fill="none" stroke="black" points="1762.69,-320.4 1762.69,-351.2 2053.65,-351.2 2053.65,-320.4 1762.69,-320.4"/>
<text text-anchor="start" x="1769.69" y="-332.6" font-family="Arial" font-size="14.00">type </text>
<text text-anchor="start" x="1800.04" y="-332.6" font-family="Arial" font-size="14.00" fill="#666666">[text]</text>
<polygon fill="none" stroke="black" points="1762.69,-289.6 1762.69,-320.4 2053.65,-320.4 2053.65,-289.6 1762.69,-289.6"/>
<text text-anchor="start" x="1769.69" y="-301.8" font-family="Arial" font-size="14.00">status </text>
<text text-anchor="start" x="1810.93" y="-301.8" font-family="Arial" font-size="14.00" fill="#666666">[text]</text>
<polygon fill="none" stroke="black" points="1762.69,-258.8 1762.69,-289.6 2053.65,-289.6 2053.65,-258.8 1762.69,-258.8"/>
<text text-anchor="start" x="1769.69" y="-271" font-family="Arial" font-size="14.00">failure_message </text>
<text text-anchor="start" x="1876.31" y="-271" font-family="Arial" font-size="14.00" fill="#666666">[text]</text>
</g>
<!-- public.describe_connection_jobs -->
<g id="node6" class="node">
<title>public.describe_connection_jobs</title>
<polygon fill="#efefef" stroke="none" points="2157.71,-690 2157.71,-725.6 2532.64,-725.6 2532.64,-690 2157.71,-690"/>
<polygon fill="none" stroke="black" points="2157.71,-690 2157.71,-725.6 2532.64,-725.6 2532.64,-690 2157.71,-690"/>
<text text-anchor="start" x="2164.71" y="-703.4" font-family="Arial Bold" font-size="18.00">public.describe_connection_jobs</text>
<text text-anchor="start" x="2401.15" y="-703.4" font-family="Arial" font-size="14.00">    </text>
<text text-anchor="start" x="2432.26" y="-703.4" font-family="Arial" font-size="14.00" fill="#666666">[BASE TABLE]</text>
<polygon fill="none" stroke="black" points="2157.71,-659.2 2157.71,-690 2532.64,-690 2532.64,-659.2 2157.71,-659.2"/>
<text text-anchor="start" x="2164.71" y="-671.4" font-family="Arial" font-size="14.00">id </text>
<text text-anchor="start" x="2179.5" y="-671.4" font-family="Arial" font-size="14.00" fill="#666666">[bigint]</text>
<polygon fill="none" stroke="black" points="2157.71,-628.4 2157.71,-659.2 2532.64,-659.2 2532.64,-628.4 2157.71,-628.4"/>
<text text-anchor="start" x="2164.71" y="-640.6" font-family="Arial" font-size="14.00">created_at </text>
<text text-anchor="start" x="2234.76" y="-640.6" font-family="Arial" font-size="14.00" fill="#666666">[timestamp with time zone]</text>
<polygon fill="none" stroke="black" points="2157.71,-597.6 2157.71,-628.4 2532.64,-628.4 2532.64,-597.6 2157.71,-597.6"/>
<text text-anchor="start" x="2164.71" y="-609.8" font-family="Arial" font-size="14.00">updated_at </text>
<text text-anchor="start" x="2238.67" y="-609.8" font-family="Arial" font-size="14.00" fill="#666666">[timestamp with time zone]</text>
<polygon fill="none" stroke="black" points="2157.71,-566.8 2157.71,-597.6 2532.64,-597.6 2532.64,-566.8 2157.71,-566.8"/>
<text text-anchor="start" x="2164.71" y="-579" font-family="Arial" font-size="14.00">deleted_at </text>
<text text-anchor="start" x="2233.99" y="-579" font-family="Arial" font-size="14.00" fill="#666666">[timestamp with time zone]</text>
<polygon fill="none" stroke="black" points="2157.71,-536 2157.71,-566.8 2532.64,-566.8 2532.64,-536 2157.71,-536"/>
<text text-anchor="start" x="2164.71" y="-548.2" font-family="Arial" font-size="14.00">queued_at </text>
<text text-anchor="start" x="2234.78" y="-548.2" font-family="Arial" font-size="14.00" fill="#666666">[timestamp with time zone]</text>
<polygon fill="none" stroke="black" points="2157.71,-505.2 2157.71,-536 2532.64,-536 2532.64,-505.2 2157.71,-505.2"/>
<text text-anchor="start" x="2164.71" y="-517.4" font-family="Arial" font-size="14.00">in_progressed_at </text>
<text text-anchor="start" x="2276.79" y="-517.4" font-family="Arial" font-size="14.00" fill="#666666">[timestamp with time zone]</text>
<polygon fill="none" stroke="black" points="2157.71,-474.4 2157.71,-505.2 2532.64,-505.2 2532.64,-474.4 2157.71,-474.4"/>
<text text-anchor="start" x="2164.71" y="-486.6" font-family="Arial" font-size="14.00">created_by </text>
<text text-anchor="start" x="2237.87" y="-486.6" font-family="Arial" font-size="14.00" fill="#666666">[text]</text>
<polygon fill="none" stroke="black" points="2157.71,-443.6 2157.71,-474.4 2532.64,-474.4 2532.64,-443.6 2157.71,-443.6"/>
<text text-anchor="start" x="2164.71" y="-455.8" font-family="Arial" font-size="14.00">parent_id </text>
<text text-anchor="start" x="2226.98" y="-455.8" font-family="Arial" font-size="14.00" fill="#666666">[bigint]</text>
<polygon fill="none" stroke="black" points="2157.71,-412.8 2157.71,-443.6 2532.64,-443.6 2532.64,-412.8 2157.71,-412.8"/>
<text text-anchor="start" x="2164.71" y="-425" font-family="Arial" font-size="14.00">connection_id </text>
<text text-anchor="start" x="2255" y="-425" font-family="Arial" font-size="14.00" fill="#666666">[text]</text>
<polygon fill="none" stroke="black" points="2157.71,-382 2157.71,-412.8 2532.64,-412.8 2532.64,-382 2157.71,-382"/>
<text text-anchor="start" x="2164.71" y="-394.2" font-family="Arial" font-size="14.00">connector </text>
<text text-anchor="start" x="2230.08" y="-394.2" font-family="Arial" font-size="14.00" fill="#666666">[text]</text>
<polygon fill="none" stroke="black" points="2157.71,-351.2 2157.71,-382 2532.64,-382 2532.64,-351.2 2157.71,-351.2"/>
<text text-anchor="start" x="2164.71" y="-363.4" font-family="Arial" font-size="14.00">account_id </text>
<text text-anchor="start" x="2236.32" y="-363.4" font-family="Arial" font-size="14.00" fill="#666666">[text]</text>
<polygon fill="none" stroke="black" points="2157.71,-320.4 2157.71,-351.2 2532.64,-351.2 2532.64,-320.4 2157.71,-320.4"/>
<text text-anchor="start" x="2164.71" y="-332.6" font-family="Arial" font-size="14.00">trigger_type </text>
<text text-anchor="start" x="2242.53" y="-332.6" font-family="Arial" font-size="14.00" fill="#666666">[text]</text>
<polygon fill="none" stroke="black" points="2157.71,-289.6 2157.71,-320.4 2532.64,-320.4 2532.64,-289.6 2157.71,-289.6"/>
<text text-anchor="start" x="2164.71" y="-301.8" font-family="Arial" font-size="14.00">resource_type </text>
<text text-anchor="start" x="2257.32" y="-301.8" font-family="Arial" font-size="14.00" fill="#666666">[text]</text>
<polygon fill="none" stroke="black" points="2157.71,-258.8 2157.71,-289.6 2532.64,-289.6 2532.64,-258.8 2157.71,-258.8"/>
<text text-anchor="start" x="2164.71" y="-271" font-family="Arial" font-size="14.00">discovery_type </text>
<text text-anchor="start" x="2261.98" y="-271" font-family="Arial" font-size="14.00" fill="#666666">[text]</text>
<polygon fill="none" stroke="black" points="2157.71,-228 2157.71,-258.8 2532.64,-258.8 2532.64,-228 2157.71,-228"/>
<text text-anchor="start" x="2164.71" y="-240.2" font-family="Arial" font-size="14.00">status </text>
<text text-anchor="start" x="2205.95" y="-240.2" font-family="Arial" font-size="14.00" fill="#666666">[text]</text>
<polygon fill="none" stroke="black" points="2157.71,-197.2 2157.71,-228 2532.64,-228 2532.64,-197.2 2157.71,-197.2"/>
<text text-anchor="start" x="2164.71" y="-209.4" font-family="Arial" font-size="14.00">retry_count </text>
<text text-anchor="start" x="2238.64" y="-209.4" font-family="Arial" font-size="14.00" fill="#666666">[bigint]</text>
<polygon fill="none" stroke="black" points="2157.71,-166.4 2157.71,-197.2 2532.64,-197.2 2532.64,-166.4 2157.71,-166.4"/>
<text text-anchor="start" x="2164.71" y="-178.6" font-family="Arial" font-size="14.00">failure_message </text>
<text text-anchor="start" x="2271.32" y="-178.6" font-family="Arial" font-size="14.00" fill="#666666">[text]</text>
<polygon fill="none" stroke="black" points="2157.71,-135.6 2157.71,-166.4 2532.64,-166.4 2532.64,-135.6 2157.71,-135.6"/>
<text text-anchor="start" x="2164.71" y="-147.8" font-family="Arial" font-size="14.00">error_code </text>
<text text-anchor="start" x="2236.3" y="-147.8" font-family="Arial" font-size="14.00" fill="#666666">[text]</text>
<polygon fill="none" stroke="black" points="2157.71,-104.8 2157.71,-135.6 2532.64,-135.6 2532.64,-104.8 2157.71,-104.8"/>
<text text-anchor="start" x="2164.71" y="-117" font-family="Arial" font-size="14.00">described_resource_count </text>
<text text-anchor="start" x="2333.59" y="-117" font-family="Arial" font-size="14.00" fill="#666666">[bigint]</text>
<polygon fill="none" stroke="black" points="2157.71,-74 2157.71,-104.8 2532.64,-104.8 2532.64,-74 2157.71,-74"/>
<text text-anchor="start" x="2164.71" y="-86.2" font-family="Arial" font-size="14.00">deleting_count </text>
<text text-anchor="start" x="2259.68" y="-86.2" font-family="Arial" font-size="14.00" fill="#666666">[bigint]</text>
<polygon fill="none" stroke="black" points="2157.71,-43.2 2157.71,-74 2532.64,-74 2532.64,-43.2 2157.71,-43.2"/>
<text text-anchor="start" x="2164.71" y="-55.4" font-family="Arial" font-size="14.00">nats_sequence_number </text>
<text text-anchor="start" x="2318.82" y="-55.4" font-family="Arial" font-size="14.00" fill="#666666">[bigint]</text>
</g>
<!-- public.integration_discoveries -->
<g id="node7" class="node">
<title>public.integration_discoveries</title>
<polygon fill="#efefef" stroke="none" points="2637.21,-520.6 2637.21,-556.2 2993.14,-556.2 2993.14,-520.6 2637.21,-520.6"/>
<polygon fill="none" stroke="black" points="2637.21,-520.6 2637.21,-556.2 2993.14,-556.2 2993.14,-520.6 2637.21,-520.6"/>
<text text-anchor="start" x="2644.21" y="-534" font-family="Arial Bold" font-size="18.00">public.integration_discoveries</text>
<text text-anchor="start" x="2861.65" y="-534" font-family="Arial" font-size="14.00">    </text>
<text text-anchor="start" x="2892.77" y="-534" font-family="Arial" font-size="14.00" fill="#666666">[BASE TABLE]</text>
<polygon fill="none" stroke="black" points="2637.21,-489.8 2637.21,-520.6 2993.14,-520.6 2993.14,-489.8 2637.21,-489.8"/>
<text text-anchor="start" x="2644.21" y="-502" font-family="Arial" font-size="14.00">id </text>
<text text-anchor="start" x="2658.99" y="-502" font-family="Arial" font-size="14.00" fill="#666666">[bigint]</text>
<polygon fill="none" stroke="black" points="2637.21,-459 2637.21,-489.8 2993.14,-489.8 2993.14,-459 2637.21,-459"/>
<text text-anchor="start" x="2644.21" y="-471.2" font-family="Arial" font-size="14.00">created_at </text>
<text text-anchor="start" x="2714.26" y="-471.2" font-family="Arial" font-size="14.00" fill="#666666">[timestamp with time zone]</text>
<polygon fill="none" stroke="black" points="2637.21,-428.2 2637.21,-459 2993.14,-459 2993.14,-428.2 2637.21,-428.2"/>
<text text-anchor="start" x="2644.21" y="-440.4" font-family="Arial" font-size="14.00">updated_at </text>
<text text-anchor="start" x="2718.17" y="-440.4" font-family="Arial" font-size="14.00" fill="#666666">[timestamp with time zone]</text>
<polygon fill="none" stroke="black" points="2637.21,-397.4 2637.21,-428.2 2993.14,-428.2 2993.14,-397.4 2637.21,-397.4"/>
<text text-anchor="start" x="2644.21" y="-409.6" font-family="Arial" font-size="14.00">trigger_id </text>
<text text-anchor="start" x="2706.46" y="-409.6" font-family="Arial" font-size="14.00" fill="#666666">[bigint]</text>
<polygon fill="none" stroke="black" points="2637.21,-366.6 2637.21,-397.4 2993.14,-397.4 2993.14,-366.6 2637.21,-366.6"/>
<text text-anchor="start" x="2644.21" y="-378.8" font-family="Arial" font-size="14.00">connection_id </text>
<text text-anchor="start" x="2734.5" y="-378.8" font-family="Arial" font-size="14.00" fill="#666666">[text]</text>
<polygon fill="none" stroke="black" points="2637.21,-335.8 2637.21,-366.6 2993.14,-366.6 2993.14,-335.8 2637.21,-335.8"/>
<text text-anchor="start" x="2644.21" y="-348" font-family="Arial" font-size="14.00">account_id </text>
<text text-anchor="start" x="2715.81" y="-348" font-family="Arial" font-size="14.00" fill="#666666">[text]</text>
<polygon fill="none" stroke="black" points="2637.21,-305 2637.21,-335.8 2993.14,-335.8 2993.14,-305 2637.21,-305"/>
<text text-anchor="start" x="2644.21" y="-317.2" font-family="Arial" font-size="14.00">trigger_type </text>
<text text-anchor="start" x="2722.03" y="-317.2" font-family="Arial" font-size="14.00" fill="#666666">[text]</text>
<polygon fill="none" stroke="black" points="2637.21,-274.2 2637.21,-305 2993.14,-305 2993.14,-274.2 2637.21,-274.2"/>
<text text-anchor="start" x="2644.21" y="-286.4" font-family="Arial" font-size="14.00">triggered_by </text>
<text text-anchor="start" x="2725.92" y="-286.4" font-family="Arial" font-size="14.00" fill="#666666">[text]</text>
<polygon fill="none" stroke="black" points="2637.21,-243.4 2637.21,-274.2 2993.14,-274.2 2993.14,-243.4 2637.21,-243.4"/>
<text text-anchor="start" x="2644.21" y="-255.6" font-family="Arial" font-size="14.00">discovery_type </text>
<text text-anchor="start" x="2741.48" y="-255.6" font-family="Arial" font-size="14.00" fill="#666666">[text]</text>
<polygon fill="none" stroke="black" points="2637.21,-212.6 2637.21,-243.4 2993.14,-243.4 2993.14,-212.6 2637.21,-212.6"/>
<text text-anchor="start" x="2644.21" y="-224.8" font-family="Arial" font-size="14.00">resource_types </text>
<text text-anchor="start" x="2743.81" y="-224.8" font-family="Arial" font-size="14.00" fill="#666666">[text[]]</text>
</g>
<!-- public.job_sequencers -->
<g id="node8" class="node">
<title>public.job_sequencers</title>
<polygon fill="#efefef" stroke="none" points="3097.7,-520.6 3097.7,-556.2 3396.64,-556.2 3396.64,-520.6 3097.7,-520.6"/>
<polygon fill="none" stroke="black" points="3097.7,-520.6 3097.7,-556.2 3396.64,-556.2 3396.64,-520.6 3097.7,-520.6"/>
<text text-anchor="start" x="3104.7" y="-534" font-family="Arial Bold" font-size="18.00">public.job_sequencers</text>
<text text-anchor="start" x="3265.16" y="-534" font-family="Arial" font-size="14.00">    </text>
<text text-anchor="start" x="3296.27" y="-534" font-family="Arial" font-size="14.00" fill="#666666">[BASE TABLE]</text>
<polygon fill="none" stroke="black" points="3097.7,-489.8 3097.7,-520.6 3396.64,-520.6 3396.64,-489.8 3097.7,-489.8"/>
<text text-anchor="start" x="3104.7" y="-502" font-family="Arial" font-size="14.00">id </text>
<text text-anchor="start" x="3119.49" y="-502" font-family="Arial" font-size="14.00" fill="#666666">[bigint]</text>
<polygon fill="none" stroke="black" points="3097.7,-459 3097.7,-489.8 3396.64,-489.8 3396.64,-459 3097.7,-459"/>
<text text-anchor="start" x="3104.7" y="-471.2" font-family="Arial" font-size="14.00">created_at </text>
<text text-anchor="start" x="3174.75" y="-471.2" font-family="Arial" font-size="14.00" fill="#666666">[timestamp with time zone]</text>
<polygon fill="none" stroke="black" points="3097.7,-428.2 3097.7,-459 3396.64,-459 3396.64,-428.2 3097.7,-428.2"/>
<text text-anchor="start" x="3104.7" y="-440.4" font-family="Arial" font-size="14.00">updated_at </text>
<text text-anchor="start" x="3178.66" y="-440.4" font-family="Arial" font-size="14.00" fill="#666666">[timestamp with time zone]</text>
<polygon fill="none" stroke="black" points="3097.7,-397.4 3097.7,-428.2 3396.64,-428.2 3396.64,-397.4 3097.7,-397.4"/>
<text text-anchor="start" x="3104.7" y="-409.6" font-family="Arial" font-size="14.00">deleted_at </text>
<text text-anchor="start" x="3173.98" y="-409.6" font-family="Arial" font-size="14.00" fill="#666666">[timestamp with time zone]</text>
<polygon fill="none" stroke="black" points="3097.7,-366.6 3097.7,-397.4 3396.64,-397.4 3396.64,-366.6 3097.7,-366.6"/>
<text text-anchor="start" x="3104.7" y="-378.8" font-family="Arial" font-size="14.00">dependency_list </text>
<text text-anchor="start" x="3209.78" y="-378.8" font-family="Arial" font-size="14.00" fill="#666666">[bigint[]]</text>
<polygon fill="none" stroke="black" points="3097.7,-335.8 3097.7,-366.6 3396.64,-366.6 3396.64,-335.8 3097.7,-335.8"/>
<text text-anchor="start" x="3104.7" y="-348" font-family="Arial" font-size="14.00">dependency_source </text>
<text text-anchor="start" x="3234.69" y="-348" font-family="Arial" font-size="14.00" fill="#666666">[text]</text>
<polygon fill="none" stroke="black" points="3097.7,-305 3097.7,-335.8 3396.64,-335.8 3396.64,-305 3097.7,-305"/>
<text text-anchor="start" x="3104.7" y="-317.2" font-family="Arial" font-size="14.00">next_job </text>
<text text-anchor="start" x="3161.52" y="-317.2" font-family="Arial" font-size="14.00" fill="#666666">[text]</text>
<polygon fill="none" stroke="black" points="3097.7,-274.2 3097.7,-305 3396.64,-305 3396.64,-274.2 3097.7,-274.2"/>
<text text-anchor="start" x="3104.7" y="-286.4" font-family="Arial" font-size="14.00">next_job_parameters </text>
<text text-anchor="start" x="3240.12" y="-286.4" font-family="Arial" font-size="14.00" fill="#666666">[bytea]</text>
<polygon fill="none" stroke="black" points="3097.7,-243.4 3097.7,-274.2 3396.64,-274.2 3396.64,-243.4 3097.7,-243.4"/>
<text text-anchor="start" x="3104.7" y="-255.6" font-family="Arial" font-size="14.00">next_job_ids </text>
<text text-anchor="start" x="3187.2" y="-255.6" font-family="Arial" font-size="14.00" fill="#666666">[text]</text>
<polygon fill="none" stroke="black" points="3097.7,-212.6 3097.7,-243.4 3396.64,-243.4 3396.64,-212.6 3097.7,-212.6"/>
<text text-anchor="start" x="3104.7" y="-224.8" font-family="Arial" font-size="14.00">status </text>
<text text-anchor="start" x="3145.94" y="-224.8" font-family="Arial" font-size="14.00" fill="#666666">[text]</text>
</g>
<!-- public.query_runner_jobs -->
<g id="node9" class="node">
<title>public.query_runner_jobs</title>
<polygon fill="#efefef" stroke="none" points="3501.2,-520.6 3501.2,-556.2 3825.15,-556.2 3825.15,-520.6 3501.2,-520.6"/>
<polygon fill="none" stroke="black" points="3501.2,-520.6 3501.2,-556.2 3825.15,-556.2 3825.15,-520.6 3501.2,-520.6"/>
<text text-anchor="start" x="3508.2" y="-534" font-family="Arial Bold" font-size="18.00">public.query_runner_jobs</text>
<text text-anchor="start" x="3693.66" y="-534" font-family="Arial" font-size="14.00">    </text>
<text text-anchor="start" x="3724.77" y="-534" font-family="Arial" font-size="14.00" fill="#666666">[BASE TABLE]</text>
<polygon fill="none" stroke="black" points="3501.2,-489.8 3501.2,-520.6 3825.15,-520.6 3825.15,-489.8 3501.2,-489.8"/>
<text text-anchor="start" x="3508.2" y="-502" font-family="Arial" font-size="14.00">id </text>
<text text-anchor="start" x="3522.99" y="-502" font-family="Arial" font-size="14.00" fill="#666666">[bigint]</text>
<polygon fill="none" stroke="black" points="3501.2,-459 3501.2,-489.8 3825.15,-489.8 3825.15,-459 3501.2,-459"/>
<text text-anchor="start" x="3508.2" y="-471.2" font-family="Arial" font-size="14.00">created_at </text>
<text text-anchor="start" x="3578.25" y="-471.2" font-family="Arial" font-size="14.00" fill="#666666">[timestamp with time zone]</text>
<polygon fill="none" stroke="black" points="3501.2,-428.2 3501.2,-459 3825.15,-459 3825.15,-428.2 3501.2,-428.2"/>
<text text-anchor="start" x="3508.2" y="-440.4" font-family="Arial" font-size="14.00">updated_at </text>
<text text-anchor="start" x="3582.16" y="-440.4" font-family="Arial" font-size="14.00" fill="#666666">[timestamp with time zone]</text>
<polygon fill="none" stroke="black" points="3501.2,-397.4 3501.2,-428.2 3825.15,-428.2 3825.15,-397.4 3501.2,-397.4"/>
<text text-anchor="start" x="3508.2" y="-409.6" font-family="Arial" font-size="14.00">deleted_at </text>
<text text-anchor="start" x="3577.48" y="-409.6" font-family="Arial" font-size="14.00" fill="#666666">[timestamp with time zone]</text>
<polygon fill="none" stroke="black" points="3501.2,-366.6 3501.2,-397.4 3825.15,-397.4 3825.15,-366.6 3501.2,-366.6"/>
<text text-anchor="start" x="3508.2" y="-378.8" font-family="Arial" font-size="14.00">query_id </text>
<text text-anchor="start" x="3565.79" y="-378.8" font-family="Arial" font-size="14.00" fill="#666666">[text]</text>
<polygon fill="none" stroke="black" points="3501.2,-335.8 3501.2,-366.6 3825.15,-366.6 3825.15,-335.8 3501.2,-335.8"/>
<text text-anchor="start" x="3508.2" y="-348" font-family="Arial" font-size="14.00">created_by </text>
<text text-anchor="start" x="3581.36" y="-348" font-family="Arial" font-size="14.00" fill="#666666">[text]</text>
<polygon fill="none" stroke="black" points="3501.2,-305 3501.2,-335.8 3825.15,-335.8 3825.15,-305 3501.2,-305"/>
<text text-anchor="start" x="3508.2" y="-317.2" font-family="Arial" font-size="14.00">retry_count </text>
<text text-anchor="start" x="3582.12" y="-317.2" font-family="Arial" font-size="14.00" fill="#666666">[bigint]</text>
<polygon fill="none" stroke="black" points="3501.2,-274.2 3501.2,-305 3825.15,-305 3825.15,-274.2 3501.2,-274.2"/>
<text text-anchor="start" x="3508.2" y="-286.4" font-family="Arial" font-size="14.00">status </text>
<text text-anchor="start" x="3549.44" y="-286.4" font-family="Arial" font-size="14.00" fill="#666666">[text]</text>
<polygon fill="none" stroke="black" points="3501.2,-243.4 3501.2,-274.2 3825.15,-274.2 3825.15,-243.4 3501.2,-243.4"/>
<text text-anchor="start" x="3508.2" y="-255.6" font-family="Arial" font-size="14.00">failure_message </text>
<text text-anchor="start" x="3614.81" y="-255.6" font-family="Arial" font-size="14.00" fill="#666666">[text]</text>
<polygon fill="none" stroke="black" points="3501.2,-212.6 3501.2,-243.4 3825.15,-243.4 3825.15,-212.6 3501.2,-212.6"/>
<text text-anchor="start" x="3508.2" y="-224.8" font-family="Arial" font-size="14.00">nats_sequence_number </text>
<text text-anchor="start" x="3662.31" y="-224.8" font-family="Arial" font-size="14.00" fill="#666666">[bigint]</text>
</g>
</g>
</svg>
