<?xml version="1.0" encoding="UTF-8" standalone="no"?>
<!DOCTYPE svg PUBLIC "-//W3C//DTD SVG 1.1//EN"
 "http://www.w3.org/Graphics/SVG/1.1/DTD/svg11.dtd">
<!-- Generated by graphviz version 12.1.2 (20240928.0832)
 -->
<!-- Title: public.connector Pages: 1 -->
<svg width="359pt" height="290pt"
 viewBox="0.00 0.00 359.34 290.00" xmlns="http://www.w3.org/2000/svg" xmlns:xlink="http://www.w3.org/1999/xlink">
<g id="graph0" class="graph" transform="scale(1 1) rotate(0) translate(4 286)">
<title>public.connector</title>
<polygon fill="white" stroke="none" points="-4,4 -4,-286 355.34,-286 355.34,4 -4,4"/>
<!-- public.connector -->
<g id="node1" class="node">
<title>public.connector</title>
<polygon fill="#efefef" stroke="none" points="46.2,-200.2 46.2,-235.8 305.14,-235.8 305.14,-200.2 46.2,-200.2"/>
<polygon fill="none" stroke="black" points="46.2,-200.2 46.2,-235.8 305.14,-235.8 305.14,-200.2 46.2,-200.2"/>
<text text-anchor="start" x="53.2" y="-213.6" font-family="Arial Bold" font-size="18.00">public.connector</text>
<text text-anchor="start" x="173.65" y="-213.6" font-family="Arial" font-size="14.00">    </text>
<text text-anchor="start" x="204.77" y="-213.6" font-family="Arial" font-size="14.00" fill="#666666">[BASE TABLE]</text>
<polygon fill="none" stroke="black" points="46.2,-169.4 46.2,-200.2 305.14,-200.2 305.14,-169.4 46.2,-169.4"/>
<text text-anchor="start" x="53.2" y="-181.6" font-family="Arial" font-size="14.00">id </text>
<text text-anchor="start" x="67.99" y="-181.6" font-family="Arial" font-size="14.00" fill="#666666">[text]</text>
<polygon fill="none" stroke="black" points="46.2,-138.6 46.2,-169.4 305.14,-169.4 305.14,-138.6 46.2,-138.6"/>
<text text-anchor="start" x="53.2" y="-150.8" font-family="Arial" font-size="14.00">type </text>
<text text-anchor="start" x="83.55" y="-150.8" font-family="Arial" font-size="14.00" fill="#666666">[text]</text>
<polygon fill="none" stroke="black" points="46.2,-107.8 46.2,-138.6 305.14,-138.6 305.14,-107.8 46.2,-107.8"/>
<text text-anchor="start" x="53.2" y="-120" font-family="Arial" font-size="14.00">name </text>
<text text-anchor="start" x="92.11" y="-120" font-family="Arial" font-size="14.00" fill="#666666">[text]</text>
<polygon fill="none" stroke="black" points="46.2,-77 46.2,-107.8 305.14,-107.8 305.14,-77 46.2,-77"/>
<text text-anchor="start" x="53.2" y="-89.2" font-family="Arial" font-size="14.00">resource_version </text>
<text text-anchor="start" x="164.48" y="-89.2" font-family="Arial" font-size="14.00" fill="#666666">[text]</text>
<polygon fill="none" stroke="black" points="46.2,-46.2 46.2,-77 305.14,-77 305.14,-46.2 46.2,-46.2"/>
<text text-anchor="start" x="53.2" y="-58.4" font-family="Arial" font-size="14.00">config </text>
<text text-anchor="start" x="94.45" y="-58.4" font-family="Arial" font-size="14.00" fill="#666666">[bytea]</text>
<polygon fill="none" stroke="black" stroke-width="3" points="44.7,-44.7 44.7,-237.3 306.64,-237.3 306.64,-44.7 44.7,-44.7"/>
</g>
</g>
</svg>
