<?xml version="1.0" encoding="UTF-8" standalone="no"?>
<!DOCTYPE svg PUBLIC "-//W3C//DTD SVG 1.1//EN"
 "http://www.w3.org/Graphics/SVG/1.1/DTD/svg11.dtd">
<!-- Generated by graphviz version 12.1.2 (20240928.0832)
 -->
<!-- Title: public.device_token Pages: 1 -->
<svg width="384pt" height="382pt"
 viewBox="0.00 0.00 384.34 382.40" xmlns="http://www.w3.org/2000/svg" xmlns:xlink="http://www.w3.org/1999/xlink">
<g id="graph0" class="graph" transform="scale(1 1) rotate(0) translate(4 378.4)">
<title>public.device_token</title>
<polygon fill="white" stroke="none" points="-4,4 -4,-378.4 380.34,-378.4 380.34,4 -4,4"/>
<!-- public.device_token -->
<g id="node1" class="node">
<title>public.device_token</title>
<polygon fill="#efefef" stroke="none" points="46.2,-292.6 46.2,-328.2 330.14,-328.2 330.14,-292.6 46.2,-292.6"/>
<polygon fill="none" stroke="black" points="46.2,-292.6 46.2,-328.2 330.14,-328.2 330.14,-292.6 46.2,-292.6"/>
<text text-anchor="start" x="53.2" y="-306" font-family="Arial Bold" font-size="18.00">public.device_token</text>
<text text-anchor="start" x="198.65" y="-306" font-family="Arial" font-size="14.00">    </text>
<text text-anchor="start" x="229.77" y="-306" font-family="Arial" font-size="14.00" fill="#666666">[BASE TABLE]</text>
<polygon fill="none" stroke="black" points="46.2,-261.8 46.2,-292.6 330.14,-292.6 330.14,-261.8 46.2,-261.8"/>
<text text-anchor="start" x="53.2" y="-274" font-family="Arial" font-size="14.00">device_code </text>
<text text-anchor="start" x="135.7" y="-274" font-family="Arial" font-size="14.00" fill="#666666">[text]</text>
<polygon fill="none" stroke="black" points="46.2,-231 46.2,-261.8 330.14,-261.8 330.14,-231 46.2,-231"/>
<text text-anchor="start" x="53.2" y="-243.2" font-family="Arial" font-size="14.00">status </text>
<text text-anchor="start" x="94.44" y="-243.2" font-family="Arial" font-size="14.00" fill="#666666">[text]</text>
<polygon fill="none" stroke="black" points="46.2,-200.2 46.2,-231 330.14,-231 330.14,-200.2 46.2,-200.2"/>
<text text-anchor="start" x="53.2" y="-212.4" font-family="Arial" font-size="14.00">token </text>
<text text-anchor="start" x="91.34" y="-212.4" font-family="Arial" font-size="14.00" fill="#666666">[bytea]</text>
<polygon fill="none" stroke="black" points="46.2,-169.4 46.2,-200.2 330.14,-200.2 330.14,-169.4 46.2,-169.4"/>
<text text-anchor="start" x="53.2" y="-181.6" font-family="Arial" font-size="14.00">expiry </text>
<text text-anchor="start" x="94.43" y="-181.6" font-family="Arial" font-size="14.00" fill="#666666">[timestamp with time zone]</text>
<polygon fill="none" stroke="black" points="46.2,-138.6 46.2,-169.4 330.14,-169.4 330.14,-138.6 46.2,-138.6"/>
<text text-anchor="start" x="53.2" y="-150.8" font-family="Arial" font-size="14.00">last_request </text>
<text text-anchor="start" x="133.36" y="-150.8" font-family="Arial" font-size="14.00" fill="#666666">[timestamp with time zone]</text>
<polygon fill="none" stroke="black" points="46.2,-107.8 46.2,-138.6 330.14,-138.6 330.14,-107.8 46.2,-107.8"/>
<text text-anchor="start" x="53.2" y="-120" font-family="Arial" font-size="14.00">poll_interval </text>
<text text-anchor="start" x="131.8" y="-120" font-family="Arial" font-size="14.00" fill="#666666">[integer]</text>
<polygon fill="none" stroke="black" points="46.2,-77 46.2,-107.8 330.14,-107.8 330.14,-77 46.2,-77"/>
<text text-anchor="start" x="53.2" y="-89.2" font-family="Arial" font-size="14.00">code_challenge </text>
<text text-anchor="start" x="155.17" y="-89.2" font-family="Arial" font-size="14.00" fill="#666666">[text]</text>
<polygon fill="none" stroke="black" points="46.2,-46.2 46.2,-77 330.14,-77 330.14,-46.2 46.2,-46.2"/>
<text text-anchor="start" x="53.2" y="-58.4" font-family="Arial" font-size="14.00">code_challenge_method </text>
<text text-anchor="start" x="209.65" y="-58.4" font-family="Arial" font-size="14.00" fill="#666666">[text]</text>
<polygon fill="none" stroke="black" stroke-width="3" points="44.7,-44.7 44.7,-329.7 331.64,-329.7 331.64,-44.7 44.7,-44.7"/>
</g>
</g>
</svg>
