<?xml version="1.0" encoding="UTF-8" standalone="no"?>
<!DOCTYPE svg PUBLIC "-//W3C//DTD SVG 1.1//EN"
 "http://www.w3.org/Graphics/SVG/1.1/DTD/svg11.dtd">
<!-- Generated by graphviz version 12.1.2 (20240928.0832)
 -->
<!-- Title: public.device_request Pages: 1 -->
<svg width="396pt" height="321pt"
 viewBox="0.00 0.00 396.33 320.80" xmlns="http://www.w3.org/2000/svg" xmlns:xlink="http://www.w3.org/1999/xlink">
<g id="graph0" class="graph" transform="scale(1 1) rotate(0) translate(4 316.8)">
<title>public.device_request</title>
<polygon fill="white" stroke="none" points="-4,4 -4,-316.8 392.33,-316.8 392.33,4 -4,4"/>
<!-- public.device_request -->
<g id="node1" class="node">
<title>public.device_request</title>
<polygon fill="#efefef" stroke="none" points="46.2,-231 46.2,-266.6 342.13,-266.6 342.13,-231 46.2,-231"/>
<polygon fill="none" stroke="black" points="46.2,-231 46.2,-266.6 342.13,-266.6 342.13,-231 46.2,-231"/>
<text text-anchor="start" x="53.2" y="-244.4" font-family="Arial Bold" font-size="18.00">public.device_request</text>
<text text-anchor="start" x="210.64" y="-244.4" font-family="Arial" font-size="14.00">    </text>
<text text-anchor="start" x="241.76" y="-244.4" font-family="Arial" font-size="14.00" fill="#666666">[BASE TABLE]</text>
<polygon fill="none" stroke="black" points="46.2,-200.2 46.2,-231 342.13,-231 342.13,-200.2 46.2,-200.2"/>
<text text-anchor="start" x="53.2" y="-212.4" font-family="Arial" font-size="14.00">user_code </text>
<text text-anchor="start" x="122.47" y="-212.4" font-family="Arial" font-size="14.00" fill="#666666">[text]</text>
<polygon fill="none" stroke="black" points="46.2,-169.4 46.2,-200.2 342.13,-200.2 342.13,-169.4 46.2,-169.4"/>
<text text-anchor="start" x="53.2" y="-181.6" font-family="Arial" font-size="14.00">device_code </text>
<text text-anchor="start" x="135.7" y="-181.6" font-family="Arial" font-size="14.00" fill="#666666">[text]</text>
<polygon fill="none" stroke="black" points="46.2,-138.6 46.2,-169.4 342.13,-169.4 342.13,-138.6 46.2,-138.6"/>
<text text-anchor="start" x="53.2" y="-150.8" font-family="Arial" font-size="14.00">client_id </text>
<text text-anchor="start" x="108.45" y="-150.8" font-family="Arial" font-size="14.00" fill="#666666">[text]</text>
<polygon fill="none" stroke="black" points="46.2,-107.8 46.2,-138.6 342.13,-138.6 342.13,-107.8 46.2,-107.8"/>
<text text-anchor="start" x="53.2" y="-120" font-family="Arial" font-size="14.00">client_secret </text>
<text text-anchor="start" x="135.68" y="-120" font-family="Arial" font-size="14.00" fill="#666666">[text]</text>
<polygon fill="none" stroke="black" points="46.2,-77 46.2,-107.8 342.13,-107.8 342.13,-77 46.2,-77"/>
<text text-anchor="start" x="53.2" y="-89.2" font-family="Arial" font-size="14.00">scopes </text>
<text text-anchor="start" x="101.45" y="-89.2" font-family="Arial" font-size="14.00" fill="#666666">[bytea]</text>
<polygon fill="none" stroke="black" points="46.2,-46.2 46.2,-77 342.13,-77 342.13,-46.2 46.2,-46.2"/>
<text text-anchor="start" x="53.2" y="-58.4" font-family="Arial" font-size="14.00">expiry </text>
<text text-anchor="start" x="94.43" y="-58.4" font-family="Arial" font-size="14.00" fill="#666666">[timestamp with time zone]</text>
<polygon fill="none" stroke="black" stroke-width="3" points="44.7,-44.7 44.7,-268.1 343.63,-268.1 343.63,-44.7 44.7,-44.7"/>
</g>
</g>
</svg>
