<?xml version="1.0" encoding="UTF-8" standalone="no"?>
<!DOCTYPE svg PUBLIC "-//W3C//DTD SVG 1.1//EN"
 "http://www.w3.org/Graphics/SVG/1.1/DTD/svg11.dtd">
<!-- Generated by graphviz version 12.1.2 (20240928.0832)
 -->
<!-- Title: public.migrations Pages: 1 -->
<svg width="365pt" height="198pt"
 viewBox="0.00 0.00 365.37 197.60" xmlns="http://www.w3.org/2000/svg" xmlns:xlink="http://www.w3.org/1999/xlink">
<g id="graph0" class="graph" transform="scale(1 1) rotate(0) translate(4 193.6)">
<title>public.migrations</title>
<polygon fill="white" stroke="none" points="-4,4 -4,-193.6 361.37,-193.6 361.37,4 -4,4"/>
<!-- public.migrations -->
<g id="node1" class="node">
<title>public.migrations</title>
<polygon fill="#efefef" stroke="none" points="46.2,-107.8 46.2,-143.4 311.17,-143.4 311.17,-107.8 46.2,-107.8"/>
<polygon fill="none" stroke="black" points="46.2,-107.8 46.2,-143.4 311.17,-143.4 311.17,-107.8 46.2,-107.8"/>
<text text-anchor="start" x="53.2" y="-121.2" font-family="Arial Bold" font-size="18.00">public.migrations</text>
<text text-anchor="start" x="179.68" y="-121.2" font-family="Arial" font-size="14.00">    </text>
<text text-anchor="start" x="210.8" y="-121.2" font-family="Arial" font-size="14.00" fill="#666666">[BASE TABLE]</text>
<polygon fill="none" stroke="black" points="46.2,-77 46.2,-107.8 311.17,-107.8 311.17,-77 46.2,-77"/>
<text text-anchor="start" x="53.2" y="-89.2" font-family="Arial" font-size="14.00">num </text>
<text text-anchor="start" x="84.32" y="-89.2" font-family="Arial" font-size="14.00" fill="#666666">[integer]</text>
<polygon fill="none" stroke="black" points="46.2,-46.2 46.2,-77 311.17,-77 311.17,-46.2 46.2,-46.2"/>
<text text-anchor="start" x="53.2" y="-58.4" font-family="Arial" font-size="14.00">at </text>
<text text-anchor="start" x="68.77" y="-58.4" font-family="Arial" font-size="14.00" fill="#666666">[timestamp with time zone]</text>
<polygon fill="none" stroke="black" stroke-width="3" points="44.7,-44.7 44.7,-144.9 312.67,-144.9 312.67,-44.7 44.7,-44.7"/>
</g>
</g>
</svg>
