<?xml version="1.0" encoding="UTF-8" standalone="no"?>
<!DOCTYPE svg PUBLIC "-//W3C//DTD SVG 1.1//EN"
 "http://www.w3.org/Graphics/SVG/1.1/DTD/svg11.dtd">
<!-- Generated by graphviz version 12.1.2 (20240928.0832)
 -->
<!-- Title: public.offline_session Pages: 1 -->
<svg width="397pt" height="259pt"
 viewBox="0.00 0.00 397.36 259.20" xmlns="http://www.w3.org/2000/svg" xmlns:xlink="http://www.w3.org/1999/xlink">
<g id="graph0" class="graph" transform="scale(1 1) rotate(0) translate(4 255.2)">
<title>public.offline_session</title>
<polygon fill="white" stroke="none" points="-4,4 -4,-255.2 393.36,-255.2 393.36,4 -4,4"/>
<!-- public.offline_session -->
<g id="node1" class="node">
<title>public.offline_session</title>
<polygon fill="#efefef" stroke="none" points="46.2,-169.4 46.2,-205 343.16,-205 343.16,-169.4 46.2,-169.4"/>
<polygon fill="none" stroke="black" points="46.2,-169.4 46.2,-205 343.16,-205 343.16,-169.4 46.2,-169.4"/>
<text text-anchor="start" x="53.2" y="-182.8" font-family="Arial Bold" font-size="18.00">public.offline_session</text>
<text text-anchor="start" x="211.68" y="-182.8" font-family="Arial" font-size="14.00">    </text>
<text text-anchor="start" x="242.79" y="-182.8" font-family="Arial" font-size="14.00" fill="#666666">[BASE TABLE]</text>
<polygon fill="none" stroke="black" points="46.2,-138.6 46.2,-169.4 343.16,-169.4 343.16,-138.6 46.2,-138.6"/>
<text text-anchor="start" x="53.2" y="-150.8" font-family="Arial" font-size="14.00">user_id </text>
<text text-anchor="start" x="103.01" y="-150.8" font-family="Arial" font-size="14.00" fill="#666666">[text]</text>
<polygon fill="none" stroke="black" points="46.2,-107.8 46.2,-138.6 343.16,-138.6 343.16,-107.8 46.2,-107.8"/>
<text text-anchor="start" x="53.2" y="-120" font-family="Arial" font-size="14.00">conn_id </text>
<text text-anchor="start" x="106.13" y="-120" font-family="Arial" font-size="14.00" fill="#666666">[text]</text>
<polygon fill="none" stroke="black" points="46.2,-77 46.2,-107.8 343.16,-107.8 343.16,-77 46.2,-77"/>
<text text-anchor="start" x="53.2" y="-89.2" font-family="Arial" font-size="14.00">refresh </text>
<text text-anchor="start" x="100.66" y="-89.2" font-family="Arial" font-size="14.00" fill="#666666">[bytea]</text>
<polygon fill="none" stroke="black" points="46.2,-46.2 46.2,-77 343.16,-77 343.16,-46.2 46.2,-46.2"/>
<text text-anchor="start" x="53.2" y="-58.4" font-family="Arial" font-size="14.00">connector_data </text>
<text text-anchor="start" x="153.61" y="-58.4" font-family="Arial" font-size="14.00" fill="#666666">[bytea]</text>
<polygon fill="none" stroke="black" stroke-width="3" points="44.7,-44.7 44.7,-206.5 344.66,-206.5 344.66,-44.7 44.7,-44.7"/>
</g>
</g>
</svg>
