<?xml version="1.0" encoding="UTF-8" standalone="no"?>
<!DOCTYPE svg PUBLIC "-//W3C//DTD SVG 1.1//EN"
 "http://www.w3.org/Graphics/SVG/1.1/DTD/svg11.dtd">
<!-- Generated by graphviz version 12.1.2 (20240928.0832)
 -->
<!-- Title: dex Pages: 1 -->
<svg width="4116pt" height="777pt"
 viewBox="0.00 0.00 4115.86 776.80" xmlns="http://www.w3.org/2000/svg" xmlns:xlink="http://www.w3.org/1999/xlink">
<g id="graph0" class="graph" transform="scale(1 1) rotate(0) translate(4 772.8)">
<title>dex</title>
<polygon fill="white" stroke="none" points="-4,4 -4,-772.8 4111.86,-772.8 4111.86,4 -4,4"/>
<!-- public.migrations -->
<g id="node1" class="node">
<title>public.migrations</title>
<polygon fill="#efefef" stroke="none" points="43.2,-397.4 43.2,-433 308.17,-433 308.17,-397.4 43.2,-397.4"/>
<polygon fill="none" stroke="black" points="43.2,-397.4 43.2,-433 308.17,-433 308.17,-397.4 43.2,-397.4"/>
<text text-anchor="start" x="50.2" y="-410.8" font-family="Arial Bold" font-size="18.00">public.migrations</text>
<text text-anchor="start" x="176.68" y="-410.8" font-family="Arial" font-size="14.00">    </text>
<text text-anchor="start" x="207.8" y="-410.8" font-family="Arial" font-size="14.00" fill="#666666">[BASE TABLE]</text>
<polygon fill="none" stroke="black" points="43.2,-366.6 43.2,-397.4 308.17,-397.4 308.17,-366.6 43.2,-366.6"/>
<text text-anchor="start" x="50.2" y="-378.8" font-family="Arial" font-size="14.00">num </text>
<text text-anchor="start" x="81.32" y="-378.8" font-family="Arial" font-size="14.00" fill="#666666">[integer]</text>
<polygon fill="none" stroke="black" points="43.2,-335.8 43.2,-366.6 308.17,-366.6 308.17,-335.8 43.2,-335.8"/>
<text text-anchor="start" x="50.2" y="-348" font-family="Arial" font-size="14.00">at </text>
<text text-anchor="start" x="65.77" y="-348" font-family="Arial" font-size="14.00" fill="#666666">[timestamp with time zone]</text>
</g>
<!-- public.client -->
<g id="node2" class="node">
<title>public.client</title>
<polygon fill="#efefef" stroke="none" points="412.71,-474.4 412.71,-510 640.67,-510 640.67,-474.4 412.71,-474.4"/>
<polygon fill="none" stroke="black" points="412.71,-474.4 412.71,-510 640.67,-510 640.67,-474.4 412.71,-474.4"/>
<text text-anchor="start" x="419.71" y="-487.8" font-family="Arial Bold" font-size="18.00">public.client</text>
<text text-anchor="start" x="509.18" y="-487.8" font-family="Arial" font-size="14.00">    </text>
<text text-anchor="start" x="540.3" y="-487.8" font-family="Arial" font-size="14.00" fill="#666666">[BASE TABLE]</text>
<polygon fill="none" stroke="black" points="412.71,-443.6 412.71,-474.4 640.67,-474.4 640.67,-443.6 412.71,-443.6"/>
<text text-anchor="start" x="419.71" y="-455.8" font-family="Arial" font-size="14.00">id </text>
<text text-anchor="start" x="434.49" y="-455.8" font-family="Arial" font-size="14.00" fill="#666666">[text]</text>
<polygon fill="none" stroke="black" points="412.71,-412.8 412.71,-443.6 640.67,-443.6 640.67,-412.8 412.71,-412.8"/>
<text text-anchor="start" x="419.71" y="-425" font-family="Arial" font-size="14.00">secret </text>
<text text-anchor="start" x="461.72" y="-425" font-family="Arial" font-size="14.00" fill="#666666">[text]</text>
<polygon fill="none" stroke="black" points="412.71,-382 412.71,-412.8 640.67,-412.8 640.67,-382 412.71,-382"/>
<text text-anchor="start" x="419.71" y="-394.2" font-family="Arial" font-size="14.00">redirect_uris </text>
<text text-anchor="start" x="500.62" y="-394.2" font-family="Arial" font-size="14.00" fill="#666666">[bytea]</text>
<polygon fill="none" stroke="black" points="412.71,-351.2 412.71,-382 640.67,-382 640.67,-351.2 412.71,-351.2"/>
<text text-anchor="start" x="419.71" y="-363.4" font-family="Arial" font-size="14.00">trusted_peers </text>
<text text-anchor="start" x="509.2" y="-363.4" font-family="Arial" font-size="14.00" fill="#666666">[bytea]</text>
<polygon fill="none" stroke="black" points="412.71,-320.4 412.71,-351.2 640.67,-351.2 640.67,-320.4 412.71,-320.4"/>
<text text-anchor="start" x="419.71" y="-332.6" font-family="Arial" font-size="14.00">public </text>
<text text-anchor="start" x="460.17" y="-332.6" font-family="Arial" font-size="14.00" fill="#666666">[boolean]</text>
<polygon fill="none" stroke="black" points="412.71,-289.6 412.71,-320.4 640.67,-320.4 640.67,-289.6 412.71,-289.6"/>
<text text-anchor="start" x="419.71" y="-301.8" font-family="Arial" font-size="14.00">name </text>
<text text-anchor="start" x="458.62" y="-301.8" font-family="Arial" font-size="14.00" fill="#666666">[text]</text>
<polygon fill="none" stroke="black" points="412.71,-258.8 412.71,-289.6 640.67,-289.6 640.67,-258.8 412.71,-258.8"/>
<text text-anchor="start" x="419.71" y="-271" font-family="Arial" font-size="14.00">logo_url </text>
<text text-anchor="start" x="473.41" y="-271" font-family="Arial" font-size="14.00" fill="#666666">[text]</text>
</g>
<!-- public.auth_request -->
<g id="node3" class="node">
<title>public.auth_request</title>
<polygon fill="#efefef" stroke="none" points="744.71,-690 744.71,-725.6 1024.66,-725.6 1024.66,-690 744.71,-690"/>
<polygon fill="none" stroke="black" points="744.71,-690 744.71,-725.6 1024.66,-725.6 1024.66,-690 744.71,-690"/>
<text text-anchor="start" x="751.71" y="-703.4" font-family="Arial Bold" font-size="18.00">public.auth_request</text>
<text text-anchor="start" x="893.17" y="-703.4" font-family="Arial" font-size="14.00">    </text>
<text text-anchor="start" x="924.29" y="-703.4" font-family="Arial" font-size="14.00" fill="#666666">[BASE TABLE]</text>
<polygon fill="none" stroke="black" points="744.71,-659.2 744.71,-690 1024.66,-690 1024.66,-659.2 744.71,-659.2"/>
<text text-anchor="start" x="751.71" y="-671.4" font-family="Arial" font-size="14.00">id </text>
<text text-anchor="start" x="766.5" y="-671.4" font-family="Arial" font-size="14.00" fill="#666666">[text]</text>
<polygon fill="none" stroke="black" points="744.71,-628.4 744.71,-659.2 1024.66,-659.2 1024.66,-628.4 744.71,-628.4"/>
<text text-anchor="start" x="751.71" y="-640.6" font-family="Arial" font-size="14.00">client_id </text>
<text text-anchor="start" x="806.97" y="-640.6" font-family="Arial" font-size="14.00" fill="#666666">[text]</text>
<polygon fill="none" stroke="black" points="744.71,-597.6 744.71,-628.4 1024.66,-628.4 1024.66,-597.6 744.71,-597.6"/>
<text text-anchor="start" x="751.71" y="-609.8" font-family="Arial" font-size="14.00">response_types </text>
<text text-anchor="start" x="854.44" y="-609.8" font-family="Arial" font-size="14.00" fill="#666666">[bytea]</text>
<polygon fill="none" stroke="black" points="744.71,-566.8 744.71,-597.6 1024.66,-597.6 1024.66,-566.8 744.71,-566.8"/>
<text text-anchor="start" x="751.71" y="-579" font-family="Arial" font-size="14.00">scopes </text>
<text text-anchor="start" x="799.96" y="-579" font-family="Arial" font-size="14.00" fill="#666666">[bytea]</text>
<polygon fill="none" stroke="black" points="744.71,-536 744.71,-566.8 1024.66,-566.8 1024.66,-536 744.71,-536"/>
<text text-anchor="start" x="751.71" y="-548.2" font-family="Arial" font-size="14.00">redirect_uri </text>
<text text-anchor="start" x="825.63" y="-548.2" font-family="Arial" font-size="14.00" fill="#666666">[text]</text>
<polygon fill="none" stroke="black" points="744.71,-505.2 744.71,-536 1024.66,-536 1024.66,-505.2 744.71,-505.2"/>
<text text-anchor="start" x="751.71" y="-517.4" font-family="Arial" font-size="14.00">nonce </text>
<text text-anchor="start" x="793.75" y="-517.4" font-family="Arial" font-size="14.00" fill="#666666">[text]</text>
<polygon fill="none" stroke="black" points="744.71,-474.4 744.71,-505.2 1024.66,-505.2 1024.66,-474.4 744.71,-474.4"/>
<text text-anchor="start" x="751.71" y="-486.6" font-family="Arial" font-size="14.00">state </text>
<text text-anchor="start" x="785.95" y="-486.6" font-family="Arial" font-size="14.00" fill="#666666">[text]</text>
<polygon fill="none" stroke="black" points="744.71,-443.6 744.71,-474.4 1024.66,-474.4 1024.66,-443.6 744.71,-443.6"/>
<text text-anchor="start" x="751.71" y="-455.8" font-family="Arial" font-size="14.00">force_approval_prompt </text>
<text text-anchor="start" x="899.57" y="-455.8" font-family="Arial" font-size="14.00" fill="#666666">[boolean]</text>
<polygon fill="none" stroke="black" points="744.71,-412.8 744.71,-443.6 1024.66,-443.6 1024.66,-412.8 744.71,-412.8"/>
<text text-anchor="start" x="751.71" y="-425" font-family="Arial" font-size="14.00">logged_in </text>
<text text-anchor="start" x="816.33" y="-425" font-family="Arial" font-size="14.00" fill="#666666">[boolean]</text>
<polygon fill="none" stroke="black" points="744.71,-382 744.71,-412.8 1024.66,-412.8 1024.66,-382 744.71,-382"/>
<text text-anchor="start" x="751.71" y="-394.2" font-family="Arial" font-size="14.00">claims_user_id </text>
<text text-anchor="start" x="848.97" y="-394.2" font-family="Arial" font-size="14.00" fill="#666666">[text]</text>
<polygon fill="none" stroke="black" points="744.71,-351.2 744.71,-382 1024.66,-382 1024.66,-351.2 744.71,-351.2"/>
<text text-anchor="start" x="751.71" y="-363.4" font-family="Arial" font-size="14.00">claims_username </text>
<text text-anchor="start" x="865.31" y="-363.4" font-family="Arial" font-size="14.00" fill="#666666">[text]</text>
<polygon fill="none" stroke="black" points="744.71,-320.4 744.71,-351.2 1024.66,-351.2 1024.66,-320.4 744.71,-320.4"/>
<text text-anchor="start" x="751.71" y="-332.6" font-family="Arial" font-size="14.00">claims_email </text>
<text text-anchor="start" x="836.51" y="-332.6" font-family="Arial" font-size="14.00" fill="#666666">[text]</text>
<polygon fill="none" stroke="black" points="744.71,-289.6 744.71,-320.4 1024.66,-320.4 1024.66,-289.6 744.71,-289.6"/>
<text text-anchor="start" x="751.71" y="-301.8" font-family="Arial" font-size="14.00">claims_email_verified </text>
<text text-anchor="start" x="889.43" y="-301.8" font-family="Arial" font-size="14.00" fill="#666666">[boolean]</text>
<polygon fill="none" stroke="black" points="744.71,-258.8 744.71,-289.6 1024.66,-289.6 1024.66,-258.8 744.71,-258.8"/>
<text text-anchor="start" x="751.71" y="-271" font-family="Arial" font-size="14.00">claims_groups </text>
<text text-anchor="start" x="845.86" y="-271" font-family="Arial" font-size="14.00" fill="#666666">[bytea]</text>
<polygon fill="none" stroke="black" points="744.71,-228 744.71,-258.8 1024.66,-258.8 1024.66,-228 744.71,-228"/>
<text text-anchor="start" x="751.71" y="-240.2" font-family="Arial" font-size="14.00">connector_id </text>
<text text-anchor="start" x="835.77" y="-240.2" font-family="Arial" font-size="14.00" fill="#666666">[text]</text>
<polygon fill="none" stroke="black" points="744.71,-197.2 744.71,-228 1024.66,-228 1024.66,-197.2 744.71,-197.2"/>
<text text-anchor="start" x="751.71" y="-209.4" font-family="Arial" font-size="14.00">connector_data </text>
<text text-anchor="start" x="852.12" y="-209.4" font-family="Arial" font-size="14.00" fill="#666666">[bytea]</text>
<polygon fill="none" stroke="black" points="744.71,-166.4 744.71,-197.2 1024.66,-197.2 1024.66,-166.4 744.71,-166.4"/>
<text text-anchor="start" x="751.71" y="-178.6" font-family="Arial" font-size="14.00">expiry </text>
<text text-anchor="start" x="792.95" y="-178.6" font-family="Arial" font-size="14.00" fill="#666666">[timestamp with time zone]</text>
<polygon fill="none" stroke="black" points="744.71,-135.6 744.71,-166.4 1024.66,-166.4 1024.66,-135.6 744.71,-135.6"/>
<text text-anchor="start" x="751.71" y="-147.8" font-family="Arial" font-size="14.00">claims_preferred_username </text>
<text text-anchor="start" x="929.9" y="-147.8" font-family="Arial" font-size="14.00" fill="#666666">[text]</text>
<polygon fill="none" stroke="black" points="744.71,-104.8 744.71,-135.6 1024.66,-135.6 1024.66,-104.8 744.71,-104.8"/>
<text text-anchor="start" x="751.71" y="-117" font-family="Arial" font-size="14.00">code_challenge </text>
<text text-anchor="start" x="853.68" y="-117" font-family="Arial" font-size="14.00" fill="#666666">[text]</text>
<polygon fill="none" stroke="black" points="744.71,-74 744.71,-104.8 1024.66,-104.8 1024.66,-74 744.71,-74"/>
<text text-anchor="start" x="751.71" y="-86.2" font-family="Arial" font-size="14.00">code_challenge_method </text>
<text text-anchor="start" x="908.17" y="-86.2" font-family="Arial" font-size="14.00" fill="#666666">[text]</text>
<polygon fill="none" stroke="black" points="744.71,-43.2 744.71,-74 1024.66,-74 1024.66,-43.2 744.71,-43.2"/>
<text text-anchor="start" x="751.71" y="-55.4" font-family="Arial" font-size="14.00">hmac_key </text>
<text text-anchor="start" x="819.41" y="-55.4" font-family="Arial" font-size="14.00" fill="#666666">[bytea]</text>
</g>
<!-- public.auth_code -->
<g id="node4" class="node">
<title>public.auth_code</title>
<polygon fill="#efefef" stroke="none" points="1128.71,-613 1128.71,-648.6 1390.66,-648.6 1390.66,-613 1128.71,-613"/>
<polygon fill="none" stroke="black" points="1128.71,-613 1128.71,-648.6 1390.66,-648.6 1390.66,-613 1128.71,-613"/>
<text text-anchor="start" x="1135.71" y="-626.4" font-family="Arial Bold" font-size="18.00">public.auth_code</text>
<text text-anchor="start" x="1259.17" y="-626.4" font-family="Arial" font-size="14.00">    </text>
<text text-anchor="start" x="1290.29" y="-626.4" font-family="Arial" font-size="14.00" fill="#666666">[BASE TABLE]</text>
<polygon fill="none" stroke="black" points="1128.71,-582.2 1128.71,-613 1390.66,-613 1390.66,-582.2 1128.71,-582.2"/>
<text text-anchor="start" x="1135.71" y="-594.4" font-family="Arial" font-size="14.00">id </text>
<text text-anchor="start" x="1150.5" y="-594.4" font-family="Arial" font-size="14.00" fill="#666666">[text]</text>
<polygon fill="none" stroke="black" points="1128.71,-551.4 1128.71,-582.2 1390.66,-582.2 1390.66,-551.4 1128.71,-551.4"/>
<text text-anchor="start" x="1135.71" y="-563.6" font-family="Arial" font-size="14.00">client_id </text>
<text text-anchor="start" x="1190.97" y="-563.6" font-family="Arial" font-size="14.00" fill="#666666">[text]</text>
<polygon fill="none" stroke="black" points="1128.71,-520.6 1128.71,-551.4 1390.66,-551.4 1390.66,-520.6 1128.71,-520.6"/>
<text text-anchor="start" x="1135.71" y="-532.8" font-family="Arial" font-size="14.00">scopes </text>
<text text-anchor="start" x="1183.96" y="-532.8" font-family="Arial" font-size="14.00" fill="#666666">[bytea]</text>
<polygon fill="none" stroke="black" points="1128.71,-489.8 1128.71,-520.6 1390.66,-520.6 1390.66,-489.8 1128.71,-489.8"/>
<text text-anchor="start" x="1135.71" y="-502" font-family="Arial" font-size="14.00">nonce </text>
<text text-anchor="start" x="1177.75" y="-502" font-family="Arial" font-size="14.00" fill="#666666">[text]</text>
<polygon fill="none" stroke="black" points="1128.71,-459 1128.71,-489.8 1390.66,-489.8 1390.66,-459 1128.71,-459"/>
<text text-anchor="start" x="1135.71" y="-471.2" font-family="Arial" font-size="14.00">redirect_uri </text>
<text text-anchor="start" x="1209.63" y="-471.2" font-family="Arial" font-size="14.00" fill="#666666">[text]</text>
<polygon fill="none" stroke="black" points="1128.71,-428.2 1128.71,-459 1390.66,-459 1390.66,-428.2 1128.71,-428.2"/>
<text text-anchor="start" x="1135.71" y="-440.4" font-family="Arial" font-size="14.00">claims_user_id </text>
<text text-anchor="start" x="1232.97" y="-440.4" font-family="Arial" font-size="14.00" fill="#666666">[text]</text>
<polygon fill="none" stroke="black" points="1128.71,-397.4 1128.71,-428.2 1390.66,-428.2 1390.66,-397.4 1128.71,-397.4"/>
<text text-anchor="start" x="1135.71" y="-409.6" font-family="Arial" font-size="14.00">claims_username </text>
<text text-anchor="start" x="1249.31" y="-409.6" font-family="Arial" font-size="14.00" fill="#666666">[text]</text>
<polygon fill="none" stroke="black" points="1128.71,-366.6 1128.71,-397.4 1390.66,-397.4 1390.66,-366.6 1128.71,-366.6"/>
<text text-anchor="start" x="1135.71" y="-378.8" font-family="Arial" font-size="14.00">claims_email </text>
<text text-anchor="start" x="1220.51" y="-378.8" font-family="Arial" font-size="14.00" fill="#666666">[text]</text>
<polygon fill="none" stroke="black" points="1128.71,-335.8 1128.71,-366.6 1390.66,-366.6 1390.66,-335.8 1128.71,-335.8"/>
<text text-anchor="start" x="1135.71" y="-348" font-family="Arial" font-size="14.00">claims_email_verified </text>
<text text-anchor="start" x="1273.43" y="-348" font-family="Arial" font-size="14.00" fill="#666666">[boolean]</text>
<polygon fill="none" stroke="black" points="1128.71,-305 1128.71,-335.8 1390.66,-335.8 1390.66,-305 1128.71,-305"/>
<text text-anchor="start" x="1135.71" y="-317.2" font-family="Arial" font-size="14.00">claims_groups </text>
<text text-anchor="start" x="1229.86" y="-317.2" font-family="Arial" font-size="14.00" fill="#666666">[bytea]</text>
<polygon fill="none" stroke="black" points="1128.71,-274.2 1128.71,-305 1390.66,-305 1390.66,-274.2 1128.71,-274.2"/>
<text text-anchor="start" x="1135.71" y="-286.4" font-family="Arial" font-size="14.00">connector_id </text>
<text text-anchor="start" x="1219.77" y="-286.4" font-family="Arial" font-size="14.00" fill="#666666">[text]</text>
<polygon fill="none" stroke="black" points="1128.71,-243.4 1128.71,-274.2 1390.66,-274.2 1390.66,-243.4 1128.71,-243.4"/>
<text text-anchor="start" x="1135.71" y="-255.6" font-family="Arial" font-size="14.00">connector_data </text>
<text text-anchor="start" x="1236.12" y="-255.6" font-family="Arial" font-size="14.00" fill="#666666">[bytea]</text>
<polygon fill="none" stroke="black" points="1128.71,-212.6 1128.71,-243.4 1390.66,-243.4 1390.66,-212.6 1128.71,-212.6"/>
<text text-anchor="start" x="1135.71" y="-224.8" font-family="Arial" font-size="14.00">expiry </text>
<text text-anchor="start" x="1176.95" y="-224.8" font-family="Arial" font-size="14.00" fill="#666666">[timestamp with time zone]</text>
<polygon fill="none" stroke="black" points="1128.71,-181.8 1128.71,-212.6 1390.66,-212.6 1390.66,-181.8 1128.71,-181.8"/>
<text text-anchor="start" x="1135.71" y="-194" font-family="Arial" font-size="14.00">claims_preferred_username </text>
<text text-anchor="start" x="1313.9" y="-194" font-family="Arial" font-size="14.00" fill="#666666">[text]</text>
<polygon fill="none" stroke="black" points="1128.71,-151 1128.71,-181.8 1390.66,-181.8 1390.66,-151 1128.71,-151"/>
<text text-anchor="start" x="1135.71" y="-163.2" font-family="Arial" font-size="14.00">code_challenge </text>
<text text-anchor="start" x="1237.68" y="-163.2" font-family="Arial" font-size="14.00" fill="#666666">[text]</text>
<polygon fill="none" stroke="black" points="1128.71,-120.2 1128.71,-151 1390.66,-151 1390.66,-120.2 1128.71,-120.2"/>
<text text-anchor="start" x="1135.71" y="-132.4" font-family="Arial" font-size="14.00">code_challenge_method </text>
<text text-anchor="start" x="1292.17" y="-132.4" font-family="Arial" font-size="14.00" fill="#666666">[text]</text>
</g>
<!-- public.refresh_token -->
<g id="node5" class="node">
<title>public.refresh_token</title>
<polygon fill="#efefef" stroke="none" points="1495.22,-613 1495.22,-648.6 1782.15,-648.6 1782.15,-613 1495.22,-613"/>
<polygon fill="none" stroke="black" points="1495.22,-613 1495.22,-648.6 1782.15,-648.6 1782.15,-613 1495.22,-613"/>
<text text-anchor="start" x="1502.22" y="-626.4" font-family="Arial Bold" font-size="18.00">public.refresh_token</text>
<text text-anchor="start" x="1650.67" y="-626.4" font-family="Arial" font-size="14.00">    </text>
<text text-anchor="start" x="1681.78" y="-626.4" font-family="Arial" font-size="14.00" fill="#666666">[BASE TABLE]</text>
<polygon fill="none" stroke="black" points="1495.22,-582.2 1495.22,-613 1782.15,-613 1782.15,-582.2 1495.22,-582.2"/>
<text text-anchor="start" x="1502.22" y="-594.4" font-family="Arial" font-size="14.00">id </text>
<text text-anchor="start" x="1517" y="-594.4" font-family="Arial" font-size="14.00" fill="#666666">[text]</text>
<polygon fill="none" stroke="black" points="1495.22,-551.4 1495.22,-582.2 1782.15,-582.2 1782.15,-551.4 1495.22,-551.4"/>
<text text-anchor="start" x="1502.22" y="-563.6" font-family="Arial" font-size="14.00">client_id </text>
<text text-anchor="start" x="1557.47" y="-563.6" font-family="Arial" font-size="14.00" fill="#666666">[text]</text>
<polygon fill="none" stroke="black" points="1495.22,-520.6 1495.22,-551.4 1782.15,-551.4 1782.15,-520.6 1495.22,-520.6"/>
<text text-anchor="start" x="1502.22" y="-532.8" font-family="Arial" font-size="14.00">scopes </text>
<text text-anchor="start" x="1550.47" y="-532.8" font-family="Arial" font-size="14.00" fill="#666666">[bytea]</text>
<polygon fill="none" stroke="black" points="1495.22,-489.8 1495.22,-520.6 1782.15,-520.6 1782.15,-489.8 1495.22,-489.8"/>
<text text-anchor="start" x="1502.22" y="-502" font-family="Arial" font-size="14.00">nonce </text>
<text text-anchor="start" x="1544.25" y="-502" font-family="Arial" font-size="14.00" fill="#666666">[text]</text>
<polygon fill="none" stroke="black" points="1495.22,-459 1495.22,-489.8 1782.15,-489.8 1782.15,-459 1495.22,-459"/>
<text text-anchor="start" x="1502.22" y="-471.2" font-family="Arial" font-size="14.00">claims_user_id </text>
<text text-anchor="start" x="1599.48" y="-471.2" font-family="Arial" font-size="14.00" fill="#666666">[text]</text>
<polygon fill="none" stroke="black" points="1495.22,-428.2 1495.22,-459 1782.15,-459 1782.15,-428.2 1495.22,-428.2"/>
<text text-anchor="start" x="1502.22" y="-440.4" font-family="Arial" font-size="14.00">claims_username </text>
<text text-anchor="start" x="1615.82" y="-440.4" font-family="Arial" font-size="14.00" fill="#666666">[text]</text>
<polygon fill="none" stroke="black" points="1495.22,-397.4 1495.22,-428.2 1782.15,-428.2 1782.15,-397.4 1495.22,-397.4"/>
<text text-anchor="start" x="1502.22" y="-409.6" font-family="Arial" font-size="14.00">claims_email </text>
<text text-anchor="start" x="1587.02" y="-409.6" font-family="Arial" font-size="14.00" fill="#666666">[text]</text>
<polygon fill="none" stroke="black" points="1495.22,-366.6 1495.22,-397.4 1782.15,-397.4 1782.15,-366.6 1495.22,-366.6"/>
<text text-anchor="start" x="1502.22" y="-378.8" font-family="Arial" font-size="14.00">claims_email_verified </text>
<text text-anchor="start" x="1639.93" y="-378.8" font-family="Arial" font-size="14.00" fill="#666666">[boolean]</text>
<polygon fill="none" stroke="black" points="1495.22,-335.8 1495.22,-366.6 1782.15,-366.6 1782.15,-335.8 1495.22,-335.8"/>
<text text-anchor="start" x="1502.22" y="-348" font-family="Arial" font-size="14.00">claims_groups </text>
<text text-anchor="start" x="1596.37" y="-348" font-family="Arial" font-size="14.00" fill="#666666">[bytea]</text>
<polygon fill="none" stroke="black" points="1495.22,-305 1495.22,-335.8 1782.15,-335.8 1782.15,-305 1495.22,-305"/>
<text text-anchor="start" x="1502.22" y="-317.2" font-family="Arial" font-size="14.00">connector_id </text>
<text text-anchor="start" x="1586.27" y="-317.2" font-family="Arial" font-size="14.00" fill="#666666">[text]</text>
<polygon fill="none" stroke="black" points="1495.22,-274.2 1495.22,-305 1782.15,-305 1782.15,-274.2 1495.22,-274.2"/>
<text text-anchor="start" x="1502.22" y="-286.4" font-family="Arial" font-size="14.00">connector_data </text>
<text text-anchor="start" x="1602.62" y="-286.4" font-family="Arial" font-size="14.00" fill="#666666">[bytea]</text>
<polygon fill="none" stroke="black" points="1495.22,-243.4 1495.22,-274.2 1782.15,-274.2 1782.15,-243.4 1495.22,-243.4"/>
<text text-anchor="start" x="1502.22" y="-255.6" font-family="Arial" font-size="14.00">token </text>
<text text-anchor="start" x="1540.36" y="-255.6" font-family="Arial" font-size="14.00" fill="#666666">[text]</text>
<polygon fill="none" stroke="black" points="1495.22,-212.6 1495.22,-243.4 1782.15,-243.4 1782.15,-212.6 1495.22,-212.6"/>
<text text-anchor="start" x="1502.22" y="-224.8" font-family="Arial" font-size="14.00">created_at </text>
<text text-anchor="start" x="1572.27" y="-224.8" font-family="Arial" font-size="14.00" fill="#666666">[timestamp with time zone]</text>
<polygon fill="none" stroke="black" points="1495.22,-181.8 1495.22,-212.6 1782.15,-212.6 1782.15,-181.8 1495.22,-181.8"/>
<text text-anchor="start" x="1502.22" y="-194" font-family="Arial" font-size="14.00">last_used </text>
<text text-anchor="start" x="1566.04" y="-194" font-family="Arial" font-size="14.00" fill="#666666">[timestamp with time zone]</text>
<polygon fill="none" stroke="black" points="1495.22,-151 1495.22,-181.8 1782.15,-181.8 1782.15,-151 1495.22,-151"/>
<text text-anchor="start" x="1502.22" y="-163.2" font-family="Arial" font-size="14.00">claims_preferred_username </text>
<text text-anchor="start" x="1680.41" y="-163.2" font-family="Arial" font-size="14.00" fill="#666666">[text]</text>
<polygon fill="none" stroke="black" points="1495.22,-120.2 1495.22,-151 1782.15,-151 1782.15,-120.2 1495.22,-120.2"/>
<text text-anchor="start" x="1502.22" y="-132.4" font-family="Arial" font-size="14.00">obsolete_token </text>
<text text-anchor="start" x="1601.07" y="-132.4" font-family="Arial" font-size="14.00" fill="#666666">[text]</text>
</g>
<!-- public.password -->
<g id="node6" class="node">
<title>public.password</title>
<polygon fill="#efefef" stroke="none" points="1886.7,-428.2 1886.7,-463.8 2142.67,-463.8 2142.67,-428.2 1886.7,-428.2"/>
<polygon fill="none" stroke="black" points="1886.7,-428.2 1886.7,-463.8 2142.67,-463.8 2142.67,-428.2 1886.7,-428.2"/>
<text text-anchor="start" x="1893.7" y="-441.6" font-family="Arial Bold" font-size="18.00">public.password</text>
<text text-anchor="start" x="2011.18" y="-441.6" font-family="Arial" font-size="14.00">    </text>
<text text-anchor="start" x="2042.3" y="-441.6" font-family="Arial" font-size="14.00" fill="#666666">[BASE TABLE]</text>
<polygon fill="none" stroke="black" points="1886.7,-397.4 1886.7,-428.2 2142.67,-428.2 2142.67,-397.4 1886.7,-397.4"/>
<text text-anchor="start" x="1893.7" y="-409.6" font-family="Arial" font-size="14.00">email </text>
<text text-anchor="start" x="1931.04" y="-409.6" font-family="Arial" font-size="14.00" fill="#666666">[text]</text>
<polygon fill="none" stroke="black" points="1886.7,-366.6 1886.7,-397.4 2142.67,-397.4 2142.67,-366.6 1886.7,-366.6"/>
<text text-anchor="start" x="1893.7" y="-378.8" font-family="Arial" font-size="14.00">hash </text>
<text text-anchor="start" x="1927.95" y="-378.8" font-family="Arial" font-size="14.00" fill="#666666">[bytea]</text>
<polygon fill="none" stroke="black" points="1886.7,-335.8 1886.7,-366.6 2142.67,-366.6 2142.67,-335.8 1886.7,-335.8"/>
<text text-anchor="start" x="1893.7" y="-348" font-family="Arial" font-size="14.00">username </text>
<text text-anchor="start" x="1959.84" y="-348" font-family="Arial" font-size="14.00" fill="#666666">[text]</text>
<polygon fill="none" stroke="black" points="1886.7,-305 1886.7,-335.8 2142.67,-335.8 2142.67,-305 1886.7,-305"/>
<text text-anchor="start" x="1893.7" y="-317.2" font-family="Arial" font-size="14.00">user_id </text>
<text text-anchor="start" x="1943.51" y="-317.2" font-family="Arial" font-size="14.00" fill="#666666">[text]</text>
</g>
<!-- public.keys -->
<g id="node7" class="node">
<title>public.keys</title>
<polygon fill="#efefef" stroke="none" points="2247.41,-443.6 2247.41,-479.2 2511.97,-479.2 2511.97,-443.6 2247.41,-443.6"/>
<polygon fill="none" stroke="black" points="2247.41,-443.6 2247.41,-479.2 2511.97,-479.2 2511.97,-443.6 2247.41,-443.6"/>
<text text-anchor="start" x="2276.2" y="-457" font-family="Arial Bold" font-size="18.00">public.keys</text>
<text text-anchor="start" x="2358.68" y="-457" font-family="Arial" font-size="14.00">    </text>
<text text-anchor="start" x="2389.8" y="-457" font-family="Arial" font-size="14.00" fill="#666666">[BASE TABLE]</text>
<polygon fill="none" stroke="black" points="2247.41,-412.8 2247.41,-443.6 2511.97,-443.6 2511.97,-412.8 2247.41,-412.8"/>
<text text-anchor="start" x="2254.41" y="-425" font-family="Arial" font-size="14.00">id </text>
<text text-anchor="start" x="2269.19" y="-425" font-family="Arial" font-size="14.00" fill="#666666">[text]</text>
<polygon fill="none" stroke="black" points="2247.41,-382 2247.41,-412.8 2511.97,-412.8 2511.97,-382 2247.41,-382"/>
<text text-anchor="start" x="2254.41" y="-394.2" font-family="Arial" font-size="14.00">verification_keys </text>
<text text-anchor="start" x="2361.79" y="-394.2" font-family="Arial" font-size="14.00" fill="#666666">[bytea]</text>
<polygon fill="none" stroke="black" points="2247.41,-351.2 2247.41,-382 2511.97,-382 2511.97,-351.2 2247.41,-351.2"/>
<text text-anchor="start" x="2254.41" y="-363.4" font-family="Arial" font-size="14.00">signing_key </text>
<text text-anchor="start" x="2332.23" y="-363.4" font-family="Arial" font-size="14.00" fill="#666666">[bytea]</text>
<polygon fill="none" stroke="black" points="2247.41,-320.4 2247.41,-351.2 2511.97,-351.2 2511.97,-320.4 2247.41,-320.4"/>
<text text-anchor="start" x="2254.41" y="-332.6" font-family="Arial" font-size="14.00">signing_key_pub </text>
<text text-anchor="start" x="2363.38" y="-332.6" font-family="Arial" font-size="14.00" fill="#666666">[bytea]</text>
<polygon fill="none" stroke="black" points="2247.41,-289.6 2247.41,-320.4 2511.97,-320.4 2511.97,-289.6 2247.41,-289.6"/>
<text text-anchor="start" x="2254.41" y="-301.8" font-family="Arial" font-size="14.00">next_rotation </text>
<text text-anchor="start" x="2339.24" y="-301.8" font-family="Arial" font-size="14.00" fill="#666666">[timestamp with time zone]</text>
</g>
<!-- public.offline_session -->
<g id="node8" class="node">
<title>public.offline_session</title>
<polygon fill="#efefef" stroke="none" points="2616.2,-428.2 2616.2,-463.8 2913.17,-463.8 2913.17,-428.2 2616.2,-428.2"/>
<polygon fill="none" stroke="black" points="2616.2,-428.2 2616.2,-463.8 2913.17,-463.8 2913.17,-428.2 2616.2,-428.2"/>
<text text-anchor="start" x="2623.2" y="-441.6" font-family="Arial Bold" font-size="18.00">public.offline_session</text>
<text text-anchor="start" x="2781.68" y="-441.6" font-family="Arial" font-size="14.00">    </text>
<text text-anchor="start" x="2812.8" y="-441.6" font-family="Arial" font-size="14.00" fill="#666666">[BASE TABLE]</text>
<polygon fill="none" stroke="black" points="2616.2,-397.4 2616.2,-428.2 2913.17,-428.2 2913.17,-397.4 2616.2,-397.4"/>
<text text-anchor="start" x="2623.2" y="-409.6" font-family="Arial" font-size="14.00">user_id </text>
<text text-anchor="start" x="2673.01" y="-409.6" font-family="Arial" font-size="14.00" fill="#666666">[text]</text>
<polygon fill="none" stroke="black" points="2616.2,-366.6 2616.2,-397.4 2913.17,-397.4 2913.17,-366.6 2616.2,-366.6"/>
<text text-anchor="start" x="2623.2" y="-378.8" font-family="Arial" font-size="14.00">conn_id </text>
<text text-anchor="start" x="2676.13" y="-378.8" font-family="Arial" font-size="14.00" fill="#666666">[text]</text>
<polygon fill="none" stroke="black" points="2616.2,-335.8 2616.2,-366.6 2913.17,-366.6 2913.17,-335.8 2616.2,-335.8"/>
<text text-anchor="start" x="2623.2" y="-348" font-family="Arial" font-size="14.00">refresh </text>
<text text-anchor="start" x="2670.67" y="-348" font-family="Arial" font-size="14.00" fill="#666666">[bytea]</text>
<polygon fill="none" stroke="black" points="2616.2,-305 2616.2,-335.8 2913.17,-335.8 2913.17,-305 2616.2,-305"/>
<text text-anchor="start" x="2623.2" y="-317.2" font-family="Arial" font-size="14.00">connector_data </text>
<text text-anchor="start" x="2723.61" y="-317.2" font-family="Arial" font-size="14.00" fill="#666666">[bytea]</text>
</g>
<!-- public.connector -->
<g id="node9" class="node">
<title>public.connector</title>
<polygon fill="#efefef" stroke="none" points="3017.21,-443.6 3017.21,-479.2 3276.16,-479.2 3276.16,-443.6 3017.21,-443.6"/>
<polygon fill="none" stroke="black" points="3017.21,-443.6 3017.21,-479.2 3276.16,-479.2 3276.16,-443.6 3017.21,-443.6"/>
<text text-anchor="start" x="3024.21" y="-457" font-family="Arial Bold" font-size="18.00">public.connector</text>
<text text-anchor="start" x="3144.67" y="-457" font-family="Arial" font-size="14.00">    </text>
<text text-anchor="start" x="3175.79" y="-457" font-family="Arial" font-size="14.00" fill="#666666">[BASE TABLE]</text>
<polygon fill="none" stroke="black" points="3017.21,-412.8 3017.21,-443.6 3276.16,-443.6 3276.16,-412.8 3017.21,-412.8"/>
<text text-anchor="start" x="3024.21" y="-425" font-family="Arial" font-size="14.00">id </text>
<text text-anchor="start" x="3039" y="-425" font-family="Arial" font-size="14.00" fill="#666666">[text]</text>
<polygon fill="none" stroke="black" points="3017.21,-382 3017.21,-412.8 3276.16,-412.8 3276.16,-382 3017.21,-382"/>
<text text-anchor="start" x="3024.21" y="-394.2" font-family="Arial" font-size="14.00">type </text>
<text text-anchor="start" x="3054.57" y="-394.2" font-family="Arial" font-size="14.00" fill="#666666">[text]</text>
<polygon fill="none" stroke="black" points="3017.21,-351.2 3017.21,-382 3276.16,-382 3276.16,-351.2 3017.21,-351.2"/>
<text text-anchor="start" x="3024.21" y="-363.4" font-family="Arial" font-size="14.00">name </text>
<text text-anchor="start" x="3063.12" y="-363.4" font-family="Arial" font-size="14.00" fill="#666666">[text]</text>
<polygon fill="none" stroke="black" points="3017.21,-320.4 3017.21,-351.2 3276.16,-351.2 3276.16,-320.4 3017.21,-320.4"/>
<text text-anchor="start" x="3024.21" y="-332.6" font-family="Arial" font-size="14.00">resource_version </text>
<text text-anchor="start" x="3135.49" y="-332.6" font-family="Arial" font-size="14.00" fill="#666666">[text]</text>
<polygon fill="none" stroke="black" points="3017.21,-289.6 3017.21,-320.4 3276.16,-320.4 3276.16,-289.6 3017.21,-289.6"/>
<text text-anchor="start" x="3024.21" y="-301.8" font-family="Arial" font-size="14.00">config </text>
<text text-anchor="start" x="3065.46" y="-301.8" font-family="Arial" font-size="14.00" fill="#666666">[bytea]</text>
</g>
<!-- public.device_request -->
<g id="node10" class="node">
<title>public.device_request</title>
<polygon fill="#efefef" stroke="none" points="3380.72,-459 3380.72,-494.6 3676.65,-494.6 3676.65,-459 3380.72,-459"/>
<polygon fill="none" stroke="black" points="3380.72,-459 3380.72,-494.6 3676.65,-494.6 3676.65,-459 3380.72,-459"/>
<text text-anchor="start" x="3387.72" y="-472.4" font-family="Arial Bold" font-size="18.00">public.device_request</text>
<text text-anchor="start" x="3545.16" y="-472.4" font-family="Arial" font-size="14.00">    </text>
<text text-anchor="start" x="3576.28" y="-472.4" font-family="Arial" font-size="14.00" fill="#666666">[BASE TABLE]</text>
<polygon fill="none" stroke="black" points="3380.72,-428.2 3380.72,-459 3676.65,-459 3676.65,-428.2 3380.72,-428.2"/>
<text text-anchor="start" x="3387.72" y="-440.4" font-family="Arial" font-size="14.00">user_code </text>
<text text-anchor="start" x="3456.99" y="-440.4" font-family="Arial" font-size="14.00" fill="#666666">[text]</text>
<polygon fill="none" stroke="black" points="3380.72,-397.4 3380.72,-428.2 3676.65,-428.2 3676.65,-397.4 3380.72,-397.4"/>
<text text-anchor="start" x="3387.72" y="-409.6" font-family="Arial" font-size="14.00">device_code </text>
<text text-anchor="start" x="3470.23" y="-409.6" font-family="Arial" font-size="14.00" fill="#666666">[text]</text>
<polygon fill="none" stroke="black" points="3380.72,-366.6 3380.72,-397.4 3676.65,-397.4 3676.65,-366.6 3380.72,-366.6"/>
<text text-anchor="start" x="3387.72" y="-378.8" font-family="Arial" font-size="14.00">client_id </text>
<text text-anchor="start" x="3442.98" y="-378.8" font-family="Arial" font-size="14.00" fill="#666666">[text]</text>
<polygon fill="none" stroke="black" points="3380.72,-335.8 3380.72,-366.6 3676.65,-366.6 3676.65,-335.8 3380.72,-335.8"/>
<text text-anchor="start" x="3387.72" y="-348" font-family="Arial" font-size="14.00">client_secret </text>
<text text-anchor="start" x="3470.2" y="-348" font-family="Arial" font-size="14.00" fill="#666666">[text]</text>
<polygon fill="none" stroke="black" points="3380.72,-305 3380.72,-335.8 3676.65,-335.8 3676.65,-305 3380.72,-305"/>
<text text-anchor="start" x="3387.72" y="-317.2" font-family="Arial" font-size="14.00">scopes </text>
<text text-anchor="start" x="3435.97" y="-317.2" font-family="Arial" font-size="14.00" fill="#666666">[bytea]</text>
<polygon fill="none" stroke="black" points="3380.72,-274.2 3380.72,-305 3676.65,-305 3676.65,-274.2 3380.72,-274.2"/>
<text text-anchor="start" x="3387.72" y="-286.4" font-family="Arial" font-size="14.00">expiry </text>
<text text-anchor="start" x="3428.96" y="-286.4" font-family="Arial" font-size="14.00" fill="#666666">[timestamp with time zone]</text>
</g>
<!-- public.device_token -->
<g id="node11" class="node">
<title>public.device_token</title>
<polygon fill="#efefef" stroke="none" points="3780.72,-489.8 3780.72,-525.4 4064.66,-525.4 4064.66,-489.8 3780.72,-489.8"/>
<polygon fill="none" stroke="black" points="3780.72,-489.8 3780.72,-525.4 4064.66,-525.4 4064.66,-489.8 3780.72,-489.8"/>
<text text-anchor="start" x="3787.72" y="-503.2" font-family="Arial Bold" font-size="18.00">public.device_token</text>
<text text-anchor="start" x="3933.17" y="-503.2" font-family="Arial" font-size="14.00">    </text>
<text text-anchor="start" x="3964.28" y="-503.2" font-family="Arial" font-size="14.00" fill="#666666">[BASE TABLE]</text>
<polygon fill="none" stroke="black" points="3780.72,-459 3780.72,-489.8 4064.66,-489.8 4064.66,-459 3780.72,-459"/>
<text text-anchor="start" x="3787.72" y="-471.2" font-family="Arial" font-size="14.00">device_code </text>
<text text-anchor="start" x="3870.22" y="-471.2" font-family="Arial" font-size="14.00" fill="#666666">[text]</text>
<polygon fill="none" stroke="black" points="3780.72,-428.2 3780.72,-459 4064.66,-459 4064.66,-428.2 3780.72,-428.2"/>
<text text-anchor="start" x="3787.72" y="-440.4" font-family="Arial" font-size="14.00">status </text>
<text text-anchor="start" x="3828.96" y="-440.4" font-family="Arial" font-size="14.00" fill="#666666">[text]</text>
<polygon fill="none" stroke="black" points="3780.72,-397.4 3780.72,-428.2 4064.66,-428.2 4064.66,-397.4 3780.72,-397.4"/>
<text text-anchor="start" x="3787.72" y="-409.6" font-family="Arial" font-size="14.00">token </text>
<text text-anchor="start" x="3825.85" y="-409.6" font-family="Arial" font-size="14.00" fill="#666666">[bytea]</text>
<polygon fill="none" stroke="black" points="3780.72,-366.6 3780.72,-397.4 4064.66,-397.4 4064.66,-366.6 3780.72,-366.6"/>
<text text-anchor="start" x="3787.72" y="-378.8" font-family="Arial" font-size="14.00">expiry </text>
<text text-anchor="start" x="3828.95" y="-378.8" font-family="Arial" font-size="14.00" fill="#666666">[timestamp with time zone]</text>
<polygon fill="none" stroke="black" points="3780.72,-335.8 3780.72,-366.6 4064.66,-366.6 4064.66,-335.8 3780.72,-335.8"/>
<text text-anchor="start" x="3787.72" y="-348" font-family="Arial" font-size="14.00">last_request </text>
<text text-anchor="start" x="3867.87" y="-348" font-family="Arial" font-size="14.00" fill="#666666">[timestamp with time zone]</text>
<polygon fill="none" stroke="black" points="3780.72,-305 3780.72,-335.8 4064.66,-335.8 4064.66,-305 3780.72,-305"/>
<text text-anchor="start" x="3787.72" y="-317.2" font-family="Arial" font-size="14.00">poll_interval </text>
<text text-anchor="start" x="3866.32" y="-317.2" font-family="Arial" font-size="14.00" fill="#666666">[integer]</text>
<polygon fill="none" stroke="black" points="3780.72,-274.2 3780.72,-305 4064.66,-305 4064.66,-274.2 3780.72,-274.2"/>
<text text-anchor="start" x="3787.72" y="-286.4" font-family="Arial" font-size="14.00">code_challenge </text>
<text text-anchor="start" x="3889.69" y="-286.4" font-family="Arial" font-size="14.00" fill="#666666">[text]</text>
<polygon fill="none" stroke="black" points="3780.72,-243.4 3780.72,-274.2 4064.66,-274.2 4064.66,-243.4 3780.72,-243.4"/>
<text text-anchor="start" x="3787.72" y="-255.6" font-family="Arial" font-size="14.00">code_challenge_method </text>
<text text-anchor="start" x="3944.17" y="-255.6" font-family="Arial" font-size="14.00" fill="#666666">[text]</text>
</g>
</g>
</svg>
