<?xml version="1.0" encoding="UTF-8" standalone="no"?>
<!DOCTYPE svg PUBLIC "-//W3C//DTD SVG 1.1//EN"
 "http://www.w3.org/Graphics/SVG/1.1/DTD/svg11.dtd">
<!-- Generated by graphviz version 12.1.2 (20240928.0832)
 -->
<!-- Title: public.connectors Pages: 1 -->
<svg width="870pt" height="1372pt"
 viewBox="0.00 0.00 870.12 1372.00" xmlns="http://www.w3.org/2000/svg" xmlns:xlink="http://www.w3.org/1999/xlink">
<g id="graph0" class="graph" transform="scale(1 1) rotate(0) translate(4 1368)">
<title>public.connectors</title>
<polygon fill="white" stroke="none" points="-4,4 -4,-1368 866.12,-1368 866.12,4 -4,4"/>
<!-- public.connectors -->
<g id="node1" class="node">
<title>public.connectors</title>
<polygon fill="#efefef" stroke="none" points="75.19,-539 75.19,-574.6 341.14,-574.6 341.14,-539 75.19,-539"/>
<polygon fill="none" stroke="black" points="75.19,-539 75.19,-574.6 341.14,-574.6 341.14,-539 75.19,-539"/>
<text text-anchor="start" x="82.19" y="-552.4" font-family="Arial Bold" font-size="18.00">public.connectors</text>
<text text-anchor="start" x="209.65" y="-552.4" font-family="Arial" font-size="14.00">    </text>
<text text-anchor="start" x="240.76" y="-552.4" font-family="Arial" font-size="14.00" fill="#666666">[BASE TABLE]</text>
<polygon fill="none" stroke="black" points="75.19,-508.2 75.19,-539 341.14,-539 341.14,-508.2 75.19,-508.2"/>
<text text-anchor="start" x="82.19" y="-520.4" font-family="Arial" font-size="14.00">id </text>
<text text-anchor="start" x="96.97" y="-520.4" font-family="Arial" font-size="14.00" fill="#666666">[bigint]</text>
<polygon fill="none" stroke="black" points="75.19,-477.4 75.19,-508.2 341.14,-508.2 341.14,-477.4 75.19,-477.4"/>
<text text-anchor="start" x="82.19" y="-489.6" font-family="Arial" font-size="14.00">name </text>
<text text-anchor="start" x="121.1" y="-489.6" font-family="Arial" font-size="14.00" fill="#666666">[text]</text>
<polygon fill="none" stroke="black" points="75.19,-446.6 75.19,-477.4 341.14,-477.4 341.14,-446.6 75.19,-446.6"/>
<text text-anchor="start" x="82.19" y="-458.8" font-family="Arial" font-size="14.00">label </text>
<text text-anchor="start" x="115.66" y="-458.8" font-family="Arial" font-size="14.00" fill="#666666">[text]</text>
<polygon fill="none" stroke="black" points="75.19,-415.8 75.19,-446.6 341.14,-446.6 341.14,-415.8 75.19,-415.8"/>
<text text-anchor="start" x="82.19" y="-428" font-family="Arial" font-size="14.00">short_description </text>
<text text-anchor="start" x="192.69" y="-428" font-family="Arial" font-size="14.00" fill="#666666">[text]</text>
<polygon fill="none" stroke="black" points="75.19,-385 75.19,-415.8 341.14,-415.8 341.14,-385 75.19,-385"/>
<text text-anchor="start" x="82.19" y="-397.2" font-family="Arial" font-size="14.00">description </text>
<text text-anchor="start" x="153.78" y="-397.2" font-family="Arial" font-size="14.00" fill="#666666">[text]</text>
<polygon fill="none" stroke="black" points="75.19,-354.2 75.19,-385 341.14,-385 341.14,-354.2 75.19,-354.2"/>
<text text-anchor="start" x="82.19" y="-366.4" font-family="Arial" font-size="14.00">direction </text>
<text text-anchor="start" x="138.99" y="-366.4" font-family="Arial" font-size="14.00" fill="#666666">[text]</text>
<polygon fill="none" stroke="black" points="75.19,-323.4 75.19,-354.2 341.14,-354.2 341.14,-323.4 75.19,-323.4"/>
<text text-anchor="start" x="82.19" y="-335.6" font-family="Arial" font-size="14.00">status </text>
<text text-anchor="start" x="123.43" y="-335.6" font-family="Arial" font-size="14.00" fill="#666666">[text]</text>
<polygon fill="none" stroke="black" points="75.19,-292.6 75.19,-323.4 341.14,-323.4 341.14,-292.6 75.19,-292.6"/>
<text text-anchor="start" x="82.19" y="-304.8" font-family="Arial" font-size="14.00">tier </text>
<text text-anchor="start" x="105.53" y="-304.8" font-family="Arial" font-size="14.00" fill="#666666">[text]</text>
<polygon fill="none" stroke="black" points="75.19,-261.8 75.19,-292.6 341.14,-292.6 341.14,-261.8 75.19,-261.8"/>
<text text-anchor="start" x="82.19" y="-274" font-family="Arial" font-size="14.00">logo </text>
<text text-anchor="start" x="112.55" y="-274" font-family="Arial" font-size="14.00" fill="#666666">[text]</text>
<polygon fill="none" stroke="black" points="75.19,-231 75.19,-261.8 341.14,-261.8 341.14,-231 75.19,-231"/>
<text text-anchor="start" x="82.19" y="-243.2" font-family="Arial" font-size="14.00">auto_onboard_support </text>
<text text-anchor="start" x="226.97" y="-243.2" font-family="Arial" font-size="14.00" fill="#666666">[boolean]</text>
<polygon fill="none" stroke="black" points="75.19,-200.2 75.19,-231 341.14,-231 341.14,-200.2 75.19,-200.2"/>
<text text-anchor="start" x="82.19" y="-212.4" font-family="Arial" font-size="14.00">allow_new_connections </text>
<text text-anchor="start" x="233.95" y="-212.4" font-family="Arial" font-size="14.00" fill="#666666">[boolean]</text>
<polygon fill="none" stroke="black" points="75.19,-169.4 75.19,-200.2 341.14,-200.2 341.14,-169.4 75.19,-169.4"/>
<text text-anchor="start" x="82.19" y="-181.6" font-family="Arial" font-size="14.00">max_connection_limit </text>
<text text-anchor="start" x="220.7" y="-181.6" font-family="Arial" font-size="14.00" fill="#666666">[bigint]</text>
<polygon fill="none" stroke="black" points="75.19,-138.6 75.19,-169.4 341.14,-169.4 341.14,-138.6 75.19,-138.6"/>
<text text-anchor="start" x="82.19" y="-150.8" font-family="Arial" font-size="14.00">tags </text>
<text text-anchor="start" x="112.54" y="-150.8" font-family="Arial" font-size="14.00" fill="#666666">[jsonb]</text>
<polygon fill="none" stroke="black" points="75.19,-107.8 75.19,-138.6 341.14,-138.6 341.14,-107.8 75.19,-107.8"/>
<text text-anchor="start" x="82.19" y="-120" font-family="Arial" font-size="14.00">created_at </text>
<text text-anchor="start" x="152.24" y="-120" font-family="Arial" font-size="14.00" fill="#666666">[timestamp with time zone]</text>
<polygon fill="none" stroke="black" points="75.19,-77 75.19,-107.8 341.14,-107.8 341.14,-77 75.19,-77"/>
<text text-anchor="start" x="82.19" y="-89.2" font-family="Arial" font-size="14.00">updated_at </text>
<text text-anchor="start" x="156.15" y="-89.2" font-family="Arial" font-size="14.00" fill="#666666">[timestamp with time zone]</text>
<polygon fill="none" stroke="black" points="75.19,-46.2 75.19,-77 341.14,-77 341.14,-46.2 75.19,-46.2"/>
<text text-anchor="start" x="82.19" y="-58.4" font-family="Arial" font-size="14.00">deleted_at </text>
<text text-anchor="start" x="151.47" y="-58.4" font-family="Arial" font-size="14.00" fill="#666666">[timestamp with time zone]</text>
<polygon fill="none" stroke="black" stroke-width="3" points="73.69,-44.7 73.69,-576.1 342.64,-576.1 342.64,-44.7 73.69,-44.7"/>
</g>
<!-- public.sources -->
<g id="node2" class="node">
<title>public.sources</title>
<polygon fill="#efefef" stroke="none" points="43.2,-1285.2 43.2,-1320.8 373.12,-1320.8 373.12,-1285.2 43.2,-1285.2"/>
<polygon fill="none" stroke="black" points="43.2,-1285.2 43.2,-1320.8 373.12,-1320.8 373.12,-1285.2 43.2,-1285.2"/>
<text text-anchor="start" x="94.18" y="-1298.6" font-family="Arial Bold" font-size="18.00">public.sources</text>
<text text-anchor="start" x="197.65" y="-1298.6" font-family="Arial" font-size="14.00">    </text>
<text text-anchor="start" x="228.77" y="-1298.6" font-family="Arial" font-size="14.00" fill="#666666">[BASE TABLE]</text>
<polygon fill="none" stroke="black" points="43.2,-1254.4 43.2,-1285.2 373.12,-1285.2 373.12,-1254.4 43.2,-1254.4"/>
<text text-anchor="start" x="50.2" y="-1266.6" font-family="Arial" font-size="14.00">id </text>
<text text-anchor="start" x="64.99" y="-1266.6" font-family="Arial" font-size="14.00" fill="#666666">[uuid]</text>
<polygon fill="none" stroke="black" points="43.2,-1223.6 43.2,-1254.4 373.12,-1254.4 373.12,-1223.6 43.2,-1223.6"/>
<text text-anchor="start" x="50.2" y="-1235.8" font-family="Arial" font-size="14.00">source_id </text>
<text text-anchor="start" x="114.79" y="-1235.8" font-family="Arial" font-size="14.00" fill="#666666">[text]</text>
<polygon fill="none" stroke="black" points="43.2,-1192.8 43.2,-1223.6 373.12,-1223.6 373.12,-1192.8 43.2,-1192.8"/>
<text text-anchor="start" x="50.2" y="-1205" font-family="Arial" font-size="14.00">name </text>
<text text-anchor="start" x="89.11" y="-1205" font-family="Arial" font-size="14.00" fill="#666666">[text]</text>
<polygon fill="none" stroke="black" points="43.2,-1162 43.2,-1192.8 373.12,-1192.8 373.12,-1162 43.2,-1162"/>
<text text-anchor="start" x="50.2" y="-1174.2" font-family="Arial" font-size="14.00">email </text>
<text text-anchor="start" x="87.54" y="-1174.2" font-family="Arial" font-size="14.00" fill="#666666">[text]</text>
<polygon fill="none" stroke="black" points="43.2,-1131.2 43.2,-1162 373.12,-1162 373.12,-1131.2 43.2,-1131.2"/>
<text text-anchor="start" x="50.2" y="-1143.4" font-family="Arial" font-size="14.00">type </text>
<text text-anchor="start" x="80.55" y="-1143.4" font-family="Arial" font-size="14.00" fill="#666666">[text]</text>
<polygon fill="none" stroke="black" points="43.2,-1100.4 43.2,-1131.2 373.12,-1131.2 373.12,-1100.4 43.2,-1100.4"/>
<text text-anchor="start" x="50.2" y="-1112.6" font-family="Arial" font-size="14.00">description </text>
<text text-anchor="start" x="121.79" y="-1112.6" font-family="Arial" font-size="14.00" fill="#666666">[text]</text>
<polygon fill="none" stroke="black" points="43.2,-1069.6 43.2,-1100.4 373.12,-1100.4 373.12,-1069.6 43.2,-1069.6"/>
<text text-anchor="start" x="50.2" y="-1081.8" font-family="Arial" font-size="14.00">credential_id </text>
<text text-anchor="start" x="133.48" y="-1081.8" font-family="Arial" font-size="14.00" fill="#666666">[uuid]</text>
<polygon fill="none" stroke="black" points="43.2,-1038.8 43.2,-1069.6 373.12,-1069.6 373.12,-1038.8 43.2,-1038.8"/>
<text text-anchor="start" x="50.2" y="-1051" font-family="Arial" font-size="14.00">lifecycle_state </text>
<text text-anchor="start" x="142.02" y="-1051" font-family="Arial" font-size="14.00" fill="#666666">[text]</text>
<polygon fill="none" stroke="black" points="43.2,-1008 43.2,-1038.8 373.12,-1038.8 373.12,-1008 43.2,-1008"/>
<text text-anchor="start" x="50.2" y="-1020.2" font-family="Arial" font-size="14.00">asset_discovery_method </text>
<text text-anchor="start" x="208.95" y="-1020.2" font-family="Arial" font-size="14.00" fill="#666666">[text]</text>
<polygon fill="none" stroke="black" points="43.2,-977.2 43.2,-1008 373.12,-1008 373.12,-977.2 43.2,-977.2"/>
<text text-anchor="start" x="50.2" y="-989.4" font-family="Arial" font-size="14.00">health_state </text>
<text text-anchor="start" x="130.37" y="-989.4" font-family="Arial" font-size="14.00" fill="#666666">[text]</text>
<polygon fill="none" stroke="black" points="43.2,-946.4 43.2,-977.2 373.12,-977.2 373.12,-946.4 43.2,-946.4"/>
<text text-anchor="start" x="50.2" y="-958.6" font-family="Arial" font-size="14.00">last_health_check_time </text>
<text text-anchor="start" x="200.4" y="-958.6" font-family="Arial" font-size="14.00" fill="#666666">[timestamp with time zone]</text>
<polygon fill="none" stroke="black" points="43.2,-915.6 43.2,-946.4 373.12,-946.4 373.12,-915.6 43.2,-915.6"/>
<text text-anchor="start" x="50.2" y="-927.8" font-family="Arial" font-size="14.00">health_reason </text>
<text text-anchor="start" x="142.83" y="-927.8" font-family="Arial" font-size="14.00" fill="#666666">[text]</text>
<polygon fill="none" stroke="black" points="43.2,-884.8 43.2,-915.6 373.12,-915.6 373.12,-884.8 43.2,-884.8"/>
<text text-anchor="start" x="50.2" y="-897" font-family="Arial" font-size="14.00">asset_discovery </text>
<text text-anchor="start" x="154.47" y="-897" font-family="Arial" font-size="14.00" fill="#666666">[boolean]</text>
<polygon fill="none" stroke="black" points="43.2,-854 43.2,-884.8 373.12,-884.8 373.12,-854 43.2,-854"/>
<text text-anchor="start" x="50.2" y="-866.2" font-family="Arial" font-size="14.00">spend_discovery </text>
<text text-anchor="start" x="159.15" y="-866.2" font-family="Arial" font-size="14.00" fill="#666666">[boolean]</text>
<polygon fill="none" stroke="black" points="43.2,-823.2 43.2,-854 373.12,-854 373.12,-823.2 43.2,-823.2"/>
<text text-anchor="start" x="50.2" y="-835.4" font-family="Arial" font-size="14.00">creation_method </text>
<text text-anchor="start" x="158.38" y="-835.4" font-family="Arial" font-size="14.00" fill="#666666">[text]</text>
<polygon fill="none" stroke="black" points="43.2,-792.4 43.2,-823.2 373.12,-823.2 373.12,-792.4 43.2,-792.4"/>
<text text-anchor="start" x="50.2" y="-804.6" font-family="Arial" font-size="14.00">metadata </text>
<text text-anchor="start" x="112.46" y="-804.6" font-family="Arial" font-size="14.00" fill="#666666">[jsonb]</text>
<polygon fill="none" stroke="black" points="43.2,-761.6 43.2,-792.4 373.12,-792.4 373.12,-761.6 43.2,-761.6"/>
<text text-anchor="start" x="50.2" y="-773.8" font-family="Arial" font-size="14.00">created_at </text>
<text text-anchor="start" x="120.25" y="-773.8" font-family="Arial" font-size="14.00" fill="#666666">[timestamp with time zone]</text>
<polygon fill="none" stroke="black" points="43.2,-730.8 43.2,-761.6 373.12,-761.6 373.12,-730.8 43.2,-730.8"/>
<text text-anchor="start" x="50.2" y="-743" font-family="Arial" font-size="14.00">updated_at </text>
<text text-anchor="start" x="124.16" y="-743" font-family="Arial" font-size="14.00" fill="#666666">[timestamp with time zone]</text>
<polygon fill="none" stroke="black" points="43.2,-700 43.2,-730.8 373.12,-730.8 373.12,-700 43.2,-700"/>
<text text-anchor="start" x="50.2" y="-712.2" font-family="Arial" font-size="14.00">deleted_at </text>
<text text-anchor="start" x="119.48" y="-712.2" font-family="Arial" font-size="14.00" fill="#666666">[timestamp with time zone]</text>
</g>
<!-- public.sources&#45;&gt;public.connectors -->
<g id="edge1" class="edge">
<title>public.sources:type&#45;&gt;public.connectors:name</title>
<path fill="none" stroke="black" d="M383.67,-1142.42C443.77,-1086.74 411.46,-492.8 342.14,-492.8"/>
<polygon fill="black" stroke="black" points="383.59,-1142.46 372.63,-1142.34 378.7,-1144.6 374.74,-1146.33 374.74,-1146.33 374.74,-1146.33 378.7,-1144.6 376.23,-1150.59 383.59,-1142.46"/>
<text text-anchor="start" x="381.12" y="-1156.6" font-family="Arial" font-size="10.00">FOREIGN KEY (type) REFERENCES connectors(name) ON UPDATE CASCADE ON DELETE CASCADE</text>
</g>
</g>
</svg>
