<?xml version="1.0" encoding="UTF-8" standalone="no"?>
<!DOCTYPE svg PUBLIC "-//W3C//DTD SVG 1.1//EN"
 "http://www.w3.org/Graphics/SVG/1.1/DTD/svg11.dtd">
<!-- Generated by graphviz version 12.1.2 (20240928.0832)
 -->
<!-- Title: public.credentials Pages: 1 -->
<svg width="893pt" height="1372pt"
 viewBox="0.00 0.00 892.58 1372.00" xmlns="http://www.w3.org/2000/svg" xmlns:xlink="http://www.w3.org/1999/xlink">
<g id="graph0" class="graph" transform="scale(1 1) rotate(0) translate(4 1368)">
<title>public.credentials</title>
<polygon fill="white" stroke="none" points="-4,4 -4,-1368 888.58,-1368 888.58,4 -4,4"/>
<!-- public.credentials -->
<g id="node1" class="node">
<title>public.credentials</title>
<polygon fill="#efefef" stroke="none" points="46.2,-539 46.2,-574.6 376.12,-574.6 376.12,-539 46.2,-539"/>
<polygon fill="none" stroke="black" points="46.2,-539 46.2,-574.6 376.12,-574.6 376.12,-539 46.2,-539"/>
<text text-anchor="start" x="85.19" y="-552.4" font-family="Arial Bold" font-size="18.00">public.credentials</text>
<text text-anchor="start" x="212.64" y="-552.4" font-family="Arial" font-size="14.00">    </text>
<text text-anchor="start" x="243.76" y="-552.4" font-family="Arial" font-size="14.00" fill="#666666">[BASE TABLE]</text>
<polygon fill="none" stroke="black" points="46.2,-508.2 46.2,-539 376.12,-539 376.12,-508.2 46.2,-508.2"/>
<text text-anchor="start" x="53.2" y="-520.4" font-family="Arial" font-size="14.00">id </text>
<text text-anchor="start" x="67.99" y="-520.4" font-family="Arial" font-size="14.00" fill="#666666">[uuid]</text>
<polygon fill="none" stroke="black" points="46.2,-477.4 46.2,-508.2 376.12,-508.2 376.12,-477.4 46.2,-477.4"/>
<text text-anchor="start" x="53.2" y="-489.6" font-family="Arial" font-size="14.00">name </text>
<text text-anchor="start" x="92.11" y="-489.6" font-family="Arial" font-size="14.00" fill="#666666">[text]</text>
<polygon fill="none" stroke="black" points="46.2,-446.6 46.2,-477.4 376.12,-477.4 376.12,-446.6 46.2,-446.6"/>
<text text-anchor="start" x="53.2" y="-458.8" font-family="Arial" font-size="14.00">connector_type </text>
<text text-anchor="start" x="152.82" y="-458.8" font-family="Arial" font-size="14.00" fill="#666666">[text]</text>
<polygon fill="none" stroke="black" points="46.2,-415.8 46.2,-446.6 376.12,-446.6 376.12,-415.8 46.2,-415.8"/>
<text text-anchor="start" x="53.2" y="-428" font-family="Arial" font-size="14.00">secret </text>
<text text-anchor="start" x="95.21" y="-428" font-family="Arial" font-size="14.00" fill="#666666">[text]</text>
<polygon fill="none" stroke="black" points="46.2,-385 46.2,-415.8 376.12,-415.8 376.12,-385 46.2,-385"/>
<text text-anchor="start" x="53.2" y="-397.2" font-family="Arial" font-size="14.00">credential_type </text>
<text text-anchor="start" x="152.04" y="-397.2" font-family="Arial" font-size="14.00" fill="#666666">[text]</text>
<polygon fill="none" stroke="black" points="46.2,-354.2 46.2,-385 376.12,-385 376.12,-354.2 46.2,-354.2"/>
<text text-anchor="start" x="53.2" y="-366.4" font-family="Arial" font-size="14.00">enabled </text>
<text text-anchor="start" x="106.92" y="-366.4" font-family="Arial" font-size="14.00" fill="#666666">[boolean]</text>
<polygon fill="none" stroke="black" points="46.2,-323.4 46.2,-354.2 376.12,-354.2 376.12,-323.4 46.2,-323.4"/>
<text text-anchor="start" x="53.2" y="-335.6" font-family="Arial" font-size="14.00">auto_onboard_enabled </text>
<text text-anchor="start" x="201.12" y="-335.6" font-family="Arial" font-size="14.00" fill="#666666">[boolean]</text>
<polygon fill="none" stroke="black" points="46.2,-292.6 46.2,-323.4 376.12,-323.4 376.12,-292.6 46.2,-292.6"/>
<text text-anchor="start" x="53.2" y="-304.8" font-family="Arial" font-size="14.00">last_health_check_time </text>
<text text-anchor="start" x="203.4" y="-304.8" font-family="Arial" font-size="14.00" fill="#666666">[timestamp with time zone]</text>
<polygon fill="none" stroke="black" points="46.2,-261.8 46.2,-292.6 376.12,-292.6 376.12,-261.8 46.2,-261.8"/>
<text text-anchor="start" x="53.2" y="-274" font-family="Arial" font-size="14.00">health_status </text>
<text text-anchor="start" x="140.37" y="-274" font-family="Arial" font-size="14.00" fill="#666666">[text]</text>
<polygon fill="none" stroke="black" points="46.2,-231 46.2,-261.8 376.12,-261.8 376.12,-231 46.2,-231"/>
<text text-anchor="start" x="53.2" y="-243.2" font-family="Arial" font-size="14.00">health_reason </text>
<text text-anchor="start" x="145.83" y="-243.2" font-family="Arial" font-size="14.00" fill="#666666">[text]</text>
<polygon fill="none" stroke="black" points="46.2,-200.2 46.2,-231 376.12,-231 376.12,-200.2 46.2,-200.2"/>
<text text-anchor="start" x="53.2" y="-212.4" font-family="Arial" font-size="14.00">spend_discovery </text>
<text text-anchor="start" x="162.15" y="-212.4" font-family="Arial" font-size="14.00" fill="#666666">[boolean]</text>
<polygon fill="none" stroke="black" points="46.2,-169.4 46.2,-200.2 376.12,-200.2 376.12,-169.4 46.2,-169.4"/>
<text text-anchor="start" x="53.2" y="-181.6" font-family="Arial" font-size="14.00">metadata </text>
<text text-anchor="start" x="115.46" y="-181.6" font-family="Arial" font-size="14.00" fill="#666666">[jsonb]</text>
<polygon fill="none" stroke="black" points="46.2,-138.6 46.2,-169.4 376.12,-169.4 376.12,-138.6 46.2,-138.6"/>
<text text-anchor="start" x="53.2" y="-150.8" font-family="Arial" font-size="14.00">created_at </text>
<text text-anchor="start" x="123.25" y="-150.8" font-family="Arial" font-size="14.00" fill="#666666">[timestamp with time zone]</text>
<polygon fill="none" stroke="black" points="46.2,-107.8 46.2,-138.6 376.12,-138.6 376.12,-107.8 46.2,-107.8"/>
<text text-anchor="start" x="53.2" y="-120" font-family="Arial" font-size="14.00">updated_at </text>
<text text-anchor="start" x="127.16" y="-120" font-family="Arial" font-size="14.00" fill="#666666">[timestamp with time zone]</text>
<polygon fill="none" stroke="black" points="46.2,-77 46.2,-107.8 376.12,-107.8 376.12,-77 46.2,-77"/>
<text text-anchor="start" x="53.2" y="-89.2" font-family="Arial" font-size="14.00">deleted_at </text>
<text text-anchor="start" x="122.48" y="-89.2" font-family="Arial" font-size="14.00" fill="#666666">[timestamp with time zone]</text>
<polygon fill="none" stroke="black" points="46.2,-46.2 46.2,-77 376.12,-77 376.12,-46.2 46.2,-46.2"/>
<text text-anchor="start" x="53.2" y="-58.4" font-family="Arial" font-size="14.00">version </text>
<text text-anchor="start" x="102.22" y="-58.4" font-family="Arial" font-size="14.00" fill="#666666">[bigint]</text>
<polygon fill="none" stroke="black" stroke-width="3" points="44.7,-44.7 44.7,-576.1 377.62,-576.1 377.62,-44.7 44.7,-44.7"/>
</g>
<!-- public.sources -->
<g id="node2" class="node">
<title>public.sources</title>
<polygon fill="#efefef" stroke="none" points="46.2,-1285.2 46.2,-1320.8 376.12,-1320.8 376.12,-1285.2 46.2,-1285.2"/>
<polygon fill="none" stroke="black" points="46.2,-1285.2 46.2,-1320.8 376.12,-1320.8 376.12,-1285.2 46.2,-1285.2"/>
<text text-anchor="start" x="97.18" y="-1298.6" font-family="Arial Bold" font-size="18.00">public.sources</text>
<text text-anchor="start" x="200.65" y="-1298.6" font-family="Arial" font-size="14.00">    </text>
<text text-anchor="start" x="231.77" y="-1298.6" font-family="Arial" font-size="14.00" fill="#666666">[BASE TABLE]</text>
<polygon fill="none" stroke="black" points="46.2,-1254.4 46.2,-1285.2 376.12,-1285.2 376.12,-1254.4 46.2,-1254.4"/>
<text text-anchor="start" x="53.2" y="-1266.6" font-family="Arial" font-size="14.00">id </text>
<text text-anchor="start" x="67.99" y="-1266.6" font-family="Arial" font-size="14.00" fill="#666666">[uuid]</text>
<polygon fill="none" stroke="black" points="46.2,-1223.6 46.2,-1254.4 376.12,-1254.4 376.12,-1223.6 46.2,-1223.6"/>
<text text-anchor="start" x="53.2" y="-1235.8" font-family="Arial" font-size="14.00">source_id </text>
<text text-anchor="start" x="117.79" y="-1235.8" font-family="Arial" font-size="14.00" fill="#666666">[text]</text>
<polygon fill="none" stroke="black" points="46.2,-1192.8 46.2,-1223.6 376.12,-1223.6 376.12,-1192.8 46.2,-1192.8"/>
<text text-anchor="start" x="53.2" y="-1205" font-family="Arial" font-size="14.00">name </text>
<text text-anchor="start" x="92.11" y="-1205" font-family="Arial" font-size="14.00" fill="#666666">[text]</text>
<polygon fill="none" stroke="black" points="46.2,-1162 46.2,-1192.8 376.12,-1192.8 376.12,-1162 46.2,-1162"/>
<text text-anchor="start" x="53.2" y="-1174.2" font-family="Arial" font-size="14.00">email </text>
<text text-anchor="start" x="90.54" y="-1174.2" font-family="Arial" font-size="14.00" fill="#666666">[text]</text>
<polygon fill="none" stroke="black" points="46.2,-1131.2 46.2,-1162 376.12,-1162 376.12,-1131.2 46.2,-1131.2"/>
<text text-anchor="start" x="53.2" y="-1143.4" font-family="Arial" font-size="14.00">type </text>
<text text-anchor="start" x="83.55" y="-1143.4" font-family="Arial" font-size="14.00" fill="#666666">[text]</text>
<polygon fill="none" stroke="black" points="46.2,-1100.4 46.2,-1131.2 376.12,-1131.2 376.12,-1100.4 46.2,-1100.4"/>
<text text-anchor="start" x="53.2" y="-1112.6" font-family="Arial" font-size="14.00">description </text>
<text text-anchor="start" x="124.79" y="-1112.6" font-family="Arial" font-size="14.00" fill="#666666">[text]</text>
<polygon fill="none" stroke="black" points="46.2,-1069.6 46.2,-1100.4 376.12,-1100.4 376.12,-1069.6 46.2,-1069.6"/>
<text text-anchor="start" x="53.2" y="-1081.8" font-family="Arial" font-size="14.00">credential_id </text>
<text text-anchor="start" x="136.48" y="-1081.8" font-family="Arial" font-size="14.00" fill="#666666">[uuid]</text>
<polygon fill="none" stroke="black" points="46.2,-1038.8 46.2,-1069.6 376.12,-1069.6 376.12,-1038.8 46.2,-1038.8"/>
<text text-anchor="start" x="53.2" y="-1051" font-family="Arial" font-size="14.00">lifecycle_state </text>
<text text-anchor="start" x="145.02" y="-1051" font-family="Arial" font-size="14.00" fill="#666666">[text]</text>
<polygon fill="none" stroke="black" points="46.2,-1008 46.2,-1038.8 376.12,-1038.8 376.12,-1008 46.2,-1008"/>
<text text-anchor="start" x="53.2" y="-1020.2" font-family="Arial" font-size="14.00">asset_discovery_method </text>
<text text-anchor="start" x="211.95" y="-1020.2" font-family="Arial" font-size="14.00" fill="#666666">[text]</text>
<polygon fill="none" stroke="black" points="46.2,-977.2 46.2,-1008 376.12,-1008 376.12,-977.2 46.2,-977.2"/>
<text text-anchor="start" x="53.2" y="-989.4" font-family="Arial" font-size="14.00">health_state </text>
<text text-anchor="start" x="133.37" y="-989.4" font-family="Arial" font-size="14.00" fill="#666666">[text]</text>
<polygon fill="none" stroke="black" points="46.2,-946.4 46.2,-977.2 376.12,-977.2 376.12,-946.4 46.2,-946.4"/>
<text text-anchor="start" x="53.2" y="-958.6" font-family="Arial" font-size="14.00">last_health_check_time </text>
<text text-anchor="start" x="203.4" y="-958.6" font-family="Arial" font-size="14.00" fill="#666666">[timestamp with time zone]</text>
<polygon fill="none" stroke="black" points="46.2,-915.6 46.2,-946.4 376.12,-946.4 376.12,-915.6 46.2,-915.6"/>
<text text-anchor="start" x="53.2" y="-927.8" font-family="Arial" font-size="14.00">health_reason </text>
<text text-anchor="start" x="145.83" y="-927.8" font-family="Arial" font-size="14.00" fill="#666666">[text]</text>
<polygon fill="none" stroke="black" points="46.2,-884.8 46.2,-915.6 376.12,-915.6 376.12,-884.8 46.2,-884.8"/>
<text text-anchor="start" x="53.2" y="-897" font-family="Arial" font-size="14.00">asset_discovery </text>
<text text-anchor="start" x="157.47" y="-897" font-family="Arial" font-size="14.00" fill="#666666">[boolean]</text>
<polygon fill="none" stroke="black" points="46.2,-854 46.2,-884.8 376.12,-884.8 376.12,-854 46.2,-854"/>
<text text-anchor="start" x="53.2" y="-866.2" font-family="Arial" font-size="14.00">spend_discovery </text>
<text text-anchor="start" x="162.15" y="-866.2" font-family="Arial" font-size="14.00" fill="#666666">[boolean]</text>
<polygon fill="none" stroke="black" points="46.2,-823.2 46.2,-854 376.12,-854 376.12,-823.2 46.2,-823.2"/>
<text text-anchor="start" x="53.2" y="-835.4" font-family="Arial" font-size="14.00">creation_method </text>
<text text-anchor="start" x="161.38" y="-835.4" font-family="Arial" font-size="14.00" fill="#666666">[text]</text>
<polygon fill="none" stroke="black" points="46.2,-792.4 46.2,-823.2 376.12,-823.2 376.12,-792.4 46.2,-792.4"/>
<text text-anchor="start" x="53.2" y="-804.6" font-family="Arial" font-size="14.00">metadata </text>
<text text-anchor="start" x="115.46" y="-804.6" font-family="Arial" font-size="14.00" fill="#666666">[jsonb]</text>
<polygon fill="none" stroke="black" points="46.2,-761.6 46.2,-792.4 376.12,-792.4 376.12,-761.6 46.2,-761.6"/>
<text text-anchor="start" x="53.2" y="-773.8" font-family="Arial" font-size="14.00">created_at </text>
<text text-anchor="start" x="123.25" y="-773.8" font-family="Arial" font-size="14.00" fill="#666666">[timestamp with time zone]</text>
<polygon fill="none" stroke="black" points="46.2,-730.8 46.2,-761.6 376.12,-761.6 376.12,-730.8 46.2,-730.8"/>
<text text-anchor="start" x="53.2" y="-743" font-family="Arial" font-size="14.00">updated_at </text>
<text text-anchor="start" x="127.16" y="-743" font-family="Arial" font-size="14.00" fill="#666666">[timestamp with time zone]</text>
<polygon fill="none" stroke="black" points="46.2,-700 46.2,-730.8 376.12,-730.8 376.12,-700 46.2,-700"/>
<text text-anchor="start" x="53.2" y="-712.2" font-family="Arial" font-size="14.00">deleted_at </text>
<text text-anchor="start" x="122.48" y="-712.2" font-family="Arial" font-size="14.00" fill="#666666">[timestamp with time zone]</text>
</g>
<!-- public.sources&#45;&gt;public.credentials -->
<g id="edge1" class="edge">
<title>public.sources:credential_id&#45;&gt;public.credentials:id</title>
<path fill="none" stroke="black" d="M386.47,-1080.48C439.33,-1027.35 436.21,-523.6 377.12,-523.6"/>
<polygon fill="black" stroke="black" points="386.43,-1080.5 375.47,-1080.8 381.62,-1082.82 377.73,-1084.71 377.73,-1084.71 377.73,-1084.71 381.62,-1082.82 379.38,-1088.91 386.43,-1080.5"/>
<text text-anchor="start" x="384.12" y="-1095" font-family="Arial" font-size="10.00">FOREIGN KEY (credential_id) REFERENCES credentials(id) ON UPDATE CASCADE ON DELETE SET NULL</text>
</g>
</g>
</svg>
