<?xml version="1.0" encoding="UTF-8" standalone="no"?>
<!DOCTYPE svg PUBLIC "-//W3C//DTD SVG 1.1//EN"
 "http://www.w3.org/Graphics/SVG/1.1/DTD/svg11.dtd">
<!-- Generated by graphviz version 12.1.2 (20240928.0832)
 -->
<!-- Title: public.sources Pages: 1 -->
<svg width="1335pt" height="1372pt"
 viewBox="0.00 0.00 1335.38 1372.00" xmlns="http://www.w3.org/2000/svg" xmlns:xlink="http://www.w3.org/1999/xlink">
<g id="graph0" class="graph" transform="scale(1 1) rotate(0) translate(4 1368)">
<title>public.sources</title>
<polygon fill="white" stroke="none" points="-4,4 -4,-1368 1331.38,-1368 1331.38,4 -4,4"/>
<!-- public.sources -->
<g id="node1" class="node">
<title>public.sources</title>
<polygon fill="#efefef" stroke="none" points="489,-1282.2 489,-1317.8 818.92,-1317.8 818.92,-1282.2 489,-1282.2"/>
<polygon fill="none" stroke="black" points="489,-1282.2 489,-1317.8 818.92,-1317.8 818.92,-1282.2 489,-1282.2"/>
<text text-anchor="start" x="539.98" y="-1295.6" font-family="Arial Bold" font-size="18.00">public.sources</text>
<text text-anchor="start" x="643.45" y="-1295.6" font-family="Arial" font-size="14.00">    </text>
<text text-anchor="start" x="674.57" y="-1295.6" font-family="Arial" font-size="14.00" fill="#666666">[BASE TABLE]</text>
<polygon fill="none" stroke="black" points="489,-1251.4 489,-1282.2 818.92,-1282.2 818.92,-1251.4 489,-1251.4"/>
<text text-anchor="start" x="496" y="-1263.6" font-family="Arial" font-size="14.00">id </text>
<text text-anchor="start" x="510.79" y="-1263.6" font-family="Arial" font-size="14.00" fill="#666666">[uuid]</text>
<polygon fill="none" stroke="black" points="489,-1220.6 489,-1251.4 818.92,-1251.4 818.92,-1220.6 489,-1220.6"/>
<text text-anchor="start" x="496" y="-1232.8" font-family="Arial" font-size="14.00">source_id </text>
<text text-anchor="start" x="560.59" y="-1232.8" font-family="Arial" font-size="14.00" fill="#666666">[text]</text>
<polygon fill="none" stroke="black" points="489,-1189.8 489,-1220.6 818.92,-1220.6 818.92,-1189.8 489,-1189.8"/>
<text text-anchor="start" x="496" y="-1202" font-family="Arial" font-size="14.00">name </text>
<text text-anchor="start" x="534.91" y="-1202" font-family="Arial" font-size="14.00" fill="#666666">[text]</text>
<polygon fill="none" stroke="black" points="489,-1159 489,-1189.8 818.92,-1189.8 818.92,-1159 489,-1159"/>
<text text-anchor="start" x="496" y="-1171.2" font-family="Arial" font-size="14.00">email </text>
<text text-anchor="start" x="533.34" y="-1171.2" font-family="Arial" font-size="14.00" fill="#666666">[text]</text>
<polygon fill="none" stroke="black" points="489,-1128.2 489,-1159 818.92,-1159 818.92,-1128.2 489,-1128.2"/>
<text text-anchor="start" x="496" y="-1140.4" font-family="Arial" font-size="14.00">type </text>
<text text-anchor="start" x="526.35" y="-1140.4" font-family="Arial" font-size="14.00" fill="#666666">[text]</text>
<polygon fill="none" stroke="black" points="489,-1097.4 489,-1128.2 818.92,-1128.2 818.92,-1097.4 489,-1097.4"/>
<text text-anchor="start" x="496" y="-1109.6" font-family="Arial" font-size="14.00">description </text>
<text text-anchor="start" x="567.59" y="-1109.6" font-family="Arial" font-size="14.00" fill="#666666">[text]</text>
<polygon fill="none" stroke="black" points="489,-1066.6 489,-1097.4 818.92,-1097.4 818.92,-1066.6 489,-1066.6"/>
<text text-anchor="start" x="496" y="-1078.8" font-family="Arial" font-size="14.00">credential_id </text>
<text text-anchor="start" x="579.27" y="-1078.8" font-family="Arial" font-size="14.00" fill="#666666">[uuid]</text>
<polygon fill="none" stroke="black" points="489,-1035.8 489,-1066.6 818.92,-1066.6 818.92,-1035.8 489,-1035.8"/>
<text text-anchor="start" x="496" y="-1048" font-family="Arial" font-size="14.00">lifecycle_state </text>
<text text-anchor="start" x="587.82" y="-1048" font-family="Arial" font-size="14.00" fill="#666666">[text]</text>
<polygon fill="none" stroke="black" points="489,-1005 489,-1035.8 818.92,-1035.8 818.92,-1005 489,-1005"/>
<text text-anchor="start" x="496" y="-1017.2" font-family="Arial" font-size="14.00">asset_discovery_method </text>
<text text-anchor="start" x="654.75" y="-1017.2" font-family="Arial" font-size="14.00" fill="#666666">[text]</text>
<polygon fill="none" stroke="black" points="489,-974.2 489,-1005 818.92,-1005 818.92,-974.2 489,-974.2"/>
<text text-anchor="start" x="496" y="-986.4" font-family="Arial" font-size="14.00">health_state </text>
<text text-anchor="start" x="576.17" y="-986.4" font-family="Arial" font-size="14.00" fill="#666666">[text]</text>
<polygon fill="none" stroke="black" points="489,-943.4 489,-974.2 818.92,-974.2 818.92,-943.4 489,-943.4"/>
<text text-anchor="start" x="496" y="-955.6" font-family="Arial" font-size="14.00">last_health_check_time </text>
<text text-anchor="start" x="646.2" y="-955.6" font-family="Arial" font-size="14.00" fill="#666666">[timestamp with time zone]</text>
<polygon fill="none" stroke="black" points="489,-912.6 489,-943.4 818.92,-943.4 818.92,-912.6 489,-912.6"/>
<text text-anchor="start" x="496" y="-924.8" font-family="Arial" font-size="14.00">health_reason </text>
<text text-anchor="start" x="588.63" y="-924.8" font-family="Arial" font-size="14.00" fill="#666666">[text]</text>
<polygon fill="none" stroke="black" points="489,-881.8 489,-912.6 818.92,-912.6 818.92,-881.8 489,-881.8"/>
<text text-anchor="start" x="496" y="-894" font-family="Arial" font-size="14.00">asset_discovery </text>
<text text-anchor="start" x="600.27" y="-894" font-family="Arial" font-size="14.00" fill="#666666">[boolean]</text>
<polygon fill="none" stroke="black" points="489,-851 489,-881.8 818.92,-881.8 818.92,-851 489,-851"/>
<text text-anchor="start" x="496" y="-863.2" font-family="Arial" font-size="14.00">spend_discovery </text>
<text text-anchor="start" x="604.95" y="-863.2" font-family="Arial" font-size="14.00" fill="#666666">[boolean]</text>
<polygon fill="none" stroke="black" points="489,-820.2 489,-851 818.92,-851 818.92,-820.2 489,-820.2"/>
<text text-anchor="start" x="496" y="-832.4" font-family="Arial" font-size="14.00">creation_method </text>
<text text-anchor="start" x="604.18" y="-832.4" font-family="Arial" font-size="14.00" fill="#666666">[text]</text>
<polygon fill="none" stroke="black" points="489,-789.4 489,-820.2 818.92,-820.2 818.92,-789.4 489,-789.4"/>
<text text-anchor="start" x="496" y="-801.6" font-family="Arial" font-size="14.00">metadata </text>
<text text-anchor="start" x="558.26" y="-801.6" font-family="Arial" font-size="14.00" fill="#666666">[jsonb]</text>
<polygon fill="none" stroke="black" points="489,-758.6 489,-789.4 818.92,-789.4 818.92,-758.6 489,-758.6"/>
<text text-anchor="start" x="496" y="-770.8" font-family="Arial" font-size="14.00">created_at </text>
<text text-anchor="start" x="566.05" y="-770.8" font-family="Arial" font-size="14.00" fill="#666666">[timestamp with time zone]</text>
<polygon fill="none" stroke="black" points="489,-727.8 489,-758.6 818.92,-758.6 818.92,-727.8 489,-727.8"/>
<text text-anchor="start" x="496" y="-740" font-family="Arial" font-size="14.00">updated_at </text>
<text text-anchor="start" x="569.96" y="-740" font-family="Arial" font-size="14.00" fill="#666666">[timestamp with time zone]</text>
<polygon fill="none" stroke="black" points="489,-697 489,-727.8 818.92,-727.8 818.92,-697 489,-697"/>
<text text-anchor="start" x="496" y="-709.2" font-family="Arial" font-size="14.00">deleted_at </text>
<text text-anchor="start" x="565.28" y="-709.2" font-family="Arial" font-size="14.00" fill="#666666">[timestamp with time zone]</text>
<polygon fill="none" stroke="black" stroke-width="3" points="487.5,-695.5 487.5,-1319.3 820.42,-1319.3 820.42,-695.5 487.5,-695.5"/>
</g>
<!-- public.connectors -->
<g id="node2" class="node">
<title>public.connectors</title>
<polygon fill="#efefef" stroke="none" points="319.99,-536 319.99,-571.6 585.93,-571.6 585.93,-536 319.99,-536"/>
<polygon fill="none" stroke="black" points="319.99,-536 319.99,-571.6 585.93,-571.6 585.93,-536 319.99,-536"/>
<text text-anchor="start" x="326.99" y="-549.4" font-family="Arial Bold" font-size="18.00">public.connectors</text>
<text text-anchor="start" x="454.45" y="-549.4" font-family="Arial" font-size="14.00">    </text>
<text text-anchor="start" x="485.56" y="-549.4" font-family="Arial" font-size="14.00" fill="#666666">[BASE TABLE]</text>
<polygon fill="none" stroke="black" points="319.99,-505.2 319.99,-536 585.93,-536 585.93,-505.2 319.99,-505.2"/>
<text text-anchor="start" x="326.99" y="-517.4" font-family="Arial" font-size="14.00">id </text>
<text text-anchor="start" x="341.77" y="-517.4" font-family="Arial" font-size="14.00" fill="#666666">[bigint]</text>
<polygon fill="none" stroke="black" points="319.99,-474.4 319.99,-505.2 585.93,-505.2 585.93,-474.4 319.99,-474.4"/>
<text text-anchor="start" x="326.99" y="-486.6" font-family="Arial" font-size="14.00">name </text>
<text text-anchor="start" x="365.9" y="-486.6" font-family="Arial" font-size="14.00" fill="#666666">[text]</text>
<polygon fill="none" stroke="black" points="319.99,-443.6 319.99,-474.4 585.93,-474.4 585.93,-443.6 319.99,-443.6"/>
<text text-anchor="start" x="326.99" y="-455.8" font-family="Arial" font-size="14.00">label </text>
<text text-anchor="start" x="360.46" y="-455.8" font-family="Arial" font-size="14.00" fill="#666666">[text]</text>
<polygon fill="none" stroke="black" points="319.99,-412.8 319.99,-443.6 585.93,-443.6 585.93,-412.8 319.99,-412.8"/>
<text text-anchor="start" x="326.99" y="-425" font-family="Arial" font-size="14.00">short_description </text>
<text text-anchor="start" x="437.49" y="-425" font-family="Arial" font-size="14.00" fill="#666666">[text]</text>
<polygon fill="none" stroke="black" points="319.99,-382 319.99,-412.8 585.93,-412.8 585.93,-382 319.99,-382"/>
<text text-anchor="start" x="326.99" y="-394.2" font-family="Arial" font-size="14.00">description </text>
<text text-anchor="start" x="398.58" y="-394.2" font-family="Arial" font-size="14.00" fill="#666666">[text]</text>
<polygon fill="none" stroke="black" points="319.99,-351.2 319.99,-382 585.93,-382 585.93,-351.2 319.99,-351.2"/>
<text text-anchor="start" x="326.99" y="-363.4" font-family="Arial" font-size="14.00">direction </text>
<text text-anchor="start" x="383.79" y="-363.4" font-family="Arial" font-size="14.00" fill="#666666">[text]</text>
<polygon fill="none" stroke="black" points="319.99,-320.4 319.99,-351.2 585.93,-351.2 585.93,-320.4 319.99,-320.4"/>
<text text-anchor="start" x="326.99" y="-332.6" font-family="Arial" font-size="14.00">status </text>
<text text-anchor="start" x="368.23" y="-332.6" font-family="Arial" font-size="14.00" fill="#666666">[text]</text>
<polygon fill="none" stroke="black" points="319.99,-289.6 319.99,-320.4 585.93,-320.4 585.93,-289.6 319.99,-289.6"/>
<text text-anchor="start" x="326.99" y="-301.8" font-family="Arial" font-size="14.00">tier </text>
<text text-anchor="start" x="350.32" y="-301.8" font-family="Arial" font-size="14.00" fill="#666666">[text]</text>
<polygon fill="none" stroke="black" points="319.99,-258.8 319.99,-289.6 585.93,-289.6 585.93,-258.8 319.99,-258.8"/>
<text text-anchor="start" x="326.99" y="-271" font-family="Arial" font-size="14.00">logo </text>
<text text-anchor="start" x="357.34" y="-271" font-family="Arial" font-size="14.00" fill="#666666">[text]</text>
<polygon fill="none" stroke="black" points="319.99,-228 319.99,-258.8 585.93,-258.8 585.93,-228 319.99,-228"/>
<text text-anchor="start" x="326.99" y="-240.2" font-family="Arial" font-size="14.00">auto_onboard_support </text>
<text text-anchor="start" x="471.77" y="-240.2" font-family="Arial" font-size="14.00" fill="#666666">[boolean]</text>
<polygon fill="none" stroke="black" points="319.99,-197.2 319.99,-228 585.93,-228 585.93,-197.2 319.99,-197.2"/>
<text text-anchor="start" x="326.99" y="-209.4" font-family="Arial" font-size="14.00">allow_new_connections </text>
<text text-anchor="start" x="478.75" y="-209.4" font-family="Arial" font-size="14.00" fill="#666666">[boolean]</text>
<polygon fill="none" stroke="black" points="319.99,-166.4 319.99,-197.2 585.93,-197.2 585.93,-166.4 319.99,-166.4"/>
<text text-anchor="start" x="326.99" y="-178.6" font-family="Arial" font-size="14.00">max_connection_limit </text>
<text text-anchor="start" x="465.5" y="-178.6" font-family="Arial" font-size="14.00" fill="#666666">[bigint]</text>
<polygon fill="none" stroke="black" points="319.99,-135.6 319.99,-166.4 585.93,-166.4 585.93,-135.6 319.99,-135.6"/>
<text text-anchor="start" x="326.99" y="-147.8" font-family="Arial" font-size="14.00">tags </text>
<text text-anchor="start" x="357.34" y="-147.8" font-family="Arial" font-size="14.00" fill="#666666">[jsonb]</text>
<polygon fill="none" stroke="black" points="319.99,-104.8 319.99,-135.6 585.93,-135.6 585.93,-104.8 319.99,-104.8"/>
<text text-anchor="start" x="326.99" y="-117" font-family="Arial" font-size="14.00">created_at </text>
<text text-anchor="start" x="397.03" y="-117" font-family="Arial" font-size="14.00" fill="#666666">[timestamp with time zone]</text>
<polygon fill="none" stroke="black" points="319.99,-74 319.99,-104.8 585.93,-104.8 585.93,-74 319.99,-74"/>
<text text-anchor="start" x="326.99" y="-86.2" font-family="Arial" font-size="14.00">updated_at </text>
<text text-anchor="start" x="400.94" y="-86.2" font-family="Arial" font-size="14.00" fill="#666666">[timestamp with time zone]</text>
<polygon fill="none" stroke="black" points="319.99,-43.2 319.99,-74 585.93,-74 585.93,-43.2 319.99,-43.2"/>
<text text-anchor="start" x="326.99" y="-55.4" font-family="Arial" font-size="14.00">deleted_at </text>
<text text-anchor="start" x="396.27" y="-55.4" font-family="Arial" font-size="14.00" fill="#666666">[timestamp with time zone]</text>
</g>
<!-- public.sources&#45;&gt;public.connectors -->
<g id="edge1" class="edge">
<title>public.sources:type&#45;&gt;public.connectors:name</title>
<path fill="none" stroke="black" d="M477.65,-1143.36C272.04,-1133.54 365.79,-827.6 489,-650.8 515.27,-613.09 559.55,-652.43 585.93,-614.8 617.83,-569.31 642.49,-489.8 586.93,-489.8"/>
<polygon fill="black" stroke="black" points="477.67,-1143.36 487.56,-1148.09 483,-1143.48 487.33,-1143.58 487.33,-1143.58 487.33,-1143.58 483,-1143.48 487.77,-1139.09 477.67,-1143.36"/>
<text text-anchor="start" x="7" y="-1153.6" font-family="Arial" font-size="10.00">FOREIGN KEY (type) REFERENCES connectors(name) ON UPDATE CASCADE ON DELETE CASCADE</text>
</g>
<!-- public.credentials -->
<g id="node3" class="node">
<title>public.credentials</title>
<polygon fill="#efefef" stroke="none" points="690,-536 690,-571.6 1019.92,-571.6 1019.92,-536 690,-536"/>
<polygon fill="none" stroke="black" points="690,-536 690,-571.6 1019.92,-571.6 1019.92,-536 690,-536"/>
<text text-anchor="start" x="728.99" y="-549.4" font-family="Arial Bold" font-size="18.00">public.credentials</text>
<text text-anchor="start" x="856.44" y="-549.4" font-family="Arial" font-size="14.00">    </text>
<text text-anchor="start" x="887.56" y="-549.4" font-family="Arial" font-size="14.00" fill="#666666">[BASE TABLE]</text>
<polygon fill="none" stroke="black" points="690,-505.2 690,-536 1019.92,-536 1019.92,-505.2 690,-505.2"/>
<text text-anchor="start" x="697" y="-517.4" font-family="Arial" font-size="14.00">id </text>
<text text-anchor="start" x="711.79" y="-517.4" font-family="Arial" font-size="14.00" fill="#666666">[uuid]</text>
<polygon fill="none" stroke="black" points="690,-474.4 690,-505.2 1019.92,-505.2 1019.92,-474.4 690,-474.4"/>
<text text-anchor="start" x="697" y="-486.6" font-family="Arial" font-size="14.00">name </text>
<text text-anchor="start" x="735.91" y="-486.6" font-family="Arial" font-size="14.00" fill="#666666">[text]</text>
<polygon fill="none" stroke="black" points="690,-443.6 690,-474.4 1019.92,-474.4 1019.92,-443.6 690,-443.6"/>
<text text-anchor="start" x="697" y="-455.8" font-family="Arial" font-size="14.00">connector_type </text>
<text text-anchor="start" x="796.62" y="-455.8" font-family="Arial" font-size="14.00" fill="#666666">[text]</text>
<polygon fill="none" stroke="black" points="690,-412.8 690,-443.6 1019.92,-443.6 1019.92,-412.8 690,-412.8"/>
<text text-anchor="start" x="697" y="-425" font-family="Arial" font-size="14.00">secret </text>
<text text-anchor="start" x="739.01" y="-425" font-family="Arial" font-size="14.00" fill="#666666">[text]</text>
<polygon fill="none" stroke="black" points="690,-382 690,-412.8 1019.92,-412.8 1019.92,-382 690,-382"/>
<text text-anchor="start" x="697" y="-394.2" font-family="Arial" font-size="14.00">credential_type </text>
<text text-anchor="start" x="795.84" y="-394.2" font-family="Arial" font-size="14.00" fill="#666666">[text]</text>
<polygon fill="none" stroke="black" points="690,-351.2 690,-382 1019.92,-382 1019.92,-351.2 690,-351.2"/>
<text text-anchor="start" x="697" y="-363.4" font-family="Arial" font-size="14.00">enabled </text>
<text text-anchor="start" x="750.72" y="-363.4" font-family="Arial" font-size="14.00" fill="#666666">[boolean]</text>
<polygon fill="none" stroke="black" points="690,-320.4 690,-351.2 1019.92,-351.2 1019.92,-320.4 690,-320.4"/>
<text text-anchor="start" x="697" y="-332.6" font-family="Arial" font-size="14.00">auto_onboard_enabled </text>
<text text-anchor="start" x="844.92" y="-332.6" font-family="Arial" font-size="14.00" fill="#666666">[boolean]</text>
<polygon fill="none" stroke="black" points="690,-289.6 690,-320.4 1019.92,-320.4 1019.92,-289.6 690,-289.6"/>
<text text-anchor="start" x="697" y="-301.8" font-family="Arial" font-size="14.00">last_health_check_time </text>
<text text-anchor="start" x="847.2" y="-301.8" font-family="Arial" font-size="14.00" fill="#666666">[timestamp with time zone]</text>
<polygon fill="none" stroke="black" points="690,-258.8 690,-289.6 1019.92,-289.6 1019.92,-258.8 690,-258.8"/>
<text text-anchor="start" x="697" y="-271" font-family="Arial" font-size="14.00">health_status </text>
<text text-anchor="start" x="784.17" y="-271" font-family="Arial" font-size="14.00" fill="#666666">[text]</text>
<polygon fill="none" stroke="black" points="690,-228 690,-258.8 1019.92,-258.8 1019.92,-228 690,-228"/>
<text text-anchor="start" x="697" y="-240.2" font-family="Arial" font-size="14.00">health_reason </text>
<text text-anchor="start" x="789.63" y="-240.2" font-family="Arial" font-size="14.00" fill="#666666">[text]</text>
<polygon fill="none" stroke="black" points="690,-197.2 690,-228 1019.92,-228 1019.92,-197.2 690,-197.2"/>
<text text-anchor="start" x="697" y="-209.4" font-family="Arial" font-size="14.00">spend_discovery </text>
<text text-anchor="start" x="805.95" y="-209.4" font-family="Arial" font-size="14.00" fill="#666666">[boolean]</text>
<polygon fill="none" stroke="black" points="690,-166.4 690,-197.2 1019.92,-197.2 1019.92,-166.4 690,-166.4"/>
<text text-anchor="start" x="697" y="-178.6" font-family="Arial" font-size="14.00">metadata </text>
<text text-anchor="start" x="759.26" y="-178.6" font-family="Arial" font-size="14.00" fill="#666666">[jsonb]</text>
<polygon fill="none" stroke="black" points="690,-135.6 690,-166.4 1019.92,-166.4 1019.92,-135.6 690,-135.6"/>
<text text-anchor="start" x="697" y="-147.8" font-family="Arial" font-size="14.00">created_at </text>
<text text-anchor="start" x="767.05" y="-147.8" font-family="Arial" font-size="14.00" fill="#666666">[timestamp with time zone]</text>
<polygon fill="none" stroke="black" points="690,-104.8 690,-135.6 1019.92,-135.6 1019.92,-104.8 690,-104.8"/>
<text text-anchor="start" x="697" y="-117" font-family="Arial" font-size="14.00">updated_at </text>
<text text-anchor="start" x="770.96" y="-117" font-family="Arial" font-size="14.00" fill="#666666">[timestamp with time zone]</text>
<polygon fill="none" stroke="black" points="690,-74 690,-104.8 1019.92,-104.8 1019.92,-74 690,-74"/>
<text text-anchor="start" x="697" y="-86.2" font-family="Arial" font-size="14.00">deleted_at </text>
<text text-anchor="start" x="766.28" y="-86.2" font-family="Arial" font-size="14.00" fill="#666666">[timestamp with time zone]</text>
<polygon fill="none" stroke="black" points="690,-43.2 690,-74 1019.92,-74 1019.92,-43.2 690,-43.2"/>
<text text-anchor="start" x="697" y="-55.4" font-family="Arial" font-size="14.00">version </text>
<text text-anchor="start" x="746.02" y="-55.4" font-family="Arial" font-size="14.00" fill="#666666">[bigint]</text>
</g>
<!-- public.sources&#45;&gt;public.credentials -->
<g id="edge2" class="edge">
<title>public.sources:credential_id&#45;&gt;public.credentials:id</title>
<path fill="none" stroke="black" d="M830.31,-1081.71C1008.71,-1071.7 932.81,-800.49 818.92,-650.8 782.9,-603.45 726.22,-662 690,-614.8 664.51,-581.58 647.13,-520.6 689,-520.6"/>
<polygon fill="black" stroke="black" points="830.25,-1081.72 820.13,-1077.49 824.92,-1081.86 820.59,-1081.98 820.59,-1081.98 820.59,-1081.98 824.92,-1081.86 820.38,-1086.49 830.25,-1081.72"/>
<text text-anchor="start" x="826.92" y="-1092" font-family="Arial" font-size="10.00">FOREIGN KEY (credential_id) REFERENCES credentials(id) ON UPDATE CASCADE ON DELETE SET NULL</text>
</g>
</g>
</svg>
