<?xml version="1.0" encoding="UTF-8" standalone="no"?>
<!DOCTYPE svg PUBLIC "-//W3C//DTD SVG 1.1//EN"
 "http://www.w3.org/Graphics/SVG/1.1/DTD/svg11.dtd">
<!-- Generated by graphviz version 12.1.2 (20240928.0832)
 -->
<!-- Title: onboard Pages: 1 -->
<svg width="1335pt" height="1366pt"
 viewBox="0.00 0.00 1335.38 1366.00" xmlns="http://www.w3.org/2000/svg" xmlns:xlink="http://www.w3.org/1999/xlink">
<g id="graph0" class="graph" transform="scale(1 1) rotate(0) translate(4 1362)">
<title>onboard</title>
<polygon fill="white" stroke="none" points="-4,4 -4,-1362 1331.38,-1362 1331.38,4 -4,4"/>
<!-- public.connectors -->
<g id="node1" class="node">
<title>public.connectors</title>
<polygon fill="#efefef" stroke="none" points="319.99,-536 319.99,-571.6 585.93,-571.6 585.93,-536 319.99,-536"/>
<polygon fill="none" stroke="black" points="319.99,-536 319.99,-571.6 585.93,-571.6 585.93,-536 319.99,-536"/>
<text text-anchor="start" x="326.99" y="-549.4" font-family="Arial Bold" font-size="18.00">public.connectors</text>
<text text-anchor="start" x="454.45" y="-549.4" font-family="Arial" font-size="14.00">    </text>
<text text-anchor="start" x="485.56" y="-549.4" font-family="Arial" font-size="14.00" fill="#666666">[BASE TABLE]</text>
<polygon fill="none" stroke="black" points="319.99,-505.2 319.99,-536 585.93,-536 585.93,-505.2 319.99,-505.2"/>
<text text-anchor="start" x="326.99" y="-517.4" font-family="Arial" font-size="14.00">id </text>
<text text-anchor="start" x="341.77" y="-517.4" font-family="Arial" font-size="14.00" fill="#666666">[bigint]</text>
<polygon fill="none" stroke="black" points="319.99,-474.4 319.99,-505.2 585.93,-505.2 585.93,-474.4 319.99,-474.4"/>
<text text-anchor="start" x="326.99" y="-486.6" font-family="Arial" font-size="14.00">name </text>
<text text-anchor="start" x="365.9" y="-486.6" font-family="Arial" font-size="14.00" fill="#666666">[text]</text>
<polygon fill="none" stroke="black" points="319.99,-443.6 319.99,-474.4 585.93,-474.4 585.93,-443.6 319.99,-443.6"/>
<text text-anchor="start" x="326.99" y="-455.8" font-family="Arial" font-size="14.00">label </text>
<text text-anchor="start" x="360.46" y="-455.8" font-family="Arial" font-size="14.00" fill="#666666">[text]</text>
<polygon fill="none" stroke="black" points="319.99,-412.8 319.99,-443.6 585.93,-443.6 585.93,-412.8 319.99,-412.8"/>
<text text-anchor="start" x="326.99" y="-425" font-family="Arial" font-size="14.00">short_description </text>
<text text-anchor="start" x="437.49" y="-425" font-family="Arial" font-size="14.00" fill="#666666">[text]</text>
<polygon fill="none" stroke="black" points="319.99,-382 319.99,-412.8 585.93,-412.8 585.93,-382 319.99,-382"/>
<text text-anchor="start" x="326.99" y="-394.2" font-family="Arial" font-size="14.00">description </text>
<text text-anchor="start" x="398.58" y="-394.2" font-family="Arial" font-size="14.00" fill="#666666">[text]</text>
<polygon fill="none" stroke="black" points="319.99,-351.2 319.99,-382 585.93,-382 585.93,-351.2 319.99,-351.2"/>
<text text-anchor="start" x="326.99" y="-363.4" font-family="Arial" font-size="14.00">direction </text>
<text text-anchor="start" x="383.79" y="-363.4" font-family="Arial" font-size="14.00" fill="#666666">[text]</text>
<polygon fill="none" stroke="black" points="319.99,-320.4 319.99,-351.2 585.93,-351.2 585.93,-320.4 319.99,-320.4"/>
<text text-anchor="start" x="326.99" y="-332.6" font-family="Arial" font-size="14.00">status </text>
<text text-anchor="start" x="368.23" y="-332.6" font-family="Arial" font-size="14.00" fill="#666666">[text]</text>
<polygon fill="none" stroke="black" points="319.99,-289.6 319.99,-320.4 585.93,-320.4 585.93,-289.6 319.99,-289.6"/>
<text text-anchor="start" x="326.99" y="-301.8" font-family="Arial" font-size="14.00">tier </text>
<text text-anchor="start" x="350.32" y="-301.8" font-family="Arial" font-size="14.00" fill="#666666">[text]</text>
<polygon fill="none" stroke="black" points="319.99,-258.8 319.99,-289.6 585.93,-289.6 585.93,-258.8 319.99,-258.8"/>
<text text-anchor="start" x="326.99" y="-271" font-family="Arial" font-size="14.00">logo </text>
<text text-anchor="start" x="357.34" y="-271" font-family="Arial" font-size="14.00" fill="#666666">[text]</text>
<polygon fill="none" stroke="black" points="319.99,-228 319.99,-258.8 585.93,-258.8 585.93,-228 319.99,-228"/>
<text text-anchor="start" x="326.99" y="-240.2" font-family="Arial" font-size="14.00">auto_onboard_support </text>
<text text-anchor="start" x="471.77" y="-240.2" font-family="Arial" font-size="14.00" fill="#666666">[boolean]</text>
<polygon fill="none" stroke="black" points="319.99,-197.2 319.99,-228 585.93,-228 585.93,-197.2 319.99,-197.2"/>
<text text-anchor="start" x="326.99" y="-209.4" font-family="Arial" font-size="14.00">allow_new_connections </text>
<text text-anchor="start" x="478.75" y="-209.4" font-family="Arial" font-size="14.00" fill="#666666">[boolean]</text>
<polygon fill="none" stroke="black" points="319.99,-166.4 319.99,-197.2 585.93,-197.2 585.93,-166.4 319.99,-166.4"/>
<text text-anchor="start" x="326.99" y="-178.6" font-family="Arial" font-size="14.00">max_connection_limit </text>
<text text-anchor="start" x="465.5" y="-178.6" font-family="Arial" font-size="14.00" fill="#666666">[bigint]</text>
<polygon fill="none" stroke="black" points="319.99,-135.6 319.99,-166.4 585.93,-166.4 585.93,-135.6 319.99,-135.6"/>
<text text-anchor="start" x="326.99" y="-147.8" font-family="Arial" font-size="14.00">tags </text>
<text text-anchor="start" x="357.34" y="-147.8" font-family="Arial" font-size="14.00" fill="#666666">[jsonb]</text>
<polygon fill="none" stroke="black" points="319.99,-104.8 319.99,-135.6 585.93,-135.6 585.93,-104.8 319.99,-104.8"/>
<text text-anchor="start" x="326.99" y="-117" font-family="Arial" font-size="14.00">created_at </text>
<text text-anchor="start" x="397.03" y="-117" font-family="Arial" font-size="14.00" fill="#666666">[timestamp with time zone]</text>
<polygon fill="none" stroke="black" points="319.99,-74 319.99,-104.8 585.93,-104.8 585.93,-74 319.99,-74"/>
<text text-anchor="start" x="326.99" y="-86.2" font-family="Arial" font-size="14.00">updated_at </text>
<text text-anchor="start" x="400.94" y="-86.2" font-family="Arial" font-size="14.00" fill="#666666">[timestamp with time zone]</text>
<polygon fill="none" stroke="black" points="319.99,-43.2 319.99,-74 585.93,-74 585.93,-43.2 319.99,-43.2"/>
<text text-anchor="start" x="326.99" y="-55.4" font-family="Arial" font-size="14.00">deleted_at </text>
<text text-anchor="start" x="396.27" y="-55.4" font-family="Arial" font-size="14.00" fill="#666666">[timestamp with time zone]</text>
</g>
<!-- public.credentials -->
<g id="node2" class="node">
<title>public.credentials</title>
<polygon fill="#efefef" stroke="none" points="690,-536 690,-571.6 1019.92,-571.6 1019.92,-536 690,-536"/>
<polygon fill="none" stroke="black" points="690,-536 690,-571.6 1019.92,-571.6 1019.92,-536 690,-536"/>
<text text-anchor="start" x="728.99" y="-549.4" font-family="Arial Bold" font-size="18.00">public.credentials</text>
<text text-anchor="start" x="856.44" y="-549.4" font-family="Arial" font-size="14.00">    </text>
<text text-anchor="start" x="887.56" y="-549.4" font-family="Arial" font-size="14.00" fill="#666666">[BASE TABLE]</text>
<polygon fill="none" stroke="black" points="690,-505.2 690,-536 1019.92,-536 1019.92,-505.2 690,-505.2"/>
<text text-anchor="start" x="697" y="-517.4" font-family="Arial" font-size="14.00">id </text>
<text text-anchor="start" x="711.79" y="-517.4" font-family="Arial" font-size="14.00" fill="#666666">[uuid]</text>
<polygon fill="none" stroke="black" points="690,-474.4 690,-505.2 1019.92,-505.2 1019.92,-474.4 690,-474.4"/>
<text text-anchor="start" x="697" y="-486.6" font-family="Arial" font-size="14.00">name </text>
<text text-anchor="start" x="735.91" y="-486.6" font-family="Arial" font-size="14.00" fill="#666666">[text]</text>
<polygon fill="none" stroke="black" points="690,-443.6 690,-474.4 1019.92,-474.4 1019.92,-443.6 690,-443.6"/>
<text text-anchor="start" x="697" y="-455.8" font-family="Arial" font-size="14.00">connector_type </text>
<text text-anchor="start" x="796.62" y="-455.8" font-family="Arial" font-size="14.00" fill="#666666">[text]</text>
<polygon fill="none" stroke="black" points="690,-412.8 690,-443.6 1019.92,-443.6 1019.92,-412.8 690,-412.8"/>
<text text-anchor="start" x="697" y="-425" font-family="Arial" font-size="14.00">secret </text>
<text text-anchor="start" x="739.01" y="-425" font-family="Arial" font-size="14.00" fill="#666666">[text]</text>
<polygon fill="none" stroke="black" points="690,-382 690,-412.8 1019.92,-412.8 1019.92,-382 690,-382"/>
<text text-anchor="start" x="697" y="-394.2" font-family="Arial" font-size="14.00">credential_type </text>
<text text-anchor="start" x="795.84" y="-394.2" font-family="Arial" font-size="14.00" fill="#666666">[text]</text>
<polygon fill="none" stroke="black" points="690,-351.2 690,-382 1019.92,-382 1019.92,-351.2 690,-351.2"/>
<text text-anchor="start" x="697" y="-363.4" font-family="Arial" font-size="14.00">enabled </text>
<text text-anchor="start" x="750.72" y="-363.4" font-family="Arial" font-size="14.00" fill="#666666">[boolean]</text>
<polygon fill="none" stroke="black" points="690,-320.4 690,-351.2 1019.92,-351.2 1019.92,-320.4 690,-320.4"/>
<text text-anchor="start" x="697" y="-332.6" font-family="Arial" font-size="14.00">auto_onboard_enabled </text>
<text text-anchor="start" x="844.92" y="-332.6" font-family="Arial" font-size="14.00" fill="#666666">[boolean]</text>
<polygon fill="none" stroke="black" points="690,-289.6 690,-320.4 1019.92,-320.4 1019.92,-289.6 690,-289.6"/>
<text text-anchor="start" x="697" y="-301.8" font-family="Arial" font-size="14.00">last_health_check_time </text>
<text text-anchor="start" x="847.2" y="-301.8" font-family="Arial" font-size="14.00" fill="#666666">[timestamp with time zone]</text>
<polygon fill="none" stroke="black" points="690,-258.8 690,-289.6 1019.92,-289.6 1019.92,-258.8 690,-258.8"/>
<text text-anchor="start" x="697" y="-271" font-family="Arial" font-size="14.00">health_status </text>
<text text-anchor="start" x="784.17" y="-271" font-family="Arial" font-size="14.00" fill="#666666">[text]</text>
<polygon fill="none" stroke="black" points="690,-228 690,-258.8 1019.92,-258.8 1019.92,-228 690,-228"/>
<text text-anchor="start" x="697" y="-240.2" font-family="Arial" font-size="14.00">health_reason </text>
<text text-anchor="start" x="789.63" y="-240.2" font-family="Arial" font-size="14.00" fill="#666666">[text]</text>
<polygon fill="none" stroke="black" points="690,-197.2 690,-228 1019.92,-228 1019.92,-197.2 690,-197.2"/>
<text text-anchor="start" x="697" y="-209.4" font-family="Arial" font-size="14.00">spend_discovery </text>
<text text-anchor="start" x="805.95" y="-209.4" font-family="Arial" font-size="14.00" fill="#666666">[boolean]</text>
<polygon fill="none" stroke="black" points="690,-166.4 690,-197.2 1019.92,-197.2 1019.92,-166.4 690,-166.4"/>
<text text-anchor="start" x="697" y="-178.6" font-family="Arial" font-size="14.00">metadata </text>
<text text-anchor="start" x="759.26" y="-178.6" font-family="Arial" font-size="14.00" fill="#666666">[jsonb]</text>
<polygon fill="none" stroke="black" points="690,-135.6 690,-166.4 1019.92,-166.4 1019.92,-135.6 690,-135.6"/>
<text text-anchor="start" x="697" y="-147.8" font-family="Arial" font-size="14.00">created_at </text>
<text text-anchor="start" x="767.05" y="-147.8" font-family="Arial" font-size="14.00" fill="#666666">[timestamp with time zone]</text>
<polygon fill="none" stroke="black" points="690,-104.8 690,-135.6 1019.92,-135.6 1019.92,-104.8 690,-104.8"/>
<text text-anchor="start" x="697" y="-117" font-family="Arial" font-size="14.00">updated_at </text>
<text text-anchor="start" x="770.96" y="-117" font-family="Arial" font-size="14.00" fill="#666666">[timestamp with time zone]</text>
<polygon fill="none" stroke="black" points="690,-74 690,-104.8 1019.92,-104.8 1019.92,-74 690,-74"/>
<text text-anchor="start" x="697" y="-86.2" font-family="Arial" font-size="14.00">deleted_at </text>
<text text-anchor="start" x="766.28" y="-86.2" font-family="Arial" font-size="14.00" fill="#666666">[timestamp with time zone]</text>
<polygon fill="none" stroke="black" points="690,-43.2 690,-74 1019.92,-74 1019.92,-43.2 690,-43.2"/>
<text text-anchor="start" x="697" y="-55.4" font-family="Arial" font-size="14.00">version </text>
<text text-anchor="start" x="746.02" y="-55.4" font-family="Arial" font-size="14.00" fill="#666666">[bigint]</text>
</g>
<!-- public.sources -->
<g id="node3" class="node">
<title>public.sources</title>
<polygon fill="#efefef" stroke="none" points="489,-1279.2 489,-1314.8 818.92,-1314.8 818.92,-1279.2 489,-1279.2"/>
<polygon fill="none" stroke="black" points="489,-1279.2 489,-1314.8 818.92,-1314.8 818.92,-1279.2 489,-1279.2"/>
<text text-anchor="start" x="539.98" y="-1292.6" font-family="Arial Bold" font-size="18.00">public.sources</text>
<text text-anchor="start" x="643.45" y="-1292.6" font-family="Arial" font-size="14.00">    </text>
<text text-anchor="start" x="674.57" y="-1292.6" font-family="Arial" font-size="14.00" fill="#666666">[BASE TABLE]</text>
<polygon fill="none" stroke="black" points="489,-1248.4 489,-1279.2 818.92,-1279.2 818.92,-1248.4 489,-1248.4"/>
<text text-anchor="start" x="496" y="-1260.6" font-family="Arial" font-size="14.00">id </text>
<text text-anchor="start" x="510.79" y="-1260.6" font-family="Arial" font-size="14.00" fill="#666666">[uuid]</text>
<polygon fill="none" stroke="black" points="489,-1217.6 489,-1248.4 818.92,-1248.4 818.92,-1217.6 489,-1217.6"/>
<text text-anchor="start" x="496" y="-1229.8" font-family="Arial" font-size="14.00">source_id </text>
<text text-anchor="start" x="560.59" y="-1229.8" font-family="Arial" font-size="14.00" fill="#666666">[text]</text>
<polygon fill="none" stroke="black" points="489,-1186.8 489,-1217.6 818.92,-1217.6 818.92,-1186.8 489,-1186.8"/>
<text text-anchor="start" x="496" y="-1199" font-family="Arial" font-size="14.00">name </text>
<text text-anchor="start" x="534.91" y="-1199" font-family="Arial" font-size="14.00" fill="#666666">[text]</text>
<polygon fill="none" stroke="black" points="489,-1156 489,-1186.8 818.92,-1186.8 818.92,-1156 489,-1156"/>
<text text-anchor="start" x="496" y="-1168.2" font-family="Arial" font-size="14.00">email </text>
<text text-anchor="start" x="533.34" y="-1168.2" font-family="Arial" font-size="14.00" fill="#666666">[text]</text>
<polygon fill="none" stroke="black" points="489,-1125.2 489,-1156 818.92,-1156 818.92,-1125.2 489,-1125.2"/>
<text text-anchor="start" x="496" y="-1137.4" font-family="Arial" font-size="14.00">type </text>
<text text-anchor="start" x="526.35" y="-1137.4" font-family="Arial" font-size="14.00" fill="#666666">[text]</text>
<polygon fill="none" stroke="black" points="489,-1094.4 489,-1125.2 818.92,-1125.2 818.92,-1094.4 489,-1094.4"/>
<text text-anchor="start" x="496" y="-1106.6" font-family="Arial" font-size="14.00">description </text>
<text text-anchor="start" x="567.59" y="-1106.6" font-family="Arial" font-size="14.00" fill="#666666">[text]</text>
<polygon fill="none" stroke="black" points="489,-1063.6 489,-1094.4 818.92,-1094.4 818.92,-1063.6 489,-1063.6"/>
<text text-anchor="start" x="496" y="-1075.8" font-family="Arial" font-size="14.00">credential_id </text>
<text text-anchor="start" x="579.27" y="-1075.8" font-family="Arial" font-size="14.00" fill="#666666">[uuid]</text>
<polygon fill="none" stroke="black" points="489,-1032.8 489,-1063.6 818.92,-1063.6 818.92,-1032.8 489,-1032.8"/>
<text text-anchor="start" x="496" y="-1045" font-family="Arial" font-size="14.00">lifecycle_state </text>
<text text-anchor="start" x="587.82" y="-1045" font-family="Arial" font-size="14.00" fill="#666666">[text]</text>
<polygon fill="none" stroke="black" points="489,-1002 489,-1032.8 818.92,-1032.8 818.92,-1002 489,-1002"/>
<text text-anchor="start" x="496" y="-1014.2" font-family="Arial" font-size="14.00">asset_discovery_method </text>
<text text-anchor="start" x="654.75" y="-1014.2" font-family="Arial" font-size="14.00" fill="#666666">[text]</text>
<polygon fill="none" stroke="black" points="489,-971.2 489,-1002 818.92,-1002 818.92,-971.2 489,-971.2"/>
<text text-anchor="start" x="496" y="-983.4" font-family="Arial" font-size="14.00">health_state </text>
<text text-anchor="start" x="576.17" y="-983.4" font-family="Arial" font-size="14.00" fill="#666666">[text]</text>
<polygon fill="none" stroke="black" points="489,-940.4 489,-971.2 818.92,-971.2 818.92,-940.4 489,-940.4"/>
<text text-anchor="start" x="496" y="-952.6" font-family="Arial" font-size="14.00">last_health_check_time </text>
<text text-anchor="start" x="646.2" y="-952.6" font-family="Arial" font-size="14.00" fill="#666666">[timestamp with time zone]</text>
<polygon fill="none" stroke="black" points="489,-909.6 489,-940.4 818.92,-940.4 818.92,-909.6 489,-909.6"/>
<text text-anchor="start" x="496" y="-921.8" font-family="Arial" font-size="14.00">health_reason </text>
<text text-anchor="start" x="588.63" y="-921.8" font-family="Arial" font-size="14.00" fill="#666666">[text]</text>
<polygon fill="none" stroke="black" points="489,-878.8 489,-909.6 818.92,-909.6 818.92,-878.8 489,-878.8"/>
<text text-anchor="start" x="496" y="-891" font-family="Arial" font-size="14.00">asset_discovery </text>
<text text-anchor="start" x="600.27" y="-891" font-family="Arial" font-size="14.00" fill="#666666">[boolean]</text>
<polygon fill="none" stroke="black" points="489,-848 489,-878.8 818.92,-878.8 818.92,-848 489,-848"/>
<text text-anchor="start" x="496" y="-860.2" font-family="Arial" font-size="14.00">spend_discovery </text>
<text text-anchor="start" x="604.95" y="-860.2" font-family="Arial" font-size="14.00" fill="#666666">[boolean]</text>
<polygon fill="none" stroke="black" points="489,-817.2 489,-848 818.92,-848 818.92,-817.2 489,-817.2"/>
<text text-anchor="start" x="496" y="-829.4" font-family="Arial" font-size="14.00">creation_method </text>
<text text-anchor="start" x="604.18" y="-829.4" font-family="Arial" font-size="14.00" fill="#666666">[text]</text>
<polygon fill="none" stroke="black" points="489,-786.4 489,-817.2 818.92,-817.2 818.92,-786.4 489,-786.4"/>
<text text-anchor="start" x="496" y="-798.6" font-family="Arial" font-size="14.00">metadata </text>
<text text-anchor="start" x="558.26" y="-798.6" font-family="Arial" font-size="14.00" fill="#666666">[jsonb]</text>
<polygon fill="none" stroke="black" points="489,-755.6 489,-786.4 818.92,-786.4 818.92,-755.6 489,-755.6"/>
<text text-anchor="start" x="496" y="-767.8" font-family="Arial" font-size="14.00">created_at </text>
<text text-anchor="start" x="566.05" y="-767.8" font-family="Arial" font-size="14.00" fill="#666666">[timestamp with time zone]</text>
<polygon fill="none" stroke="black" points="489,-724.8 489,-755.6 818.92,-755.6 818.92,-724.8 489,-724.8"/>
<text text-anchor="start" x="496" y="-737" font-family="Arial" font-size="14.00">updated_at </text>
<text text-anchor="start" x="569.96" y="-737" font-family="Arial" font-size="14.00" fill="#666666">[timestamp with time zone]</text>
<polygon fill="none" stroke="black" points="489,-694 489,-724.8 818.92,-724.8 818.92,-694 489,-694"/>
<text text-anchor="start" x="496" y="-706.2" font-family="Arial" font-size="14.00">deleted_at </text>
<text text-anchor="start" x="565.28" y="-706.2" font-family="Arial" font-size="14.00" fill="#666666">[timestamp with time zone]</text>
</g>
<!-- public.sources&#45;&gt;public.connectors -->
<g id="edge1" class="edge">
<title>public.sources:type&#45;&gt;public.connectors:name</title>
<path fill="none" stroke="black" d="M477.72,-1140.36C273.35,-1130.61 366.54,-826.52 489,-650.8 515.27,-613.09 559.55,-652.43 585.93,-614.8 617.83,-569.31 642.49,-489.8 586.93,-489.8"/>
<polygon fill="black" stroke="black" points="477.67,-1140.36 487.56,-1145.09 483,-1140.48 487.33,-1140.58 487.33,-1140.58 487.33,-1140.58 483,-1140.48 487.77,-1136.09 477.67,-1140.36"/>
<text text-anchor="start" x="7" y="-1150.6" font-family="Arial" font-size="10.00">FOREIGN KEY (type) REFERENCES connectors(name) ON UPDATE CASCADE ON DELETE CASCADE</text>
</g>
<!-- public.sources&#45;&gt;public.credentials -->
<g id="edge2" class="edge">
<title>public.sources:credential_id&#45;&gt;public.credentials:id</title>
<path fill="none" stroke="black" d="M828.75,-1073.77C864.75,-1027.28 845.76,-686.08 818.92,-650.8 782.9,-603.46 726.22,-662 690,-614.8 664.51,-581.58 647.13,-520.6 689,-520.6"/>
<polygon fill="black" stroke="black" points="828.81,-1073.73 817.92,-1074.96 824.22,-1076.45 820.5,-1078.66 820.5,-1078.66 820.5,-1078.66 824.22,-1076.45 822.5,-1082.7 828.81,-1073.73"/>
<text text-anchor="start" x="826.92" y="-1089" font-family="Arial" font-size="10.00">FOREIGN KEY (credential_id) REFERENCES credentials(id) ON UPDATE CASCADE ON DELETE SET NULL</text>
</g>
<!-- public.connection_groups -->
<g id="node4" class="node">
<title>public.connection_groups</title>
<polygon fill="#efefef" stroke="none" points="923.49,-1017.4 923.49,-1053 1248.44,-1053 1248.44,-1017.4 923.49,-1017.4"/>
<polygon fill="none" stroke="black" points="923.49,-1017.4 923.49,-1053 1248.44,-1053 1248.44,-1017.4 923.49,-1017.4"/>
<text text-anchor="start" x="930.49" y="-1030.8" font-family="Arial Bold" font-size="18.00">public.connection_groups</text>
<text text-anchor="start" x="1116.95" y="-1030.8" font-family="Arial" font-size="14.00">    </text>
<text text-anchor="start" x="1148.06" y="-1030.8" font-family="Arial" font-size="14.00" fill="#666666">[BASE TABLE]</text>
<polygon fill="none" stroke="black" points="923.49,-986.6 923.49,-1017.4 1248.44,-1017.4 1248.44,-986.6 923.49,-986.6"/>
<text text-anchor="start" x="930.49" y="-998.8" font-family="Arial" font-size="14.00">name </text>
<text text-anchor="start" x="969.4" y="-998.8" font-family="Arial" font-size="14.00" fill="#666666">[text]</text>
<polygon fill="none" stroke="black" points="923.49,-955.8 923.49,-986.6 1248.44,-986.6 1248.44,-955.8 923.49,-955.8"/>
<text text-anchor="start" x="930.49" y="-968" font-family="Arial" font-size="14.00">query </text>
<text text-anchor="start" x="969.4" y="-968" font-family="Arial" font-size="14.00" fill="#666666">[text]</text>
</g>
</g>
</svg>
