<?xml version="1.0" encoding="UTF-8" standalone="no"?>
<!DOCTYPE svg PUBLIC "-//W3C//DTD SVG 1.1//EN"
 "http://www.w3.org/Graphics/SVG/1.1/DTD/svg11.dtd">
<!-- Generated by graphviz version 12.1.2 (20240928.0832)
 -->
<!-- Title: auth Pages: 1 -->
<svg width="1472pt" height="561pt"
 viewBox="0.00 0.00 1472.21 561.20" xmlns="http://www.w3.org/2000/svg" xmlns:xlink="http://www.w3.org/1999/xlink">
<g id="graph0" class="graph" transform="scale(1 1) rotate(0) translate(4 557.2)">
<title>auth</title>
<polygon fill="white" stroke="none" points="-4,4 -4,-557.2 1468.21,-557.2 1468.21,4 -4,4"/>
<!-- public.api_keys -->
<g id="node1" class="node">
<title>public.api_keys</title>
<polygon fill="#efefef" stroke="none" points="43.2,-412.8 43.2,-448.4 296.88,-448.4 296.88,-412.8 43.2,-412.8"/>
<polygon fill="none" stroke="black" points="43.2,-412.8 43.2,-448.4 296.88,-448.4 296.88,-412.8 43.2,-412.8"/>
<text text-anchor="start" x="51.06" y="-426.2" font-family="Arial Bold" font-size="18.00">public.api_keys</text>
<text text-anchor="start" x="164.53" y="-426.2" font-family="Arial" font-size="14.00">    </text>
<text text-anchor="start" x="195.65" y="-426.2" font-family="Arial" font-size="14.00" fill="#666666">[BASE TABLE]</text>
<polygon fill="none" stroke="black" points="43.2,-382 43.2,-412.8 296.88,-412.8 296.88,-382 43.2,-382"/>
<text text-anchor="start" x="50.2" y="-394.2" font-family="Arial" font-size="14.00">id </text>
<text text-anchor="start" x="64.99" y="-394.2" font-family="Arial" font-size="14.00" fill="#666666">[bigint]</text>
<polygon fill="none" stroke="black" points="43.2,-351.2 43.2,-382 296.88,-382 296.88,-351.2 43.2,-351.2"/>
<text text-anchor="start" x="50.2" y="-363.4" font-family="Arial" font-size="14.00">created_at </text>
<text text-anchor="start" x="120.25" y="-363.4" font-family="Arial" font-size="14.00" fill="#666666">[timestamp with time zone]</text>
<polygon fill="none" stroke="black" points="43.2,-320.4 43.2,-351.2 296.88,-351.2 296.88,-320.4 43.2,-320.4"/>
<text text-anchor="start" x="50.2" y="-332.6" font-family="Arial" font-size="14.00">updated_at </text>
<text text-anchor="start" x="124.16" y="-332.6" font-family="Arial" font-size="14.00" fill="#666666">[timestamp with time zone]</text>
<polygon fill="none" stroke="black" points="43.2,-289.6 43.2,-320.4 296.88,-320.4 296.88,-289.6 43.2,-289.6"/>
<text text-anchor="start" x="50.2" y="-301.8" font-family="Arial" font-size="14.00">deleted_at </text>
<text text-anchor="start" x="119.48" y="-301.8" font-family="Arial" font-size="14.00" fill="#666666">[timestamp with time zone]</text>
<polygon fill="none" stroke="black" points="43.2,-258.8 43.2,-289.6 296.88,-289.6 296.88,-258.8 43.2,-258.8"/>
<text text-anchor="start" x="50.2" y="-271" font-family="Arial" font-size="14.00">name </text>
<text text-anchor="start" x="89.11" y="-271" font-family="Arial" font-size="14.00" fill="#666666">[text]</text>
<polygon fill="none" stroke="black" points="43.2,-228 43.2,-258.8 296.88,-258.8 296.88,-228 43.2,-228"/>
<text text-anchor="start" x="50.2" y="-240.2" font-family="Arial" font-size="14.00">role </text>
<text text-anchor="start" x="77.43" y="-240.2" font-family="Arial" font-size="14.00" fill="#666666">[text]</text>
<polygon fill="none" stroke="black" points="43.2,-197.2 43.2,-228 296.88,-228 296.88,-197.2 43.2,-197.2"/>
<text text-anchor="start" x="50.2" y="-209.4" font-family="Arial" font-size="14.00">creator_user_id </text>
<text text-anchor="start" x="151.37" y="-209.4" font-family="Arial" font-size="14.00" fill="#666666">[text]</text>
<polygon fill="none" stroke="black" points="43.2,-166.4 43.2,-197.2 296.88,-197.2 296.88,-166.4 43.2,-166.4"/>
<text text-anchor="start" x="50.2" y="-178.6" font-family="Arial" font-size="14.00">is_active </text>
<text text-anchor="start" x="108.56" y="-178.6" font-family="Arial" font-size="14.00" fill="#666666">[boolean]</text>
<polygon fill="none" stroke="black" points="43.2,-135.6 43.2,-166.4 296.88,-166.4 296.88,-135.6 43.2,-135.6"/>
<text text-anchor="start" x="50.2" y="-147.8" font-family="Arial" font-size="14.00">key_hash </text>
<text text-anchor="start" x="114.02" y="-147.8" font-family="Arial" font-size="14.00" fill="#666666">[text]</text>
<polygon fill="none" stroke="black" points="43.2,-104.8 43.2,-135.6 296.88,-135.6 296.88,-104.8 43.2,-104.8"/>
<text text-anchor="start" x="50.2" y="-117" font-family="Arial" font-size="14.00">masked_key </text>
<text text-anchor="start" x="132.68" y="-117" font-family="Arial" font-size="14.00" fill="#666666">[text]</text>
</g>
<!-- public.users -->
<g id="node2" class="node">
<title>public.users</title>
<polygon fill="#efefef" stroke="none" points="401.2,-474.4 401.2,-510 654.88,-510 654.88,-474.4 401.2,-474.4"/>
<polygon fill="none" stroke="black" points="401.2,-474.4 401.2,-510 654.88,-510 654.88,-474.4 401.2,-474.4"/>
<text text-anchor="start" x="422.55" y="-487.8" font-family="Arial Bold" font-size="18.00">public.users</text>
<text text-anchor="start" x="509.04" y="-487.8" font-family="Arial" font-size="14.00">    </text>
<text text-anchor="start" x="540.16" y="-487.8" font-family="Arial" font-size="14.00" fill="#666666">[BASE TABLE]</text>
<polygon fill="none" stroke="black" points="401.2,-443.6 401.2,-474.4 654.88,-474.4 654.88,-443.6 401.2,-443.6"/>
<text text-anchor="start" x="408.2" y="-455.8" font-family="Arial" font-size="14.00">id </text>
<text text-anchor="start" x="422.99" y="-455.8" font-family="Arial" font-size="14.00" fill="#666666">[bigint]</text>
<polygon fill="none" stroke="black" points="401.2,-412.8 401.2,-443.6 654.88,-443.6 654.88,-412.8 401.2,-412.8"/>
<text text-anchor="start" x="408.2" y="-425" font-family="Arial" font-size="14.00">created_at </text>
<text text-anchor="start" x="478.25" y="-425" font-family="Arial" font-size="14.00" fill="#666666">[timestamp with time zone]</text>
<polygon fill="none" stroke="black" points="401.2,-382 401.2,-412.8 654.88,-412.8 654.88,-382 401.2,-382"/>
<text text-anchor="start" x="408.2" y="-394.2" font-family="Arial" font-size="14.00">updated_at </text>
<text text-anchor="start" x="482.16" y="-394.2" font-family="Arial" font-size="14.00" fill="#666666">[timestamp with time zone]</text>
<polygon fill="none" stroke="black" points="401.2,-351.2 401.2,-382 654.88,-382 654.88,-351.2 401.2,-351.2"/>
<text text-anchor="start" x="408.2" y="-363.4" font-family="Arial" font-size="14.00">deleted_at </text>
<text text-anchor="start" x="477.48" y="-363.4" font-family="Arial" font-size="14.00" fill="#666666">[timestamp with time zone]</text>
<polygon fill="none" stroke="black" points="401.2,-320.4 401.2,-351.2 654.88,-351.2 654.88,-320.4 401.2,-320.4"/>
<text text-anchor="start" x="408.2" y="-332.6" font-family="Arial" font-size="14.00">email </text>
<text text-anchor="start" x="445.54" y="-332.6" font-family="Arial" font-size="14.00" fill="#666666">[text]</text>
<polygon fill="none" stroke="black" points="401.2,-289.6 401.2,-320.4 654.88,-320.4 654.88,-289.6 401.2,-289.6"/>
<text text-anchor="start" x="408.2" y="-301.8" font-family="Arial" font-size="14.00">email_verified </text>
<text text-anchor="start" x="498.46" y="-301.8" font-family="Arial" font-size="14.00" fill="#666666">[boolean]</text>
<polygon fill="none" stroke="black" points="401.2,-258.8 401.2,-289.6 654.88,-289.6 654.88,-258.8 401.2,-258.8"/>
<text text-anchor="start" x="408.2" y="-271" font-family="Arial" font-size="14.00">full_name </text>
<text text-anchor="start" x="472.79" y="-271" font-family="Arial" font-size="14.00" fill="#666666">[text]</text>
<polygon fill="none" stroke="black" points="401.2,-228 401.2,-258.8 654.88,-258.8 654.88,-228 401.2,-228"/>
<text text-anchor="start" x="408.2" y="-240.2" font-family="Arial" font-size="14.00">role </text>
<text text-anchor="start" x="435.43" y="-240.2" font-family="Arial" font-size="14.00" fill="#666666">[text]</text>
<polygon fill="none" stroke="black" points="401.2,-197.2 401.2,-228 654.88,-228 654.88,-197.2 401.2,-197.2"/>
<text text-anchor="start" x="408.2" y="-209.4" font-family="Arial" font-size="14.00">connector_id </text>
<text text-anchor="start" x="492.25" y="-209.4" font-family="Arial" font-size="14.00" fill="#666666">[text]</text>
<polygon fill="none" stroke="black" points="401.2,-166.4 401.2,-197.2 654.88,-197.2 654.88,-166.4 401.2,-166.4"/>
<text text-anchor="start" x="408.2" y="-178.6" font-family="Arial" font-size="14.00">external_id </text>
<text text-anchor="start" x="480.58" y="-178.6" font-family="Arial" font-size="14.00" fill="#666666">[text]</text>
<polygon fill="none" stroke="black" points="401.2,-135.6 401.2,-166.4 654.88,-166.4 654.88,-135.6 401.2,-135.6"/>
<text text-anchor="start" x="408.2" y="-147.8" font-family="Arial" font-size="14.00">last_login </text>
<text text-anchor="start" x="471.24" y="-147.8" font-family="Arial" font-size="14.00" fill="#666666">[timestamp with time zone]</text>
<polygon fill="none" stroke="black" points="401.2,-104.8 401.2,-135.6 654.88,-135.6 654.88,-104.8 401.2,-104.8"/>
<text text-anchor="start" x="408.2" y="-117" font-family="Arial" font-size="14.00">username </text>
<text text-anchor="start" x="474.34" y="-117" font-family="Arial" font-size="14.00" fill="#666666">[text]</text>
<polygon fill="none" stroke="black" points="401.2,-74 401.2,-104.8 654.88,-104.8 654.88,-74 401.2,-74"/>
<text text-anchor="start" x="408.2" y="-86.2" font-family="Arial" font-size="14.00">require_password_change </text>
<text text-anchor="start" x="577.09" y="-86.2" font-family="Arial" font-size="14.00" fill="#666666">[boolean]</text>
<polygon fill="none" stroke="black" points="401.2,-43.2 401.2,-74 654.88,-74 654.88,-43.2 401.2,-43.2"/>
<text text-anchor="start" x="408.2" y="-55.4" font-family="Arial" font-size="14.00">is_active </text>
<text text-anchor="start" x="466.56" y="-55.4" font-family="Arial" font-size="14.00" fill="#666666">[boolean]</text>
</g>
<!-- public.configurations -->
<g id="node3" class="node">
<title>public.configurations</title>
<polygon fill="#efefef" stroke="none" points="759.06,-351.2 759.06,-386.8 1051.02,-386.8 1051.02,-351.2 759.06,-351.2"/>
<polygon fill="none" stroke="black" points="759.06,-351.2 759.06,-386.8 1051.02,-386.8 1051.02,-351.2 759.06,-351.2"/>
<text text-anchor="start" x="766.06" y="-364.6" font-family="Arial Bold" font-size="18.00">public.configurations</text>
<text text-anchor="start" x="919.53" y="-364.6" font-family="Arial" font-size="14.00">    </text>
<text text-anchor="start" x="950.65" y="-364.6" font-family="Arial" font-size="14.00" fill="#666666">[BASE TABLE]</text>
<polygon fill="none" stroke="black" points="759.06,-320.4 759.06,-351.2 1051.02,-351.2 1051.02,-320.4 759.06,-320.4"/>
<text text-anchor="start" x="766.06" y="-332.6" font-family="Arial" font-size="14.00">id </text>
<text text-anchor="start" x="780.85" y="-332.6" font-family="Arial" font-size="14.00" fill="#666666">[bigint]</text>
<polygon fill="none" stroke="black" points="759.06,-289.6 759.06,-320.4 1051.02,-320.4 1051.02,-289.6 759.06,-289.6"/>
<text text-anchor="start" x="766.06" y="-301.8" font-family="Arial" font-size="14.00">created_at </text>
<text text-anchor="start" x="836.11" y="-301.8" font-family="Arial" font-size="14.00" fill="#666666">[timestamp with time zone]</text>
<polygon fill="none" stroke="black" points="759.06,-258.8 759.06,-289.6 1051.02,-289.6 1051.02,-258.8 759.06,-258.8"/>
<text text-anchor="start" x="766.06" y="-271" font-family="Arial" font-size="14.00">updated_at </text>
<text text-anchor="start" x="840.02" y="-271" font-family="Arial" font-size="14.00" fill="#666666">[timestamp with time zone]</text>
<polygon fill="none" stroke="black" points="759.06,-228 759.06,-258.8 1051.02,-258.8 1051.02,-228 759.06,-228"/>
<text text-anchor="start" x="766.06" y="-240.2" font-family="Arial" font-size="14.00">deleted_at </text>
<text text-anchor="start" x="835.35" y="-240.2" font-family="Arial" font-size="14.00" fill="#666666">[timestamp with time zone]</text>
<polygon fill="none" stroke="black" points="759.06,-197.2 759.06,-228 1051.02,-228 1051.02,-197.2 759.06,-197.2"/>
<text text-anchor="start" x="766.06" y="-209.4" font-family="Arial" font-size="14.00">key </text>
<text text-anchor="start" x="791.74" y="-209.4" font-family="Arial" font-size="14.00" fill="#666666">[text]</text>
<polygon fill="none" stroke="black" points="759.06,-166.4 759.06,-197.2 1051.02,-197.2 1051.02,-166.4 759.06,-166.4"/>
<text text-anchor="start" x="766.06" y="-178.6" font-family="Arial" font-size="14.00">value </text>
<text text-anchor="start" x="803.42" y="-178.6" font-family="Arial" font-size="14.00" fill="#666666">[text]</text>
</g>
<!-- public.connectors -->
<g id="node4" class="node">
<title>public.connectors</title>
<polygon fill="#efefef" stroke="none" points="1155.07,-397.4 1155.07,-433 1421.01,-433 1421.01,-397.4 1155.07,-397.4"/>
<polygon fill="none" stroke="black" points="1155.07,-397.4 1155.07,-433 1421.01,-433 1421.01,-397.4 1155.07,-397.4"/>
<text text-anchor="start" x="1162.07" y="-410.8" font-family="Arial Bold" font-size="18.00">public.connectors</text>
<text text-anchor="start" x="1289.53" y="-410.8" font-family="Arial" font-size="14.00">    </text>
<text text-anchor="start" x="1320.64" y="-410.8" font-family="Arial" font-size="14.00" fill="#666666">[BASE TABLE]</text>
<polygon fill="none" stroke="black" points="1155.07,-366.6 1155.07,-397.4 1421.01,-397.4 1421.01,-366.6 1155.07,-366.6"/>
<text text-anchor="start" x="1162.07" y="-378.8" font-family="Arial" font-size="14.00">id </text>
<text text-anchor="start" x="1176.85" y="-378.8" font-family="Arial" font-size="14.00" fill="#666666">[bigint]</text>
<polygon fill="none" stroke="black" points="1155.07,-335.8 1155.07,-366.6 1421.01,-366.6 1421.01,-335.8 1155.07,-335.8"/>
<text text-anchor="start" x="1162.07" y="-348" font-family="Arial" font-size="14.00">created_at </text>
<text text-anchor="start" x="1232.11" y="-348" font-family="Arial" font-size="14.00" fill="#666666">[timestamp with time zone]</text>
<polygon fill="none" stroke="black" points="1155.07,-305 1155.07,-335.8 1421.01,-335.8 1421.01,-305 1155.07,-305"/>
<text text-anchor="start" x="1162.07" y="-317.2" font-family="Arial" font-size="14.00">updated_at </text>
<text text-anchor="start" x="1236.02" y="-317.2" font-family="Arial" font-size="14.00" fill="#666666">[timestamp with time zone]</text>
<polygon fill="none" stroke="black" points="1155.07,-274.2 1155.07,-305 1421.01,-305 1421.01,-274.2 1155.07,-274.2"/>
<text text-anchor="start" x="1162.07" y="-286.4" font-family="Arial" font-size="14.00">deleted_at </text>
<text text-anchor="start" x="1231.35" y="-286.4" font-family="Arial" font-size="14.00" fill="#666666">[timestamp with time zone]</text>
<polygon fill="none" stroke="black" points="1155.07,-243.4 1155.07,-274.2 1421.01,-274.2 1421.01,-243.4 1155.07,-243.4"/>
<text text-anchor="start" x="1162.07" y="-255.6" font-family="Arial" font-size="14.00">user_count </text>
<text text-anchor="start" x="1235.22" y="-255.6" font-family="Arial" font-size="14.00" fill="#666666">[bigint]</text>
<polygon fill="none" stroke="black" points="1155.07,-212.6 1155.07,-243.4 1421.01,-243.4 1421.01,-212.6 1155.07,-212.6"/>
<text text-anchor="start" x="1162.07" y="-224.8" font-family="Arial" font-size="14.00">connector_id </text>
<text text-anchor="start" x="1246.12" y="-224.8" font-family="Arial" font-size="14.00" fill="#666666">[text]</text>
<polygon fill="none" stroke="black" points="1155.07,-181.8 1155.07,-212.6 1421.01,-212.6 1421.01,-181.8 1155.07,-181.8"/>
<text text-anchor="start" x="1162.07" y="-194" font-family="Arial" font-size="14.00">connector_type </text>
<text text-anchor="start" x="1261.69" y="-194" font-family="Arial" font-size="14.00" fill="#666666">[text]</text>
<polygon fill="none" stroke="black" points="1155.07,-151 1155.07,-181.8 1421.01,-181.8 1421.01,-151 1155.07,-151"/>
<text text-anchor="start" x="1162.07" y="-163.2" font-family="Arial" font-size="14.00">connector_sub_type </text>
<text text-anchor="start" x="1292.05" y="-163.2" font-family="Arial" font-size="14.00" fill="#666666">[text]</text>
<polygon fill="none" stroke="black" points="1155.07,-120.2 1155.07,-151 1421.01,-151 1421.01,-120.2 1155.07,-120.2"/>
<text text-anchor="start" x="1162.07" y="-132.4" font-family="Arial" font-size="14.00">last_update </text>
<text text-anchor="start" x="1238.35" y="-132.4" font-family="Arial" font-size="14.00" fill="#666666">[timestamp with time zone]</text>
</g>
</g>
</svg>
