<?xml version="1.0" encoding="UTF-8" standalone="no"?>
<!DOCTYPE svg PUBLIC "-//W3C//DTD SVG 1.1//EN"
 "http://www.w3.org/Graphics/SVG/1.1/DTD/svg11.dtd">
<!-- Generated by graphviz version 12.1.2 (20240928.0832)
 -->
<!-- Title: aws.aws_lambda_alias Pages: 1 -->
<svg width="430pt" height="721pt"
 viewBox="0.00 0.00 429.77 721.20" xmlns="http://www.w3.org/2000/svg" xmlns:xlink="http://www.w3.org/1999/xlink">
<g id="graph0" class="graph" transform="scale(1 1) rotate(0) translate(4 717.2)">
<title>aws.aws_lambda_alias</title>
<polygon fill="white" stroke="none" points="-4,4 -4,-717.2 425.77,-717.2 425.77,4 -4,4"/>
<!-- aws.aws_lambda_alias -->
<g id="node1" class="node">
<title>aws.aws_lambda_alias</title>
<polygon fill="#efefef" stroke="none" points="46.2,-631.4 46.2,-667 375.57,-667 375.57,-631.4 46.2,-631.4"/>
<polygon fill="none" stroke="black" points="46.2,-631.4 46.2,-667 375.57,-667 375.57,-631.4 46.2,-631.4"/>
<text text-anchor="start" x="53.2" y="-644.8" font-family="Arial Bold" font-size="18.00">aws.aws_lambda_alias</text>
<text text-anchor="start" x="217.65" y="-644.8" font-family="Arial" font-size="14.00">    </text>
<text text-anchor="start" x="248.77" y="-644.8" font-family="Arial" font-size="14.00" fill="#666666">[FOREIGN TABLE]</text>
<polygon fill="none" stroke="black" points="46.2,-600.6 46.2,-631.4 375.57,-631.4 375.57,-600.6 46.2,-600.6"/>
<text text-anchor="start" x="53.2" y="-612.8" font-family="Arial" font-size="14.00">name </text>
<text text-anchor="start" x="92.11" y="-612.8" font-family="Arial" font-size="14.00" fill="#666666">[text]</text>
<polygon fill="none" stroke="black" points="46.2,-569.8 46.2,-600.6 375.57,-600.6 375.57,-569.8 46.2,-569.8"/>
<text text-anchor="start" x="53.2" y="-582" font-family="Arial" font-size="14.00">function_name </text>
<text text-anchor="start" x="148.93" y="-582" font-family="Arial" font-size="14.00" fill="#666666">[text]</text>
<polygon fill="none" stroke="black" points="46.2,-539 46.2,-569.8 375.57,-569.8 375.57,-539 46.2,-539"/>
<text text-anchor="start" x="53.2" y="-551.2" font-family="Arial" font-size="14.00">alias_arn </text>
<text text-anchor="start" x="113.9" y="-551.2" font-family="Arial" font-size="14.00" fill="#666666">[text]</text>
<polygon fill="none" stroke="black" points="46.2,-508.2 46.2,-539 375.57,-539 375.57,-508.2 46.2,-508.2"/>
<text text-anchor="start" x="53.2" y="-520.4" font-family="Arial" font-size="14.00">function_version </text>
<text text-anchor="start" x="159.04" y="-520.4" font-family="Arial" font-size="14.00" fill="#666666">[text]</text>
<polygon fill="none" stroke="black" points="46.2,-477.4 46.2,-508.2 375.57,-508.2 375.57,-477.4 46.2,-477.4"/>
<text text-anchor="start" x="53.2" y="-489.6" font-family="Arial" font-size="14.00">revision_id </text>
<text text-anchor="start" x="124.01" y="-489.6" font-family="Arial" font-size="14.00" fill="#666666">[text]</text>
<polygon fill="none" stroke="black" points="46.2,-446.6 46.2,-477.4 375.57,-477.4 375.57,-446.6 46.2,-446.6"/>
<text text-anchor="start" x="53.2" y="-458.8" font-family="Arial" font-size="14.00">description </text>
<text text-anchor="start" x="124.79" y="-458.8" font-family="Arial" font-size="14.00" fill="#666666">[text]</text>
<polygon fill="none" stroke="black" points="46.2,-415.8 46.2,-446.6 375.57,-446.6 375.57,-415.8 46.2,-415.8"/>
<text text-anchor="start" x="53.2" y="-428" font-family="Arial" font-size="14.00">policy </text>
<text text-anchor="start" x="92.88" y="-428" font-family="Arial" font-size="14.00" fill="#666666">[jsonb]</text>
<polygon fill="none" stroke="black" points="46.2,-385 46.2,-415.8 375.57,-415.8 375.57,-385 46.2,-385"/>
<text text-anchor="start" x="53.2" y="-397.2" font-family="Arial" font-size="14.00">policy_std </text>
<text text-anchor="start" x="119.34" y="-397.2" font-family="Arial" font-size="14.00" fill="#666666">[jsonb]</text>
<polygon fill="none" stroke="black" points="46.2,-354.2 46.2,-385 375.57,-385 375.57,-354.2 46.2,-354.2"/>
<text text-anchor="start" x="53.2" y="-366.4" font-family="Arial" font-size="14.00">url_config </text>
<text text-anchor="start" x="117.79" y="-366.4" font-family="Arial" font-size="14.00" fill="#666666">[jsonb]</text>
<polygon fill="none" stroke="black" points="46.2,-323.4 46.2,-354.2 375.57,-354.2 375.57,-323.4 46.2,-323.4"/>
<text text-anchor="start" x="53.2" y="-335.6" font-family="Arial" font-size="14.00">title </text>
<text text-anchor="start" x="78.88" y="-335.6" font-family="Arial" font-size="14.00" fill="#666666">[text]</text>
<polygon fill="none" stroke="black" points="46.2,-292.6 46.2,-323.4 375.57,-323.4 375.57,-292.6 46.2,-292.6"/>
<text text-anchor="start" x="53.2" y="-304.8" font-family="Arial" font-size="14.00">akas </text>
<text text-anchor="start" x="86.66" y="-304.8" font-family="Arial" font-size="14.00" fill="#666666">[jsonb]</text>
<polygon fill="none" stroke="black" points="46.2,-261.8 46.2,-292.6 375.57,-292.6 375.57,-261.8 46.2,-261.8"/>
<text text-anchor="start" x="53.2" y="-274" font-family="Arial" font-size="14.00">partition </text>
<text text-anchor="start" x="106.9" y="-274" font-family="Arial" font-size="14.00" fill="#666666">[text]</text>
<polygon fill="none" stroke="black" points="46.2,-231 46.2,-261.8 375.57,-261.8 375.57,-231 46.2,-231"/>
<text text-anchor="start" x="53.2" y="-243.2" font-family="Arial" font-size="14.00">region </text>
<text text-anchor="start" x="96.01" y="-243.2" font-family="Arial" font-size="14.00" fill="#666666">[text]</text>
<polygon fill="none" stroke="black" points="46.2,-200.2 46.2,-231 375.57,-231 375.57,-200.2 46.2,-200.2"/>
<text text-anchor="start" x="53.2" y="-212.4" font-family="Arial" font-size="14.00">account_id </text>
<text text-anchor="start" x="124.81" y="-212.4" font-family="Arial" font-size="14.00" fill="#666666">[text]</text>
<polygon fill="none" stroke="black" points="46.2,-169.4 46.2,-200.2 375.57,-200.2 375.57,-169.4 46.2,-169.4"/>
<text text-anchor="start" x="53.2" y="-181.6" font-family="Arial" font-size="14.00">og_account_id </text>
<text text-anchor="start" x="148.16" y="-181.6" font-family="Arial" font-size="14.00" fill="#666666">[text]</text>
<polygon fill="none" stroke="black" points="46.2,-138.6 46.2,-169.4 375.57,-169.4 375.57,-138.6 46.2,-138.6"/>
<text text-anchor="start" x="53.2" y="-150.8" font-family="Arial" font-size="14.00">og_resource_id </text>
<text text-anchor="start" x="153.6" y="-150.8" font-family="Arial" font-size="14.00" fill="#666666">[text]</text>
<polygon fill="none" stroke="black" points="46.2,-107.8 46.2,-138.6 375.57,-138.6 375.57,-107.8 46.2,-107.8"/>
<text text-anchor="start" x="53.2" y="-120" font-family="Arial" font-size="14.00">og_metadata </text>
<text text-anchor="start" x="138.82" y="-120" font-family="Arial" font-size="14.00" fill="#666666">[text]</text>
<polygon fill="none" stroke="black" points="46.2,-77 46.2,-107.8 375.57,-107.8 375.57,-77 46.2,-77"/>
<text text-anchor="start" x="53.2" y="-89.2" font-family="Arial" font-size="14.00">og_description </text>
<text text-anchor="start" x="148.15" y="-89.2" font-family="Arial" font-size="14.00" fill="#666666">[jsonb]</text>
<polygon fill="none" stroke="black" points="46.2,-46.2 46.2,-77 375.57,-77 375.57,-46.2 46.2,-46.2"/>
<text text-anchor="start" x="53.2" y="-58.4" font-family="Arial" font-size="14.00">_ctx </text>
<text text-anchor="start" x="82.77" y="-58.4" font-family="Arial" font-size="14.00" fill="#666666">[jsonb]</text>
<polygon fill="none" stroke="black" stroke-width="3" points="44.7,-44.7 44.7,-668.5 377.07,-668.5 377.07,-44.7 44.7,-44.7"/>
</g>
</g>
</svg>
