<?xml version="1.0" encoding="UTF-8" standalone="no"?>
<!DOCTYPE svg PUBLIC "-//W3C//DTD SVG 1.1//EN"
 "http://www.w3.org/Graphics/SVG/1.1/DTD/svg11.dtd">
<!-- Generated by graphviz version 12.1.2 (20240928.0832)
 -->
<!-- Title: aws.aws_cloudfront_origin_access_identity Pages: 1 -->
<svg width="581pt" height="629pt"
 viewBox="0.00 0.00 580.74 628.80" xmlns="http://www.w3.org/2000/svg" xmlns:xlink="http://www.w3.org/1999/xlink">
<g id="graph0" class="graph" transform="scale(1 1) rotate(0) translate(4 624.8)">
<title>aws.aws_cloudfront_origin_access_identity</title>
<polygon fill="white" stroke="none" points="-4,4 -4,-624.8 576.74,-624.8 576.74,4 -4,4"/>
<!-- aws.aws_cloudfront_origin_access_identity -->
<g id="node1" class="node">
<title>aws.aws_cloudfront_origin_access_identity</title>
<polygon fill="#efefef" stroke="none" points="46.2,-539 46.2,-574.6 526.54,-574.6 526.54,-539 46.2,-539"/>
<polygon fill="none" stroke="black" points="46.2,-539 46.2,-574.6 526.54,-574.6 526.54,-539 46.2,-539"/>
<text text-anchor="start" x="53.2" y="-552.4" font-family="Arial Bold" font-size="18.00">aws.aws_cloudfront_origin_access_identity</text>
<text text-anchor="start" x="368.62" y="-552.4" font-family="Arial" font-size="14.00">    </text>
<text text-anchor="start" x="399.74" y="-552.4" font-family="Arial" font-size="14.00" fill="#666666">[FOREIGN TABLE]</text>
<polygon fill="none" stroke="black" points="46.2,-508.2 46.2,-539 526.54,-539 526.54,-508.2 46.2,-508.2"/>
<text text-anchor="start" x="53.2" y="-520.4" font-family="Arial" font-size="14.00">id </text>
<text text-anchor="start" x="67.99" y="-520.4" font-family="Arial" font-size="14.00" fill="#666666">[text]</text>
<polygon fill="none" stroke="black" points="46.2,-477.4 46.2,-508.2 526.54,-508.2 526.54,-477.4 46.2,-477.4"/>
<text text-anchor="start" x="53.2" y="-489.6" font-family="Arial" font-size="14.00">arn </text>
<text text-anchor="start" x="77.32" y="-489.6" font-family="Arial" font-size="14.00" fill="#666666">[text]</text>
<polygon fill="none" stroke="black" points="46.2,-446.6 46.2,-477.4 526.54,-477.4 526.54,-446.6 46.2,-446.6"/>
<text text-anchor="start" x="53.2" y="-458.8" font-family="Arial" font-size="14.00">s3_canonical_user_id </text>
<text text-anchor="start" x="192.52" y="-458.8" font-family="Arial" font-size="14.00" fill="#666666">[text]</text>
<polygon fill="none" stroke="black" points="46.2,-415.8 46.2,-446.6 526.54,-446.6 526.54,-415.8 46.2,-415.8"/>
<text text-anchor="start" x="53.2" y="-428" font-family="Arial" font-size="14.00">caller_reference </text>
<text text-anchor="start" x="157.48" y="-428" font-family="Arial" font-size="14.00" fill="#666666">[text]</text>
<polygon fill="none" stroke="black" points="46.2,-385 46.2,-415.8 526.54,-415.8 526.54,-385 46.2,-385"/>
<text text-anchor="start" x="53.2" y="-397.2" font-family="Arial" font-size="14.00">comment </text>
<text text-anchor="start" x="114.66" y="-397.2" font-family="Arial" font-size="14.00" fill="#666666">[text]</text>
<polygon fill="none" stroke="black" points="46.2,-354.2 46.2,-385 526.54,-385 526.54,-354.2 46.2,-354.2"/>
<text text-anchor="start" x="53.2" y="-366.4" font-family="Arial" font-size="14.00">etag </text>
<text text-anchor="start" x="84.34" y="-366.4" font-family="Arial" font-size="14.00" fill="#666666">[text]</text>
<polygon fill="none" stroke="black" points="46.2,-323.4 46.2,-354.2 526.54,-354.2 526.54,-323.4 46.2,-323.4"/>
<text text-anchor="start" x="53.2" y="-335.6" font-family="Arial" font-size="14.00">title </text>
<text text-anchor="start" x="78.88" y="-335.6" font-family="Arial" font-size="14.00" fill="#666666">[text]</text>
<polygon fill="none" stroke="black" points="46.2,-292.6 46.2,-323.4 526.54,-323.4 526.54,-292.6 46.2,-292.6"/>
<text text-anchor="start" x="53.2" y="-304.8" font-family="Arial" font-size="14.00">akas </text>
<text text-anchor="start" x="86.66" y="-304.8" font-family="Arial" font-size="14.00" fill="#666666">[jsonb]</text>
<polygon fill="none" stroke="black" points="46.2,-261.8 46.2,-292.6 526.54,-292.6 526.54,-261.8 46.2,-261.8"/>
<text text-anchor="start" x="53.2" y="-274" font-family="Arial" font-size="14.00">partition </text>
<text text-anchor="start" x="106.9" y="-274" font-family="Arial" font-size="14.00" fill="#666666">[text]</text>
<polygon fill="none" stroke="black" points="46.2,-231 46.2,-261.8 526.54,-261.8 526.54,-231 46.2,-231"/>
<text text-anchor="start" x="53.2" y="-243.2" font-family="Arial" font-size="14.00">region </text>
<text text-anchor="start" x="96.01" y="-243.2" font-family="Arial" font-size="14.00" fill="#666666">[text]</text>
<polygon fill="none" stroke="black" points="46.2,-200.2 46.2,-231 526.54,-231 526.54,-200.2 46.2,-200.2"/>
<text text-anchor="start" x="53.2" y="-212.4" font-family="Arial" font-size="14.00">account_id </text>
<text text-anchor="start" x="124.81" y="-212.4" font-family="Arial" font-size="14.00" fill="#666666">[text]</text>
<polygon fill="none" stroke="black" points="46.2,-169.4 46.2,-200.2 526.54,-200.2 526.54,-169.4 46.2,-169.4"/>
<text text-anchor="start" x="53.2" y="-181.6" font-family="Arial" font-size="14.00">og_account_id </text>
<text text-anchor="start" x="148.16" y="-181.6" font-family="Arial" font-size="14.00" fill="#666666">[text]</text>
<polygon fill="none" stroke="black" points="46.2,-138.6 46.2,-169.4 526.54,-169.4 526.54,-138.6 46.2,-138.6"/>
<text text-anchor="start" x="53.2" y="-150.8" font-family="Arial" font-size="14.00">og_resource_id </text>
<text text-anchor="start" x="153.6" y="-150.8" font-family="Arial" font-size="14.00" fill="#666666">[text]</text>
<polygon fill="none" stroke="black" points="46.2,-107.8 46.2,-138.6 526.54,-138.6 526.54,-107.8 46.2,-107.8"/>
<text text-anchor="start" x="53.2" y="-120" font-family="Arial" font-size="14.00">og_metadata </text>
<text text-anchor="start" x="138.82" y="-120" font-family="Arial" font-size="14.00" fill="#666666">[text]</text>
<polygon fill="none" stroke="black" points="46.2,-77 46.2,-107.8 526.54,-107.8 526.54,-77 46.2,-77"/>
<text text-anchor="start" x="53.2" y="-89.2" font-family="Arial" font-size="14.00">og_description </text>
<text text-anchor="start" x="148.15" y="-89.2" font-family="Arial" font-size="14.00" fill="#666666">[jsonb]</text>
<polygon fill="none" stroke="black" points="46.2,-46.2 46.2,-77 526.54,-77 526.54,-46.2 46.2,-46.2"/>
<text text-anchor="start" x="53.2" y="-58.4" font-family="Arial" font-size="14.00">_ctx </text>
<text text-anchor="start" x="82.77" y="-58.4" font-family="Arial" font-size="14.00" fill="#666666">[jsonb]</text>
<polygon fill="none" stroke="black" stroke-width="3" points="44.7,-44.7 44.7,-576.1 528.04,-576.1 528.04,-44.7 44.7,-44.7"/>
</g>
</g>
</svg>
