<?xml version="1.0" encoding="UTF-8" standalone="no"?>
<!DOCTYPE svg PUBLIC "-//W3C//DTD SVG 1.1//EN"
 "http://www.w3.org/Graphics/SVG/1.1/DTD/svg11.dtd">
<!-- Generated by graphviz version 12.1.2 (20240928.0832)
 -->
<!-- Title: aws.aws_sagemaker_training_job Pages: 1 -->
<svg width="509pt" height="1707pt"
 viewBox="0.00 0.00 508.75 1706.80" xmlns="http://www.w3.org/2000/svg" xmlns:xlink="http://www.w3.org/1999/xlink">
<g id="graph0" class="graph" transform="scale(1 1) rotate(0) translate(4 1702.8)">
<title>aws.aws_sagemaker_training_job</title>
<polygon fill="white" stroke="none" points="-4,4 -4,-1702.8 504.75,-1702.8 504.75,4 -4,4"/>
<!-- aws.aws_sagemaker_training_job -->
<g id="node1" class="node">
<title>aws.aws_sagemaker_training_job</title>
<polygon fill="#efefef" stroke="none" points="46.2,-1617 46.2,-1652.6 454.55,-1652.6 454.55,-1617 46.2,-1617"/>
<polygon fill="none" stroke="black" points="46.2,-1617 46.2,-1652.6 454.55,-1652.6 454.55,-1617 46.2,-1617"/>
<text text-anchor="start" x="53.2" y="-1630.4" font-family="Arial Bold" font-size="18.00">aws.aws_sagemaker_training_job</text>
<text text-anchor="start" x="296.63" y="-1630.4" font-family="Arial" font-size="14.00">    </text>
<text text-anchor="start" x="327.75" y="-1630.4" font-family="Arial" font-size="14.00" fill="#666666">[FOREIGN TABLE]</text>
<polygon fill="none" stroke="black" points="46.2,-1586.2 46.2,-1617 454.55,-1617 454.55,-1586.2 46.2,-1586.2"/>
<text text-anchor="start" x="53.2" y="-1598.4" font-family="Arial" font-size="14.00">name </text>
<text text-anchor="start" x="92.11" y="-1598.4" font-family="Arial" font-size="14.00" fill="#666666">[text]</text>
<polygon fill="none" stroke="black" points="46.2,-1555.4 46.2,-1586.2 454.55,-1586.2 454.55,-1555.4 46.2,-1555.4"/>
<text text-anchor="start" x="53.2" y="-1567.6" font-family="Arial" font-size="14.00">arn </text>
<text text-anchor="start" x="77.32" y="-1567.6" font-family="Arial" font-size="14.00" fill="#666666">[text]</text>
<polygon fill="none" stroke="black" points="46.2,-1524.6 46.2,-1555.4 454.55,-1555.4 454.55,-1524.6 46.2,-1524.6"/>
<text text-anchor="start" x="53.2" y="-1536.8" font-family="Arial" font-size="14.00">training_job_status </text>
<text text-anchor="start" x="174.61" y="-1536.8" font-family="Arial" font-size="14.00" fill="#666666">[text]</text>
<polygon fill="none" stroke="black" points="46.2,-1493.8 46.2,-1524.6 454.55,-1524.6 454.55,-1493.8 46.2,-1493.8"/>
<text text-anchor="start" x="53.2" y="-1506" font-family="Arial" font-size="14.00">auto_ml_job_arn </text>
<text text-anchor="start" x="161.39" y="-1506" font-family="Arial" font-size="14.00" fill="#666666">[text]</text>
<polygon fill="none" stroke="black" points="46.2,-1463 46.2,-1493.8 454.55,-1493.8 454.55,-1463 46.2,-1463"/>
<text text-anchor="start" x="53.2" y="-1475.2" font-family="Arial" font-size="14.00">billable_time_in_seconds </text>
<text text-anchor="start" x="213.52" y="-1475.2" font-family="Arial" font-size="14.00" fill="#666666">[bigint]</text>
<polygon fill="none" stroke="black" points="46.2,-1432.2 46.2,-1463 454.55,-1463 454.55,-1432.2 46.2,-1432.2"/>
<text text-anchor="start" x="53.2" y="-1444.4" font-family="Arial" font-size="14.00">creation_time </text>
<text text-anchor="start" x="141.13" y="-1444.4" font-family="Arial" font-size="14.00" fill="#666666">[timestamp with time zone]</text>
<polygon fill="none" stroke="black" points="46.2,-1401.4 46.2,-1432.2 454.55,-1432.2 454.55,-1401.4 46.2,-1401.4"/>
<text text-anchor="start" x="53.2" y="-1413.6" font-family="Arial" font-size="14.00">enable_managed_spot_training </text>
<text text-anchor="start" x="253.25" y="-1413.6" font-family="Arial" font-size="14.00" fill="#666666">[boolean]</text>
<polygon fill="none" stroke="black" points="46.2,-1370.6 46.2,-1401.4 454.55,-1401.4 454.55,-1370.6 46.2,-1370.6"/>
<text text-anchor="start" x="53.2" y="-1382.8" font-family="Arial" font-size="14.00">enable_network_isolation </text>
<text text-anchor="start" x="215.09" y="-1382.8" font-family="Arial" font-size="14.00" fill="#666666">[boolean]</text>
<polygon fill="none" stroke="black" points="46.2,-1339.8 46.2,-1370.6 454.55,-1370.6 454.55,-1339.8 46.2,-1339.8"/>
<text text-anchor="start" x="53.2" y="-1352" font-family="Arial" font-size="14.00">enable_inter_container_traffic_encryption </text>
<text text-anchor="start" x="313.92" y="-1352" font-family="Arial" font-size="14.00" fill="#666666">[boolean]</text>
<polygon fill="none" stroke="black" points="46.2,-1309 46.2,-1339.8 454.55,-1339.8 454.55,-1309 46.2,-1309"/>
<text text-anchor="start" x="53.2" y="-1321.2" font-family="Arial" font-size="14.00">failure_reason </text>
<text text-anchor="start" x="145.81" y="-1321.2" font-family="Arial" font-size="14.00" fill="#666666">[text]</text>
<polygon fill="none" stroke="black" points="46.2,-1278.2 46.2,-1309 454.55,-1309 454.55,-1278.2 46.2,-1278.2"/>
<text text-anchor="start" x="53.2" y="-1290.4" font-family="Arial" font-size="14.00">labeling_job_arn </text>
<text text-anchor="start" x="159.84" y="-1290.4" font-family="Arial" font-size="14.00" fill="#666666">[text]</text>
<polygon fill="none" stroke="black" points="46.2,-1247.4 46.2,-1278.2 454.55,-1278.2 454.55,-1247.4 46.2,-1247.4"/>
<text text-anchor="start" x="53.2" y="-1259.6" font-family="Arial" font-size="14.00">last_modified_time </text>
<text text-anchor="start" x="173.81" y="-1259.6" font-family="Arial" font-size="14.00" fill="#666666">[timestamp with time zone]</text>
<polygon fill="none" stroke="black" points="46.2,-1216.6 46.2,-1247.4 454.55,-1247.4 454.55,-1216.6 46.2,-1216.6"/>
<text text-anchor="start" x="53.2" y="-1228.8" font-family="Arial" font-size="14.00">profiling_status </text>
<text text-anchor="start" x="151.25" y="-1228.8" font-family="Arial" font-size="14.00" fill="#666666">[text]</text>
<polygon fill="none" stroke="black" points="46.2,-1185.8 46.2,-1216.6 454.55,-1216.6 454.55,-1185.8 46.2,-1185.8"/>
<text text-anchor="start" x="53.2" y="-1198" font-family="Arial" font-size="14.00">role_arn </text>
<text text-anchor="start" x="108.45" y="-1198" font-family="Arial" font-size="14.00" fill="#666666">[text]</text>
<polygon fill="none" stroke="black" points="46.2,-1155 46.2,-1185.8 454.55,-1185.8 454.55,-1155 46.2,-1155"/>
<text text-anchor="start" x="53.2" y="-1167.2" font-family="Arial" font-size="14.00">secondary_status </text>
<text text-anchor="start" x="166.82" y="-1167.2" font-family="Arial" font-size="14.00" fill="#666666">[text]</text>
<polygon fill="none" stroke="black" points="46.2,-1124.2 46.2,-1155 454.55,-1155 454.55,-1124.2 46.2,-1124.2"/>
<text text-anchor="start" x="53.2" y="-1136.4" font-family="Arial" font-size="14.00">training_end_time </text>
<text text-anchor="start" x="168.39" y="-1136.4" font-family="Arial" font-size="14.00" fill="#666666">[timestamp with time zone]</text>
<polygon fill="none" stroke="black" points="46.2,-1093.4 46.2,-1124.2 454.55,-1124.2 454.55,-1093.4 46.2,-1093.4"/>
<text text-anchor="start" x="53.2" y="-1105.6" font-family="Arial" font-size="14.00">training_start_time </text>
<text text-anchor="start" x="172.25" y="-1105.6" font-family="Arial" font-size="14.00" fill="#666666">[timestamp with time zone]</text>
<polygon fill="none" stroke="black" points="46.2,-1062.6 46.2,-1093.4 454.55,-1093.4 454.55,-1062.6 46.2,-1062.6"/>
<text text-anchor="start" x="53.2" y="-1074.8" font-family="Arial" font-size="14.00">training_time_in_seconds </text>
<text text-anchor="start" x="215.85" y="-1074.8" font-family="Arial" font-size="14.00" fill="#666666">[bigint]</text>
<polygon fill="none" stroke="black" points="46.2,-1031.8 46.2,-1062.6 454.55,-1062.6 454.55,-1031.8 46.2,-1031.8"/>
<text text-anchor="start" x="53.2" y="-1044" font-family="Arial" font-size="14.00">tuning_job_arn </text>
<text text-anchor="start" x="149.72" y="-1044" font-family="Arial" font-size="14.00" fill="#666666">[text]</text>
<polygon fill="none" stroke="black" points="46.2,-1001 46.2,-1031.8 454.55,-1031.8 454.55,-1001 46.2,-1001"/>
<text text-anchor="start" x="53.2" y="-1013.2" font-family="Arial" font-size="14.00">algorithm_specification </text>
<text text-anchor="start" x="199.5" y="-1013.2" font-family="Arial" font-size="14.00" fill="#666666">[jsonb]</text>
<polygon fill="none" stroke="black" points="46.2,-970.2 46.2,-1001 454.55,-1001 454.55,-970.2 46.2,-970.2"/>
<text text-anchor="start" x="53.2" y="-982.4" font-family="Arial" font-size="14.00">checkpoint_config </text>
<text text-anchor="start" x="169.16" y="-982.4" font-family="Arial" font-size="14.00" fill="#666666">[jsonb]</text>
<polygon fill="none" stroke="black" points="46.2,-939.4 46.2,-970.2 454.55,-970.2 454.55,-939.4 46.2,-939.4"/>
<text text-anchor="start" x="53.2" y="-951.6" font-family="Arial" font-size="14.00">debug_hook_config </text>
<text text-anchor="start" x="179.31" y="-951.6" font-family="Arial" font-size="14.00" fill="#666666">[jsonb]</text>
<polygon fill="none" stroke="black" points="46.2,-908.6 46.2,-939.4 454.55,-939.4 454.55,-908.6 46.2,-908.6"/>
<text text-anchor="start" x="53.2" y="-920.8" font-family="Arial" font-size="14.00">debug_rule_configurations </text>
<text text-anchor="start" x="222.1" y="-920.8" font-family="Arial" font-size="14.00" fill="#666666">[jsonb]</text>
<polygon fill="none" stroke="black" points="46.2,-877.8 46.2,-908.6 454.55,-908.6 454.55,-877.8 46.2,-877.8"/>
<text text-anchor="start" x="53.2" y="-890" font-family="Arial" font-size="14.00">debug_rule_evaluation_statuses </text>
<text text-anchor="start" x="258.69" y="-890" font-family="Arial" font-size="14.00" fill="#666666">[jsonb]</text>
<polygon fill="none" stroke="black" points="46.2,-847 46.2,-877.8 454.55,-877.8 454.55,-847 46.2,-847"/>
<text text-anchor="start" x="53.2" y="-859.2" font-family="Arial" font-size="14.00">environment </text>
<text text-anchor="start" x="134.13" y="-859.2" font-family="Arial" font-size="14.00" fill="#666666">[jsonb]</text>
<polygon fill="none" stroke="black" points="46.2,-816.2 46.2,-847 454.55,-847 454.55,-816.2 46.2,-816.2"/>
<text text-anchor="start" x="53.2" y="-828.4" font-family="Arial" font-size="14.00">experiment_config </text>
<text text-anchor="start" x="171.49" y="-828.4" font-family="Arial" font-size="14.00" fill="#666666">[jsonb]</text>
<polygon fill="none" stroke="black" points="46.2,-785.4 46.2,-816.2 454.55,-816.2 454.55,-785.4 46.2,-785.4"/>
<text text-anchor="start" x="53.2" y="-797.6" font-family="Arial" font-size="14.00">final_metric_data_list </text>
<text text-anchor="start" x="188.6" y="-797.6" font-family="Arial" font-size="14.00" fill="#666666">[jsonb]</text>
<polygon fill="none" stroke="black" points="46.2,-754.6 46.2,-785.4 454.55,-785.4 454.55,-754.6 46.2,-754.6"/>
<text text-anchor="start" x="53.2" y="-766.8" font-family="Arial" font-size="14.00">hyper_parameters </text>
<text text-anchor="start" x="170.7" y="-766.8" font-family="Arial" font-size="14.00" fill="#666666">[jsonb]</text>
<polygon fill="none" stroke="black" points="46.2,-723.8 46.2,-754.6 454.55,-754.6 454.55,-723.8 46.2,-723.8"/>
<text text-anchor="start" x="53.2" y="-736" font-family="Arial" font-size="14.00">input_data_config </text>
<text text-anchor="start" x="167.63" y="-736" font-family="Arial" font-size="14.00" fill="#666666">[jsonb]</text>
<polygon fill="none" stroke="black" points="46.2,-693 46.2,-723.8 454.55,-723.8 454.55,-693 46.2,-693"/>
<text text-anchor="start" x="53.2" y="-705.2" font-family="Arial" font-size="14.00">model_artifacts </text>
<text text-anchor="start" x="152.02" y="-705.2" font-family="Arial" font-size="14.00" fill="#666666">[jsonb]</text>
<polygon fill="none" stroke="black" points="46.2,-662.2 46.2,-693 454.55,-693 454.55,-662.2 46.2,-662.2"/>
<text text-anchor="start" x="53.2" y="-674.4" font-family="Arial" font-size="14.00">output_data_config </text>
<text text-anchor="start" x="176.19" y="-674.4" font-family="Arial" font-size="14.00" fill="#666666">[jsonb]</text>
<polygon fill="none" stroke="black" points="46.2,-631.4 46.2,-662.2 454.55,-662.2 454.55,-631.4 46.2,-631.4"/>
<text text-anchor="start" x="53.2" y="-643.6" font-family="Arial" font-size="14.00">profiler_config </text>
<text text-anchor="start" x="145.03" y="-643.6" font-family="Arial" font-size="14.00" fill="#666666">[jsonb]</text>
<polygon fill="none" stroke="black" points="46.2,-600.6 46.2,-631.4 454.55,-631.4 454.55,-600.6 46.2,-600.6"/>
<text text-anchor="start" x="53.2" y="-612.8" font-family="Arial" font-size="14.00">profiler_rule_configurations </text>
<text text-anchor="start" x="225.96" y="-612.8" font-family="Arial" font-size="14.00" fill="#666666">[jsonb]</text>
<polygon fill="none" stroke="black" points="46.2,-569.8 46.2,-600.6 454.55,-600.6 454.55,-569.8 46.2,-569.8"/>
<text text-anchor="start" x="53.2" y="-582" font-family="Arial" font-size="14.00">profiler_rule_evaluation_statuses </text>
<text text-anchor="start" x="262.55" y="-582" font-family="Arial" font-size="14.00" fill="#666666">[jsonb]</text>
<polygon fill="none" stroke="black" points="46.2,-539 46.2,-569.8 454.55,-569.8 454.55,-539 46.2,-539"/>
<text text-anchor="start" x="53.2" y="-551.2" font-family="Arial" font-size="14.00">resource_config </text>
<text text-anchor="start" x="156.7" y="-551.2" font-family="Arial" font-size="14.00" fill="#666666">[jsonb]</text>
<polygon fill="none" stroke="black" points="46.2,-508.2 46.2,-539 454.55,-539 454.55,-508.2 46.2,-508.2"/>
<text text-anchor="start" x="53.2" y="-520.4" font-family="Arial" font-size="14.00">secondary_status_transitions </text>
<text text-anchor="start" x="238.41" y="-520.4" font-family="Arial" font-size="14.00" fill="#666666">[jsonb]</text>
<polygon fill="none" stroke="black" points="46.2,-477.4 46.2,-508.2 454.55,-508.2 454.55,-477.4 46.2,-477.4"/>
<text text-anchor="start" x="53.2" y="-489.6" font-family="Arial" font-size="14.00">stopping_condition </text>
<text text-anchor="start" x="173.85" y="-489.6" font-family="Arial" font-size="14.00" fill="#666666">[jsonb]</text>
<polygon fill="none" stroke="black" points="46.2,-446.6 46.2,-477.4 454.55,-477.4 454.55,-446.6 46.2,-446.6"/>
<text text-anchor="start" x="53.2" y="-458.8" font-family="Arial" font-size="14.00">tensor_board_output_config </text>
<text text-anchor="start" x="231.45" y="-458.8" font-family="Arial" font-size="14.00" fill="#666666">[jsonb]</text>
<polygon fill="none" stroke="black" points="46.2,-415.8 46.2,-446.6 454.55,-446.6 454.55,-415.8 46.2,-415.8"/>
<text text-anchor="start" x="53.2" y="-428" font-family="Arial" font-size="14.00">vpc_config </text>
<text text-anchor="start" x="124.02" y="-428" font-family="Arial" font-size="14.00" fill="#666666">[jsonb]</text>
<polygon fill="none" stroke="black" points="46.2,-385 46.2,-415.8 454.55,-415.8 454.55,-385 46.2,-385"/>
<text text-anchor="start" x="53.2" y="-397.2" font-family="Arial" font-size="14.00">tags_src </text>
<text text-anchor="start" x="110" y="-397.2" font-family="Arial" font-size="14.00" fill="#666666">[jsonb]</text>
<polygon fill="none" stroke="black" points="46.2,-354.2 46.2,-385 454.55,-385 454.55,-354.2 46.2,-354.2"/>
<text text-anchor="start" x="53.2" y="-366.4" font-family="Arial" font-size="14.00">title </text>
<text text-anchor="start" x="78.88" y="-366.4" font-family="Arial" font-size="14.00" fill="#666666">[text]</text>
<polygon fill="none" stroke="black" points="46.2,-323.4 46.2,-354.2 454.55,-354.2 454.55,-323.4 46.2,-323.4"/>
<text text-anchor="start" x="53.2" y="-335.6" font-family="Arial" font-size="14.00">tags </text>
<text text-anchor="start" x="83.55" y="-335.6" font-family="Arial" font-size="14.00" fill="#666666">[jsonb]</text>
<polygon fill="none" stroke="black" points="46.2,-292.6 46.2,-323.4 454.55,-323.4 454.55,-292.6 46.2,-292.6"/>
<text text-anchor="start" x="53.2" y="-304.8" font-family="Arial" font-size="14.00">akas </text>
<text text-anchor="start" x="86.66" y="-304.8" font-family="Arial" font-size="14.00" fill="#666666">[jsonb]</text>
<polygon fill="none" stroke="black" points="46.2,-261.8 46.2,-292.6 454.55,-292.6 454.55,-261.8 46.2,-261.8"/>
<text text-anchor="start" x="53.2" y="-274" font-family="Arial" font-size="14.00">partition </text>
<text text-anchor="start" x="106.9" y="-274" font-family="Arial" font-size="14.00" fill="#666666">[text]</text>
<polygon fill="none" stroke="black" points="46.2,-231 46.2,-261.8 454.55,-261.8 454.55,-231 46.2,-231"/>
<text text-anchor="start" x="53.2" y="-243.2" font-family="Arial" font-size="14.00">region </text>
<text text-anchor="start" x="96.01" y="-243.2" font-family="Arial" font-size="14.00" fill="#666666">[text]</text>
<polygon fill="none" stroke="black" points="46.2,-200.2 46.2,-231 454.55,-231 454.55,-200.2 46.2,-200.2"/>
<text text-anchor="start" x="53.2" y="-212.4" font-family="Arial" font-size="14.00">account_id </text>
<text text-anchor="start" x="124.81" y="-212.4" font-family="Arial" font-size="14.00" fill="#666666">[text]</text>
<polygon fill="none" stroke="black" points="46.2,-169.4 46.2,-200.2 454.55,-200.2 454.55,-169.4 46.2,-169.4"/>
<text text-anchor="start" x="53.2" y="-181.6" font-family="Arial" font-size="14.00">og_account_id </text>
<text text-anchor="start" x="148.16" y="-181.6" font-family="Arial" font-size="14.00" fill="#666666">[text]</text>
<polygon fill="none" stroke="black" points="46.2,-138.6 46.2,-169.4 454.55,-169.4 454.55,-138.6 46.2,-138.6"/>
<text text-anchor="start" x="53.2" y="-150.8" font-family="Arial" font-size="14.00">og_resource_id </text>
<text text-anchor="start" x="153.6" y="-150.8" font-family="Arial" font-size="14.00" fill="#666666">[text]</text>
<polygon fill="none" stroke="black" points="46.2,-107.8 46.2,-138.6 454.55,-138.6 454.55,-107.8 46.2,-107.8"/>
<text text-anchor="start" x="53.2" y="-120" font-family="Arial" font-size="14.00">og_metadata </text>
<text text-anchor="start" x="138.82" y="-120" font-family="Arial" font-size="14.00" fill="#666666">[text]</text>
<polygon fill="none" stroke="black" points="46.2,-77 46.2,-107.8 454.55,-107.8 454.55,-77 46.2,-77"/>
<text text-anchor="start" x="53.2" y="-89.2" font-family="Arial" font-size="14.00">og_description </text>
<text text-anchor="start" x="148.15" y="-89.2" font-family="Arial" font-size="14.00" fill="#666666">[jsonb]</text>
<polygon fill="none" stroke="black" points="46.2,-46.2 46.2,-77 454.55,-77 454.55,-46.2 46.2,-46.2"/>
<text text-anchor="start" x="53.2" y="-58.4" font-family="Arial" font-size="14.00">_ctx </text>
<text text-anchor="start" x="82.77" y="-58.4" font-family="Arial" font-size="14.00" fill="#666666">[jsonb]</text>
<polygon fill="none" stroke="black" stroke-width="3" points="44.7,-44.7 44.7,-1654.1 456.05,-1654.1 456.05,-44.7 44.7,-44.7"/>
</g>
</g>
</svg>
