<?xml version="1.0" encoding="UTF-8" standalone="no"?>
<!DOCTYPE svg PUBLIC "-//W3C//DTD SVG 1.1//EN"
 "http://www.w3.org/Graphics/SVG/1.1/DTD/svg11.dtd">
<!-- Generated by graphviz version 12.1.2 (20240928.0832)
 -->
<!-- Title: aws.aws_route53_resolver_query_log_config Pages: 1 -->
<svg width="594pt" height="660pt"
 viewBox="0.00 0.00 593.73 659.60" xmlns="http://www.w3.org/2000/svg" xmlns:xlink="http://www.w3.org/1999/xlink">
<g id="graph0" class="graph" transform="scale(1 1) rotate(0) translate(4 655.6)">
<title>aws.aws_route53_resolver_query_log_config</title>
<polygon fill="white" stroke="none" points="-4,4 -4,-655.6 589.73,-655.6 589.73,4 -4,4"/>
<!-- aws.aws_route53_resolver_query_log_config -->
<g id="node1" class="node">
<title>aws.aws_route53_resolver_query_log_config</title>
<polygon fill="#efefef" stroke="none" points="46.2,-569.8 46.2,-605.4 539.53,-605.4 539.53,-569.8 46.2,-569.8"/>
<polygon fill="none" stroke="black" points="46.2,-569.8 46.2,-605.4 539.53,-605.4 539.53,-569.8 46.2,-569.8"/>
<text text-anchor="start" x="53.2" y="-583.2" font-family="Arial Bold" font-size="18.00">aws.aws_route53_resolver_query_log_config</text>
<text text-anchor="start" x="381.61" y="-583.2" font-family="Arial" font-size="14.00">    </text>
<text text-anchor="start" x="412.73" y="-583.2" font-family="Arial" font-size="14.00" fill="#666666">[FOREIGN TABLE]</text>
<polygon fill="none" stroke="black" points="46.2,-539 46.2,-569.8 539.53,-569.8 539.53,-539 46.2,-539"/>
<text text-anchor="start" x="53.2" y="-551.2" font-family="Arial" font-size="14.00">id </text>
<text text-anchor="start" x="67.99" y="-551.2" font-family="Arial" font-size="14.00" fill="#666666">[text]</text>
<polygon fill="none" stroke="black" points="46.2,-508.2 46.2,-539 539.53,-539 539.53,-508.2 46.2,-508.2"/>
<text text-anchor="start" x="53.2" y="-520.4" font-family="Arial" font-size="14.00">name </text>
<text text-anchor="start" x="92.11" y="-520.4" font-family="Arial" font-size="14.00" fill="#666666">[text]</text>
<polygon fill="none" stroke="black" points="46.2,-477.4 46.2,-508.2 539.53,-508.2 539.53,-477.4 46.2,-477.4"/>
<text text-anchor="start" x="53.2" y="-489.6" font-family="Arial" font-size="14.00">arn </text>
<text text-anchor="start" x="77.32" y="-489.6" font-family="Arial" font-size="14.00" fill="#666666">[text]</text>
<polygon fill="none" stroke="black" points="46.2,-446.6 46.2,-477.4 539.53,-477.4 539.53,-446.6 46.2,-446.6"/>
<text text-anchor="start" x="53.2" y="-458.8" font-family="Arial" font-size="14.00">creation_time </text>
<text text-anchor="start" x="141.13" y="-458.8" font-family="Arial" font-size="14.00" fill="#666666">[timestamp with time zone]</text>
<polygon fill="none" stroke="black" points="46.2,-415.8 46.2,-446.6 539.53,-446.6 539.53,-415.8 46.2,-415.8"/>
<text text-anchor="start" x="53.2" y="-428" font-family="Arial" font-size="14.00">status </text>
<text text-anchor="start" x="94.44" y="-428" font-family="Arial" font-size="14.00" fill="#666666">[text]</text>
<polygon fill="none" stroke="black" points="46.2,-385 46.2,-415.8 539.53,-415.8 539.53,-385 46.2,-385"/>
<text text-anchor="start" x="53.2" y="-397.2" font-family="Arial" font-size="14.00">association_count </text>
<text text-anchor="start" x="169.16" y="-397.2" font-family="Arial" font-size="14.00" fill="#666666">[bigint]</text>
<polygon fill="none" stroke="black" points="46.2,-354.2 46.2,-385 539.53,-385 539.53,-354.2 46.2,-354.2"/>
<text text-anchor="start" x="53.2" y="-366.4" font-family="Arial" font-size="14.00">ip_address_count </text>
<text text-anchor="start" x="167.61" y="-366.4" font-family="Arial" font-size="14.00" fill="#666666">[bigint]</text>
<polygon fill="none" stroke="black" points="46.2,-323.4 46.2,-354.2 539.53,-354.2 539.53,-323.4 46.2,-323.4"/>
<text text-anchor="start" x="53.2" y="-335.6" font-family="Arial" font-size="14.00">creator_request_id </text>
<text text-anchor="start" x="173.83" y="-335.6" font-family="Arial" font-size="14.00" fill="#666666">[text]</text>
<polygon fill="none" stroke="black" points="46.2,-292.6 46.2,-323.4 539.53,-323.4 539.53,-292.6 46.2,-292.6"/>
<text text-anchor="start" x="53.2" y="-304.8" font-family="Arial" font-size="14.00">destination_arn </text>
<text text-anchor="start" x="152.83" y="-304.8" font-family="Arial" font-size="14.00" fill="#666666">[text]</text>
<polygon fill="none" stroke="black" points="46.2,-261.8 46.2,-292.6 539.53,-292.6 539.53,-261.8 46.2,-261.8"/>
<text text-anchor="start" x="53.2" y="-274" font-family="Arial" font-size="14.00">owner_id </text>
<text text-anchor="start" x="113.9" y="-274" font-family="Arial" font-size="14.00" fill="#666666">[text]</text>
<polygon fill="none" stroke="black" points="46.2,-231 46.2,-261.8 539.53,-261.8 539.53,-231 46.2,-231"/>
<text text-anchor="start" x="53.2" y="-243.2" font-family="Arial" font-size="14.00">share_status </text>
<text text-anchor="start" x="137.25" y="-243.2" font-family="Arial" font-size="14.00" fill="#666666">[text]</text>
<polygon fill="none" stroke="black" points="46.2,-200.2 46.2,-231 539.53,-231 539.53,-200.2 46.2,-200.2"/>
<text text-anchor="start" x="53.2" y="-212.4" font-family="Arial" font-size="14.00">title </text>
<text text-anchor="start" x="78.88" y="-212.4" font-family="Arial" font-size="14.00" fill="#666666">[text]</text>
<polygon fill="none" stroke="black" points="46.2,-169.4 46.2,-200.2 539.53,-200.2 539.53,-169.4 46.2,-169.4"/>
<text text-anchor="start" x="53.2" y="-181.6" font-family="Arial" font-size="14.00">akas </text>
<text text-anchor="start" x="86.66" y="-181.6" font-family="Arial" font-size="14.00" fill="#666666">[jsonb]</text>
<polygon fill="none" stroke="black" points="46.2,-138.6 46.2,-169.4 539.53,-169.4 539.53,-138.6 46.2,-138.6"/>
<text text-anchor="start" x="53.2" y="-150.8" font-family="Arial" font-size="14.00">partition </text>
<text text-anchor="start" x="106.9" y="-150.8" font-family="Arial" font-size="14.00" fill="#666666">[text]</text>
<polygon fill="none" stroke="black" points="46.2,-107.8 46.2,-138.6 539.53,-138.6 539.53,-107.8 46.2,-107.8"/>
<text text-anchor="start" x="53.2" y="-120" font-family="Arial" font-size="14.00">region </text>
<text text-anchor="start" x="96.01" y="-120" font-family="Arial" font-size="14.00" fill="#666666">[text]</text>
<polygon fill="none" stroke="black" points="46.2,-77 46.2,-107.8 539.53,-107.8 539.53,-77 46.2,-77"/>
<text text-anchor="start" x="53.2" y="-89.2" font-family="Arial" font-size="14.00">account_id </text>
<text text-anchor="start" x="124.81" y="-89.2" font-family="Arial" font-size="14.00" fill="#666666">[text]</text>
<polygon fill="none" stroke="black" points="46.2,-46.2 46.2,-77 539.53,-77 539.53,-46.2 46.2,-46.2"/>
<text text-anchor="start" x="53.2" y="-58.4" font-family="Arial" font-size="14.00">_ctx </text>
<text text-anchor="start" x="82.77" y="-58.4" font-family="Arial" font-size="14.00" fill="#666666">[jsonb]</text>
<polygon fill="none" stroke="black" stroke-width="3" points="44.7,-44.7 44.7,-606.9 541.03,-606.9 541.03,-44.7 44.7,-44.7"/>
</g>
</g>
</svg>
