<?xml version="1.0" encoding="UTF-8" standalone="no"?>
<!DOCTYPE svg PUBLIC "-//W3C//DTD SVG 1.1//EN"
 "http://www.w3.org/Graphics/SVG/1.1/DTD/svg11.dtd">
<!-- Generated by graphviz version 12.1.2 (20240928.0832)
 -->
<!-- Title: aws.aws_inspector2_coverage_statistics Pages: 1 -->
<svg width="555pt" height="321pt"
 viewBox="0.00 0.00 554.73 320.80" xmlns="http://www.w3.org/2000/svg" xmlns:xlink="http://www.w3.org/1999/xlink">
<g id="graph0" class="graph" transform="scale(1 1) rotate(0) translate(4 316.8)">
<title>aws.aws_inspector2_coverage_statistics</title>
<polygon fill="white" stroke="none" points="-4,4 -4,-316.8 550.73,-316.8 550.73,4 -4,4"/>
<!-- aws.aws_inspector2_coverage_statistics -->
<g id="node1" class="node">
<title>aws.aws_inspector2_coverage_statistics</title>
<polygon fill="#efefef" stroke="none" points="46.2,-231 46.2,-266.6 500.53,-266.6 500.53,-231 46.2,-231"/>
<polygon fill="none" stroke="black" points="46.2,-231 46.2,-266.6 500.53,-266.6 500.53,-231 46.2,-231"/>
<text text-anchor="start" x="53.2" y="-244.4" font-family="Arial Bold" font-size="18.00">aws.aws_inspector2_coverage_statistics</text>
<text text-anchor="start" x="342.62" y="-244.4" font-family="Arial" font-size="14.00">    </text>
<text text-anchor="start" x="373.73" y="-244.4" font-family="Arial" font-size="14.00" fill="#666666">[FOREIGN TABLE]</text>
<polygon fill="none" stroke="black" points="46.2,-200.2 46.2,-231 500.53,-231 500.53,-200.2 46.2,-200.2"/>
<text text-anchor="start" x="53.2" y="-212.4" font-family="Arial" font-size="14.00">total_counts </text>
<text text-anchor="start" x="132.59" y="-212.4" font-family="Arial" font-size="14.00" fill="#666666">[bigint]</text>
<polygon fill="none" stroke="black" points="46.2,-169.4 46.2,-200.2 500.53,-200.2 500.53,-169.4 46.2,-169.4"/>
<text text-anchor="start" x="53.2" y="-181.6" font-family="Arial" font-size="14.00">counts_by_group </text>
<text text-anchor="start" x="164.5" y="-181.6" font-family="Arial" font-size="14.00" fill="#666666">[jsonb]</text>
<polygon fill="none" stroke="black" points="46.2,-138.6 46.2,-169.4 500.53,-169.4 500.53,-138.6 46.2,-138.6"/>
<text text-anchor="start" x="53.2" y="-150.8" font-family="Arial" font-size="14.00">partition </text>
<text text-anchor="start" x="106.9" y="-150.8" font-family="Arial" font-size="14.00" fill="#666666">[text]</text>
<polygon fill="none" stroke="black" points="46.2,-107.8 46.2,-138.6 500.53,-138.6 500.53,-107.8 46.2,-107.8"/>
<text text-anchor="start" x="53.2" y="-120" font-family="Arial" font-size="14.00">region </text>
<text text-anchor="start" x="96.01" y="-120" font-family="Arial" font-size="14.00" fill="#666666">[text]</text>
<polygon fill="none" stroke="black" points="46.2,-77 46.2,-107.8 500.53,-107.8 500.53,-77 46.2,-77"/>
<text text-anchor="start" x="53.2" y="-89.2" font-family="Arial" font-size="14.00">account_id </text>
<text text-anchor="start" x="124.81" y="-89.2" font-family="Arial" font-size="14.00" fill="#666666">[text]</text>
<polygon fill="none" stroke="black" points="46.2,-46.2 46.2,-77 500.53,-77 500.53,-46.2 46.2,-46.2"/>
<text text-anchor="start" x="53.2" y="-58.4" font-family="Arial" font-size="14.00">_ctx </text>
<text text-anchor="start" x="82.77" y="-58.4" font-family="Arial" font-size="14.00" fill="#666666">[jsonb]</text>
<polygon fill="none" stroke="black" stroke-width="3" points="44.7,-44.7 44.7,-268.1 502.03,-268.1 502.03,-44.7 44.7,-44.7"/>
</g>
</g>
</svg>
