<?xml version="1.0" encoding="UTF-8" standalone="no"?>
<!DOCTYPE svg PUBLIC "-//W3C//DTD SVG 1.1//EN"
 "http://www.w3.org/Graphics/SVG/1.1/DTD/svg11.dtd">
<!-- Generated by graphviz version 12.1.2 (20240928.0832)
 -->
<!-- Title: aws.aws_ec2_instance Pages: 1 -->
<svg width="428pt" height="2662pt"
 viewBox="0.00 0.00 427.76 2661.60" xmlns="http://www.w3.org/2000/svg" xmlns:xlink="http://www.w3.org/1999/xlink">
<g id="graph0" class="graph" transform="scale(1 1) rotate(0) translate(4 2657.6)">
<title>aws.aws_ec2_instance</title>
<polygon fill="white" stroke="none" points="-4,4 -4,-2657.6 423.76,-2657.6 423.76,4 -4,4"/>
<!-- aws.aws_ec2_instance -->
<g id="node1" class="node">
<title>aws.aws_ec2_instance</title>
<polygon fill="#efefef" stroke="none" points="46.2,-2571.8 46.2,-2607.4 373.56,-2607.4 373.56,-2571.8 46.2,-2571.8"/>
<polygon fill="none" stroke="black" points="46.2,-2571.8 46.2,-2607.4 373.56,-2607.4 373.56,-2571.8 46.2,-2571.8"/>
<text text-anchor="start" x="53.2" y="-2585.2" font-family="Arial Bold" font-size="18.00">aws.aws_ec2_instance</text>
<text text-anchor="start" x="215.64" y="-2585.2" font-family="Arial" font-size="14.00">    </text>
<text text-anchor="start" x="246.76" y="-2585.2" font-family="Arial" font-size="14.00" fill="#666666">[FOREIGN TABLE]</text>
<polygon fill="none" stroke="black" points="46.2,-2541 46.2,-2571.8 373.56,-2571.8 373.56,-2541 46.2,-2541"/>
<text text-anchor="start" x="53.2" y="-2553.2" font-family="Arial" font-size="14.00">instance_id </text>
<text text-anchor="start" x="127.92" y="-2553.2" font-family="Arial" font-size="14.00" fill="#666666">[text]</text>
<polygon fill="none" stroke="black" points="46.2,-2510.2 46.2,-2541 373.56,-2541 373.56,-2510.2 46.2,-2510.2"/>
<text text-anchor="start" x="53.2" y="-2522.4" font-family="Arial" font-size="14.00">arn </text>
<text text-anchor="start" x="77.32" y="-2522.4" font-family="Arial" font-size="14.00" fill="#666666">[text]</text>
<polygon fill="none" stroke="black" points="46.2,-2479.4 46.2,-2510.2 373.56,-2510.2 373.56,-2479.4 46.2,-2479.4"/>
<text text-anchor="start" x="53.2" y="-2491.6" font-family="Arial" font-size="14.00">instance_type </text>
<text text-anchor="start" x="143.48" y="-2491.6" font-family="Arial" font-size="14.00" fill="#666666">[text]</text>
<polygon fill="none" stroke="black" points="46.2,-2448.6 46.2,-2479.4 373.56,-2479.4 373.56,-2448.6 46.2,-2448.6"/>
<text text-anchor="start" x="53.2" y="-2460.8" font-family="Arial" font-size="14.00">instance_state </text>
<text text-anchor="start" x="147.37" y="-2460.8" font-family="Arial" font-size="14.00" fill="#666666">[text]</text>
<polygon fill="none" stroke="black" points="46.2,-2417.8 46.2,-2448.6 373.56,-2448.6 373.56,-2417.8 46.2,-2417.8"/>
<text text-anchor="start" x="53.2" y="-2430" font-family="Arial" font-size="14.00">monitoring_state </text>
<text text-anchor="start" x="160.59" y="-2430" font-family="Arial" font-size="14.00" fill="#666666">[text]</text>
<polygon fill="none" stroke="black" points="46.2,-2387 46.2,-2417.8 373.56,-2417.8 373.56,-2387 46.2,-2387"/>
<text text-anchor="start" x="53.2" y="-2399.2" font-family="Arial" font-size="14.00">disable_api_termination </text>
<text text-anchor="start" x="204.96" y="-2399.2" font-family="Arial" font-size="14.00" fill="#666666">[boolean]</text>
<polygon fill="none" stroke="black" points="46.2,-2356.2 46.2,-2387 373.56,-2387 373.56,-2356.2 46.2,-2356.2"/>
<text text-anchor="start" x="53.2" y="-2368.4" font-family="Arial" font-size="14.00">ami_launch_index </text>
<text text-anchor="start" x="169.94" y="-2368.4" font-family="Arial" font-size="14.00" fill="#666666">[bigint]</text>
<polygon fill="none" stroke="black" points="46.2,-2325.4 46.2,-2356.2 373.56,-2356.2 373.56,-2325.4 46.2,-2325.4"/>
<text text-anchor="start" x="53.2" y="-2337.6" font-family="Arial" font-size="14.00">architecture </text>
<text text-anchor="start" x="130.23" y="-2337.6" font-family="Arial" font-size="14.00" fill="#666666">[text]</text>
<polygon fill="none" stroke="black" points="46.2,-2294.6 46.2,-2325.4 373.56,-2325.4 373.56,-2294.6 46.2,-2294.6"/>
<text text-anchor="start" x="53.2" y="-2306.8" font-family="Arial" font-size="14.00">boot_mode </text>
<text text-anchor="start" x="127.14" y="-2306.8" font-family="Arial" font-size="14.00" fill="#666666">[text]</text>
<polygon fill="none" stroke="black" points="46.2,-2263.8 46.2,-2294.6 373.56,-2294.6 373.56,-2263.8 46.2,-2263.8"/>
<text text-anchor="start" x="53.2" y="-2276" font-family="Arial" font-size="14.00">capacity_reservation_id </text>
<text text-anchor="start" x="204.17" y="-2276" font-family="Arial" font-size="14.00" fill="#666666">[text]</text>
<polygon fill="none" stroke="black" points="46.2,-2233 46.2,-2263.8 373.56,-2263.8 373.56,-2233 46.2,-2233"/>
<text text-anchor="start" x="53.2" y="-2245.2" font-family="Arial" font-size="14.00">capacity_reservation_specification </text>
<text text-anchor="start" x="270.32" y="-2245.2" font-family="Arial" font-size="14.00" fill="#666666">[text]</text>
<polygon fill="none" stroke="black" points="46.2,-2202.2 46.2,-2233 373.56,-2233 373.56,-2202.2 46.2,-2202.2"/>
<text text-anchor="start" x="53.2" y="-2214.4" font-family="Arial" font-size="14.00">client_token </text>
<text text-anchor="start" x="131.81" y="-2214.4" font-family="Arial" font-size="14.00" fill="#666666">[text]</text>
<polygon fill="none" stroke="black" points="46.2,-2171.4 46.2,-2202.2 373.56,-2202.2 373.56,-2171.4 46.2,-2171.4"/>
<text text-anchor="start" x="53.2" y="-2183.6" font-family="Arial" font-size="14.00">cpu_options_core_count </text>
<text text-anchor="start" x="209.65" y="-2183.6" font-family="Arial" font-size="14.00" fill="#666666">[bigint]</text>
<polygon fill="none" stroke="black" points="46.2,-2140.6 46.2,-2171.4 373.56,-2171.4 373.56,-2140.6 46.2,-2140.6"/>
<text text-anchor="start" x="53.2" y="-2152.8" font-family="Arial" font-size="14.00">cpu_options_threads_per_core </text>
<text text-anchor="start" x="250.12" y="-2152.8" font-family="Arial" font-size="14.00" fill="#666666">[bigint]</text>
<polygon fill="none" stroke="black" points="46.2,-2109.8 46.2,-2140.6 373.56,-2140.6 373.56,-2109.8 46.2,-2109.8"/>
<text text-anchor="start" x="53.2" y="-2122" font-family="Arial" font-size="14.00">ebs_optimized </text>
<text text-anchor="start" x="147.37" y="-2122" font-family="Arial" font-size="14.00" fill="#666666">[boolean]</text>
<polygon fill="none" stroke="black" points="46.2,-2079 46.2,-2109.8 373.56,-2109.8 373.56,-2079 46.2,-2079"/>
<text text-anchor="start" x="53.2" y="-2091.2" font-family="Arial" font-size="14.00">ena_support </text>
<text text-anchor="start" x="134.93" y="-2091.2" font-family="Arial" font-size="14.00" fill="#666666">[boolean]</text>
<polygon fill="none" stroke="black" points="46.2,-2048.2 46.2,-2079 373.56,-2079 373.56,-2048.2 46.2,-2048.2"/>
<text text-anchor="start" x="53.2" y="-2060.4" font-family="Arial" font-size="14.00">hypervisor </text>
<text text-anchor="start" x="121.67" y="-2060.4" font-family="Arial" font-size="14.00" fill="#666666">[text]</text>
<polygon fill="none" stroke="black" points="46.2,-2017.4 46.2,-2048.2 373.56,-2048.2 373.56,-2017.4 46.2,-2017.4"/>
<text text-anchor="start" x="53.2" y="-2029.6" font-family="Arial" font-size="14.00">iam_instance_profile_arn </text>
<text text-anchor="start" x="213.52" y="-2029.6" font-family="Arial" font-size="14.00" fill="#666666">[text]</text>
<polygon fill="none" stroke="black" points="46.2,-1986.6 46.2,-2017.4 373.56,-2017.4 373.56,-1986.6 46.2,-1986.6"/>
<text text-anchor="start" x="53.2" y="-1998.8" font-family="Arial" font-size="14.00">iam_instance_profile_id </text>
<text text-anchor="start" x="204.18" y="-1998.8" font-family="Arial" font-size="14.00" fill="#666666">[text]</text>
<polygon fill="none" stroke="black" points="46.2,-1955.8 46.2,-1986.6 373.56,-1986.6 373.56,-1955.8 46.2,-1955.8"/>
<text text-anchor="start" x="53.2" y="-1968" font-family="Arial" font-size="14.00">image_id </text>
<text text-anchor="start" x="113.9" y="-1968" font-family="Arial" font-size="14.00" fill="#666666">[text]</text>
<polygon fill="none" stroke="black" points="46.2,-1925 46.2,-1955.8 373.56,-1955.8 373.56,-1925 46.2,-1925"/>
<text text-anchor="start" x="53.2" y="-1937.2" font-family="Arial" font-size="14.00">instance_initiated_shutdown_behavior </text>
<text text-anchor="start" x="294.48" y="-1937.2" font-family="Arial" font-size="14.00" fill="#666666">[text]</text>
<polygon fill="none" stroke="black" points="46.2,-1894.2 46.2,-1925 373.56,-1925 373.56,-1894.2 46.2,-1894.2"/>
<text text-anchor="start" x="53.2" y="-1906.4" font-family="Arial" font-size="14.00">instance_lifecycle </text>
<text text-anchor="start" x="166.81" y="-1906.4" font-family="Arial" font-size="14.00" fill="#666666">[text]</text>
<polygon fill="none" stroke="black" points="46.2,-1863.4 46.2,-1894.2 373.56,-1894.2 373.56,-1863.4 46.2,-1863.4"/>
<text text-anchor="start" x="53.2" y="-1875.6" font-family="Arial" font-size="14.00">kernel_id </text>
<text text-anchor="start" x="113.9" y="-1875.6" font-family="Arial" font-size="14.00" fill="#666666">[text]</text>
<polygon fill="none" stroke="black" points="46.2,-1832.6 46.2,-1863.4 373.56,-1863.4 373.56,-1832.6 46.2,-1832.6"/>
<text text-anchor="start" x="53.2" y="-1844.8" font-family="Arial" font-size="14.00">key_name </text>
<text text-anchor="start" x="121.68" y="-1844.8" font-family="Arial" font-size="14.00" fill="#666666">[text]</text>
<polygon fill="none" stroke="black" points="46.2,-1801.8 46.2,-1832.6 373.56,-1832.6 373.56,-1801.8 46.2,-1801.8"/>
<text text-anchor="start" x="53.2" y="-1814" font-family="Arial" font-size="14.00">launch_time </text>
<text text-anchor="start" x="132.58" y="-1814" font-family="Arial" font-size="14.00" fill="#666666">[timestamp with time zone]</text>
<polygon fill="none" stroke="black" points="46.2,-1771 46.2,-1801.8 373.56,-1801.8 373.56,-1771 46.2,-1771"/>
<text text-anchor="start" x="53.2" y="-1783.2" font-family="Arial" font-size="14.00">outpost_arn </text>
<text text-anchor="start" x="131.03" y="-1783.2" font-family="Arial" font-size="14.00" fill="#666666">[text]</text>
<polygon fill="none" stroke="black" points="46.2,-1740.2 46.2,-1771 373.56,-1771 373.56,-1740.2 46.2,-1740.2"/>
<text text-anchor="start" x="53.2" y="-1752.4" font-family="Arial" font-size="14.00">placement_affinity </text>
<text text-anchor="start" x="169.93" y="-1752.4" font-family="Arial" font-size="14.00" fill="#666666">[text]</text>
<polygon fill="none" stroke="black" points="46.2,-1709.4 46.2,-1740.2 373.56,-1740.2 373.56,-1709.4 46.2,-1709.4"/>
<text text-anchor="start" x="53.2" y="-1721.6" font-family="Arial" font-size="14.00">placement_availability_zone </text>
<text text-anchor="start" x="232.2" y="-1721.6" font-family="Arial" font-size="14.00" fill="#666666">[text]</text>
<polygon fill="none" stroke="black" points="46.2,-1678.6 46.2,-1709.4 373.56,-1709.4 373.56,-1678.6 46.2,-1678.6"/>
<text text-anchor="start" x="53.2" y="-1690.8" font-family="Arial" font-size="14.00">placement_group_id </text>
<text text-anchor="start" x="183.96" y="-1690.8" font-family="Arial" font-size="14.00" fill="#666666">[text]</text>
<polygon fill="none" stroke="black" points="46.2,-1647.8 46.2,-1678.6 373.56,-1678.6 373.56,-1647.8 46.2,-1647.8"/>
<text text-anchor="start" x="53.2" y="-1660" font-family="Arial" font-size="14.00">placement_group_name </text>
<text text-anchor="start" x="208.08" y="-1660" font-family="Arial" font-size="14.00" fill="#666666">[text]</text>
<polygon fill="none" stroke="black" points="46.2,-1617 46.2,-1647.8 373.56,-1647.8 373.56,-1617 46.2,-1617"/>
<text text-anchor="start" x="53.2" y="-1629.2" font-family="Arial" font-size="14.00">placement_host_id </text>
<text text-anchor="start" x="174.61" y="-1629.2" font-family="Arial" font-size="14.00" fill="#666666">[text]</text>
<polygon fill="none" stroke="black" points="46.2,-1586.2 46.2,-1617 373.56,-1617 373.56,-1586.2 46.2,-1586.2"/>
<text text-anchor="start" x="53.2" y="-1598.4" font-family="Arial" font-size="14.00">placement_host_resource_group_arn </text>
<text text-anchor="start" x="289.8" y="-1598.4" font-family="Arial" font-size="14.00" fill="#666666">[text]</text>
<polygon fill="none" stroke="black" points="46.2,-1555.4 46.2,-1586.2 373.56,-1586.2 373.56,-1555.4 46.2,-1555.4"/>
<text text-anchor="start" x="53.2" y="-1567.6" font-family="Arial" font-size="14.00">placement_partition_number </text>
<text text-anchor="start" x="234.53" y="-1567.6" font-family="Arial" font-size="14.00" fill="#666666">[bigint]</text>
<polygon fill="none" stroke="black" points="46.2,-1524.6 46.2,-1555.4 373.56,-1555.4 373.56,-1524.6 46.2,-1524.6"/>
<text text-anchor="start" x="53.2" y="-1536.8" font-family="Arial" font-size="14.00">placement_tenancy </text>
<text text-anchor="start" x="178.5" y="-1536.8" font-family="Arial" font-size="14.00" fill="#666666">[text]</text>
<polygon fill="none" stroke="black" points="46.2,-1493.8 46.2,-1524.6 373.56,-1524.6 373.56,-1493.8 46.2,-1493.8"/>
<text text-anchor="start" x="53.2" y="-1506" font-family="Arial" font-size="14.00">platform </text>
<text text-anchor="start" x="107.66" y="-1506" font-family="Arial" font-size="14.00" fill="#666666">[text]</text>
<polygon fill="none" stroke="black" points="46.2,-1463 46.2,-1493.8 373.56,-1493.8 373.56,-1463 46.2,-1463"/>
<text text-anchor="start" x="53.2" y="-1475.2" font-family="Arial" font-size="14.00">platform_details </text>
<text text-anchor="start" x="155.92" y="-1475.2" font-family="Arial" font-size="14.00" fill="#666666">[text]</text>
<polygon fill="none" stroke="black" points="46.2,-1432.2 46.2,-1463 373.56,-1463 373.56,-1432.2 46.2,-1432.2"/>
<text text-anchor="start" x="53.2" y="-1444.4" font-family="Arial" font-size="14.00">private_ip_address </text>
<text text-anchor="start" x="175.39" y="-1444.4" font-family="Arial" font-size="14.00" fill="#666666">[inet]</text>
<polygon fill="none" stroke="black" points="46.2,-1401.4 46.2,-1432.2 373.56,-1432.2 373.56,-1401.4 46.2,-1401.4"/>
<text text-anchor="start" x="53.2" y="-1413.6" font-family="Arial" font-size="14.00">private_dns_name </text>
<text text-anchor="start" x="172.28" y="-1413.6" font-family="Arial" font-size="14.00" fill="#666666">[text]</text>
<polygon fill="none" stroke="black" points="46.2,-1370.6 46.2,-1401.4 373.56,-1401.4 373.56,-1370.6 46.2,-1370.6"/>
<text text-anchor="start" x="53.2" y="-1382.8" font-family="Arial" font-size="14.00">public_dns_name </text>
<text text-anchor="start" x="166.83" y="-1382.8" font-family="Arial" font-size="14.00" fill="#666666">[text]</text>
<polygon fill="none" stroke="black" points="46.2,-1339.8 46.2,-1370.6 373.56,-1370.6 373.56,-1339.8 46.2,-1339.8"/>
<text text-anchor="start" x="53.2" y="-1352" font-family="Arial" font-size="14.00">public_ip_address </text>
<text text-anchor="start" x="169.94" y="-1352" font-family="Arial" font-size="14.00" fill="#666666">[inet]</text>
<polygon fill="none" stroke="black" points="46.2,-1309 46.2,-1339.8 373.56,-1339.8 373.56,-1309 46.2,-1309"/>
<text text-anchor="start" x="53.2" y="-1321.2" font-family="Arial" font-size="14.00">ram_disk_id </text>
<text text-anchor="start" x="132.57" y="-1321.2" font-family="Arial" font-size="14.00" fill="#666666">[text]</text>
<polygon fill="none" stroke="black" points="46.2,-1278.2 46.2,-1309 373.56,-1309 373.56,-1278.2 46.2,-1278.2"/>
<text text-anchor="start" x="53.2" y="-1290.4" font-family="Arial" font-size="14.00">root_device_name </text>
<text text-anchor="start" x="172.28" y="-1290.4" font-family="Arial" font-size="14.00" fill="#666666">[text]</text>
<polygon fill="none" stroke="black" points="46.2,-1247.4 46.2,-1278.2 373.56,-1278.2 373.56,-1247.4 46.2,-1247.4"/>
<text text-anchor="start" x="53.2" y="-1259.6" font-family="Arial" font-size="14.00">root_device_type </text>
<text text-anchor="start" x="163.72" y="-1259.6" font-family="Arial" font-size="14.00" fill="#666666">[text]</text>
<polygon fill="none" stroke="black" points="46.2,-1216.6 46.2,-1247.4 373.56,-1247.4 373.56,-1216.6 46.2,-1216.6"/>
<text text-anchor="start" x="53.2" y="-1228.8" font-family="Arial" font-size="14.00">source_dest_check </text>
<text text-anchor="start" x="177.72" y="-1228.8" font-family="Arial" font-size="14.00" fill="#666666">[boolean]</text>
<polygon fill="none" stroke="black" points="46.2,-1185.8 46.2,-1216.6 373.56,-1216.6 373.56,-1185.8 46.2,-1185.8"/>
<text text-anchor="start" x="53.2" y="-1198" font-family="Arial" font-size="14.00">spot_instance_request_id </text>
<text text-anchor="start" x="216.65" y="-1198" font-family="Arial" font-size="14.00" fill="#666666">[text]</text>
<polygon fill="none" stroke="black" points="46.2,-1155 46.2,-1185.8 373.56,-1185.8 373.56,-1155 46.2,-1155"/>
<text text-anchor="start" x="53.2" y="-1167.2" font-family="Arial" font-size="14.00">sriov_net_support </text>
<text text-anchor="start" x="168.38" y="-1167.2" font-family="Arial" font-size="14.00" fill="#666666">[text]</text>
<polygon fill="none" stroke="black" points="46.2,-1124.2 46.2,-1155 373.56,-1155 373.56,-1124.2 46.2,-1124.2"/>
<text text-anchor="start" x="53.2" y="-1136.4" font-family="Arial" font-size="14.00">state_code </text>
<text text-anchor="start" x="125.59" y="-1136.4" font-family="Arial" font-size="14.00" fill="#666666">[bigint]</text>
<polygon fill="none" stroke="black" points="46.2,-1093.4 46.2,-1124.2 373.56,-1124.2 373.56,-1093.4 46.2,-1093.4"/>
<text text-anchor="start" x="53.2" y="-1105.6" font-family="Arial" font-size="14.00">state_transition_reason </text>
<text text-anchor="start" x="202.63" y="-1105.6" font-family="Arial" font-size="14.00" fill="#666666">[text]</text>
<polygon fill="none" stroke="black" points="46.2,-1062.6 46.2,-1093.4 373.56,-1093.4 373.56,-1062.6 46.2,-1062.6"/>
<text text-anchor="start" x="53.2" y="-1074.8" font-family="Arial" font-size="14.00">state_transition_time </text>
<text text-anchor="start" x="186.27" y="-1074.8" font-family="Arial" font-size="14.00" fill="#666666">[timestamp with time zone]</text>
<polygon fill="none" stroke="black" points="46.2,-1031.8 46.2,-1062.6 373.56,-1062.6 373.56,-1031.8 46.2,-1031.8"/>
<text text-anchor="start" x="53.2" y="-1044" font-family="Arial" font-size="14.00">subnet_id </text>
<text text-anchor="start" x="117.81" y="-1044" font-family="Arial" font-size="14.00" fill="#666666">[text]</text>
<polygon fill="none" stroke="black" points="46.2,-1001 46.2,-1031.8 373.56,-1031.8 373.56,-1001 46.2,-1001"/>
<text text-anchor="start" x="53.2" y="-1013.2" font-family="Arial" font-size="14.00">tpm_support </text>
<text text-anchor="start" x="134.91" y="-1013.2" font-family="Arial" font-size="14.00" fill="#666666">[text]</text>
<polygon fill="none" stroke="black" points="46.2,-970.2 46.2,-1001 373.56,-1001 373.56,-970.2 46.2,-970.2"/>
<text text-anchor="start" x="53.2" y="-982.4" font-family="Arial" font-size="14.00">usage_operation </text>
<text text-anchor="start" x="161.4" y="-982.4" font-family="Arial" font-size="14.00" fill="#666666">[text]</text>
<polygon fill="none" stroke="black" points="46.2,-939.4 46.2,-970.2 373.56,-970.2 373.56,-939.4 46.2,-939.4"/>
<text text-anchor="start" x="53.2" y="-951.6" font-family="Arial" font-size="14.00">usage_operation_update_time </text>
<text text-anchor="start" x="246.24" y="-951.6" font-family="Arial" font-size="14.00" fill="#666666">[text]</text>
<polygon fill="none" stroke="black" points="46.2,-908.6 46.2,-939.4 373.56,-939.4 373.56,-908.6 46.2,-908.6"/>
<text text-anchor="start" x="53.2" y="-920.8" font-family="Arial" font-size="14.00">user_data </text>
<text text-anchor="start" x="119.36" y="-920.8" font-family="Arial" font-size="14.00" fill="#666666">[text]</text>
<polygon fill="none" stroke="black" points="46.2,-877.8 46.2,-908.6 373.56,-908.6 373.56,-877.8 46.2,-877.8"/>
<text text-anchor="start" x="53.2" y="-890" font-family="Arial" font-size="14.00">virtualization_type </text>
<text text-anchor="start" x="169.15" y="-890" font-family="Arial" font-size="14.00" fill="#666666">[text]</text>
<polygon fill="none" stroke="black" points="46.2,-847 46.2,-877.8 373.56,-877.8 373.56,-847 46.2,-847"/>
<text text-anchor="start" x="53.2" y="-859.2" font-family="Arial" font-size="14.00">vpc_id </text>
<text text-anchor="start" x="97.56" y="-859.2" font-family="Arial" font-size="14.00" fill="#666666">[text]</text>
<polygon fill="none" stroke="black" points="46.2,-816.2 46.2,-847 373.56,-847 373.56,-816.2 46.2,-816.2"/>
<text text-anchor="start" x="53.2" y="-828.4" font-family="Arial" font-size="14.00">block_device_mappings </text>
<text text-anchor="start" x="206.52" y="-828.4" font-family="Arial" font-size="14.00" fill="#666666">[jsonb]</text>
<polygon fill="none" stroke="black" points="46.2,-785.4 46.2,-816.2 373.56,-816.2 373.56,-785.4 46.2,-785.4"/>
<text text-anchor="start" x="53.2" y="-797.6" font-family="Arial" font-size="14.00">elastic_gpu_associations </text>
<text text-anchor="start" x="212.74" y="-797.6" font-family="Arial" font-size="14.00" fill="#666666">[jsonb]</text>
<polygon fill="none" stroke="black" points="46.2,-754.6 46.2,-785.4 373.56,-785.4 373.56,-754.6 46.2,-754.6"/>
<text text-anchor="start" x="53.2" y="-766.8" font-family="Arial" font-size="14.00">elastic_inference_accelerator_associations </text>
<text text-anchor="start" x="324.02" y="-766.8" font-family="Arial" font-size="14.00" fill="#666666">[jsonb]</text>
<polygon fill="none" stroke="black" points="46.2,-723.8 46.2,-754.6 373.56,-754.6 373.56,-723.8 46.2,-723.8"/>
<text text-anchor="start" x="53.2" y="-736" font-family="Arial" font-size="14.00">enclave_options </text>
<text text-anchor="start" x="158.28" y="-736" font-family="Arial" font-size="14.00" fill="#666666">[jsonb]</text>
<polygon fill="none" stroke="black" points="46.2,-693 46.2,-723.8 373.56,-723.8 373.56,-693 46.2,-693"/>
<text text-anchor="start" x="53.2" y="-705.2" font-family="Arial" font-size="14.00">hibernation_options </text>
<text text-anchor="start" x="179.3" y="-705.2" font-family="Arial" font-size="14.00" fill="#666666">[jsonb]</text>
<polygon fill="none" stroke="black" points="46.2,-662.2 46.2,-693 373.56,-693 373.56,-662.2 46.2,-662.2"/>
<text text-anchor="start" x="53.2" y="-674.4" font-family="Arial" font-size="14.00">launch_template_data </text>
<text text-anchor="start" x="194.86" y="-674.4" font-family="Arial" font-size="14.00" fill="#666666">[jsonb]</text>
<polygon fill="none" stroke="black" points="46.2,-631.4 46.2,-662.2 373.56,-662.2 373.56,-631.4 46.2,-631.4"/>
<text text-anchor="start" x="53.2" y="-643.6" font-family="Arial" font-size="14.00">licenses </text>
<text text-anchor="start" x="107.67" y="-643.6" font-family="Arial" font-size="14.00" fill="#666666">[jsonb]</text>
<polygon fill="none" stroke="black" points="46.2,-600.6 46.2,-631.4 373.56,-631.4 373.56,-600.6 46.2,-600.6"/>
<text text-anchor="start" x="53.2" y="-612.8" font-family="Arial" font-size="14.00">maintenance_options </text>
<text text-anchor="start" x="190.19" y="-612.8" font-family="Arial" font-size="14.00" fill="#666666">[jsonb]</text>
<polygon fill="none" stroke="black" points="46.2,-569.8 46.2,-600.6 373.56,-600.6 373.56,-569.8 46.2,-569.8"/>
<text text-anchor="start" x="53.2" y="-582" font-family="Arial" font-size="14.00">metadata_options </text>
<text text-anchor="start" x="168.39" y="-582" font-family="Arial" font-size="14.00" fill="#666666">[jsonb]</text>
<polygon fill="none" stroke="black" points="46.2,-539 46.2,-569.8 373.56,-569.8 373.56,-539 46.2,-539"/>
<text text-anchor="start" x="53.2" y="-551.2" font-family="Arial" font-size="14.00">network_interfaces </text>
<text text-anchor="start" x="174.59" y="-551.2" font-family="Arial" font-size="14.00" fill="#666666">[jsonb]</text>
<polygon fill="none" stroke="black" points="46.2,-508.2 46.2,-539 373.56,-539 373.56,-508.2 46.2,-508.2"/>
<text text-anchor="start" x="53.2" y="-520.4" font-family="Arial" font-size="14.00">private_dns_name_options </text>
<text text-anchor="start" x="225.21" y="-520.4" font-family="Arial" font-size="14.00" fill="#666666">[jsonb]</text>
<polygon fill="none" stroke="black" points="46.2,-477.4 46.2,-508.2 373.56,-508.2 373.56,-477.4 46.2,-477.4"/>
<text text-anchor="start" x="53.2" y="-489.6" font-family="Arial" font-size="14.00">product_codes </text>
<text text-anchor="start" x="148.93" y="-489.6" font-family="Arial" font-size="14.00" fill="#666666">[jsonb]</text>
<polygon fill="none" stroke="black" points="46.2,-446.6 46.2,-477.4 373.56,-477.4 373.56,-446.6 46.2,-446.6"/>
<text text-anchor="start" x="53.2" y="-458.8" font-family="Arial" font-size="14.00">security_groups </text>
<text text-anchor="start" x="155.92" y="-458.8" font-family="Arial" font-size="14.00" fill="#666666">[jsonb]</text>
<polygon fill="none" stroke="black" points="46.2,-415.8 46.2,-446.6 373.56,-446.6 373.56,-415.8 46.2,-415.8"/>
<text text-anchor="start" x="53.2" y="-428" font-family="Arial" font-size="14.00">instance_status </text>
<text text-anchor="start" x="154.37" y="-428" font-family="Arial" font-size="14.00" fill="#666666">[jsonb]</text>
<polygon fill="none" stroke="black" points="46.2,-385 46.2,-415.8 373.56,-415.8 373.56,-385 46.2,-385"/>
<text text-anchor="start" x="53.2" y="-397.2" font-family="Arial" font-size="14.00">tags_src </text>
<text text-anchor="start" x="110" y="-397.2" font-family="Arial" font-size="14.00" fill="#666666">[jsonb]</text>
<polygon fill="none" stroke="black" points="46.2,-354.2 46.2,-385 373.56,-385 373.56,-354.2 46.2,-354.2"/>
<text text-anchor="start" x="53.2" y="-366.4" font-family="Arial" font-size="14.00">title </text>
<text text-anchor="start" x="78.88" y="-366.4" font-family="Arial" font-size="14.00" fill="#666666">[text]</text>
<polygon fill="none" stroke="black" points="46.2,-323.4 46.2,-354.2 373.56,-354.2 373.56,-323.4 46.2,-323.4"/>
<text text-anchor="start" x="53.2" y="-335.6" font-family="Arial" font-size="14.00">tags </text>
<text text-anchor="start" x="83.55" y="-335.6" font-family="Arial" font-size="14.00" fill="#666666">[jsonb]</text>
<polygon fill="none" stroke="black" points="46.2,-292.6 46.2,-323.4 373.56,-323.4 373.56,-292.6 46.2,-292.6"/>
<text text-anchor="start" x="53.2" y="-304.8" font-family="Arial" font-size="14.00">akas </text>
<text text-anchor="start" x="86.66" y="-304.8" font-family="Arial" font-size="14.00" fill="#666666">[jsonb]</text>
<polygon fill="none" stroke="black" points="46.2,-261.8 46.2,-292.6 373.56,-292.6 373.56,-261.8 46.2,-261.8"/>
<text text-anchor="start" x="53.2" y="-274" font-family="Arial" font-size="14.00">partition </text>
<text text-anchor="start" x="106.9" y="-274" font-family="Arial" font-size="14.00" fill="#666666">[text]</text>
<polygon fill="none" stroke="black" points="46.2,-231 46.2,-261.8 373.56,-261.8 373.56,-231 46.2,-231"/>
<text text-anchor="start" x="53.2" y="-243.2" font-family="Arial" font-size="14.00">region </text>
<text text-anchor="start" x="96.01" y="-243.2" font-family="Arial" font-size="14.00" fill="#666666">[text]</text>
<polygon fill="none" stroke="black" points="46.2,-200.2 46.2,-231 373.56,-231 373.56,-200.2 46.2,-200.2"/>
<text text-anchor="start" x="53.2" y="-212.4" font-family="Arial" font-size="14.00">account_id </text>
<text text-anchor="start" x="124.81" y="-212.4" font-family="Arial" font-size="14.00" fill="#666666">[text]</text>
<polygon fill="none" stroke="black" points="46.2,-169.4 46.2,-200.2 373.56,-200.2 373.56,-169.4 46.2,-169.4"/>
<text text-anchor="start" x="53.2" y="-181.6" font-family="Arial" font-size="14.00">og_account_id </text>
<text text-anchor="start" x="148.16" y="-181.6" font-family="Arial" font-size="14.00" fill="#666666">[text]</text>
<polygon fill="none" stroke="black" points="46.2,-138.6 46.2,-169.4 373.56,-169.4 373.56,-138.6 46.2,-138.6"/>
<text text-anchor="start" x="53.2" y="-150.8" font-family="Arial" font-size="14.00">og_resource_id </text>
<text text-anchor="start" x="153.6" y="-150.8" font-family="Arial" font-size="14.00" fill="#666666">[text]</text>
<polygon fill="none" stroke="black" points="46.2,-107.8 46.2,-138.6 373.56,-138.6 373.56,-107.8 46.2,-107.8"/>
<text text-anchor="start" x="53.2" y="-120" font-family="Arial" font-size="14.00">og_metadata </text>
<text text-anchor="start" x="138.82" y="-120" font-family="Arial" font-size="14.00" fill="#666666">[text]</text>
<polygon fill="none" stroke="black" points="46.2,-77 46.2,-107.8 373.56,-107.8 373.56,-77 46.2,-77"/>
<text text-anchor="start" x="53.2" y="-89.2" font-family="Arial" font-size="14.00">og_description </text>
<text text-anchor="start" x="148.15" y="-89.2" font-family="Arial" font-size="14.00" fill="#666666">[jsonb]</text>
<polygon fill="none" stroke="black" points="46.2,-46.2 46.2,-77 373.56,-77 373.56,-46.2 46.2,-46.2"/>
<text text-anchor="start" x="53.2" y="-58.4" font-family="Arial" font-size="14.00">_ctx </text>
<text text-anchor="start" x="82.77" y="-58.4" font-family="Arial" font-size="14.00" fill="#666666">[jsonb]</text>
<polygon fill="none" stroke="black" stroke-width="3" points="44.7,-44.7 44.7,-2608.9 375.06,-2608.9 375.06,-44.7 44.7,-44.7"/>
</g>
</g>
</svg>
