<?xml version="1.0" encoding="UTF-8" standalone="no"?>
<!DOCTYPE svg PUBLIC "-//W3C//DTD SVG 1.1//EN"
 "http://www.w3.org/Graphics/SVG/1.1/DTD/svg11.dtd">
<!-- Generated by graphviz version 12.1.2 (20240928.0832)
 -->
<!-- Title: aws.aws_iam_account_password_policy Pages: 1 -->
<svg width="558pt" height="690pt"
 viewBox="0.00 0.00 557.75 690.40" xmlns="http://www.w3.org/2000/svg" xmlns:xlink="http://www.w3.org/1999/xlink">
<g id="graph0" class="graph" transform="scale(1 1) rotate(0) translate(4 686.4)">
<title>aws.aws_iam_account_password_policy</title>
<polygon fill="white" stroke="none" points="-4,4 -4,-686.4 553.75,-686.4 553.75,4 -4,4"/>
<!-- aws.aws_iam_account_password_policy -->
<g id="node1" class="node">
<title>aws.aws_iam_account_password_policy</title>
<polygon fill="#efefef" stroke="none" points="46.2,-600.6 46.2,-636.2 503.55,-636.2 503.55,-600.6 46.2,-600.6"/>
<polygon fill="none" stroke="black" points="46.2,-600.6 46.2,-636.2 503.55,-636.2 503.55,-600.6 46.2,-600.6"/>
<text text-anchor="start" x="53.2" y="-614" font-family="Arial Bold" font-size="18.00">aws.aws_iam_account_password_policy</text>
<text text-anchor="start" x="345.63" y="-614" font-family="Arial" font-size="14.00">    </text>
<text text-anchor="start" x="376.75" y="-614" font-family="Arial" font-size="14.00" fill="#666666">[FOREIGN TABLE]</text>
<polygon fill="none" stroke="black" points="46.2,-569.8 46.2,-600.6 503.55,-600.6 503.55,-569.8 46.2,-569.8"/>
<text text-anchor="start" x="53.2" y="-582" font-family="Arial" font-size="14.00">allow_users_to_change_password </text>
<text text-anchor="start" x="271.9" y="-582" font-family="Arial" font-size="14.00" fill="#666666">[boolean]</text>
<polygon fill="none" stroke="black" points="46.2,-539 46.2,-569.8 503.55,-569.8 503.55,-539 46.2,-539"/>
<text text-anchor="start" x="53.2" y="-551.2" font-family="Arial" font-size="14.00">expire_passwords </text>
<text text-anchor="start" x="169.92" y="-551.2" font-family="Arial" font-size="14.00" fill="#666666">[boolean]</text>
<polygon fill="none" stroke="black" points="46.2,-508.2 46.2,-539 503.55,-539 503.55,-508.2 46.2,-508.2"/>
<text text-anchor="start" x="53.2" y="-520.4" font-family="Arial" font-size="14.00">hard_expiry </text>
<text text-anchor="start" x="130.24" y="-520.4" font-family="Arial" font-size="14.00" fill="#666666">[boolean]</text>
<polygon fill="none" stroke="black" points="46.2,-477.4 46.2,-508.2 503.55,-508.2 503.55,-477.4 46.2,-477.4"/>
<text text-anchor="start" x="53.2" y="-489.6" font-family="Arial" font-size="14.00">max_password_age </text>
<text text-anchor="start" x="182.39" y="-489.6" font-family="Arial" font-size="14.00" fill="#666666">[bigint]</text>
<polygon fill="none" stroke="black" points="46.2,-446.6 46.2,-477.4 503.55,-477.4 503.55,-446.6 46.2,-446.6"/>
<text text-anchor="start" x="53.2" y="-458.8" font-family="Arial" font-size="14.00">minimum_password_length </text>
<text text-anchor="start" x="227.5" y="-458.8" font-family="Arial" font-size="14.00" fill="#666666">[bigint]</text>
<polygon fill="none" stroke="black" points="46.2,-415.8 46.2,-446.6 503.55,-446.6 503.55,-415.8 46.2,-415.8"/>
<text text-anchor="start" x="53.2" y="-428" font-family="Arial" font-size="14.00">password_reuse_prevention </text>
<text text-anchor="start" x="232.98" y="-428" font-family="Arial" font-size="14.00" fill="#666666">[bigint]</text>
<polygon fill="none" stroke="black" points="46.2,-385 46.2,-415.8 503.55,-415.8 503.55,-385 46.2,-385"/>
<text text-anchor="start" x="53.2" y="-397.2" font-family="Arial" font-size="14.00">require_lowercase_characters </text>
<text text-anchor="start" x="244.63" y="-397.2" font-family="Arial" font-size="14.00" fill="#666666">[boolean]</text>
<polygon fill="none" stroke="black" points="46.2,-354.2 46.2,-385 503.55,-385 503.55,-354.2 46.2,-354.2"/>
<text text-anchor="start" x="53.2" y="-366.4" font-family="Arial" font-size="14.00">require_numbers </text>
<text text-anchor="start" x="162.92" y="-366.4" font-family="Arial" font-size="14.00" fill="#666666">[boolean]</text>
<polygon fill="none" stroke="black" points="46.2,-323.4 46.2,-354.2 503.55,-354.2 503.55,-323.4 46.2,-323.4"/>
<text text-anchor="start" x="53.2" y="-335.6" font-family="Arial" font-size="14.00">require_symbols </text>
<text text-anchor="start" x="159.8" y="-335.6" font-family="Arial" font-size="14.00" fill="#666666">[boolean]</text>
<polygon fill="none" stroke="black" points="46.2,-292.6 46.2,-323.4 503.55,-323.4 503.55,-292.6 46.2,-292.6"/>
<text text-anchor="start" x="53.2" y="-304.8" font-family="Arial" font-size="14.00">require_uppercase_characters </text>
<text text-anchor="start" x="246.98" y="-304.8" font-family="Arial" font-size="14.00" fill="#666666">[boolean]</text>
<polygon fill="none" stroke="black" points="46.2,-261.8 46.2,-292.6 503.55,-292.6 503.55,-261.8 46.2,-261.8"/>
<text text-anchor="start" x="53.2" y="-274" font-family="Arial" font-size="14.00">partition </text>
<text text-anchor="start" x="106.9" y="-274" font-family="Arial" font-size="14.00" fill="#666666">[text]</text>
<polygon fill="none" stroke="black" points="46.2,-231 46.2,-261.8 503.55,-261.8 503.55,-231 46.2,-231"/>
<text text-anchor="start" x="53.2" y="-243.2" font-family="Arial" font-size="14.00">region </text>
<text text-anchor="start" x="96.01" y="-243.2" font-family="Arial" font-size="14.00" fill="#666666">[text]</text>
<polygon fill="none" stroke="black" points="46.2,-200.2 46.2,-231 503.55,-231 503.55,-200.2 46.2,-200.2"/>
<text text-anchor="start" x="53.2" y="-212.4" font-family="Arial" font-size="14.00">account_id </text>
<text text-anchor="start" x="124.81" y="-212.4" font-family="Arial" font-size="14.00" fill="#666666">[text]</text>
<polygon fill="none" stroke="black" points="46.2,-169.4 46.2,-200.2 503.55,-200.2 503.55,-169.4 46.2,-169.4"/>
<text text-anchor="start" x="53.2" y="-181.6" font-family="Arial" font-size="14.00">og_account_id </text>
<text text-anchor="start" x="148.16" y="-181.6" font-family="Arial" font-size="14.00" fill="#666666">[text]</text>
<polygon fill="none" stroke="black" points="46.2,-138.6 46.2,-169.4 503.55,-169.4 503.55,-138.6 46.2,-138.6"/>
<text text-anchor="start" x="53.2" y="-150.8" font-family="Arial" font-size="14.00">og_resource_id </text>
<text text-anchor="start" x="153.6" y="-150.8" font-family="Arial" font-size="14.00" fill="#666666">[text]</text>
<polygon fill="none" stroke="black" points="46.2,-107.8 46.2,-138.6 503.55,-138.6 503.55,-107.8 46.2,-107.8"/>
<text text-anchor="start" x="53.2" y="-120" font-family="Arial" font-size="14.00">og_metadata </text>
<text text-anchor="start" x="138.82" y="-120" font-family="Arial" font-size="14.00" fill="#666666">[text]</text>
<polygon fill="none" stroke="black" points="46.2,-77 46.2,-107.8 503.55,-107.8 503.55,-77 46.2,-77"/>
<text text-anchor="start" x="53.2" y="-89.2" font-family="Arial" font-size="14.00">og_description </text>
<text text-anchor="start" x="148.15" y="-89.2" font-family="Arial" font-size="14.00" fill="#666666">[jsonb]</text>
<polygon fill="none" stroke="black" points="46.2,-46.2 46.2,-77 503.55,-77 503.55,-46.2 46.2,-46.2"/>
<text text-anchor="start" x="53.2" y="-58.4" font-family="Arial" font-size="14.00">_ctx </text>
<text text-anchor="start" x="82.77" y="-58.4" font-family="Arial" font-size="14.00" fill="#666666">[jsonb]</text>
<polygon fill="none" stroke="black" stroke-width="3" points="44.7,-44.7 44.7,-637.7 505.05,-637.7 505.05,-44.7 44.7,-44.7"/>
</g>
</g>
</svg>
