<?xml version="1.0" encoding="UTF-8" standalone="no"?>
<!DOCTYPE svg PUBLIC "-//W3C//DTD SVG 1.1//EN"
 "http://www.w3.org/Graphics/SVG/1.1/DTD/svg11.dtd">
<!-- Generated by graphviz version 12.1.2 (20240928.0832)
 -->
<!-- Title: aws.aws_ec2_reserved_instance Pages: 1 -->
<svg width="498pt" height="1060pt"
 viewBox="0.00 0.00 497.72 1060.00" xmlns="http://www.w3.org/2000/svg" xmlns:xlink="http://www.w3.org/1999/xlink">
<g id="graph0" class="graph" transform="scale(1 1) rotate(0) translate(4 1056)">
<title>aws.aws_ec2_reserved_instance</title>
<polygon fill="white" stroke="none" points="-4,4 -4,-1056 493.72,-1056 493.72,4 -4,4"/>
<!-- aws.aws_ec2_reserved_instance -->
<g id="node1" class="node">
<title>aws.aws_ec2_reserved_instance</title>
<polygon fill="#efefef" stroke="none" points="46.2,-970.2 46.2,-1005.8 443.52,-1005.8 443.52,-970.2 46.2,-970.2"/>
<polygon fill="none" stroke="black" points="46.2,-970.2 46.2,-1005.8 443.52,-1005.8 443.52,-970.2 46.2,-970.2"/>
<text text-anchor="start" x="53.2" y="-983.6" font-family="Arial Bold" font-size="18.00">aws.aws_ec2_reserved_instance</text>
<text text-anchor="start" x="285.6" y="-983.6" font-family="Arial" font-size="14.00">    </text>
<text text-anchor="start" x="316.72" y="-983.6" font-family="Arial" font-size="14.00" fill="#666666">[FOREIGN TABLE]</text>
<polygon fill="none" stroke="black" points="46.2,-939.4 46.2,-970.2 443.52,-970.2 443.52,-939.4 46.2,-939.4"/>
<text text-anchor="start" x="53.2" y="-951.6" font-family="Arial" font-size="14.00">reserved_instance_id </text>
<text text-anchor="start" x="190.17" y="-951.6" font-family="Arial" font-size="14.00" fill="#666666">[text]</text>
<polygon fill="none" stroke="black" points="46.2,-908.6 46.2,-939.4 443.52,-939.4 443.52,-908.6 46.2,-908.6"/>
<text text-anchor="start" x="53.2" y="-920.8" font-family="Arial" font-size="14.00">arn </text>
<text text-anchor="start" x="77.32" y="-920.8" font-family="Arial" font-size="14.00" fill="#666666">[text]</text>
<polygon fill="none" stroke="black" points="46.2,-877.8 46.2,-908.6 443.52,-908.6 443.52,-877.8 46.2,-877.8"/>
<text text-anchor="start" x="53.2" y="-890" font-family="Arial" font-size="14.00">instance_type </text>
<text text-anchor="start" x="143.48" y="-890" font-family="Arial" font-size="14.00" fill="#666666">[text]</text>
<polygon fill="none" stroke="black" points="46.2,-847 46.2,-877.8 443.52,-877.8 443.52,-847 46.2,-847"/>
<text text-anchor="start" x="53.2" y="-859.2" font-family="Arial" font-size="14.00">instance_state </text>
<text text-anchor="start" x="147.37" y="-859.2" font-family="Arial" font-size="14.00" fill="#666666">[text]</text>
<polygon fill="none" stroke="black" points="46.2,-816.2 46.2,-847 443.52,-847 443.52,-816.2 46.2,-816.2"/>
<text text-anchor="start" x="53.2" y="-828.4" font-family="Arial" font-size="14.00">availability_zone </text>
<text text-anchor="start" x="159.82" y="-828.4" font-family="Arial" font-size="14.00" fill="#666666">[text]</text>
<polygon fill="none" stroke="black" points="46.2,-785.4 46.2,-816.2 443.52,-816.2 443.52,-785.4 46.2,-785.4"/>
<text text-anchor="start" x="53.2" y="-797.6" font-family="Arial" font-size="14.00">currency_code </text>
<text text-anchor="start" x="148.92" y="-797.6" font-family="Arial" font-size="14.00" fill="#666666">[text]</text>
<polygon fill="none" stroke="black" points="46.2,-754.6 46.2,-785.4 443.52,-785.4 443.52,-754.6 46.2,-754.6"/>
<text text-anchor="start" x="53.2" y="-766.8" font-family="Arial" font-size="14.00">duration </text>
<text text-anchor="start" x="107.68" y="-766.8" font-family="Arial" font-size="14.00" fill="#666666">[bigint]</text>
<polygon fill="none" stroke="black" points="46.2,-723.8 46.2,-754.6 443.52,-754.6 443.52,-723.8 46.2,-723.8"/>
<text text-anchor="start" x="53.2" y="-736" font-family="Arial" font-size="14.00">end_time </text>
<text text-anchor="start" x="114.68" y="-736" font-family="Arial" font-size="14.00" fill="#666666">[timestamp with time zone]</text>
<polygon fill="none" stroke="black" points="46.2,-693 46.2,-723.8 443.52,-723.8 443.52,-693 46.2,-693"/>
<text text-anchor="start" x="53.2" y="-705.2" font-family="Arial" font-size="14.00">fixed_price </text>
<text text-anchor="start" x="124.79" y="-705.2" font-family="Arial" font-size="14.00" fill="#666666">[double precision]</text>
<polygon fill="none" stroke="black" points="46.2,-662.2 46.2,-693 443.52,-693 443.52,-662.2 46.2,-662.2"/>
<text text-anchor="start" x="53.2" y="-674.4" font-family="Arial" font-size="14.00">instance_count </text>
<text text-anchor="start" x="151.27" y="-674.4" font-family="Arial" font-size="14.00" fill="#666666">[bigint]</text>
<polygon fill="none" stroke="black" points="46.2,-631.4 46.2,-662.2 443.52,-662.2 443.52,-631.4 46.2,-631.4"/>
<text text-anchor="start" x="53.2" y="-643.6" font-family="Arial" font-size="14.00">instance_tenancy </text>
<text text-anchor="start" x="166.05" y="-643.6" font-family="Arial" font-size="14.00" fill="#666666">[text]</text>
<polygon fill="none" stroke="black" points="46.2,-600.6 46.2,-631.4 443.52,-631.4 443.52,-600.6 46.2,-600.6"/>
<text text-anchor="start" x="53.2" y="-612.8" font-family="Arial" font-size="14.00">offering_class </text>
<text text-anchor="start" x="143.47" y="-612.8" font-family="Arial" font-size="14.00" fill="#666666">[text]</text>
<polygon fill="none" stroke="black" points="46.2,-569.8 46.2,-600.6 443.52,-600.6 443.52,-569.8 46.2,-569.8"/>
<text text-anchor="start" x="53.2" y="-582" font-family="Arial" font-size="14.00">offering_type </text>
<text text-anchor="start" x="138.03" y="-582" font-family="Arial" font-size="14.00" fill="#666666">[text]</text>
<polygon fill="none" stroke="black" points="46.2,-539 46.2,-569.8 443.52,-569.8 443.52,-539 46.2,-539"/>
<text text-anchor="start" x="53.2" y="-551.2" font-family="Arial" font-size="14.00">product_description </text>
<text text-anchor="start" x="179.28" y="-551.2" font-family="Arial" font-size="14.00" fill="#666666">[text]</text>
<polygon fill="none" stroke="black" points="46.2,-508.2 46.2,-539 443.52,-539 443.52,-508.2 46.2,-508.2"/>
<text text-anchor="start" x="53.2" y="-520.4" font-family="Arial" font-size="14.00">scope </text>
<text text-anchor="start" x="94.45" y="-520.4" font-family="Arial" font-size="14.00" fill="#666666">[text]</text>
<polygon fill="none" stroke="black" points="46.2,-477.4 46.2,-508.2 443.52,-508.2 443.52,-477.4 46.2,-477.4"/>
<text text-anchor="start" x="53.2" y="-489.6" font-family="Arial" font-size="14.00">start_time </text>
<text text-anchor="start" x="118.55" y="-489.6" font-family="Arial" font-size="14.00" fill="#666666">[timestamp with time zone]</text>
<polygon fill="none" stroke="black" points="46.2,-446.6 46.2,-477.4 443.52,-477.4 443.52,-446.6 46.2,-446.6"/>
<text text-anchor="start" x="53.2" y="-458.8" font-family="Arial" font-size="14.00">usage_price </text>
<text text-anchor="start" x="133.37" y="-458.8" font-family="Arial" font-size="14.00" fill="#666666">[double precision]</text>
<polygon fill="none" stroke="black" points="46.2,-415.8 46.2,-446.6 443.52,-446.6 443.52,-415.8 46.2,-415.8"/>
<text text-anchor="start" x="53.2" y="-428" font-family="Arial" font-size="14.00">reserved_instances_modifications </text>
<text text-anchor="start" x="267.98" y="-428" font-family="Arial" font-size="14.00" fill="#666666">[jsonb]</text>
<polygon fill="none" stroke="black" points="46.2,-385 46.2,-415.8 443.52,-415.8 443.52,-385 46.2,-385"/>
<text text-anchor="start" x="53.2" y="-397.2" font-family="Arial" font-size="14.00">tags_src </text>
<text text-anchor="start" x="110" y="-397.2" font-family="Arial" font-size="14.00" fill="#666666">[jsonb]</text>
<polygon fill="none" stroke="black" points="46.2,-354.2 46.2,-385 443.52,-385 443.52,-354.2 46.2,-354.2"/>
<text text-anchor="start" x="53.2" y="-366.4" font-family="Arial" font-size="14.00">title </text>
<text text-anchor="start" x="78.88" y="-366.4" font-family="Arial" font-size="14.00" fill="#666666">[text]</text>
<polygon fill="none" stroke="black" points="46.2,-323.4 46.2,-354.2 443.52,-354.2 443.52,-323.4 46.2,-323.4"/>
<text text-anchor="start" x="53.2" y="-335.6" font-family="Arial" font-size="14.00">tags </text>
<text text-anchor="start" x="83.55" y="-335.6" font-family="Arial" font-size="14.00" fill="#666666">[jsonb]</text>
<polygon fill="none" stroke="black" points="46.2,-292.6 46.2,-323.4 443.52,-323.4 443.52,-292.6 46.2,-292.6"/>
<text text-anchor="start" x="53.2" y="-304.8" font-family="Arial" font-size="14.00">akas </text>
<text text-anchor="start" x="86.66" y="-304.8" font-family="Arial" font-size="14.00" fill="#666666">[jsonb]</text>
<polygon fill="none" stroke="black" points="46.2,-261.8 46.2,-292.6 443.52,-292.6 443.52,-261.8 46.2,-261.8"/>
<text text-anchor="start" x="53.2" y="-274" font-family="Arial" font-size="14.00">partition </text>
<text text-anchor="start" x="106.9" y="-274" font-family="Arial" font-size="14.00" fill="#666666">[text]</text>
<polygon fill="none" stroke="black" points="46.2,-231 46.2,-261.8 443.52,-261.8 443.52,-231 46.2,-231"/>
<text text-anchor="start" x="53.2" y="-243.2" font-family="Arial" font-size="14.00">region </text>
<text text-anchor="start" x="96.01" y="-243.2" font-family="Arial" font-size="14.00" fill="#666666">[text]</text>
<polygon fill="none" stroke="black" points="46.2,-200.2 46.2,-231 443.52,-231 443.52,-200.2 46.2,-200.2"/>
<text text-anchor="start" x="53.2" y="-212.4" font-family="Arial" font-size="14.00">account_id </text>
<text text-anchor="start" x="124.81" y="-212.4" font-family="Arial" font-size="14.00" fill="#666666">[text]</text>
<polygon fill="none" stroke="black" points="46.2,-169.4 46.2,-200.2 443.52,-200.2 443.52,-169.4 46.2,-169.4"/>
<text text-anchor="start" x="53.2" y="-181.6" font-family="Arial" font-size="14.00">og_account_id </text>
<text text-anchor="start" x="148.16" y="-181.6" font-family="Arial" font-size="14.00" fill="#666666">[text]</text>
<polygon fill="none" stroke="black" points="46.2,-138.6 46.2,-169.4 443.52,-169.4 443.52,-138.6 46.2,-138.6"/>
<text text-anchor="start" x="53.2" y="-150.8" font-family="Arial" font-size="14.00">og_resource_id </text>
<text text-anchor="start" x="153.6" y="-150.8" font-family="Arial" font-size="14.00" fill="#666666">[text]</text>
<polygon fill="none" stroke="black" points="46.2,-107.8 46.2,-138.6 443.52,-138.6 443.52,-107.8 46.2,-107.8"/>
<text text-anchor="start" x="53.2" y="-120" font-family="Arial" font-size="14.00">og_metadata </text>
<text text-anchor="start" x="138.82" y="-120" font-family="Arial" font-size="14.00" fill="#666666">[text]</text>
<polygon fill="none" stroke="black" points="46.2,-77 46.2,-107.8 443.52,-107.8 443.52,-77 46.2,-77"/>
<text text-anchor="start" x="53.2" y="-89.2" font-family="Arial" font-size="14.00">og_description </text>
<text text-anchor="start" x="148.15" y="-89.2" font-family="Arial" font-size="14.00" fill="#666666">[jsonb]</text>
<polygon fill="none" stroke="black" points="46.2,-46.2 46.2,-77 443.52,-77 443.52,-46.2 46.2,-46.2"/>
<text text-anchor="start" x="53.2" y="-58.4" font-family="Arial" font-size="14.00">_ctx </text>
<text text-anchor="start" x="82.77" y="-58.4" font-family="Arial" font-size="14.00" fill="#666666">[jsonb]</text>
<polygon fill="none" stroke="black" stroke-width="3" points="44.7,-44.7 44.7,-1007.3 445.02,-1007.3 445.02,-44.7 44.7,-44.7"/>
</g>
</g>
</svg>
