<?xml version="1.0" encoding="UTF-8" standalone="no"?>
<!DOCTYPE svg PUBLIC "-//W3C//DTD SVG 1.1//EN"
 "http://www.w3.org/Graphics/SVG/1.1/DTD/svg11.dtd">
<!-- Generated by graphviz version 12.1.2 (20240928.0832)
 -->
<!-- Title: aws.aws_sfn_state_machine_execution_history Pages: 1 -->
<svg width="607pt" height="1584pt"
 viewBox="0.00 0.00 606.73 1583.60" xmlns="http://www.w3.org/2000/svg" xmlns:xlink="http://www.w3.org/1999/xlink">
<g id="graph0" class="graph" transform="scale(1 1) rotate(0) translate(4 1579.6)">
<title>aws.aws_sfn_state_machine_execution_history</title>
<polygon fill="white" stroke="none" points="-4,4 -4,-1579.6 602.73,-1579.6 602.73,4 -4,4"/>
<!-- aws.aws_sfn_state_machine_execution_history -->
<g id="node1" class="node">
<title>aws.aws_sfn_state_machine_execution_history</title>
<polygon fill="#efefef" stroke="none" points="46.2,-1493.8 46.2,-1529.4 552.53,-1529.4 552.53,-1493.8 46.2,-1493.8"/>
<polygon fill="none" stroke="black" points="46.2,-1493.8 46.2,-1529.4 552.53,-1529.4 552.53,-1493.8 46.2,-1493.8"/>
<text text-anchor="start" x="53.2" y="-1507.2" font-family="Arial Bold" font-size="18.00">aws.aws_sfn_state_machine_execution_history</text>
<text text-anchor="start" x="394.61" y="-1507.2" font-family="Arial" font-size="14.00">    </text>
<text text-anchor="start" x="425.73" y="-1507.2" font-family="Arial" font-size="14.00" fill="#666666">[FOREIGN TABLE]</text>
<polygon fill="none" stroke="black" points="46.2,-1463 46.2,-1493.8 552.53,-1493.8 552.53,-1463 46.2,-1463"/>
<text text-anchor="start" x="53.2" y="-1475.2" font-family="Arial" font-size="14.00">id </text>
<text text-anchor="start" x="67.99" y="-1475.2" font-family="Arial" font-size="14.00" fill="#666666">[text]</text>
<polygon fill="none" stroke="black" points="46.2,-1432.2 46.2,-1463 552.53,-1463 552.53,-1432.2 46.2,-1432.2"/>
<text text-anchor="start" x="53.2" y="-1444.4" font-family="Arial" font-size="14.00">execution_arn </text>
<text text-anchor="start" x="145.04" y="-1444.4" font-family="Arial" font-size="14.00" fill="#666666">[text]</text>
<polygon fill="none" stroke="black" points="46.2,-1401.4 46.2,-1432.2 552.53,-1432.2 552.53,-1401.4 46.2,-1401.4"/>
<text text-anchor="start" x="53.2" y="-1413.6" font-family="Arial" font-size="14.00">previous_event_id </text>
<text text-anchor="start" x="170.72" y="-1413.6" font-family="Arial" font-size="14.00" fill="#666666">[text]</text>
<polygon fill="none" stroke="black" points="46.2,-1370.6 46.2,-1401.4 552.53,-1401.4 552.53,-1370.6 46.2,-1370.6"/>
<text text-anchor="start" x="53.2" y="-1382.8" font-family="Arial" font-size="14.00">timestamp </text>
<text text-anchor="start" x="121.66" y="-1382.8" font-family="Arial" font-size="14.00" fill="#666666">[timestamp with time zone]</text>
<polygon fill="none" stroke="black" points="46.2,-1339.8 46.2,-1370.6 552.53,-1370.6 552.53,-1339.8 46.2,-1339.8"/>
<text text-anchor="start" x="53.2" y="-1352" font-family="Arial" font-size="14.00">type </text>
<text text-anchor="start" x="83.55" y="-1352" font-family="Arial" font-size="14.00" fill="#666666">[text]</text>
<polygon fill="none" stroke="black" points="46.2,-1309 46.2,-1339.8 552.53,-1339.8 552.53,-1309 46.2,-1309"/>
<text text-anchor="start" x="53.2" y="-1321.2" font-family="Arial" font-size="14.00">activity_failed_event_details </text>
<text text-anchor="start" x="231.42" y="-1321.2" font-family="Arial" font-size="14.00" fill="#666666">[jsonb]</text>
<polygon fill="none" stroke="black" points="46.2,-1278.2 46.2,-1309 552.53,-1309 552.53,-1278.2 46.2,-1278.2"/>
<text text-anchor="start" x="53.2" y="-1290.4" font-family="Arial" font-size="14.00">activity_schedule_failed_event_details </text>
<text text-anchor="start" x="295.25" y="-1290.4" font-family="Arial" font-size="14.00" fill="#666666">[jsonb]</text>
<polygon fill="none" stroke="black" points="46.2,-1247.4 46.2,-1278.2 552.53,-1278.2 552.53,-1247.4 46.2,-1247.4"/>
<text text-anchor="start" x="53.2" y="-1259.6" font-family="Arial" font-size="14.00">activity_scheduled_event_details </text>
<text text-anchor="start" x="261.78" y="-1259.6" font-family="Arial" font-size="14.00" fill="#666666">[jsonb]</text>
<polygon fill="none" stroke="black" points="46.2,-1216.6 46.2,-1247.4 552.53,-1247.4 552.53,-1216.6 46.2,-1216.6"/>
<text text-anchor="start" x="53.2" y="-1228.8" font-family="Arial" font-size="14.00">activity_started_event_details </text>
<text text-anchor="start" x="240.75" y="-1228.8" font-family="Arial" font-size="14.00" fill="#666666">[jsonb]</text>
<polygon fill="none" stroke="black" points="46.2,-1185.8 46.2,-1216.6 552.53,-1216.6 552.53,-1185.8 46.2,-1185.8"/>
<text text-anchor="start" x="53.2" y="-1198" font-family="Arial" font-size="14.00">activity_succeeded_event_details </text>
<text text-anchor="start" x="265.67" y="-1198" font-family="Arial" font-size="14.00" fill="#666666">[jsonb]</text>
<polygon fill="none" stroke="black" points="46.2,-1155 46.2,-1185.8 552.53,-1185.8 552.53,-1155 46.2,-1155"/>
<text text-anchor="start" x="53.2" y="-1167.2" font-family="Arial" font-size="14.00">activity_timed_out_event_details </text>
<text text-anchor="start" x="259.43" y="-1167.2" font-family="Arial" font-size="14.00" fill="#666666">[jsonb]</text>
<polygon fill="none" stroke="black" points="46.2,-1124.2 46.2,-1155 552.53,-1155 552.53,-1124.2 46.2,-1124.2"/>
<text text-anchor="start" x="53.2" y="-1136.4" font-family="Arial" font-size="14.00">execution_aborted_event_details </text>
<text text-anchor="start" x="262.58" y="-1136.4" font-family="Arial" font-size="14.00" fill="#666666">[jsonb]</text>
<polygon fill="none" stroke="black" points="46.2,-1093.4 46.2,-1124.2 552.53,-1124.2 552.53,-1093.4 46.2,-1093.4"/>
<text text-anchor="start" x="53.2" y="-1105.6" font-family="Arial" font-size="14.00">execution_failed_event_details </text>
<text text-anchor="start" x="248.56" y="-1105.6" font-family="Arial" font-size="14.00" fill="#666666">[jsonb]</text>
<polygon fill="none" stroke="black" points="46.2,-1062.6 46.2,-1093.4 552.53,-1093.4 552.53,-1062.6 46.2,-1062.6"/>
<text text-anchor="start" x="53.2" y="-1074.8" font-family="Arial" font-size="14.00">execution_started_event_details </text>
<text text-anchor="start" x="257.9" y="-1074.8" font-family="Arial" font-size="14.00" fill="#666666">[jsonb]</text>
<polygon fill="none" stroke="black" points="46.2,-1031.8 46.2,-1062.6 552.53,-1062.6 552.53,-1031.8 46.2,-1031.8"/>
<text text-anchor="start" x="53.2" y="-1044" font-family="Arial" font-size="14.00">execution_succeeded_event_details </text>
<text text-anchor="start" x="282.81" y="-1044" font-family="Arial" font-size="14.00" fill="#666666">[jsonb]</text>
<polygon fill="none" stroke="black" points="46.2,-1001 46.2,-1031.8 552.53,-1031.8 552.53,-1001 46.2,-1001"/>
<text text-anchor="start" x="53.2" y="-1013.2" font-family="Arial" font-size="14.00">execution_timed_out_event_details </text>
<text text-anchor="start" x="276.58" y="-1013.2" font-family="Arial" font-size="14.00" fill="#666666">[jsonb]</text>
<polygon fill="none" stroke="black" points="46.2,-970.2 46.2,-1001 552.53,-1001 552.53,-970.2 46.2,-970.2"/>
<text text-anchor="start" x="53.2" y="-982.4" font-family="Arial" font-size="14.00">lambda_function_failed_event_details </text>
<text text-anchor="start" x="291.37" y="-982.4" font-family="Arial" font-size="14.00" fill="#666666">[jsonb]</text>
<polygon fill="none" stroke="black" points="46.2,-939.4 46.2,-970.2 552.53,-970.2 552.53,-939.4 46.2,-939.4"/>
<text text-anchor="start" x="53.2" y="-951.6" font-family="Arial" font-size="14.00">lambda_function_schedule_failed_event_details </text>
<text text-anchor="start" x="355.2" y="-951.6" font-family="Arial" font-size="14.00" fill="#666666">[jsonb]</text>
<polygon fill="none" stroke="black" points="46.2,-908.6 46.2,-939.4 552.53,-939.4 552.53,-908.6 46.2,-908.6"/>
<text text-anchor="start" x="53.2" y="-920.8" font-family="Arial" font-size="14.00">lambda_function_scheduled_event_details </text>
<text text-anchor="start" x="321.73" y="-920.8" font-family="Arial" font-size="14.00" fill="#666666">[jsonb]</text>
<polygon fill="none" stroke="black" points="46.2,-877.8 46.2,-908.6 552.53,-908.6 552.53,-877.8 46.2,-877.8"/>
<text text-anchor="start" x="53.2" y="-890" font-family="Arial" font-size="14.00">lambda_function_start_failed_event_details </text>
<text text-anchor="start" x="326.38" y="-890" font-family="Arial" font-size="14.00" fill="#666666">[jsonb]</text>
<polygon fill="none" stroke="black" points="46.2,-847 46.2,-877.8 552.53,-877.8 552.53,-847 46.2,-847"/>
<text text-anchor="start" x="53.2" y="-859.2" font-family="Arial" font-size="14.00">lambda_function_succeeded_event_details </text>
<text text-anchor="start" x="325.62" y="-859.2" font-family="Arial" font-size="14.00" fill="#666666">[jsonb]</text>
<polygon fill="none" stroke="black" points="46.2,-816.2 46.2,-847 552.53,-847 552.53,-816.2 46.2,-816.2"/>
<text text-anchor="start" x="53.2" y="-828.4" font-family="Arial" font-size="14.00">lambda_function_timed_out_event_details </text>
<text text-anchor="start" x="319.38" y="-828.4" font-family="Arial" font-size="14.00" fill="#666666">[jsonb]</text>
<polygon fill="none" stroke="black" points="46.2,-785.4 46.2,-816.2 552.53,-816.2 552.53,-785.4 46.2,-785.4"/>
<text text-anchor="start" x="53.2" y="-797.6" font-family="Arial" font-size="14.00">map_iteration_aborted_event_details </text>
<text text-anchor="start" x="287.47" y="-797.6" font-family="Arial" font-size="14.00" fill="#666666">[jsonb]</text>
<polygon fill="none" stroke="black" points="46.2,-754.6 46.2,-785.4 552.53,-785.4 552.53,-754.6 46.2,-754.6"/>
<text text-anchor="start" x="53.2" y="-766.8" font-family="Arial" font-size="14.00">map_iteration_failed_event_details </text>
<text text-anchor="start" x="273.46" y="-766.8" font-family="Arial" font-size="14.00" fill="#666666">[jsonb]</text>
<polygon fill="none" stroke="black" points="46.2,-723.8 46.2,-754.6 552.53,-754.6 552.53,-723.8 46.2,-723.8"/>
<text text-anchor="start" x="53.2" y="-736" font-family="Arial" font-size="14.00">map_iteration_started_event_details </text>
<text text-anchor="start" x="282.79" y="-736" font-family="Arial" font-size="14.00" fill="#666666">[jsonb]</text>
<polygon fill="none" stroke="black" points="46.2,-693 46.2,-723.8 552.53,-723.8 552.53,-693 46.2,-693"/>
<text text-anchor="start" x="53.2" y="-705.2" font-family="Arial" font-size="14.00">map_iteration_succeeded_event_details </text>
<text text-anchor="start" x="307.71" y="-705.2" font-family="Arial" font-size="14.00" fill="#666666">[jsonb]</text>
<polygon fill="none" stroke="black" points="46.2,-662.2 46.2,-693 552.53,-693 552.53,-662.2 46.2,-662.2"/>
<text text-anchor="start" x="53.2" y="-674.4" font-family="Arial" font-size="14.00">map_state_started_event_details </text>
<text text-anchor="start" x="263.34" y="-674.4" font-family="Arial" font-size="14.00" fill="#666666">[jsonb]</text>
<polygon fill="none" stroke="black" points="46.2,-631.4 46.2,-662.2 552.53,-662.2 552.53,-631.4 46.2,-631.4"/>
<text text-anchor="start" x="53.2" y="-643.6" font-family="Arial" font-size="14.00">state_entered_event_details </text>
<text text-anchor="start" x="233" y="-643.6" font-family="Arial" font-size="14.00" fill="#666666">[jsonb]</text>
<polygon fill="none" stroke="black" points="46.2,-600.6 46.2,-631.4 552.53,-631.4 552.53,-600.6 46.2,-600.6"/>
<text text-anchor="start" x="53.2" y="-612.8" font-family="Arial" font-size="14.00">state_exited_event_details </text>
<text text-anchor="start" x="222.87" y="-612.8" font-family="Arial" font-size="14.00" fill="#666666">[jsonb]</text>
<polygon fill="none" stroke="black" points="46.2,-569.8 46.2,-600.6 552.53,-600.6 552.53,-569.8 46.2,-569.8"/>
<text text-anchor="start" x="53.2" y="-582" font-family="Arial" font-size="14.00">task_failed_event_details </text>
<text text-anchor="start" x="214.31" y="-582" font-family="Arial" font-size="14.00" fill="#666666">[jsonb]</text>
<polygon fill="none" stroke="black" points="46.2,-539 46.2,-569.8 552.53,-569.8 552.53,-539 46.2,-539"/>
<text text-anchor="start" x="53.2" y="-551.2" font-family="Arial" font-size="14.00">task_scheduled_event_details </text>
<text text-anchor="start" x="244.67" y="-551.2" font-family="Arial" font-size="14.00" fill="#666666">[jsonb]</text>
<polygon fill="none" stroke="black" points="46.2,-508.2 46.2,-539 552.53,-539 552.53,-508.2 46.2,-508.2"/>
<text text-anchor="start" x="53.2" y="-520.4" font-family="Arial" font-size="14.00">task_start_failed_event_details </text>
<text text-anchor="start" x="249.32" y="-520.4" font-family="Arial" font-size="14.00" fill="#666666">[jsonb]</text>
<polygon fill="none" stroke="black" points="46.2,-477.4 46.2,-508.2 552.53,-508.2 552.53,-477.4 46.2,-477.4"/>
<text text-anchor="start" x="53.2" y="-489.6" font-family="Arial" font-size="14.00">task_started_event_details </text>
<text text-anchor="start" x="223.64" y="-489.6" font-family="Arial" font-size="14.00" fill="#666666">[jsonb]</text>
<polygon fill="none" stroke="black" points="46.2,-446.6 46.2,-477.4 552.53,-477.4 552.53,-446.6 46.2,-446.6"/>
<text text-anchor="start" x="53.2" y="-458.8" font-family="Arial" font-size="14.00">task_submit_failed_event_details </text>
<text text-anchor="start" x="263.33" y="-458.8" font-family="Arial" font-size="14.00" fill="#666666">[jsonb]</text>
<polygon fill="none" stroke="black" points="46.2,-415.8 46.2,-446.6 552.53,-446.6 552.53,-415.8 46.2,-415.8"/>
<text text-anchor="start" x="53.2" y="-428" font-family="Arial" font-size="14.00">task_submitted_event_details </text>
<text text-anchor="start" x="241.54" y="-428" font-family="Arial" font-size="14.00" fill="#666666">[jsonb]</text>
<polygon fill="none" stroke="black" points="46.2,-385 46.2,-415.8 552.53,-415.8 552.53,-385 46.2,-385"/>
<text text-anchor="start" x="53.2" y="-397.2" font-family="Arial" font-size="14.00">task_succeeded_event_details </text>
<text text-anchor="start" x="248.56" y="-397.2" font-family="Arial" font-size="14.00" fill="#666666">[jsonb]</text>
<polygon fill="none" stroke="black" points="46.2,-354.2 46.2,-385 552.53,-385 552.53,-354.2 46.2,-354.2"/>
<text text-anchor="start" x="53.2" y="-366.4" font-family="Arial" font-size="14.00">task_timed_out_event_details </text>
<text text-anchor="start" x="242.32" y="-366.4" font-family="Arial" font-size="14.00" fill="#666666">[jsonb]</text>
<polygon fill="none" stroke="black" points="46.2,-323.4 46.2,-354.2 552.53,-354.2 552.53,-323.4 46.2,-323.4"/>
<text text-anchor="start" x="53.2" y="-335.6" font-family="Arial" font-size="14.00">title </text>
<text text-anchor="start" x="78.88" y="-335.6" font-family="Arial" font-size="14.00" fill="#666666">[text]</text>
<polygon fill="none" stroke="black" points="46.2,-292.6 46.2,-323.4 552.53,-323.4 552.53,-292.6 46.2,-292.6"/>
<text text-anchor="start" x="53.2" y="-304.8" font-family="Arial" font-size="14.00">akas </text>
<text text-anchor="start" x="86.66" y="-304.8" font-family="Arial" font-size="14.00" fill="#666666">[jsonb]</text>
<polygon fill="none" stroke="black" points="46.2,-261.8 46.2,-292.6 552.53,-292.6 552.53,-261.8 46.2,-261.8"/>
<text text-anchor="start" x="53.2" y="-274" font-family="Arial" font-size="14.00">partition </text>
<text text-anchor="start" x="106.9" y="-274" font-family="Arial" font-size="14.00" fill="#666666">[text]</text>
<polygon fill="none" stroke="black" points="46.2,-231 46.2,-261.8 552.53,-261.8 552.53,-231 46.2,-231"/>
<text text-anchor="start" x="53.2" y="-243.2" font-family="Arial" font-size="14.00">region </text>
<text text-anchor="start" x="96.01" y="-243.2" font-family="Arial" font-size="14.00" fill="#666666">[text]</text>
<polygon fill="none" stroke="black" points="46.2,-200.2 46.2,-231 552.53,-231 552.53,-200.2 46.2,-200.2"/>
<text text-anchor="start" x="53.2" y="-212.4" font-family="Arial" font-size="14.00">account_id </text>
<text text-anchor="start" x="124.81" y="-212.4" font-family="Arial" font-size="14.00" fill="#666666">[text]</text>
<polygon fill="none" stroke="black" points="46.2,-169.4 46.2,-200.2 552.53,-200.2 552.53,-169.4 46.2,-169.4"/>
<text text-anchor="start" x="53.2" y="-181.6" font-family="Arial" font-size="14.00">og_account_id </text>
<text text-anchor="start" x="148.16" y="-181.6" font-family="Arial" font-size="14.00" fill="#666666">[text]</text>
<polygon fill="none" stroke="black" points="46.2,-138.6 46.2,-169.4 552.53,-169.4 552.53,-138.6 46.2,-138.6"/>
<text text-anchor="start" x="53.2" y="-150.8" font-family="Arial" font-size="14.00">og_resource_id </text>
<text text-anchor="start" x="153.6" y="-150.8" font-family="Arial" font-size="14.00" fill="#666666">[text]</text>
<polygon fill="none" stroke="black" points="46.2,-107.8 46.2,-138.6 552.53,-138.6 552.53,-107.8 46.2,-107.8"/>
<text text-anchor="start" x="53.2" y="-120" font-family="Arial" font-size="14.00">og_metadata </text>
<text text-anchor="start" x="138.82" y="-120" font-family="Arial" font-size="14.00" fill="#666666">[text]</text>
<polygon fill="none" stroke="black" points="46.2,-77 46.2,-107.8 552.53,-107.8 552.53,-77 46.2,-77"/>
<text text-anchor="start" x="53.2" y="-89.2" font-family="Arial" font-size="14.00">og_description </text>
<text text-anchor="start" x="148.15" y="-89.2" font-family="Arial" font-size="14.00" fill="#666666">[jsonb]</text>
<polygon fill="none" stroke="black" points="46.2,-46.2 46.2,-77 552.53,-77 552.53,-46.2 46.2,-46.2"/>
<text text-anchor="start" x="53.2" y="-58.4" font-family="Arial" font-size="14.00">_ctx </text>
<text text-anchor="start" x="82.77" y="-58.4" font-family="Arial" font-size="14.00" fill="#666666">[jsonb]</text>
<polygon fill="none" stroke="black" stroke-width="3" points="44.7,-44.7 44.7,-1530.9 554.03,-1530.9 554.03,-44.7 44.7,-44.7"/>
</g>
</g>
</svg>
