<?xml version="1.0" encoding="UTF-8" standalone="no"?>
<!DOCTYPE svg PUBLIC "-//W3C//DTD SVG 1.1//EN"
 "http://www.w3.org/Graphics/SVG/1.1/DTD/svg11.dtd">
<!-- Generated by graphviz version 12.1.2 (20240928.0832)
 -->
<!-- Title: aws.aws_sts_caller_identity Pages: 1 -->
<svg width="467pt" height="352pt"
 viewBox="0.00 0.00 466.77 351.60" xmlns="http://www.w3.org/2000/svg" xmlns:xlink="http://www.w3.org/1999/xlink">
<g id="graph0" class="graph" transform="scale(1 1) rotate(0) translate(4 347.6)">
<title>aws.aws_sts_caller_identity</title>
<polygon fill="white" stroke="none" points="-4,4 -4,-347.6 462.77,-347.6 462.77,4 -4,4"/>
<!-- aws.aws_sts_caller_identity -->
<g id="node1" class="node">
<title>aws.aws_sts_caller_identity</title>
<polygon fill="#efefef" stroke="none" points="46.2,-261.8 46.2,-297.4 412.57,-297.4 412.57,-261.8 46.2,-261.8"/>
<polygon fill="none" stroke="black" points="46.2,-261.8 46.2,-297.4 412.57,-297.4 412.57,-261.8 46.2,-261.8"/>
<text text-anchor="start" x="53.2" y="-275.2" font-family="Arial Bold" font-size="18.00">aws.aws_sts_caller_identity</text>
<text text-anchor="start" x="254.65" y="-275.2" font-family="Arial" font-size="14.00">    </text>
<text text-anchor="start" x="285.77" y="-275.2" font-family="Arial" font-size="14.00" fill="#666666">[FOREIGN TABLE]</text>
<polygon fill="none" stroke="black" points="46.2,-231 46.2,-261.8 412.57,-261.8 412.57,-231 46.2,-231"/>
<text text-anchor="start" x="53.2" y="-243.2" font-family="Arial" font-size="14.00">arn </text>
<text text-anchor="start" x="77.32" y="-243.2" font-family="Arial" font-size="14.00" fill="#666666">[text]</text>
<polygon fill="none" stroke="black" points="46.2,-200.2 46.2,-231 412.57,-231 412.57,-200.2 46.2,-200.2"/>
<text text-anchor="start" x="53.2" y="-212.4" font-family="Arial" font-size="14.00">user_id </text>
<text text-anchor="start" x="103.01" y="-212.4" font-family="Arial" font-size="14.00" fill="#666666">[text]</text>
<polygon fill="none" stroke="black" points="46.2,-169.4 46.2,-200.2 412.57,-200.2 412.57,-169.4 46.2,-169.4"/>
<text text-anchor="start" x="53.2" y="-181.6" font-family="Arial" font-size="14.00">title </text>
<text text-anchor="start" x="78.88" y="-181.6" font-family="Arial" font-size="14.00" fill="#666666">[text]</text>
<polygon fill="none" stroke="black" points="46.2,-138.6 46.2,-169.4 412.57,-169.4 412.57,-138.6 46.2,-138.6"/>
<text text-anchor="start" x="53.2" y="-150.8" font-family="Arial" font-size="14.00">akas </text>
<text text-anchor="start" x="86.66" y="-150.8" font-family="Arial" font-size="14.00" fill="#666666">[jsonb]</text>
<polygon fill="none" stroke="black" points="46.2,-107.8 46.2,-138.6 412.57,-138.6 412.57,-107.8 46.2,-107.8"/>
<text text-anchor="start" x="53.2" y="-120" font-family="Arial" font-size="14.00">partition </text>
<text text-anchor="start" x="106.9" y="-120" font-family="Arial" font-size="14.00" fill="#666666">[text]</text>
<polygon fill="none" stroke="black" points="46.2,-77 46.2,-107.8 412.57,-107.8 412.57,-77 46.2,-77"/>
<text text-anchor="start" x="53.2" y="-89.2" font-family="Arial" font-size="14.00">account_id </text>
<text text-anchor="start" x="124.81" y="-89.2" font-family="Arial" font-size="14.00" fill="#666666">[text]</text>
<polygon fill="none" stroke="black" points="46.2,-46.2 46.2,-77 412.57,-77 412.57,-46.2 46.2,-46.2"/>
<text text-anchor="start" x="53.2" y="-58.4" font-family="Arial" font-size="14.00">_ctx </text>
<text text-anchor="start" x="82.77" y="-58.4" font-family="Arial" font-size="14.00" fill="#666666">[jsonb]</text>
<polygon fill="none" stroke="black" stroke-width="3" points="44.7,-44.7 44.7,-298.9 414.07,-298.9 414.07,-44.7 44.7,-44.7"/>
</g>
</g>
</svg>
