<?xml version="1.0" encoding="UTF-8" standalone="no"?>
<!DOCTYPE svg PUBLIC "-//W3C//DTD SVG 1.1//EN"
 "http://www.w3.org/Graphics/SVG/1.1/DTD/svg11.dtd">
<!-- Generated by graphviz version 12.1.2 (20240928.0832)
 -->
<!-- Title: aws.aws_ec2_instance_metric_cpu_utilization Pages: 1 -->
<svg width="600pt" height="690pt"
 viewBox="0.00 0.00 599.71 690.40" xmlns="http://www.w3.org/2000/svg" xmlns:xlink="http://www.w3.org/1999/xlink">
<g id="graph0" class="graph" transform="scale(1 1) rotate(0) translate(4 686.4)">
<title>aws.aws_ec2_instance_metric_cpu_utilization</title>
<polygon fill="white" stroke="none" points="-4,4 -4,-686.4 595.71,-686.4 595.71,4 -4,4"/>
<!-- aws.aws_ec2_instance_metric_cpu_utilization -->
<g id="node1" class="node">
<title>aws.aws_ec2_instance_metric_cpu_utilization</title>
<polygon fill="#efefef" stroke="none" points="46.2,-600.6 46.2,-636.2 545.51,-636.2 545.51,-600.6 46.2,-600.6"/>
<polygon fill="none" stroke="black" points="46.2,-600.6 46.2,-636.2 545.51,-636.2 545.51,-600.6 46.2,-600.6"/>
<text text-anchor="start" x="53.2" y="-614" font-family="Arial Bold" font-size="18.00">aws.aws_ec2_instance_metric_cpu_utilization</text>
<text text-anchor="start" x="387.59" y="-614" font-family="Arial" font-size="14.00">    </text>
<text text-anchor="start" x="418.71" y="-614" font-family="Arial" font-size="14.00" fill="#666666">[FOREIGN TABLE]</text>
<polygon fill="none" stroke="black" points="46.2,-569.8 46.2,-600.6 545.51,-600.6 545.51,-569.8 46.2,-569.8"/>
<text text-anchor="start" x="53.2" y="-582" font-family="Arial" font-size="14.00">instance_id </text>
<text text-anchor="start" x="127.92" y="-582" font-family="Arial" font-size="14.00" fill="#666666">[text]</text>
<polygon fill="none" stroke="black" points="46.2,-539 46.2,-569.8 545.51,-569.8 545.51,-539 46.2,-539"/>
<text text-anchor="start" x="53.2" y="-551.2" font-family="Arial" font-size="14.00">metric_name </text>
<text text-anchor="start" x="138.01" y="-551.2" font-family="Arial" font-size="14.00" fill="#666666">[text]</text>
<polygon fill="none" stroke="black" points="46.2,-508.2 46.2,-539 545.51,-539 545.51,-508.2 46.2,-508.2"/>
<text text-anchor="start" x="53.2" y="-520.4" font-family="Arial" font-size="14.00">namespace </text>
<text text-anchor="start" x="129.47" y="-520.4" font-family="Arial" font-size="14.00" fill="#666666">[text]</text>
<polygon fill="none" stroke="black" points="46.2,-477.4 46.2,-508.2 545.51,-508.2 545.51,-477.4 46.2,-477.4"/>
<text text-anchor="start" x="53.2" y="-489.6" font-family="Arial" font-size="14.00">average </text>
<text text-anchor="start" x="107.68" y="-489.6" font-family="Arial" font-size="14.00" fill="#666666">[double precision]</text>
<polygon fill="none" stroke="black" points="46.2,-446.6 46.2,-477.4 545.51,-477.4 545.51,-446.6 46.2,-446.6"/>
<text text-anchor="start" x="53.2" y="-458.8" font-family="Arial" font-size="14.00">maximum </text>
<text text-anchor="start" x="117.76" y="-458.8" font-family="Arial" font-size="14.00" fill="#666666">[double precision]</text>
<polygon fill="none" stroke="black" points="46.2,-415.8 46.2,-446.6 545.51,-446.6 545.51,-415.8 46.2,-415.8"/>
<text text-anchor="start" x="53.2" y="-428" font-family="Arial" font-size="14.00">minimum </text>
<text text-anchor="start" x="113.87" y="-428" font-family="Arial" font-size="14.00" fill="#666666">[double precision]</text>
<polygon fill="none" stroke="black" points="46.2,-385 46.2,-415.8 545.51,-415.8 545.51,-385 46.2,-385"/>
<text text-anchor="start" x="53.2" y="-397.2" font-family="Arial" font-size="14.00">sample_count </text>
<text text-anchor="start" x="144.25" y="-397.2" font-family="Arial" font-size="14.00" fill="#666666">[double precision]</text>
<polygon fill="none" stroke="black" points="46.2,-354.2 46.2,-385 545.51,-385 545.51,-354.2 46.2,-354.2"/>
<text text-anchor="start" x="53.2" y="-366.4" font-family="Arial" font-size="14.00">sum </text>
<text text-anchor="start" x="83.54" y="-366.4" font-family="Arial" font-size="14.00" fill="#666666">[double precision]</text>
<polygon fill="none" stroke="black" points="46.2,-323.4 46.2,-354.2 545.51,-354.2 545.51,-323.4 46.2,-323.4"/>
<text text-anchor="start" x="53.2" y="-335.6" font-family="Arial" font-size="14.00">unit </text>
<text text-anchor="start" x="79.66" y="-335.6" font-family="Arial" font-size="14.00" fill="#666666">[text]</text>
<polygon fill="none" stroke="black" points="46.2,-292.6 46.2,-323.4 545.51,-323.4 545.51,-292.6 46.2,-292.6"/>
<text text-anchor="start" x="53.2" y="-304.8" font-family="Arial" font-size="14.00">timestamp </text>
<text text-anchor="start" x="121.66" y="-304.8" font-family="Arial" font-size="14.00" fill="#666666">[timestamp with time zone]</text>
<polygon fill="none" stroke="black" points="46.2,-261.8 46.2,-292.6 545.51,-292.6 545.51,-261.8 46.2,-261.8"/>
<text text-anchor="start" x="53.2" y="-274" font-family="Arial" font-size="14.00">partition </text>
<text text-anchor="start" x="106.9" y="-274" font-family="Arial" font-size="14.00" fill="#666666">[text]</text>
<polygon fill="none" stroke="black" points="46.2,-231 46.2,-261.8 545.51,-261.8 545.51,-231 46.2,-231"/>
<text text-anchor="start" x="53.2" y="-243.2" font-family="Arial" font-size="14.00">region </text>
<text text-anchor="start" x="96.01" y="-243.2" font-family="Arial" font-size="14.00" fill="#666666">[text]</text>
<polygon fill="none" stroke="black" points="46.2,-200.2 46.2,-231 545.51,-231 545.51,-200.2 46.2,-200.2"/>
<text text-anchor="start" x="53.2" y="-212.4" font-family="Arial" font-size="14.00">account_id </text>
<text text-anchor="start" x="124.81" y="-212.4" font-family="Arial" font-size="14.00" fill="#666666">[text]</text>
<polygon fill="none" stroke="black" points="46.2,-169.4 46.2,-200.2 545.51,-200.2 545.51,-169.4 46.2,-169.4"/>
<text text-anchor="start" x="53.2" y="-181.6" font-family="Arial" font-size="14.00">og_account_id </text>
<text text-anchor="start" x="148.16" y="-181.6" font-family="Arial" font-size="14.00" fill="#666666">[text]</text>
<polygon fill="none" stroke="black" points="46.2,-138.6 46.2,-169.4 545.51,-169.4 545.51,-138.6 46.2,-138.6"/>
<text text-anchor="start" x="53.2" y="-150.8" font-family="Arial" font-size="14.00">og_resource_id </text>
<text text-anchor="start" x="153.6" y="-150.8" font-family="Arial" font-size="14.00" fill="#666666">[text]</text>
<polygon fill="none" stroke="black" points="46.2,-107.8 46.2,-138.6 545.51,-138.6 545.51,-107.8 46.2,-107.8"/>
<text text-anchor="start" x="53.2" y="-120" font-family="Arial" font-size="14.00">og_metadata </text>
<text text-anchor="start" x="138.82" y="-120" font-family="Arial" font-size="14.00" fill="#666666">[text]</text>
<polygon fill="none" stroke="black" points="46.2,-77 46.2,-107.8 545.51,-107.8 545.51,-77 46.2,-77"/>
<text text-anchor="start" x="53.2" y="-89.2" font-family="Arial" font-size="14.00">og_description </text>
<text text-anchor="start" x="148.15" y="-89.2" font-family="Arial" font-size="14.00" fill="#666666">[jsonb]</text>
<polygon fill="none" stroke="black" points="46.2,-46.2 46.2,-77 545.51,-77 545.51,-46.2 46.2,-46.2"/>
<text text-anchor="start" x="53.2" y="-58.4" font-family="Arial" font-size="14.00">_ctx </text>
<text text-anchor="start" x="82.77" y="-58.4" font-family="Arial" font-size="14.00" fill="#666666">[jsonb]</text>
<polygon fill="none" stroke="black" stroke-width="3" points="44.7,-44.7 44.7,-637.7 547.01,-637.7 547.01,-44.7 44.7,-44.7"/>
</g>
</g>
</svg>
