<?xml version="1.0" encoding="UTF-8" standalone="no"?>
<!DOCTYPE svg PUBLIC "-//W3C//DTD SVG 1.1//EN"
 "http://www.w3.org/Graphics/SVG/1.1/DTD/svg11.dtd">
<!-- Generated by graphviz version 12.1.2 (20240928.0832)
 -->
<!-- Title: aws.aws_opensearch_domain Pages: 1 -->
<svg width="479pt" height="1276pt"
 viewBox="0.00 0.00 478.75 1275.60" xmlns="http://www.w3.org/2000/svg" xmlns:xlink="http://www.w3.org/1999/xlink">
<g id="graph0" class="graph" transform="scale(1 1) rotate(0) translate(4 1271.6)">
<title>aws.aws_opensearch_domain</title>
<polygon fill="white" stroke="none" points="-4,4 -4,-1271.6 474.75,-1271.6 474.75,4 -4,4"/>
<!-- aws.aws_opensearch_domain -->
<g id="node1" class="node">
<title>aws.aws_opensearch_domain</title>
<polygon fill="#efefef" stroke="none" points="46.2,-1185.8 46.2,-1221.4 424.55,-1221.4 424.55,-1185.8 46.2,-1185.8"/>
<polygon fill="none" stroke="black" points="46.2,-1185.8 46.2,-1221.4 424.55,-1221.4 424.55,-1185.8 46.2,-1185.8"/>
<text text-anchor="start" x="53.2" y="-1199.2" font-family="Arial Bold" font-size="18.00">aws.aws_opensearch_domain</text>
<text text-anchor="start" x="266.63" y="-1199.2" font-family="Arial" font-size="14.00">    </text>
<text text-anchor="start" x="297.75" y="-1199.2" font-family="Arial" font-size="14.00" fill="#666666">[FOREIGN TABLE]</text>
<polygon fill="none" stroke="black" points="46.2,-1155 46.2,-1185.8 424.55,-1185.8 424.55,-1155 46.2,-1155"/>
<text text-anchor="start" x="53.2" y="-1167.2" font-family="Arial" font-size="14.00">domain_id </text>
<text text-anchor="start" x="121.69" y="-1167.2" font-family="Arial" font-size="14.00" fill="#666666">[text]</text>
<polygon fill="none" stroke="black" points="46.2,-1124.2 46.2,-1155 424.55,-1155 424.55,-1124.2 46.2,-1124.2"/>
<text text-anchor="start" x="53.2" y="-1136.4" font-family="Arial" font-size="14.00">domain_name </text>
<text text-anchor="start" x="145.81" y="-1136.4" font-family="Arial" font-size="14.00" fill="#666666">[text]</text>
<polygon fill="none" stroke="black" points="46.2,-1093.4 46.2,-1124.2 424.55,-1124.2 424.55,-1093.4 46.2,-1093.4"/>
<text text-anchor="start" x="53.2" y="-1105.6" font-family="Arial" font-size="14.00">engine_type </text>
<text text-anchor="start" x="133.38" y="-1105.6" font-family="Arial" font-size="14.00" fill="#666666">[text]</text>
<polygon fill="none" stroke="black" points="46.2,-1062.6 46.2,-1093.4 424.55,-1093.4 424.55,-1062.6 46.2,-1062.6"/>
<text text-anchor="start" x="53.2" y="-1074.8" font-family="Arial" font-size="14.00">arn </text>
<text text-anchor="start" x="77.32" y="-1074.8" font-family="Arial" font-size="14.00" fill="#666666">[text]</text>
<polygon fill="none" stroke="black" points="46.2,-1031.8 46.2,-1062.6 424.55,-1062.6 424.55,-1031.8 46.2,-1031.8"/>
<text text-anchor="start" x="53.2" y="-1044" font-family="Arial" font-size="14.00">access_policies </text>
<text text-anchor="start" x="155.14" y="-1044" font-family="Arial" font-size="14.00" fill="#666666">[text]</text>
<polygon fill="none" stroke="black" points="46.2,-1001 46.2,-1031.8 424.55,-1031.8 424.55,-1001 46.2,-1001"/>
<text text-anchor="start" x="53.2" y="-1013.2" font-family="Arial" font-size="14.00">created </text>
<text text-anchor="start" x="103.79" y="-1013.2" font-family="Arial" font-size="14.00" fill="#666666">[boolean]</text>
<polygon fill="none" stroke="black" points="46.2,-970.2 46.2,-1001 424.55,-1001 424.55,-970.2 46.2,-970.2"/>
<text text-anchor="start" x="53.2" y="-982.4" font-family="Arial" font-size="14.00">deleted </text>
<text text-anchor="start" x="103.02" y="-982.4" font-family="Arial" font-size="14.00" fill="#666666">[boolean]</text>
<polygon fill="none" stroke="black" points="46.2,-939.4 46.2,-970.2 424.55,-970.2 424.55,-939.4 46.2,-939.4"/>
<text text-anchor="start" x="53.2" y="-951.6" font-family="Arial" font-size="14.00">endpoint </text>
<text text-anchor="start" x="110.81" y="-951.6" font-family="Arial" font-size="14.00" fill="#666666">[text]</text>
<polygon fill="none" stroke="black" points="46.2,-908.6 46.2,-939.4 424.55,-939.4 424.55,-908.6 46.2,-908.6"/>
<text text-anchor="start" x="53.2" y="-920.8" font-family="Arial" font-size="14.00">engine_version </text>
<text text-anchor="start" x="152.05" y="-920.8" font-family="Arial" font-size="14.00" fill="#666666">[text]</text>
<polygon fill="none" stroke="black" points="46.2,-877.8 46.2,-908.6 424.55,-908.6 424.55,-877.8 46.2,-877.8"/>
<text text-anchor="start" x="53.2" y="-890" font-family="Arial" font-size="14.00">processing </text>
<text text-anchor="start" x="124.79" y="-890" font-family="Arial" font-size="14.00" fill="#666666">[boolean]</text>
<polygon fill="none" stroke="black" points="46.2,-847 46.2,-877.8 424.55,-877.8 424.55,-847 46.2,-847"/>
<text text-anchor="start" x="53.2" y="-859.2" font-family="Arial" font-size="14.00">upgrade_processing </text>
<text text-anchor="start" x="183.96" y="-859.2" font-family="Arial" font-size="14.00" fill="#666666">[boolean]</text>
<polygon fill="none" stroke="black" points="46.2,-816.2 46.2,-847 424.55,-847 424.55,-816.2 46.2,-816.2"/>
<text text-anchor="start" x="53.2" y="-828.4" font-family="Arial" font-size="14.00">node_to_node_encryption_options_enabled </text>
<text text-anchor="start" x="329.55" y="-828.4" font-family="Arial" font-size="14.00" fill="#666666">[boolean]</text>
<polygon fill="none" stroke="black" points="46.2,-785.4 46.2,-816.2 424.55,-816.2 424.55,-785.4 46.2,-785.4"/>
<text text-anchor="start" x="53.2" y="-797.6" font-family="Arial" font-size="14.00">advanced_options </text>
<text text-anchor="start" x="170.74" y="-797.6" font-family="Arial" font-size="14.00" fill="#666666">[jsonb]</text>
<polygon fill="none" stroke="black" points="46.2,-754.6 46.2,-785.4 424.55,-785.4 424.55,-754.6 46.2,-754.6"/>
<text text-anchor="start" x="53.2" y="-766.8" font-family="Arial" font-size="14.00">advanced_security_options </text>
<text text-anchor="start" x="226.76" y="-766.8" font-family="Arial" font-size="14.00" fill="#666666">[jsonb]</text>
<polygon fill="none" stroke="black" points="46.2,-723.8 46.2,-754.6 424.55,-754.6 424.55,-723.8 46.2,-723.8"/>
<text text-anchor="start" x="53.2" y="-736" font-family="Arial" font-size="14.00">auto_tune_options </text>
<text text-anchor="start" x="172.3" y="-736" font-family="Arial" font-size="14.00" fill="#666666">[jsonb]</text>
<polygon fill="none" stroke="black" points="46.2,-693 46.2,-723.8 424.55,-723.8 424.55,-693 46.2,-693"/>
<text text-anchor="start" x="53.2" y="-705.2" font-family="Arial" font-size="14.00">cluster_config </text>
<text text-anchor="start" x="143.47" y="-705.2" font-family="Arial" font-size="14.00" fill="#666666">[jsonb]</text>
<polygon fill="none" stroke="black" points="46.2,-662.2 46.2,-693 424.55,-693 424.55,-662.2 46.2,-662.2"/>
<text text-anchor="start" x="53.2" y="-674.4" font-family="Arial" font-size="14.00">cognito_options </text>
<text text-anchor="start" x="155.16" y="-674.4" font-family="Arial" font-size="14.00" fill="#666666">[jsonb]</text>
<polygon fill="none" stroke="black" points="46.2,-631.4 46.2,-662.2 424.55,-662.2 424.55,-631.4 46.2,-631.4"/>
<text text-anchor="start" x="53.2" y="-643.6" font-family="Arial" font-size="14.00">domain_endpoint_options </text>
<text text-anchor="start" x="217.44" y="-643.6" font-family="Arial" font-size="14.00" fill="#666666">[jsonb]</text>
<polygon fill="none" stroke="black" points="46.2,-600.6 46.2,-631.4 424.55,-631.4 424.55,-600.6 46.2,-600.6"/>
<text text-anchor="start" x="53.2" y="-612.8" font-family="Arial" font-size="14.00">ebs_options </text>
<text text-anchor="start" x="132.59" y="-612.8" font-family="Arial" font-size="14.00" fill="#666666">[jsonb]</text>
<polygon fill="none" stroke="black" points="46.2,-569.8 46.2,-600.6 424.55,-600.6 424.55,-569.8 46.2,-569.8"/>
<text text-anchor="start" x="53.2" y="-582" font-family="Arial" font-size="14.00">encryption_at_rest_options </text>
<text text-anchor="start" x="225.2" y="-582" font-family="Arial" font-size="14.00" fill="#666666">[jsonb]</text>
<polygon fill="none" stroke="black" points="46.2,-539 46.2,-569.8 424.55,-569.8 424.55,-539 46.2,-539"/>
<text text-anchor="start" x="53.2" y="-551.2" font-family="Arial" font-size="14.00">endpoints </text>
<text text-anchor="start" x="117.81" y="-551.2" font-family="Arial" font-size="14.00" fill="#666666">[jsonb]</text>
<polygon fill="none" stroke="black" points="46.2,-508.2 46.2,-539 424.55,-539 424.55,-508.2 46.2,-508.2"/>
<text text-anchor="start" x="53.2" y="-520.4" font-family="Arial" font-size="14.00">log_publishing_options </text>
<text text-anchor="start" x="199.54" y="-520.4" font-family="Arial" font-size="14.00" fill="#666666">[jsonb]</text>
<polygon fill="none" stroke="black" points="46.2,-477.4 46.2,-508.2 424.55,-508.2 424.55,-477.4 46.2,-477.4"/>
<text text-anchor="start" x="53.2" y="-489.6" font-family="Arial" font-size="14.00">service_software_options </text>
<text text-anchor="start" x="215.06" y="-489.6" font-family="Arial" font-size="14.00" fill="#666666">[jsonb]</text>
<polygon fill="none" stroke="black" points="46.2,-446.6 46.2,-477.4 424.55,-477.4 424.55,-446.6 46.2,-446.6"/>
<text text-anchor="start" x="53.2" y="-458.8" font-family="Arial" font-size="14.00">snapshot_options </text>
<text text-anchor="start" x="166.84" y="-458.8" font-family="Arial" font-size="14.00" fill="#666666">[jsonb]</text>
<polygon fill="none" stroke="black" points="46.2,-415.8 46.2,-446.6 424.55,-446.6 424.55,-415.8 46.2,-415.8"/>
<text text-anchor="start" x="53.2" y="-428" font-family="Arial" font-size="14.00">vpc_options </text>
<text text-anchor="start" x="131.81" y="-428" font-family="Arial" font-size="14.00" fill="#666666">[jsonb]</text>
<polygon fill="none" stroke="black" points="46.2,-385 46.2,-415.8 424.55,-415.8 424.55,-385 46.2,-385"/>
<text text-anchor="start" x="53.2" y="-397.2" font-family="Arial" font-size="14.00">tags_src </text>
<text text-anchor="start" x="110" y="-397.2" font-family="Arial" font-size="14.00" fill="#666666">[jsonb]</text>
<polygon fill="none" stroke="black" points="46.2,-354.2 46.2,-385 424.55,-385 424.55,-354.2 46.2,-354.2"/>
<text text-anchor="start" x="53.2" y="-366.4" font-family="Arial" font-size="14.00">title </text>
<text text-anchor="start" x="78.88" y="-366.4" font-family="Arial" font-size="14.00" fill="#666666">[text]</text>
<polygon fill="none" stroke="black" points="46.2,-323.4 46.2,-354.2 424.55,-354.2 424.55,-323.4 46.2,-323.4"/>
<text text-anchor="start" x="53.2" y="-335.6" font-family="Arial" font-size="14.00">tags </text>
<text text-anchor="start" x="83.55" y="-335.6" font-family="Arial" font-size="14.00" fill="#666666">[jsonb]</text>
<polygon fill="none" stroke="black" points="46.2,-292.6 46.2,-323.4 424.55,-323.4 424.55,-292.6 46.2,-292.6"/>
<text text-anchor="start" x="53.2" y="-304.8" font-family="Arial" font-size="14.00">akas </text>
<text text-anchor="start" x="86.66" y="-304.8" font-family="Arial" font-size="14.00" fill="#666666">[jsonb]</text>
<polygon fill="none" stroke="black" points="46.2,-261.8 46.2,-292.6 424.55,-292.6 424.55,-261.8 46.2,-261.8"/>
<text text-anchor="start" x="53.2" y="-274" font-family="Arial" font-size="14.00">partition </text>
<text text-anchor="start" x="106.9" y="-274" font-family="Arial" font-size="14.00" fill="#666666">[text]</text>
<polygon fill="none" stroke="black" points="46.2,-231 46.2,-261.8 424.55,-261.8 424.55,-231 46.2,-231"/>
<text text-anchor="start" x="53.2" y="-243.2" font-family="Arial" font-size="14.00">region </text>
<text text-anchor="start" x="96.01" y="-243.2" font-family="Arial" font-size="14.00" fill="#666666">[text]</text>
<polygon fill="none" stroke="black" points="46.2,-200.2 46.2,-231 424.55,-231 424.55,-200.2 46.2,-200.2"/>
<text text-anchor="start" x="53.2" y="-212.4" font-family="Arial" font-size="14.00">account_id </text>
<text text-anchor="start" x="124.81" y="-212.4" font-family="Arial" font-size="14.00" fill="#666666">[text]</text>
<polygon fill="none" stroke="black" points="46.2,-169.4 46.2,-200.2 424.55,-200.2 424.55,-169.4 46.2,-169.4"/>
<text text-anchor="start" x="53.2" y="-181.6" font-family="Arial" font-size="14.00">og_account_id </text>
<text text-anchor="start" x="148.16" y="-181.6" font-family="Arial" font-size="14.00" fill="#666666">[text]</text>
<polygon fill="none" stroke="black" points="46.2,-138.6 46.2,-169.4 424.55,-169.4 424.55,-138.6 46.2,-138.6"/>
<text text-anchor="start" x="53.2" y="-150.8" font-family="Arial" font-size="14.00">og_resource_id </text>
<text text-anchor="start" x="153.6" y="-150.8" font-family="Arial" font-size="14.00" fill="#666666">[text]</text>
<polygon fill="none" stroke="black" points="46.2,-107.8 46.2,-138.6 424.55,-138.6 424.55,-107.8 46.2,-107.8"/>
<text text-anchor="start" x="53.2" y="-120" font-family="Arial" font-size="14.00">og_metadata </text>
<text text-anchor="start" x="138.82" y="-120" font-family="Arial" font-size="14.00" fill="#666666">[text]</text>
<polygon fill="none" stroke="black" points="46.2,-77 46.2,-107.8 424.55,-107.8 424.55,-77 46.2,-77"/>
<text text-anchor="start" x="53.2" y="-89.2" font-family="Arial" font-size="14.00">og_description </text>
<text text-anchor="start" x="148.15" y="-89.2" font-family="Arial" font-size="14.00" fill="#666666">[jsonb]</text>
<polygon fill="none" stroke="black" points="46.2,-46.2 46.2,-77 424.55,-77 424.55,-46.2 46.2,-46.2"/>
<text text-anchor="start" x="53.2" y="-58.4" font-family="Arial" font-size="14.00">_ctx </text>
<text text-anchor="start" x="82.77" y="-58.4" font-family="Arial" font-size="14.00" fill="#666666">[jsonb]</text>
<polygon fill="none" stroke="black" stroke-width="3" points="44.7,-44.7 44.7,-1222.9 426.05,-1222.9 426.05,-44.7 44.7,-44.7"/>
</g>
</g>
</svg>
