<?xml version="1.0" encoding="UTF-8" standalone="no"?>
<!DOCTYPE svg PUBLIC "-//W3C//DTD SVG 1.1//EN"
 "http://www.w3.org/Graphics/SVG/1.1/DTD/svg11.dtd">
<!-- Generated by graphviz version 12.1.2 (20240928.0832)
 -->
<!-- Title: aws.aws_s3_bucket_intelligent_tiering_configuration Pages: 1 -->
<svg width="652pt" height="444pt"
 viewBox="0.00 0.00 651.73 444.00" xmlns="http://www.w3.org/2000/svg" xmlns:xlink="http://www.w3.org/1999/xlink">
<g id="graph0" class="graph" transform="scale(1 1) rotate(0) translate(4 440)">
<title>aws.aws_s3_bucket_intelligent_tiering_configuration</title>
<polygon fill="white" stroke="none" points="-4,4 -4,-440 647.73,-440 647.73,4 -4,4"/>
<!-- aws.aws_s3_bucket_intelligent_tiering_configuration -->
<g id="node1" class="node">
<title>aws.aws_s3_bucket_intelligent_tiering_configuration</title>
<polygon fill="#efefef" stroke="none" points="46.2,-354.2 46.2,-389.8 597.53,-389.8 597.53,-354.2 46.2,-354.2"/>
<polygon fill="none" stroke="black" points="46.2,-354.2 46.2,-389.8 597.53,-389.8 597.53,-354.2 46.2,-354.2"/>
<text text-anchor="start" x="53.2" y="-367.6" font-family="Arial Bold" font-size="18.00">aws.aws_s3_bucket_intelligent_tiering_configuration</text>
<text text-anchor="start" x="439.61" y="-367.6" font-family="Arial" font-size="14.00">    </text>
<text text-anchor="start" x="470.73" y="-367.6" font-family="Arial" font-size="14.00" fill="#666666">[FOREIGN TABLE]</text>
<polygon fill="none" stroke="black" points="46.2,-323.4 46.2,-354.2 597.53,-354.2 597.53,-323.4 46.2,-323.4"/>
<text text-anchor="start" x="53.2" y="-335.6" font-family="Arial" font-size="14.00">bucket_name </text>
<text text-anchor="start" x="141.14" y="-335.6" font-family="Arial" font-size="14.00" fill="#666666">[text]</text>
<polygon fill="none" stroke="black" points="46.2,-292.6 46.2,-323.4 597.53,-323.4 597.53,-292.6 46.2,-292.6"/>
<text text-anchor="start" x="53.2" y="-304.8" font-family="Arial" font-size="14.00">id </text>
<text text-anchor="start" x="67.99" y="-304.8" font-family="Arial" font-size="14.00" fill="#666666">[text]</text>
<polygon fill="none" stroke="black" points="46.2,-261.8 46.2,-292.6 597.53,-292.6 597.53,-261.8 46.2,-261.8"/>
<text text-anchor="start" x="53.2" y="-274" font-family="Arial" font-size="14.00">status </text>
<text text-anchor="start" x="94.44" y="-274" font-family="Arial" font-size="14.00" fill="#666666">[text]</text>
<polygon fill="none" stroke="black" points="46.2,-231 46.2,-261.8 597.53,-261.8 597.53,-231 46.2,-231"/>
<text text-anchor="start" x="53.2" y="-243.2" font-family="Arial" font-size="14.00">tierings </text>
<text text-anchor="start" x="102.22" y="-243.2" font-family="Arial" font-size="14.00" fill="#666666">[jsonb]</text>
<polygon fill="none" stroke="black" points="46.2,-200.2 46.2,-231 597.53,-231 597.53,-200.2 46.2,-200.2"/>
<text text-anchor="start" x="53.2" y="-212.4" font-family="Arial" font-size="14.00">filter </text>
<text text-anchor="start" x="83.54" y="-212.4" font-family="Arial" font-size="14.00" fill="#666666">[jsonb]</text>
<polygon fill="none" stroke="black" points="46.2,-169.4 46.2,-200.2 597.53,-200.2 597.53,-169.4 46.2,-169.4"/>
<text text-anchor="start" x="53.2" y="-181.6" font-family="Arial" font-size="14.00">title </text>
<text text-anchor="start" x="78.88" y="-181.6" font-family="Arial" font-size="14.00" fill="#666666">[text]</text>
<polygon fill="none" stroke="black" points="46.2,-138.6 46.2,-169.4 597.53,-169.4 597.53,-138.6 46.2,-138.6"/>
<text text-anchor="start" x="53.2" y="-150.8" font-family="Arial" font-size="14.00">partition </text>
<text text-anchor="start" x="106.9" y="-150.8" font-family="Arial" font-size="14.00" fill="#666666">[text]</text>
<polygon fill="none" stroke="black" points="46.2,-107.8 46.2,-138.6 597.53,-138.6 597.53,-107.8 46.2,-107.8"/>
<text text-anchor="start" x="53.2" y="-120" font-family="Arial" font-size="14.00">region </text>
<text text-anchor="start" x="96.01" y="-120" font-family="Arial" font-size="14.00" fill="#666666">[text]</text>
<polygon fill="none" stroke="black" points="46.2,-77 46.2,-107.8 597.53,-107.8 597.53,-77 46.2,-77"/>
<text text-anchor="start" x="53.2" y="-89.2" font-family="Arial" font-size="14.00">account_id </text>
<text text-anchor="start" x="124.81" y="-89.2" font-family="Arial" font-size="14.00" fill="#666666">[text]</text>
<polygon fill="none" stroke="black" points="46.2,-46.2 46.2,-77 597.53,-77 597.53,-46.2 46.2,-46.2"/>
<text text-anchor="start" x="53.2" y="-58.4" font-family="Arial" font-size="14.00">_ctx </text>
<text text-anchor="start" x="82.77" y="-58.4" font-family="Arial" font-size="14.00" fill="#666666">[jsonb]</text>
<polygon fill="none" stroke="black" stroke-width="3" points="44.7,-44.7 44.7,-391.3 599.03,-391.3 599.03,-44.7 44.7,-44.7"/>
</g>
</g>
</svg>
