<?xml version="1.0" encoding="UTF-8" standalone="no"?>
<!DOCTYPE svg PUBLIC "-//W3C//DTD SVG 1.1//EN"
 "http://www.w3.org/Graphics/SVG/1.1/DTD/svg11.dtd">
<!-- Generated by graphviz version 12.1.2 (20240928.0832)
 -->
<!-- Title: aws.aws_docdb_cluster_instance Pages: 1 -->
<svg width="504pt" height="1522pt"
 viewBox="0.00 0.00 503.75 1522.00" xmlns="http://www.w3.org/2000/svg" xmlns:xlink="http://www.w3.org/1999/xlink">
<g id="graph0" class="graph" transform="scale(1 1) rotate(0) translate(4 1518)">
<title>aws.aws_docdb_cluster_instance</title>
<polygon fill="white" stroke="none" points="-4,4 -4,-1518 499.75,-1518 499.75,4 -4,4"/>
<!-- aws.aws_docdb_cluster_instance -->
<g id="node1" class="node">
<title>aws.aws_docdb_cluster_instance</title>
<polygon fill="#efefef" stroke="none" points="46.2,-1432.2 46.2,-1467.8 449.55,-1467.8 449.55,-1432.2 46.2,-1432.2"/>
<polygon fill="none" stroke="black" points="46.2,-1432.2 46.2,-1467.8 449.55,-1467.8 449.55,-1432.2 46.2,-1432.2"/>
<text text-anchor="start" x="53.2" y="-1445.6" font-family="Arial Bold" font-size="18.00">aws.aws_docdb_cluster_instance</text>
<text text-anchor="start" x="291.63" y="-1445.6" font-family="Arial" font-size="14.00">    </text>
<text text-anchor="start" x="322.75" y="-1445.6" font-family="Arial" font-size="14.00" fill="#666666">[FOREIGN TABLE]</text>
<polygon fill="none" stroke="black" points="46.2,-1401.4 46.2,-1432.2 449.55,-1432.2 449.55,-1401.4 46.2,-1401.4"/>
<text text-anchor="start" x="53.2" y="-1413.6" font-family="Arial" font-size="14.00">db_instance_identifier </text>
<text text-anchor="start" x="193.3" y="-1413.6" font-family="Arial" font-size="14.00" fill="#666666">[text]</text>
<polygon fill="none" stroke="black" points="46.2,-1370.6 46.2,-1401.4 449.55,-1401.4 449.55,-1370.6 46.2,-1370.6"/>
<text text-anchor="start" x="53.2" y="-1382.8" font-family="Arial" font-size="14.00">db_instance_arn </text>
<text text-anchor="start" x="160.61" y="-1382.8" font-family="Arial" font-size="14.00" fill="#666666">[text]</text>
<polygon fill="none" stroke="black" points="46.2,-1339.8 46.2,-1370.6 449.55,-1370.6 449.55,-1339.8 46.2,-1339.8"/>
<text text-anchor="start" x="53.2" y="-1352" font-family="Arial" font-size="14.00">db_cluster_identifier </text>
<text text-anchor="start" x="182.39" y="-1352" font-family="Arial" font-size="14.00" fill="#666666">[text]</text>
<polygon fill="none" stroke="black" points="46.2,-1309 46.2,-1339.8 449.55,-1339.8 449.55,-1309 46.2,-1309"/>
<text text-anchor="start" x="53.2" y="-1321.2" font-family="Arial" font-size="14.00">db_instance_status </text>
<text text-anchor="start" x="177.73" y="-1321.2" font-family="Arial" font-size="14.00" fill="#666666">[text]</text>
<polygon fill="none" stroke="black" points="46.2,-1278.2 46.2,-1309 449.55,-1309 449.55,-1278.2 46.2,-1278.2"/>
<text text-anchor="start" x="53.2" y="-1290.4" font-family="Arial" font-size="14.00">db_instance_class </text>
<text text-anchor="start" x="172.28" y="-1290.4" font-family="Arial" font-size="14.00" fill="#666666">[text]</text>
<polygon fill="none" stroke="black" points="46.2,-1247.4 46.2,-1278.2 449.55,-1278.2 449.55,-1247.4 46.2,-1247.4"/>
<text text-anchor="start" x="53.2" y="-1259.6" font-family="Arial" font-size="14.00">dbi_resource_id </text>
<text text-anchor="start" x="156.71" y="-1259.6" font-family="Arial" font-size="14.00" fill="#666666">[text]</text>
<polygon fill="none" stroke="black" points="46.2,-1216.6 46.2,-1247.4 449.55,-1247.4 449.55,-1216.6 46.2,-1216.6"/>
<text text-anchor="start" x="53.2" y="-1228.8" font-family="Arial" font-size="14.00">availability_zone </text>
<text text-anchor="start" x="159.82" y="-1228.8" font-family="Arial" font-size="14.00" fill="#666666">[text]</text>
<polygon fill="none" stroke="black" points="46.2,-1185.8 46.2,-1216.6 449.55,-1216.6 449.55,-1185.8 46.2,-1185.8"/>
<text text-anchor="start" x="53.2" y="-1198" font-family="Arial" font-size="14.00">backup_retention_period </text>
<text text-anchor="start" x="211.21" y="-1198" font-family="Arial" font-size="14.00" fill="#666666">[bigint]</text>
<polygon fill="none" stroke="black" points="46.2,-1155 46.2,-1185.8 449.55,-1185.8 449.55,-1155 46.2,-1155"/>
<text text-anchor="start" x="53.2" y="-1167.2" font-family="Arial" font-size="14.00">ca_certificate_identifier </text>
<text text-anchor="start" x="200.28" y="-1167.2" font-family="Arial" font-size="14.00" fill="#666666">[text]</text>
<polygon fill="none" stroke="black" points="46.2,-1124.2 46.2,-1155 449.55,-1155 449.55,-1124.2 46.2,-1124.2"/>
<text text-anchor="start" x="53.2" y="-1136.4" font-family="Arial" font-size="14.00">copy_tags_to_snapshot </text>
<text text-anchor="start" x="204.98" y="-1136.4" font-family="Arial" font-size="14.00" fill="#666666">[boolean]</text>
<polygon fill="none" stroke="black" points="46.2,-1093.4 46.2,-1124.2 449.55,-1124.2 449.55,-1093.4 46.2,-1093.4"/>
<text text-anchor="start" x="53.2" y="-1105.6" font-family="Arial" font-size="14.00">db_subnet_group_arn </text>
<text text-anchor="start" x="194.1" y="-1105.6" font-family="Arial" font-size="14.00" fill="#666666">[text]</text>
<polygon fill="none" stroke="black" points="46.2,-1062.6 46.2,-1093.4 449.55,-1093.4 449.55,-1062.6 46.2,-1062.6"/>
<text text-anchor="start" x="53.2" y="-1074.8" font-family="Arial" font-size="14.00">db_subnet_group_description </text>
<text text-anchor="start" x="241.56" y="-1074.8" font-family="Arial" font-size="14.00" fill="#666666">[text]</text>
<polygon fill="none" stroke="black" points="46.2,-1031.8 46.2,-1062.6 449.55,-1062.6 449.55,-1031.8 46.2,-1031.8"/>
<text text-anchor="start" x="53.2" y="-1044" font-family="Arial" font-size="14.00">db_subnet_group_name </text>
<text text-anchor="start" x="208.88" y="-1044" font-family="Arial" font-size="14.00" fill="#666666">[text]</text>
<polygon fill="none" stroke="black" points="46.2,-1001 46.2,-1031.8 449.55,-1031.8 449.55,-1001 46.2,-1001"/>
<text text-anchor="start" x="53.2" y="-1013.2" font-family="Arial" font-size="14.00">db_subnet_group_status </text>
<text text-anchor="start" x="211.21" y="-1013.2" font-family="Arial" font-size="14.00" fill="#666666">[text]</text>
<polygon fill="none" stroke="black" points="46.2,-970.2 46.2,-1001 449.55,-1001 449.55,-970.2 46.2,-970.2"/>
<text text-anchor="start" x="53.2" y="-982.4" font-family="Arial" font-size="14.00">endpoint_address </text>
<text text-anchor="start" x="168.4" y="-982.4" font-family="Arial" font-size="14.00" fill="#666666">[text]</text>
<polygon fill="none" stroke="black" points="46.2,-939.4 46.2,-970.2 449.55,-970.2 449.55,-939.4 46.2,-939.4"/>
<text text-anchor="start" x="53.2" y="-951.6" font-family="Arial" font-size="14.00">endpoint_hosted_zone_id </text>
<text text-anchor="start" x="217.45" y="-951.6" font-family="Arial" font-size="14.00" fill="#666666">[text]</text>
<polygon fill="none" stroke="black" points="46.2,-908.6 46.2,-939.4 449.55,-939.4 449.55,-908.6 46.2,-908.6"/>
<text text-anchor="start" x="53.2" y="-920.8" font-family="Arial" font-size="14.00">endpoint_port </text>
<text text-anchor="start" x="142.72" y="-920.8" font-family="Arial" font-size="14.00" fill="#666666">[bigint]</text>
<polygon fill="none" stroke="black" points="46.2,-877.8 46.2,-908.6 449.55,-908.6 449.55,-877.8 46.2,-877.8"/>
<text text-anchor="start" x="53.2" y="-890" font-family="Arial" font-size="14.00">engine </text>
<text text-anchor="start" x="99.13" y="-890" font-family="Arial" font-size="14.00" fill="#666666">[text]</text>
<polygon fill="none" stroke="black" points="46.2,-847 46.2,-877.8 449.55,-877.8 449.55,-847 46.2,-847"/>
<text text-anchor="start" x="53.2" y="-859.2" font-family="Arial" font-size="14.00">engine_version </text>
<text text-anchor="start" x="152.05" y="-859.2" font-family="Arial" font-size="14.00" fill="#666666">[text]</text>
<polygon fill="none" stroke="black" points="46.2,-816.2 46.2,-847 449.55,-847 449.55,-816.2 46.2,-816.2"/>
<text text-anchor="start" x="53.2" y="-828.4" font-family="Arial" font-size="14.00">instance_create_time </text>
<text text-anchor="start" x="190.16" y="-828.4" font-family="Arial" font-size="14.00" fill="#666666">[timestamp with time zone]</text>
<polygon fill="none" stroke="black" points="46.2,-785.4 46.2,-816.2 449.55,-816.2 449.55,-785.4 46.2,-785.4"/>
<text text-anchor="start" x="53.2" y="-797.6" font-family="Arial" font-size="14.00">kms_key_id </text>
<text text-anchor="start" x="131.01" y="-797.6" font-family="Arial" font-size="14.00" fill="#666666">[text]</text>
<polygon fill="none" stroke="black" points="46.2,-754.6 46.2,-785.4 449.55,-785.4 449.55,-754.6 46.2,-754.6"/>
<text text-anchor="start" x="53.2" y="-766.8" font-family="Arial" font-size="14.00">latest_restorable_time </text>
<text text-anchor="start" x="194.83" y="-766.8" font-family="Arial" font-size="14.00" fill="#666666">[timestamp with time zone]</text>
<polygon fill="none" stroke="black" points="46.2,-723.8 46.2,-754.6 449.55,-754.6 449.55,-723.8 46.2,-723.8"/>
<text text-anchor="start" x="53.2" y="-736" font-family="Arial" font-size="14.00">preferred_backup_window </text>
<text text-anchor="start" x="221.3" y="-736" font-family="Arial" font-size="14.00" fill="#666666">[text]</text>
<polygon fill="none" stroke="black" points="46.2,-693 46.2,-723.8 449.55,-723.8 449.55,-693 46.2,-693"/>
<text text-anchor="start" x="53.2" y="-705.2" font-family="Arial" font-size="14.00">preferred_maintenance_window </text>
<text text-anchor="start" x="256.32" y="-705.2" font-family="Arial" font-size="14.00" fill="#666666">[text]</text>
<polygon fill="none" stroke="black" points="46.2,-662.2 46.2,-693 449.55,-693 449.55,-662.2 46.2,-662.2"/>
<text text-anchor="start" x="53.2" y="-674.4" font-family="Arial" font-size="14.00">promotion_tier </text>
<text text-anchor="start" x="146.58" y="-674.4" font-family="Arial" font-size="14.00" fill="#666666">[bigint]</text>
<polygon fill="none" stroke="black" points="46.2,-631.4 46.2,-662.2 449.55,-662.2 449.55,-631.4 46.2,-631.4"/>
<text text-anchor="start" x="53.2" y="-643.6" font-family="Arial" font-size="14.00">publicly_accessible </text>
<text text-anchor="start" x="176.93" y="-643.6" font-family="Arial" font-size="14.00" fill="#666666">[boolean]</text>
<polygon fill="none" stroke="black" points="46.2,-600.6 46.2,-631.4 449.55,-631.4 449.55,-600.6 46.2,-600.6"/>
<text text-anchor="start" x="53.2" y="-612.8" font-family="Arial" font-size="14.00">storage_encrypted </text>
<text text-anchor="start" x="173.05" y="-612.8" font-family="Arial" font-size="14.00" fill="#666666">[boolean]</text>
<polygon fill="none" stroke="black" points="46.2,-569.8 46.2,-600.6 449.55,-600.6 449.55,-569.8 46.2,-569.8"/>
<text text-anchor="start" x="53.2" y="-582" font-family="Arial" font-size="14.00">vpc_id </text>
<text text-anchor="start" x="97.56" y="-582" font-family="Arial" font-size="14.00" fill="#666666">[text]</text>
<polygon fill="none" stroke="black" points="46.2,-539 46.2,-569.8 449.55,-569.8 449.55,-539 46.2,-539"/>
<text text-anchor="start" x="53.2" y="-551.2" font-family="Arial" font-size="14.00">enabled_cloudwatch_logs_exports </text>
<text text-anchor="start" x="271.91" y="-551.2" font-family="Arial" font-size="14.00" fill="#666666">[jsonb]</text>
<polygon fill="none" stroke="black" points="46.2,-508.2 46.2,-539 449.55,-539 449.55,-508.2 46.2,-508.2"/>
<text text-anchor="start" x="53.2" y="-520.4" font-family="Arial" font-size="14.00">pending_modified_values </text>
<text text-anchor="start" x="215.87" y="-520.4" font-family="Arial" font-size="14.00" fill="#666666">[jsonb]</text>
<polygon fill="none" stroke="black" points="46.2,-477.4 46.2,-508.2 449.55,-508.2 449.55,-477.4 46.2,-477.4"/>
<text text-anchor="start" x="53.2" y="-489.6" font-family="Arial" font-size="14.00">status_infos </text>
<text text-anchor="start" x="131.8" y="-489.6" font-family="Arial" font-size="14.00" fill="#666666">[jsonb]</text>
<polygon fill="none" stroke="black" points="46.2,-446.6 46.2,-477.4 449.55,-477.4 449.55,-446.6 46.2,-446.6"/>
<text text-anchor="start" x="53.2" y="-458.8" font-family="Arial" font-size="14.00">subnets </text>
<text text-anchor="start" x="106.12" y="-458.8" font-family="Arial" font-size="14.00" fill="#666666">[jsonb]</text>
<polygon fill="none" stroke="black" points="46.2,-415.8 46.2,-446.6 449.55,-446.6 449.55,-415.8 46.2,-415.8"/>
<text text-anchor="start" x="53.2" y="-428" font-family="Arial" font-size="14.00">vpc_security_groups </text>
<text text-anchor="start" x="185.49" y="-428" font-family="Arial" font-size="14.00" fill="#666666">[jsonb]</text>
<polygon fill="none" stroke="black" points="46.2,-385 46.2,-415.8 449.55,-415.8 449.55,-385 46.2,-385"/>
<text text-anchor="start" x="53.2" y="-397.2" font-family="Arial" font-size="14.00">tags_src </text>
<text text-anchor="start" x="110" y="-397.2" font-family="Arial" font-size="14.00" fill="#666666">[jsonb]</text>
<polygon fill="none" stroke="black" points="46.2,-354.2 46.2,-385 449.55,-385 449.55,-354.2 46.2,-354.2"/>
<text text-anchor="start" x="53.2" y="-366.4" font-family="Arial" font-size="14.00">tags </text>
<text text-anchor="start" x="83.55" y="-366.4" font-family="Arial" font-size="14.00" fill="#666666">[jsonb]</text>
<polygon fill="none" stroke="black" points="46.2,-323.4 46.2,-354.2 449.55,-354.2 449.55,-323.4 46.2,-323.4"/>
<text text-anchor="start" x="53.2" y="-335.6" font-family="Arial" font-size="14.00">title </text>
<text text-anchor="start" x="78.88" y="-335.6" font-family="Arial" font-size="14.00" fill="#666666">[text]</text>
<polygon fill="none" stroke="black" points="46.2,-292.6 46.2,-323.4 449.55,-323.4 449.55,-292.6 46.2,-292.6"/>
<text text-anchor="start" x="53.2" y="-304.8" font-family="Arial" font-size="14.00">akas </text>
<text text-anchor="start" x="86.66" y="-304.8" font-family="Arial" font-size="14.00" fill="#666666">[jsonb]</text>
<polygon fill="none" stroke="black" points="46.2,-261.8 46.2,-292.6 449.55,-292.6 449.55,-261.8 46.2,-261.8"/>
<text text-anchor="start" x="53.2" y="-274" font-family="Arial" font-size="14.00">partition </text>
<text text-anchor="start" x="106.9" y="-274" font-family="Arial" font-size="14.00" fill="#666666">[text]</text>
<polygon fill="none" stroke="black" points="46.2,-231 46.2,-261.8 449.55,-261.8 449.55,-231 46.2,-231"/>
<text text-anchor="start" x="53.2" y="-243.2" font-family="Arial" font-size="14.00">region </text>
<text text-anchor="start" x="96.01" y="-243.2" font-family="Arial" font-size="14.00" fill="#666666">[text]</text>
<polygon fill="none" stroke="black" points="46.2,-200.2 46.2,-231 449.55,-231 449.55,-200.2 46.2,-200.2"/>
<text text-anchor="start" x="53.2" y="-212.4" font-family="Arial" font-size="14.00">account_id </text>
<text text-anchor="start" x="124.81" y="-212.4" font-family="Arial" font-size="14.00" fill="#666666">[text]</text>
<polygon fill="none" stroke="black" points="46.2,-169.4 46.2,-200.2 449.55,-200.2 449.55,-169.4 46.2,-169.4"/>
<text text-anchor="start" x="53.2" y="-181.6" font-family="Arial" font-size="14.00">og_account_id </text>
<text text-anchor="start" x="148.16" y="-181.6" font-family="Arial" font-size="14.00" fill="#666666">[text]</text>
<polygon fill="none" stroke="black" points="46.2,-138.6 46.2,-169.4 449.55,-169.4 449.55,-138.6 46.2,-138.6"/>
<text text-anchor="start" x="53.2" y="-150.8" font-family="Arial" font-size="14.00">og_resource_id </text>
<text text-anchor="start" x="153.6" y="-150.8" font-family="Arial" font-size="14.00" fill="#666666">[text]</text>
<polygon fill="none" stroke="black" points="46.2,-107.8 46.2,-138.6 449.55,-138.6 449.55,-107.8 46.2,-107.8"/>
<text text-anchor="start" x="53.2" y="-120" font-family="Arial" font-size="14.00">og_metadata </text>
<text text-anchor="start" x="138.82" y="-120" font-family="Arial" font-size="14.00" fill="#666666">[text]</text>
<polygon fill="none" stroke="black" points="46.2,-77 46.2,-107.8 449.55,-107.8 449.55,-77 46.2,-77"/>
<text text-anchor="start" x="53.2" y="-89.2" font-family="Arial" font-size="14.00">og_description </text>
<text text-anchor="start" x="148.15" y="-89.2" font-family="Arial" font-size="14.00" fill="#666666">[jsonb]</text>
<polygon fill="none" stroke="black" points="46.2,-46.2 46.2,-77 449.55,-77 449.55,-46.2 46.2,-46.2"/>
<text text-anchor="start" x="53.2" y="-58.4" font-family="Arial" font-size="14.00">_ctx </text>
<text text-anchor="start" x="82.77" y="-58.4" font-family="Arial" font-size="14.00" fill="#666666">[jsonb]</text>
<polygon fill="none" stroke="black" stroke-width="3" points="44.7,-44.7 44.7,-1469.3 451.05,-1469.3 451.05,-44.7 44.7,-44.7"/>
</g>
</g>
</svg>
