<?xml version="1.0" encoding="UTF-8" standalone="no"?>
<!DOCTYPE svg PUBLIC "-//W3C//DTD SVG 1.1//EN"
 "http://www.w3.org/Graphics/SVG/1.1/DTD/svg11.dtd">
<!-- Generated by graphviz version 12.1.2 (20240928.0832)
 -->
<!-- Title: aws.aws_rds_db_cluster Pages: 1 -->
<svg width="441pt" height="2169pt"
 viewBox="0.00 0.00 440.78 2168.80" xmlns="http://www.w3.org/2000/svg" xmlns:xlink="http://www.w3.org/1999/xlink">
<g id="graph0" class="graph" transform="scale(1 1) rotate(0) translate(4 2164.8)">
<title>aws.aws_rds_db_cluster</title>
<polygon fill="white" stroke="none" points="-4,4 -4,-2164.8 436.78,-2164.8 436.78,4 -4,4"/>
<!-- aws.aws_rds_db_cluster -->
<g id="node1" class="node">
<title>aws.aws_rds_db_cluster</title>
<polygon fill="#efefef" stroke="none" points="46.2,-2079 46.2,-2114.6 386.58,-2114.6 386.58,-2079 46.2,-2079"/>
<polygon fill="none" stroke="black" points="46.2,-2079 46.2,-2114.6 386.58,-2114.6 386.58,-2079 46.2,-2079"/>
<text text-anchor="start" x="53.2" y="-2092.4" font-family="Arial Bold" font-size="18.00">aws.aws_rds_db_cluster</text>
<text text-anchor="start" x="228.66" y="-2092.4" font-family="Arial" font-size="14.00">    </text>
<text text-anchor="start" x="259.78" y="-2092.4" font-family="Arial" font-size="14.00" fill="#666666">[FOREIGN TABLE]</text>
<polygon fill="none" stroke="black" points="46.2,-2048.2 46.2,-2079 386.58,-2079 386.58,-2048.2 46.2,-2048.2"/>
<text text-anchor="start" x="53.2" y="-2060.4" font-family="Arial" font-size="14.00">db_cluster_identifier </text>
<text text-anchor="start" x="182.39" y="-2060.4" font-family="Arial" font-size="14.00" fill="#666666">[text]</text>
<polygon fill="none" stroke="black" points="46.2,-2017.4 46.2,-2048.2 386.58,-2048.2 386.58,-2017.4 46.2,-2017.4"/>
<text text-anchor="start" x="53.2" y="-2029.6" font-family="Arial" font-size="14.00">arn </text>
<text text-anchor="start" x="77.32" y="-2029.6" font-family="Arial" font-size="14.00" fill="#666666">[text]</text>
<polygon fill="none" stroke="black" points="46.2,-1986.6 46.2,-2017.4 386.58,-2017.4 386.58,-1986.6 46.2,-1986.6"/>
<text text-anchor="start" x="53.2" y="-1998.8" font-family="Arial" font-size="14.00">status </text>
<text text-anchor="start" x="94.44" y="-1998.8" font-family="Arial" font-size="14.00" fill="#666666">[text]</text>
<polygon fill="none" stroke="black" points="46.2,-1955.8 46.2,-1986.6 386.58,-1986.6 386.58,-1955.8 46.2,-1955.8"/>
<text text-anchor="start" x="53.2" y="-1968" font-family="Arial" font-size="14.00">resource_id </text>
<text text-anchor="start" x="130.24" y="-1968" font-family="Arial" font-size="14.00" fill="#666666">[text]</text>
<polygon fill="none" stroke="black" points="46.2,-1925 46.2,-1955.8 386.58,-1955.8 386.58,-1925 46.2,-1925"/>
<text text-anchor="start" x="53.2" y="-1937.2" font-family="Arial" font-size="14.00">create_time </text>
<text text-anchor="start" x="130.23" y="-1937.2" font-family="Arial" font-size="14.00" fill="#666666">[timestamp with time zone]</text>
<polygon fill="none" stroke="black" points="46.2,-1894.2 46.2,-1925 386.58,-1925 386.58,-1894.2 46.2,-1894.2"/>
<text text-anchor="start" x="53.2" y="-1906.4" font-family="Arial" font-size="14.00">activity_stream_kinesis_stream_name </text>
<text text-anchor="start" x="294.41" y="-1906.4" font-family="Arial" font-size="14.00" fill="#666666">[text]</text>
<polygon fill="none" stroke="black" points="46.2,-1863.4 46.2,-1894.2 386.58,-1894.2 386.58,-1863.4 46.2,-1863.4"/>
<text text-anchor="start" x="53.2" y="-1875.6" font-family="Arial" font-size="14.00">activity_stream_kms_key_id </text>
<text text-anchor="start" x="232.15" y="-1875.6" font-family="Arial" font-size="14.00" fill="#666666">[text]</text>
<polygon fill="none" stroke="black" points="46.2,-1832.6 46.2,-1863.4 386.58,-1863.4 386.58,-1832.6 46.2,-1832.6"/>
<text text-anchor="start" x="53.2" y="-1844.8" font-family="Arial" font-size="14.00">activity_stream_mode </text>
<text text-anchor="start" x="193.25" y="-1844.8" font-family="Arial" font-size="14.00" fill="#666666">[text]</text>
<polygon fill="none" stroke="black" points="46.2,-1801.8 46.2,-1832.6 386.58,-1832.6 386.58,-1801.8 46.2,-1801.8"/>
<text text-anchor="start" x="53.2" y="-1814" font-family="Arial" font-size="14.00">activity_stream_status </text>
<text text-anchor="start" x="195.59" y="-1814" font-family="Arial" font-size="14.00" fill="#666666">[text]</text>
<polygon fill="none" stroke="black" points="46.2,-1771 46.2,-1801.8 386.58,-1801.8 386.58,-1771 46.2,-1771"/>
<text text-anchor="start" x="53.2" y="-1783.2" font-family="Arial" font-size="14.00">allocated_storage </text>
<text text-anchor="start" x="167.61" y="-1783.2" font-family="Arial" font-size="14.00" fill="#666666">[bigint]</text>
<polygon fill="none" stroke="black" points="46.2,-1740.2 46.2,-1771 386.58,-1771 386.58,-1740.2 46.2,-1740.2"/>
<text text-anchor="start" x="53.2" y="-1752.4" font-family="Arial" font-size="14.00">auto_minor_version_upgrade </text>
<text text-anchor="start" x="239.21" y="-1752.4" font-family="Arial" font-size="14.00" fill="#666666">[boolean]</text>
<polygon fill="none" stroke="black" points="46.2,-1709.4 46.2,-1740.2 386.58,-1740.2 386.58,-1709.4 46.2,-1709.4"/>
<text text-anchor="start" x="53.2" y="-1721.6" font-family="Arial" font-size="14.00">backtrack_consumed_change_records </text>
<text text-anchor="start" x="297.56" y="-1721.6" font-family="Arial" font-size="14.00" fill="#666666">[bigint]</text>
<polygon fill="none" stroke="black" points="46.2,-1678.6 46.2,-1709.4 386.58,-1709.4 386.58,-1678.6 46.2,-1678.6"/>
<text text-anchor="start" x="53.2" y="-1690.8" font-family="Arial" font-size="14.00">backtrack_window </text>
<text text-anchor="start" x="171.48" y="-1690.8" font-family="Arial" font-size="14.00" fill="#666666">[bigint]</text>
<polygon fill="none" stroke="black" points="46.2,-1647.8 46.2,-1678.6 386.58,-1678.6 386.58,-1647.8 46.2,-1647.8"/>
<text text-anchor="start" x="53.2" y="-1660" font-family="Arial" font-size="14.00">backup_retention_period </text>
<text text-anchor="start" x="211.21" y="-1660" font-family="Arial" font-size="14.00" fill="#666666">[bigint]</text>
<polygon fill="none" stroke="black" points="46.2,-1617 46.2,-1647.8 386.58,-1647.8 386.58,-1617 46.2,-1617"/>
<text text-anchor="start" x="53.2" y="-1629.2" font-family="Arial" font-size="14.00">capacity </text>
<text text-anchor="start" x="108.45" y="-1629.2" font-family="Arial" font-size="14.00" fill="#666666">[bigint]</text>
<polygon fill="none" stroke="black" points="46.2,-1586.2 46.2,-1617 386.58,-1617 386.58,-1586.2 46.2,-1586.2"/>
<text text-anchor="start" x="53.2" y="-1598.4" font-family="Arial" font-size="14.00">character_set_name </text>
<text text-anchor="start" x="184.72" y="-1598.4" font-family="Arial" font-size="14.00" fill="#666666">[text]</text>
<polygon fill="none" stroke="black" points="46.2,-1555.4 46.2,-1586.2 386.58,-1586.2 386.58,-1555.4 46.2,-1555.4"/>
<text text-anchor="start" x="53.2" y="-1567.6" font-family="Arial" font-size="14.00">clone_group_id </text>
<text text-anchor="start" x="152.83" y="-1567.6" font-family="Arial" font-size="14.00" fill="#666666">[text]</text>
<polygon fill="none" stroke="black" points="46.2,-1524.6 46.2,-1555.4 386.58,-1555.4 386.58,-1524.6 46.2,-1524.6"/>
<text text-anchor="start" x="53.2" y="-1536.8" font-family="Arial" font-size="14.00">copy_tags_to_snapshot </text>
<text text-anchor="start" x="204.98" y="-1536.8" font-family="Arial" font-size="14.00" fill="#666666">[boolean]</text>
<polygon fill="none" stroke="black" points="46.2,-1493.8 46.2,-1524.6 386.58,-1524.6 386.58,-1493.8 46.2,-1493.8"/>
<text text-anchor="start" x="53.2" y="-1506" font-family="Arial" font-size="14.00">cross_account_clone </text>
<text text-anchor="start" x="188.61" y="-1506" font-family="Arial" font-size="14.00" fill="#666666">[boolean]</text>
<polygon fill="none" stroke="black" points="46.2,-1463 46.2,-1493.8 386.58,-1493.8 386.58,-1463 46.2,-1463"/>
<text text-anchor="start" x="53.2" y="-1475.2" font-family="Arial" font-size="14.00">database_name </text>
<text text-anchor="start" x="157.5" y="-1475.2" font-family="Arial" font-size="14.00" fill="#666666">[text]</text>
<polygon fill="none" stroke="black" points="46.2,-1432.2 46.2,-1463 386.58,-1463 386.58,-1432.2 46.2,-1432.2"/>
<text text-anchor="start" x="53.2" y="-1444.4" font-family="Arial" font-size="14.00">db_cluster_parameter_group </text>
<text text-anchor="start" x="236.87" y="-1444.4" font-family="Arial" font-size="14.00" fill="#666666">[text]</text>
<polygon fill="none" stroke="black" points="46.2,-1401.4 46.2,-1432.2 386.58,-1432.2 386.58,-1401.4 46.2,-1401.4"/>
<text text-anchor="start" x="53.2" y="-1413.6" font-family="Arial" font-size="14.00">db_subnet_group </text>
<text text-anchor="start" x="166.07" y="-1413.6" font-family="Arial" font-size="14.00" fill="#666666">[text]</text>
<polygon fill="none" stroke="black" points="46.2,-1370.6 46.2,-1401.4 386.58,-1401.4 386.58,-1370.6 46.2,-1370.6"/>
<text text-anchor="start" x="53.2" y="-1382.8" font-family="Arial" font-size="14.00">deletion_protection </text>
<text text-anchor="start" x="175.4" y="-1382.8" font-family="Arial" font-size="14.00" fill="#666666">[boolean]</text>
<polygon fill="none" stroke="black" points="46.2,-1339.8 46.2,-1370.6 386.58,-1370.6 386.58,-1339.8 46.2,-1339.8"/>
<text text-anchor="start" x="53.2" y="-1352" font-family="Arial" font-size="14.00">earliest_backtrack_time </text>
<text text-anchor="start" x="204.15" y="-1352" font-family="Arial" font-size="14.00" fill="#666666">[timestamp with time zone]</text>
<polygon fill="none" stroke="black" points="46.2,-1309 46.2,-1339.8 386.58,-1339.8 386.58,-1309 46.2,-1309"/>
<text text-anchor="start" x="53.2" y="-1321.2" font-family="Arial" font-size="14.00">earliest_restorable_time </text>
<text text-anchor="start" x="206.5" y="-1321.2" font-family="Arial" font-size="14.00" fill="#666666">[timestamp with time zone]</text>
<polygon fill="none" stroke="black" points="46.2,-1278.2 46.2,-1309 386.58,-1309 386.58,-1278.2 46.2,-1278.2"/>
<text text-anchor="start" x="53.2" y="-1290.4" font-family="Arial" font-size="14.00">endpoint </text>
<text text-anchor="start" x="110.81" y="-1290.4" font-family="Arial" font-size="14.00" fill="#666666">[text]</text>
<polygon fill="none" stroke="black" points="46.2,-1247.4 46.2,-1278.2 386.58,-1278.2 386.58,-1247.4 46.2,-1247.4"/>
<text text-anchor="start" x="53.2" y="-1259.6" font-family="Arial" font-size="14.00">engine </text>
<text text-anchor="start" x="99.13" y="-1259.6" font-family="Arial" font-size="14.00" fill="#666666">[text]</text>
<polygon fill="none" stroke="black" points="46.2,-1216.6 46.2,-1247.4 386.58,-1247.4 386.58,-1216.6 46.2,-1216.6"/>
<text text-anchor="start" x="53.2" y="-1228.8" font-family="Arial" font-size="14.00">engine_mode </text>
<text text-anchor="start" x="141.94" y="-1228.8" font-family="Arial" font-size="14.00" fill="#666666">[text]</text>
<polygon fill="none" stroke="black" points="46.2,-1185.8 46.2,-1216.6 386.58,-1216.6 386.58,-1185.8 46.2,-1185.8"/>
<text text-anchor="start" x="53.2" y="-1198" font-family="Arial" font-size="14.00">engine_version </text>
<text text-anchor="start" x="152.05" y="-1198" font-family="Arial" font-size="14.00" fill="#666666">[text]</text>
<polygon fill="none" stroke="black" points="46.2,-1155 46.2,-1185.8 386.58,-1185.8 386.58,-1155 46.2,-1155"/>
<text text-anchor="start" x="53.2" y="-1167.2" font-family="Arial" font-size="14.00">global_write_forwarding_requested </text>
<text text-anchor="start" x="275.01" y="-1167.2" font-family="Arial" font-size="14.00" fill="#666666">[boolean]</text>
<polygon fill="none" stroke="black" points="46.2,-1124.2 46.2,-1155 386.58,-1155 386.58,-1124.2 46.2,-1124.2"/>
<text text-anchor="start" x="53.2" y="-1136.4" font-family="Arial" font-size="14.00">global_write_forwarding_status </text>
<text text-anchor="start" x="250.09" y="-1136.4" font-family="Arial" font-size="14.00" fill="#666666">[text]</text>
<polygon fill="none" stroke="black" points="46.2,-1093.4 46.2,-1124.2 386.58,-1124.2 386.58,-1093.4 46.2,-1093.4"/>
<text text-anchor="start" x="53.2" y="-1105.6" font-family="Arial" font-size="14.00">hosted_zone_id </text>
<text text-anchor="start" x="155.95" y="-1105.6" font-family="Arial" font-size="14.00" fill="#666666">[text]</text>
<polygon fill="none" stroke="black" points="46.2,-1062.6 46.2,-1093.4 386.58,-1093.4 386.58,-1062.6 46.2,-1062.6"/>
<text text-anchor="start" x="53.2" y="-1074.8" font-family="Arial" font-size="14.00">http_endpoint_enabled </text>
<text text-anchor="start" x="199.56" y="-1074.8" font-family="Arial" font-size="14.00" fill="#666666">[boolean]</text>
<polygon fill="none" stroke="black" points="46.2,-1031.8 46.2,-1062.6 386.58,-1062.6 386.58,-1031.8 46.2,-1031.8"/>
<text text-anchor="start" x="53.2" y="-1044" font-family="Arial" font-size="14.00">iam_database_authentication_enabled </text>
<text text-anchor="start" x="297.62" y="-1044" font-family="Arial" font-size="14.00" fill="#666666">[boolean]</text>
<polygon fill="none" stroke="black" points="46.2,-1001 46.2,-1031.8 386.58,-1031.8 386.58,-1001 46.2,-1001"/>
<text text-anchor="start" x="53.2" y="-1013.2" font-family="Arial" font-size="14.00">kms_key_id </text>
<text text-anchor="start" x="131.01" y="-1013.2" font-family="Arial" font-size="14.00" fill="#666666">[text]</text>
<polygon fill="none" stroke="black" points="46.2,-970.2 46.2,-1001 386.58,-1001 386.58,-970.2 46.2,-970.2"/>
<text text-anchor="start" x="53.2" y="-982.4" font-family="Arial" font-size="14.00">latest_restorable_time </text>
<text text-anchor="start" x="194.83" y="-982.4" font-family="Arial" font-size="14.00" fill="#666666">[timestamp with time zone]</text>
<polygon fill="none" stroke="black" points="46.2,-939.4 46.2,-970.2 386.58,-970.2 386.58,-939.4 46.2,-939.4"/>
<text text-anchor="start" x="53.2" y="-951.6" font-family="Arial" font-size="14.00">master_user_name </text>
<text text-anchor="start" x="177.7" y="-951.6" font-family="Arial" font-size="14.00" fill="#666666">[text]</text>
<polygon fill="none" stroke="black" points="46.2,-908.6 46.2,-939.4 386.58,-939.4 386.58,-908.6 46.2,-908.6"/>
<text text-anchor="start" x="53.2" y="-920.8" font-family="Arial" font-size="14.00">multi_az </text>
<text text-anchor="start" x="109.22" y="-920.8" font-family="Arial" font-size="14.00" fill="#666666">[boolean]</text>
<polygon fill="none" stroke="black" points="46.2,-877.8 46.2,-908.6 386.58,-908.6 386.58,-877.8 46.2,-877.8"/>
<text text-anchor="start" x="53.2" y="-890" font-family="Arial" font-size="14.00">percent_progress </text>
<text text-anchor="start" x="166.04" y="-890" font-family="Arial" font-size="14.00" fill="#666666">[text]</text>
<polygon fill="none" stroke="black" points="46.2,-847 46.2,-877.8 386.58,-877.8 386.58,-847 46.2,-847"/>
<text text-anchor="start" x="53.2" y="-859.2" font-family="Arial" font-size="14.00">port </text>
<text text-anchor="start" x="81.21" y="-859.2" font-family="Arial" font-size="14.00" fill="#666666">[bigint]</text>
<polygon fill="none" stroke="black" points="46.2,-816.2 46.2,-847 386.58,-847 386.58,-816.2 46.2,-816.2"/>
<text text-anchor="start" x="53.2" y="-828.4" font-family="Arial" font-size="14.00">preferred_backup_window </text>
<text text-anchor="start" x="221.3" y="-828.4" font-family="Arial" font-size="14.00" fill="#666666">[text]</text>
<polygon fill="none" stroke="black" points="46.2,-785.4 46.2,-816.2 386.58,-816.2 386.58,-785.4 46.2,-785.4"/>
<text text-anchor="start" x="53.2" y="-797.6" font-family="Arial" font-size="14.00">preferred_maintenance_window </text>
<text text-anchor="start" x="256.32" y="-797.6" font-family="Arial" font-size="14.00" fill="#666666">[text]</text>
<polygon fill="none" stroke="black" points="46.2,-754.6 46.2,-785.4 386.58,-785.4 386.58,-754.6 46.2,-754.6"/>
<text text-anchor="start" x="53.2" y="-766.8" font-family="Arial" font-size="14.00">reader_endpoint </text>
<text text-anchor="start" x="159.06" y="-766.8" font-family="Arial" font-size="14.00" fill="#666666">[text]</text>
<polygon fill="none" stroke="black" points="46.2,-723.8 46.2,-754.6 386.58,-754.6 386.58,-723.8 46.2,-723.8"/>
<text text-anchor="start" x="53.2" y="-736" font-family="Arial" font-size="14.00">storage_encrypted </text>
<text text-anchor="start" x="173.05" y="-736" font-family="Arial" font-size="14.00" fill="#666666">[boolean]</text>
<polygon fill="none" stroke="black" points="46.2,-693 46.2,-723.8 386.58,-723.8 386.58,-693 46.2,-693"/>
<text text-anchor="start" x="53.2" y="-705.2" font-family="Arial" font-size="14.00">associated_roles </text>
<text text-anchor="start" x="162.15" y="-705.2" font-family="Arial" font-size="14.00" fill="#666666">[jsonb]</text>
<polygon fill="none" stroke="black" points="46.2,-662.2 46.2,-693 386.58,-693 386.58,-662.2 46.2,-662.2"/>
<text text-anchor="start" x="53.2" y="-674.4" font-family="Arial" font-size="14.00">availability_zones </text>
<text text-anchor="start" x="166.82" y="-674.4" font-family="Arial" font-size="14.00" fill="#666666">[jsonb]</text>
<polygon fill="none" stroke="black" points="46.2,-631.4 46.2,-662.2 386.58,-662.2 386.58,-631.4 46.2,-631.4"/>
<text text-anchor="start" x="53.2" y="-643.6" font-family="Arial" font-size="14.00">custom_endpoints </text>
<text text-anchor="start" x="170.72" y="-643.6" font-family="Arial" font-size="14.00" fill="#666666">[jsonb]</text>
<polygon fill="none" stroke="black" points="46.2,-600.6 46.2,-631.4 386.58,-631.4 386.58,-600.6 46.2,-600.6"/>
<text text-anchor="start" x="53.2" y="-612.8" font-family="Arial" font-size="14.00">members </text>
<text text-anchor="start" x="115.43" y="-612.8" font-family="Arial" font-size="14.00" fill="#666666">[jsonb]</text>
<polygon fill="none" stroke="black" points="46.2,-569.8 46.2,-600.6 386.58,-600.6 386.58,-569.8 46.2,-569.8"/>
<text text-anchor="start" x="53.2" y="-582" font-family="Arial" font-size="14.00">option_group_memberships </text>
<text text-anchor="start" x="230.64" y="-582" font-family="Arial" font-size="14.00" fill="#666666">[jsonb]</text>
<polygon fill="none" stroke="black" points="46.2,-539 46.2,-569.8 386.58,-569.8 386.58,-539 46.2,-539"/>
<text text-anchor="start" x="53.2" y="-551.2" font-family="Arial" font-size="14.00">domain_memberships </text>
<text text-anchor="start" x="194.82" y="-551.2" font-family="Arial" font-size="14.00" fill="#666666">[jsonb]</text>
<polygon fill="none" stroke="black" points="46.2,-508.2 46.2,-539 386.58,-539 386.58,-508.2 46.2,-508.2"/>
<text text-anchor="start" x="53.2" y="-520.4" font-family="Arial" font-size="14.00">enabled_cloudwatch_logs_exports </text>
<text text-anchor="start" x="271.91" y="-520.4" font-family="Arial" font-size="14.00" fill="#666666">[jsonb]</text>
<polygon fill="none" stroke="black" points="46.2,-477.4 46.2,-508.2 386.58,-508.2 386.58,-477.4 46.2,-477.4"/>
<text text-anchor="start" x="53.2" y="-489.6" font-family="Arial" font-size="14.00">pending_maintenance_actions </text>
<text text-anchor="start" x="247.01" y="-489.6" font-family="Arial" font-size="14.00" fill="#666666">[jsonb]</text>
<polygon fill="none" stroke="black" points="46.2,-446.6 46.2,-477.4 386.58,-477.4 386.58,-446.6 46.2,-446.6"/>
<text text-anchor="start" x="53.2" y="-458.8" font-family="Arial" font-size="14.00">read_replica_identifiers </text>
<text text-anchor="start" x="201.84" y="-458.8" font-family="Arial" font-size="14.00" fill="#666666">[jsonb]</text>
<polygon fill="none" stroke="black" points="46.2,-415.8 46.2,-446.6 386.58,-446.6 386.58,-415.8 46.2,-415.8"/>
<text text-anchor="start" x="53.2" y="-428" font-family="Arial" font-size="14.00">vpc_security_groups </text>
<text text-anchor="start" x="185.49" y="-428" font-family="Arial" font-size="14.00" fill="#666666">[jsonb]</text>
<polygon fill="none" stroke="black" points="46.2,-385 46.2,-415.8 386.58,-415.8 386.58,-385 46.2,-385"/>
<text text-anchor="start" x="53.2" y="-397.2" font-family="Arial" font-size="14.00">tags_src </text>
<text text-anchor="start" x="110" y="-397.2" font-family="Arial" font-size="14.00" fill="#666666">[jsonb]</text>
<polygon fill="none" stroke="black" points="46.2,-354.2 46.2,-385 386.58,-385 386.58,-354.2 46.2,-354.2"/>
<text text-anchor="start" x="53.2" y="-366.4" font-family="Arial" font-size="14.00">tags </text>
<text text-anchor="start" x="83.55" y="-366.4" font-family="Arial" font-size="14.00" fill="#666666">[jsonb]</text>
<polygon fill="none" stroke="black" points="46.2,-323.4 46.2,-354.2 386.58,-354.2 386.58,-323.4 46.2,-323.4"/>
<text text-anchor="start" x="53.2" y="-335.6" font-family="Arial" font-size="14.00">title </text>
<text text-anchor="start" x="78.88" y="-335.6" font-family="Arial" font-size="14.00" fill="#666666">[text]</text>
<polygon fill="none" stroke="black" points="46.2,-292.6 46.2,-323.4 386.58,-323.4 386.58,-292.6 46.2,-292.6"/>
<text text-anchor="start" x="53.2" y="-304.8" font-family="Arial" font-size="14.00">akas </text>
<text text-anchor="start" x="86.66" y="-304.8" font-family="Arial" font-size="14.00" fill="#666666">[jsonb]</text>
<polygon fill="none" stroke="black" points="46.2,-261.8 46.2,-292.6 386.58,-292.6 386.58,-261.8 46.2,-261.8"/>
<text text-anchor="start" x="53.2" y="-274" font-family="Arial" font-size="14.00">partition </text>
<text text-anchor="start" x="106.9" y="-274" font-family="Arial" font-size="14.00" fill="#666666">[text]</text>
<polygon fill="none" stroke="black" points="46.2,-231 46.2,-261.8 386.58,-261.8 386.58,-231 46.2,-231"/>
<text text-anchor="start" x="53.2" y="-243.2" font-family="Arial" font-size="14.00">region </text>
<text text-anchor="start" x="96.01" y="-243.2" font-family="Arial" font-size="14.00" fill="#666666">[text]</text>
<polygon fill="none" stroke="black" points="46.2,-200.2 46.2,-231 386.58,-231 386.58,-200.2 46.2,-200.2"/>
<text text-anchor="start" x="53.2" y="-212.4" font-family="Arial" font-size="14.00">account_id </text>
<text text-anchor="start" x="124.81" y="-212.4" font-family="Arial" font-size="14.00" fill="#666666">[text]</text>
<polygon fill="none" stroke="black" points="46.2,-169.4 46.2,-200.2 386.58,-200.2 386.58,-169.4 46.2,-169.4"/>
<text text-anchor="start" x="53.2" y="-181.6" font-family="Arial" font-size="14.00">og_account_id </text>
<text text-anchor="start" x="148.16" y="-181.6" font-family="Arial" font-size="14.00" fill="#666666">[text]</text>
<polygon fill="none" stroke="black" points="46.2,-138.6 46.2,-169.4 386.58,-169.4 386.58,-138.6 46.2,-138.6"/>
<text text-anchor="start" x="53.2" y="-150.8" font-family="Arial" font-size="14.00">og_resource_id </text>
<text text-anchor="start" x="153.6" y="-150.8" font-family="Arial" font-size="14.00" fill="#666666">[text]</text>
<polygon fill="none" stroke="black" points="46.2,-107.8 46.2,-138.6 386.58,-138.6 386.58,-107.8 46.2,-107.8"/>
<text text-anchor="start" x="53.2" y="-120" font-family="Arial" font-size="14.00">og_metadata </text>
<text text-anchor="start" x="138.82" y="-120" font-family="Arial" font-size="14.00" fill="#666666">[text]</text>
<polygon fill="none" stroke="black" points="46.2,-77 46.2,-107.8 386.58,-107.8 386.58,-77 46.2,-77"/>
<text text-anchor="start" x="53.2" y="-89.2" font-family="Arial" font-size="14.00">og_description </text>
<text text-anchor="start" x="148.15" y="-89.2" font-family="Arial" font-size="14.00" fill="#666666">[jsonb]</text>
<polygon fill="none" stroke="black" points="46.2,-46.2 46.2,-77 386.58,-77 386.58,-46.2 46.2,-46.2"/>
<text text-anchor="start" x="53.2" y="-58.4" font-family="Arial" font-size="14.00">_ctx </text>
<text text-anchor="start" x="82.77" y="-58.4" font-family="Arial" font-size="14.00" fill="#666666">[jsonb]</text>
<polygon fill="none" stroke="black" stroke-width="3" points="44.7,-44.7 44.7,-2116.1 388.08,-2116.1 388.08,-44.7 44.7,-44.7"/>
</g>
</g>
</svg>
