<?xml version="1.0" encoding="UTF-8" standalone="no"?>
<!DOCTYPE svg PUBLIC "-//W3C//DTD SVG 1.1//EN"
 "http://www.w3.org/Graphics/SVG/1.1/DTD/svg11.dtd">
<!-- Generated by graphviz version 12.1.2 (20240928.0832)
 -->
<!-- Title: aws.aws_amplify_app Pages: 1 -->
<svg width="426pt" height="1183pt"
 viewBox="0.00 0.00 425.78 1183.20" xmlns="http://www.w3.org/2000/svg" xmlns:xlink="http://www.w3.org/1999/xlink">
<g id="graph0" class="graph" transform="scale(1 1) rotate(0) translate(4 1179.2)">
<title>aws.aws_amplify_app</title>
<polygon fill="white" stroke="none" points="-4,4 -4,-1179.2 421.78,-1179.2 421.78,4 -4,4"/>
<!-- aws.aws_amplify_app -->
<g id="node1" class="node">
<title>aws.aws_amplify_app</title>
<polygon fill="#efefef" stroke="none" points="46.2,-1093.4 46.2,-1129 371.58,-1129 371.58,-1093.4 46.2,-1093.4"/>
<polygon fill="none" stroke="black" points="46.2,-1093.4 46.2,-1129 371.58,-1129 371.58,-1093.4 46.2,-1093.4"/>
<text text-anchor="start" x="53.2" y="-1106.8" font-family="Arial Bold" font-size="18.00">aws.aws_amplify_app</text>
<text text-anchor="start" x="213.66" y="-1106.8" font-family="Arial" font-size="14.00">    </text>
<text text-anchor="start" x="244.78" y="-1106.8" font-family="Arial" font-size="14.00" fill="#666666">[FOREIGN TABLE]</text>
<polygon fill="none" stroke="black" points="46.2,-1062.6 46.2,-1093.4 371.58,-1093.4 371.58,-1062.6 46.2,-1062.6"/>
<text text-anchor="start" x="53.2" y="-1074.8" font-family="Arial" font-size="14.00">app_id </text>
<text text-anchor="start" x="99.13" y="-1074.8" font-family="Arial" font-size="14.00" fill="#666666">[text]</text>
<polygon fill="none" stroke="black" points="46.2,-1031.8 46.2,-1062.6 371.58,-1062.6 371.58,-1031.8 46.2,-1031.8"/>
<text text-anchor="start" x="53.2" y="-1044" font-family="Arial" font-size="14.00">arn </text>
<text text-anchor="start" x="77.32" y="-1044" font-family="Arial" font-size="14.00" fill="#666666">[text]</text>
<polygon fill="none" stroke="black" points="46.2,-1001 46.2,-1031.8 371.58,-1031.8 371.58,-1001 46.2,-1001"/>
<text text-anchor="start" x="53.2" y="-1013.2" font-family="Arial" font-size="14.00">name </text>
<text text-anchor="start" x="92.11" y="-1013.2" font-family="Arial" font-size="14.00" fill="#666666">[text]</text>
<polygon fill="none" stroke="black" points="46.2,-970.2 46.2,-1001 371.58,-1001 371.58,-970.2 46.2,-970.2"/>
<text text-anchor="start" x="53.2" y="-982.4" font-family="Arial" font-size="14.00">description </text>
<text text-anchor="start" x="124.79" y="-982.4" font-family="Arial" font-size="14.00" fill="#666666">[text]</text>
<polygon fill="none" stroke="black" points="46.2,-939.4 46.2,-970.2 371.58,-970.2 371.58,-939.4 46.2,-939.4"/>
<text text-anchor="start" x="53.2" y="-951.6" font-family="Arial" font-size="14.00">create_time </text>
<text text-anchor="start" x="130.23" y="-951.6" font-family="Arial" font-size="14.00" fill="#666666">[timestamp with time zone]</text>
<polygon fill="none" stroke="black" points="46.2,-908.6 46.2,-939.4 371.58,-939.4 371.58,-908.6 46.2,-908.6"/>
<text text-anchor="start" x="53.2" y="-920.8" font-family="Arial" font-size="14.00">update_time </text>
<text text-anchor="start" x="134.14" y="-920.8" font-family="Arial" font-size="14.00" fill="#666666">[timestamp with time zone]</text>
<polygon fill="none" stroke="black" points="46.2,-877.8 46.2,-908.6 371.58,-908.6 371.58,-877.8 46.2,-877.8"/>
<text text-anchor="start" x="53.2" y="-890" font-family="Arial" font-size="14.00">basic_auth_credentials </text>
<text text-anchor="start" x="200.3" y="-890" font-family="Arial" font-size="14.00" fill="#666666">[text]</text>
<polygon fill="none" stroke="black" points="46.2,-847 46.2,-877.8 371.58,-877.8 371.58,-847 46.2,-847"/>
<text text-anchor="start" x="53.2" y="-859.2" font-family="Arial" font-size="14.00">custom_headers </text>
<text text-anchor="start" x="160.59" y="-859.2" font-family="Arial" font-size="14.00" fill="#666666">[text]</text>
<polygon fill="none" stroke="black" points="46.2,-816.2 46.2,-847 371.58,-847 371.58,-816.2 46.2,-816.2"/>
<text text-anchor="start" x="53.2" y="-828.4" font-family="Arial" font-size="14.00">default_domain </text>
<text text-anchor="start" x="152.83" y="-828.4" font-family="Arial" font-size="14.00" fill="#666666">[text]</text>
<polygon fill="none" stroke="black" points="46.2,-785.4 46.2,-816.2 371.58,-816.2 371.58,-785.4 46.2,-785.4"/>
<text text-anchor="start" x="53.2" y="-797.6" font-family="Arial" font-size="14.00">enable_auto_branch_creation </text>
<text text-anchor="start" x="242.35" y="-797.6" font-family="Arial" font-size="14.00" fill="#666666">[boolean]</text>
<polygon fill="none" stroke="black" points="46.2,-754.6 46.2,-785.4 371.58,-785.4 371.58,-754.6 46.2,-754.6"/>
<text text-anchor="start" x="53.2" y="-766.8" font-family="Arial" font-size="14.00">enable_basic_auth </text>
<text text-anchor="start" x="174.63" y="-766.8" font-family="Arial" font-size="14.00" fill="#666666">[boolean]</text>
<polygon fill="none" stroke="black" points="46.2,-723.8 46.2,-754.6 371.58,-754.6 371.58,-723.8 46.2,-723.8"/>
<text text-anchor="start" x="53.2" y="-736" font-family="Arial" font-size="14.00">enable_branch_auto_build </text>
<text text-anchor="start" x="222.12" y="-736" font-family="Arial" font-size="14.00" fill="#666666">[boolean]</text>
<polygon fill="none" stroke="black" points="46.2,-693 46.2,-723.8 371.58,-723.8 371.58,-693 46.2,-693"/>
<text text-anchor="start" x="53.2" y="-705.2" font-family="Arial" font-size="14.00">enable_branch_auto_deletion </text>
<text text-anchor="start" x="241.58" y="-705.2" font-family="Arial" font-size="14.00" fill="#666666">[boolean]</text>
<polygon fill="none" stroke="black" points="46.2,-662.2 46.2,-693 371.58,-693 371.58,-662.2 46.2,-662.2"/>
<text text-anchor="start" x="53.2" y="-674.4" font-family="Arial" font-size="14.00">iam_service_role_arn </text>
<text text-anchor="start" x="190.93" y="-674.4" font-family="Arial" font-size="14.00" fill="#666666">[text]</text>
<polygon fill="none" stroke="black" points="46.2,-631.4 46.2,-662.2 371.58,-662.2 371.58,-631.4 46.2,-631.4"/>
<text text-anchor="start" x="53.2" y="-643.6" font-family="Arial" font-size="14.00">platform </text>
<text text-anchor="start" x="107.66" y="-643.6" font-family="Arial" font-size="14.00" fill="#666666">[text]</text>
<polygon fill="none" stroke="black" points="46.2,-600.6 46.2,-631.4 371.58,-631.4 371.58,-600.6 46.2,-600.6"/>
<text text-anchor="start" x="53.2" y="-612.8" font-family="Arial" font-size="14.00">repository </text>
<text text-anchor="start" x="118.56" y="-612.8" font-family="Arial" font-size="14.00" fill="#666666">[text]</text>
<polygon fill="none" stroke="black" points="46.2,-569.8 46.2,-600.6 371.58,-600.6 371.58,-569.8 46.2,-569.8"/>
<text text-anchor="start" x="53.2" y="-582" font-family="Arial" font-size="14.00">repository_clone_method </text>
<text text-anchor="start" x="214.3" y="-582" font-family="Arial" font-size="14.00" fill="#666666">[text]</text>
<polygon fill="none" stroke="black" points="46.2,-539 46.2,-569.8 371.58,-569.8 371.58,-539 46.2,-539"/>
<text text-anchor="start" x="53.2" y="-551.2" font-family="Arial" font-size="14.00">auto_branch_creation_config </text>
<text text-anchor="start" x="237.67" y="-551.2" font-family="Arial" font-size="14.00" fill="#666666">[jsonb]</text>
<polygon fill="none" stroke="black" points="46.2,-508.2 46.2,-539 371.58,-539 371.58,-508.2 46.2,-508.2"/>
<text text-anchor="start" x="53.2" y="-520.4" font-family="Arial" font-size="14.00">auto_branch_creation_patterns </text>
<text text-anchor="start" x="250.9" y="-520.4" font-family="Arial" font-size="14.00" fill="#666666">[jsonb]</text>
<polygon fill="none" stroke="black" points="46.2,-477.4 46.2,-508.2 371.58,-508.2 371.58,-477.4 46.2,-477.4"/>
<text text-anchor="start" x="53.2" y="-489.6" font-family="Arial" font-size="14.00">build_spec </text>
<text text-anchor="start" x="124.03" y="-489.6" font-family="Arial" font-size="14.00" fill="#666666">[jsonb]</text>
<polygon fill="none" stroke="black" points="46.2,-446.6 46.2,-477.4 371.58,-477.4 371.58,-446.6 46.2,-446.6"/>
<text text-anchor="start" x="53.2" y="-458.8" font-family="Arial" font-size="14.00">custom_rules </text>
<text text-anchor="start" x="140.34" y="-458.8" font-family="Arial" font-size="14.00" fill="#666666">[jsonb]</text>
<polygon fill="none" stroke="black" points="46.2,-415.8 46.2,-446.6 371.58,-446.6 371.58,-415.8 46.2,-415.8"/>
<text text-anchor="start" x="53.2" y="-428" font-family="Arial" font-size="14.00">environment_variables </text>
<text text-anchor="start" x="197.94" y="-428" font-family="Arial" font-size="14.00" fill="#666666">[jsonb]</text>
<polygon fill="none" stroke="black" points="46.2,-385 46.2,-415.8 371.58,-415.8 371.58,-385 46.2,-385"/>
<text text-anchor="start" x="53.2" y="-397.2" font-family="Arial" font-size="14.00">production_branch </text>
<text text-anchor="start" x="173.06" y="-397.2" font-family="Arial" font-size="14.00" fill="#666666">[jsonb]</text>
<polygon fill="none" stroke="black" points="46.2,-354.2 46.2,-385 371.58,-385 371.58,-354.2 46.2,-354.2"/>
<text text-anchor="start" x="53.2" y="-366.4" font-family="Arial" font-size="14.00">title </text>
<text text-anchor="start" x="78.88" y="-366.4" font-family="Arial" font-size="14.00" fill="#666666">[text]</text>
<polygon fill="none" stroke="black" points="46.2,-323.4 46.2,-354.2 371.58,-354.2 371.58,-323.4 46.2,-323.4"/>
<text text-anchor="start" x="53.2" y="-335.6" font-family="Arial" font-size="14.00">tags </text>
<text text-anchor="start" x="83.55" y="-335.6" font-family="Arial" font-size="14.00" fill="#666666">[jsonb]</text>
<polygon fill="none" stroke="black" points="46.2,-292.6 46.2,-323.4 371.58,-323.4 371.58,-292.6 46.2,-292.6"/>
<text text-anchor="start" x="53.2" y="-304.8" font-family="Arial" font-size="14.00">akas </text>
<text text-anchor="start" x="86.66" y="-304.8" font-family="Arial" font-size="14.00" fill="#666666">[jsonb]</text>
<polygon fill="none" stroke="black" points="46.2,-261.8 46.2,-292.6 371.58,-292.6 371.58,-261.8 46.2,-261.8"/>
<text text-anchor="start" x="53.2" y="-274" font-family="Arial" font-size="14.00">partition </text>
<text text-anchor="start" x="106.9" y="-274" font-family="Arial" font-size="14.00" fill="#666666">[text]</text>
<polygon fill="none" stroke="black" points="46.2,-231 46.2,-261.8 371.58,-261.8 371.58,-231 46.2,-231"/>
<text text-anchor="start" x="53.2" y="-243.2" font-family="Arial" font-size="14.00">region </text>
<text text-anchor="start" x="96.01" y="-243.2" font-family="Arial" font-size="14.00" fill="#666666">[text]</text>
<polygon fill="none" stroke="black" points="46.2,-200.2 46.2,-231 371.58,-231 371.58,-200.2 46.2,-200.2"/>
<text text-anchor="start" x="53.2" y="-212.4" font-family="Arial" font-size="14.00">account_id </text>
<text text-anchor="start" x="124.81" y="-212.4" font-family="Arial" font-size="14.00" fill="#666666">[text]</text>
<polygon fill="none" stroke="black" points="46.2,-169.4 46.2,-200.2 371.58,-200.2 371.58,-169.4 46.2,-169.4"/>
<text text-anchor="start" x="53.2" y="-181.6" font-family="Arial" font-size="14.00">og_account_id </text>
<text text-anchor="start" x="148.16" y="-181.6" font-family="Arial" font-size="14.00" fill="#666666">[text]</text>
<polygon fill="none" stroke="black" points="46.2,-138.6 46.2,-169.4 371.58,-169.4 371.58,-138.6 46.2,-138.6"/>
<text text-anchor="start" x="53.2" y="-150.8" font-family="Arial" font-size="14.00">og_resource_id </text>
<text text-anchor="start" x="153.6" y="-150.8" font-family="Arial" font-size="14.00" fill="#666666">[text]</text>
<polygon fill="none" stroke="black" points="46.2,-107.8 46.2,-138.6 371.58,-138.6 371.58,-107.8 46.2,-107.8"/>
<text text-anchor="start" x="53.2" y="-120" font-family="Arial" font-size="14.00">og_metadata </text>
<text text-anchor="start" x="138.82" y="-120" font-family="Arial" font-size="14.00" fill="#666666">[text]</text>
<polygon fill="none" stroke="black" points="46.2,-77 46.2,-107.8 371.58,-107.8 371.58,-77 46.2,-77"/>
<text text-anchor="start" x="53.2" y="-89.2" font-family="Arial" font-size="14.00">og_description </text>
<text text-anchor="start" x="148.15" y="-89.2" font-family="Arial" font-size="14.00" fill="#666666">[jsonb]</text>
<polygon fill="none" stroke="black" points="46.2,-46.2 46.2,-77 371.58,-77 371.58,-46.2 46.2,-46.2"/>
<text text-anchor="start" x="53.2" y="-58.4" font-family="Arial" font-size="14.00">_ctx </text>
<text text-anchor="start" x="82.77" y="-58.4" font-family="Arial" font-size="14.00" fill="#666666">[jsonb]</text>
<polygon fill="none" stroke="black" stroke-width="3" points="44.7,-44.7 44.7,-1130.5 373.08,-1130.5 373.08,-44.7 44.7,-44.7"/>
</g>
</g>
</svg>
