<?xml version="1.0" encoding="UTF-8" standalone="no"?>
<!DOCTYPE svg PUBLIC "-//W3C//DTD SVG 1.1//EN"
 "http://www.w3.org/Graphics/SVG/1.1/DTD/svg11.dtd">
<!-- Generated by graphviz version 12.1.2 (20240928.0832)
 -->
<!-- Title: aws.aws_kms_alias Pages: 1 -->
<svg width="407pt" height="598pt"
 viewBox="0.00 0.00 406.79 598.00" xmlns="http://www.w3.org/2000/svg" xmlns:xlink="http://www.w3.org/1999/xlink">
<g id="graph0" class="graph" transform="scale(1 1) rotate(0) translate(4 594)">
<title>aws.aws_kms_alias</title>
<polygon fill="white" stroke="none" points="-4,4 -4,-594 402.79,-594 402.79,4 -4,4"/>
<!-- aws.aws_kms_alias -->
<g id="node1" class="node">
<title>aws.aws_kms_alias</title>
<polygon fill="#efefef" stroke="none" points="46.2,-508.2 46.2,-543.8 352.59,-543.8 352.59,-508.2 46.2,-508.2"/>
<polygon fill="none" stroke="black" points="46.2,-508.2 46.2,-543.8 352.59,-543.8 352.59,-508.2 46.2,-508.2"/>
<text text-anchor="start" x="53.2" y="-521.6" font-family="Arial Bold" font-size="18.00">aws.aws_kms_alias</text>
<text text-anchor="start" x="194.68" y="-521.6" font-family="Arial" font-size="14.00">    </text>
<text text-anchor="start" x="225.79" y="-521.6" font-family="Arial" font-size="14.00" fill="#666666">[FOREIGN TABLE]</text>
<polygon fill="none" stroke="black" points="46.2,-477.4 46.2,-508.2 352.59,-508.2 352.59,-477.4 46.2,-477.4"/>
<text text-anchor="start" x="53.2" y="-489.6" font-family="Arial" font-size="14.00">alias_name </text>
<text text-anchor="start" x="128.69" y="-489.6" font-family="Arial" font-size="14.00" fill="#666666">[text]</text>
<polygon fill="none" stroke="black" points="46.2,-446.6 46.2,-477.4 352.59,-477.4 352.59,-446.6 46.2,-446.6"/>
<text text-anchor="start" x="53.2" y="-458.8" font-family="Arial" font-size="14.00">arn </text>
<text text-anchor="start" x="77.32" y="-458.8" font-family="Arial" font-size="14.00" fill="#666666">[text]</text>
<polygon fill="none" stroke="black" points="46.2,-415.8 46.2,-446.6 352.59,-446.6 352.59,-415.8 46.2,-415.8"/>
<text text-anchor="start" x="53.2" y="-428" font-family="Arial" font-size="14.00">target_key_id </text>
<text text-anchor="start" x="141.14" y="-428" font-family="Arial" font-size="14.00" fill="#666666">[text]</text>
<polygon fill="none" stroke="black" points="46.2,-385 46.2,-415.8 352.59,-415.8 352.59,-385 46.2,-385"/>
<text text-anchor="start" x="53.2" y="-397.2" font-family="Arial" font-size="14.00">creation_date </text>
<text text-anchor="start" x="141.93" y="-397.2" font-family="Arial" font-size="14.00" fill="#666666">[timestamp with time zone]</text>
<polygon fill="none" stroke="black" points="46.2,-354.2 46.2,-385 352.59,-385 352.59,-354.2 46.2,-354.2"/>
<text text-anchor="start" x="53.2" y="-366.4" font-family="Arial" font-size="14.00">last_updated_date </text>
<text text-anchor="start" x="172.3" y="-366.4" font-family="Arial" font-size="14.00" fill="#666666">[timestamp with time zone]</text>
<polygon fill="none" stroke="black" points="46.2,-323.4 46.2,-354.2 352.59,-354.2 352.59,-323.4 46.2,-323.4"/>
<text text-anchor="start" x="53.2" y="-335.6" font-family="Arial" font-size="14.00">title </text>
<text text-anchor="start" x="78.88" y="-335.6" font-family="Arial" font-size="14.00" fill="#666666">[text]</text>
<polygon fill="none" stroke="black" points="46.2,-292.6 46.2,-323.4 352.59,-323.4 352.59,-292.6 46.2,-292.6"/>
<text text-anchor="start" x="53.2" y="-304.8" font-family="Arial" font-size="14.00">akas </text>
<text text-anchor="start" x="86.66" y="-304.8" font-family="Arial" font-size="14.00" fill="#666666">[jsonb]</text>
<polygon fill="none" stroke="black" points="46.2,-261.8 46.2,-292.6 352.59,-292.6 352.59,-261.8 46.2,-261.8"/>
<text text-anchor="start" x="53.2" y="-274" font-family="Arial" font-size="14.00">partition </text>
<text text-anchor="start" x="106.9" y="-274" font-family="Arial" font-size="14.00" fill="#666666">[text]</text>
<polygon fill="none" stroke="black" points="46.2,-231 46.2,-261.8 352.59,-261.8 352.59,-231 46.2,-231"/>
<text text-anchor="start" x="53.2" y="-243.2" font-family="Arial" font-size="14.00">region </text>
<text text-anchor="start" x="96.01" y="-243.2" font-family="Arial" font-size="14.00" fill="#666666">[text]</text>
<polygon fill="none" stroke="black" points="46.2,-200.2 46.2,-231 352.59,-231 352.59,-200.2 46.2,-200.2"/>
<text text-anchor="start" x="53.2" y="-212.4" font-family="Arial" font-size="14.00">account_id </text>
<text text-anchor="start" x="124.81" y="-212.4" font-family="Arial" font-size="14.00" fill="#666666">[text]</text>
<polygon fill="none" stroke="black" points="46.2,-169.4 46.2,-200.2 352.59,-200.2 352.59,-169.4 46.2,-169.4"/>
<text text-anchor="start" x="53.2" y="-181.6" font-family="Arial" font-size="14.00">og_account_id </text>
<text text-anchor="start" x="148.16" y="-181.6" font-family="Arial" font-size="14.00" fill="#666666">[text]</text>
<polygon fill="none" stroke="black" points="46.2,-138.6 46.2,-169.4 352.59,-169.4 352.59,-138.6 46.2,-138.6"/>
<text text-anchor="start" x="53.2" y="-150.8" font-family="Arial" font-size="14.00">og_resource_id </text>
<text text-anchor="start" x="153.6" y="-150.8" font-family="Arial" font-size="14.00" fill="#666666">[text]</text>
<polygon fill="none" stroke="black" points="46.2,-107.8 46.2,-138.6 352.59,-138.6 352.59,-107.8 46.2,-107.8"/>
<text text-anchor="start" x="53.2" y="-120" font-family="Arial" font-size="14.00">og_metadata </text>
<text text-anchor="start" x="138.82" y="-120" font-family="Arial" font-size="14.00" fill="#666666">[text]</text>
<polygon fill="none" stroke="black" points="46.2,-77 46.2,-107.8 352.59,-107.8 352.59,-77 46.2,-77"/>
<text text-anchor="start" x="53.2" y="-89.2" font-family="Arial" font-size="14.00">og_description </text>
<text text-anchor="start" x="148.15" y="-89.2" font-family="Arial" font-size="14.00" fill="#666666">[jsonb]</text>
<polygon fill="none" stroke="black" points="46.2,-46.2 46.2,-77 352.59,-77 352.59,-46.2 46.2,-46.2"/>
<text text-anchor="start" x="53.2" y="-58.4" font-family="Arial" font-size="14.00">_ctx </text>
<text text-anchor="start" x="82.77" y="-58.4" font-family="Arial" font-size="14.00" fill="#666666">[jsonb]</text>
<polygon fill="none" stroke="black" stroke-width="3" points="44.7,-44.7 44.7,-545.3 354.09,-545.3 354.09,-44.7 44.7,-44.7"/>
</g>
</g>
</svg>
