<?xml version="1.0" encoding="UTF-8" standalone="no"?>
<!DOCTYPE svg PUBLIC "-//W3C//DTD SVG 1.1//EN"
 "http://www.w3.org/Graphics/SVG/1.1/DTD/svg11.dtd">
<!-- Generated by graphviz version 12.1.2 (20240928.0832)
 -->
<!-- Title: azure.azure_storage_account Pages: 1 -->
<svg width="604pt" height="2600pt"
 viewBox="0.00 0.00 603.87 2600.00" xmlns="http://www.w3.org/2000/svg" xmlns:xlink="http://www.w3.org/1999/xlink">
<g id="graph0" class="graph" transform="scale(1 1) rotate(0) translate(4 2596)">
<title>azure.azure_storage_account</title>
<polygon fill="white" stroke="none" points="-4,4 -4,-2596 599.87,-2596 599.87,4 -4,4"/>
<!-- azure.azure_storage_account -->
<g id="node1" class="node">
<title>azure.azure_storage_account</title>
<polygon fill="#efefef" stroke="none" points="46.2,-2510.2 46.2,-2545.8 549.67,-2545.8 549.67,-2510.2 46.2,-2510.2"/>
<polygon fill="none" stroke="black" points="46.2,-2510.2 46.2,-2545.8 549.67,-2545.8 549.67,-2510.2 46.2,-2510.2"/>
<text text-anchor="start" x="118.29" y="-2523.6" font-family="Arial Bold" font-size="18.00">azure.azure_storage_account</text>
<text text-anchor="start" x="326.66" y="-2523.6" font-family="Arial" font-size="14.00">    </text>
<text text-anchor="start" x="357.78" y="-2523.6" font-family="Arial" font-size="14.00" fill="#666666">[FOREIGN TABLE]</text>
<polygon fill="none" stroke="black" points="46.2,-2479.4 46.2,-2510.2 549.67,-2510.2 549.67,-2479.4 46.2,-2479.4"/>
<text text-anchor="start" x="53.2" y="-2491.6" font-family="Arial" font-size="14.00">name </text>
<text text-anchor="start" x="92.11" y="-2491.6" font-family="Arial" font-size="14.00" fill="#666666">[text]</text>
<polygon fill="none" stroke="black" points="46.2,-2448.6 46.2,-2479.4 549.67,-2479.4 549.67,-2448.6 46.2,-2448.6"/>
<text text-anchor="start" x="53.2" y="-2460.8" font-family="Arial" font-size="14.00">id </text>
<text text-anchor="start" x="67.99" y="-2460.8" font-family="Arial" font-size="14.00" fill="#666666">[text]</text>
<polygon fill="none" stroke="black" points="46.2,-2417.8 46.2,-2448.6 549.67,-2448.6 549.67,-2417.8 46.2,-2417.8"/>
<text text-anchor="start" x="53.2" y="-2430" font-family="Arial" font-size="14.00">type </text>
<text text-anchor="start" x="83.55" y="-2430" font-family="Arial" font-size="14.00" fill="#666666">[text]</text>
<polygon fill="none" stroke="black" points="46.2,-2387 46.2,-2417.8 549.67,-2417.8 549.67,-2387 46.2,-2387"/>
<text text-anchor="start" x="53.2" y="-2399.2" font-family="Arial" font-size="14.00">access_tier </text>
<text text-anchor="start" x="127.9" y="-2399.2" font-family="Arial" font-size="14.00" fill="#666666">[text]</text>
<polygon fill="none" stroke="black" points="46.2,-2356.2 46.2,-2387 549.67,-2387 549.67,-2356.2 46.2,-2356.2"/>
<text text-anchor="start" x="53.2" y="-2368.4" font-family="Arial" font-size="14.00">kind </text>
<text text-anchor="start" x="82.77" y="-2368.4" font-family="Arial" font-size="14.00" fill="#666666">[text]</text>
<polygon fill="none" stroke="black" points="46.2,-2325.4 46.2,-2356.2 549.67,-2356.2 549.67,-2325.4 46.2,-2325.4"/>
<text text-anchor="start" x="53.2" y="-2337.6" font-family="Arial" font-size="14.00">sku_name </text>
<text text-anchor="start" x="121.68" y="-2337.6" font-family="Arial" font-size="14.00" fill="#666666">[text]</text>
<polygon fill="none" stroke="black" points="46.2,-2294.6 46.2,-2325.4 549.67,-2325.4 549.67,-2294.6 46.2,-2294.6"/>
<text text-anchor="start" x="53.2" y="-2306.8" font-family="Arial" font-size="14.00">sku_tier </text>
<text text-anchor="start" x="106.11" y="-2306.8" font-family="Arial" font-size="14.00" fill="#666666">[text]</text>
<polygon fill="none" stroke="black" points="46.2,-2263.8 46.2,-2294.6 549.67,-2294.6 549.67,-2263.8 46.2,-2263.8"/>
<text text-anchor="start" x="53.2" y="-2276" font-family="Arial" font-size="14.00">creation_time </text>
<text text-anchor="start" x="141.13" y="-2276" font-family="Arial" font-size="14.00" fill="#666666">[timestamp with time zone]</text>
<polygon fill="none" stroke="black" points="46.2,-2233 46.2,-2263.8 549.67,-2263.8 549.67,-2233 46.2,-2233"/>
<text text-anchor="start" x="53.2" y="-2245.2" font-family="Arial" font-size="14.00">allow_blob_public_access </text>
<text text-anchor="start" x="218.97" y="-2245.2" font-family="Arial" font-size="14.00" fill="#666666">[boolean]</text>
<polygon fill="none" stroke="black" points="46.2,-2202.2 46.2,-2233 549.67,-2233 549.67,-2202.2 46.2,-2202.2"/>
<text text-anchor="start" x="53.2" y="-2214.4" font-family="Arial" font-size="14.00">blob_change_feed_enabled </text>
<text text-anchor="start" x="229.92" y="-2214.4" font-family="Arial" font-size="14.00" fill="#666666">[boolean]</text>
<polygon fill="none" stroke="black" points="46.2,-2171.4 46.2,-2202.2 549.67,-2202.2 549.67,-2171.4 46.2,-2171.4"/>
<text text-anchor="start" x="53.2" y="-2183.6" font-family="Arial" font-size="14.00">blob_container_soft_delete_enabled </text>
<text text-anchor="start" x="282.83" y="-2183.6" font-family="Arial" font-size="14.00" fill="#666666">[boolean]</text>
<polygon fill="none" stroke="black" points="46.2,-2140.6 46.2,-2171.4 549.67,-2171.4 549.67,-2140.6 46.2,-2140.6"/>
<text text-anchor="start" x="53.2" y="-2152.8" font-family="Arial" font-size="14.00">blob_container_soft_delete_retention_days </text>
<text text-anchor="start" x="324.85" y="-2152.8" font-family="Arial" font-size="14.00" fill="#666666">[bigint]</text>
<polygon fill="none" stroke="black" points="46.2,-2109.8 46.2,-2140.6 549.67,-2140.6 549.67,-2109.8 46.2,-2109.8"/>
<text text-anchor="start" x="53.2" y="-2122" font-family="Arial" font-size="14.00">blob_restore_policy_days </text>
<text text-anchor="start" x="215.85" y="-2122" font-family="Arial" font-size="14.00" fill="#666666">[bigint]</text>
<polygon fill="none" stroke="black" points="46.2,-2079 46.2,-2109.8 549.67,-2109.8 549.67,-2079 46.2,-2079"/>
<text text-anchor="start" x="53.2" y="-2091.2" font-family="Arial" font-size="14.00">blob_restore_policy_enabled </text>
<text text-anchor="start" x="236.11" y="-2091.2" font-family="Arial" font-size="14.00" fill="#666666">[boolean]</text>
<polygon fill="none" stroke="black" points="46.2,-2048.2 46.2,-2079 549.67,-2079 549.67,-2048.2 46.2,-2048.2"/>
<text text-anchor="start" x="53.2" y="-2060.4" font-family="Arial" font-size="14.00">blob_service_logging </text>
<text text-anchor="start" x="188.63" y="-2060.4" font-family="Arial" font-size="14.00" fill="#666666">[jsonb]</text>
<polygon fill="none" stroke="black" points="46.2,-2017.4 46.2,-2048.2 549.67,-2048.2 549.67,-2017.4 46.2,-2017.4"/>
<text text-anchor="start" x="53.2" y="-2029.6" font-family="Arial" font-size="14.00">blob_soft_delete_enabled </text>
<text text-anchor="start" x="217.45" y="-2029.6" font-family="Arial" font-size="14.00" fill="#666666">[boolean]</text>
<polygon fill="none" stroke="black" points="46.2,-1986.6 46.2,-2017.4 549.67,-2017.4 549.67,-1986.6 46.2,-1986.6"/>
<text text-anchor="start" x="53.2" y="-1998.8" font-family="Arial" font-size="14.00">blob_soft_delete_retention_days </text>
<text text-anchor="start" x="259.47" y="-1998.8" font-family="Arial" font-size="14.00" fill="#666666">[bigint]</text>
<polygon fill="none" stroke="black" points="46.2,-1955.8 46.2,-1986.6 549.67,-1986.6 549.67,-1955.8 46.2,-1955.8"/>
<text text-anchor="start" x="53.2" y="-1968" font-family="Arial" font-size="14.00">blob_versioning_enabled </text>
<text text-anchor="start" x="212.77" y="-1968" font-family="Arial" font-size="14.00" fill="#666666">[boolean]</text>
<polygon fill="none" stroke="black" points="46.2,-1925 46.2,-1955.8 549.67,-1955.8 549.67,-1925 46.2,-1925"/>
<text text-anchor="start" x="53.2" y="-1937.2" font-family="Arial" font-size="14.00">enable_https_traffic_only </text>
<text text-anchor="start" x="212.75" y="-1937.2" font-family="Arial" font-size="14.00" fill="#666666">[boolean]</text>
<polygon fill="none" stroke="black" points="46.2,-1894.2 46.2,-1925 549.67,-1925 549.67,-1894.2 46.2,-1894.2"/>
<text text-anchor="start" x="53.2" y="-1906.4" font-family="Arial" font-size="14.00">encryption_key_source </text>
<text text-anchor="start" x="201.06" y="-1906.4" font-family="Arial" font-size="14.00" fill="#666666">[text]</text>
<polygon fill="none" stroke="black" points="46.2,-1863.4 46.2,-1894.2 549.67,-1894.2 549.67,-1863.4 46.2,-1863.4"/>
<text text-anchor="start" x="53.2" y="-1875.6" font-family="Arial" font-size="14.00">encryption_key_vault_properties_key_current_version_id </text>
<text text-anchor="start" x="411.18" y="-1875.6" font-family="Arial" font-size="14.00" fill="#666666">[text]</text>
<polygon fill="none" stroke="black" points="46.2,-1832.6 46.2,-1863.4 549.67,-1863.4 549.67,-1832.6 46.2,-1832.6"/>
<text text-anchor="start" x="53.2" y="-1844.8" font-family="Arial" font-size="14.00">encryption_key_vault_properties_key_name </text>
<text text-anchor="start" x="331.03" y="-1844.8" font-family="Arial" font-size="14.00" fill="#666666">[text]</text>
<polygon fill="none" stroke="black" points="46.2,-1801.8 46.2,-1832.6 549.67,-1832.6 549.67,-1801.8 46.2,-1801.8"/>
<text text-anchor="start" x="53.2" y="-1814" font-family="Arial" font-size="14.00">encryption_key_vault_properties_key_vault_uri </text>
<text text-anchor="start" x="348.93" y="-1814" font-family="Arial" font-size="14.00" fill="#666666">[text]</text>
<polygon fill="none" stroke="black" points="46.2,-1771 46.2,-1801.8 549.67,-1801.8 549.67,-1771 46.2,-1771"/>
<text text-anchor="start" x="53.2" y="-1783.2" font-family="Arial" font-size="14.00">encryption_key_vault_properties_key_version </text>
<text text-anchor="start" x="341.14" y="-1783.2" font-family="Arial" font-size="14.00" fill="#666666">[text]</text>
<polygon fill="none" stroke="black" points="46.2,-1740.2 46.2,-1771 549.67,-1771 549.67,-1740.2 46.2,-1740.2"/>
<text text-anchor="start" x="53.2" y="-1752.4" font-family="Arial" font-size="14.00">encryption_key_vault_properties_last_rotation_time </text>
<text text-anchor="start" x="376.94" y="-1752.4" font-family="Arial" font-size="14.00" fill="#666666">[timestamp with time zone]</text>
<polygon fill="none" stroke="black" points="46.2,-1709.4 46.2,-1740.2 549.67,-1740.2 549.67,-1709.4 46.2,-1709.4"/>
<text text-anchor="start" x="53.2" y="-1721.6" font-family="Arial" font-size="14.00">failover_in_progress </text>
<text text-anchor="start" x="183.16" y="-1721.6" font-family="Arial" font-size="14.00" fill="#666666">[boolean]</text>
<polygon fill="none" stroke="black" points="46.2,-1678.6 46.2,-1709.4 549.67,-1709.4 549.67,-1678.6 46.2,-1678.6"/>
<text text-anchor="start" x="53.2" y="-1690.8" font-family="Arial" font-size="14.00">file_soft_delete_enabled </text>
<text text-anchor="start" x="208.88" y="-1690.8" font-family="Arial" font-size="14.00" fill="#666666">[boolean]</text>
<polygon fill="none" stroke="black" points="46.2,-1647.8 46.2,-1678.6 549.67,-1678.6 549.67,-1647.8 46.2,-1647.8"/>
<text text-anchor="start" x="53.2" y="-1660" font-family="Arial" font-size="14.00">file_soft_delete_retention_days </text>
<text text-anchor="start" x="250.9" y="-1660" font-family="Arial" font-size="14.00" fill="#666666">[bigint]</text>
<polygon fill="none" stroke="black" points="46.2,-1617 46.2,-1647.8 549.67,-1647.8 549.67,-1617 46.2,-1617"/>
<text text-anchor="start" x="53.2" y="-1629.2" font-family="Arial" font-size="14.00">is_hns_enabled </text>
<text text-anchor="start" x="155.17" y="-1629.2" font-family="Arial" font-size="14.00" fill="#666666">[boolean]</text>
<polygon fill="none" stroke="black" points="46.2,-1586.2 46.2,-1617 549.67,-1617 549.67,-1586.2 46.2,-1586.2"/>
<text text-anchor="start" x="53.2" y="-1598.4" font-family="Arial" font-size="14.00">queue_logging_delete </text>
<text text-anchor="start" x="194.89" y="-1598.4" font-family="Arial" font-size="14.00" fill="#666666">[boolean]</text>
<polygon fill="none" stroke="black" points="46.2,-1555.4 46.2,-1586.2 549.67,-1586.2 549.67,-1555.4 46.2,-1555.4"/>
<text text-anchor="start" x="53.2" y="-1567.6" font-family="Arial" font-size="14.00">queue_logging_read </text>
<text text-anchor="start" x="184.76" y="-1567.6" font-family="Arial" font-size="14.00" fill="#666666">[boolean]</text>
<polygon fill="none" stroke="black" points="46.2,-1524.6 46.2,-1555.4 549.67,-1555.4 549.67,-1524.6 46.2,-1524.6"/>
<text text-anchor="start" x="53.2" y="-1536.8" font-family="Arial" font-size="14.00">queue_logging_retention_days </text>
<text text-anchor="start" x="248.58" y="-1536.8" font-family="Arial" font-size="14.00" fill="#666666">[bigint]</text>
<polygon fill="none" stroke="black" points="46.2,-1493.8 46.2,-1524.6 549.67,-1524.6 549.67,-1493.8 46.2,-1493.8"/>
<text text-anchor="start" x="53.2" y="-1506" font-family="Arial" font-size="14.00">queue_logging_retention_enabled </text>
<text text-anchor="start" x="268.84" y="-1506" font-family="Arial" font-size="14.00" fill="#666666">[boolean]</text>
<polygon fill="none" stroke="black" points="46.2,-1463 46.2,-1493.8 549.67,-1493.8 549.67,-1463 46.2,-1463"/>
<text text-anchor="start" x="53.2" y="-1475.2" font-family="Arial" font-size="14.00">queue_logging_version </text>
<text text-anchor="start" x="201.87" y="-1475.2" font-family="Arial" font-size="14.00" fill="#666666">[text]</text>
<polygon fill="none" stroke="black" points="46.2,-1432.2 46.2,-1463 549.67,-1463 549.67,-1432.2 46.2,-1432.2"/>
<text text-anchor="start" x="53.2" y="-1444.4" font-family="Arial" font-size="14.00">queue_logging_write </text>
<text text-anchor="start" x="186.3" y="-1444.4" font-family="Arial" font-size="14.00" fill="#666666">[boolean]</text>
<polygon fill="none" stroke="black" points="46.2,-1401.4 46.2,-1432.2 549.67,-1432.2 549.67,-1401.4 46.2,-1401.4"/>
<text text-anchor="start" x="53.2" y="-1413.6" font-family="Arial" font-size="14.00">table_logging_read </text>
<text text-anchor="start" x="176.19" y="-1413.6" font-family="Arial" font-size="14.00" fill="#666666">[boolean]</text>
<polygon fill="none" stroke="black" points="46.2,-1370.6 46.2,-1401.4 549.67,-1401.4 549.67,-1370.6 46.2,-1370.6"/>
<text text-anchor="start" x="53.2" y="-1382.8" font-family="Arial" font-size="14.00">table_logging_write </text>
<text text-anchor="start" x="177.73" y="-1382.8" font-family="Arial" font-size="14.00" fill="#666666">[boolean]</text>
<polygon fill="none" stroke="black" points="46.2,-1339.8 46.2,-1370.6 549.67,-1370.6 549.67,-1339.8 46.2,-1339.8"/>
<text text-anchor="start" x="53.2" y="-1352" font-family="Arial" font-size="14.00">table_logging_delete </text>
<text text-anchor="start" x="186.32" y="-1352" font-family="Arial" font-size="14.00" fill="#666666">[boolean]</text>
<polygon fill="none" stroke="black" points="46.2,-1309 46.2,-1339.8 549.67,-1339.8 549.67,-1309 46.2,-1309"/>
<text text-anchor="start" x="53.2" y="-1321.2" font-family="Arial" font-size="14.00">table_logging_version </text>
<text text-anchor="start" x="193.3" y="-1321.2" font-family="Arial" font-size="14.00" fill="#666666">[text]</text>
<polygon fill="none" stroke="black" points="46.2,-1278.2 46.2,-1309 549.67,-1309 549.67,-1278.2 46.2,-1278.2"/>
<text text-anchor="start" x="53.2" y="-1290.4" font-family="Arial" font-size="14.00">table_logging_retention_policy </text>
<text text-anchor="start" x="246.23" y="-1290.4" font-family="Arial" font-size="14.00" fill="#666666">[jsonb]</text>
<polygon fill="none" stroke="black" points="46.2,-1247.4 46.2,-1278.2 549.67,-1278.2 549.67,-1247.4 46.2,-1247.4"/>
<text text-anchor="start" x="53.2" y="-1259.6" font-family="Arial" font-size="14.00">minimum_tls_version </text>
<text text-anchor="start" x="188.57" y="-1259.6" font-family="Arial" font-size="14.00" fill="#666666">[text]</text>
<polygon fill="none" stroke="black" points="46.2,-1216.6 46.2,-1247.4 549.67,-1247.4 549.67,-1216.6 46.2,-1216.6"/>
<text text-anchor="start" x="53.2" y="-1228.8" font-family="Arial" font-size="14.00">network_rule_bypass </text>
<text text-anchor="start" x="189.39" y="-1228.8" font-family="Arial" font-size="14.00" fill="#666666">[text]</text>
<polygon fill="none" stroke="black" points="46.2,-1185.8 46.2,-1216.6 549.67,-1216.6 549.67,-1185.8 46.2,-1185.8"/>
<text text-anchor="start" x="53.2" y="-1198" font-family="Arial" font-size="14.00">network_rule_default_action </text>
<text text-anchor="start" x="232.21" y="-1198" font-family="Arial" font-size="14.00" fill="#666666">[text]</text>
<polygon fill="none" stroke="black" points="46.2,-1155 46.2,-1185.8 549.67,-1185.8 549.67,-1155 46.2,-1155"/>
<text text-anchor="start" x="53.2" y="-1167.2" font-family="Arial" font-size="14.00">primary_blob_endpoint </text>
<text text-anchor="start" x="199.52" y="-1167.2" font-family="Arial" font-size="14.00" fill="#666666">[text]</text>
<polygon fill="none" stroke="black" points="46.2,-1124.2 46.2,-1155 549.67,-1155 549.67,-1124.2 46.2,-1124.2"/>
<text text-anchor="start" x="53.2" y="-1136.4" font-family="Arial" font-size="14.00">primary_dfs_endpoint </text>
<text text-anchor="start" x="191.72" y="-1136.4" font-family="Arial" font-size="14.00" fill="#666666">[text]</text>
<polygon fill="none" stroke="black" points="46.2,-1093.4 46.2,-1124.2 549.67,-1124.2 549.67,-1093.4 46.2,-1093.4"/>
<text text-anchor="start" x="53.2" y="-1105.6" font-family="Arial" font-size="14.00">primary_file_endpoint </text>
<text text-anchor="start" x="190.94" y="-1105.6" font-family="Arial" font-size="14.00" fill="#666666">[text]</text>
<polygon fill="none" stroke="black" points="46.2,-1062.6 46.2,-1093.4 549.67,-1093.4 549.67,-1062.6 46.2,-1062.6"/>
<text text-anchor="start" x="53.2" y="-1074.8" font-family="Arial" font-size="14.00">primary_location </text>
<text text-anchor="start" x="159.8" y="-1074.8" font-family="Arial" font-size="14.00" fill="#666666">[text]</text>
<polygon fill="none" stroke="black" points="46.2,-1031.8 46.2,-1062.6 549.67,-1062.6 549.67,-1031.8 46.2,-1031.8"/>
<text text-anchor="start" x="53.2" y="-1044" font-family="Arial" font-size="14.00">primary_queue_endpoint </text>
<text text-anchor="start" x="211.98" y="-1044" font-family="Arial" font-size="14.00" fill="#666666">[text]</text>
<polygon fill="none" stroke="black" points="46.2,-1001 46.2,-1031.8 549.67,-1031.8 549.67,-1001 46.2,-1001"/>
<text text-anchor="start" x="53.2" y="-1013.2" font-family="Arial" font-size="14.00">primary_table_endpoint </text>
<text text-anchor="start" x="203.41" y="-1013.2" font-family="Arial" font-size="14.00" fill="#666666">[text]</text>
<polygon fill="none" stroke="black" points="46.2,-970.2 46.2,-1001 549.67,-1001 549.67,-970.2 46.2,-970.2"/>
<text text-anchor="start" x="53.2" y="-982.4" font-family="Arial" font-size="14.00">primary_web_endpoint </text>
<text text-anchor="start" x="198.73" y="-982.4" font-family="Arial" font-size="14.00" fill="#666666">[text]</text>
<polygon fill="none" stroke="black" points="46.2,-939.4 46.2,-970.2 549.67,-970.2 549.67,-939.4 46.2,-939.4"/>
<text text-anchor="start" x="53.2" y="-951.6" font-family="Arial" font-size="14.00">public_network_access </text>
<text text-anchor="start" x="201.83" y="-951.6" font-family="Arial" font-size="14.00" fill="#666666">[text]</text>
<polygon fill="none" stroke="black" points="46.2,-908.6 46.2,-939.4 549.67,-939.4 549.67,-908.6 46.2,-908.6"/>
<text text-anchor="start" x="53.2" y="-920.8" font-family="Arial" font-size="14.00">status_of_primary </text>
<text text-anchor="start" x="168.36" y="-920.8" font-family="Arial" font-size="14.00" fill="#666666">[text]</text>
<polygon fill="none" stroke="black" points="46.2,-877.8 46.2,-908.6 549.67,-908.6 549.67,-877.8 46.2,-877.8"/>
<text text-anchor="start" x="53.2" y="-890" font-family="Arial" font-size="14.00">provisioning_state </text>
<text text-anchor="start" x="169.94" y="-890" font-family="Arial" font-size="14.00" fill="#666666">[text]</text>
<polygon fill="none" stroke="black" points="46.2,-847 46.2,-877.8 549.67,-877.8 549.67,-847 46.2,-847"/>
<text text-anchor="start" x="53.2" y="-859.2" font-family="Arial" font-size="14.00">require_infrastructure_encryption </text>
<text text-anchor="start" x="262.53" y="-859.2" font-family="Arial" font-size="14.00" fill="#666666">[boolean]</text>
<polygon fill="none" stroke="black" points="46.2,-816.2 46.2,-847 549.67,-847 549.67,-816.2 46.2,-816.2"/>
<text text-anchor="start" x="53.2" y="-828.4" font-family="Arial" font-size="14.00">secondary_location </text>
<text text-anchor="start" x="177.72" y="-828.4" font-family="Arial" font-size="14.00" fill="#666666">[text]</text>
<polygon fill="none" stroke="black" points="46.2,-785.4 46.2,-816.2 549.67,-816.2 549.67,-785.4 46.2,-785.4"/>
<text text-anchor="start" x="53.2" y="-797.6" font-family="Arial" font-size="14.00">status_of_secondary </text>
<text text-anchor="start" x="186.28" y="-797.6" font-family="Arial" font-size="14.00" fill="#666666">[text]</text>
<polygon fill="none" stroke="black" points="46.2,-754.6 46.2,-785.4 549.67,-785.4 549.67,-754.6 46.2,-754.6"/>
<text text-anchor="start" x="53.2" y="-766.8" font-family="Arial" font-size="14.00">diagnostic_settings </text>
<text text-anchor="start" x="176.16" y="-766.8" font-family="Arial" font-size="14.00" fill="#666666">[jsonb]</text>
<polygon fill="none" stroke="black" points="46.2,-723.8 46.2,-754.6 549.67,-754.6 549.67,-723.8 46.2,-723.8"/>
<text text-anchor="start" x="53.2" y="-736" font-family="Arial" font-size="14.00">encryption_scope </text>
<text text-anchor="start" x="166.83" y="-736" font-family="Arial" font-size="14.00" fill="#666666">[jsonb]</text>
<polygon fill="none" stroke="black" points="46.2,-693 46.2,-723.8 549.67,-723.8 549.67,-693 46.2,-693"/>
<text text-anchor="start" x="53.2" y="-705.2" font-family="Arial" font-size="14.00">encryption_services </text>
<text text-anchor="start" x="180.81" y="-705.2" font-family="Arial" font-size="14.00" fill="#666666">[jsonb]</text>
<polygon fill="none" stroke="black" points="46.2,-662.2 46.2,-693 549.67,-693 549.67,-662.2 46.2,-662.2"/>
<text text-anchor="start" x="53.2" y="-674.4" font-family="Arial" font-size="14.00">lifecycle_management_policy </text>
<text text-anchor="start" x="239.96" y="-674.4" font-family="Arial" font-size="14.00" fill="#666666">[jsonb]</text>
<polygon fill="none" stroke="black" points="46.2,-631.4 46.2,-662.2 549.67,-662.2 549.67,-631.4 46.2,-631.4"/>
<text text-anchor="start" x="53.2" y="-643.6" font-family="Arial" font-size="14.00">network_ip_rules </text>
<text text-anchor="start" x="162.92" y="-643.6" font-family="Arial" font-size="14.00" fill="#666666">[jsonb]</text>
<polygon fill="none" stroke="black" points="46.2,-600.6 46.2,-631.4 549.67,-631.4 549.67,-600.6 46.2,-600.6"/>
<text text-anchor="start" x="53.2" y="-612.8" font-family="Arial" font-size="14.00">private_endpoint_connections </text>
<text text-anchor="start" x="243.12" y="-612.8" font-family="Arial" font-size="14.00" fill="#666666">[jsonb]</text>
<polygon fill="none" stroke="black" points="46.2,-569.8 46.2,-600.6 549.67,-600.6 549.67,-569.8 46.2,-569.8"/>
<text text-anchor="start" x="53.2" y="-582" font-family="Arial" font-size="14.00">table_properties </text>
<text text-anchor="start" x="157.49" y="-582" font-family="Arial" font-size="14.00" fill="#666666">[jsonb]</text>
<polygon fill="none" stroke="black" points="46.2,-539 46.2,-569.8 549.67,-569.8 549.67,-539 46.2,-539"/>
<text text-anchor="start" x="53.2" y="-551.2" font-family="Arial" font-size="14.00">access_keys </text>
<text text-anchor="start" x="137.23" y="-551.2" font-family="Arial" font-size="14.00" fill="#666666">[jsonb]</text>
<polygon fill="none" stroke="black" points="46.2,-508.2 46.2,-539 549.67,-539 549.67,-508.2 46.2,-508.2"/>
<text text-anchor="start" x="53.2" y="-520.4" font-family="Arial" font-size="14.00">virtual_network_rules </text>
<text text-anchor="start" x="189.37" y="-520.4" font-family="Arial" font-size="14.00" fill="#666666">[jsonb]</text>
<polygon fill="none" stroke="black" points="46.2,-477.4 46.2,-508.2 549.67,-508.2 549.67,-477.4 46.2,-477.4"/>
<text text-anchor="start" x="53.2" y="-489.6" font-family="Arial" font-size="14.00">sas_policy </text>
<text text-anchor="start" x="122.45" y="-489.6" font-family="Arial" font-size="14.00" fill="#666666">[jsonb]</text>
<polygon fill="none" stroke="black" points="46.2,-446.6 46.2,-477.4 549.67,-477.4 549.67,-446.6 46.2,-446.6"/>
<text text-anchor="start" x="53.2" y="-458.8" font-family="Arial" font-size="14.00">title </text>
<text text-anchor="start" x="78.88" y="-458.8" font-family="Arial" font-size="14.00" fill="#666666">[text]</text>
<polygon fill="none" stroke="black" points="46.2,-415.8 46.2,-446.6 549.67,-446.6 549.67,-415.8 46.2,-415.8"/>
<text text-anchor="start" x="53.2" y="-428" font-family="Arial" font-size="14.00">tags </text>
<text text-anchor="start" x="83.55" y="-428" font-family="Arial" font-size="14.00" fill="#666666">[jsonb]</text>
<polygon fill="none" stroke="black" points="46.2,-385 46.2,-415.8 549.67,-415.8 549.67,-385 46.2,-385"/>
<text text-anchor="start" x="53.2" y="-397.2" font-family="Arial" font-size="14.00">akas </text>
<text text-anchor="start" x="86.66" y="-397.2" font-family="Arial" font-size="14.00" fill="#666666">[jsonb]</text>
<polygon fill="none" stroke="black" points="46.2,-354.2 46.2,-385 549.67,-385 549.67,-354.2 46.2,-354.2"/>
<text text-anchor="start" x="53.2" y="-366.4" font-family="Arial" font-size="14.00">region </text>
<text text-anchor="start" x="96.01" y="-366.4" font-family="Arial" font-size="14.00" fill="#666666">[text]</text>
<polygon fill="none" stroke="black" points="46.2,-323.4 46.2,-354.2 549.67,-354.2 549.67,-323.4 46.2,-323.4"/>
<text text-anchor="start" x="53.2" y="-335.6" font-family="Arial" font-size="14.00">resource_group </text>
<text text-anchor="start" x="155.15" y="-335.6" font-family="Arial" font-size="14.00" fill="#666666">[text]</text>
<polygon fill="none" stroke="black" points="46.2,-292.6 46.2,-323.4 549.67,-323.4 549.67,-292.6 46.2,-292.6"/>
<text text-anchor="start" x="53.2" y="-304.8" font-family="Arial" font-size="14.00">cloud_environment </text>
<text text-anchor="start" x="175.39" y="-304.8" font-family="Arial" font-size="14.00" fill="#666666">[text]</text>
<polygon fill="none" stroke="black" points="46.2,-261.8 46.2,-292.6 549.67,-292.6 549.67,-261.8 46.2,-261.8"/>
<text text-anchor="start" x="53.2" y="-274" font-family="Arial" font-size="14.00">subscription_id </text>
<text text-anchor="start" x="150.48" y="-274" font-family="Arial" font-size="14.00" fill="#666666">[text]</text>
<polygon fill="none" stroke="black" points="46.2,-231 46.2,-261.8 549.67,-261.8 549.67,-231 46.2,-231"/>
<text text-anchor="start" x="53.2" y="-243.2" font-family="Arial" font-size="14.00">og_account_id </text>
<text text-anchor="start" x="148.16" y="-243.2" font-family="Arial" font-size="14.00" fill="#666666">[text]</text>
<polygon fill="none" stroke="black" points="46.2,-200.2 46.2,-231 549.67,-231 549.67,-200.2 46.2,-200.2"/>
<text text-anchor="start" x="53.2" y="-212.4" font-family="Arial" font-size="14.00">og_resource_id </text>
<text text-anchor="start" x="153.6" y="-212.4" font-family="Arial" font-size="14.00" fill="#666666">[text]</text>
<polygon fill="none" stroke="black" points="46.2,-169.4 46.2,-200.2 549.67,-200.2 549.67,-169.4 46.2,-169.4"/>
<text text-anchor="start" x="53.2" y="-181.6" font-family="Arial" font-size="14.00">kaytu_metadata </text>
<text text-anchor="start" x="156.71" y="-181.6" font-family="Arial" font-size="14.00" fill="#666666">[text]</text>
<polygon fill="none" stroke="black" points="46.2,-138.6 46.2,-169.4 549.67,-169.4 549.67,-138.6 46.2,-138.6"/>
<text text-anchor="start" x="53.2" y="-150.8" font-family="Arial" font-size="14.00">kaytu_description </text>
<text text-anchor="start" x="166.04" y="-150.8" font-family="Arial" font-size="14.00" fill="#666666">[jsonb]</text>
<polygon fill="none" stroke="black" points="46.2,-107.8 46.2,-138.6 549.67,-138.6 549.67,-107.8 46.2,-107.8"/>
<text text-anchor="start" x="53.2" y="-120" font-family="Arial" font-size="14.00">sp_connection_name </text>
<text text-anchor="start" x="190.19" y="-120" font-family="Arial" font-size="14.00" fill="#666666">[text]</text>
<polygon fill="none" stroke="black" points="46.2,-77 46.2,-107.8 549.67,-107.8 549.67,-77 46.2,-77"/>
<text text-anchor="start" x="53.2" y="-89.2" font-family="Arial" font-size="14.00">sp_ctx </text>
<text text-anchor="start" x="97.55" y="-89.2" font-family="Arial" font-size="14.00" fill="#666666">[jsonb]</text>
<polygon fill="none" stroke="black" points="46.2,-46.2 46.2,-77 549.67,-77 549.67,-46.2 46.2,-46.2"/>
<text text-anchor="start" x="53.2" y="-58.4" font-family="Arial" font-size="14.00">_ctx </text>
<text text-anchor="start" x="82.77" y="-58.4" font-family="Arial" font-size="14.00" fill="#666666">[jsonb]</text>
<polygon fill="none" stroke="black" stroke-width="3" points="44.7,-44.7 44.7,-2547.3 551.17,-2547.3 551.17,-44.7 44.7,-44.7"/>
</g>
</g>
</svg>
