<?xml version="1.0" encoding="UTF-8" standalone="no"?>
<!DOCTYPE svg PUBLIC "-//W3C//DTD SVG 1.1//EN"
 "http://www.w3.org/Graphics/SVG/1.1/DTD/svg11.dtd">
<!-- Generated by graphviz version 12.1.2 (20240928.0832)
 -->
<!-- Title: azure.azure_storage_blob Pages: 1 -->
<svg width="450pt" height="1861pt"
 viewBox="0.00 0.00 449.72 1860.80" xmlns="http://www.w3.org/2000/svg" xmlns:xlink="http://www.w3.org/1999/xlink">
<g id="graph0" class="graph" transform="scale(1 1) rotate(0) translate(4 1856.8)">
<title>azure.azure_storage_blob</title>
<polygon fill="white" stroke="none" points="-4,4 -4,-1856.8 445.72,-1856.8 445.72,4 -4,4"/>
<!-- azure.azure_storage_blob -->
<g id="node1" class="node">
<title>azure.azure_storage_blob</title>
<polygon fill="#efefef" stroke="none" points="46.2,-1771 46.2,-1806.6 395.52,-1806.6 395.52,-1771 46.2,-1771"/>
<polygon fill="none" stroke="black" points="46.2,-1771 46.2,-1806.6 395.52,-1806.6 395.52,-1771 46.2,-1771"/>
<text text-anchor="start" x="53.2" y="-1784.4" font-family="Arial Bold" font-size="18.00">azure.azure_storage_blob</text>
<text text-anchor="start" x="237.6" y="-1784.4" font-family="Arial" font-size="14.00">    </text>
<text text-anchor="start" x="268.72" y="-1784.4" font-family="Arial" font-size="14.00" fill="#666666">[FOREIGN TABLE]</text>
<polygon fill="none" stroke="black" points="46.2,-1740.2 46.2,-1771 395.52,-1771 395.52,-1740.2 46.2,-1740.2"/>
<text text-anchor="start" x="53.2" y="-1752.4" font-family="Arial" font-size="14.00">name </text>
<text text-anchor="start" x="92.11" y="-1752.4" font-family="Arial" font-size="14.00" fill="#666666">[text]</text>
<polygon fill="none" stroke="black" points="46.2,-1709.4 46.2,-1740.2 395.52,-1740.2 395.52,-1709.4 46.2,-1709.4"/>
<text text-anchor="start" x="53.2" y="-1721.6" font-family="Arial" font-size="14.00">storage_account_name </text>
<text text-anchor="start" x="203.41" y="-1721.6" font-family="Arial" font-size="14.00" fill="#666666">[text]</text>
<polygon fill="none" stroke="black" points="46.2,-1678.6 46.2,-1709.4 395.52,-1709.4 395.52,-1678.6 46.2,-1678.6"/>
<text text-anchor="start" x="53.2" y="-1690.8" font-family="Arial" font-size="14.00">container_name </text>
<text text-anchor="start" x="157.49" y="-1690.8" font-family="Arial" font-size="14.00" fill="#666666">[text]</text>
<polygon fill="none" stroke="black" points="46.2,-1647.8 46.2,-1678.6 395.52,-1678.6 395.52,-1647.8 46.2,-1647.8"/>
<text text-anchor="start" x="53.2" y="-1660" font-family="Arial" font-size="14.00">type </text>
<text text-anchor="start" x="83.55" y="-1660" font-family="Arial" font-size="14.00" fill="#666666">[text]</text>
<polygon fill="none" stroke="black" points="46.2,-1617 46.2,-1647.8 395.52,-1647.8 395.52,-1617 46.2,-1617"/>
<text text-anchor="start" x="53.2" y="-1629.2" font-family="Arial" font-size="14.00">is_snapshot </text>
<text text-anchor="start" x="131.81" y="-1629.2" font-family="Arial" font-size="14.00" fill="#666666">[boolean]</text>
<polygon fill="none" stroke="black" points="46.2,-1586.2 46.2,-1617 395.52,-1617 395.52,-1586.2 46.2,-1586.2"/>
<text text-anchor="start" x="53.2" y="-1598.4" font-family="Arial" font-size="14.00">access_tier </text>
<text text-anchor="start" x="127.9" y="-1598.4" font-family="Arial" font-size="14.00" fill="#666666">[text]</text>
<polygon fill="none" stroke="black" points="46.2,-1555.4 46.2,-1586.2 395.52,-1586.2 395.52,-1555.4 46.2,-1555.4"/>
<text text-anchor="start" x="53.2" y="-1567.6" font-family="Arial" font-size="14.00">creation_time </text>
<text text-anchor="start" x="141.13" y="-1567.6" font-family="Arial" font-size="14.00" fill="#666666">[timestamp with time zone]</text>
<polygon fill="none" stroke="black" points="46.2,-1524.6 46.2,-1555.4 395.52,-1555.4 395.52,-1524.6 46.2,-1524.6"/>
<text text-anchor="start" x="53.2" y="-1536.8" font-family="Arial" font-size="14.00">deleted </text>
<text text-anchor="start" x="103.02" y="-1536.8" font-family="Arial" font-size="14.00" fill="#666666">[boolean]</text>
<polygon fill="none" stroke="black" points="46.2,-1493.8 46.2,-1524.6 395.52,-1524.6 395.52,-1493.8 46.2,-1493.8"/>
<text text-anchor="start" x="53.2" y="-1506" font-family="Arial" font-size="14.00">deleted_time </text>
<text text-anchor="start" x="137.25" y="-1506" font-family="Arial" font-size="14.00" fill="#666666">[timestamp with time zone]</text>
<polygon fill="none" stroke="black" points="46.2,-1463 46.2,-1493.8 395.52,-1493.8 395.52,-1463 46.2,-1463"/>
<text text-anchor="start" x="53.2" y="-1475.2" font-family="Arial" font-size="14.00">etag </text>
<text text-anchor="start" x="84.34" y="-1475.2" font-family="Arial" font-size="14.00" fill="#666666">[text]</text>
<polygon fill="none" stroke="black" points="46.2,-1432.2 46.2,-1463 395.52,-1463 395.52,-1432.2 46.2,-1432.2"/>
<text text-anchor="start" x="53.2" y="-1444.4" font-family="Arial" font-size="14.00">last_modified </text>
<text text-anchor="start" x="139.58" y="-1444.4" font-family="Arial" font-size="14.00" fill="#666666">[timestamp with time zone]</text>
<polygon fill="none" stroke="black" points="46.2,-1401.4 46.2,-1432.2 395.52,-1432.2 395.52,-1401.4 46.2,-1401.4"/>
<text text-anchor="start" x="53.2" y="-1413.6" font-family="Arial" font-size="14.00">snapshot </text>
<text text-anchor="start" x="113.91" y="-1413.6" font-family="Arial" font-size="14.00" fill="#666666">[text]</text>
<polygon fill="none" stroke="black" points="46.2,-1370.6 46.2,-1401.4 395.52,-1401.4 395.52,-1370.6 46.2,-1370.6"/>
<text text-anchor="start" x="53.2" y="-1382.8" font-family="Arial" font-size="14.00">version_id </text>
<text text-anchor="start" x="120.9" y="-1382.8" font-family="Arial" font-size="14.00" fill="#666666">[text]</text>
<polygon fill="none" stroke="black" points="46.2,-1339.8 46.2,-1370.6 395.52,-1370.6 395.52,-1339.8 46.2,-1339.8"/>
<text text-anchor="start" x="53.2" y="-1352" font-family="Arial" font-size="14.00">server_encrypted </text>
<text text-anchor="start" x="165.25" y="-1352" font-family="Arial" font-size="14.00" fill="#666666">[boolean]</text>
<polygon fill="none" stroke="black" points="46.2,-1309 46.2,-1339.8 395.52,-1339.8 395.52,-1309 46.2,-1309"/>
<text text-anchor="start" x="53.2" y="-1321.2" font-family="Arial" font-size="14.00">encryption_scope </text>
<text text-anchor="start" x="166.83" y="-1321.2" font-family="Arial" font-size="14.00" fill="#666666">[text]</text>
<polygon fill="none" stroke="black" points="46.2,-1278.2 46.2,-1309 395.52,-1309 395.52,-1278.2 46.2,-1278.2"/>
<text text-anchor="start" x="53.2" y="-1290.4" font-family="Arial" font-size="14.00">encryption_key_sha256 </text>
<text text-anchor="start" x="204.97" y="-1290.4" font-family="Arial" font-size="14.00" fill="#666666">[text]</text>
<polygon fill="none" stroke="black" points="46.2,-1247.4 46.2,-1278.2 395.52,-1278.2 395.52,-1247.4 46.2,-1247.4"/>
<text text-anchor="start" x="53.2" y="-1259.6" font-family="Arial" font-size="14.00">is_current_version </text>
<text text-anchor="start" x="171.48" y="-1259.6" font-family="Arial" font-size="14.00" fill="#666666">[boolean]</text>
<polygon fill="none" stroke="black" points="46.2,-1216.6 46.2,-1247.4 395.52,-1247.4 395.52,-1216.6 46.2,-1216.6"/>
<text text-anchor="start" x="53.2" y="-1228.8" font-family="Arial" font-size="14.00">access_tier_change_time </text>
<text text-anchor="start" x="215.85" y="-1228.8" font-family="Arial" font-size="14.00" fill="#666666">[timestamp with time zone]</text>
<polygon fill="none" stroke="black" points="46.2,-1185.8 46.2,-1216.6 395.52,-1216.6 395.52,-1185.8 46.2,-1185.8"/>
<text text-anchor="start" x="53.2" y="-1198" font-family="Arial" font-size="14.00">access_tier_inferred </text>
<text text-anchor="start" x="183.15" y="-1198" font-family="Arial" font-size="14.00" fill="#666666">[boolean]</text>
<polygon fill="none" stroke="black" points="46.2,-1155 46.2,-1185.8 395.52,-1185.8 395.52,-1155 46.2,-1155"/>
<text text-anchor="start" x="53.2" y="-1167.2" font-family="Arial" font-size="14.00">blob_sequence_number </text>
<text text-anchor="start" x="207.32" y="-1167.2" font-family="Arial" font-size="14.00" fill="#666666">[bigint]</text>
<polygon fill="none" stroke="black" points="46.2,-1124.2 46.2,-1155 395.52,-1155 395.52,-1124.2 46.2,-1124.2"/>
<text text-anchor="start" x="53.2" y="-1136.4" font-family="Arial" font-size="14.00">content_length </text>
<text text-anchor="start" x="148.94" y="-1136.4" font-family="Arial" font-size="14.00" fill="#666666">[bigint]</text>
<polygon fill="none" stroke="black" points="46.2,-1093.4 46.2,-1124.2 395.52,-1124.2 395.52,-1093.4 46.2,-1093.4"/>
<text text-anchor="start" x="53.2" y="-1105.6" font-family="Arial" font-size="14.00">cache_control </text>
<text text-anchor="start" x="144.25" y="-1105.6" font-family="Arial" font-size="14.00" fill="#666666">[text]</text>
<polygon fill="none" stroke="black" points="46.2,-1062.6 46.2,-1093.4 395.52,-1093.4 395.52,-1062.6 46.2,-1062.6"/>
<text text-anchor="start" x="53.2" y="-1074.8" font-family="Arial" font-size="14.00">content_disposition </text>
<text text-anchor="start" x="176.95" y="-1074.8" font-family="Arial" font-size="14.00" fill="#666666">[text]</text>
<polygon fill="none" stroke="black" points="46.2,-1031.8 46.2,-1062.6 395.52,-1062.6 395.52,-1031.8 46.2,-1031.8"/>
<text text-anchor="start" x="53.2" y="-1044" font-family="Arial" font-size="14.00">content_encoding </text>
<text text-anchor="start" x="167.63" y="-1044" font-family="Arial" font-size="14.00" fill="#666666">[text]</text>
<polygon fill="none" stroke="black" points="46.2,-1001 46.2,-1031.8 395.52,-1031.8 395.52,-1001 46.2,-1001"/>
<text text-anchor="start" x="53.2" y="-1013.2" font-family="Arial" font-size="14.00">content_language </text>
<text text-anchor="start" x="168.41" y="-1013.2" font-family="Arial" font-size="14.00" fill="#666666">[text]</text>
<polygon fill="none" stroke="black" points="46.2,-970.2 46.2,-1001 395.52,-1001 395.52,-970.2 46.2,-970.2"/>
<text text-anchor="start" x="53.2" y="-982.4" font-family="Arial" font-size="14.00">content_md5 </text>
<text text-anchor="start" x="138.03" y="-982.4" font-family="Arial" font-size="14.00" fill="#666666">[jsonb]</text>
<polygon fill="none" stroke="black" points="46.2,-939.4 46.2,-970.2 395.52,-970.2 395.52,-939.4 46.2,-939.4"/>
<text text-anchor="start" x="53.2" y="-951.6" font-family="Arial" font-size="14.00">content_type </text>
<text text-anchor="start" x="137.26" y="-951.6" font-family="Arial" font-size="14.00" fill="#666666">[text]</text>
<polygon fill="none" stroke="black" points="46.2,-908.6 46.2,-939.4 395.52,-939.4 395.52,-908.6 46.2,-908.6"/>
<text text-anchor="start" x="53.2" y="-920.8" font-family="Arial" font-size="14.00">copy_completion_time </text>
<text text-anchor="start" x="196.39" y="-920.8" font-family="Arial" font-size="14.00" fill="#666666">[timestamp with time zone]</text>
<polygon fill="none" stroke="black" points="46.2,-877.8 46.2,-908.6 395.52,-908.6 395.52,-877.8 46.2,-877.8"/>
<text text-anchor="start" x="53.2" y="-890" font-family="Arial" font-size="14.00">copy_id </text>
<text text-anchor="start" x="105.34" y="-890" font-family="Arial" font-size="14.00" fill="#666666">[text]</text>
<polygon fill="none" stroke="black" points="46.2,-847 46.2,-877.8 395.52,-877.8 395.52,-847 46.2,-847"/>
<text text-anchor="start" x="53.2" y="-859.2" font-family="Arial" font-size="14.00">copy_progress </text>
<text text-anchor="start" x="148.92" y="-859.2" font-family="Arial" font-size="14.00" fill="#666666">[text]</text>
<polygon fill="none" stroke="black" points="46.2,-816.2 46.2,-847 395.52,-847 395.52,-816.2 46.2,-816.2"/>
<text text-anchor="start" x="53.2" y="-828.4" font-family="Arial" font-size="14.00">copy_source </text>
<text text-anchor="start" x="136.47" y="-828.4" font-family="Arial" font-size="14.00" fill="#666666">[text]</text>
<polygon fill="none" stroke="black" points="46.2,-785.4 46.2,-816.2 395.52,-816.2 395.52,-785.4 46.2,-785.4"/>
<text text-anchor="start" x="53.2" y="-797.6" font-family="Arial" font-size="14.00">copy_status </text>
<text text-anchor="start" x="131.8" y="-797.6" font-family="Arial" font-size="14.00" fill="#666666">[text]</text>
<polygon fill="none" stroke="black" points="46.2,-754.6 46.2,-785.4 395.52,-785.4 395.52,-754.6 46.2,-754.6"/>
<text text-anchor="start" x="53.2" y="-766.8" font-family="Arial" font-size="14.00">copy_status_description </text>
<text text-anchor="start" x="207.29" y="-766.8" font-family="Arial" font-size="14.00" fill="#666666">[text]</text>
<polygon fill="none" stroke="black" points="46.2,-723.8 46.2,-754.6 395.52,-754.6 395.52,-723.8 46.2,-723.8"/>
<text text-anchor="start" x="53.2" y="-736" font-family="Arial" font-size="14.00">destination_snapshot </text>
<text text-anchor="start" x="189.41" y="-736" font-family="Arial" font-size="14.00" fill="#666666">[text]</text>
<polygon fill="none" stroke="black" points="46.2,-693 46.2,-723.8 395.52,-723.8 395.52,-693 46.2,-693"/>
<text text-anchor="start" x="53.2" y="-705.2" font-family="Arial" font-size="14.00">lease_duration </text>
<text text-anchor="start" x="148.94" y="-705.2" font-family="Arial" font-size="14.00" fill="#666666">[text]</text>
<polygon fill="none" stroke="black" points="46.2,-662.2 46.2,-693 395.52,-693 395.52,-662.2 46.2,-662.2"/>
<text text-anchor="start" x="53.2" y="-674.4" font-family="Arial" font-size="14.00">lease_state </text>
<text text-anchor="start" x="128.7" y="-674.4" font-family="Arial" font-size="14.00" fill="#666666">[text]</text>
<polygon fill="none" stroke="black" points="46.2,-631.4 46.2,-662.2 395.52,-662.2 395.52,-631.4 46.2,-631.4"/>
<text text-anchor="start" x="53.2" y="-643.6" font-family="Arial" font-size="14.00">lease_status </text>
<text text-anchor="start" x="135.7" y="-643.6" font-family="Arial" font-size="14.00" fill="#666666">[text]</text>
<polygon fill="none" stroke="black" points="46.2,-600.6 46.2,-631.4 395.52,-631.4 395.52,-600.6 46.2,-600.6"/>
<text text-anchor="start" x="53.2" y="-612.8" font-family="Arial" font-size="14.00">incremental_copy </text>
<text text-anchor="start" x="166.81" y="-612.8" font-family="Arial" font-size="14.00" fill="#666666">[boolean]</text>
<polygon fill="none" stroke="black" points="46.2,-569.8 46.2,-600.6 395.52,-600.6 395.52,-569.8 46.2,-569.8"/>
<text text-anchor="start" x="53.2" y="-582" font-family="Arial" font-size="14.00">is_sealed </text>
<text text-anchor="start" x="116.24" y="-582" font-family="Arial" font-size="14.00" fill="#666666">[boolean]</text>
<polygon fill="none" stroke="black" points="46.2,-539 46.2,-569.8 395.52,-569.8 395.52,-539 46.2,-539"/>
<text text-anchor="start" x="53.2" y="-551.2" font-family="Arial" font-size="14.00">remaining_retention_days </text>
<text text-anchor="start" x="218.19" y="-551.2" font-family="Arial" font-size="14.00" fill="#666666">[bigint]</text>
<polygon fill="none" stroke="black" points="46.2,-508.2 46.2,-539 395.52,-539 395.52,-508.2 46.2,-508.2"/>
<text text-anchor="start" x="53.2" y="-520.4" font-family="Arial" font-size="14.00">archive_status </text>
<text text-anchor="start" x="147.36" y="-520.4" font-family="Arial" font-size="14.00" fill="#666666">[text]</text>
<polygon fill="none" stroke="black" points="46.2,-477.4 46.2,-508.2 395.52,-508.2 395.52,-477.4 46.2,-477.4"/>
<text text-anchor="start" x="53.2" y="-489.6" font-family="Arial" font-size="14.00">blob_tag_set </text>
<text text-anchor="start" x="137.27" y="-489.6" font-family="Arial" font-size="14.00" fill="#666666">[jsonb]</text>
<polygon fill="none" stroke="black" points="46.2,-446.6 46.2,-477.4 395.52,-477.4 395.52,-446.6 46.2,-446.6"/>
<text text-anchor="start" x="53.2" y="-458.8" font-family="Arial" font-size="14.00">metadata </text>
<text text-anchor="start" x="115.46" y="-458.8" font-family="Arial" font-size="14.00" fill="#666666">[jsonb]</text>
<polygon fill="none" stroke="black" points="46.2,-415.8 46.2,-446.6 395.52,-446.6 395.52,-415.8 46.2,-415.8"/>
<text text-anchor="start" x="53.2" y="-428" font-family="Arial" font-size="14.00">title </text>
<text text-anchor="start" x="78.88" y="-428" font-family="Arial" font-size="14.00" fill="#666666">[text]</text>
<polygon fill="none" stroke="black" points="46.2,-385 46.2,-415.8 395.52,-415.8 395.52,-385 46.2,-385"/>
<text text-anchor="start" x="53.2" y="-397.2" font-family="Arial" font-size="14.00">akas </text>
<text text-anchor="start" x="86.66" y="-397.2" font-family="Arial" font-size="14.00" fill="#666666">[jsonb]</text>
<polygon fill="none" stroke="black" points="46.2,-354.2 46.2,-385 395.52,-385 395.52,-354.2 46.2,-354.2"/>
<text text-anchor="start" x="53.2" y="-366.4" font-family="Arial" font-size="14.00">region </text>
<text text-anchor="start" x="96.01" y="-366.4" font-family="Arial" font-size="14.00" fill="#666666">[text]</text>
<polygon fill="none" stroke="black" points="46.2,-323.4 46.2,-354.2 395.52,-354.2 395.52,-323.4 46.2,-323.4"/>
<text text-anchor="start" x="53.2" y="-335.6" font-family="Arial" font-size="14.00">resource_group </text>
<text text-anchor="start" x="155.15" y="-335.6" font-family="Arial" font-size="14.00" fill="#666666">[text]</text>
<polygon fill="none" stroke="black" points="46.2,-292.6 46.2,-323.4 395.52,-323.4 395.52,-292.6 46.2,-292.6"/>
<text text-anchor="start" x="53.2" y="-304.8" font-family="Arial" font-size="14.00">cloud_environment </text>
<text text-anchor="start" x="175.39" y="-304.8" font-family="Arial" font-size="14.00" fill="#666666">[text]</text>
<polygon fill="none" stroke="black" points="46.2,-261.8 46.2,-292.6 395.52,-292.6 395.52,-261.8 46.2,-261.8"/>
<text text-anchor="start" x="53.2" y="-274" font-family="Arial" font-size="14.00">subscription_id </text>
<text text-anchor="start" x="150.48" y="-274" font-family="Arial" font-size="14.00" fill="#666666">[text]</text>
<polygon fill="none" stroke="black" points="46.2,-231 46.2,-261.8 395.52,-261.8 395.52,-231 46.2,-231"/>
<text text-anchor="start" x="53.2" y="-243.2" font-family="Arial" font-size="14.00">og_account_id </text>
<text text-anchor="start" x="148.16" y="-243.2" font-family="Arial" font-size="14.00" fill="#666666">[text]</text>
<polygon fill="none" stroke="black" points="46.2,-200.2 46.2,-231 395.52,-231 395.52,-200.2 46.2,-200.2"/>
<text text-anchor="start" x="53.2" y="-212.4" font-family="Arial" font-size="14.00">og_resource_id </text>
<text text-anchor="start" x="153.6" y="-212.4" font-family="Arial" font-size="14.00" fill="#666666">[text]</text>
<polygon fill="none" stroke="black" points="46.2,-169.4 46.2,-200.2 395.52,-200.2 395.52,-169.4 46.2,-169.4"/>
<text text-anchor="start" x="53.2" y="-181.6" font-family="Arial" font-size="14.00">kaytu_metadata </text>
<text text-anchor="start" x="156.71" y="-181.6" font-family="Arial" font-size="14.00" fill="#666666">[text]</text>
<polygon fill="none" stroke="black" points="46.2,-138.6 46.2,-169.4 395.52,-169.4 395.52,-138.6 46.2,-138.6"/>
<text text-anchor="start" x="53.2" y="-150.8" font-family="Arial" font-size="14.00">kaytu_description </text>
<text text-anchor="start" x="166.04" y="-150.8" font-family="Arial" font-size="14.00" fill="#666666">[jsonb]</text>
<polygon fill="none" stroke="black" points="46.2,-107.8 46.2,-138.6 395.52,-138.6 395.52,-107.8 46.2,-107.8"/>
<text text-anchor="start" x="53.2" y="-120" font-family="Arial" font-size="14.00">sp_connection_name </text>
<text text-anchor="start" x="190.19" y="-120" font-family="Arial" font-size="14.00" fill="#666666">[text]</text>
<polygon fill="none" stroke="black" points="46.2,-77 46.2,-107.8 395.52,-107.8 395.52,-77 46.2,-77"/>
<text text-anchor="start" x="53.2" y="-89.2" font-family="Arial" font-size="14.00">sp_ctx </text>
<text text-anchor="start" x="97.55" y="-89.2" font-family="Arial" font-size="14.00" fill="#666666">[jsonb]</text>
<polygon fill="none" stroke="black" points="46.2,-46.2 46.2,-77 395.52,-77 395.52,-46.2 46.2,-46.2"/>
<text text-anchor="start" x="53.2" y="-58.4" font-family="Arial" font-size="14.00">_ctx </text>
<text text-anchor="start" x="82.77" y="-58.4" font-family="Arial" font-size="14.00" fill="#666666">[jsonb]</text>
<polygon fill="none" stroke="black" stroke-width="3" points="44.7,-44.7 44.7,-1808.1 397.02,-1808.1 397.02,-44.7 44.7,-44.7"/>
</g>
</g>
</svg>
