<?xml version="1.0" encoding="UTF-8" standalone="no"?>
<!DOCTYPE svg PUBLIC "-//W3C//DTD SVG 1.1//EN"
 "http://www.w3.org/Graphics/SVG/1.1/DTD/svg11.dtd">
<!-- Generated by graphviz version 12.1.2 (20240928.0832)
 -->
<!-- Title: azure.azure_compute_disk_metric_write_ops_hourly Pages: 1 -->
<svg width="649pt" height="567pt"
 viewBox="0.00 0.00 648.69 567.20" xmlns="http://www.w3.org/2000/svg" xmlns:xlink="http://www.w3.org/1999/xlink">
<g id="graph0" class="graph" transform="scale(1 1) rotate(0) translate(4 563.2)">
<title>azure.azure_compute_disk_metric_write_ops_hourly</title>
<polygon fill="white" stroke="none" points="-4,4 -4,-563.2 644.69,-563.2 644.69,4 -4,4"/>
<!-- azure.azure_compute_disk_metric_write_ops_hourly -->
<g id="node1" class="node">
<title>azure.azure_compute_disk_metric_write_ops_hourly</title>
<polygon fill="#efefef" stroke="none" points="46.2,-477.4 46.2,-513 594.49,-513 594.49,-477.4 46.2,-477.4"/>
<polygon fill="none" stroke="black" points="46.2,-477.4 46.2,-513 594.49,-513 594.49,-477.4 46.2,-477.4"/>
<text text-anchor="start" x="53.2" y="-490.8" font-family="Arial Bold" font-size="18.00">azure.azure_compute_disk_metric_write_ops_hourly</text>
<text text-anchor="start" x="436.57" y="-490.8" font-family="Arial" font-size="14.00">    </text>
<text text-anchor="start" x="467.69" y="-490.8" font-family="Arial" font-size="14.00" fill="#666666">[FOREIGN TABLE]</text>
<polygon fill="none" stroke="black" points="46.2,-446.6 46.2,-477.4 594.49,-477.4 594.49,-446.6 46.2,-446.6"/>
<text text-anchor="start" x="53.2" y="-458.8" font-family="Arial" font-size="14.00">name </text>
<text text-anchor="start" x="92.11" y="-458.8" font-family="Arial" font-size="14.00" fill="#666666">[text]</text>
<polygon fill="none" stroke="black" points="46.2,-415.8 46.2,-446.6 594.49,-446.6 594.49,-415.8 46.2,-415.8"/>
<text text-anchor="start" x="53.2" y="-428" font-family="Arial" font-size="14.00">maximum </text>
<text text-anchor="start" x="117.76" y="-428" font-family="Arial" font-size="14.00" fill="#666666">[double precision]</text>
<polygon fill="none" stroke="black" points="46.2,-385 46.2,-415.8 594.49,-415.8 594.49,-385 46.2,-385"/>
<text text-anchor="start" x="53.2" y="-397.2" font-family="Arial" font-size="14.00">minimum </text>
<text text-anchor="start" x="113.87" y="-397.2" font-family="Arial" font-size="14.00" fill="#666666">[double precision]</text>
<polygon fill="none" stroke="black" points="46.2,-354.2 46.2,-385 594.49,-385 594.49,-354.2 46.2,-354.2"/>
<text text-anchor="start" x="53.2" y="-366.4" font-family="Arial" font-size="14.00">average </text>
<text text-anchor="start" x="107.68" y="-366.4" font-family="Arial" font-size="14.00" fill="#666666">[double precision]</text>
<polygon fill="none" stroke="black" points="46.2,-323.4 46.2,-354.2 594.49,-354.2 594.49,-323.4 46.2,-323.4"/>
<text text-anchor="start" x="53.2" y="-335.6" font-family="Arial" font-size="14.00">sample_count </text>
<text text-anchor="start" x="144.25" y="-335.6" font-family="Arial" font-size="14.00" fill="#666666">[double precision]</text>
<polygon fill="none" stroke="black" points="46.2,-292.6 46.2,-323.4 594.49,-323.4 594.49,-292.6 46.2,-292.6"/>
<text text-anchor="start" x="53.2" y="-304.8" font-family="Arial" font-size="14.00">sum </text>
<text text-anchor="start" x="83.54" y="-304.8" font-family="Arial" font-size="14.00" fill="#666666">[double precision]</text>
<polygon fill="none" stroke="black" points="46.2,-261.8 46.2,-292.6 594.49,-292.6 594.49,-261.8 46.2,-261.8"/>
<text text-anchor="start" x="53.2" y="-274" font-family="Arial" font-size="14.00">timestamp </text>
<text text-anchor="start" x="121.66" y="-274" font-family="Arial" font-size="14.00" fill="#666666">[timestamp with time zone]</text>
<polygon fill="none" stroke="black" points="46.2,-231 46.2,-261.8 594.49,-261.8 594.49,-231 46.2,-231"/>
<text text-anchor="start" x="53.2" y="-243.2" font-family="Arial" font-size="14.00">unit </text>
<text text-anchor="start" x="79.66" y="-243.2" font-family="Arial" font-size="14.00" fill="#666666">[text]</text>
<polygon fill="none" stroke="black" points="46.2,-200.2 46.2,-231 594.49,-231 594.49,-200.2 46.2,-200.2"/>
<text text-anchor="start" x="53.2" y="-212.4" font-family="Arial" font-size="14.00">cloud_environment </text>
<text text-anchor="start" x="175.39" y="-212.4" font-family="Arial" font-size="14.00" fill="#666666">[text]</text>
<polygon fill="none" stroke="black" points="46.2,-169.4 46.2,-200.2 594.49,-200.2 594.49,-169.4 46.2,-169.4"/>
<text text-anchor="start" x="53.2" y="-181.6" font-family="Arial" font-size="14.00">resource_group </text>
<text text-anchor="start" x="155.15" y="-181.6" font-family="Arial" font-size="14.00" fill="#666666">[text]</text>
<polygon fill="none" stroke="black" points="46.2,-138.6 46.2,-169.4 594.49,-169.4 594.49,-138.6 46.2,-138.6"/>
<text text-anchor="start" x="53.2" y="-150.8" font-family="Arial" font-size="14.00">subscription_id </text>
<text text-anchor="start" x="150.48" y="-150.8" font-family="Arial" font-size="14.00" fill="#666666">[text]</text>
<polygon fill="none" stroke="black" points="46.2,-107.8 46.2,-138.6 594.49,-138.6 594.49,-107.8 46.2,-107.8"/>
<text text-anchor="start" x="53.2" y="-120" font-family="Arial" font-size="14.00">sp_connection_name </text>
<text text-anchor="start" x="190.19" y="-120" font-family="Arial" font-size="14.00" fill="#666666">[text]</text>
<polygon fill="none" stroke="black" points="46.2,-77 46.2,-107.8 594.49,-107.8 594.49,-77 46.2,-77"/>
<text text-anchor="start" x="53.2" y="-89.2" font-family="Arial" font-size="14.00">sp_ctx </text>
<text text-anchor="start" x="97.55" y="-89.2" font-family="Arial" font-size="14.00" fill="#666666">[jsonb]</text>
<polygon fill="none" stroke="black" points="46.2,-46.2 46.2,-77 594.49,-77 594.49,-46.2 46.2,-46.2"/>
<text text-anchor="start" x="53.2" y="-58.4" font-family="Arial" font-size="14.00">_ctx </text>
<text text-anchor="start" x="82.77" y="-58.4" font-family="Arial" font-size="14.00" fill="#666666">[jsonb]</text>
<polygon fill="none" stroke="black" stroke-width="3" points="44.7,-44.7 44.7,-514.5 595.99,-514.5 595.99,-44.7 44.7,-44.7"/>
</g>
</g>
</svg>
