<?xml version="1.0" encoding="UTF-8" standalone="no"?>
<!DOCTYPE svg PUBLIC "-//W3C//DTD SVG 1.1//EN"
 "http://www.w3.org/Graphics/SVG/1.1/DTD/svg11.dtd">
<!-- Generated by graphviz version 12.1.2 (20240928.0832)
 -->
<!-- Title: azuread.azuread_group_membership Pages: 1 -->
<svg width="531pt" height="814pt"
 viewBox="0.00 0.00 530.69 813.60" xmlns="http://www.w3.org/2000/svg" xmlns:xlink="http://www.w3.org/1999/xlink">
<g id="graph0" class="graph" transform="scale(1 1) rotate(0) translate(4 809.6)">
<title>azuread.azuread_group_membership</title>
<polygon fill="white" stroke="none" points="-4,4 -4,-809.6 526.69,-809.6 526.69,4 -4,4"/>
<!-- azuread.azuread_group_membership -->
<g id="node1" class="node">
<title>azuread.azuread_group_membership</title>
<polygon fill="#efefef" stroke="none" points="46.2,-723.8 46.2,-759.4 476.49,-759.4 476.49,-723.8 46.2,-723.8"/>
<polygon fill="none" stroke="black" points="46.2,-723.8 46.2,-759.4 476.49,-759.4 476.49,-723.8 46.2,-723.8"/>
<text text-anchor="start" x="53.2" y="-737.2" font-family="Arial Bold" font-size="18.00">azuread.azuread_group_membership</text>
<text text-anchor="start" x="318.58" y="-737.2" font-family="Arial" font-size="14.00">    </text>
<text text-anchor="start" x="349.69" y="-737.2" font-family="Arial" font-size="14.00" fill="#666666">[FOREIGN TABLE]</text>
<polygon fill="none" stroke="black" points="46.2,-693 46.2,-723.8 476.49,-723.8 476.49,-693 46.2,-693"/>
<text text-anchor="start" x="53.2" y="-705.2" font-family="Arial" font-size="14.00">display_name </text>
<text text-anchor="start" x="143.48" y="-705.2" font-family="Arial" font-size="14.00" fill="#666666">[text]</text>
<polygon fill="none" stroke="black" points="46.2,-662.2 46.2,-693 476.49,-693 476.49,-662.2 46.2,-662.2"/>
<text text-anchor="start" x="53.2" y="-674.4" font-family="Arial" font-size="14.00">id </text>
<text text-anchor="start" x="67.99" y="-674.4" font-family="Arial" font-size="14.00" fill="#666666">[text]</text>
<polygon fill="none" stroke="black" points="46.2,-631.4 46.2,-662.2 476.49,-662.2 476.49,-631.4 46.2,-631.4"/>
<text text-anchor="start" x="53.2" y="-643.6" font-family="Arial" font-size="14.00">group_id </text>
<text text-anchor="start" x="111.58" y="-643.6" font-family="Arial" font-size="14.00" fill="#666666">[text]</text>
<polygon fill="none" stroke="black" points="46.2,-600.6 46.2,-631.4 476.49,-631.4 476.49,-600.6 46.2,-600.6"/>
<text text-anchor="start" x="53.2" y="-612.8" font-family="Arial" font-size="14.00">account_enabled </text>
<text text-anchor="start" x="163.74" y="-612.8" font-family="Arial" font-size="14.00" fill="#666666">[boolean]</text>
<polygon fill="none" stroke="black" points="46.2,-569.8 46.2,-600.6 476.49,-600.6 476.49,-569.8 46.2,-569.8"/>
<text text-anchor="start" x="53.2" y="-582" font-family="Arial" font-size="14.00">user_principal_name </text>
<text text-anchor="start" x="187.05" y="-582" font-family="Arial" font-size="14.00" fill="#666666">[text]</text>
<polygon fill="none" stroke="black" points="46.2,-539 46.2,-569.8 476.49,-569.8 476.49,-539 46.2,-539"/>
<text text-anchor="start" x="53.2" y="-551.2" font-family="Arial" font-size="14.00">user_type </text>
<text text-anchor="start" x="118.57" y="-551.2" font-family="Arial" font-size="14.00" fill="#666666">[text]</text>
<polygon fill="none" stroke="black" points="46.2,-508.2 46.2,-539 476.49,-539 476.49,-508.2 46.2,-508.2"/>
<text text-anchor="start" x="53.2" y="-520.4" font-family="Arial" font-size="14.00">state </text>
<text text-anchor="start" x="87.44" y="-520.4" font-family="Arial" font-size="14.00" fill="#666666">[text]</text>
<polygon fill="none" stroke="black" points="46.2,-477.4 46.2,-508.2 476.49,-508.2 476.49,-477.4 46.2,-477.4"/>
<text text-anchor="start" x="53.2" y="-489.6" font-family="Arial" font-size="14.00">security_identifier </text>
<text text-anchor="start" x="166.03" y="-489.6" font-family="Arial" font-size="14.00" fill="#666666">[text]</text>
<polygon fill="none" stroke="black" points="46.2,-446.6 46.2,-477.4 476.49,-477.4 476.49,-446.6 46.2,-446.6"/>
<text text-anchor="start" x="53.2" y="-458.8" font-family="Arial" font-size="14.00">proxy_addresses </text>
<text text-anchor="start" x="163.7" y="-458.8" font-family="Arial" font-size="14.00" fill="#666666">[text]</text>
<polygon fill="none" stroke="black" points="46.2,-415.8 46.2,-446.6 476.49,-446.6 476.49,-415.8 46.2,-415.8"/>
<text text-anchor="start" x="53.2" y="-428" font-family="Arial" font-size="14.00">mail </text>
<text text-anchor="start" x="82.76" y="-428" font-family="Arial" font-size="14.00" fill="#666666">[text]</text>
<polygon fill="none" stroke="black" points="46.2,-385 46.2,-415.8 476.49,-415.8 476.49,-385 46.2,-385"/>
<text text-anchor="start" x="53.2" y="-397.2" font-family="Arial" font-size="14.00">title </text>
<text text-anchor="start" x="78.88" y="-397.2" font-family="Arial" font-size="14.00" fill="#666666">[text]</text>
<polygon fill="none" stroke="black" points="46.2,-354.2 46.2,-385 476.49,-385 476.49,-354.2 46.2,-354.2"/>
<text text-anchor="start" x="53.2" y="-366.4" font-family="Arial" font-size="14.00">tenant_id </text>
<text text-anchor="start" x="114.7" y="-366.4" font-family="Arial" font-size="14.00" fill="#666666">[text]</text>
<polygon fill="none" stroke="black" points="46.2,-323.4 46.2,-354.2 476.49,-354.2 476.49,-323.4 46.2,-323.4"/>
<text text-anchor="start" x="53.2" y="-335.6" font-family="Arial" font-size="14.00">metadata </text>
<text text-anchor="start" x="115.46" y="-335.6" font-family="Arial" font-size="14.00" fill="#666666">[text]</text>
<polygon fill="none" stroke="black" points="46.2,-292.6 46.2,-323.4 476.49,-323.4 476.49,-292.6 46.2,-292.6"/>
<text text-anchor="start" x="53.2" y="-304.8" font-family="Arial" font-size="14.00">og_account_id </text>
<text text-anchor="start" x="148.16" y="-304.8" font-family="Arial" font-size="14.00" fill="#666666">[text]</text>
<polygon fill="none" stroke="black" points="46.2,-261.8 46.2,-292.6 476.49,-292.6 476.49,-261.8 46.2,-261.8"/>
<text text-anchor="start" x="53.2" y="-274" font-family="Arial" font-size="14.00">og_resource_id </text>
<text text-anchor="start" x="153.6" y="-274" font-family="Arial" font-size="14.00" fill="#666666">[text]</text>
<polygon fill="none" stroke="black" points="46.2,-231 46.2,-261.8 476.49,-261.8 476.49,-231 46.2,-231"/>
<text text-anchor="start" x="53.2" y="-243.2" font-family="Arial" font-size="14.00">cloud_environment </text>
<text text-anchor="start" x="175.39" y="-243.2" font-family="Arial" font-size="14.00" fill="#666666">[text]</text>
<polygon fill="none" stroke="black" points="46.2,-200.2 46.2,-231 476.49,-231 476.49,-200.2 46.2,-200.2"/>
<text text-anchor="start" x="53.2" y="-212.4" font-family="Arial" font-size="14.00">subscription_id </text>
<text text-anchor="start" x="150.48" y="-212.4" font-family="Arial" font-size="14.00" fill="#666666">[text]</text>
<polygon fill="none" stroke="black" points="46.2,-169.4 46.2,-200.2 476.49,-200.2 476.49,-169.4 46.2,-169.4"/>
<text text-anchor="start" x="53.2" y="-181.6" font-family="Arial" font-size="14.00">kaytu_metadata </text>
<text text-anchor="start" x="156.71" y="-181.6" font-family="Arial" font-size="14.00" fill="#666666">[text]</text>
<polygon fill="none" stroke="black" points="46.2,-138.6 46.2,-169.4 476.49,-169.4 476.49,-138.6 46.2,-138.6"/>
<text text-anchor="start" x="53.2" y="-150.8" font-family="Arial" font-size="14.00">kaytu_description </text>
<text text-anchor="start" x="166.04" y="-150.8" font-family="Arial" font-size="14.00" fill="#666666">[jsonb]</text>
<polygon fill="none" stroke="black" points="46.2,-107.8 46.2,-138.6 476.49,-138.6 476.49,-107.8 46.2,-107.8"/>
<text text-anchor="start" x="53.2" y="-120" font-family="Arial" font-size="14.00">sp_connection_name </text>
<text text-anchor="start" x="190.19" y="-120" font-family="Arial" font-size="14.00" fill="#666666">[text]</text>
<polygon fill="none" stroke="black" points="46.2,-77 46.2,-107.8 476.49,-107.8 476.49,-77 46.2,-77"/>
<text text-anchor="start" x="53.2" y="-89.2" font-family="Arial" font-size="14.00">sp_ctx </text>
<text text-anchor="start" x="97.55" y="-89.2" font-family="Arial" font-size="14.00" fill="#666666">[jsonb]</text>
<polygon fill="none" stroke="black" points="46.2,-46.2 46.2,-77 476.49,-77 476.49,-46.2 46.2,-46.2"/>
<text text-anchor="start" x="53.2" y="-58.4" font-family="Arial" font-size="14.00">_ctx </text>
<text text-anchor="start" x="82.77" y="-58.4" font-family="Arial" font-size="14.00" fill="#666666">[jsonb]</text>
<polygon fill="none" stroke="black" stroke-width="3" points="44.7,-44.7 44.7,-760.9 477.99,-760.9 477.99,-44.7 44.7,-44.7"/>
</g>
</g>
</svg>
