<?xml version="1.0" encoding="UTF-8" standalone="no"?>
<!DOCTYPE svg PUBLIC "-//W3C//DTD SVG 1.1//EN"
 "http://www.w3.org/Graphics/SVG/1.1/DTD/svg11.dtd">
<!-- Generated by graphviz version 12.1.2 (20240928.0832)
 -->
<!-- Title: azure.azure_key_vault_managed_hardware_security_module Pages: 1 -->
<svg width="707pt" height="998pt"
 viewBox="0.00 0.00 706.62 998.40" xmlns="http://www.w3.org/2000/svg" xmlns:xlink="http://www.w3.org/1999/xlink">
<g id="graph0" class="graph" transform="scale(1 1) rotate(0) translate(4 994.4)">
<title>azure.azure_key_vault_managed_hardware_security_module</title>
<polygon fill="white" stroke="none" points="-4,4 -4,-994.4 702.62,-994.4 702.62,4 -4,4"/>
<!-- azure.azure_key_vault_managed_hardware_security_module -->
<g id="node1" class="node">
<title>azure.azure_key_vault_managed_hardware_security_module</title>
<polygon fill="#efefef" stroke="none" points="46.2,-908.6 46.2,-944.2 652.42,-944.2 652.42,-908.6 46.2,-908.6"/>
<polygon fill="none" stroke="black" points="46.2,-908.6 46.2,-944.2 652.42,-944.2 652.42,-908.6 46.2,-908.6"/>
<text text-anchor="start" x="53.2" y="-922" font-family="Arial Bold" font-size="18.00">azure.azure_key_vault_managed_hardware_security_module</text>
<text text-anchor="start" x="494.5" y="-922" font-family="Arial" font-size="14.00">    </text>
<text text-anchor="start" x="525.62" y="-922" font-family="Arial" font-size="14.00" fill="#666666">[FOREIGN TABLE]</text>
<polygon fill="none" stroke="black" points="46.2,-877.8 46.2,-908.6 652.42,-908.6 652.42,-877.8 46.2,-877.8"/>
<text text-anchor="start" x="53.2" y="-890" font-family="Arial" font-size="14.00">name </text>
<text text-anchor="start" x="92.11" y="-890" font-family="Arial" font-size="14.00" fill="#666666">[text]</text>
<polygon fill="none" stroke="black" points="46.2,-847 46.2,-877.8 652.42,-877.8 652.42,-847 46.2,-847"/>
<text text-anchor="start" x="53.2" y="-859.2" font-family="Arial" font-size="14.00">id </text>
<text text-anchor="start" x="67.99" y="-859.2" font-family="Arial" font-size="14.00" fill="#666666">[text]</text>
<polygon fill="none" stroke="black" points="46.2,-816.2 46.2,-847 652.42,-847 652.42,-816.2 46.2,-816.2"/>
<text text-anchor="start" x="53.2" y="-828.4" font-family="Arial" font-size="14.00">type </text>
<text text-anchor="start" x="83.55" y="-828.4" font-family="Arial" font-size="14.00" fill="#666666">[text]</text>
<polygon fill="none" stroke="black" points="46.2,-785.4 46.2,-816.2 652.42,-816.2 652.42,-785.4 46.2,-785.4"/>
<text text-anchor="start" x="53.2" y="-797.6" font-family="Arial" font-size="14.00">provisioning_state </text>
<text text-anchor="start" x="169.94" y="-797.6" font-family="Arial" font-size="14.00" fill="#666666">[text]</text>
<polygon fill="none" stroke="black" points="46.2,-754.6 46.2,-785.4 652.42,-785.4 652.42,-754.6 46.2,-754.6"/>
<text text-anchor="start" x="53.2" y="-766.8" font-family="Arial" font-size="14.00">hsm_uri </text>
<text text-anchor="start" x="106.88" y="-766.8" font-family="Arial" font-size="14.00" fill="#666666">[text]</text>
<polygon fill="none" stroke="black" points="46.2,-723.8 46.2,-754.6 652.42,-754.6 652.42,-723.8 46.2,-723.8"/>
<text text-anchor="start" x="53.2" y="-736" font-family="Arial" font-size="14.00">enable_soft_delete </text>
<text text-anchor="start" x="175.41" y="-736" font-family="Arial" font-size="14.00" fill="#666666">[boolean]</text>
<polygon fill="none" stroke="black" points="46.2,-693 46.2,-723.8 652.42,-723.8 652.42,-693 46.2,-693"/>
<text text-anchor="start" x="53.2" y="-705.2" font-family="Arial" font-size="14.00">soft_delete_retention_in_days </text>
<text text-anchor="start" x="243.9" y="-705.2" font-family="Arial" font-size="14.00" fill="#666666">[bigint]</text>
<polygon fill="none" stroke="black" points="46.2,-662.2 46.2,-693 652.42,-693 652.42,-662.2 46.2,-662.2"/>
<text text-anchor="start" x="53.2" y="-674.4" font-family="Arial" font-size="14.00">enable_purge_protection </text>
<text text-anchor="start" x="211.99" y="-674.4" font-family="Arial" font-size="14.00" fill="#666666">[boolean]</text>
<polygon fill="none" stroke="black" points="46.2,-631.4 46.2,-662.2 652.42,-662.2 652.42,-631.4 46.2,-631.4"/>
<text text-anchor="start" x="53.2" y="-643.6" font-family="Arial" font-size="14.00">status_message </text>
<text text-anchor="start" x="159.03" y="-643.6" font-family="Arial" font-size="14.00" fill="#666666">[text]</text>
<polygon fill="none" stroke="black" points="46.2,-600.6 46.2,-631.4 652.42,-631.4 652.42,-600.6 46.2,-600.6"/>
<text text-anchor="start" x="53.2" y="-612.8" font-family="Arial" font-size="14.00">create_mode </text>
<text text-anchor="start" x="138.81" y="-612.8" font-family="Arial" font-size="14.00" fill="#666666">[text]</text>
<polygon fill="none" stroke="black" points="46.2,-569.8 46.2,-600.6 652.42,-600.6 652.42,-569.8 46.2,-569.8"/>
<text text-anchor="start" x="53.2" y="-582" font-family="Arial" font-size="14.00">sku_family </text>
<text text-anchor="start" x="123.22" y="-582" font-family="Arial" font-size="14.00" fill="#666666">[text]</text>
<polygon fill="none" stroke="black" points="46.2,-539 46.2,-569.8 652.42,-569.8 652.42,-539 46.2,-539"/>
<text text-anchor="start" x="53.2" y="-551.2" font-family="Arial" font-size="14.00">sku_name </text>
<text text-anchor="start" x="121.68" y="-551.2" font-family="Arial" font-size="14.00" fill="#666666">[text]</text>
<polygon fill="none" stroke="black" points="46.2,-508.2 46.2,-539 652.42,-539 652.42,-508.2 46.2,-508.2"/>
<text text-anchor="start" x="53.2" y="-520.4" font-family="Arial" font-size="14.00">tenant_id </text>
<text text-anchor="start" x="114.7" y="-520.4" font-family="Arial" font-size="14.00" fill="#666666">[text]</text>
<polygon fill="none" stroke="black" points="46.2,-477.4 46.2,-508.2 652.42,-508.2 652.42,-477.4 46.2,-477.4"/>
<text text-anchor="start" x="53.2" y="-489.6" font-family="Arial" font-size="14.00">diagnostic_settings </text>
<text text-anchor="start" x="176.16" y="-489.6" font-family="Arial" font-size="14.00" fill="#666666">[jsonb]</text>
<polygon fill="none" stroke="black" points="46.2,-446.6 46.2,-477.4 652.42,-477.4 652.42,-446.6 46.2,-446.6"/>
<text text-anchor="start" x="53.2" y="-458.8" font-family="Arial" font-size="14.00">title </text>
<text text-anchor="start" x="78.88" y="-458.8" font-family="Arial" font-size="14.00" fill="#666666">[text]</text>
<polygon fill="none" stroke="black" points="46.2,-415.8 46.2,-446.6 652.42,-446.6 652.42,-415.8 46.2,-415.8"/>
<text text-anchor="start" x="53.2" y="-428" font-family="Arial" font-size="14.00">tags </text>
<text text-anchor="start" x="83.55" y="-428" font-family="Arial" font-size="14.00" fill="#666666">[jsonb]</text>
<polygon fill="none" stroke="black" points="46.2,-385 46.2,-415.8 652.42,-415.8 652.42,-385 46.2,-385"/>
<text text-anchor="start" x="53.2" y="-397.2" font-family="Arial" font-size="14.00">akas </text>
<text text-anchor="start" x="86.66" y="-397.2" font-family="Arial" font-size="14.00" fill="#666666">[jsonb]</text>
<polygon fill="none" stroke="black" points="46.2,-354.2 46.2,-385 652.42,-385 652.42,-354.2 46.2,-354.2"/>
<text text-anchor="start" x="53.2" y="-366.4" font-family="Arial" font-size="14.00">region </text>
<text text-anchor="start" x="96.01" y="-366.4" font-family="Arial" font-size="14.00" fill="#666666">[text]</text>
<polygon fill="none" stroke="black" points="46.2,-323.4 46.2,-354.2 652.42,-354.2 652.42,-323.4 46.2,-323.4"/>
<text text-anchor="start" x="53.2" y="-335.6" font-family="Arial" font-size="14.00">resource_group </text>
<text text-anchor="start" x="155.15" y="-335.6" font-family="Arial" font-size="14.00" fill="#666666">[text]</text>
<polygon fill="none" stroke="black" points="46.2,-292.6 46.2,-323.4 652.42,-323.4 652.42,-292.6 46.2,-292.6"/>
<text text-anchor="start" x="53.2" y="-304.8" font-family="Arial" font-size="14.00">cloud_environment </text>
<text text-anchor="start" x="175.39" y="-304.8" font-family="Arial" font-size="14.00" fill="#666666">[text]</text>
<polygon fill="none" stroke="black" points="46.2,-261.8 46.2,-292.6 652.42,-292.6 652.42,-261.8 46.2,-261.8"/>
<text text-anchor="start" x="53.2" y="-274" font-family="Arial" font-size="14.00">subscription_id </text>
<text text-anchor="start" x="150.48" y="-274" font-family="Arial" font-size="14.00" fill="#666666">[text]</text>
<polygon fill="none" stroke="black" points="46.2,-231 46.2,-261.8 652.42,-261.8 652.42,-231 46.2,-231"/>
<text text-anchor="start" x="53.2" y="-243.2" font-family="Arial" font-size="14.00">og_account_id </text>
<text text-anchor="start" x="148.16" y="-243.2" font-family="Arial" font-size="14.00" fill="#666666">[text]</text>
<polygon fill="none" stroke="black" points="46.2,-200.2 46.2,-231 652.42,-231 652.42,-200.2 46.2,-200.2"/>
<text text-anchor="start" x="53.2" y="-212.4" font-family="Arial" font-size="14.00">og_resource_id </text>
<text text-anchor="start" x="153.6" y="-212.4" font-family="Arial" font-size="14.00" fill="#666666">[text]</text>
<polygon fill="none" stroke="black" points="46.2,-169.4 46.2,-200.2 652.42,-200.2 652.42,-169.4 46.2,-169.4"/>
<text text-anchor="start" x="53.2" y="-181.6" font-family="Arial" font-size="14.00">kaytu_metadata </text>
<text text-anchor="start" x="156.71" y="-181.6" font-family="Arial" font-size="14.00" fill="#666666">[text]</text>
<polygon fill="none" stroke="black" points="46.2,-138.6 46.2,-169.4 652.42,-169.4 652.42,-138.6 46.2,-138.6"/>
<text text-anchor="start" x="53.2" y="-150.8" font-family="Arial" font-size="14.00">kaytu_description </text>
<text text-anchor="start" x="166.04" y="-150.8" font-family="Arial" font-size="14.00" fill="#666666">[jsonb]</text>
<polygon fill="none" stroke="black" points="46.2,-107.8 46.2,-138.6 652.42,-138.6 652.42,-107.8 46.2,-107.8"/>
<text text-anchor="start" x="53.2" y="-120" font-family="Arial" font-size="14.00">sp_connection_name </text>
<text text-anchor="start" x="190.19" y="-120" font-family="Arial" font-size="14.00" fill="#666666">[text]</text>
<polygon fill="none" stroke="black" points="46.2,-77 46.2,-107.8 652.42,-107.8 652.42,-77 46.2,-77"/>
<text text-anchor="start" x="53.2" y="-89.2" font-family="Arial" font-size="14.00">sp_ctx </text>
<text text-anchor="start" x="97.55" y="-89.2" font-family="Arial" font-size="14.00" fill="#666666">[jsonb]</text>
<polygon fill="none" stroke="black" points="46.2,-46.2 46.2,-77 652.42,-77 652.42,-46.2 46.2,-46.2"/>
<text text-anchor="start" x="53.2" y="-58.4" font-family="Arial" font-size="14.00">_ctx </text>
<text text-anchor="start" x="82.77" y="-58.4" font-family="Arial" font-size="14.00" fill="#666666">[jsonb]</text>
<polygon fill="none" stroke="black" stroke-width="3" points="44.7,-44.7 44.7,-945.7 653.92,-945.7 653.92,-44.7 44.7,-44.7"/>
</g>
</g>
</svg>
