<?xml version="1.0" encoding="UTF-8" standalone="no"?>
<!DOCTYPE svg PUBLIC "-//W3C//DTD SVG 1.1//EN"
 "http://www.w3.org/Graphics/SVG/1.1/DTD/svg11.dtd">
<!-- Generated by graphviz version 12.1.2 (20240928.0832)
 -->
<!-- Title: azure.azure_api_management Pages: 1 -->
<svg width="480pt" height="1738pt"
 viewBox="0.00 0.00 479.69 1737.60" xmlns="http://www.w3.org/2000/svg" xmlns:xlink="http://www.w3.org/1999/xlink">
<g id="graph0" class="graph" transform="scale(1 1) rotate(0) translate(4 1733.6)">
<title>azure.azure_api_management</title>
<polygon fill="white" stroke="none" points="-4,4 -4,-1733.6 475.69,-1733.6 475.69,4 -4,4"/>
<!-- azure.azure_api_management -->
<g id="node1" class="node">
<title>azure.azure_api_management</title>
<polygon fill="#efefef" stroke="none" points="46.2,-1647.8 46.2,-1683.4 425.49,-1683.4 425.49,-1647.8 46.2,-1647.8"/>
<polygon fill="none" stroke="black" points="46.2,-1647.8 46.2,-1683.4 425.49,-1683.4 425.49,-1647.8 46.2,-1647.8"/>
<text text-anchor="start" x="53.2" y="-1661.2" font-family="Arial Bold" font-size="18.00">azure.azure_api_management</text>
<text text-anchor="start" x="267.57" y="-1661.2" font-family="Arial" font-size="14.00">    </text>
<text text-anchor="start" x="298.69" y="-1661.2" font-family="Arial" font-size="14.00" fill="#666666">[FOREIGN TABLE]</text>
<polygon fill="none" stroke="black" points="46.2,-1617 46.2,-1647.8 425.49,-1647.8 425.49,-1617 46.2,-1617"/>
<text text-anchor="start" x="53.2" y="-1629.2" font-family="Arial" font-size="14.00">name </text>
<text text-anchor="start" x="92.11" y="-1629.2" font-family="Arial" font-size="14.00" fill="#666666">[text]</text>
<polygon fill="none" stroke="black" points="46.2,-1586.2 46.2,-1617 425.49,-1617 425.49,-1586.2 46.2,-1586.2"/>
<text text-anchor="start" x="53.2" y="-1598.4" font-family="Arial" font-size="14.00">id </text>
<text text-anchor="start" x="67.99" y="-1598.4" font-family="Arial" font-size="14.00" fill="#666666">[text]</text>
<polygon fill="none" stroke="black" points="46.2,-1555.4 46.2,-1586.2 425.49,-1586.2 425.49,-1555.4 46.2,-1555.4"/>
<text text-anchor="start" x="53.2" y="-1567.6" font-family="Arial" font-size="14.00">provisioning_state </text>
<text text-anchor="start" x="169.94" y="-1567.6" font-family="Arial" font-size="14.00" fill="#666666">[text]</text>
<polygon fill="none" stroke="black" points="46.2,-1524.6 46.2,-1555.4 425.49,-1555.4 425.49,-1524.6 46.2,-1524.6"/>
<text text-anchor="start" x="53.2" y="-1536.8" font-family="Arial" font-size="14.00">type </text>
<text text-anchor="start" x="83.55" y="-1536.8" font-family="Arial" font-size="14.00" fill="#666666">[text]</text>
<polygon fill="none" stroke="black" points="46.2,-1493.8 46.2,-1524.6 425.49,-1524.6 425.49,-1493.8 46.2,-1493.8"/>
<text text-anchor="start" x="53.2" y="-1506" font-family="Arial" font-size="14.00">created_at_utc </text>
<text text-anchor="start" x="149.71" y="-1506" font-family="Arial" font-size="14.00" fill="#666666">[timestamp with time zone]</text>
<polygon fill="none" stroke="black" points="46.2,-1463 46.2,-1493.8 425.49,-1493.8 425.49,-1463 46.2,-1463"/>
<text text-anchor="start" x="53.2" y="-1475.2" font-family="Arial" font-size="14.00">developer_portal_url </text>
<text text-anchor="start" x="184.73" y="-1475.2" font-family="Arial" font-size="14.00" fill="#666666">[text]</text>
<polygon fill="none" stroke="black" points="46.2,-1432.2 46.2,-1463 425.49,-1463 425.49,-1432.2 46.2,-1432.2"/>
<text text-anchor="start" x="53.2" y="-1444.4" font-family="Arial" font-size="14.00">disable_gateway </text>
<text text-anchor="start" x="161.39" y="-1444.4" font-family="Arial" font-size="14.00" fill="#666666">[boolean]</text>
<polygon fill="none" stroke="black" points="46.2,-1401.4 46.2,-1432.2 425.49,-1432.2 425.49,-1401.4 46.2,-1401.4"/>
<text text-anchor="start" x="53.2" y="-1413.6" font-family="Arial" font-size="14.00">enable_client_certificate </text>
<text text-anchor="start" x="207.3" y="-1413.6" font-family="Arial" font-size="14.00" fill="#666666">[boolean]</text>
<polygon fill="none" stroke="black" points="46.2,-1370.6 46.2,-1401.4 425.49,-1401.4 425.49,-1370.6 46.2,-1370.6"/>
<text text-anchor="start" x="53.2" y="-1382.8" font-family="Arial" font-size="14.00">etag </text>
<text text-anchor="start" x="84.34" y="-1382.8" font-family="Arial" font-size="14.00" fill="#666666">[text]</text>
<polygon fill="none" stroke="black" points="46.2,-1339.8 46.2,-1370.6 425.49,-1370.6 425.49,-1339.8 46.2,-1339.8"/>
<text text-anchor="start" x="53.2" y="-1352" font-family="Arial" font-size="14.00">gateway_regional_url </text>
<text text-anchor="start" x="190.18" y="-1352" font-family="Arial" font-size="14.00" fill="#666666">[text]</text>
<polygon fill="none" stroke="black" points="46.2,-1309 46.2,-1339.8 425.49,-1339.8 425.49,-1309 46.2,-1309"/>
<text text-anchor="start" x="53.2" y="-1321.2" font-family="Arial" font-size="14.00">gateway_url </text>
<text text-anchor="start" x="132.58" y="-1321.2" font-family="Arial" font-size="14.00" fill="#666666">[text]</text>
<polygon fill="none" stroke="black" points="46.2,-1278.2 46.2,-1309 425.49,-1309 425.49,-1278.2 46.2,-1278.2"/>
<text text-anchor="start" x="53.2" y="-1290.4" font-family="Arial" font-size="14.00">identity_principal_id </text>
<text text-anchor="start" x="180.05" y="-1290.4" font-family="Arial" font-size="14.00" fill="#666666">[text]</text>
<polygon fill="none" stroke="black" points="46.2,-1247.4 46.2,-1278.2 425.49,-1278.2 425.49,-1247.4 46.2,-1247.4"/>
<text text-anchor="start" x="53.2" y="-1259.6" font-family="Arial" font-size="14.00">identity_tenant_id </text>
<text text-anchor="start" x="166.84" y="-1259.6" font-family="Arial" font-size="14.00" fill="#666666">[text]</text>
<polygon fill="none" stroke="black" points="46.2,-1216.6 46.2,-1247.4 425.49,-1247.4 425.49,-1216.6 46.2,-1216.6"/>
<text text-anchor="start" x="53.2" y="-1228.8" font-family="Arial" font-size="14.00">identity_type </text>
<text text-anchor="start" x="135.7" y="-1228.8" font-family="Arial" font-size="14.00" fill="#666666">[text]</text>
<polygon fill="none" stroke="black" points="46.2,-1185.8 46.2,-1216.6 425.49,-1216.6 425.49,-1185.8 46.2,-1185.8"/>
<text text-anchor="start" x="53.2" y="-1198" font-family="Arial" font-size="14.00">management_api_url </text>
<text text-anchor="start" x="188.62" y="-1198" font-family="Arial" font-size="14.00" fill="#666666">[text]</text>
<polygon fill="none" stroke="black" points="46.2,-1155 46.2,-1185.8 425.49,-1185.8 425.49,-1155 46.2,-1155"/>
<text text-anchor="start" x="53.2" y="-1167.2" font-family="Arial" font-size="14.00">notification_sender_email </text>
<text text-anchor="start" x="215.85" y="-1167.2" font-family="Arial" font-size="14.00" fill="#666666">[text]</text>
<polygon fill="none" stroke="black" points="46.2,-1124.2 46.2,-1155 425.49,-1155 425.49,-1124.2 46.2,-1124.2"/>
<text text-anchor="start" x="53.2" y="-1136.4" font-family="Arial" font-size="14.00">portal_url </text>
<text text-anchor="start" x="115.45" y="-1136.4" font-family="Arial" font-size="14.00" fill="#666666">[text]</text>
<polygon fill="none" stroke="black" points="46.2,-1093.4 46.2,-1124.2 425.49,-1124.2 425.49,-1093.4 46.2,-1093.4"/>
<text text-anchor="start" x="53.2" y="-1105.6" font-family="Arial" font-size="14.00">publisher_email </text>
<text text-anchor="start" x="155.14" y="-1105.6" font-family="Arial" font-size="14.00" fill="#666666">[text]</text>
<polygon fill="none" stroke="black" points="46.2,-1062.6 46.2,-1093.4 425.49,-1093.4 425.49,-1062.6 46.2,-1062.6"/>
<text text-anchor="start" x="53.2" y="-1074.8" font-family="Arial" font-size="14.00">publisher_name </text>
<text text-anchor="start" x="156.71" y="-1074.8" font-family="Arial" font-size="14.00" fill="#666666">[text]</text>
<polygon fill="none" stroke="black" points="46.2,-1031.8 46.2,-1062.6 425.49,-1062.6 425.49,-1031.8 46.2,-1031.8"/>
<text text-anchor="start" x="53.2" y="-1044" font-family="Arial" font-size="14.00">restore </text>
<text text-anchor="start" x="100.66" y="-1044" font-family="Arial" font-size="14.00" fill="#666666">[boolean]</text>
<polygon fill="none" stroke="black" points="46.2,-1001 46.2,-1031.8 425.49,-1031.8 425.49,-1001 46.2,-1001"/>
<text text-anchor="start" x="53.2" y="-1013.2" font-family="Arial" font-size="14.00">scm_url </text>
<text text-anchor="start" x="106.1" y="-1013.2" font-family="Arial" font-size="14.00" fill="#666666">[text]</text>
<polygon fill="none" stroke="black" points="46.2,-970.2 46.2,-1001 425.49,-1001 425.49,-970.2 46.2,-970.2"/>
<text text-anchor="start" x="53.2" y="-982.4" font-family="Arial" font-size="14.00">sku_capacity </text>
<text text-anchor="start" x="138.02" y="-982.4" font-family="Arial" font-size="14.00" fill="#666666">[bigint]</text>
<polygon fill="none" stroke="black" points="46.2,-939.4 46.2,-970.2 425.49,-970.2 425.49,-939.4 46.2,-939.4"/>
<text text-anchor="start" x="53.2" y="-951.6" font-family="Arial" font-size="14.00">sku_name </text>
<text text-anchor="start" x="121.68" y="-951.6" font-family="Arial" font-size="14.00" fill="#666666">[text]</text>
<polygon fill="none" stroke="black" points="46.2,-908.6 46.2,-939.4 425.49,-939.4 425.49,-908.6 46.2,-908.6"/>
<text text-anchor="start" x="53.2" y="-920.8" font-family="Arial" font-size="14.00">target_provisioning_state </text>
<text text-anchor="start" x="213.52" y="-920.8" font-family="Arial" font-size="14.00" fill="#666666">[text]</text>
<polygon fill="none" stroke="black" points="46.2,-877.8 46.2,-908.6 425.49,-908.6 425.49,-877.8 46.2,-877.8"/>
<text text-anchor="start" x="53.2" y="-890" font-family="Arial" font-size="14.00">virtual_network_configuration_subnet_name </text>
<text text-anchor="start" x="331.82" y="-890" font-family="Arial" font-size="14.00" fill="#666666">[text]</text>
<polygon fill="none" stroke="black" points="46.2,-847 46.2,-877.8 425.49,-877.8 425.49,-847 46.2,-847"/>
<text text-anchor="start" x="53.2" y="-859.2" font-family="Arial" font-size="14.00">virtual_network_configuration_subnet_resource_id </text>
<text text-anchor="start" x="369.95" y="-859.2" font-family="Arial" font-size="14.00" fill="#666666">[text]</text>
<polygon fill="none" stroke="black" points="46.2,-816.2 46.2,-847 425.49,-847 425.49,-816.2 46.2,-816.2"/>
<text text-anchor="start" x="53.2" y="-828.4" font-family="Arial" font-size="14.00">virtual_network_configuration_id </text>
<text text-anchor="start" x="257.87" y="-828.4" font-family="Arial" font-size="14.00" fill="#666666">[text]</text>
<polygon fill="none" stroke="black" points="46.2,-785.4 46.2,-816.2 425.49,-816.2 425.49,-785.4 46.2,-785.4"/>
<text text-anchor="start" x="53.2" y="-797.6" font-family="Arial" font-size="14.00">virtual_network_type </text>
<text text-anchor="start" x="185.49" y="-797.6" font-family="Arial" font-size="14.00" fill="#666666">[text]</text>
<polygon fill="none" stroke="black" points="46.2,-754.6 46.2,-785.4 425.49,-785.4 425.49,-754.6 46.2,-754.6"/>
<text text-anchor="start" x="53.2" y="-766.8" font-family="Arial" font-size="14.00">additional_locations </text>
<text text-anchor="start" x="180.07" y="-766.8" font-family="Arial" font-size="14.00" fill="#666666">[jsonb]</text>
<polygon fill="none" stroke="black" points="46.2,-723.8 46.2,-754.6 425.49,-754.6 425.49,-723.8 46.2,-723.8"/>
<text text-anchor="start" x="53.2" y="-736" font-family="Arial" font-size="14.00">api_version_constraint </text>
<text text-anchor="start" x="197.17" y="-736" font-family="Arial" font-size="14.00" fill="#666666">[jsonb]</text>
<polygon fill="none" stroke="black" points="46.2,-693 46.2,-723.8 425.49,-723.8 425.49,-693 46.2,-693"/>
<text text-anchor="start" x="53.2" y="-705.2" font-family="Arial" font-size="14.00">certificates </text>
<text text-anchor="start" x="124" y="-705.2" font-family="Arial" font-size="14.00" fill="#666666">[jsonb]</text>
<polygon fill="none" stroke="black" points="46.2,-662.2 46.2,-693 425.49,-693 425.49,-662.2 46.2,-662.2"/>
<text text-anchor="start" x="53.2" y="-674.4" font-family="Arial" font-size="14.00">custom_properties </text>
<text text-anchor="start" x="172.25" y="-674.4" font-family="Arial" font-size="14.00" fill="#666666">[jsonb]</text>
<polygon fill="none" stroke="black" points="46.2,-631.4 46.2,-662.2 425.49,-662.2 425.49,-631.4 46.2,-631.4"/>
<text text-anchor="start" x="53.2" y="-643.6" font-family="Arial" font-size="14.00">diagnostic_settings </text>
<text text-anchor="start" x="176.16" y="-643.6" font-family="Arial" font-size="14.00" fill="#666666">[jsonb]</text>
<polygon fill="none" stroke="black" points="46.2,-600.6 46.2,-631.4 425.49,-631.4 425.49,-600.6 46.2,-600.6"/>
<text text-anchor="start" x="53.2" y="-612.8" font-family="Arial" font-size="14.00">host_name_configurations </text>
<text text-anchor="start" x="221.31" y="-612.8" font-family="Arial" font-size="14.00" fill="#666666">[jsonb]</text>
<polygon fill="none" stroke="black" points="46.2,-569.8 46.2,-600.6 425.49,-600.6 425.49,-569.8 46.2,-569.8"/>
<text text-anchor="start" x="53.2" y="-582" font-family="Arial" font-size="14.00">identity_user_assigned_identities </text>
<text text-anchor="start" x="263.34" y="-582" font-family="Arial" font-size="14.00" fill="#666666">[jsonb]</text>
<polygon fill="none" stroke="black" points="46.2,-539 46.2,-569.8 425.49,-569.8 425.49,-539 46.2,-539"/>
<text text-anchor="start" x="53.2" y="-551.2" font-family="Arial" font-size="14.00">private_ip_addresses </text>
<text text-anchor="start" x="190.17" y="-551.2" font-family="Arial" font-size="14.00" fill="#666666">[jsonb]</text>
<polygon fill="none" stroke="black" points="46.2,-508.2 46.2,-539 425.49,-539 425.49,-508.2 46.2,-508.2"/>
<text text-anchor="start" x="53.2" y="-520.4" font-family="Arial" font-size="14.00">public_ip_addresses </text>
<text text-anchor="start" x="184.73" y="-520.4" font-family="Arial" font-size="14.00" fill="#666666">[jsonb]</text>
<polygon fill="none" stroke="black" points="46.2,-477.4 46.2,-508.2 425.49,-508.2 425.49,-477.4 46.2,-477.4"/>
<text text-anchor="start" x="53.2" y="-489.6" font-family="Arial" font-size="14.00">zones </text>
<text text-anchor="start" x="94.45" y="-489.6" font-family="Arial" font-size="14.00" fill="#666666">[jsonb]</text>
<polygon fill="none" stroke="black" points="46.2,-446.6 46.2,-477.4 425.49,-477.4 425.49,-446.6 46.2,-446.6"/>
<text text-anchor="start" x="53.2" y="-458.8" font-family="Arial" font-size="14.00">title </text>
<text text-anchor="start" x="78.88" y="-458.8" font-family="Arial" font-size="14.00" fill="#666666">[text]</text>
<polygon fill="none" stroke="black" points="46.2,-415.8 46.2,-446.6 425.49,-446.6 425.49,-415.8 46.2,-415.8"/>
<text text-anchor="start" x="53.2" y="-428" font-family="Arial" font-size="14.00">tags </text>
<text text-anchor="start" x="83.55" y="-428" font-family="Arial" font-size="14.00" fill="#666666">[jsonb]</text>
<polygon fill="none" stroke="black" points="46.2,-385 46.2,-415.8 425.49,-415.8 425.49,-385 46.2,-385"/>
<text text-anchor="start" x="53.2" y="-397.2" font-family="Arial" font-size="14.00">akas </text>
<text text-anchor="start" x="86.66" y="-397.2" font-family="Arial" font-size="14.00" fill="#666666">[jsonb]</text>
<polygon fill="none" stroke="black" points="46.2,-354.2 46.2,-385 425.49,-385 425.49,-354.2 46.2,-354.2"/>
<text text-anchor="start" x="53.2" y="-366.4" font-family="Arial" font-size="14.00">region </text>
<text text-anchor="start" x="96.01" y="-366.4" font-family="Arial" font-size="14.00" fill="#666666">[text]</text>
<polygon fill="none" stroke="black" points="46.2,-323.4 46.2,-354.2 425.49,-354.2 425.49,-323.4 46.2,-323.4"/>
<text text-anchor="start" x="53.2" y="-335.6" font-family="Arial" font-size="14.00">resource_group </text>
<text text-anchor="start" x="155.15" y="-335.6" font-family="Arial" font-size="14.00" fill="#666666">[text]</text>
<polygon fill="none" stroke="black" points="46.2,-292.6 46.2,-323.4 425.49,-323.4 425.49,-292.6 46.2,-292.6"/>
<text text-anchor="start" x="53.2" y="-304.8" font-family="Arial" font-size="14.00">cloud_environment </text>
<text text-anchor="start" x="175.39" y="-304.8" font-family="Arial" font-size="14.00" fill="#666666">[text]</text>
<polygon fill="none" stroke="black" points="46.2,-261.8 46.2,-292.6 425.49,-292.6 425.49,-261.8 46.2,-261.8"/>
<text text-anchor="start" x="53.2" y="-274" font-family="Arial" font-size="14.00">subscription_id </text>
<text text-anchor="start" x="150.48" y="-274" font-family="Arial" font-size="14.00" fill="#666666">[text]</text>
<polygon fill="none" stroke="black" points="46.2,-231 46.2,-261.8 425.49,-261.8 425.49,-231 46.2,-231"/>
<text text-anchor="start" x="53.2" y="-243.2" font-family="Arial" font-size="14.00">og_account_id </text>
<text text-anchor="start" x="148.16" y="-243.2" font-family="Arial" font-size="14.00" fill="#666666">[text]</text>
<polygon fill="none" stroke="black" points="46.2,-200.2 46.2,-231 425.49,-231 425.49,-200.2 46.2,-200.2"/>
<text text-anchor="start" x="53.2" y="-212.4" font-family="Arial" font-size="14.00">og_resource_id </text>
<text text-anchor="start" x="153.6" y="-212.4" font-family="Arial" font-size="14.00" fill="#666666">[text]</text>
<polygon fill="none" stroke="black" points="46.2,-169.4 46.2,-200.2 425.49,-200.2 425.49,-169.4 46.2,-169.4"/>
<text text-anchor="start" x="53.2" y="-181.6" font-family="Arial" font-size="14.00">kaytu_metadata </text>
<text text-anchor="start" x="156.71" y="-181.6" font-family="Arial" font-size="14.00" fill="#666666">[text]</text>
<polygon fill="none" stroke="black" points="46.2,-138.6 46.2,-169.4 425.49,-169.4 425.49,-138.6 46.2,-138.6"/>
<text text-anchor="start" x="53.2" y="-150.8" font-family="Arial" font-size="14.00">kaytu_description </text>
<text text-anchor="start" x="166.04" y="-150.8" font-family="Arial" font-size="14.00" fill="#666666">[jsonb]</text>
<polygon fill="none" stroke="black" points="46.2,-107.8 46.2,-138.6 425.49,-138.6 425.49,-107.8 46.2,-107.8"/>
<text text-anchor="start" x="53.2" y="-120" font-family="Arial" font-size="14.00">sp_connection_name </text>
<text text-anchor="start" x="190.19" y="-120" font-family="Arial" font-size="14.00" fill="#666666">[text]</text>
<polygon fill="none" stroke="black" points="46.2,-77 46.2,-107.8 425.49,-107.8 425.49,-77 46.2,-77"/>
<text text-anchor="start" x="53.2" y="-89.2" font-family="Arial" font-size="14.00">sp_ctx </text>
<text text-anchor="start" x="97.55" y="-89.2" font-family="Arial" font-size="14.00" fill="#666666">[jsonb]</text>
<polygon fill="none" stroke="black" points="46.2,-46.2 46.2,-77 425.49,-77 425.49,-46.2 46.2,-46.2"/>
<text text-anchor="start" x="53.2" y="-58.4" font-family="Arial" font-size="14.00">_ctx </text>
<text text-anchor="start" x="82.77" y="-58.4" font-family="Arial" font-size="14.00" fill="#666666">[jsonb]</text>
<polygon fill="none" stroke="black" stroke-width="3" points="44.7,-44.7 44.7,-1684.9 426.99,-1684.9 426.99,-44.7 44.7,-44.7"/>
</g>
</g>
</svg>
