<?xml version="1.0" encoding="UTF-8" standalone="no"?>
<!DOCTYPE svg PUBLIC "-//W3C//DTD SVG 1.1//EN"
 "http://www.w3.org/Graphics/SVG/1.1/DTD/svg11.dtd">
<!-- Generated by graphviz version 12.1.2 (20240928.0832)
 -->
<!-- Title: azure.azure_lighthouse_definition Pages: 1 -->
<svg width="511pt" height="721pt"
 viewBox="0.00 0.00 510.73 721.20" xmlns="http://www.w3.org/2000/svg" xmlns:xlink="http://www.w3.org/1999/xlink">
<g id="graph0" class="graph" transform="scale(1 1) rotate(0) translate(4 717.2)">
<title>azure.azure_lighthouse_definition</title>
<polygon fill="white" stroke="none" points="-4,4 -4,-717.2 506.73,-717.2 506.73,4 -4,4"/>
<!-- azure.azure_lighthouse_definition -->
<g id="node1" class="node">
<title>azure.azure_lighthouse_definition</title>
<polygon fill="#efefef" stroke="none" points="46.2,-631.4 46.2,-667 456.53,-667 456.53,-631.4 46.2,-631.4"/>
<polygon fill="none" stroke="black" points="46.2,-631.4 46.2,-667 456.53,-667 456.53,-631.4 46.2,-631.4"/>
<text text-anchor="start" x="53.2" y="-644.8" font-family="Arial Bold" font-size="18.00">azure.azure_lighthouse_definition</text>
<text text-anchor="start" x="298.61" y="-644.8" font-family="Arial" font-size="14.00">    </text>
<text text-anchor="start" x="329.73" y="-644.8" font-family="Arial" font-size="14.00" fill="#666666">[FOREIGN TABLE]</text>
<polygon fill="none" stroke="black" points="46.2,-600.6 46.2,-631.4 456.53,-631.4 456.53,-600.6 46.2,-600.6"/>
<text text-anchor="start" x="53.2" y="-612.8" font-family="Arial" font-size="14.00">name </text>
<text text-anchor="start" x="92.11" y="-612.8" font-family="Arial" font-size="14.00" fill="#666666">[text]</text>
<polygon fill="none" stroke="black" points="46.2,-569.8 46.2,-600.6 456.53,-600.6 456.53,-569.8 46.2,-569.8"/>
<text text-anchor="start" x="53.2" y="-582" font-family="Arial" font-size="14.00">id </text>
<text text-anchor="start" x="67.99" y="-582" font-family="Arial" font-size="14.00" fill="#666666">[text]</text>
<polygon fill="none" stroke="black" points="46.2,-539 46.2,-569.8 456.53,-569.8 456.53,-539 46.2,-539"/>
<text text-anchor="start" x="53.2" y="-551.2" font-family="Arial" font-size="14.00">registration_definition_id </text>
<text text-anchor="start" x="208.85" y="-551.2" font-family="Arial" font-size="14.00" fill="#666666">[text]</text>
<polygon fill="none" stroke="black" points="46.2,-508.2 46.2,-539 456.53,-539 456.53,-508.2 46.2,-508.2"/>
<text text-anchor="start" x="53.2" y="-520.4" font-family="Arial" font-size="14.00">type </text>
<text text-anchor="start" x="83.55" y="-520.4" font-family="Arial" font-size="14.00" fill="#666666">[text]</text>
<polygon fill="none" stroke="black" points="46.2,-477.4 46.2,-508.2 456.53,-508.2 456.53,-477.4 46.2,-477.4"/>
<text text-anchor="start" x="53.2" y="-489.6" font-family="Arial" font-size="14.00">scope </text>
<text text-anchor="start" x="94.45" y="-489.6" font-family="Arial" font-size="14.00" fill="#666666">[text]</text>
<polygon fill="none" stroke="black" points="46.2,-446.6 46.2,-477.4 456.53,-477.4 456.53,-446.6 46.2,-446.6"/>
<text text-anchor="start" x="53.2" y="-458.8" font-family="Arial" font-size="14.00">description </text>
<text text-anchor="start" x="124.79" y="-458.8" font-family="Arial" font-size="14.00" fill="#666666">[text]</text>
<polygon fill="none" stroke="black" points="46.2,-415.8 46.2,-446.6 456.53,-446.6 456.53,-415.8 46.2,-415.8"/>
<text text-anchor="start" x="53.2" y="-428" font-family="Arial" font-size="14.00">registration_definition_name </text>
<text text-anchor="start" x="232.98" y="-428" font-family="Arial" font-size="14.00" fill="#666666">[text]</text>
<polygon fill="none" stroke="black" points="46.2,-385 46.2,-415.8 456.53,-415.8 456.53,-385 46.2,-385"/>
<text text-anchor="start" x="53.2" y="-397.2" font-family="Arial" font-size="14.00">managed_by_tenant_id </text>
<text text-anchor="start" x="203.43" y="-397.2" font-family="Arial" font-size="14.00" fill="#666666">[text]</text>
<polygon fill="none" stroke="black" points="46.2,-354.2 46.2,-385 456.53,-385 456.53,-354.2 46.2,-354.2"/>
<text text-anchor="start" x="53.2" y="-366.4" font-family="Arial" font-size="14.00">managed_by_tenant_name </text>
<text text-anchor="start" x="227.56" y="-366.4" font-family="Arial" font-size="14.00" fill="#666666">[text]</text>
<polygon fill="none" stroke="black" points="46.2,-323.4 46.2,-354.2 456.53,-354.2 456.53,-323.4 46.2,-323.4"/>
<text text-anchor="start" x="53.2" y="-335.6" font-family="Arial" font-size="14.00">managed_tenant_name </text>
<text text-anchor="start" x="204.99" y="-335.6" font-family="Arial" font-size="14.00" fill="#666666">[text]</text>
<polygon fill="none" stroke="black" points="46.2,-292.6 46.2,-323.4 456.53,-323.4 456.53,-292.6 46.2,-292.6"/>
<text text-anchor="start" x="53.2" y="-304.8" font-family="Arial" font-size="14.00">authorizations </text>
<text text-anchor="start" x="144.25" y="-304.8" font-family="Arial" font-size="14.00" fill="#666666">[jsonb]</text>
<polygon fill="none" stroke="black" points="46.2,-261.8 46.2,-292.6 456.53,-292.6 456.53,-261.8 46.2,-261.8"/>
<text text-anchor="start" x="53.2" y="-274" font-family="Arial" font-size="14.00">eligible_authorizations </text>
<text text-anchor="start" x="195.63" y="-274" font-family="Arial" font-size="14.00" fill="#666666">[jsonb]</text>
<polygon fill="none" stroke="black" points="46.2,-231 46.2,-261.8 456.53,-261.8 456.53,-231 46.2,-231"/>
<text text-anchor="start" x="53.2" y="-243.2" font-family="Arial" font-size="14.00">plan </text>
<text text-anchor="start" x="83.56" y="-243.2" font-family="Arial" font-size="14.00" fill="#666666">[jsonb]</text>
<polygon fill="none" stroke="black" points="46.2,-200.2 46.2,-231 456.53,-231 456.53,-200.2 46.2,-200.2"/>
<text text-anchor="start" x="53.2" y="-212.4" font-family="Arial" font-size="14.00">title </text>
<text text-anchor="start" x="78.88" y="-212.4" font-family="Arial" font-size="14.00" fill="#666666">[text]</text>
<polygon fill="none" stroke="black" points="46.2,-169.4 46.2,-200.2 456.53,-200.2 456.53,-169.4 46.2,-169.4"/>
<text text-anchor="start" x="53.2" y="-181.6" font-family="Arial" font-size="14.00">akas </text>
<text text-anchor="start" x="86.66" y="-181.6" font-family="Arial" font-size="14.00" fill="#666666">[jsonb]</text>
<polygon fill="none" stroke="black" points="46.2,-138.6 46.2,-169.4 456.53,-169.4 456.53,-138.6 46.2,-138.6"/>
<text text-anchor="start" x="53.2" y="-150.8" font-family="Arial" font-size="14.00">resource_group </text>
<text text-anchor="start" x="155.15" y="-150.8" font-family="Arial" font-size="14.00" fill="#666666">[text]</text>
<polygon fill="none" stroke="black" points="46.2,-107.8 46.2,-138.6 456.53,-138.6 456.53,-107.8 46.2,-107.8"/>
<text text-anchor="start" x="53.2" y="-120" font-family="Arial" font-size="14.00">sp_connection_name </text>
<text text-anchor="start" x="190.19" y="-120" font-family="Arial" font-size="14.00" fill="#666666">[text]</text>
<polygon fill="none" stroke="black" points="46.2,-77 46.2,-107.8 456.53,-107.8 456.53,-77 46.2,-77"/>
<text text-anchor="start" x="53.2" y="-89.2" font-family="Arial" font-size="14.00">sp_ctx </text>
<text text-anchor="start" x="97.55" y="-89.2" font-family="Arial" font-size="14.00" fill="#666666">[jsonb]</text>
<polygon fill="none" stroke="black" points="46.2,-46.2 46.2,-77 456.53,-77 456.53,-46.2 46.2,-46.2"/>
<text text-anchor="start" x="53.2" y="-58.4" font-family="Arial" font-size="14.00">_ctx </text>
<text text-anchor="start" x="82.77" y="-58.4" font-family="Arial" font-size="14.00" fill="#666666">[jsonb]</text>
<polygon fill="none" stroke="black" stroke-width="3" points="44.7,-44.7 44.7,-668.5 458.03,-668.5 458.03,-44.7 44.7,-44.7"/>
</g>
</g>
</svg>
