<?xml version="1.0" encoding="UTF-8" standalone="no"?>
<!DOCTYPE svg PUBLIC "-//W3C//DTD SVG 1.1//EN"
 "http://www.w3.org/Graphics/SVG/1.1/DTD/svg11.dtd">
<!-- Generated by graphviz version 12.1.2 (20240928.0832)
 -->
<!-- Title: azuread.azuread_service_principal Pages: 1 -->
<svg width="515pt" height="1306pt"
 viewBox="0.00 0.00 514.66 1306.40" xmlns="http://www.w3.org/2000/svg" xmlns:xlink="http://www.w3.org/1999/xlink">
<g id="graph0" class="graph" transform="scale(1 1) rotate(0) translate(4 1302.4)">
<title>azuread.azuread_service_principal</title>
<polygon fill="white" stroke="none" points="-4,4 -4,-1302.4 510.66,-1302.4 510.66,4 -4,4"/>
<!-- azuread.azuread_service_principal -->
<g id="node1" class="node">
<title>azuread.azuread_service_principal</title>
<polygon fill="#efefef" stroke="none" points="46.2,-1216.6 46.2,-1252.2 460.46,-1252.2 460.46,-1216.6 46.2,-1216.6"/>
<polygon fill="none" stroke="black" points="46.2,-1216.6 46.2,-1252.2 460.46,-1252.2 460.46,-1216.6 46.2,-1216.6"/>
<text text-anchor="start" x="53.2" y="-1230" font-family="Arial Bold" font-size="18.00">azuread.azuread_service_principal</text>
<text text-anchor="start" x="302.55" y="-1230" font-family="Arial" font-size="14.00">    </text>
<text text-anchor="start" x="333.66" y="-1230" font-family="Arial" font-size="14.00" fill="#666666">[FOREIGN TABLE]</text>
<polygon fill="none" stroke="black" points="46.2,-1185.8 46.2,-1216.6 460.46,-1216.6 460.46,-1185.8 46.2,-1185.8"/>
<text text-anchor="start" x="53.2" y="-1198" font-family="Arial" font-size="14.00">id </text>
<text text-anchor="start" x="67.99" y="-1198" font-family="Arial" font-size="14.00" fill="#666666">[text]</text>
<polygon fill="none" stroke="black" points="46.2,-1155 46.2,-1185.8 460.46,-1185.8 460.46,-1155 46.2,-1155"/>
<text text-anchor="start" x="53.2" y="-1167.2" font-family="Arial" font-size="14.00">display_name </text>
<text text-anchor="start" x="143.48" y="-1167.2" font-family="Arial" font-size="14.00" fill="#666666">[text]</text>
<polygon fill="none" stroke="black" points="46.2,-1124.2 46.2,-1155 460.46,-1155 460.46,-1124.2 46.2,-1124.2"/>
<text text-anchor="start" x="53.2" y="-1136.4" font-family="Arial" font-size="14.00">app_id </text>
<text text-anchor="start" x="99.13" y="-1136.4" font-family="Arial" font-size="14.00" fill="#666666">[text]</text>
<polygon fill="none" stroke="black" points="46.2,-1093.4 46.2,-1124.2 460.46,-1124.2 460.46,-1093.4 46.2,-1093.4"/>
<text text-anchor="start" x="53.2" y="-1105.6" font-family="Arial" font-size="14.00">account_enabled </text>
<text text-anchor="start" x="163.74" y="-1105.6" font-family="Arial" font-size="14.00" fill="#666666">[boolean]</text>
<polygon fill="none" stroke="black" points="46.2,-1062.6 46.2,-1093.4 460.46,-1093.4 460.46,-1062.6 46.2,-1062.6"/>
<text text-anchor="start" x="53.2" y="-1074.8" font-family="Arial" font-size="14.00">app_display_name </text>
<text text-anchor="start" x="174.62" y="-1074.8" font-family="Arial" font-size="14.00" fill="#666666">[text]</text>
<polygon fill="none" stroke="black" points="46.2,-1031.8 46.2,-1062.6 460.46,-1062.6 460.46,-1031.8 46.2,-1031.8"/>
<text text-anchor="start" x="53.2" y="-1044" font-family="Arial" font-size="14.00">app_owner_organization_id </text>
<text text-anchor="start" x="229.11" y="-1044" font-family="Arial" font-size="14.00" fill="#666666">[text]</text>
<polygon fill="none" stroke="black" points="46.2,-1001 46.2,-1031.8 460.46,-1031.8 460.46,-1001 46.2,-1001"/>
<text text-anchor="start" x="53.2" y="-1013.2" font-family="Arial" font-size="14.00">app_role_assignment_required </text>
<text text-anchor="start" x="250.11" y="-1013.2" font-family="Arial" font-size="14.00" fill="#666666">[boolean]</text>
<polygon fill="none" stroke="black" points="46.2,-970.2 46.2,-1001 460.46,-1001 460.46,-970.2 46.2,-970.2"/>
<text text-anchor="start" x="53.2" y="-982.4" font-family="Arial" font-size="14.00">service_principal_type </text>
<text text-anchor="start" x="195.61" y="-982.4" font-family="Arial" font-size="14.00" fill="#666666">[text]</text>
<polygon fill="none" stroke="black" points="46.2,-939.4 46.2,-970.2 460.46,-970.2 460.46,-939.4 46.2,-939.4"/>
<text text-anchor="start" x="53.2" y="-951.6" font-family="Arial" font-size="14.00">sign_in_audience </text>
<text text-anchor="start" x="166.07" y="-951.6" font-family="Arial" font-size="14.00" fill="#666666">[text]</text>
<polygon fill="none" stroke="black" points="46.2,-908.6 46.2,-939.4 460.46,-939.4 460.46,-908.6 46.2,-908.6"/>
<text text-anchor="start" x="53.2" y="-920.8" font-family="Arial" font-size="14.00">app_description </text>
<text text-anchor="start" x="155.94" y="-920.8" font-family="Arial" font-size="14.00" fill="#666666">[text]</text>
<polygon fill="none" stroke="black" points="46.2,-877.8 46.2,-908.6 460.46,-908.6 460.46,-877.8 46.2,-877.8"/>
<text text-anchor="start" x="53.2" y="-890" font-family="Arial" font-size="14.00">description </text>
<text text-anchor="start" x="124.79" y="-890" font-family="Arial" font-size="14.00" fill="#666666">[text]</text>
<polygon fill="none" stroke="black" points="46.2,-847 46.2,-877.8 460.46,-877.8 460.46,-847 46.2,-847"/>
<text text-anchor="start" x="53.2" y="-859.2" font-family="Arial" font-size="14.00">login_url </text>
<text text-anchor="start" x="110.01" y="-859.2" font-family="Arial" font-size="14.00" fill="#666666">[text]</text>
<polygon fill="none" stroke="black" points="46.2,-816.2 46.2,-847 460.46,-847 460.46,-816.2 46.2,-816.2"/>
<text text-anchor="start" x="53.2" y="-828.4" font-family="Arial" font-size="14.00">logout_url </text>
<text text-anchor="start" x="118.58" y="-828.4" font-family="Arial" font-size="14.00" fill="#666666">[text]</text>
<polygon fill="none" stroke="black" points="46.2,-785.4 46.2,-816.2 460.46,-816.2 460.46,-785.4 46.2,-785.4"/>
<text text-anchor="start" x="53.2" y="-797.6" font-family="Arial" font-size="14.00">add_ins </text>
<text text-anchor="start" x="106.13" y="-797.6" font-family="Arial" font-size="14.00" fill="#666666">[jsonb]</text>
<polygon fill="none" stroke="black" points="46.2,-754.6 46.2,-785.4 460.46,-785.4 460.46,-754.6 46.2,-754.6"/>
<text text-anchor="start" x="53.2" y="-766.8" font-family="Arial" font-size="14.00">alternative_names </text>
<text text-anchor="start" x="171.49" y="-766.8" font-family="Arial" font-size="14.00" fill="#666666">[jsonb]</text>
<polygon fill="none" stroke="black" points="46.2,-723.8 46.2,-754.6 460.46,-754.6 460.46,-723.8 46.2,-723.8"/>
<text text-anchor="start" x="53.2" y="-736" font-family="Arial" font-size="14.00">app_roles </text>
<text text-anchor="start" x="118.58" y="-736" font-family="Arial" font-size="14.00" fill="#666666">[jsonb]</text>
<polygon fill="none" stroke="black" points="46.2,-693 46.2,-723.8 460.46,-723.8 460.46,-693 46.2,-693"/>
<text text-anchor="start" x="53.2" y="-705.2" font-family="Arial" font-size="14.00">info </text>
<text text-anchor="start" x="79.66" y="-705.2" font-family="Arial" font-size="14.00" fill="#666666">[jsonb]</text>
<polygon fill="none" stroke="black" points="46.2,-662.2 46.2,-693 460.46,-693 460.46,-662.2 46.2,-662.2"/>
<text text-anchor="start" x="53.2" y="-674.4" font-family="Arial" font-size="14.00">key_credentials </text>
<text text-anchor="start" x="154.37" y="-674.4" font-family="Arial" font-size="14.00" fill="#666666">[jsonb]</text>
<polygon fill="none" stroke="black" points="46.2,-631.4 46.2,-662.2 460.46,-662.2 460.46,-631.4 46.2,-631.4"/>
<text text-anchor="start" x="53.2" y="-643.6" font-family="Arial" font-size="14.00">notification_email_addresses </text>
<text text-anchor="start" x="237.64" y="-643.6" font-family="Arial" font-size="14.00" fill="#666666">[jsonb]</text>
<polygon fill="none" stroke="black" points="46.2,-600.6 46.2,-631.4 460.46,-631.4 460.46,-600.6 46.2,-600.6"/>
<text text-anchor="start" x="53.2" y="-612.8" font-family="Arial" font-size="14.00">owner_ids </text>
<text text-anchor="start" x="120.9" y="-612.8" font-family="Arial" font-size="14.00" fill="#666666">[jsonb]</text>
<polygon fill="none" stroke="black" points="46.2,-569.8 46.2,-600.6 460.46,-600.6 460.46,-569.8 46.2,-569.8"/>
<text text-anchor="start" x="53.2" y="-582" font-family="Arial" font-size="14.00">password_credentials </text>
<text text-anchor="start" x="192.5" y="-582" font-family="Arial" font-size="14.00" fill="#666666">[jsonb]</text>
<polygon fill="none" stroke="black" points="46.2,-539 46.2,-569.8 460.46,-569.8 460.46,-539 46.2,-539"/>
<text text-anchor="start" x="53.2" y="-551.2" font-family="Arial" font-size="14.00">oauth2_permission_scopes </text>
<text text-anchor="start" x="227.53" y="-551.2" font-family="Arial" font-size="14.00" fill="#666666">[jsonb]</text>
<polygon fill="none" stroke="black" points="46.2,-508.2 46.2,-539 460.46,-539 460.46,-508.2 46.2,-508.2"/>
<text text-anchor="start" x="53.2" y="-520.4" font-family="Arial" font-size="14.00">reply_urls </text>
<text text-anchor="start" x="117.78" y="-520.4" font-family="Arial" font-size="14.00" fill="#666666">[jsonb]</text>
<polygon fill="none" stroke="black" points="46.2,-477.4 46.2,-508.2 460.46,-508.2 460.46,-477.4 46.2,-477.4"/>
<text text-anchor="start" x="53.2" y="-489.6" font-family="Arial" font-size="14.00">service_principal_names </text>
<text text-anchor="start" x="211.16" y="-489.6" font-family="Arial" font-size="14.00" fill="#666666">[jsonb]</text>
<polygon fill="none" stroke="black" points="46.2,-446.6 46.2,-477.4 460.46,-477.4 460.46,-446.6 46.2,-446.6"/>
<text text-anchor="start" x="53.2" y="-458.8" font-family="Arial" font-size="14.00">tags_src </text>
<text text-anchor="start" x="110" y="-458.8" font-family="Arial" font-size="14.00" fill="#666666">[jsonb]</text>
<polygon fill="none" stroke="black" points="46.2,-415.8 46.2,-446.6 460.46,-446.6 460.46,-415.8 46.2,-415.8"/>
<text text-anchor="start" x="53.2" y="-428" font-family="Arial" font-size="14.00">tags </text>
<text text-anchor="start" x="83.55" y="-428" font-family="Arial" font-size="14.00" fill="#666666">[jsonb]</text>
<polygon fill="none" stroke="black" points="46.2,-385 46.2,-415.8 460.46,-415.8 460.46,-385 46.2,-385"/>
<text text-anchor="start" x="53.2" y="-397.2" font-family="Arial" font-size="14.00">title </text>
<text text-anchor="start" x="78.88" y="-397.2" font-family="Arial" font-size="14.00" fill="#666666">[text]</text>
<polygon fill="none" stroke="black" points="46.2,-354.2 46.2,-385 460.46,-385 460.46,-354.2 46.2,-354.2"/>
<text text-anchor="start" x="53.2" y="-366.4" font-family="Arial" font-size="14.00">tenant_id </text>
<text text-anchor="start" x="114.7" y="-366.4" font-family="Arial" font-size="14.00" fill="#666666">[text]</text>
<polygon fill="none" stroke="black" points="46.2,-323.4 46.2,-354.2 460.46,-354.2 460.46,-323.4 46.2,-323.4"/>
<text text-anchor="start" x="53.2" y="-335.6" font-family="Arial" font-size="14.00">metadata </text>
<text text-anchor="start" x="115.46" y="-335.6" font-family="Arial" font-size="14.00" fill="#666666">[text]</text>
<polygon fill="none" stroke="black" points="46.2,-292.6 46.2,-323.4 460.46,-323.4 460.46,-292.6 46.2,-292.6"/>
<text text-anchor="start" x="53.2" y="-304.8" font-family="Arial" font-size="14.00">og_account_id </text>
<text text-anchor="start" x="148.16" y="-304.8" font-family="Arial" font-size="14.00" fill="#666666">[text]</text>
<polygon fill="none" stroke="black" points="46.2,-261.8 46.2,-292.6 460.46,-292.6 460.46,-261.8 46.2,-261.8"/>
<text text-anchor="start" x="53.2" y="-274" font-family="Arial" font-size="14.00">og_resource_id </text>
<text text-anchor="start" x="153.6" y="-274" font-family="Arial" font-size="14.00" fill="#666666">[text]</text>
<polygon fill="none" stroke="black" points="46.2,-231 46.2,-261.8 460.46,-261.8 460.46,-231 46.2,-231"/>
<text text-anchor="start" x="53.2" y="-243.2" font-family="Arial" font-size="14.00">cloud_environment </text>
<text text-anchor="start" x="175.39" y="-243.2" font-family="Arial" font-size="14.00" fill="#666666">[text]</text>
<polygon fill="none" stroke="black" points="46.2,-200.2 46.2,-231 460.46,-231 460.46,-200.2 46.2,-200.2"/>
<text text-anchor="start" x="53.2" y="-212.4" font-family="Arial" font-size="14.00">subscription_id </text>
<text text-anchor="start" x="150.48" y="-212.4" font-family="Arial" font-size="14.00" fill="#666666">[text]</text>
<polygon fill="none" stroke="black" points="46.2,-169.4 46.2,-200.2 460.46,-200.2 460.46,-169.4 46.2,-169.4"/>
<text text-anchor="start" x="53.2" y="-181.6" font-family="Arial" font-size="14.00">kaytu_metadata </text>
<text text-anchor="start" x="156.71" y="-181.6" font-family="Arial" font-size="14.00" fill="#666666">[text]</text>
<polygon fill="none" stroke="black" points="46.2,-138.6 46.2,-169.4 460.46,-169.4 460.46,-138.6 46.2,-138.6"/>
<text text-anchor="start" x="53.2" y="-150.8" font-family="Arial" font-size="14.00">kaytu_description </text>
<text text-anchor="start" x="166.04" y="-150.8" font-family="Arial" font-size="14.00" fill="#666666">[jsonb]</text>
<polygon fill="none" stroke="black" points="46.2,-107.8 46.2,-138.6 460.46,-138.6 460.46,-107.8 46.2,-107.8"/>
<text text-anchor="start" x="53.2" y="-120" font-family="Arial" font-size="14.00">sp_connection_name </text>
<text text-anchor="start" x="190.19" y="-120" font-family="Arial" font-size="14.00" fill="#666666">[text]</text>
<polygon fill="none" stroke="black" points="46.2,-77 46.2,-107.8 460.46,-107.8 460.46,-77 46.2,-77"/>
<text text-anchor="start" x="53.2" y="-89.2" font-family="Arial" font-size="14.00">sp_ctx </text>
<text text-anchor="start" x="97.55" y="-89.2" font-family="Arial" font-size="14.00" fill="#666666">[jsonb]</text>
<polygon fill="none" stroke="black" points="46.2,-46.2 46.2,-77 460.46,-77 460.46,-46.2 46.2,-46.2"/>
<text text-anchor="start" x="53.2" y="-58.4" font-family="Arial" font-size="14.00">_ctx </text>
<text text-anchor="start" x="82.77" y="-58.4" font-family="Arial" font-size="14.00" fill="#666666">[jsonb]</text>
<polygon fill="none" stroke="black" stroke-width="3" points="44.7,-44.7 44.7,-1253.7 461.96,-1253.7 461.96,-44.7 44.7,-44.7"/>
</g>
</g>
</svg>
