<?xml version="1.0" encoding="UTF-8" standalone="no"?>
<!DOCTYPE svg PUBLIC "-//W3C//DTD SVG 1.1//EN"
 "http://www.w3.org/Graphics/SVG/1.1/DTD/svg11.dtd">
<!-- Generated by graphviz version 12.1.2 (20240928.0832)
 -->
<!-- Title: opengovernance.pennywise_cost_estimate Pages: 1 -->
<svg width="572pt" height="321pt"
 viewBox="0.00 0.00 571.71 320.80" xmlns="http://www.w3.org/2000/svg" xmlns:xlink="http://www.w3.org/1999/xlink">
<g id="graph0" class="graph" transform="scale(1 1) rotate(0) translate(4 316.8)">
<title>opengovernance.pennywise_cost_estimate</title>
<polygon fill="white" stroke="none" points="-4,4 -4,-316.8 567.71,-316.8 567.71,4 -4,4"/>
<!-- opengovernance.pennywise_cost_estimate -->
<g id="node1" class="node">
<title>opengovernance.pennywise_cost_estimate</title>
<polygon fill="#efefef" stroke="none" points="46.2,-231 46.2,-266.6 517.51,-266.6 517.51,-231 46.2,-231"/>
<polygon fill="none" stroke="black" points="46.2,-231 46.2,-266.6 517.51,-266.6 517.51,-231 46.2,-231"/>
<text text-anchor="start" x="53.2" y="-244.4" font-family="Arial Bold" font-size="18.00">opengovernance.pennywise_cost_estimate</text>
<text text-anchor="start" x="359.6" y="-244.4" font-family="Arial" font-size="14.00">    </text>
<text text-anchor="start" x="390.71" y="-244.4" font-family="Arial" font-size="14.00" fill="#666666">[FOREIGN TABLE]</text>
<polygon fill="none" stroke="black" points="46.2,-200.2 46.2,-231 517.51,-231 517.51,-200.2 46.2,-200.2"/>
<text text-anchor="start" x="53.2" y="-212.4" font-family="Arial" font-size="14.00">resource_id </text>
<text text-anchor="start" x="130.24" y="-212.4" font-family="Arial" font-size="14.00" fill="#666666">[text]</text>
<polygon fill="none" stroke="black" points="46.2,-169.4 46.2,-200.2 517.51,-200.2 517.51,-169.4 46.2,-169.4"/>
<text text-anchor="start" x="53.2" y="-181.6" font-family="Arial" font-size="14.00">resource_type </text>
<text text-anchor="start" x="145.81" y="-181.6" font-family="Arial" font-size="14.00" fill="#666666">[text]</text>
<polygon fill="none" stroke="black" points="46.2,-138.6 46.2,-169.4 517.51,-169.4 517.51,-138.6 46.2,-138.6"/>
<text text-anchor="start" x="53.2" y="-150.8" font-family="Arial" font-size="14.00">cost </text>
<text text-anchor="start" x="82.77" y="-150.8" font-family="Arial" font-size="14.00" fill="#666666">[double precision]</text>
<polygon fill="none" stroke="black" points="46.2,-107.8 46.2,-138.6 517.51,-138.6 517.51,-107.8 46.2,-107.8"/>
<text text-anchor="start" x="53.2" y="-120" font-family="Arial" font-size="14.00">sp_connection_name </text>
<text text-anchor="start" x="190.19" y="-120" font-family="Arial" font-size="14.00" fill="#666666">[text]</text>
<polygon fill="none" stroke="black" points="46.2,-77 46.2,-107.8 517.51,-107.8 517.51,-77 46.2,-77"/>
<text text-anchor="start" x="53.2" y="-89.2" font-family="Arial" font-size="14.00">sp_ctx </text>
<text text-anchor="start" x="97.55" y="-89.2" font-family="Arial" font-size="14.00" fill="#666666">[jsonb]</text>
<polygon fill="none" stroke="black" points="46.2,-46.2 46.2,-77 517.51,-77 517.51,-46.2 46.2,-46.2"/>
<text text-anchor="start" x="53.2" y="-58.4" font-family="Arial" font-size="14.00">_ctx </text>
<text text-anchor="start" x="82.77" y="-58.4" font-family="Arial" font-size="14.00" fill="#666666">[jsonb]</text>
<polygon fill="none" stroke="black" stroke-width="3" points="44.7,-44.7 44.7,-268.1 519.01,-268.1 519.01,-44.7 44.7,-44.7"/>
</g>
</g>
</svg>
