<?xml version="1.0" encoding="UTF-8" standalone="no"?>
<!DOCTYPE svg PUBLIC "-//W3C//DTD SVG 1.1//EN"
 "http://www.w3.org/Graphics/SVG/1.1/DTD/svg11.dtd">
<!-- Generated by graphviz version 12.1.2 (20240928.0832)
 -->
<!-- Title: steampipe_internal.steampipe_plugin_column Pages: 1 -->
<svg width="571pt" height="413pt"
 viewBox="0.00 0.00 571.31 413.20" xmlns="http://www.w3.org/2000/svg" xmlns:xlink="http://www.w3.org/1999/xlink">
<g id="graph0" class="graph" transform="scale(1 1) rotate(0) translate(4 409.2)">
<title>steampipe_internal.steampipe_plugin_column</title>
<polygon fill="white" stroke="none" points="-4,4 -4,-409.2 567.31,-409.2 567.31,4 -4,4"/>
<!-- steampipe_internal.steampipe_plugin_column -->
<g id="node1" class="node">
<title>steampipe_internal.steampipe_plugin_column</title>
<polygon fill="#efefef" stroke="none" points="46.2,-323.4 46.2,-359 517.11,-359 517.11,-323.4 46.2,-323.4"/>
<polygon fill="none" stroke="black" points="46.2,-323.4 46.2,-359 517.11,-359 517.11,-323.4 46.2,-323.4"/>
<text text-anchor="start" x="53.2" y="-336.8" font-family="Arial Bold" font-size="18.00">steampipe_internal.steampipe_plugin_column</text>
<text text-anchor="start" x="385.62" y="-336.8" font-family="Arial" font-size="14.00">    </text>
<text text-anchor="start" x="416.74" y="-336.8" font-family="Arial" font-size="14.00" fill="#666666">[BASE TABLE]</text>
<polygon fill="none" stroke="black" points="46.2,-292.6 46.2,-323.4 517.11,-323.4 517.11,-292.6 46.2,-292.6"/>
<text text-anchor="start" x="53.2" y="-304.8" font-family="Arial" font-size="14.00">plugin </text>
<text text-anchor="start" x="94.45" y="-304.8" font-family="Arial" font-size="14.00" fill="#666666">[text]</text>
<polygon fill="none" stroke="black" points="46.2,-261.8 46.2,-292.6 517.11,-292.6 517.11,-261.8 46.2,-261.8"/>
<text text-anchor="start" x="53.2" y="-274" font-family="Arial" font-size="14.00">table_name </text>
<text text-anchor="start" x="130.25" y="-274" font-family="Arial" font-size="14.00" fill="#666666">[text]</text>
<polygon fill="none" stroke="black" points="46.2,-231 46.2,-261.8 517.11,-261.8 517.11,-231 46.2,-231"/>
<text text-anchor="start" x="53.2" y="-243.2" font-family="Arial" font-size="14.00">name </text>
<text text-anchor="start" x="92.11" y="-243.2" font-family="Arial" font-size="14.00" fill="#666666">[text]</text>
<polygon fill="none" stroke="black" points="46.2,-200.2 46.2,-231 517.11,-231 517.11,-200.2 46.2,-200.2"/>
<text text-anchor="start" x="53.2" y="-212.4" font-family="Arial" font-size="14.00">type </text>
<text text-anchor="start" x="83.55" y="-212.4" font-family="Arial" font-size="14.00" fill="#666666">[text]</text>
<polygon fill="none" stroke="black" points="46.2,-169.4 46.2,-200.2 517.11,-200.2 517.11,-169.4 46.2,-169.4"/>
<text text-anchor="start" x="53.2" y="-181.6" font-family="Arial" font-size="14.00">description </text>
<text text-anchor="start" x="124.79" y="-181.6" font-family="Arial" font-size="14.00" fill="#666666">[text]</text>
<polygon fill="none" stroke="black" points="46.2,-138.6 46.2,-169.4 517.11,-169.4 517.11,-138.6 46.2,-138.6"/>
<text text-anchor="start" x="53.2" y="-150.8" font-family="Arial" font-size="14.00">list_config </text>
<text text-anchor="start" x="119.34" y="-150.8" font-family="Arial" font-size="14.00" fill="#666666">[jsonb]</text>
<polygon fill="none" stroke="black" points="46.2,-107.8 46.2,-138.6 517.11,-138.6 517.11,-107.8 46.2,-107.8"/>
<text text-anchor="start" x="53.2" y="-120" font-family="Arial" font-size="14.00">get_config </text>
<text text-anchor="start" x="121.7" y="-120" font-family="Arial" font-size="14.00" fill="#666666">[jsonb]</text>
<polygon fill="none" stroke="black" points="46.2,-77 46.2,-107.8 517.11,-107.8 517.11,-77 46.2,-77"/>
<text text-anchor="start" x="53.2" y="-89.2" font-family="Arial" font-size="14.00">hydrate_name </text>
<text text-anchor="start" x="146.59" y="-89.2" font-family="Arial" font-size="14.00" fill="#666666">[text]</text>
<polygon fill="none" stroke="black" points="46.2,-46.2 46.2,-77 517.11,-77 517.11,-46.2 46.2,-46.2"/>
<text text-anchor="start" x="53.2" y="-58.4" font-family="Arial" font-size="14.00">default_value </text>
<text text-anchor="start" x="140.38" y="-58.4" font-family="Arial" font-size="14.00" fill="#666666">[jsonb]</text>
<polygon fill="none" stroke="black" stroke-width="3" points="44.7,-44.7 44.7,-360.5 518.61,-360.5 518.61,-44.7 44.7,-44.7"/>
</g>
</g>
</svg>
