<?xml version="1.0" encoding="UTF-8" standalone="no"?>
<!DOCTYPE svg PUBLIC "-//W3C//DTD SVG 1.1//EN"
 "http://www.w3.org/Graphics/SVG/1.1/DTD/svg11.dtd">
<!-- Generated by graphviz version 12.1.2 (20240928.0832)
 -->
<!-- Title: steampipe_internal.steampipe_scan_metadata_summary Pages: 1 -->
<svg width="671pt" height="321pt"
 viewBox="0.00 0.00 670.68 320.80" xmlns="http://www.w3.org/2000/svg" xmlns:xlink="http://www.w3.org/1999/xlink">
<g id="graph0" class="graph" transform="scale(1 1) rotate(0) translate(4 316.8)">
<title>steampipe_internal.steampipe_scan_metadata_summary</title>
<polygon fill="white" stroke="none" points="-4,4 -4,-316.8 666.68,-316.8 666.68,4 -4,4"/>
<!-- steampipe_internal.steampipe_scan_metadata_summary -->
<g id="node1" class="node">
<title>steampipe_internal.steampipe_scan_metadata_summary</title>
<polygon fill="#efefef" stroke="none" points="46.2,-231 46.2,-266.6 616.48,-266.6 616.48,-231 46.2,-231"/>
<polygon fill="none" stroke="black" points="46.2,-231 46.2,-266.6 616.48,-266.6 616.48,-231 46.2,-231"/>
<text text-anchor="start" x="53.2" y="-244.4" font-family="Arial Bold" font-size="18.00">steampipe_internal.steampipe_scan_metadata_summary</text>
<text text-anchor="start" x="458.56" y="-244.4" font-family="Arial" font-size="14.00">    </text>
<text text-anchor="start" x="489.68" y="-244.4" font-family="Arial" font-size="14.00" fill="#666666">[FOREIGN TABLE]</text>
<polygon fill="none" stroke="black" points="46.2,-200.2 46.2,-231 616.48,-231 616.48,-200.2 46.2,-200.2"/>
<text text-anchor="start" x="53.2" y="-212.4" font-family="Arial" font-size="14.00">cached_rows_fetched </text>
<text text-anchor="start" x="193.29" y="-212.4" font-family="Arial" font-size="14.00" fill="#666666">[bigint]</text>
<polygon fill="none" stroke="black" points="46.2,-169.4 46.2,-200.2 616.48,-200.2 616.48,-169.4 46.2,-169.4"/>
<text text-anchor="start" x="53.2" y="-181.6" font-family="Arial" font-size="14.00">uncached_rows_fetched </text>
<text text-anchor="start" x="208.86" y="-181.6" font-family="Arial" font-size="14.00" fill="#666666">[bigint]</text>
<polygon fill="none" stroke="black" points="46.2,-138.6 46.2,-169.4 616.48,-169.4 616.48,-138.6 46.2,-138.6"/>
<text text-anchor="start" x="53.2" y="-150.8" font-family="Arial" font-size="14.00">hydrate_calls </text>
<text text-anchor="start" x="139.58" y="-150.8" font-family="Arial" font-size="14.00" fill="#666666">[bigint]</text>
<polygon fill="none" stroke="black" points="46.2,-107.8 46.2,-138.6 616.48,-138.6 616.48,-107.8 46.2,-107.8"/>
<text text-anchor="start" x="53.2" y="-120" font-family="Arial" font-size="14.00">duration_ms </text>
<text text-anchor="start" x="134.13" y="-120" font-family="Arial" font-size="14.00" fill="#666666">[bigint]</text>
<polygon fill="none" stroke="black" points="46.2,-77 46.2,-107.8 616.48,-107.8 616.48,-77 46.2,-77"/>
<text text-anchor="start" x="53.2" y="-89.2" font-family="Arial" font-size="14.00">scan_count </text>
<text text-anchor="start" x="128.7" y="-89.2" font-family="Arial" font-size="14.00" fill="#666666">[bigint]</text>
<polygon fill="none" stroke="black" points="46.2,-46.2 46.2,-77 616.48,-77 616.48,-46.2 46.2,-46.2"/>
<text text-anchor="start" x="53.2" y="-58.4" font-family="Arial" font-size="14.00">connection_count </text>
<text text-anchor="start" x="166.84" y="-58.4" font-family="Arial" font-size="14.00" fill="#666666">[bigint]</text>
<polygon fill="none" stroke="black" stroke-width="3" points="44.7,-44.7 44.7,-268.1 617.98,-268.1 617.98,-44.7 44.7,-44.7"/>
</g>
</g>
</svg>
