<?xml version="1.0" encoding="UTF-8" standalone="no"?>
<!DOCTYPE svg PUBLIC "-//W3C//DTD SVG 1.1//EN"
 "http://www.w3.org/Graphics/SVG/1.1/DTD/svg11.dtd">
<!-- Generated by graphviz version 12.1.2 (20240928.0832)
 -->
<!-- Title: steampipe_internal.steampipe_settings Pages: 1 -->
<svg width="544pt" height="198pt"
 viewBox="0.00 0.00 543.75 197.60" xmlns="http://www.w3.org/2000/svg" xmlns:xlink="http://www.w3.org/1999/xlink">
<g id="graph0" class="graph" transform="scale(1 1) rotate(0) translate(4 193.6)">
<title>steampipe_internal.steampipe_settings</title>
<polygon fill="white" stroke="none" points="-4,4 -4,-193.6 539.75,-193.6 539.75,4 -4,4"/>
<!-- steampipe_internal.steampipe_settings -->
<g id="node1" class="node">
<title>steampipe_internal.steampipe_settings</title>
<polygon fill="#efefef" stroke="none" points="46.2,-107.8 46.2,-143.4 489.55,-143.4 489.55,-107.8 46.2,-107.8"/>
<polygon fill="none" stroke="black" points="46.2,-107.8 46.2,-143.4 489.55,-143.4 489.55,-107.8 46.2,-107.8"/>
<text text-anchor="start" x="53.2" y="-121.2" font-family="Arial Bold" font-size="18.00">steampipe_internal.steampipe_settings</text>
<text text-anchor="start" x="331.63" y="-121.2" font-family="Arial" font-size="14.00">    </text>
<text text-anchor="start" x="362.75" y="-121.2" font-family="Arial" font-size="14.00" fill="#666666">[FOREIGN TABLE]</text>
<polygon fill="none" stroke="black" points="46.2,-77 46.2,-107.8 489.55,-107.8 489.55,-77 46.2,-77"/>
<text text-anchor="start" x="53.2" y="-89.2" font-family="Arial" font-size="14.00">name </text>
<text text-anchor="start" x="92.11" y="-89.2" font-family="Arial" font-size="14.00" fill="#666666">[text]</text>
<polygon fill="none" stroke="black" points="46.2,-46.2 46.2,-77 489.55,-77 489.55,-46.2 46.2,-46.2"/>
<text text-anchor="start" x="53.2" y="-58.4" font-family="Arial" font-size="14.00">value </text>
<text text-anchor="start" x="90.56" y="-58.4" font-family="Arial" font-size="14.00" fill="#666666">[text]</text>
<polygon fill="none" stroke="black" stroke-width="3" points="44.7,-44.7 44.7,-144.9 491.05,-144.9 491.05,-44.7 44.7,-44.7"/>
</g>
</g>
</svg>
