<?xml version="1.0" encoding="UTF-8" standalone="no"?>
<!DOCTYPE svg PUBLIC "-//W3C//DTD SVG 1.1//EN"
 "http://www.w3.org/Graphics/SVG/1.1/DTD/svg11.dtd">
<!-- Generated by graphviz version 12.1.2 (20240928.0832)
 -->
<!-- Title: steampipe_internal.steampipe_connection_state Pages: 1 -->
<svg width="583pt" height="629pt"
 viewBox="0.00 0.00 583.27 628.80" xmlns="http://www.w3.org/2000/svg" xmlns:xlink="http://www.w3.org/1999/xlink">
<g id="graph0" class="graph" transform="scale(1 1) rotate(0) translate(4 624.8)">
<title>steampipe_internal.steampipe_connection_state</title>
<polygon fill="white" stroke="none" points="-4,4 -4,-624.8 579.27,-624.8 579.27,4 -4,4"/>
<!-- steampipe_internal.steampipe_connection_state -->
<g id="node1" class="node">
<title>steampipe_internal.steampipe_connection_state</title>
<polygon fill="#efefef" stroke="none" points="46.2,-539 46.2,-574.6 529.07,-574.6 529.07,-539 46.2,-539"/>
<polygon fill="none" stroke="black" points="46.2,-539 46.2,-574.6 529.07,-574.6 529.07,-539 46.2,-539"/>
<text text-anchor="start" x="53.2" y="-552.4" font-family="Arial Bold" font-size="18.00">steampipe_internal.steampipe_connection_state</text>
<text text-anchor="start" x="397.58" y="-552.4" font-family="Arial" font-size="14.00">    </text>
<text text-anchor="start" x="428.7" y="-552.4" font-family="Arial" font-size="14.00" fill="#666666">[BASE TABLE]</text>
<polygon fill="none" stroke="black" points="46.2,-508.2 46.2,-539 529.07,-539 529.07,-508.2 46.2,-508.2"/>
<text text-anchor="start" x="53.2" y="-520.4" font-family="Arial" font-size="14.00">name </text>
<text text-anchor="start" x="92.11" y="-520.4" font-family="Arial" font-size="14.00" fill="#666666">[text]</text>
<polygon fill="none" stroke="black" points="46.2,-477.4 46.2,-508.2 529.07,-508.2 529.07,-477.4 46.2,-477.4"/>
<text text-anchor="start" x="53.2" y="-489.6" font-family="Arial" font-size="14.00">state </text>
<text text-anchor="start" x="87.44" y="-489.6" font-family="Arial" font-size="14.00" fill="#666666">[text]</text>
<polygon fill="none" stroke="black" points="46.2,-446.6 46.2,-477.4 529.07,-477.4 529.07,-446.6 46.2,-446.6"/>
<text text-anchor="start" x="53.2" y="-458.8" font-family="Arial" font-size="14.00">type </text>
<text text-anchor="start" x="83.55" y="-458.8" font-family="Arial" font-size="14.00" fill="#666666">[text]</text>
<polygon fill="none" stroke="black" points="46.2,-415.8 46.2,-446.6 529.07,-446.6 529.07,-415.8 46.2,-415.8"/>
<text text-anchor="start" x="53.2" y="-428" font-family="Arial" font-size="14.00">connections </text>
<text text-anchor="start" x="131.81" y="-428" font-family="Arial" font-size="14.00" fill="#666666">[text[]]</text>
<polygon fill="none" stroke="black" points="46.2,-385 46.2,-415.8 529.07,-415.8 529.07,-385 46.2,-385"/>
<text text-anchor="start" x="53.2" y="-397.2" font-family="Arial" font-size="14.00">import_schema </text>
<text text-anchor="start" x="152.79" y="-397.2" font-family="Arial" font-size="14.00" fill="#666666">[text]</text>
<polygon fill="none" stroke="black" points="46.2,-354.2 46.2,-385 529.07,-385 529.07,-354.2 46.2,-354.2"/>
<text text-anchor="start" x="53.2" y="-366.4" font-family="Arial" font-size="14.00">error </text>
<text text-anchor="start" x="86.65" y="-366.4" font-family="Arial" font-size="14.00" fill="#666666">[text]</text>
<polygon fill="none" stroke="black" points="46.2,-323.4 46.2,-354.2 529.07,-354.2 529.07,-323.4 46.2,-323.4"/>
<text text-anchor="start" x="53.2" y="-335.6" font-family="Arial" font-size="14.00">plugin </text>
<text text-anchor="start" x="94.45" y="-335.6" font-family="Arial" font-size="14.00" fill="#666666">[text]</text>
<polygon fill="none" stroke="black" points="46.2,-292.6 46.2,-323.4 529.07,-323.4 529.07,-292.6 46.2,-292.6"/>
<text text-anchor="start" x="53.2" y="-304.8" font-family="Arial" font-size="14.00">plugin_instance </text>
<text text-anchor="start" x="154.39" y="-304.8" font-family="Arial" font-size="14.00" fill="#666666">[text]</text>
<polygon fill="none" stroke="black" points="46.2,-261.8 46.2,-292.6 529.07,-292.6 529.07,-261.8 46.2,-261.8"/>
<text text-anchor="start" x="53.2" y="-274" font-family="Arial" font-size="14.00">schema_mode </text>
<text text-anchor="start" x="148.92" y="-274" font-family="Arial" font-size="14.00" fill="#666666">[text]</text>
<polygon fill="none" stroke="black" points="46.2,-231 46.2,-261.8 529.07,-261.8 529.07,-231 46.2,-231"/>
<text text-anchor="start" x="53.2" y="-243.2" font-family="Arial" font-size="14.00">schema_hash </text>
<text text-anchor="start" x="144.25" y="-243.2" font-family="Arial" font-size="14.00" fill="#666666">[text]</text>
<polygon fill="none" stroke="black" points="46.2,-200.2 46.2,-231 529.07,-231 529.07,-200.2 46.2,-200.2"/>
<text text-anchor="start" x="53.2" y="-212.4" font-family="Arial" font-size="14.00">comments_set </text>
<text text-anchor="start" x="148.12" y="-212.4" font-family="Arial" font-size="14.00" fill="#666666">[boolean]</text>
<polygon fill="none" stroke="black" points="46.2,-169.4 46.2,-200.2 529.07,-200.2 529.07,-169.4 46.2,-169.4"/>
<text text-anchor="start" x="53.2" y="-181.6" font-family="Arial" font-size="14.00">connection_mod_time </text>
<text text-anchor="start" x="194.06" y="-181.6" font-family="Arial" font-size="14.00" fill="#666666">[timestamp with time zone]</text>
<polygon fill="none" stroke="black" points="46.2,-138.6 46.2,-169.4 529.07,-169.4 529.07,-138.6 46.2,-138.6"/>
<text text-anchor="start" x="53.2" y="-150.8" font-family="Arial" font-size="14.00">plugin_mod_time </text>
<text text-anchor="start" x="163.71" y="-150.8" font-family="Arial" font-size="14.00" fill="#666666">[timestamp with time zone]</text>
<polygon fill="none" stroke="black" points="46.2,-107.8 46.2,-138.6 529.07,-138.6 529.07,-107.8 46.2,-107.8"/>
<text text-anchor="start" x="53.2" y="-120" font-family="Arial" font-size="14.00">file_name </text>
<text text-anchor="start" x="117.79" y="-120" font-family="Arial" font-size="14.00" fill="#666666">[text]</text>
<polygon fill="none" stroke="black" points="46.2,-77 46.2,-107.8 529.07,-107.8 529.07,-77 46.2,-77"/>
<text text-anchor="start" x="53.2" y="-89.2" font-family="Arial" font-size="14.00">start_line_number </text>
<text text-anchor="start" x="169.15" y="-89.2" font-family="Arial" font-size="14.00" fill="#666666">[integer]</text>
<polygon fill="none" stroke="black" points="46.2,-46.2 46.2,-77 529.07,-77 529.07,-46.2 46.2,-46.2"/>
<text text-anchor="start" x="53.2" y="-58.4" font-family="Arial" font-size="14.00">end_line_number </text>
<text text-anchor="start" x="165.28" y="-58.4" font-family="Arial" font-size="14.00" fill="#666666">[integer]</text>
<polygon fill="none" stroke="black" stroke-width="3" points="44.7,-44.7 44.7,-576.1 530.57,-576.1 530.57,-44.7 44.7,-44.7"/>
</g>
</g>
</svg>
