<?xml version="1.0" encoding="UTF-8" standalone="no"?>
<!DOCTYPE svg PUBLIC "-//W3C//DTD SVG 1.1//EN"
 "http://www.w3.org/Graphics/SVG/1.1/DTD/svg11.dtd">
<!-- Generated by graphviz version 12.1.2 (20240928.0832)
 -->
<!-- Title: steampipe_internal.steampipe_server_settings Pages: 1 -->
<svg width="570pt" height="321pt"
 viewBox="0.00 0.00 570.29 320.80" xmlns="http://www.w3.org/2000/svg" xmlns:xlink="http://www.w3.org/1999/xlink">
<g id="graph0" class="graph" transform="scale(1 1) rotate(0) translate(4 316.8)">
<title>steampipe_internal.steampipe_server_settings</title>
<polygon fill="white" stroke="none" points="-4,4 -4,-316.8 566.29,-316.8 566.29,4 -4,4"/>
<!-- steampipe_internal.steampipe_server_settings -->
<g id="node1" class="node">
<title>steampipe_internal.steampipe_server_settings</title>
<polygon fill="#efefef" stroke="none" points="46.2,-231 46.2,-266.6 516.09,-266.6 516.09,-231 46.2,-231"/>
<polygon fill="none" stroke="black" points="46.2,-231 46.2,-266.6 516.09,-266.6 516.09,-231 46.2,-231"/>
<text text-anchor="start" x="53.2" y="-244.4" font-family="Arial Bold" font-size="18.00">steampipe_internal.steampipe_server_settings</text>
<text text-anchor="start" x="384.6" y="-244.4" font-family="Arial" font-size="14.00">    </text>
<text text-anchor="start" x="415.72" y="-244.4" font-family="Arial" font-size="14.00" fill="#666666">[BASE TABLE]</text>
<polygon fill="none" stroke="black" points="46.2,-200.2 46.2,-231 516.09,-231 516.09,-200.2 46.2,-200.2"/>
<text text-anchor="start" x="53.2" y="-212.4" font-family="Arial" font-size="14.00">start_time </text>
<text text-anchor="start" x="118.55" y="-212.4" font-family="Arial" font-size="14.00" fill="#666666">[timestamp with time zone]</text>
<polygon fill="none" stroke="black" points="46.2,-169.4 46.2,-200.2 516.09,-200.2 516.09,-169.4 46.2,-169.4"/>
<text text-anchor="start" x="53.2" y="-181.6" font-family="Arial" font-size="14.00">steampipe_version </text>
<text text-anchor="start" x="174.6" y="-181.6" font-family="Arial" font-size="14.00" fill="#666666">[text]</text>
<polygon fill="none" stroke="black" points="46.2,-138.6 46.2,-169.4 516.09,-169.4 516.09,-138.6 46.2,-138.6"/>
<text text-anchor="start" x="53.2" y="-150.8" font-family="Arial" font-size="14.00">fdw_version </text>
<text text-anchor="start" x="131.79" y="-150.8" font-family="Arial" font-size="14.00" fill="#666666">[text]</text>
<polygon fill="none" stroke="black" points="46.2,-107.8 46.2,-138.6 516.09,-138.6 516.09,-107.8 46.2,-107.8"/>
<text text-anchor="start" x="53.2" y="-120" font-family="Arial" font-size="14.00">cache_max_ttl </text>
<text text-anchor="start" x="147.36" y="-120" font-family="Arial" font-size="14.00" fill="#666666">[integer]</text>
<polygon fill="none" stroke="black" points="46.2,-77 46.2,-107.8 516.09,-107.8 516.09,-77 46.2,-77"/>
<text text-anchor="start" x="53.2" y="-89.2" font-family="Arial" font-size="14.00">cache_max_size_mb </text>
<text text-anchor="start" x="188.6" y="-89.2" font-family="Arial" font-size="14.00" fill="#666666">[integer]</text>
<polygon fill="none" stroke="black" points="46.2,-46.2 46.2,-77 516.09,-77 516.09,-46.2 46.2,-46.2"/>
<text text-anchor="start" x="53.2" y="-58.4" font-family="Arial" font-size="14.00">cache_enabled </text>
<text text-anchor="start" x="152.06" y="-58.4" font-family="Arial" font-size="14.00" fill="#666666">[boolean]</text>
<polygon fill="none" stroke="black" stroke-width="3" points="44.7,-44.7 44.7,-268.1 517.59,-268.1 517.59,-44.7 44.7,-44.7"/>
</g>
</g>
</svg>
