<?xml version="1.0" encoding="UTF-8" standalone="no"?>
<!DOCTYPE svg PUBLIC "-//W3C//DTD SVG 1.1//EN"
 "http://www.w3.org/Graphics/SVG/1.1/DTD/svg11.dtd">
<!-- Generated by graphviz version 12.1.2 (20240928.0832)
 -->
<!-- Title: steampipe_internal.steampipe_plugin_limiter Pages: 1 -->
<svg width="565pt" height="536pt"
 viewBox="0.00 0.00 565.31 536.40" xmlns="http://www.w3.org/2000/svg" xmlns:xlink="http://www.w3.org/1999/xlink">
<g id="graph0" class="graph" transform="scale(1 1) rotate(0) translate(4 532.4)">
<title>steampipe_internal.steampipe_plugin_limiter</title>
<polygon fill="white" stroke="none" points="-4,4 -4,-532.4 561.31,-532.4 561.31,4 -4,4"/>
<!-- steampipe_internal.steampipe_plugin_limiter -->
<g id="node1" class="node">
<title>steampipe_internal.steampipe_plugin_limiter</title>
<polygon fill="#efefef" stroke="none" points="46.2,-446.6 46.2,-482.2 511.11,-482.2 511.11,-446.6 46.2,-446.6"/>
<polygon fill="none" stroke="black" points="46.2,-446.6 46.2,-482.2 511.11,-482.2 511.11,-446.6 46.2,-446.6"/>
<text text-anchor="start" x="53.2" y="-460" font-family="Arial Bold" font-size="18.00">steampipe_internal.steampipe_plugin_limiter</text>
<text text-anchor="start" x="379.62" y="-460" font-family="Arial" font-size="14.00">    </text>
<text text-anchor="start" x="410.73" y="-460" font-family="Arial" font-size="14.00" fill="#666666">[BASE TABLE]</text>
<polygon fill="none" stroke="black" points="46.2,-415.8 46.2,-446.6 511.11,-446.6 511.11,-415.8 46.2,-415.8"/>
<text text-anchor="start" x="53.2" y="-428" font-family="Arial" font-size="14.00">name </text>
<text text-anchor="start" x="92.11" y="-428" font-family="Arial" font-size="14.00" fill="#666666">[text]</text>
<polygon fill="none" stroke="black" points="46.2,-385 46.2,-415.8 511.11,-415.8 511.11,-385 46.2,-385"/>
<text text-anchor="start" x="53.2" y="-397.2" font-family="Arial" font-size="14.00">plugin </text>
<text text-anchor="start" x="94.45" y="-397.2" font-family="Arial" font-size="14.00" fill="#666666">[text]</text>
<polygon fill="none" stroke="black" points="46.2,-354.2 46.2,-385 511.11,-385 511.11,-354.2 46.2,-354.2"/>
<text text-anchor="start" x="53.2" y="-366.4" font-family="Arial" font-size="14.00">plugin_instance </text>
<text text-anchor="start" x="154.39" y="-366.4" font-family="Arial" font-size="14.00" fill="#666666">[text]</text>
<polygon fill="none" stroke="black" points="46.2,-323.4 46.2,-354.2 511.11,-354.2 511.11,-323.4 46.2,-323.4"/>
<text text-anchor="start" x="53.2" y="-335.6" font-family="Arial" font-size="14.00">source_type </text>
<text text-anchor="start" x="133.36" y="-335.6" font-family="Arial" font-size="14.00" fill="#666666">[text]</text>
<polygon fill="none" stroke="black" points="46.2,-292.6 46.2,-323.4 511.11,-323.4 511.11,-292.6 46.2,-292.6"/>
<text text-anchor="start" x="53.2" y="-304.8" font-family="Arial" font-size="14.00">status </text>
<text text-anchor="start" x="94.44" y="-304.8" font-family="Arial" font-size="14.00" fill="#666666">[text]</text>
<polygon fill="none" stroke="black" points="46.2,-261.8 46.2,-292.6 511.11,-292.6 511.11,-261.8 46.2,-261.8"/>
<text text-anchor="start" x="53.2" y="-274" font-family="Arial" font-size="14.00">bucket_size </text>
<text text-anchor="start" x="131.02" y="-274" font-family="Arial" font-size="14.00" fill="#666666">[integer]</text>
<polygon fill="none" stroke="black" points="46.2,-231 46.2,-261.8 511.11,-261.8 511.11,-231 46.2,-231"/>
<text text-anchor="start" x="53.2" y="-243.2" font-family="Arial" font-size="14.00">fill_rate </text>
<text text-anchor="start" x="102.22" y="-243.2" font-family="Arial" font-size="14.00" fill="#666666">[real]</text>
<polygon fill="none" stroke="black" points="46.2,-200.2 46.2,-231 511.11,-231 511.11,-200.2 46.2,-200.2"/>
<text text-anchor="start" x="53.2" y="-212.4" font-family="Arial" font-size="14.00">max_concurrency </text>
<text text-anchor="start" x="167.58" y="-212.4" font-family="Arial" font-size="14.00" fill="#666666">[integer]</text>
<polygon fill="none" stroke="black" points="46.2,-169.4 46.2,-200.2 511.11,-200.2 511.11,-169.4 46.2,-169.4"/>
<text text-anchor="start" x="53.2" y="-181.6" font-family="Arial" font-size="14.00">scope </text>
<text text-anchor="start" x="94.45" y="-181.6" font-family="Arial" font-size="14.00" fill="#666666">[jsonb]</text>
<polygon fill="none" stroke="black" points="46.2,-138.6 46.2,-169.4 511.11,-169.4 511.11,-138.6 46.2,-138.6"/>
<text text-anchor="start" x="53.2" y="-150.8" font-family="Arial" font-size="14.00">where </text>
<text text-anchor="start" x="95.22" y="-150.8" font-family="Arial" font-size="14.00" fill="#666666">[text]</text>
<polygon fill="none" stroke="black" points="46.2,-107.8 46.2,-138.6 511.11,-138.6 511.11,-107.8 46.2,-107.8"/>
<text text-anchor="start" x="53.2" y="-120" font-family="Arial" font-size="14.00">file_name </text>
<text text-anchor="start" x="117.79" y="-120" font-family="Arial" font-size="14.00" fill="#666666">[text]</text>
<polygon fill="none" stroke="black" points="46.2,-77 46.2,-107.8 511.11,-107.8 511.11,-77 46.2,-77"/>
<text text-anchor="start" x="53.2" y="-89.2" font-family="Arial" font-size="14.00">start_line_number </text>
<text text-anchor="start" x="169.15" y="-89.2" font-family="Arial" font-size="14.00" fill="#666666">[integer]</text>
<polygon fill="none" stroke="black" points="46.2,-46.2 46.2,-77 511.11,-77 511.11,-46.2 46.2,-46.2"/>
<text text-anchor="start" x="53.2" y="-58.4" font-family="Arial" font-size="14.00">end_line_number </text>
<text text-anchor="start" x="165.28" y="-58.4" font-family="Arial" font-size="14.00" fill="#666666">[integer]</text>
<polygon fill="none" stroke="black" stroke-width="3" points="44.7,-44.7 44.7,-483.7 512.61,-483.7 512.61,-44.7 44.7,-44.7"/>
</g>
</g>
</svg>
