<?xml version="1.0" encoding="UTF-8" standalone="no"?>
<!DOCTYPE svg PUBLIC "-//W3C//DTD SVG 1.1//EN"
 "http://www.w3.org/Graphics/SVG/1.1/DTD/svg11.dtd">
<!-- Generated by graphviz version 12.1.2 (20240928.0832)
 -->
<!-- Title: steampipe_command.scan_metadata Pages: 1 -->
<svg width="529pt" height="444pt"
 viewBox="0.00 0.00 528.72 444.00" xmlns="http://www.w3.org/2000/svg" xmlns:xlink="http://www.w3.org/1999/xlink">
<g id="graph0" class="graph" transform="scale(1 1) rotate(0) translate(4 440)">
<title>steampipe_command.scan_metadata</title>
<polygon fill="white" stroke="none" points="-4,4 -4,-440 524.72,-440 524.72,4 -4,4"/>
<!-- steampipe_command.scan_metadata -->
<g id="node1" class="node">
<title>steampipe_command.scan_metadata</title>
<polygon fill="#efefef" stroke="none" points="46.2,-354.2 46.2,-389.8 474.52,-389.8 474.52,-354.2 46.2,-354.2"/>
<polygon fill="none" stroke="black" points="46.2,-354.2 46.2,-389.8 474.52,-389.8 474.52,-354.2 46.2,-354.2"/>
<text text-anchor="start" x="53.2" y="-367.6" font-family="Arial Bold" font-size="18.00">steampipe_command.scan_metadata</text>
<text text-anchor="start" x="316.6" y="-367.6" font-family="Arial" font-size="14.00">    </text>
<text text-anchor="start" x="347.72" y="-367.6" font-family="Arial" font-size="14.00" fill="#666666">[FOREIGN TABLE]</text>
<polygon fill="none" stroke="black" points="46.2,-323.4 46.2,-354.2 474.52,-354.2 474.52,-323.4 46.2,-323.4"/>
<text text-anchor="start" x="53.2" y="-335.6" font-family="Arial" font-size="14.00">id </text>
<text text-anchor="start" x="67.99" y="-335.6" font-family="Arial" font-size="14.00" fill="#666666">[bigint]</text>
<polygon fill="none" stroke="black" points="46.2,-292.6 46.2,-323.4 474.52,-323.4 474.52,-292.6 46.2,-292.6"/>
<text text-anchor="start" x="53.2" y="-304.8" font-family="Arial" font-size="14.00">table </text>
<text text-anchor="start" x="87.45" y="-304.8" font-family="Arial" font-size="14.00" fill="#666666">[text]</text>
<polygon fill="none" stroke="black" points="46.2,-261.8 46.2,-292.6 474.52,-292.6 474.52,-261.8 46.2,-261.8"/>
<text text-anchor="start" x="53.2" y="-274" font-family="Arial" font-size="14.00">cache_hit </text>
<text text-anchor="start" x="117.02" y="-274" font-family="Arial" font-size="14.00" fill="#666666">[boolean]</text>
<polygon fill="none" stroke="black" points="46.2,-231 46.2,-261.8 474.52,-261.8 474.52,-231 46.2,-231"/>
<text text-anchor="start" x="53.2" y="-243.2" font-family="Arial" font-size="14.00">rows_fetched </text>
<text text-anchor="start" x="140.36" y="-243.2" font-family="Arial" font-size="14.00" fill="#666666">[bigint]</text>
<polygon fill="none" stroke="black" points="46.2,-200.2 46.2,-231 474.52,-231 474.52,-200.2 46.2,-200.2"/>
<text text-anchor="start" x="53.2" y="-212.4" font-family="Arial" font-size="14.00">hydrate_calls </text>
<text text-anchor="start" x="139.58" y="-212.4" font-family="Arial" font-size="14.00" fill="#666666">[bigint]</text>
<polygon fill="none" stroke="black" points="46.2,-169.4 46.2,-200.2 474.52,-200.2 474.52,-169.4 46.2,-169.4"/>
<text text-anchor="start" x="53.2" y="-181.6" font-family="Arial" font-size="14.00">start_time </text>
<text text-anchor="start" x="118.55" y="-181.6" font-family="Arial" font-size="14.00" fill="#666666">[timestamp with time zone]</text>
<polygon fill="none" stroke="black" points="46.2,-138.6 46.2,-169.4 474.52,-169.4 474.52,-138.6 46.2,-138.6"/>
<text text-anchor="start" x="53.2" y="-150.8" font-family="Arial" font-size="14.00">duration </text>
<text text-anchor="start" x="107.68" y="-150.8" font-family="Arial" font-size="14.00" fill="#666666">[double precision]</text>
<polygon fill="none" stroke="black" points="46.2,-107.8 46.2,-138.6 474.52,-138.6 474.52,-107.8 46.2,-107.8"/>
<text text-anchor="start" x="53.2" y="-120" font-family="Arial" font-size="14.00">columns </text>
<text text-anchor="start" x="109.22" y="-120" font-family="Arial" font-size="14.00" fill="#666666">[jsonb]</text>
<polygon fill="none" stroke="black" points="46.2,-77 46.2,-107.8 474.52,-107.8 474.52,-77 46.2,-77"/>
<text text-anchor="start" x="53.2" y="-89.2" font-family="Arial" font-size="14.00">limit </text>
<text text-anchor="start" x="81.97" y="-89.2" font-family="Arial" font-size="14.00" fill="#666666">[bigint]</text>
<polygon fill="none" stroke="black" points="46.2,-46.2 46.2,-77 474.52,-77 474.52,-46.2 46.2,-46.2"/>
<text text-anchor="start" x="53.2" y="-58.4" font-family="Arial" font-size="14.00">quals </text>
<text text-anchor="start" x="90.56" y="-58.4" font-family="Arial" font-size="14.00" fill="#666666">[text]</text>
<polygon fill="none" stroke="black" stroke-width="3" points="44.7,-44.7 44.7,-391.3 476.02,-391.3 476.02,-44.7 44.7,-44.7"/>
</g>
</g>
</svg>
