<?xml version="1.0" encoding="UTF-8" standalone="no"?>
<!DOCTYPE svg PUBLIC "-//W3C//DTD SVG 1.1//EN"
 "http://www.w3.org/Graphics/SVG/1.1/DTD/svg11.dtd">
<!-- Generated by graphviz version 12.1.2 (20240928.0832)
 -->
<!-- Title: public.queries Pages: 1 -->
<svg width="812pt" height="725pt"
 viewBox="0.00 0.00 812.33 725.20" xmlns="http://www.w3.org/2000/svg" xmlns:xlink="http://www.w3.org/1999/xlink">
<g id="graph0" class="graph" transform="scale(1 1) rotate(0) translate(4 721.2)">
<title>public.queries</title>
<polygon fill="white" stroke="none" points="-4,4 -4,-721.2 808.33,-721.2 808.33,4 -4,4"/>
<!-- public.queries -->
<g id="node1" class="node">
<title>public.queries</title>
<polygon fill="#efefef" stroke="none" points="279.82,-292.6 279.82,-328.2 533.5,-328.2 533.5,-292.6 279.82,-292.6"/>
<polygon fill="none" stroke="black" points="279.82,-292.6 279.82,-328.2 533.5,-328.2 533.5,-292.6 279.82,-292.6"/>
<text text-anchor="start" x="293.68" y="-306" font-family="Arial Bold" font-size="18.00">public.queries</text>
<text text-anchor="start" x="395.15" y="-306" font-family="Arial" font-size="14.00">    </text>
<text text-anchor="start" x="426.27" y="-306" font-family="Arial" font-size="14.00" fill="#666666">[BASE TABLE]</text>
<polygon fill="none" stroke="black" points="279.82,-261.8 279.82,-292.6 533.5,-292.6 533.5,-261.8 279.82,-261.8"/>
<text text-anchor="start" x="286.82" y="-274" font-family="Arial" font-size="14.00">id </text>
<text text-anchor="start" x="301.6" y="-274" font-family="Arial" font-size="14.00" fill="#666666">[text]</text>
<polygon fill="none" stroke="black" points="279.82,-231 279.82,-261.8 533.5,-261.8 533.5,-231 279.82,-231"/>
<text text-anchor="start" x="286.82" y="-243.2" font-family="Arial" font-size="14.00">query_to_execute </text>
<text text-anchor="start" x="402.01" y="-243.2" font-family="Arial" font-size="14.00" fill="#666666">[text]</text>
<polygon fill="none" stroke="black" points="279.82,-200.2 279.82,-231 533.5,-231 533.5,-200.2 279.82,-200.2"/>
<text text-anchor="start" x="286.82" y="-212.4" font-family="Arial" font-size="14.00">primary_table </text>
<text text-anchor="start" x="375.52" y="-212.4" font-family="Arial" font-size="14.00" fill="#666666">[text]</text>
<polygon fill="none" stroke="black" points="279.82,-169.4 279.82,-200.2 533.5,-200.2 533.5,-169.4 279.82,-169.4"/>
<text text-anchor="start" x="286.82" y="-181.6" font-family="Arial" font-size="14.00">list_of_tables </text>
<text text-anchor="start" x="372.42" y="-181.6" font-family="Arial" font-size="14.00" fill="#666666">[text[]]</text>
<polygon fill="none" stroke="black" points="279.82,-138.6 279.82,-169.4 533.5,-169.4 533.5,-138.6 279.82,-138.6"/>
<text text-anchor="start" x="286.82" y="-150.8" font-family="Arial" font-size="14.00">engine </text>
<text text-anchor="start" x="332.75" y="-150.8" font-family="Arial" font-size="14.00" fill="#666666">[text]</text>
<polygon fill="none" stroke="black" points="279.82,-107.8 279.82,-138.6 533.5,-138.6 533.5,-107.8 279.82,-107.8"/>
<text text-anchor="start" x="286.82" y="-120" font-family="Arial" font-size="14.00">global </text>
<text text-anchor="start" x="328.07" y="-120" font-family="Arial" font-size="14.00" fill="#666666">[boolean]</text>
<polygon fill="none" stroke="black" points="279.82,-77 279.82,-107.8 533.5,-107.8 533.5,-77 279.82,-77"/>
<text text-anchor="start" x="286.82" y="-89.2" font-family="Arial" font-size="14.00">created_at </text>
<text text-anchor="start" x="356.87" y="-89.2" font-family="Arial" font-size="14.00" fill="#666666">[timestamp with time zone]</text>
<polygon fill="none" stroke="black" points="279.82,-46.2 279.82,-77 533.5,-77 533.5,-46.2 279.82,-46.2"/>
<text text-anchor="start" x="286.82" y="-58.4" font-family="Arial" font-size="14.00">updated_at </text>
<text text-anchor="start" x="360.78" y="-58.4" font-family="Arial" font-size="14.00" fill="#666666">[timestamp with time zone]</text>
<polygon fill="none" stroke="black" stroke-width="3" points="278.32,-44.7 278.32,-329.7 535,-329.7 535,-44.7 278.32,-44.7"/>
</g>
<!-- public.query_parameters -->
<g id="node2" class="node">
<title>public.query_parameters</title>
<polygon fill="#efefef" stroke="none" points="43.2,-592.2 43.2,-627.8 360.12,-627.8 360.12,-592.2 43.2,-592.2"/>
<polygon fill="none" stroke="black" points="43.2,-592.2 43.2,-627.8 360.12,-627.8 360.12,-592.2 43.2,-592.2"/>
<text text-anchor="start" x="50.2" y="-605.6" font-family="Arial Bold" font-size="18.00">public.query_parameters</text>
<text text-anchor="start" x="228.63" y="-605.6" font-family="Arial" font-size="14.00">    </text>
<text text-anchor="start" x="259.74" y="-605.6" font-family="Arial" font-size="14.00" fill="#666666">[BASE TABLE]</text>
<polygon fill="none" stroke="black" points="43.2,-561.4 43.2,-592.2 360.12,-592.2 360.12,-561.4 43.2,-561.4"/>
<text text-anchor="start" x="50.2" y="-573.6" font-family="Arial" font-size="14.00">query_id </text>
<text text-anchor="start" x="107.79" y="-573.6" font-family="Arial" font-size="14.00" fill="#666666">[text]</text>
<polygon fill="none" stroke="black" points="43.2,-530.6 43.2,-561.4 360.12,-561.4 360.12,-530.6 43.2,-530.6"/>
<text text-anchor="start" x="50.2" y="-542.8" font-family="Arial" font-size="14.00">key </text>
<text text-anchor="start" x="75.88" y="-542.8" font-family="Arial" font-size="14.00" fill="#666666">[text]</text>
<polygon fill="none" stroke="black" points="43.2,-499.8 43.2,-530.6 360.12,-530.6 360.12,-499.8 43.2,-499.8"/>
<text text-anchor="start" x="50.2" y="-512" font-family="Arial" font-size="14.00">required </text>
<text text-anchor="start" x="105.45" y="-512" font-family="Arial" font-size="14.00" fill="#666666">[boolean]</text>
</g>
<!-- public.query_parameters&#45;&gt;public.queries -->
<g id="edge1" class="edge">
<title>public.query_parameters:query_id&#45;&gt;public.queries:id</title>
<path fill="none" stroke="black" d="M371.12,-575.78C409.82,-566.95 379.05,-502.52 360.12,-456.6 340.65,-409.38 299.33,-421.6 279.82,-374.4 263.31,-334.47 235.61,-277.2 278.82,-277.2"/>
<polygon fill="black" stroke="black" points="371.4,-575.75 360.99,-572.29 366.09,-576.29 361.78,-576.73 361.78,-576.73 361.78,-576.73 366.09,-576.29 361.9,-581.24 371.4,-575.75"/>
<text text-anchor="start" x="368.12" y="-586.8" font-family="Arial" font-size="10.00">FOREIGN KEY (query_id) REFERENCES queries(id)</text>
</g>
<!-- public.named_queries -->
<g id="node3" class="node">
<title>public.named_queries</title>
<polygon fill="#efefef" stroke="none" points="464.19,-638.4 464.19,-674 761.13,-674 761.13,-638.4 464.19,-638.4"/>
<polygon fill="none" stroke="black" points="464.19,-638.4 464.19,-674 761.13,-674 761.13,-638.4 464.19,-638.4"/>
<text text-anchor="start" x="471.19" y="-651.8" font-family="Arial Bold" font-size="18.00">public.named_queries</text>
<text text-anchor="start" x="629.64" y="-651.8" font-family="Arial" font-size="14.00">    </text>
<text text-anchor="start" x="660.76" y="-651.8" font-family="Arial" font-size="14.00" fill="#666666">[BASE TABLE]</text>
<polygon fill="none" stroke="black" points="464.19,-607.6 464.19,-638.4 761.13,-638.4 761.13,-607.6 464.19,-607.6"/>
<text text-anchor="start" x="471.19" y="-619.8" font-family="Arial" font-size="14.00">id </text>
<text text-anchor="start" x="485.97" y="-619.8" font-family="Arial" font-size="14.00" fill="#666666">[text]</text>
<polygon fill="none" stroke="black" points="464.19,-576.8 464.19,-607.6 761.13,-607.6 761.13,-576.8 464.19,-576.8"/>
<text text-anchor="start" x="471.19" y="-589" font-family="Arial" font-size="14.00">connectors </text>
<text text-anchor="start" x="543.56" y="-589" font-family="Arial" font-size="14.00" fill="#666666">[text[]]</text>
<polygon fill="none" stroke="black" points="464.19,-546 464.19,-576.8 761.13,-576.8 761.13,-546 464.19,-546"/>
<text text-anchor="start" x="471.19" y="-558.2" font-family="Arial" font-size="14.00">title </text>
<text text-anchor="start" x="496.86" y="-558.2" font-family="Arial" font-size="14.00" fill="#666666">[text]</text>
<polygon fill="none" stroke="black" points="464.19,-515.2 464.19,-546 761.13,-546 761.13,-515.2 464.19,-515.2"/>
<text text-anchor="start" x="471.19" y="-527.4" font-family="Arial" font-size="14.00">description </text>
<text text-anchor="start" x="542.78" y="-527.4" font-family="Arial" font-size="14.00" fill="#666666">[text]</text>
<polygon fill="none" stroke="black" points="464.19,-484.4 464.19,-515.2 761.13,-515.2 761.13,-484.4 464.19,-484.4"/>
<text text-anchor="start" x="471.19" y="-496.6" font-family="Arial" font-size="14.00">query_id </text>
<text text-anchor="start" x="528.78" y="-496.6" font-family="Arial" font-size="14.00" fill="#666666">[text]</text>
<polygon fill="none" stroke="black" points="464.19,-453.6 464.19,-484.4 761.13,-484.4 761.13,-453.6 464.19,-453.6"/>
<text text-anchor="start" x="471.19" y="-465.8" font-family="Arial" font-size="14.00">is_bookmarked </text>
<text text-anchor="start" x="570.02" y="-465.8" font-family="Arial" font-size="14.00" fill="#666666">[boolean]</text>
</g>
<!-- public.named_queries&#45;&gt;public.queries -->
<g id="edge2" class="edge">
<title>public.named_queries:query_id&#45;&gt;public.queries:id</title>
<path fill="none" stroke="black" d="M453.2,-498.28C427.35,-489.16 445.4,-440.94 464.19,-410.4 482.38,-380.83 515.33,-403.97 533.5,-374.4 556.12,-337.59 577.7,-277.2 534.5,-277.2"/>
<polygon fill="black" stroke="black" points="452.97,-498.25 462.18,-504.2 458.25,-499.05 462.53,-499.7 462.53,-499.7 462.53,-499.7 458.25,-499.05 463.53,-495.3 452.97,-498.25"/>
<text text-anchor="start" x="470.19" y="-509.8" font-family="Arial" font-size="10.00">FOREIGN KEY (query_id) REFERENCES queries(id)</text>
</g>
</g>
</svg>
