<?xml version="1.0" encoding="UTF-8" standalone="no"?>
<!DOCTYPE svg PUBLIC "-//W3C//DTD SVG 1.1//EN"
 "http://www.w3.org/Graphics/SVG/1.1/DTD/svg11.dtd">
<!-- Generated by graphviz version 12.1.2 (20240928.0832)
 -->
<!-- Title: public.resource_types Pages: 1 -->
<svg width="805pt" height="756pt"
 viewBox="0.00 0.00 804.94 756.00" xmlns="http://www.w3.org/2000/svg" xmlns:xlink="http://www.w3.org/1999/xlink">
<g id="graph0" class="graph" transform="scale(1 1) rotate(0) translate(4 752)">
<title>public.resource_types</title>
<polygon fill="white" stroke="none" points="-4,4 -4,-752 800.94,-752 800.94,4 -4,4"/>
<!-- public.resource_types -->
<g id="node1" class="node">
<title>public.resource_types</title>
<polygon fill="#efefef" stroke="none" points="442.31,-323.4 442.31,-359 738.24,-359 738.24,-323.4 442.31,-323.4"/>
<polygon fill="none" stroke="black" points="442.31,-323.4 442.31,-359 738.24,-359 738.24,-323.4 442.31,-323.4"/>
<text text-anchor="start" x="449.31" y="-336.8" font-family="Arial Bold" font-size="18.00">public.resource_types</text>
<text text-anchor="start" x="606.75" y="-336.8" font-family="Arial" font-size="14.00">    </text>
<text text-anchor="start" x="637.87" y="-336.8" font-family="Arial" font-size="14.00" fill="#666666">[BASE TABLE]</text>
<polygon fill="none" stroke="black" points="442.31,-292.6 442.31,-323.4 738.24,-323.4 738.24,-292.6 442.31,-292.6"/>
<text text-anchor="start" x="449.31" y="-304.8" font-family="Arial" font-size="14.00">connector </text>
<text text-anchor="start" x="514.68" y="-304.8" font-family="Arial" font-size="14.00" fill="#666666">[text]</text>
<polygon fill="none" stroke="black" points="442.31,-261.8 442.31,-292.6 738.24,-292.6 738.24,-261.8 442.31,-261.8"/>
<text text-anchor="start" x="449.31" y="-274" font-family="Arial" font-size="14.00">resource_type </text>
<text text-anchor="start" x="541.91" y="-274" font-family="Arial" font-size="14.00" fill="#666666">[citext]</text>
<polygon fill="none" stroke="black" points="442.31,-231 442.31,-261.8 738.24,-261.8 738.24,-231 442.31,-231"/>
<text text-anchor="start" x="449.31" y="-243.2" font-family="Arial" font-size="14.00">resource_label </text>
<text text-anchor="start" x="545.03" y="-243.2" font-family="Arial" font-size="14.00" fill="#666666">[text]</text>
<polygon fill="none" stroke="black" points="442.31,-200.2 442.31,-231 738.24,-231 738.24,-200.2 442.31,-200.2"/>
<text text-anchor="start" x="449.31" y="-212.4" font-family="Arial" font-size="14.00">service_name </text>
<text text-anchor="start" x="540.35" y="-212.4" font-family="Arial" font-size="14.00" fill="#666666">[text]</text>
<polygon fill="none" stroke="black" points="442.31,-169.4 442.31,-200.2 738.24,-200.2 738.24,-169.4 442.31,-169.4"/>
<text text-anchor="start" x="449.31" y="-181.6" font-family="Arial" font-size="14.00">do_summarize </text>
<text text-anchor="start" x="545.01" y="-181.6" font-family="Arial" font-size="14.00" fill="#666666">[boolean]</text>
<polygon fill="none" stroke="black" points="442.31,-138.6 442.31,-169.4 738.24,-169.4 738.24,-138.6 442.31,-138.6"/>
<text text-anchor="start" x="449.31" y="-150.8" font-family="Arial" font-size="14.00">logo_uri </text>
<text text-anchor="start" x="503.01" y="-150.8" font-family="Arial" font-size="14.00" fill="#666666">[text]</text>
<polygon fill="none" stroke="black" points="442.31,-107.8 442.31,-138.6 738.24,-138.6 738.24,-107.8 442.31,-107.8"/>
<text text-anchor="start" x="449.31" y="-120" font-family="Arial" font-size="14.00">created_at </text>
<text text-anchor="start" x="519.35" y="-120" font-family="Arial" font-size="14.00" fill="#666666">[timestamp with time zone]</text>
<polygon fill="none" stroke="black" points="442.31,-77 442.31,-107.8 738.24,-107.8 738.24,-77 442.31,-77"/>
<text text-anchor="start" x="449.31" y="-89.2" font-family="Arial" font-size="14.00">updated_at </text>
<text text-anchor="start" x="523.26" y="-89.2" font-family="Arial" font-size="14.00" fill="#666666">[timestamp with time zone]</text>
<polygon fill="none" stroke="black" points="442.31,-46.2 442.31,-77 738.24,-77 738.24,-46.2 442.31,-46.2"/>
<text text-anchor="start" x="449.31" y="-58.4" font-family="Arial" font-size="14.00">deleted_at </text>
<text text-anchor="start" x="518.59" y="-58.4" font-family="Arial" font-size="14.00" fill="#666666">[timestamp with time zone]</text>
<polygon fill="none" stroke="black" stroke-width="3" points="440.81,-44.7 440.81,-360.5 739.74,-360.5 739.74,-44.7 440.81,-44.7"/>
</g>
<!-- public.resource_type_tags -->
<g id="node2" class="node">
<title>public.resource_type_tags</title>
<polygon fill="#efefef" stroke="none" points="426.81,-669.2 426.81,-704.8 753.74,-704.8 753.74,-669.2 426.81,-669.2"/>
<polygon fill="none" stroke="black" points="426.81,-669.2 426.81,-704.8 753.74,-704.8 753.74,-669.2 426.81,-669.2"/>
<text text-anchor="start" x="433.81" y="-682.6" font-family="Arial Bold" font-size="18.00">public.resource_type_tags</text>
<text text-anchor="start" x="622.25" y="-682.6" font-family="Arial" font-size="14.00">    </text>
<text text-anchor="start" x="653.37" y="-682.6" font-family="Arial" font-size="14.00" fill="#666666">[BASE TABLE]</text>
<polygon fill="none" stroke="black" points="426.81,-638.4 426.81,-669.2 753.74,-669.2 753.74,-638.4 426.81,-638.4"/>
<text text-anchor="start" x="433.81" y="-650.6" font-family="Arial" font-size="14.00">key </text>
<text text-anchor="start" x="459.49" y="-650.6" font-family="Arial" font-size="14.00" fill="#666666">[text]</text>
<polygon fill="none" stroke="black" points="426.81,-607.6 426.81,-638.4 753.74,-638.4 753.74,-607.6 426.81,-607.6"/>
<text text-anchor="start" x="433.81" y="-619.8" font-family="Arial" font-size="14.00">value </text>
<text text-anchor="start" x="471.17" y="-619.8" font-family="Arial" font-size="14.00" fill="#666666">[text[]]</text>
<polygon fill="none" stroke="black" points="426.81,-576.8 426.81,-607.6 753.74,-607.6 753.74,-576.8 426.81,-576.8"/>
<text text-anchor="start" x="433.81" y="-589" font-family="Arial" font-size="14.00">created_at </text>
<text text-anchor="start" x="503.86" y="-589" font-family="Arial" font-size="14.00" fill="#666666">[timestamp with time zone]</text>
<polygon fill="none" stroke="black" points="426.81,-546 426.81,-576.8 753.74,-576.8 753.74,-546 426.81,-546"/>
<text text-anchor="start" x="433.81" y="-558.2" font-family="Arial" font-size="14.00">updated_at </text>
<text text-anchor="start" x="507.77" y="-558.2" font-family="Arial" font-size="14.00" fill="#666666">[timestamp with time zone]</text>
<polygon fill="none" stroke="black" points="426.81,-515.2 426.81,-546 753.74,-546 753.74,-515.2 426.81,-515.2"/>
<text text-anchor="start" x="433.81" y="-527.4" font-family="Arial" font-size="14.00">deleted_at </text>
<text text-anchor="start" x="503.09" y="-527.4" font-family="Arial" font-size="14.00" fill="#666666">[timestamp with time zone]</text>
<polygon fill="none" stroke="black" points="426.81,-484.4 426.81,-515.2 753.74,-515.2 753.74,-484.4 426.81,-484.4"/>
<text text-anchor="start" x="433.81" y="-496.6" font-family="Arial" font-size="14.00">resource_type </text>
<text text-anchor="start" x="526.42" y="-496.6" font-family="Arial" font-size="14.00" fill="#666666">[citext]</text>
</g>
<!-- public.resource_type_tags&#45;&gt;public.resource_types -->
<g id="edge1" class="edge">
<title>public.resource_type_tags:resource_type&#45;&gt;public.resource_types:resource_type</title>
<path fill="none" stroke="black" d="M591.1,-473.07C601.2,-414.77 701.57,-465.53 738.24,-405.2 767.79,-356.59 796.13,-277.2 739.24,-277.2"/>
<polygon fill="black" stroke="black" points="591.09,-473.1 585.82,-482.71 590.67,-478.42 590.33,-482.73 590.33,-482.73 590.33,-482.73 590.67,-478.42 594.79,-483.42 591.09,-473.1"/>
<text text-anchor="start" x="7" y="-493.4" font-family="Arial" font-size="10.00">FOREIGN KEY (resource_type) REFERENCES resource_types(resource_type) ON UPDATE CASCADE ON DELETE CASCADE</text>
</g>
</g>
</svg>
