<?xml version="1.0" encoding="UTF-8" standalone="no"?>
<!DOCTYPE svg PUBLIC "-//W3C//DTD SVG 1.1//EN"
 "http://www.w3.org/Graphics/SVG/1.1/DTD/svg11.dtd">
<!-- Generated by graphviz version 12.1.2 (20240928.0832)
 -->
<!-- Title: public.named_query_tags Pages: 1 -->
<svg width="763pt" height="664pt"
 viewBox="0.00 0.00 762.55 663.60" xmlns="http://www.w3.org/2000/svg" xmlns:xlink="http://www.w3.org/1999/xlink">
<g id="graph0" class="graph" transform="scale(1 1) rotate(0) translate(4 659.6)">
<title>public.named_query_tags</title>
<polygon fill="white" stroke="none" points="-4,4 -4,-659.6 758.55,-659.6 758.55,4 -4,4"/>
<!-- public.named_query_tags -->
<g id="node1" class="node">
<title>public.named_query_tags</title>
<polygon fill="#efefef" stroke="none" points="384.41,-573.8 384.41,-609.4 708.35,-609.4 708.35,-573.8 384.41,-573.8"/>
<polygon fill="none" stroke="black" points="384.41,-573.8 384.41,-609.4 708.35,-609.4 708.35,-573.8 384.41,-573.8"/>
<text text-anchor="start" x="391.41" y="-587.2" font-family="Arial Bold" font-size="18.00">public.named_query_tags</text>
<text text-anchor="start" x="576.86" y="-587.2" font-family="Arial" font-size="14.00">    </text>
<text text-anchor="start" x="607.98" y="-587.2" font-family="Arial" font-size="14.00" fill="#666666">[BASE TABLE]</text>
<polygon fill="none" stroke="black" points="384.41,-543 384.41,-573.8 708.35,-573.8 708.35,-543 384.41,-543"/>
<text text-anchor="start" x="391.41" y="-555.2" font-family="Arial" font-size="14.00">key </text>
<text text-anchor="start" x="417.09" y="-555.2" font-family="Arial" font-size="14.00" fill="#666666">[text]</text>
<polygon fill="none" stroke="black" points="384.41,-512.2 384.41,-543 708.35,-543 708.35,-512.2 384.41,-512.2"/>
<text text-anchor="start" x="391.41" y="-524.4" font-family="Arial" font-size="14.00">value </text>
<text text-anchor="start" x="428.77" y="-524.4" font-family="Arial" font-size="14.00" fill="#666666">[text[]]</text>
<polygon fill="none" stroke="black" points="384.41,-481.4 384.41,-512.2 708.35,-512.2 708.35,-481.4 384.41,-481.4"/>
<text text-anchor="start" x="391.41" y="-493.6" font-family="Arial" font-size="14.00">created_at </text>
<text text-anchor="start" x="461.46" y="-493.6" font-family="Arial" font-size="14.00" fill="#666666">[timestamp with time zone]</text>
<polygon fill="none" stroke="black" points="384.41,-450.6 384.41,-481.4 708.35,-481.4 708.35,-450.6 384.41,-450.6"/>
<text text-anchor="start" x="391.41" y="-462.8" font-family="Arial" font-size="14.00">updated_at </text>
<text text-anchor="start" x="465.37" y="-462.8" font-family="Arial" font-size="14.00" fill="#666666">[timestamp with time zone]</text>
<polygon fill="none" stroke="black" points="384.41,-419.8 384.41,-450.6 708.35,-450.6 708.35,-419.8 384.41,-419.8"/>
<text text-anchor="start" x="391.41" y="-432" font-family="Arial" font-size="14.00">deleted_at </text>
<text text-anchor="start" x="460.7" y="-432" font-family="Arial" font-size="14.00" fill="#666666">[timestamp with time zone]</text>
<polygon fill="none" stroke="black" points="384.41,-389 384.41,-419.8 708.35,-419.8 708.35,-389 384.41,-389"/>
<text text-anchor="start" x="391.41" y="-401.2" font-family="Arial" font-size="14.00">named_query_id </text>
<text text-anchor="start" x="499.6" y="-401.2" font-family="Arial" font-size="14.00" fill="#666666">[text]</text>
<polygon fill="none" stroke="black" stroke-width="3" points="382.91,-387.5 382.91,-610.9 709.85,-610.9 709.85,-387.5 382.91,-387.5"/>
</g>
<!-- public.named_queries -->
<g id="node2" class="node">
<title>public.named_queries</title>
<polygon fill="#efefef" stroke="none" points="397.91,-228 397.91,-263.6 694.85,-263.6 694.85,-228 397.91,-228"/>
<polygon fill="none" stroke="black" points="397.91,-228 397.91,-263.6 694.85,-263.6 694.85,-228 397.91,-228"/>
<text text-anchor="start" x="404.91" y="-241.4" font-family="Arial Bold" font-size="18.00">public.named_queries</text>
<text text-anchor="start" x="563.36" y="-241.4" font-family="Arial" font-size="14.00">    </text>
<text text-anchor="start" x="594.48" y="-241.4" font-family="Arial" font-size="14.00" fill="#666666">[BASE TABLE]</text>
<polygon fill="none" stroke="black" points="397.91,-197.2 397.91,-228 694.85,-228 694.85,-197.2 397.91,-197.2"/>
<text text-anchor="start" x="404.91" y="-209.4" font-family="Arial" font-size="14.00">id </text>
<text text-anchor="start" x="419.7" y="-209.4" font-family="Arial" font-size="14.00" fill="#666666">[text]</text>
<polygon fill="none" stroke="black" points="397.91,-166.4 397.91,-197.2 694.85,-197.2 694.85,-166.4 397.91,-166.4"/>
<text text-anchor="start" x="404.91" y="-178.6" font-family="Arial" font-size="14.00">connectors </text>
<text text-anchor="start" x="477.29" y="-178.6" font-family="Arial" font-size="14.00" fill="#666666">[text[]]</text>
<polygon fill="none" stroke="black" points="397.91,-135.6 397.91,-166.4 694.85,-166.4 694.85,-135.6 397.91,-135.6"/>
<text text-anchor="start" x="404.91" y="-147.8" font-family="Arial" font-size="14.00">title </text>
<text text-anchor="start" x="430.59" y="-147.8" font-family="Arial" font-size="14.00" fill="#666666">[text]</text>
<polygon fill="none" stroke="black" points="397.91,-104.8 397.91,-135.6 694.85,-135.6 694.85,-104.8 397.91,-104.8"/>
<text text-anchor="start" x="404.91" y="-117" font-family="Arial" font-size="14.00">description </text>
<text text-anchor="start" x="476.51" y="-117" font-family="Arial" font-size="14.00" fill="#666666">[text]</text>
<polygon fill="none" stroke="black" points="397.91,-74 397.91,-104.8 694.85,-104.8 694.85,-74 397.91,-74"/>
<text text-anchor="start" x="404.91" y="-86.2" font-family="Arial" font-size="14.00">query_id </text>
<text text-anchor="start" x="462.51" y="-86.2" font-family="Arial" font-size="14.00" fill="#666666">[text]</text>
<polygon fill="none" stroke="black" points="397.91,-43.2 397.91,-74 694.85,-74 694.85,-43.2 397.91,-43.2"/>
<text text-anchor="start" x="404.91" y="-55.4" font-family="Arial" font-size="14.00">is_bookmarked </text>
<text text-anchor="start" x="503.74" y="-55.4" font-family="Arial" font-size="14.00" fill="#666666">[boolean]</text>
</g>
<!-- public.named_query_tags&#45;&gt;public.named_queries -->
<g id="edge1" class="edge">
<title>public.named_query_tags:named_query_id&#45;&gt;public.named_queries:id</title>
<path fill="none" stroke="black" d="M547.15,-377.91C556.93,-318.21 658.04,-368.14 694.85,-306.8 716.4,-270.9 737.72,-212.6 695.85,-212.6"/>
<polygon fill="black" stroke="black" points="547.16,-377.7 541.92,-387.33 546.76,-383.01 546.43,-387.33 546.43,-387.33 546.43,-387.33 546.76,-383.01 550.9,-388.01 547.16,-377.7"/>
<text text-anchor="start" x="7" y="-398" font-family="Arial" font-size="10.00">FOREIGN KEY (named_query_id) REFERENCES named_queries(id) ON UPDATE CASCADE ON DELETE CASCADE</text>
</g>
</g>
</svg>
