<?xml version="1.0" encoding="UTF-8" standalone="no"?>
<!DOCTYPE svg PUBLIC "-//W3C//DTD SVG 1.1//EN"
 "http://www.w3.org/Graphics/SVG/1.1/DTD/svg11.dtd">
<!-- Generated by graphviz version 12.1.2 (20240928.0832)
 -->
<!-- Title: public.resource_type_tags Pages: 1 -->
<svg width="808pt" height="756pt"
 viewBox="0.00 0.00 807.94 756.00" xmlns="http://www.w3.org/2000/svg" xmlns:xlink="http://www.w3.org/1999/xlink">
<g id="graph0" class="graph" transform="scale(1 1) rotate(0) translate(4 752)">
<title>public.resource_type_tags</title>
<polygon fill="white" stroke="none" points="-4,4 -4,-752 803.94,-752 803.94,4 -4,4"/>
<!-- public.resource_type_tags -->
<g id="node1" class="node">
<title>public.resource_type_tags</title>
<polygon fill="#efefef" stroke="none" points="426.81,-666.2 426.81,-701.8 753.74,-701.8 753.74,-666.2 426.81,-666.2"/>
<polygon fill="none" stroke="black" points="426.81,-666.2 426.81,-701.8 753.74,-701.8 753.74,-666.2 426.81,-666.2"/>
<text text-anchor="start" x="433.81" y="-679.6" font-family="Arial Bold" font-size="18.00">public.resource_type_tags</text>
<text text-anchor="start" x="622.25" y="-679.6" font-family="Arial" font-size="14.00">    </text>
<text text-anchor="start" x="653.37" y="-679.6" font-family="Arial" font-size="14.00" fill="#666666">[BASE TABLE]</text>
<polygon fill="none" stroke="black" points="426.81,-635.4 426.81,-666.2 753.74,-666.2 753.74,-635.4 426.81,-635.4"/>
<text text-anchor="start" x="433.81" y="-647.6" font-family="Arial" font-size="14.00">key </text>
<text text-anchor="start" x="459.49" y="-647.6" font-family="Arial" font-size="14.00" fill="#666666">[text]</text>
<polygon fill="none" stroke="black" points="426.81,-604.6 426.81,-635.4 753.74,-635.4 753.74,-604.6 426.81,-604.6"/>
<text text-anchor="start" x="433.81" y="-616.8" font-family="Arial" font-size="14.00">value </text>
<text text-anchor="start" x="471.17" y="-616.8" font-family="Arial" font-size="14.00" fill="#666666">[text[]]</text>
<polygon fill="none" stroke="black" points="426.81,-573.8 426.81,-604.6 753.74,-604.6 753.74,-573.8 426.81,-573.8"/>
<text text-anchor="start" x="433.81" y="-586" font-family="Arial" font-size="14.00">created_at </text>
<text text-anchor="start" x="503.86" y="-586" font-family="Arial" font-size="14.00" fill="#666666">[timestamp with time zone]</text>
<polygon fill="none" stroke="black" points="426.81,-543 426.81,-573.8 753.74,-573.8 753.74,-543 426.81,-543"/>
<text text-anchor="start" x="433.81" y="-555.2" font-family="Arial" font-size="14.00">updated_at </text>
<text text-anchor="start" x="507.77" y="-555.2" font-family="Arial" font-size="14.00" fill="#666666">[timestamp with time zone]</text>
<polygon fill="none" stroke="black" points="426.81,-512.2 426.81,-543 753.74,-543 753.74,-512.2 426.81,-512.2"/>
<text text-anchor="start" x="433.81" y="-524.4" font-family="Arial" font-size="14.00">deleted_at </text>
<text text-anchor="start" x="503.09" y="-524.4" font-family="Arial" font-size="14.00" fill="#666666">[timestamp with time zone]</text>
<polygon fill="none" stroke="black" points="426.81,-481.4 426.81,-512.2 753.74,-512.2 753.74,-481.4 426.81,-481.4"/>
<text text-anchor="start" x="433.81" y="-493.6" font-family="Arial" font-size="14.00">resource_type </text>
<text text-anchor="start" x="526.42" y="-493.6" font-family="Arial" font-size="14.00" fill="#666666">[citext]</text>
<polygon fill="none" stroke="black" stroke-width="3" points="425.31,-479.9 425.31,-703.3 755.24,-703.3 755.24,-479.9 425.31,-479.9"/>
</g>
<!-- public.resource_types -->
<g id="node2" class="node">
<title>public.resource_types</title>
<polygon fill="#efefef" stroke="none" points="442.31,-320.4 442.31,-356 738.24,-356 738.24,-320.4 442.31,-320.4"/>
<polygon fill="none" stroke="black" points="442.31,-320.4 442.31,-356 738.24,-356 738.24,-320.4 442.31,-320.4"/>
<text text-anchor="start" x="449.31" y="-333.8" font-family="Arial Bold" font-size="18.00">public.resource_types</text>
<text text-anchor="start" x="606.75" y="-333.8" font-family="Arial" font-size="14.00">    </text>
<text text-anchor="start" x="637.87" y="-333.8" font-family="Arial" font-size="14.00" fill="#666666">[BASE TABLE]</text>
<polygon fill="none" stroke="black" points="442.31,-289.6 442.31,-320.4 738.24,-320.4 738.24,-289.6 442.31,-289.6"/>
<text text-anchor="start" x="449.31" y="-301.8" font-family="Arial" font-size="14.00">connector </text>
<text text-anchor="start" x="514.68" y="-301.8" font-family="Arial" font-size="14.00" fill="#666666">[text]</text>
<polygon fill="none" stroke="black" points="442.31,-258.8 442.31,-289.6 738.24,-289.6 738.24,-258.8 442.31,-258.8"/>
<text text-anchor="start" x="449.31" y="-271" font-family="Arial" font-size="14.00">resource_type </text>
<text text-anchor="start" x="541.91" y="-271" font-family="Arial" font-size="14.00" fill="#666666">[citext]</text>
<polygon fill="none" stroke="black" points="442.31,-228 442.31,-258.8 738.24,-258.8 738.24,-228 442.31,-228"/>
<text text-anchor="start" x="449.31" y="-240.2" font-family="Arial" font-size="14.00">resource_label </text>
<text text-anchor="start" x="545.03" y="-240.2" font-family="Arial" font-size="14.00" fill="#666666">[text]</text>
<polygon fill="none" stroke="black" points="442.31,-197.2 442.31,-228 738.24,-228 738.24,-197.2 442.31,-197.2"/>
<text text-anchor="start" x="449.31" y="-209.4" font-family="Arial" font-size="14.00">service_name </text>
<text text-anchor="start" x="540.35" y="-209.4" font-family="Arial" font-size="14.00" fill="#666666">[text]</text>
<polygon fill="none" stroke="black" points="442.31,-166.4 442.31,-197.2 738.24,-197.2 738.24,-166.4 442.31,-166.4"/>
<text text-anchor="start" x="449.31" y="-178.6" font-family="Arial" font-size="14.00">do_summarize </text>
<text text-anchor="start" x="545.01" y="-178.6" font-family="Arial" font-size="14.00" fill="#666666">[boolean]</text>
<polygon fill="none" stroke="black" points="442.31,-135.6 442.31,-166.4 738.24,-166.4 738.24,-135.6 442.31,-135.6"/>
<text text-anchor="start" x="449.31" y="-147.8" font-family="Arial" font-size="14.00">logo_uri </text>
<text text-anchor="start" x="503.01" y="-147.8" font-family="Arial" font-size="14.00" fill="#666666">[text]</text>
<polygon fill="none" stroke="black" points="442.31,-104.8 442.31,-135.6 738.24,-135.6 738.24,-104.8 442.31,-104.8"/>
<text text-anchor="start" x="449.31" y="-117" font-family="Arial" font-size="14.00">created_at </text>
<text text-anchor="start" x="519.35" y="-117" font-family="Arial" font-size="14.00" fill="#666666">[timestamp with time zone]</text>
<polygon fill="none" stroke="black" points="442.31,-74 442.31,-104.8 738.24,-104.8 738.24,-74 442.31,-74"/>
<text text-anchor="start" x="449.31" y="-86.2" font-family="Arial" font-size="14.00">updated_at </text>
<text text-anchor="start" x="523.26" y="-86.2" font-family="Arial" font-size="14.00" fill="#666666">[timestamp with time zone]</text>
<polygon fill="none" stroke="black" points="442.31,-43.2 442.31,-74 738.24,-74 738.24,-43.2 442.31,-43.2"/>
<text text-anchor="start" x="449.31" y="-55.4" font-family="Arial" font-size="14.00">deleted_at </text>
<text text-anchor="start" x="518.59" y="-55.4" font-family="Arial" font-size="14.00" fill="#666666">[timestamp with time zone]</text>
</g>
<!-- public.resource_type_tags&#45;&gt;public.resource_types -->
<g id="edge1" class="edge">
<title>public.resource_type_tags:resource_type&#45;&gt;public.resource_types:resource_type</title>
<path fill="none" stroke="black" d="M591.04,-470.33C600.8,-410.78 701.65,-460.46 738.24,-399.2 766.73,-351.5 794.8,-274.2 739.24,-274.2"/>
<polygon fill="black" stroke="black" points="591.05,-470.1 585.81,-479.73 590.65,-475.41 590.32,-479.73 590.32,-479.73 590.32,-479.73 590.65,-475.41 594.79,-480.41 591.05,-470.1"/>
<text text-anchor="start" x="7" y="-490.4" font-family="Arial" font-size="10.00">FOREIGN KEY (resource_type) REFERENCES resource_types(resource_type) ON UPDATE CASCADE ON DELETE CASCADE</text>
</g>
</g>
</svg>
