<?xml version="1.0" encoding="UTF-8" standalone="no"?>
<!DOCTYPE svg PUBLIC "-//W3C//DTD SVG 1.1//EN"
 "http://www.w3.org/Graphics/SVG/1.1/DTD/svg11.dtd">
<!-- Generated by graphviz version 12.1.2 (20240928.0832)
 -->
<!-- Title: public.resource_collections Pages: 1 -->
<svg width="828pt" height="756pt"
 viewBox="0.00 0.00 828.26 756.00" xmlns="http://www.w3.org/2000/svg" xmlns:xlink="http://www.w3.org/1999/xlink">
<g id="graph0" class="graph" transform="scale(1 1) rotate(0) translate(4 752)">
<title>public.resource_collections</title>
<polygon fill="white" stroke="none" points="-4,4 -4,-752 824.26,-752 824.26,4 -4,4"/>
<!-- public.resource_collections -->
<g id="node1" class="node">
<title>public.resource_collections</title>
<polygon fill="#efefef" stroke="none" points="425.65,-323.4 425.65,-359 761.57,-359 761.57,-323.4 425.65,-323.4"/>
<polygon fill="none" stroke="black" points="425.65,-323.4 425.65,-359 761.57,-359 761.57,-323.4 425.65,-323.4"/>
<text text-anchor="start" x="432.65" y="-336.8" font-family="Arial Bold" font-size="18.00">public.resource_collections</text>
<text text-anchor="start" x="630.08" y="-336.8" font-family="Arial" font-size="14.00">    </text>
<text text-anchor="start" x="661.2" y="-336.8" font-family="Arial" font-size="14.00" fill="#666666">[BASE TABLE]</text>
<polygon fill="none" stroke="black" points="425.65,-292.6 425.65,-323.4 761.57,-323.4 761.57,-292.6 425.65,-292.6"/>
<text text-anchor="start" x="432.65" y="-304.8" font-family="Arial" font-size="14.00">id </text>
<text text-anchor="start" x="447.44" y="-304.8" font-family="Arial" font-size="14.00" fill="#666666">[text]</text>
<polygon fill="none" stroke="black" points="425.65,-261.8 425.65,-292.6 761.57,-292.6 761.57,-261.8 425.65,-261.8"/>
<text text-anchor="start" x="432.65" y="-274" font-family="Arial" font-size="14.00">name </text>
<text text-anchor="start" x="471.56" y="-274" font-family="Arial" font-size="14.00" fill="#666666">[text]</text>
<polygon fill="none" stroke="black" points="425.65,-231 425.65,-261.8 761.57,-261.8 761.57,-231 425.65,-231"/>
<text text-anchor="start" x="432.65" y="-243.2" font-family="Arial" font-size="14.00">filters_json </text>
<text text-anchor="start" x="503.46" y="-243.2" font-family="Arial" font-size="14.00" fill="#666666">[jsonb]</text>
<polygon fill="none" stroke="black" points="425.65,-200.2 425.65,-231 761.57,-231 761.57,-200.2 425.65,-200.2"/>
<text text-anchor="start" x="432.65" y="-212.4" font-family="Arial" font-size="14.00">description </text>
<text text-anchor="start" x="504.24" y="-212.4" font-family="Arial" font-size="14.00" fill="#666666">[text]</text>
<polygon fill="none" stroke="black" points="425.65,-169.4 425.65,-200.2 761.57,-200.2 761.57,-169.4 425.65,-169.4"/>
<text text-anchor="start" x="432.65" y="-181.6" font-family="Arial" font-size="14.00">status </text>
<text text-anchor="start" x="473.89" y="-181.6" font-family="Arial" font-size="14.00" fill="#666666">[text]</text>
<polygon fill="none" stroke="black" points="425.65,-138.6 425.65,-169.4 761.57,-169.4 761.57,-138.6 425.65,-138.6"/>
<text text-anchor="start" x="432.65" y="-150.8" font-family="Arial" font-size="14.00">created </text>
<text text-anchor="start" x="483.24" y="-150.8" font-family="Arial" font-size="14.00" fill="#666666">[timestamp with time zone]</text>
<polygon fill="none" stroke="black" points="425.65,-107.8 425.65,-138.6 761.57,-138.6 761.57,-107.8 425.65,-107.8"/>
<text text-anchor="start" x="432.65" y="-120" font-family="Arial" font-size="14.00">created_at </text>
<text text-anchor="start" x="502.7" y="-120" font-family="Arial" font-size="14.00" fill="#666666">[timestamp with time zone]</text>
<polygon fill="none" stroke="black" points="425.65,-77 425.65,-107.8 761.57,-107.8 761.57,-77 425.65,-77"/>
<text text-anchor="start" x="432.65" y="-89.2" font-family="Arial" font-size="14.00">updated_at </text>
<text text-anchor="start" x="506.61" y="-89.2" font-family="Arial" font-size="14.00" fill="#666666">[timestamp with time zone]</text>
<polygon fill="none" stroke="black" points="425.65,-46.2 425.65,-77 761.57,-77 761.57,-46.2 425.65,-46.2"/>
<text text-anchor="start" x="432.65" y="-58.4" font-family="Arial" font-size="14.00">deleted_at </text>
<text text-anchor="start" x="501.93" y="-58.4" font-family="Arial" font-size="14.00" fill="#666666">[timestamp with time zone]</text>
<polygon fill="none" stroke="black" stroke-width="3" points="424.15,-44.7 424.15,-360.5 763.07,-360.5 763.07,-44.7 424.15,-44.7"/>
</g>
<!-- public.resource_collection_tags -->
<g id="node2" class="node">
<title>public.resource_collection_tags</title>
<polygon fill="#efefef" stroke="none" points="410.16,-669.2 410.16,-704.8 777.06,-704.8 777.06,-669.2 410.16,-669.2"/>
<polygon fill="none" stroke="black" points="410.16,-669.2 410.16,-704.8 777.06,-704.8 777.06,-669.2 410.16,-669.2"/>
<text text-anchor="start" x="417.16" y="-682.6" font-family="Arial Bold" font-size="18.00">public.resource_collection_tags</text>
<text text-anchor="start" x="645.57" y="-682.6" font-family="Arial" font-size="14.00">    </text>
<text text-anchor="start" x="676.69" y="-682.6" font-family="Arial" font-size="14.00" fill="#666666">[BASE TABLE]</text>
<polygon fill="none" stroke="black" points="410.16,-638.4 410.16,-669.2 777.06,-669.2 777.06,-638.4 410.16,-638.4"/>
<text text-anchor="start" x="417.16" y="-650.6" font-family="Arial" font-size="14.00">key </text>
<text text-anchor="start" x="442.83" y="-650.6" font-family="Arial" font-size="14.00" fill="#666666">[text]</text>
<polygon fill="none" stroke="black" points="410.16,-607.6 410.16,-638.4 777.06,-638.4 777.06,-607.6 410.16,-607.6"/>
<text text-anchor="start" x="417.16" y="-619.8" font-family="Arial" font-size="14.00">value </text>
<text text-anchor="start" x="454.51" y="-619.8" font-family="Arial" font-size="14.00" fill="#666666">[text[]]</text>
<polygon fill="none" stroke="black" points="410.16,-576.8 410.16,-607.6 777.06,-607.6 777.06,-576.8 410.16,-576.8"/>
<text text-anchor="start" x="417.16" y="-589" font-family="Arial" font-size="14.00">created_at </text>
<text text-anchor="start" x="487.2" y="-589" font-family="Arial" font-size="14.00" fill="#666666">[timestamp with time zone]</text>
<polygon fill="none" stroke="black" points="410.16,-546 410.16,-576.8 777.06,-576.8 777.06,-546 410.16,-546"/>
<text text-anchor="start" x="417.16" y="-558.2" font-family="Arial" font-size="14.00">updated_at </text>
<text text-anchor="start" x="491.11" y="-558.2" font-family="Arial" font-size="14.00" fill="#666666">[timestamp with time zone]</text>
<polygon fill="none" stroke="black" points="410.16,-515.2 410.16,-546 777.06,-546 777.06,-515.2 410.16,-515.2"/>
<text text-anchor="start" x="417.16" y="-527.4" font-family="Arial" font-size="14.00">deleted_at </text>
<text text-anchor="start" x="486.44" y="-527.4" font-family="Arial" font-size="14.00" fill="#666666">[timestamp with time zone]</text>
<polygon fill="none" stroke="black" points="410.16,-484.4 410.16,-515.2 777.06,-515.2 777.06,-484.4 410.16,-484.4"/>
<text text-anchor="start" x="417.16" y="-496.6" font-family="Arial" font-size="14.00">resource_collection_id </text>
<text text-anchor="start" x="560.35" y="-496.6" font-family="Arial" font-size="14.00" fill="#666666">[text]</text>
</g>
<!-- public.resource_collection_tags&#45;&gt;public.resource_collections -->
<g id="edge1" class="edge">
<title>public.resource_collection_tags:resource_collection_id&#45;&gt;public.resource_collections:id</title>
<path fill="none" stroke="black" d="M594.34,-473.22C604.53,-407.36 718.95,-471.3 761.57,-405.2 784.98,-368.89 805.77,-308 762.57,-308"/>
<polygon fill="black" stroke="black" points="594.35,-473.09 589.14,-482.75 593.97,-478.41 593.66,-482.73 593.66,-482.73 593.66,-482.73 593.97,-478.41 598.12,-483.39 594.35,-473.09"/>
<text text-anchor="start" x="7" y="-493.4" font-family="Arial" font-size="10.00">FOREIGN KEY (resource_collection_id) REFERENCES resource_collections(id) ON UPDATE CASCADE ON DELETE CASCADE</text>
</g>
</g>
</svg>
