<?xml version="1.0" encoding="UTF-8" standalone="no"?>
<!DOCTYPE svg PUBLIC "-//W3C//DTD SVG 1.1//EN"
 "http://www.w3.org/Graphics/SVG/1.1/DTD/svg11.dtd">
<!-- Generated by graphviz version 12.1.2 (20240928.0832)
 -->
<!-- Title: public.metric_tags Pages: 1 -->
<svg width="687pt" height="818pt"
 viewBox="0.00 0.00 687.09 817.60" xmlns="http://www.w3.org/2000/svg" xmlns:xlink="http://www.w3.org/1999/xlink">
<g id="graph0" class="graph" transform="scale(1 1) rotate(0) translate(4 813.6)">
<title>public.metric_tags</title>
<polygon fill="white" stroke="none" points="-4,4 -4,-813.6 683.09,-813.6 683.09,4 -4,4"/>
<!-- public.metric_tags -->
<g id="node1" class="node">
<title>public.metric_tags</title>
<polygon fill="#efefef" stroke="none" points="346.45,-727.8 346.45,-763.4 618.4,-763.4 618.4,-727.8 346.45,-727.8"/>
<polygon fill="none" stroke="black" points="346.45,-727.8 346.45,-763.4 618.4,-763.4 618.4,-727.8 346.45,-727.8"/>
<text text-anchor="start" x="353.45" y="-741.2" font-family="Arial Bold" font-size="18.00">public.metric_tags</text>
<text text-anchor="start" x="486.91" y="-741.2" font-family="Arial" font-size="14.00">    </text>
<text text-anchor="start" x="518.03" y="-741.2" font-family="Arial" font-size="14.00" fill="#666666">[BASE TABLE]</text>
<polygon fill="none" stroke="black" points="346.45,-697 346.45,-727.8 618.4,-727.8 618.4,-697 346.45,-697"/>
<text text-anchor="start" x="353.45" y="-709.2" font-family="Arial" font-size="14.00">key </text>
<text text-anchor="start" x="379.12" y="-709.2" font-family="Arial" font-size="14.00" fill="#666666">[text]</text>
<polygon fill="none" stroke="black" points="346.45,-666.2 346.45,-697 618.4,-697 618.4,-666.2 346.45,-666.2"/>
<text text-anchor="start" x="353.45" y="-678.4" font-family="Arial" font-size="14.00">value </text>
<text text-anchor="start" x="390.81" y="-678.4" font-family="Arial" font-size="14.00" fill="#666666">[text[]]</text>
<polygon fill="none" stroke="black" points="346.45,-635.4 346.45,-666.2 618.4,-666.2 618.4,-635.4 346.45,-635.4"/>
<text text-anchor="start" x="353.45" y="-647.6" font-family="Arial" font-size="14.00">created_at </text>
<text text-anchor="start" x="423.5" y="-647.6" font-family="Arial" font-size="14.00" fill="#666666">[timestamp with time zone]</text>
<polygon fill="none" stroke="black" points="346.45,-604.6 346.45,-635.4 618.4,-635.4 618.4,-604.6 346.45,-604.6"/>
<text text-anchor="start" x="353.45" y="-616.8" font-family="Arial" font-size="14.00">updated_at </text>
<text text-anchor="start" x="427.41" y="-616.8" font-family="Arial" font-size="14.00" fill="#666666">[timestamp with time zone]</text>
<polygon fill="none" stroke="black" points="346.45,-573.8 346.45,-604.6 618.4,-604.6 618.4,-573.8 346.45,-573.8"/>
<text text-anchor="start" x="353.45" y="-586" font-family="Arial" font-size="14.00">deleted_at </text>
<text text-anchor="start" x="422.73" y="-586" font-family="Arial" font-size="14.00" fill="#666666">[timestamp with time zone]</text>
<polygon fill="none" stroke="black" points="346.45,-543 346.45,-573.8 618.4,-573.8 618.4,-543 346.45,-543"/>
<text text-anchor="start" x="353.45" y="-555.2" font-family="Arial" font-size="14.00">id </text>
<text text-anchor="start" x="368.23" y="-555.2" font-family="Arial" font-size="14.00" fill="#666666">[text]</text>
<polygon fill="none" stroke="black" stroke-width="3" points="344.95,-541.5 344.95,-764.9 619.9,-764.9 619.9,-541.5 344.95,-541.5"/>
</g>
<!-- public.analytic_metrics -->
<g id="node2" class="node">
<title>public.analytic_metrics</title>
<polygon fill="#efefef" stroke="none" points="328.96,-382 328.96,-417.6 635.89,-417.6 635.89,-382 328.96,-382"/>
<polygon fill="none" stroke="black" points="328.96,-382 328.96,-417.6 635.89,-417.6 635.89,-382 328.96,-382"/>
<text text-anchor="start" x="335.96" y="-395.4" font-family="Arial Bold" font-size="18.00">public.analytic_metrics</text>
<text text-anchor="start" x="504.4" y="-395.4" font-family="Arial" font-size="14.00">    </text>
<text text-anchor="start" x="535.52" y="-395.4" font-family="Arial" font-size="14.00" fill="#666666">[BASE TABLE]</text>
<polygon fill="none" stroke="black" points="328.96,-351.2 328.96,-382 635.89,-382 635.89,-351.2 328.96,-351.2"/>
<text text-anchor="start" x="335.96" y="-363.4" font-family="Arial" font-size="14.00">id </text>
<text text-anchor="start" x="350.74" y="-363.4" font-family="Arial" font-size="14.00" fill="#666666">[text]</text>
<polygon fill="none" stroke="black" points="328.96,-320.4 328.96,-351.2 635.89,-351.2 635.89,-320.4 328.96,-320.4"/>
<text text-anchor="start" x="335.96" y="-332.6" font-family="Arial" font-size="14.00">engine </text>
<text text-anchor="start" x="381.89" y="-332.6" font-family="Arial" font-size="14.00" fill="#666666">[text]</text>
<polygon fill="none" stroke="black" points="328.96,-289.6 328.96,-320.4 635.89,-320.4 635.89,-289.6 328.96,-289.6"/>
<text text-anchor="start" x="335.96" y="-301.8" font-family="Arial" font-size="14.00">connectors </text>
<text text-anchor="start" x="408.33" y="-301.8" font-family="Arial" font-size="14.00" fill="#666666">[text[]]</text>
<polygon fill="none" stroke="black" points="328.96,-258.8 328.96,-289.6 635.89,-289.6 635.89,-258.8 328.96,-258.8"/>
<text text-anchor="start" x="335.96" y="-271" font-family="Arial" font-size="14.00">type </text>
<text text-anchor="start" x="366.31" y="-271" font-family="Arial" font-size="14.00" fill="#666666">[text]</text>
<polygon fill="none" stroke="black" points="328.96,-228 328.96,-258.8 635.89,-258.8 635.89,-228 328.96,-228"/>
<text text-anchor="start" x="335.96" y="-240.2" font-family="Arial" font-size="14.00">name </text>
<text text-anchor="start" x="374.87" y="-240.2" font-family="Arial" font-size="14.00" fill="#666666">[text]</text>
<polygon fill="none" stroke="black" points="328.96,-197.2 328.96,-228 635.89,-228 635.89,-197.2 328.96,-197.2"/>
<text text-anchor="start" x="335.96" y="-209.4" font-family="Arial" font-size="14.00">query </text>
<text text-anchor="start" x="374.87" y="-209.4" font-family="Arial" font-size="14.00" fill="#666666">[text]</text>
<polygon fill="none" stroke="black" points="328.96,-166.4 328.96,-197.2 635.89,-197.2 635.89,-166.4 328.96,-166.4"/>
<text text-anchor="start" x="335.96" y="-178.6" font-family="Arial" font-size="14.00">tables </text>
<text text-anchor="start" x="377.21" y="-178.6" font-family="Arial" font-size="14.00" fill="#666666">[text[]]</text>
<polygon fill="none" stroke="black" points="328.96,-135.6 328.96,-166.4 635.89,-166.4 635.89,-135.6 328.96,-135.6"/>
<text text-anchor="start" x="335.96" y="-147.8" font-family="Arial" font-size="14.00">finder_query </text>
<text text-anchor="start" x="417.67" y="-147.8" font-family="Arial" font-size="14.00" fill="#666666">[text]</text>
<polygon fill="none" stroke="black" points="328.96,-104.8 328.96,-135.6 635.89,-135.6 635.89,-104.8 328.96,-104.8"/>
<text text-anchor="start" x="335.96" y="-117" font-family="Arial" font-size="14.00">finder_per_connection_query </text>
<text text-anchor="start" x="521.2" y="-117" font-family="Arial" font-size="14.00" fill="#666666">[text]</text>
<polygon fill="none" stroke="black" points="328.96,-74 328.96,-104.8 635.89,-104.8 635.89,-74 328.96,-74"/>
<text text-anchor="start" x="335.96" y="-86.2" font-family="Arial" font-size="14.00">visible </text>
<text text-anchor="start" x="378.75" y="-86.2" font-family="Arial" font-size="14.00" fill="#666666">[boolean]</text>
<polygon fill="none" stroke="black" points="328.96,-43.2 328.96,-74 635.89,-74 635.89,-43.2 328.96,-43.2"/>
<text text-anchor="start" x="335.96" y="-55.4" font-family="Arial" font-size="14.00">status </text>
<text text-anchor="start" x="377.2" y="-55.4" font-family="Arial" font-size="14.00" fill="#666666">[text]</text>
</g>
<!-- public.metric_tags&#45;&gt;public.analytic_metrics -->
<g id="edge1" class="edge">
<title>public.metric_tags:id&#45;&gt;public.analytic_metrics:id</title>
<path fill="none" stroke="black" d="M483.21,-531.66C493.31,-470.57 597.69,-523.47 635.89,-460.8 657.68,-425.05 678.76,-366.6 636.89,-366.6"/>
<polygon fill="black" stroke="black" points="483.21,-531.7 477.96,-541.32 482.8,-537.01 482.47,-541.33 482.47,-541.33 482.47,-541.33 482.8,-537.01 486.94,-542.01 483.21,-531.7"/>
<text text-anchor="start" x="7" y="-552" font-family="Arial" font-size="10.00">FOREIGN KEY (id) REFERENCES analytic_metrics(id) ON UPDATE CASCADE ON DELETE CASCADE</text>
</g>
</g>
</svg>
