<?xml version="1.0" encoding="UTF-8" standalone="no"?>
<!DOCTYPE svg PUBLIC "-//W3C//DTD SVG 1.1//EN"
 "http://www.w3.org/Graphics/SVG/1.1/DTD/svg11.dtd">
<!-- Generated by graphviz version 12.1.2 (20240928.0832)
 -->
<!-- Title: public.named_queries Pages: 1 -->
<svg width="955pt" height="1068pt"
 viewBox="0.00 0.00 955.14 1068.00" xmlns="http://www.w3.org/2000/svg" xmlns:xlink="http://www.w3.org/1999/xlink">
<g id="graph0" class="graph" transform="scale(1 1) rotate(0) translate(4 1064)">
<title>public.named_queries</title>
<polygon fill="white" stroke="none" points="-4,4 -4,-1064 951.14,-1064 951.14,4 -4,4"/>
<!-- public.named_queries -->
<g id="node1" class="node">
<title>public.named_queries</title>
<polygon fill="#efefef" stroke="none" points="397.91,-635.4 397.91,-671 694.85,-671 694.85,-635.4 397.91,-635.4"/>
<polygon fill="none" stroke="black" points="397.91,-635.4 397.91,-671 694.85,-671 694.85,-635.4 397.91,-635.4"/>
<text text-anchor="start" x="404.91" y="-648.8" font-family="Arial Bold" font-size="18.00">public.named_queries</text>
<text text-anchor="start" x="563.36" y="-648.8" font-family="Arial" font-size="14.00">    </text>
<text text-anchor="start" x="594.48" y="-648.8" font-family="Arial" font-size="14.00" fill="#666666">[BASE TABLE]</text>
<polygon fill="none" stroke="black" points="397.91,-604.6 397.91,-635.4 694.85,-635.4 694.85,-604.6 397.91,-604.6"/>
<text text-anchor="start" x="404.91" y="-616.8" font-family="Arial" font-size="14.00">id </text>
<text text-anchor="start" x="419.7" y="-616.8" font-family="Arial" font-size="14.00" fill="#666666">[text]</text>
<polygon fill="none" stroke="black" points="397.91,-573.8 397.91,-604.6 694.85,-604.6 694.85,-573.8 397.91,-573.8"/>
<text text-anchor="start" x="404.91" y="-586" font-family="Arial" font-size="14.00">connectors </text>
<text text-anchor="start" x="477.29" y="-586" font-family="Arial" font-size="14.00" fill="#666666">[text[]]</text>
<polygon fill="none" stroke="black" points="397.91,-543 397.91,-573.8 694.85,-573.8 694.85,-543 397.91,-543"/>
<text text-anchor="start" x="404.91" y="-555.2" font-family="Arial" font-size="14.00">title </text>
<text text-anchor="start" x="430.59" y="-555.2" font-family="Arial" font-size="14.00" fill="#666666">[text]</text>
<polygon fill="none" stroke="black" points="397.91,-512.2 397.91,-543 694.85,-543 694.85,-512.2 397.91,-512.2"/>
<text text-anchor="start" x="404.91" y="-524.4" font-family="Arial" font-size="14.00">description </text>
<text text-anchor="start" x="476.51" y="-524.4" font-family="Arial" font-size="14.00" fill="#666666">[text]</text>
<polygon fill="none" stroke="black" points="397.91,-481.4 397.91,-512.2 694.85,-512.2 694.85,-481.4 397.91,-481.4"/>
<text text-anchor="start" x="404.91" y="-493.6" font-family="Arial" font-size="14.00">query_id </text>
<text text-anchor="start" x="462.51" y="-493.6" font-family="Arial" font-size="14.00" fill="#666666">[text]</text>
<polygon fill="none" stroke="black" points="397.91,-450.6 397.91,-481.4 694.85,-481.4 694.85,-450.6 397.91,-450.6"/>
<text text-anchor="start" x="404.91" y="-462.8" font-family="Arial" font-size="14.00">is_bookmarked </text>
<text text-anchor="start" x="503.74" y="-462.8" font-family="Arial" font-size="14.00" fill="#666666">[boolean]</text>
<polygon fill="none" stroke="black" stroke-width="3" points="396.41,-449.1 396.41,-672.5 696.35,-672.5 696.35,-449.1 396.41,-449.1"/>
</g>
<!-- public.queries -->
<g id="node3" class="node">
<title>public.queries</title>
<polygon fill="#efefef" stroke="none" points="419.54,-289.6 419.54,-325.2 673.22,-325.2 673.22,-289.6 419.54,-289.6"/>
<polygon fill="none" stroke="black" points="419.54,-289.6 419.54,-325.2 673.22,-325.2 673.22,-289.6 419.54,-289.6"/>
<text text-anchor="start" x="433.4" y="-303" font-family="Arial Bold" font-size="18.00">public.queries</text>
<text text-anchor="start" x="534.87" y="-303" font-family="Arial" font-size="14.00">    </text>
<text text-anchor="start" x="565.99" y="-303" font-family="Arial" font-size="14.00" fill="#666666">[BASE TABLE]</text>
<polygon fill="none" stroke="black" points="419.54,-258.8 419.54,-289.6 673.22,-289.6 673.22,-258.8 419.54,-258.8"/>
<text text-anchor="start" x="426.54" y="-271" font-family="Arial" font-size="14.00">id </text>
<text text-anchor="start" x="441.33" y="-271" font-family="Arial" font-size="14.00" fill="#666666">[text]</text>
<polygon fill="none" stroke="black" points="419.54,-228 419.54,-258.8 673.22,-258.8 673.22,-228 419.54,-228"/>
<text text-anchor="start" x="426.54" y="-240.2" font-family="Arial" font-size="14.00">query_to_execute </text>
<text text-anchor="start" x="541.73" y="-240.2" font-family="Arial" font-size="14.00" fill="#666666">[text]</text>
<polygon fill="none" stroke="black" points="419.54,-197.2 419.54,-228 673.22,-228 673.22,-197.2 419.54,-197.2"/>
<text text-anchor="start" x="426.54" y="-209.4" font-family="Arial" font-size="14.00">primary_table </text>
<text text-anchor="start" x="515.25" y="-209.4" font-family="Arial" font-size="14.00" fill="#666666">[text]</text>
<polygon fill="none" stroke="black" points="419.54,-166.4 419.54,-197.2 673.22,-197.2 673.22,-166.4 419.54,-166.4"/>
<text text-anchor="start" x="426.54" y="-178.6" font-family="Arial" font-size="14.00">list_of_tables </text>
<text text-anchor="start" x="512.15" y="-178.6" font-family="Arial" font-size="14.00" fill="#666666">[text[]]</text>
<polygon fill="none" stroke="black" points="419.54,-135.6 419.54,-166.4 673.22,-166.4 673.22,-135.6 419.54,-135.6"/>
<text text-anchor="start" x="426.54" y="-147.8" font-family="Arial" font-size="14.00">engine </text>
<text text-anchor="start" x="472.47" y="-147.8" font-family="Arial" font-size="14.00" fill="#666666">[text]</text>
<polygon fill="none" stroke="black" points="419.54,-104.8 419.54,-135.6 673.22,-135.6 673.22,-104.8 419.54,-104.8"/>
<text text-anchor="start" x="426.54" y="-117" font-family="Arial" font-size="14.00">global </text>
<text text-anchor="start" x="467.8" y="-117" font-family="Arial" font-size="14.00" fill="#666666">[boolean]</text>
<polygon fill="none" stroke="black" points="419.54,-74 419.54,-104.8 673.22,-104.8 673.22,-74 419.54,-74"/>
<text text-anchor="start" x="426.54" y="-86.2" font-family="Arial" font-size="14.00">created_at </text>
<text text-anchor="start" x="496.59" y="-86.2" font-family="Arial" font-size="14.00" fill="#666666">[timestamp with time zone]</text>
<polygon fill="none" stroke="black" points="419.54,-43.2 419.54,-74 673.22,-74 673.22,-43.2 419.54,-43.2"/>
<text text-anchor="start" x="426.54" y="-55.4" font-family="Arial" font-size="14.00">updated_at </text>
<text text-anchor="start" x="500.5" y="-55.4" font-family="Arial" font-size="14.00" fill="#666666">[timestamp with time zone]</text>
</g>
<!-- public.named_queries&#45;&gt;public.queries -->
<g id="edge2" class="edge">
<title>public.named_queries:query_id&#45;&gt;public.queries:id</title>
<path fill="none" stroke="black" d="M706.15,-495.95C793.59,-481 770.03,-274.2 674.22,-274.2"/>
<polygon fill="black" stroke="black" points="706.15,-495.95 695.81,-492.29 700.84,-496.39 696.52,-496.74 696.52,-496.74 696.52,-496.74 700.84,-496.39 696.56,-501.26 706.15,-495.95"/>
<text text-anchor="start" x="702.85" y="-506.8" font-family="Arial" font-size="10.00">FOREIGN KEY (query_id) REFERENCES queries(id)</text>
</g>
<!-- public.named_query_tags -->
<g id="node2" class="node">
<title>public.named_query_tags</title>
<polygon fill="#efefef" stroke="none" points="384.41,-981.2 384.41,-1016.8 708.35,-1016.8 708.35,-981.2 384.41,-981.2"/>
<polygon fill="none" stroke="black" points="384.41,-981.2 384.41,-1016.8 708.35,-1016.8 708.35,-981.2 384.41,-981.2"/>
<text text-anchor="start" x="391.41" y="-994.6" font-family="Arial Bold" font-size="18.00">public.named_query_tags</text>
<text text-anchor="start" x="576.86" y="-994.6" font-family="Arial" font-size="14.00">    </text>
<text text-anchor="start" x="607.98" y="-994.6" font-family="Arial" font-size="14.00" fill="#666666">[BASE TABLE]</text>
<polygon fill="none" stroke="black" points="384.41,-950.4 384.41,-981.2 708.35,-981.2 708.35,-950.4 384.41,-950.4"/>
<text text-anchor="start" x="391.41" y="-962.6" font-family="Arial" font-size="14.00">key </text>
<text text-anchor="start" x="417.09" y="-962.6" font-family="Arial" font-size="14.00" fill="#666666">[text]</text>
<polygon fill="none" stroke="black" points="384.41,-919.6 384.41,-950.4 708.35,-950.4 708.35,-919.6 384.41,-919.6"/>
<text text-anchor="start" x="391.41" y="-931.8" font-family="Arial" font-size="14.00">value </text>
<text text-anchor="start" x="428.77" y="-931.8" font-family="Arial" font-size="14.00" fill="#666666">[text[]]</text>
<polygon fill="none" stroke="black" points="384.41,-888.8 384.41,-919.6 708.35,-919.6 708.35,-888.8 384.41,-888.8"/>
<text text-anchor="start" x="391.41" y="-901" font-family="Arial" font-size="14.00">created_at </text>
<text text-anchor="start" x="461.46" y="-901" font-family="Arial" font-size="14.00" fill="#666666">[timestamp with time zone]</text>
<polygon fill="none" stroke="black" points="384.41,-858 384.41,-888.8 708.35,-888.8 708.35,-858 384.41,-858"/>
<text text-anchor="start" x="391.41" y="-870.2" font-family="Arial" font-size="14.00">updated_at </text>
<text text-anchor="start" x="465.37" y="-870.2" font-family="Arial" font-size="14.00" fill="#666666">[timestamp with time zone]</text>
<polygon fill="none" stroke="black" points="384.41,-827.2 384.41,-858 708.35,-858 708.35,-827.2 384.41,-827.2"/>
<text text-anchor="start" x="391.41" y="-839.4" font-family="Arial" font-size="14.00">deleted_at </text>
<text text-anchor="start" x="460.7" y="-839.4" font-family="Arial" font-size="14.00" fill="#666666">[timestamp with time zone]</text>
<polygon fill="none" stroke="black" points="384.41,-796.4 384.41,-827.2 708.35,-827.2 708.35,-796.4 384.41,-796.4"/>
<text text-anchor="start" x="391.41" y="-808.6" font-family="Arial" font-size="14.00">named_query_id </text>
<text text-anchor="start" x="499.6" y="-808.6" font-family="Arial" font-size="14.00" fill="#666666">[text]</text>
</g>
<!-- public.named_query_tags&#45;&gt;public.named_queries -->
<g id="edge1" class="edge">
<title>public.named_query_tags:named_query_id&#45;&gt;public.named_queries:id</title>
<path fill="none" stroke="black" d="M547.21,-785.05C557.33,-726.6 657.96,-777.62 694.85,-717.2 717.37,-680.33 739.05,-620 695.85,-620"/>
<polygon fill="black" stroke="black" points="547.2,-785.1 541.92,-794.71 546.78,-790.42 546.44,-794.73 546.44,-794.73 546.44,-794.73 546.78,-790.42 550.9,-795.42 547.2,-785.1"/>
<text text-anchor="start" x="7" y="-805.4" font-family="Arial" font-size="10.00">FOREIGN KEY (named_query_id) REFERENCES named_queries(id) ON UPDATE CASCADE ON DELETE CASCADE</text>
</g>
</g>
</svg>
