<?xml version="1.0" encoding="UTF-8" standalone="no"?>
<!DOCTYPE svg PUBLIC "-//W3C//DTD SVG 1.1//EN"
 "http://www.w3.org/Graphics/SVG/1.1/DTD/svg11.dtd">
<!-- Generated by graphviz version 12.1.2 (20240928.0832)
 -->
<!-- Title: public.resource_type_v2 Pages: 1 -->
<svg width="416pt" height="290pt"
 viewBox="0.00 0.00 416.33 290.00" xmlns="http://www.w3.org/2000/svg" xmlns:xlink="http://www.w3.org/1999/xlink">
<g id="graph0" class="graph" transform="scale(1 1) rotate(0) translate(4 286)">
<title>public.resource_type_v2</title>
<polygon fill="white" stroke="none" points="-4,4 -4,-286 412.33,-286 412.33,4 -4,4"/>
<!-- public.resource_type_v2 -->
<g id="node1" class="node">
<title>public.resource_type_v2</title>
<polygon fill="#efefef" stroke="none" points="46.2,-200.2 46.2,-235.8 362.13,-235.8 362.13,-200.2 46.2,-200.2"/>
<polygon fill="none" stroke="black" points="46.2,-200.2 46.2,-235.8 362.13,-235.8 362.13,-200.2 46.2,-200.2"/>
<text text-anchor="start" x="53.2" y="-213.6" font-family="Arial Bold" font-size="18.00">public.resource_type_v2</text>
<text text-anchor="start" x="230.64" y="-213.6" font-family="Arial" font-size="14.00">    </text>
<text text-anchor="start" x="261.76" y="-213.6" font-family="Arial" font-size="14.00" fill="#666666">[BASE TABLE]</text>
<polygon fill="none" stroke="black" points="46.2,-169.4 46.2,-200.2 362.13,-200.2 362.13,-169.4 46.2,-169.4"/>
<text text-anchor="start" x="53.2" y="-181.6" font-family="Arial" font-size="14.00">provider_name </text>
<text text-anchor="start" x="150.48" y="-181.6" font-family="Arial" font-size="14.00" fill="#666666">[text]</text>
<polygon fill="none" stroke="black" points="46.2,-138.6 46.2,-169.4 362.13,-169.4 362.13,-138.6 46.2,-138.6"/>
<text text-anchor="start" x="53.2" y="-150.8" font-family="Arial" font-size="14.00">resource_name </text>
<text text-anchor="start" x="154.37" y="-150.8" font-family="Arial" font-size="14.00" fill="#666666">[text]</text>
<polygon fill="none" stroke="black" points="46.2,-107.8 46.2,-138.6 362.13,-138.6 362.13,-107.8 46.2,-107.8"/>
<text text-anchor="start" x="53.2" y="-120" font-family="Arial" font-size="14.00">resource_id </text>
<text text-anchor="start" x="130.24" y="-120" font-family="Arial" font-size="14.00" fill="#666666">[text]</text>
<polygon fill="none" stroke="black" points="46.2,-77 46.2,-107.8 362.13,-107.8 362.13,-77 46.2,-77"/>
<text text-anchor="start" x="53.2" y="-89.2" font-family="Arial" font-size="14.00">steampipe_table </text>
<text text-anchor="start" x="159.83" y="-89.2" font-family="Arial" font-size="14.00" fill="#666666">[text]</text>
<polygon fill="none" stroke="black" points="46.2,-46.2 46.2,-77 362.13,-77 362.13,-46.2 46.2,-46.2"/>
<text text-anchor="start" x="53.2" y="-58.4" font-family="Arial" font-size="14.00">category </text>
<text text-anchor="start" x="110.79" y="-58.4" font-family="Arial" font-size="14.00" fill="#666666">[text]</text>
<polygon fill="none" stroke="black" stroke-width="3" points="44.7,-44.7 44.7,-237.3 363.63,-237.3 363.63,-44.7 44.7,-44.7"/>
</g>
</g>
</svg>
