<?xml version="1.0" encoding="UTF-8" standalone="no"?>
<!DOCTYPE svg PUBLIC "-//W3C//DTD SVG 1.1//EN"
 "http://www.w3.org/Graphics/SVG/1.1/DTD/svg11.dtd">
<!-- Generated by graphviz version 12.1.2 (20240928.0832)
 -->
<!-- Title: inventory Pages: 1 -->
<svg width="2988pt" height="1216pt"
 viewBox="0.00 0.00 2987.82 1216.00" xmlns="http://www.w3.org/2000/svg" xmlns:xlink="http://www.w3.org/1999/xlink">
<g id="graph0" class="graph" transform="scale(1 1) rotate(0) translate(4 1212)">
<title>inventory</title>
<polygon fill="white" stroke="none" points="-4,4 -4,-1212 2983.82,-1212 2983.82,4 -4,4"/>
<!-- public.queries -->
<g id="node1" class="node">
<title>public.queries</title>
<polygon fill="#efefef" stroke="none" points="279.82,-289.6 279.82,-325.2 533.5,-325.2 533.5,-289.6 279.82,-289.6"/>
<polygon fill="none" stroke="black" points="279.82,-289.6 279.82,-325.2 533.5,-325.2 533.5,-289.6 279.82,-289.6"/>
<text text-anchor="start" x="293.68" y="-303" font-family="Arial Bold" font-size="18.00">public.queries</text>
<text text-anchor="start" x="395.15" y="-303" font-family="Arial" font-size="14.00">    </text>
<text text-anchor="start" x="426.27" y="-303" font-family="Arial" font-size="14.00" fill="#666666">[BASE TABLE]</text>
<polygon fill="none" stroke="black" points="279.82,-258.8 279.82,-289.6 533.5,-289.6 533.5,-258.8 279.82,-258.8"/>
<text text-anchor="start" x="286.82" y="-271" font-family="Arial" font-size="14.00">id </text>
<text text-anchor="start" x="301.6" y="-271" font-family="Arial" font-size="14.00" fill="#666666">[text]</text>
<polygon fill="none" stroke="black" points="279.82,-228 279.82,-258.8 533.5,-258.8 533.5,-228 279.82,-228"/>
<text text-anchor="start" x="286.82" y="-240.2" font-family="Arial" font-size="14.00">query_to_execute </text>
<text text-anchor="start" x="402.01" y="-240.2" font-family="Arial" font-size="14.00" fill="#666666">[text]</text>
<polygon fill="none" stroke="black" points="279.82,-197.2 279.82,-228 533.5,-228 533.5,-197.2 279.82,-197.2"/>
<text text-anchor="start" x="286.82" y="-209.4" font-family="Arial" font-size="14.00">primary_table </text>
<text text-anchor="start" x="375.52" y="-209.4" font-family="Arial" font-size="14.00" fill="#666666">[text]</text>
<polygon fill="none" stroke="black" points="279.82,-166.4 279.82,-197.2 533.5,-197.2 533.5,-166.4 279.82,-166.4"/>
<text text-anchor="start" x="286.82" y="-178.6" font-family="Arial" font-size="14.00">list_of_tables </text>
<text text-anchor="start" x="372.42" y="-178.6" font-family="Arial" font-size="14.00" fill="#666666">[text[]]</text>
<polygon fill="none" stroke="black" points="279.82,-135.6 279.82,-166.4 533.5,-166.4 533.5,-135.6 279.82,-135.6"/>
<text text-anchor="start" x="286.82" y="-147.8" font-family="Arial" font-size="14.00">engine </text>
<text text-anchor="start" x="332.75" y="-147.8" font-family="Arial" font-size="14.00" fill="#666666">[text]</text>
<polygon fill="none" stroke="black" points="279.82,-104.8 279.82,-135.6 533.5,-135.6 533.5,-104.8 279.82,-104.8"/>
<text text-anchor="start" x="286.82" y="-117" font-family="Arial" font-size="14.00">global </text>
<text text-anchor="start" x="328.07" y="-117" font-family="Arial" font-size="14.00" fill="#666666">[boolean]</text>
<polygon fill="none" stroke="black" points="279.82,-74 279.82,-104.8 533.5,-104.8 533.5,-74 279.82,-74"/>
<text text-anchor="start" x="286.82" y="-86.2" font-family="Arial" font-size="14.00">created_at </text>
<text text-anchor="start" x="356.87" y="-86.2" font-family="Arial" font-size="14.00" fill="#666666">[timestamp with time zone]</text>
<polygon fill="none" stroke="black" points="279.82,-43.2 279.82,-74 533.5,-74 533.5,-43.2 279.82,-43.2"/>
<text text-anchor="start" x="286.82" y="-55.4" font-family="Arial" font-size="14.00">updated_at </text>
<text text-anchor="start" x="360.78" y="-55.4" font-family="Arial" font-size="14.00" fill="#666666">[timestamp with time zone]</text>
</g>
<!-- public.query_parameters -->
<g id="node2" class="node">
<title>public.query_parameters</title>
<polygon fill="#efefef" stroke="none" points="43.2,-663.2 43.2,-698.8 360.12,-698.8 360.12,-663.2 43.2,-663.2"/>
<polygon fill="none" stroke="black" points="43.2,-663.2 43.2,-698.8 360.12,-698.8 360.12,-663.2 43.2,-663.2"/>
<text text-anchor="start" x="50.2" y="-676.6" font-family="Arial Bold" font-size="18.00">public.query_parameters</text>
<text text-anchor="start" x="228.63" y="-676.6" font-family="Arial" font-size="14.00">    </text>
<text text-anchor="start" x="259.74" y="-676.6" font-family="Arial" font-size="14.00" fill="#666666">[BASE TABLE]</text>
<polygon fill="none" stroke="black" points="43.2,-632.4 43.2,-663.2 360.12,-663.2 360.12,-632.4 43.2,-632.4"/>
<text text-anchor="start" x="50.2" y="-644.6" font-family="Arial" font-size="14.00">query_id </text>
<text text-anchor="start" x="107.79" y="-644.6" font-family="Arial" font-size="14.00" fill="#666666">[text]</text>
<polygon fill="none" stroke="black" points="43.2,-601.6 43.2,-632.4 360.12,-632.4 360.12,-601.6 43.2,-601.6"/>
<text text-anchor="start" x="50.2" y="-613.8" font-family="Arial" font-size="14.00">key </text>
<text text-anchor="start" x="75.88" y="-613.8" font-family="Arial" font-size="14.00" fill="#666666">[text]</text>
<polygon fill="none" stroke="black" points="43.2,-570.8 43.2,-601.6 360.12,-601.6 360.12,-570.8 43.2,-570.8"/>
<text text-anchor="start" x="50.2" y="-583" font-family="Arial" font-size="14.00">required </text>
<text text-anchor="start" x="105.45" y="-583" font-family="Arial" font-size="14.00" fill="#666666">[boolean]</text>
</g>
<!-- public.query_parameters&#45;&gt;public.queries -->
<g id="edge1" class="edge">
<title>public.query_parameters:query_id&#45;&gt;public.queries:id</title>
<path fill="none" stroke="black" d="M371.27,-647.29C513.27,-631.92 112.44,-274.2 278.82,-274.2"/>
<polygon fill="black" stroke="black" points="371.44,-647.28 361.22,-643.29 366.11,-647.55 361.78,-647.77 361.78,-647.77 361.78,-647.77 366.11,-647.55 361.68,-652.28 371.44,-647.28"/>
<text text-anchor="start" x="242.47" y="-631.8" font-family="Arial" font-size="10.00">FOREIGN KEY (query_id) REFERENCES queries(id)</text>
</g>
<!-- public.resource_types -->
<g id="node3" class="node">
<title>public.resource_types</title>
<polygon fill="#efefef" stroke="none" points="894.69,-755.6 894.69,-791.2 1190.63,-791.2 1190.63,-755.6 894.69,-755.6"/>
<polygon fill="none" stroke="black" points="894.69,-755.6 894.69,-791.2 1190.63,-791.2 1190.63,-755.6 894.69,-755.6"/>
<text text-anchor="start" x="901.69" y="-769" font-family="Arial Bold" font-size="18.00">public.resource_types</text>
<text text-anchor="start" x="1059.14" y="-769" font-family="Arial" font-size="14.00">    </text>
<text text-anchor="start" x="1090.25" y="-769" font-family="Arial" font-size="14.00" fill="#666666">[BASE TABLE]</text>
<polygon fill="none" stroke="black" points="894.69,-724.8 894.69,-755.6 1190.63,-755.6 1190.63,-724.8 894.69,-724.8"/>
<text text-anchor="start" x="901.69" y="-737" font-family="Arial" font-size="14.00">connector </text>
<text text-anchor="start" x="967.06" y="-737" font-family="Arial" font-size="14.00" fill="#666666">[text]</text>
<polygon fill="none" stroke="black" points="894.69,-694 894.69,-724.8 1190.63,-724.8 1190.63,-694 894.69,-694"/>
<text text-anchor="start" x="901.69" y="-706.2" font-family="Arial" font-size="14.00">resource_type </text>
<text text-anchor="start" x="994.3" y="-706.2" font-family="Arial" font-size="14.00" fill="#666666">[citext]</text>
<polygon fill="none" stroke="black" points="894.69,-663.2 894.69,-694 1190.63,-694 1190.63,-663.2 894.69,-663.2"/>
<text text-anchor="start" x="901.69" y="-675.4" font-family="Arial" font-size="14.00">resource_label </text>
<text text-anchor="start" x="997.41" y="-675.4" font-family="Arial" font-size="14.00" fill="#666666">[text]</text>
<polygon fill="none" stroke="black" points="894.69,-632.4 894.69,-663.2 1190.63,-663.2 1190.63,-632.4 894.69,-632.4"/>
<text text-anchor="start" x="901.69" y="-644.6" font-family="Arial" font-size="14.00">service_name </text>
<text text-anchor="start" x="992.73" y="-644.6" font-family="Arial" font-size="14.00" fill="#666666">[text]</text>
<polygon fill="none" stroke="black" points="894.69,-601.6 894.69,-632.4 1190.63,-632.4 1190.63,-601.6 894.69,-601.6"/>
<text text-anchor="start" x="901.69" y="-613.8" font-family="Arial" font-size="14.00">do_summarize </text>
<text text-anchor="start" x="997.39" y="-613.8" font-family="Arial" font-size="14.00" fill="#666666">[boolean]</text>
<polygon fill="none" stroke="black" points="894.69,-570.8 894.69,-601.6 1190.63,-601.6 1190.63,-570.8 894.69,-570.8"/>
<text text-anchor="start" x="901.69" y="-583" font-family="Arial" font-size="14.00">logo_uri </text>
<text text-anchor="start" x="955.39" y="-583" font-family="Arial" font-size="14.00" fill="#666666">[text]</text>
<polygon fill="none" stroke="black" points="894.69,-540 894.69,-570.8 1190.63,-570.8 1190.63,-540 894.69,-540"/>
<text text-anchor="start" x="901.69" y="-552.2" font-family="Arial" font-size="14.00">created_at </text>
<text text-anchor="start" x="971.74" y="-552.2" font-family="Arial" font-size="14.00" fill="#666666">[timestamp with time zone]</text>
<polygon fill="none" stroke="black" points="894.69,-509.2 894.69,-540 1190.63,-540 1190.63,-509.2 894.69,-509.2"/>
<text text-anchor="start" x="901.69" y="-521.4" font-family="Arial" font-size="14.00">updated_at </text>
<text text-anchor="start" x="975.65" y="-521.4" font-family="Arial" font-size="14.00" fill="#666666">[timestamp with time zone]</text>
<polygon fill="none" stroke="black" points="894.69,-478.4 894.69,-509.2 1190.63,-509.2 1190.63,-478.4 894.69,-478.4"/>
<text text-anchor="start" x="901.69" y="-490.6" font-family="Arial" font-size="14.00">deleted_at </text>
<text text-anchor="start" x="970.97" y="-490.6" font-family="Arial" font-size="14.00" fill="#666666">[timestamp with time zone]</text>
</g>
<!-- public.named_queries -->
<g id="node4" class="node">
<title>public.named_queries</title>
<polygon fill="#efefef" stroke="none" points="464.19,-709.4 464.19,-745 761.13,-745 761.13,-709.4 464.19,-709.4"/>
<polygon fill="none" stroke="black" points="464.19,-709.4 464.19,-745 761.13,-745 761.13,-709.4 464.19,-709.4"/>
<text text-anchor="start" x="471.19" y="-722.8" font-family="Arial Bold" font-size="18.00">public.named_queries</text>
<text text-anchor="start" x="629.64" y="-722.8" font-family="Arial" font-size="14.00">    </text>
<text text-anchor="start" x="660.76" y="-722.8" font-family="Arial" font-size="14.00" fill="#666666">[BASE TABLE]</text>
<polygon fill="none" stroke="black" points="464.19,-678.6 464.19,-709.4 761.13,-709.4 761.13,-678.6 464.19,-678.6"/>
<text text-anchor="start" x="471.19" y="-690.8" font-family="Arial" font-size="14.00">id </text>
<text text-anchor="start" x="485.97" y="-690.8" font-family="Arial" font-size="14.00" fill="#666666">[text]</text>
<polygon fill="none" stroke="black" points="464.19,-647.8 464.19,-678.6 761.13,-678.6 761.13,-647.8 464.19,-647.8"/>
<text text-anchor="start" x="471.19" y="-660" font-family="Arial" font-size="14.00">connectors </text>
<text text-anchor="start" x="543.56" y="-660" font-family="Arial" font-size="14.00" fill="#666666">[text[]]</text>
<polygon fill="none" stroke="black" points="464.19,-617 464.19,-647.8 761.13,-647.8 761.13,-617 464.19,-617"/>
<text text-anchor="start" x="471.19" y="-629.2" font-family="Arial" font-size="14.00">title </text>
<text text-anchor="start" x="496.86" y="-629.2" font-family="Arial" font-size="14.00" fill="#666666">[text]</text>
<polygon fill="none" stroke="black" points="464.19,-586.2 464.19,-617 761.13,-617 761.13,-586.2 464.19,-586.2"/>
<text text-anchor="start" x="471.19" y="-598.4" font-family="Arial" font-size="14.00">description </text>
<text text-anchor="start" x="542.78" y="-598.4" font-family="Arial" font-size="14.00" fill="#666666">[text]</text>
<polygon fill="none" stroke="black" points="464.19,-555.4 464.19,-586.2 761.13,-586.2 761.13,-555.4 464.19,-555.4"/>
<text text-anchor="start" x="471.19" y="-567.6" font-family="Arial" font-size="14.00">query_id </text>
<text text-anchor="start" x="528.78" y="-567.6" font-family="Arial" font-size="14.00" fill="#666666">[text]</text>
<polygon fill="none" stroke="black" points="464.19,-524.6 464.19,-555.4 761.13,-555.4 761.13,-524.6 464.19,-524.6"/>
<text text-anchor="start" x="471.19" y="-536.8" font-family="Arial" font-size="14.00">is_bookmarked </text>
<text text-anchor="start" x="570.02" y="-536.8" font-family="Arial" font-size="14.00" fill="#666666">[boolean]</text>
</g>
<!-- public.named_queries&#45;&gt;public.queries -->
<g id="edge2" class="edge">
<title>public.named_queries:query_id&#45;&gt;public.queries:id</title>
<path fill="none" stroke="black" d="M452.8,-570.1C346.62,-554.24 666.24,-274.2 534.5,-274.2"/>
<polygon fill="black" stroke="black" points="452.88,-570.11 462.55,-575.27 458.2,-570.46 462.52,-570.76 462.52,-570.76 462.52,-570.76 458.2,-570.46 463.16,-566.29 452.88,-570.11"/>
<text text-anchor="start" x="218.9" y="-580.8" font-family="Arial" font-size="10.00">FOREIGN KEY (query_id) REFERENCES queries(id)</text>
</g>
<!-- public.named_query_tags -->
<g id="node5" class="node">
<title>public.named_query_tags</title>
<polygon fill="#efefef" stroke="none" points="450.69,-1129.2 450.69,-1164.8 774.63,-1164.8 774.63,-1129.2 450.69,-1129.2"/>
<polygon fill="none" stroke="black" points="450.69,-1129.2 450.69,-1164.8 774.63,-1164.8 774.63,-1129.2 450.69,-1129.2"/>
<text text-anchor="start" x="457.69" y="-1142.6" font-family="Arial Bold" font-size="18.00">public.named_query_tags</text>
<text text-anchor="start" x="643.14" y="-1142.6" font-family="Arial" font-size="14.00">    </text>
<text text-anchor="start" x="674.26" y="-1142.6" font-family="Arial" font-size="14.00" fill="#666666">[BASE TABLE]</text>
<polygon fill="none" stroke="black" points="450.69,-1098.4 450.69,-1129.2 774.63,-1129.2 774.63,-1098.4 450.69,-1098.4"/>
<text text-anchor="start" x="457.69" y="-1110.6" font-family="Arial" font-size="14.00">key </text>
<text text-anchor="start" x="483.36" y="-1110.6" font-family="Arial" font-size="14.00" fill="#666666">[text]</text>
<polygon fill="none" stroke="black" points="450.69,-1067.6 450.69,-1098.4 774.63,-1098.4 774.63,-1067.6 450.69,-1067.6"/>
<text text-anchor="start" x="457.69" y="-1079.8" font-family="Arial" font-size="14.00">value </text>
<text text-anchor="start" x="495.05" y="-1079.8" font-family="Arial" font-size="14.00" fill="#666666">[text[]]</text>
<polygon fill="none" stroke="black" points="450.69,-1036.8 450.69,-1067.6 774.63,-1067.6 774.63,-1036.8 450.69,-1036.8"/>
<text text-anchor="start" x="457.69" y="-1049" font-family="Arial" font-size="14.00">created_at </text>
<text text-anchor="start" x="527.74" y="-1049" font-family="Arial" font-size="14.00" fill="#666666">[timestamp with time zone]</text>
<polygon fill="none" stroke="black" points="450.69,-1006 450.69,-1036.8 774.63,-1036.8 774.63,-1006 450.69,-1006"/>
<text text-anchor="start" x="457.69" y="-1018.2" font-family="Arial" font-size="14.00">updated_at </text>
<text text-anchor="start" x="531.65" y="-1018.2" font-family="Arial" font-size="14.00" fill="#666666">[timestamp with time zone]</text>
<polygon fill="none" stroke="black" points="450.69,-975.2 450.69,-1006 774.63,-1006 774.63,-975.2 450.69,-975.2"/>
<text text-anchor="start" x="457.69" y="-987.4" font-family="Arial" font-size="14.00">deleted_at </text>
<text text-anchor="start" x="526.97" y="-987.4" font-family="Arial" font-size="14.00" fill="#666666">[timestamp with time zone]</text>
<polygon fill="none" stroke="black" points="450.69,-944.4 450.69,-975.2 774.63,-975.2 774.63,-944.4 450.69,-944.4"/>
<text text-anchor="start" x="457.69" y="-956.6" font-family="Arial" font-size="14.00">named_query_id </text>
<text text-anchor="start" x="565.87" y="-956.6" font-family="Arial" font-size="14.00" fill="#666666">[text]</text>
</g>
<!-- public.named_query_tags&#45;&gt;public.named_queries -->
<g id="edge3" class="edge">
<title>public.named_query_tags:named_query_id&#45;&gt;public.named_queries:id</title>
<path fill="none" stroke="black" d="M613.14,-933.02C621.11,-849.96 726.48,-873.23 761.13,-788.2 776.93,-749.43 804,-694 762.13,-694"/>
<polygon fill="black" stroke="black" points="613.13,-933.08 608.18,-942.86 612.89,-938.41 612.69,-942.73 612.69,-942.73 612.69,-942.73 612.89,-938.41 617.17,-943.27 613.13,-933.08"/>
<text text-anchor="start" x="73.28" y="-953.4" font-family="Arial" font-size="10.00">FOREIGN KEY (named_query_id) REFERENCES named_queries(id) ON UPDATE CASCADE ON DELETE CASCADE</text>
</g>
<!-- public.named_query_histories -->
<g id="node6" class="node">
<title>public.named_query_histories</title>
<polygon fill="#efefef" stroke="none" points="1310.69,-1067.6 1310.69,-1103.2 1666.63,-1103.2 1666.63,-1067.6 1310.69,-1067.6"/>
<polygon fill="none" stroke="black" points="1310.69,-1067.6 1310.69,-1103.2 1666.63,-1103.2 1666.63,-1067.6 1310.69,-1067.6"/>
<text text-anchor="start" x="1317.69" y="-1081" font-family="Arial Bold" font-size="18.00">public.named_query_histories</text>
<text text-anchor="start" x="1535.14" y="-1081" font-family="Arial" font-size="14.00">    </text>
<text text-anchor="start" x="1566.26" y="-1081" font-family="Arial" font-size="14.00" fill="#666666">[BASE TABLE]</text>
<polygon fill="none" stroke="black" points="1310.69,-1036.8 1310.69,-1067.6 1666.63,-1067.6 1666.63,-1036.8 1310.69,-1036.8"/>
<text text-anchor="start" x="1317.69" y="-1049" font-family="Arial" font-size="14.00">query </text>
<text text-anchor="start" x="1356.6" y="-1049" font-family="Arial" font-size="14.00" fill="#666666">[citext]</text>
<polygon fill="none" stroke="black" points="1310.69,-1006 1310.69,-1036.8 1666.63,-1036.8 1666.63,-1006 1310.69,-1006"/>
<text text-anchor="start" x="1317.69" y="-1018.2" font-family="Arial" font-size="14.00">executed_at </text>
<text text-anchor="start" x="1397.86" y="-1018.2" font-family="Arial" font-size="14.00" fill="#666666">[timestamp with time zone]</text>
</g>
<!-- public.resource_type_tags -->
<g id="node7" class="node">
<title>public.resource_type_tags</title>
<polygon fill="#efefef" stroke="none" points="879.19,-1129.2 879.19,-1164.8 1206.12,-1164.8 1206.12,-1129.2 879.19,-1129.2"/>
<polygon fill="none" stroke="black" points="879.19,-1129.2 879.19,-1164.8 1206.12,-1164.8 1206.12,-1129.2 879.19,-1129.2"/>
<text text-anchor="start" x="886.19" y="-1142.6" font-family="Arial Bold" font-size="18.00">public.resource_type_tags</text>
<text text-anchor="start" x="1074.63" y="-1142.6" font-family="Arial" font-size="14.00">    </text>
<text text-anchor="start" x="1105.75" y="-1142.6" font-family="Arial" font-size="14.00" fill="#666666">[BASE TABLE]</text>
<polygon fill="none" stroke="black" points="879.19,-1098.4 879.19,-1129.2 1206.12,-1129.2 1206.12,-1098.4 879.19,-1098.4"/>
<text text-anchor="start" x="886.19" y="-1110.6" font-family="Arial" font-size="14.00">key </text>
<text text-anchor="start" x="911.87" y="-1110.6" font-family="Arial" font-size="14.00" fill="#666666">[text]</text>
<polygon fill="none" stroke="black" points="879.19,-1067.6 879.19,-1098.4 1206.12,-1098.4 1206.12,-1067.6 879.19,-1067.6"/>
<text text-anchor="start" x="886.19" y="-1079.8" font-family="Arial" font-size="14.00">value </text>
<text text-anchor="start" x="923.55" y="-1079.8" font-family="Arial" font-size="14.00" fill="#666666">[text[]]</text>
<polygon fill="none" stroke="black" points="879.19,-1036.8 879.19,-1067.6 1206.12,-1067.6 1206.12,-1036.8 879.19,-1036.8"/>
<text text-anchor="start" x="886.19" y="-1049" font-family="Arial" font-size="14.00">created_at </text>
<text text-anchor="start" x="956.24" y="-1049" font-family="Arial" font-size="14.00" fill="#666666">[timestamp with time zone]</text>
<polygon fill="none" stroke="black" points="879.19,-1006 879.19,-1036.8 1206.12,-1036.8 1206.12,-1006 879.19,-1006"/>
<text text-anchor="start" x="886.19" y="-1018.2" font-family="Arial" font-size="14.00">updated_at </text>
<text text-anchor="start" x="960.15" y="-1018.2" font-family="Arial" font-size="14.00" fill="#666666">[timestamp with time zone]</text>
<polygon fill="none" stroke="black" points="879.19,-975.2 879.19,-1006 1206.12,-1006 1206.12,-975.2 879.19,-975.2"/>
<text text-anchor="start" x="886.19" y="-987.4" font-family="Arial" font-size="14.00">deleted_at </text>
<text text-anchor="start" x="955.48" y="-987.4" font-family="Arial" font-size="14.00" fill="#666666">[timestamp with time zone]</text>
<polygon fill="none" stroke="black" points="879.19,-944.4 879.19,-975.2 1206.12,-975.2 1206.12,-944.4 879.19,-944.4"/>
<text text-anchor="start" x="886.19" y="-956.6" font-family="Arial" font-size="14.00">resource_type </text>
<text text-anchor="start" x="978.8" y="-956.6" font-family="Arial" font-size="14.00" fill="#666666">[citext]</text>
</g>
<!-- public.resource_type_tags&#45;&gt;public.resource_types -->
<g id="edge4" class="edge">
<title>public.resource_type_tags:resource_type&#45;&gt;public.resource_types:resource_type</title>
<path fill="none" stroke="black" d="M1043.31,-933.14C1052.47,-865.56 1155.16,-903.88 1190.63,-834.4 1215.88,-784.92 1247.18,-709.4 1191.63,-709.4"/>
<polygon fill="black" stroke="black" points="1043.32,-933.09 1038.19,-942.78 1042.98,-938.41 1042.7,-942.73 1042.7,-942.73 1042.7,-942.73 1042.98,-938.41 1047.17,-943.35 1043.32,-933.09"/>
<text text-anchor="start" x="1049.66" y="-927.4" font-family="Arial" font-size="10.00">FOREIGN KEY (resource_type) REFERENCES resource_types(resource_type) ON UPDATE CASCADE ON DELETE CASCADE</text>
</g>
<!-- public.analytic_metrics -->
<g id="node8" class="node">
<title>public.analytic_metrics</title>
<polygon fill="#efefef" stroke="none" points="1753.19,-786.4 1753.19,-822 2060.12,-822 2060.12,-786.4 1753.19,-786.4"/>
<polygon fill="none" stroke="black" points="1753.19,-786.4 1753.19,-822 2060.12,-822 2060.12,-786.4 1753.19,-786.4"/>
<text text-anchor="start" x="1760.19" y="-799.8" font-family="Arial Bold" font-size="18.00">public.analytic_metrics</text>
<text text-anchor="start" x="1928.63" y="-799.8" font-family="Arial" font-size="14.00">    </text>
<text text-anchor="start" x="1959.75" y="-799.8" font-family="Arial" font-size="14.00" fill="#666666">[BASE TABLE]</text>
<polygon fill="none" stroke="black" points="1753.19,-755.6 1753.19,-786.4 2060.12,-786.4 2060.12,-755.6 1753.19,-755.6"/>
<text text-anchor="start" x="1760.19" y="-767.8" font-family="Arial" font-size="14.00">id </text>
<text text-anchor="start" x="1774.98" y="-767.8" font-family="Arial" font-size="14.00" fill="#666666">[text]</text>
<polygon fill="none" stroke="black" points="1753.19,-724.8 1753.19,-755.6 2060.12,-755.6 2060.12,-724.8 1753.19,-724.8"/>
<text text-anchor="start" x="1760.19" y="-737" font-family="Arial" font-size="14.00">engine </text>
<text text-anchor="start" x="1806.12" y="-737" font-family="Arial" font-size="14.00" fill="#666666">[text]</text>
<polygon fill="none" stroke="black" points="1753.19,-694 1753.19,-724.8 2060.12,-724.8 2060.12,-694 1753.19,-694"/>
<text text-anchor="start" x="1760.19" y="-706.2" font-family="Arial" font-size="14.00">connectors </text>
<text text-anchor="start" x="1832.56" y="-706.2" font-family="Arial" font-size="14.00" fill="#666666">[text[]]</text>
<polygon fill="none" stroke="black" points="1753.19,-663.2 1753.19,-694 2060.12,-694 2060.12,-663.2 1753.19,-663.2"/>
<text text-anchor="start" x="1760.19" y="-675.4" font-family="Arial" font-size="14.00">type </text>
<text text-anchor="start" x="1790.54" y="-675.4" font-family="Arial" font-size="14.00" fill="#666666">[text]</text>
<polygon fill="none" stroke="black" points="1753.19,-632.4 1753.19,-663.2 2060.12,-663.2 2060.12,-632.4 1753.19,-632.4"/>
<text text-anchor="start" x="1760.19" y="-644.6" font-family="Arial" font-size="14.00">name </text>
<text text-anchor="start" x="1799.1" y="-644.6" font-family="Arial" font-size="14.00" fill="#666666">[text]</text>
<polygon fill="none" stroke="black" points="1753.19,-601.6 1753.19,-632.4 2060.12,-632.4 2060.12,-601.6 1753.19,-601.6"/>
<text text-anchor="start" x="1760.19" y="-613.8" font-family="Arial" font-size="14.00">query </text>
<text text-anchor="start" x="1799.1" y="-613.8" font-family="Arial" font-size="14.00" fill="#666666">[text]</text>
<polygon fill="none" stroke="black" points="1753.19,-570.8 1753.19,-601.6 2060.12,-601.6 2060.12,-570.8 1753.19,-570.8"/>
<text text-anchor="start" x="1760.19" y="-583" font-family="Arial" font-size="14.00">tables </text>
<text text-anchor="start" x="1801.44" y="-583" font-family="Arial" font-size="14.00" fill="#666666">[text[]]</text>
<polygon fill="none" stroke="black" points="1753.19,-540 1753.19,-570.8 2060.12,-570.8 2060.12,-540 1753.19,-540"/>
<text text-anchor="start" x="1760.19" y="-552.2" font-family="Arial" font-size="14.00">finder_query </text>
<text text-anchor="start" x="1841.91" y="-552.2" font-family="Arial" font-size="14.00" fill="#666666">[text]</text>
<polygon fill="none" stroke="black" points="1753.19,-509.2 1753.19,-540 2060.12,-540 2060.12,-509.2 1753.19,-509.2"/>
<text text-anchor="start" x="1760.19" y="-521.4" font-family="Arial" font-size="14.00">finder_per_connection_query </text>
<text text-anchor="start" x="1945.43" y="-521.4" font-family="Arial" font-size="14.00" fill="#666666">[text]</text>
<polygon fill="none" stroke="black" points="1753.19,-478.4 1753.19,-509.2 2060.12,-509.2 2060.12,-478.4 1753.19,-478.4"/>
<text text-anchor="start" x="1760.19" y="-490.6" font-family="Arial" font-size="14.00">visible </text>
<text text-anchor="start" x="1802.99" y="-490.6" font-family="Arial" font-size="14.00" fill="#666666">[boolean]</text>
<polygon fill="none" stroke="black" points="1753.19,-447.6 1753.19,-478.4 2060.12,-478.4 2060.12,-447.6 1753.19,-447.6"/>
<text text-anchor="start" x="1760.19" y="-459.8" font-family="Arial" font-size="14.00">status </text>
<text text-anchor="start" x="1801.43" y="-459.8" font-family="Arial" font-size="14.00" fill="#666666">[text]</text>
</g>
<!-- public.metric_tags -->
<g id="node9" class="node">
<title>public.metric_tags</title>
<polygon fill="#efefef" stroke="none" points="1770.68,-1129.2 1770.68,-1164.8 2042.63,-1164.8 2042.63,-1129.2 1770.68,-1129.2"/>
<polygon fill="none" stroke="black" points="1770.68,-1129.2 1770.68,-1164.8 2042.63,-1164.8 2042.63,-1129.2 1770.68,-1129.2"/>
<text text-anchor="start" x="1777.68" y="-1142.6" font-family="Arial Bold" font-size="18.00">public.metric_tags</text>
<text text-anchor="start" x="1911.14" y="-1142.6" font-family="Arial" font-size="14.00">    </text>
<text text-anchor="start" x="1942.26" y="-1142.6" font-family="Arial" font-size="14.00" fill="#666666">[BASE TABLE]</text>
<polygon fill="none" stroke="black" points="1770.68,-1098.4 1770.68,-1129.2 2042.63,-1129.2 2042.63,-1098.4 1770.68,-1098.4"/>
<text text-anchor="start" x="1777.68" y="-1110.6" font-family="Arial" font-size="14.00">key </text>
<text text-anchor="start" x="1803.36" y="-1110.6" font-family="Arial" font-size="14.00" fill="#666666">[text]</text>
<polygon fill="none" stroke="black" points="1770.68,-1067.6 1770.68,-1098.4 2042.63,-1098.4 2042.63,-1067.6 1770.68,-1067.6"/>
<text text-anchor="start" x="1777.68" y="-1079.8" font-family="Arial" font-size="14.00">value </text>
<text text-anchor="start" x="1815.04" y="-1079.8" font-family="Arial" font-size="14.00" fill="#666666">[text[]]</text>
<polygon fill="none" stroke="black" points="1770.68,-1036.8 1770.68,-1067.6 2042.63,-1067.6 2042.63,-1036.8 1770.68,-1036.8"/>
<text text-anchor="start" x="1777.68" y="-1049" font-family="Arial" font-size="14.00">created_at </text>
<text text-anchor="start" x="1847.73" y="-1049" font-family="Arial" font-size="14.00" fill="#666666">[timestamp with time zone]</text>
<polygon fill="none" stroke="black" points="1770.68,-1006 1770.68,-1036.8 2042.63,-1036.8 2042.63,-1006 1770.68,-1006"/>
<text text-anchor="start" x="1777.68" y="-1018.2" font-family="Arial" font-size="14.00">updated_at </text>
<text text-anchor="start" x="1851.64" y="-1018.2" font-family="Arial" font-size="14.00" fill="#666666">[timestamp with time zone]</text>
<polygon fill="none" stroke="black" points="1770.68,-975.2 1770.68,-1006 2042.63,-1006 2042.63,-975.2 1770.68,-975.2"/>
<text text-anchor="start" x="1777.68" y="-987.4" font-family="Arial" font-size="14.00">deleted_at </text>
<text text-anchor="start" x="1846.96" y="-987.4" font-family="Arial" font-size="14.00" fill="#666666">[timestamp with time zone]</text>
<polygon fill="none" stroke="black" points="1770.68,-944.4 1770.68,-975.2 2042.63,-975.2 2042.63,-944.4 1770.68,-944.4"/>
<text text-anchor="start" x="1777.68" y="-956.6" font-family="Arial" font-size="14.00">id </text>
<text text-anchor="start" x="1792.47" y="-956.6" font-family="Arial" font-size="14.00" fill="#666666">[text]</text>
</g>
<!-- public.metric_tags&#45;&gt;public.analytic_metrics -->
<g id="edge5" class="edge">
<title>public.metric_tags:id&#45;&gt;public.analytic_metrics:id</title>
<path fill="none" stroke="black" d="M1907.45,-933.16C1917.53,-872.73 2021.75,-927.08 2060.12,-865.2 2082.19,-829.62 2102.99,-771 2061.12,-771"/>
<polygon fill="black" stroke="black" points="1907.45,-933.1 1902.2,-942.72 1907.04,-938.41 1906.71,-942.73 1906.71,-942.73 1906.71,-942.73 1907.04,-938.41 1911.17,-943.41 1907.45,-933.1"/>
<text text-anchor="start" x="1431.24" y="-953.4" font-family="Arial" font-size="10.00">FOREIGN KEY (id) REFERENCES analytic_metrics(id) ON UPDATE CASCADE ON DELETE CASCADE</text>
</g>
<!-- public.resource_collections -->
<g id="node10" class="node">
<title>public.resource_collections</title>
<polygon fill="#efefef" stroke="none" points="2164.7,-755.6 2164.7,-791.2 2500.62,-791.2 2500.62,-755.6 2164.7,-755.6"/>
<polygon fill="none" stroke="black" points="2164.7,-755.6 2164.7,-791.2 2500.62,-791.2 2500.62,-755.6 2164.7,-755.6"/>
<text text-anchor="start" x="2171.7" y="-769" font-family="Arial Bold" font-size="18.00">public.resource_collections</text>
<text text-anchor="start" x="2369.13" y="-769" font-family="Arial" font-size="14.00">    </text>
<text text-anchor="start" x="2400.24" y="-769" font-family="Arial" font-size="14.00" fill="#666666">[BASE TABLE]</text>
<polygon fill="none" stroke="black" points="2164.7,-724.8 2164.7,-755.6 2500.62,-755.6 2500.62,-724.8 2164.7,-724.8"/>
<text text-anchor="start" x="2171.7" y="-737" font-family="Arial" font-size="14.00">id </text>
<text text-anchor="start" x="2186.49" y="-737" font-family="Arial" font-size="14.00" fill="#666666">[text]</text>
<polygon fill="none" stroke="black" points="2164.7,-694 2164.7,-724.8 2500.62,-724.8 2500.62,-694 2164.7,-694"/>
<text text-anchor="start" x="2171.7" y="-706.2" font-family="Arial" font-size="14.00">name </text>
<text text-anchor="start" x="2210.61" y="-706.2" font-family="Arial" font-size="14.00" fill="#666666">[text]</text>
<polygon fill="none" stroke="black" points="2164.7,-663.2 2164.7,-694 2500.62,-694 2500.62,-663.2 2164.7,-663.2"/>
<text text-anchor="start" x="2171.7" y="-675.4" font-family="Arial" font-size="14.00">filters_json </text>
<text text-anchor="start" x="2242.51" y="-675.4" font-family="Arial" font-size="14.00" fill="#666666">[jsonb]</text>
<polygon fill="none" stroke="black" points="2164.7,-632.4 2164.7,-663.2 2500.62,-663.2 2500.62,-632.4 2164.7,-632.4"/>
<text text-anchor="start" x="2171.7" y="-644.6" font-family="Arial" font-size="14.00">description </text>
<text text-anchor="start" x="2243.29" y="-644.6" font-family="Arial" font-size="14.00" fill="#666666">[text]</text>
<polygon fill="none" stroke="black" points="2164.7,-601.6 2164.7,-632.4 2500.62,-632.4 2500.62,-601.6 2164.7,-601.6"/>
<text text-anchor="start" x="2171.7" y="-613.8" font-family="Arial" font-size="14.00">status </text>
<text text-anchor="start" x="2212.94" y="-613.8" font-family="Arial" font-size="14.00" fill="#666666">[text]</text>
<polygon fill="none" stroke="black" points="2164.7,-570.8 2164.7,-601.6 2500.62,-601.6 2500.62,-570.8 2164.7,-570.8"/>
<text text-anchor="start" x="2171.7" y="-583" font-family="Arial" font-size="14.00">created </text>
<text text-anchor="start" x="2222.28" y="-583" font-family="Arial" font-size="14.00" fill="#666666">[timestamp with time zone]</text>
<polygon fill="none" stroke="black" points="2164.7,-540 2164.7,-570.8 2500.62,-570.8 2500.62,-540 2164.7,-540"/>
<text text-anchor="start" x="2171.7" y="-552.2" font-family="Arial" font-size="14.00">created_at </text>
<text text-anchor="start" x="2241.75" y="-552.2" font-family="Arial" font-size="14.00" fill="#666666">[timestamp with time zone]</text>
<polygon fill="none" stroke="black" points="2164.7,-509.2 2164.7,-540 2500.62,-540 2500.62,-509.2 2164.7,-509.2"/>
<text text-anchor="start" x="2171.7" y="-521.4" font-family="Arial" font-size="14.00">updated_at </text>
<text text-anchor="start" x="2245.66" y="-521.4" font-family="Arial" font-size="14.00" fill="#666666">[timestamp with time zone]</text>
<polygon fill="none" stroke="black" points="2164.7,-478.4 2164.7,-509.2 2500.62,-509.2 2500.62,-478.4 2164.7,-478.4"/>
<text text-anchor="start" x="2171.7" y="-490.6" font-family="Arial" font-size="14.00">deleted_at </text>
<text text-anchor="start" x="2240.98" y="-490.6" font-family="Arial" font-size="14.00" fill="#666666">[timestamp with time zone]</text>
</g>
<!-- public.resource_collection_tags -->
<g id="node11" class="node">
<title>public.resource_collection_tags</title>
<polygon fill="#efefef" stroke="none" points="2149.2,-1129.2 2149.2,-1164.8 2516.11,-1164.8 2516.11,-1129.2 2149.2,-1129.2"/>
<polygon fill="none" stroke="black" points="2149.2,-1129.2 2149.2,-1164.8 2516.11,-1164.8 2516.11,-1129.2 2149.2,-1129.2"/>
<text text-anchor="start" x="2156.2" y="-1142.6" font-family="Arial Bold" font-size="18.00">public.resource_collection_tags</text>
<text text-anchor="start" x="2384.62" y="-1142.6" font-family="Arial" font-size="14.00">    </text>
<text text-anchor="start" x="2415.74" y="-1142.6" font-family="Arial" font-size="14.00" fill="#666666">[BASE TABLE]</text>
<polygon fill="none" stroke="black" points="2149.2,-1098.4 2149.2,-1129.2 2516.11,-1129.2 2516.11,-1098.4 2149.2,-1098.4"/>
<text text-anchor="start" x="2156.2" y="-1110.6" font-family="Arial" font-size="14.00">key </text>
<text text-anchor="start" x="2181.88" y="-1110.6" font-family="Arial" font-size="14.00" fill="#666666">[text]</text>
<polygon fill="none" stroke="black" points="2149.2,-1067.6 2149.2,-1098.4 2516.11,-1098.4 2516.11,-1067.6 2149.2,-1067.6"/>
<text text-anchor="start" x="2156.2" y="-1079.8" font-family="Arial" font-size="14.00">value </text>
<text text-anchor="start" x="2193.56" y="-1079.8" font-family="Arial" font-size="14.00" fill="#666666">[text[]]</text>
<polygon fill="none" stroke="black" points="2149.2,-1036.8 2149.2,-1067.6 2516.11,-1067.6 2516.11,-1036.8 2149.2,-1036.8"/>
<text text-anchor="start" x="2156.2" y="-1049" font-family="Arial" font-size="14.00">created_at </text>
<text text-anchor="start" x="2226.25" y="-1049" font-family="Arial" font-size="14.00" fill="#666666">[timestamp with time zone]</text>
<polygon fill="none" stroke="black" points="2149.2,-1006 2149.2,-1036.8 2516.11,-1036.8 2516.11,-1006 2149.2,-1006"/>
<text text-anchor="start" x="2156.2" y="-1018.2" font-family="Arial" font-size="14.00">updated_at </text>
<text text-anchor="start" x="2230.16" y="-1018.2" font-family="Arial" font-size="14.00" fill="#666666">[timestamp with time zone]</text>
<polygon fill="none" stroke="black" points="2149.2,-975.2 2149.2,-1006 2516.11,-1006 2516.11,-975.2 2149.2,-975.2"/>
<text text-anchor="start" x="2156.2" y="-987.4" font-family="Arial" font-size="14.00">deleted_at </text>
<text text-anchor="start" x="2225.49" y="-987.4" font-family="Arial" font-size="14.00" fill="#666666">[timestamp with time zone]</text>
<polygon fill="none" stroke="black" points="2149.2,-944.4 2149.2,-975.2 2516.11,-975.2 2516.11,-944.4 2149.2,-944.4"/>
<text text-anchor="start" x="2156.2" y="-956.6" font-family="Arial" font-size="14.00">resource_collection_id </text>
<text text-anchor="start" x="2299.4" y="-956.6" font-family="Arial" font-size="14.00" fill="#666666">[text]</text>
</g>
<!-- public.resource_collection_tags&#45;&gt;public.resource_collections -->
<g id="edge6" class="edge">
<title>public.resource_collection_tags:resource_collection_id&#45;&gt;public.resource_collections:id</title>
<path fill="none" stroke="black" d="M2333.27,-933.17C2342.78,-858.94 2459.49,-909.17 2500.62,-834.4 2520.8,-797.71 2543.49,-740.2 2501.62,-740.2"/>
<polygon fill="black" stroke="black" points="2333.28,-933.08 2328.19,-942.8 2332.96,-938.41 2332.7,-942.73 2332.7,-942.73 2332.7,-942.73 2332.96,-938.41 2337.17,-943.34 2333.28,-933.08"/>
<text text-anchor="start" x="1746.05" y="-927.4" font-family="Arial" font-size="10.00">FOREIGN KEY (resource_collection_id) REFERENCES resource_collections(id) ON UPDATE CASCADE ON DELETE CASCADE</text>
</g>
<!-- public.resource_type_v2 -->
<g id="node12" class="node">
<title>public.resource_type_v2</title>
<polygon fill="#efefef" stroke="none" points="2620.69,-1113.8 2620.69,-1149.4 2936.62,-1149.4 2936.62,-1113.8 2620.69,-1113.8"/>
<polygon fill="none" stroke="black" points="2620.69,-1113.8 2620.69,-1149.4 2936.62,-1149.4 2936.62,-1113.8 2620.69,-1113.8"/>
<text text-anchor="start" x="2627.69" y="-1127.2" font-family="Arial Bold" font-size="18.00">public.resource_type_v2</text>
<text text-anchor="start" x="2805.13" y="-1127.2" font-family="Arial" font-size="14.00">    </text>
<text text-anchor="start" x="2836.25" y="-1127.2" font-family="Arial" font-size="14.00" fill="#666666">[BASE TABLE]</text>
<polygon fill="none" stroke="black" points="2620.69,-1083 2620.69,-1113.8 2936.62,-1113.8 2936.62,-1083 2620.69,-1083"/>
<text text-anchor="start" x="2627.69" y="-1095.2" font-family="Arial" font-size="14.00">provider_name </text>
<text text-anchor="start" x="2724.97" y="-1095.2" font-family="Arial" font-size="14.00" fill="#666666">[text]</text>
<polygon fill="none" stroke="black" points="2620.69,-1052.2 2620.69,-1083 2936.62,-1083 2936.62,-1052.2 2620.69,-1052.2"/>
<text text-anchor="start" x="2627.69" y="-1064.4" font-family="Arial" font-size="14.00">resource_name </text>
<text text-anchor="start" x="2728.86" y="-1064.4" font-family="Arial" font-size="14.00" fill="#666666">[text]</text>
<polygon fill="none" stroke="black" points="2620.69,-1021.4 2620.69,-1052.2 2936.62,-1052.2 2936.62,-1021.4 2620.69,-1021.4"/>
<text text-anchor="start" x="2627.69" y="-1033.6" font-family="Arial" font-size="14.00">resource_id </text>
<text text-anchor="start" x="2704.73" y="-1033.6" font-family="Arial" font-size="14.00" fill="#666666">[text]</text>
<polygon fill="none" stroke="black" points="2620.69,-990.6 2620.69,-1021.4 2936.62,-1021.4 2936.62,-990.6 2620.69,-990.6"/>
<text text-anchor="start" x="2627.69" y="-1002.8" font-family="Arial" font-size="14.00">steampipe_table </text>
<text text-anchor="start" x="2734.32" y="-1002.8" font-family="Arial" font-size="14.00" fill="#666666">[text]</text>
<polygon fill="none" stroke="black" points="2620.69,-959.8 2620.69,-990.6 2936.62,-990.6 2936.62,-959.8 2620.69,-959.8"/>
<text text-anchor="start" x="2627.69" y="-972" font-family="Arial" font-size="14.00">category </text>
<text text-anchor="start" x="2685.28" y="-972" font-family="Arial" font-size="14.00" fill="#666666">[text]</text>
</g>
</g>
</svg>
